<svg xmlns="http://www.w3.org/2000/svg" width="415" height="322" viewBox="0 0 415 322">
  <g id="グループ_3055" data-name="グループ 3055" transform="translate(-461 -3803)">
    <g id="グループ_3047" data-name="グループ 3047" transform="translate(271.589 3326.016)">
      <path id="パス_3054" data-name="パス 3054" d="M11.749,1.415A13.162,13.162,0,0,1,11.39,3.27a1.181,1.181,0,0,1-1.257,1.017H7.321q-1.077,0-1.077-1.017V-3.073H7.38q.539,0,.06.359V2.671q0,.479.419.479H9.594a.514.514,0,0,0,.539-.3,7.764,7.764,0,0,0,.3-1.735ZM1.636-7.023H6.961V-8.758H8.278q.539,0,.06.359v1.376H13.6v1.137H2.833V-.68A8.769,8.769,0,0,1,1.516,4.287l-.957-.9A7.557,7.557,0,0,0,1.636-.68Zm3.83,5.445q.359.18.06.479a25.555,25.555,0,0,1-1.017,3.83L3.251,2.312A15.278,15.278,0,0,0,4.269-1.817Zm6.4-.12a13.32,13.32,0,0,1,2.214,3.291l-1.2.838A15.221,15.221,0,0,0,10.911-.979ZM7.919-5.287a18.825,18.825,0,0,1,2.274,2.154L9.116-2.116A13.224,13.224,0,0,0,7.021-4.449ZM21.144-.44a6.537,6.537,0,0,1-1.5,1.376h2.394L22.46-.081l1.2.239q.359.06-.18.3l-.239.479h2.693A12.485,12.485,0,0,1,24.2-.44ZM23.6,3.629h1.376a.436.436,0,0,0,.479-.419l.18-1.316H22.939q-1.376,2.753-5.326,3.231l-.419-1.077q3.231-.479,4.488-2.154H18.81V1.415A10.722,10.722,0,0,1,16.3,2.432l-.419-1.077a9.493,9.493,0,0,0,3.83-1.8H16.356V-1.4h4.009l.479-.778H18.152v-3.83h1.855v-.778h-3.77v-.957h3.77V-8.878h.957q.479.06.06.359v.778h3.291v-1.2h.957q.479.06.06.359v.838H29.1v.957h-3.77v.778h1.855v3.83H22.041l-.359.778h7.6V-.44H25.811a9.139,9.139,0,0,0,3.77,1.616l-.3,1.2a9.119,9.119,0,0,1-2.453-.957l-.239,2.214a1.132,1.132,0,0,1-1.257,1.137H23.657Zm.718-9.634v-.778H21.024v.778ZM26.17-4.39v-.9h-7v.9Zm0,1.5v-.778h-7v.778ZM41.549.218a12.592,12.592,0,0,0,1.017-4.907H40.532A12.592,12.592,0,0,0,41.549.218Zm2.214-4.907A12.719,12.719,0,0,1,42.327,1.3,8.21,8.21,0,0,0,45.02,3.39l-.778,1.316a9.67,9.67,0,0,1-2.693-2.394A10.987,10.987,0,0,1,37.3,5.005l-.6-1.2a10.041,10.041,0,0,0,4.129-2.573,9.89,9.89,0,0,1-1.137-3.949,6.155,6.155,0,0,1-.718,1.376l-1.017-.778a13.6,13.6,0,0,0,2.154-6.523l1.257.3q.359.239-.18.359a20.855,20.855,0,0,1-.479,2.154H44.78v1.137ZM38.2-7.561a5.876,5.876,0,0,1-.838,1.5L36.4-6.6a12.538,12.538,0,0,0,.9-1.8l1.077.539Q38.617-7.621,38.2-7.561ZM34.368.876a10.785,10.785,0,0,1,1.5.539A4.065,4.065,0,0,0,36.642-.2H34.907Q34.667.338,34.368.876Zm-.838,1.5-.957-.539A22.928,22.928,0,0,0,33.77-.2H31.5v-.957h2.633a13.265,13.265,0,0,0,.539-1.316l1.137.3q.239.239-.18.3l-.359.718h3.411V-.2h-.9a5.945,5.945,0,0,1-.9,2.035,10.568,10.568,0,0,1,1.137.6l-.539.957a9.33,9.33,0,0,0-1.2-.658,7.078,7.078,0,0,1-4.189,1.915l-.419-1.077a6.409,6.409,0,0,0,3.59-1.316q-.658-.3-1.316-.539Zm1.2-11.25h.957q.479.06.06.359v2.573H38.8v.957H36.283a6.716,6.716,0,0,0,2.035,1.5l-.658,1.017A7.413,7.413,0,0,1,35.745-4.15v1.436H34.727V-3.851A9.091,9.091,0,0,1,32.094-1.7l-.778-.957a10.153,10.153,0,0,0,3.052-2.334H31.616v-.957h3.112ZM33.052-6.125a5.416,5.416,0,0,0-1.077-1.556l.957-.6a5.238,5.238,0,0,1,1.077,1.5Z" transform="translate(188.853 526.921)" fill="#292929"/>
      <text id="_0" data-name="0" transform="translate(215.66 732.36)" fill="#818181" font-size="7" font-family="Helvetica-Bold, Helvetica" font-weight="700"><tspan x="0" y="0">0</tspan></text>
      <text id="_200" data-name="200" transform="translate(200.003 662.71)" fill="#818181" font-size="6" font-family="Helvetica-Bold, Helvetica" font-weight="700"><tspan x="0" y="0">200</tspan></text>
      <text id="_400" data-name="400" transform="translate(200.003 605.12)" fill="#818181" font-size="6" font-family="Helvetica-Bold, Helvetica" font-weight="700"><tspan x="0" y="0">400</tspan></text>
      <path id="パス_3051" data-name="パス 3051" d="M9.179-3.421A6.832,6.832,0,0,1,4.9,3.185L3.674,2.145Q7.711.31,7.772-3.482V-9.6H9.056q.612.122.122.489Zm-6.3,1.346H1.473V-8.986H2.818q.612.061.061.489Zm9.235.979h12.66V.249H12.114Zm1.529-6.666h8.99v1.346h-8.99ZM37.434,1.472H26.426V.31h6.605l.122-4.587H28.138V-5.439h6.238L34.254.31h3.18Zm1.651-4.526V-4.4H52.724v1.346ZM60.859-4.277A7.809,7.809,0,0,1,56.883,2.94l-1.04-1.162q3.608-1.957,3.608-5.5v-2.63h1.284q.55.061.122.428v1.59a16.077,16.077,0,0,0,3.364-3.241l-9.969.367-.122-1.407,11.131-.306.428-.122.917,1.1q.183.245-.306.183A26.746,26.746,0,0,1,61.9-3.3ZM76.638.188a11.367,11.367,0,0,0,4.954-4.159l.856,1.162a13.174,13.174,0,0,1-5.871,4.587l-.489.245-.979-.734.122-.306V-8.864h1.284q.55.122.122.489Zm-8.2,1.651A9.683,9.683,0,0,0,71.5-5.439V-8.191h1.284q.55.122.122.489v2.2a10.536,10.536,0,0,1-3.241,8.134Zm-64.1,8.04a2.561,2.561,0,0,0,.8-1.6H6.1V22.116H4.258V11.479h-2.4v-.96h.72A2.378,2.378,0,0,0,4.338,9.879Zm11.714,8.337h3.425V14.974H16.052Zm3.425,1.774v-.612H16.052v.673H14.829V13.812H20.7v6.177ZM12.811,21.7h9.847V11.733H12.811Zm9.847,1.712v-.55H12.811v.856H11.588V10.571H23.881V23.414Zm14.311-4.342a12.87,12.87,0,0,0,1.04-5.015H35.929A12.87,12.87,0,0,0,36.969,19.072Zm2.263-5.015a13,13,0,0,1-1.468,6.116,8.391,8.391,0,0,0,2.752,2.141l-.8,1.346a9.884,9.884,0,0,1-2.752-2.446,11.229,11.229,0,0,1-4.342,2.752l-.612-1.223a10.262,10.262,0,0,0,4.22-2.63,10.108,10.108,0,0,1-1.162-4.037,6.29,6.29,0,0,1-.734,1.407l-1.04-.8a13.9,13.9,0,0,0,2.2-6.666l1.284.306q.367.245-.183.367a21.313,21.313,0,0,1-.489,2.2h4.159v1.162Zm-5.688-2.936a6.006,6.006,0,0,1-.856,1.529l-.979-.55a12.814,12.814,0,0,0,.917-1.835l1.1.55Q33.972,11.06,33.544,11.121ZM29.63,19.745a11.023,11.023,0,0,1,1.529.55,4.154,4.154,0,0,0,.8-1.651H30.18Q29.935,19.194,29.63,19.745Zm-.856,1.529-.979-.55a23.433,23.433,0,0,0,1.223-2.079H26.694v-.979h2.691a13.557,13.557,0,0,0,.55-1.346l1.162.306q.245.245-.183.306l-.367.734h3.486v.979h-.917a6.077,6.077,0,0,1-.917,2.079,10.8,10.8,0,0,1,1.162.612l-.55.979a9.535,9.535,0,0,0-1.223-.673A7.234,7.234,0,0,1,27.306,23.6l-.428-1.1a6.55,6.55,0,0,0,3.67-1.346q-.673-.306-1.346-.55ZM30,9.776h.979q.489.061.061.367v2.63h3.119v.979H31.587a6.864,6.864,0,0,0,2.079,1.529l-.673,1.04a7.576,7.576,0,0,1-1.957-1.712v1.468H30V14.913a9.291,9.291,0,0,1-2.691,2.2l-.8-.979a10.377,10.377,0,0,0,3.119-2.385H26.816v-.979H30Zm-1.712,2.813a5.536,5.536,0,0,0-1.1-1.59l.979-.612a5.353,5.353,0,0,1,1.1,1.529Z" transform="translate(264.771 750.555)" fill="#292929"/>
      <path id="パス_3052" data-name="パス 3052" d="M9.3-3.421A6.832,6.832,0,0,1,5.022,3.185L3.8,2.145Q7.835.31,7.9-3.482V-9.6H9.181q.612.122.122.489ZM3-2.075H1.6V-8.986H2.943q.612.061.061.489Zm9.235.979H24.9V.249H12.239Zm1.529-6.666h8.99v1.346h-8.99ZM37.559,1.472H26.55V.31h6.605l.122-4.587H28.263V-5.439H34.5L34.379.31h3.18ZM39.21-3.054V-4.4H52.849v1.346ZM60.983-4.277A7.809,7.809,0,0,1,57.008,2.94l-1.04-1.162q3.608-1.957,3.608-5.5v-2.63h1.284q.55.061.122.428v1.59a16.078,16.078,0,0,0,3.364-3.241l-9.969.367-.122-1.407,11.131-.306.428-.122.917,1.1q.183.245-.306.183a26.747,26.747,0,0,1-4.4,4.465ZM76.762.188a11.367,11.367,0,0,0,4.954-4.159l.856,1.162A13.174,13.174,0,0,1,76.7,1.778l-.489.245-.979-.734.122-.306V-8.864H76.64q.55.122.122.489Zm-8.2,1.651a9.683,9.683,0,0,0,3.058-7.278V-8.191h1.284q.55.122.122.489v2.2A10.536,10.536,0,0,1,69.79,2.634ZM1.183,13.158A5.1,5.1,0,0,1,2.463,9.4,3.385,3.385,0,0,1,4.942,8.36a3.783,3.783,0,0,1,2.8,1.04,3.478,3.478,0,0,1,1.04,2.559,5.088,5.088,0,0,1-1.2,3.359q-1.12,1.36-2.319,2.639L3.982,19.4a10,10,0,0,0-.96,1.28h6V22.2H.863v-1.36A5.975,5.975,0,0,1,2.223,18.6q2-2.159,3.279-3.6a4.391,4.391,0,0,0,1.36-3.039,2.17,2.17,0,0,0-.64-1.6,1.628,1.628,0,0,0-1.2-.48,1.535,1.535,0,0,0-1.12.48,3.831,3.831,0,0,0-.88,2.8Zm14.993,5.057H19.6V14.974H16.177ZM19.6,19.989v-.612H16.177v.673H14.953V13.812h5.871v6.177ZM12.935,21.7h9.847V11.733H12.935Zm9.847,1.712v-.55H12.935v.856H11.712V10.571H24.005V23.414Zm14.311-4.342a12.87,12.87,0,0,0,1.04-5.015H36.054A12.87,12.87,0,0,0,37.093,19.072Zm2.263-5.015a13,13,0,0,1-1.468,6.116,8.391,8.391,0,0,0,2.752,2.141l-.8,1.346a9.884,9.884,0,0,1-2.752-2.446,11.229,11.229,0,0,1-4.342,2.752l-.612-1.223a10.262,10.262,0,0,0,4.22-2.63A10.108,10.108,0,0,1,35.2,16.075a6.291,6.291,0,0,1-.734,1.407l-1.04-.8a13.9,13.9,0,0,0,2.2-6.666l1.284.306q.367.245-.183.367a21.316,21.316,0,0,1-.489,2.2H40.4v1.162Zm-5.688-2.936a6.006,6.006,0,0,1-.856,1.529l-.979-.55a12.813,12.813,0,0,0,.917-1.835l1.1.55Q34.1,11.06,33.668,11.121Zm-3.914,8.623a11.022,11.022,0,0,1,1.529.55,4.154,4.154,0,0,0,.8-1.651H30.3Q30.06,19.194,29.754,19.745ZM28.9,21.274l-.979-.55a23.432,23.432,0,0,0,1.223-2.079H26.818v-.979h2.691a13.557,13.557,0,0,0,.55-1.346l1.162.306q.245.245-.183.306l-.367.734h3.486v.979H33.24a6.077,6.077,0,0,1-.917,2.079,10.8,10.8,0,0,1,1.162.612l-.55.979a9.535,9.535,0,0,0-1.223-.673A7.234,7.234,0,0,1,27.43,23.6L27,22.5a6.55,6.55,0,0,0,3.67-1.346q-.673-.306-1.346-.55Zm1.223-11.5H31.1q.489.061.061.367v2.63H34.28v.979H31.711a6.864,6.864,0,0,0,2.079,1.529l-.673,1.04a7.576,7.576,0,0,1-1.957-1.712v1.468h-1.04V14.913a9.291,9.291,0,0,1-2.691,2.2l-.8-.979a10.377,10.377,0,0,0,3.119-2.385H26.941v-.979h3.18Zm-1.712,2.813a5.535,5.535,0,0,0-1.1-1.59l.979-.612a5.353,5.353,0,0,1,1.1,1.529Z" transform="translate(376.277 750.555)" fill="#292929"/>
      <path id="パス_3053" data-name="パス 3053" d="M9.3-3.421A6.832,6.832,0,0,1,5.022,3.185L3.8,2.145Q7.835.31,7.9-3.482V-9.6H9.181q.612.122.122.489ZM3-2.075H1.6V-8.986H2.943q.612.061.061.489Zm9.235.979H24.9V.249H12.239Zm1.529-6.666h8.99v1.346h-8.99ZM37.559,1.472H26.55V.31h6.605l.122-4.587H28.263V-5.439H34.5L34.379.31h3.18ZM39.21-3.054V-4.4H52.849v1.346ZM60.983-4.277A7.809,7.809,0,0,1,57.008,2.94l-1.04-1.162q3.608-1.957,3.608-5.5v-2.63h1.284q.55.061.122.428v1.59a16.078,16.078,0,0,0,3.364-3.241l-9.969.367-.122-1.407,11.131-.306.428-.122.917,1.1q.183.245-.306.183a26.747,26.747,0,0,1-4.4,4.465ZM76.762.188a11.367,11.367,0,0,0,4.954-4.159l.856,1.162A13.174,13.174,0,0,1,76.7,1.778l-.489.245-.979-.734.122-.306V-8.864H76.64q.55.122.122.489Zm-8.2,1.651a9.683,9.683,0,0,0,3.058-7.278V-8.191h1.284q.55.122.122.489v2.2A10.536,10.536,0,0,1,69.79,2.634ZM1.183,12.439A4.118,4.118,0,0,1,2.383,9.4,3.478,3.478,0,0,1,4.942,8.36a3.783,3.783,0,0,1,2.8,1.04,3.459,3.459,0,0,1,.96,2.559,3.259,3.259,0,0,1-.8,2.4A2.056,2.056,0,0,1,6.7,15a3.18,3.18,0,0,1,1.36.8,3.459,3.459,0,0,1,.96,2.559A3.9,3.9,0,0,1,7.9,21.236a4.216,4.216,0,0,1-3.119,1.12,3.8,3.8,0,0,1-2.8-1.12A3.61,3.61,0,0,1,.863,18.6v-.64H2.7v.56a2.393,2.393,0,0,0,.72,1.76,1.851,1.851,0,0,0,1.36.56,2.271,2.271,0,0,0,1.68-.64,2.729,2.729,0,0,0,.64-2,2.378,2.378,0,0,0-.64-1.76,1.989,1.989,0,0,0-1.44-.64h-.64v-1.36h.48a1.911,1.911,0,0,0,1.36-.64,2.49,2.49,0,0,0,.64-1.839,2.271,2.271,0,0,0-.64-1.68,1.729,1.729,0,0,0-1.28-.48,1.761,1.761,0,0,0-1.28.56,3.112,3.112,0,0,0-.72,2.079Zm14.993,5.777H19.6V14.974H16.177ZM19.6,19.989v-.612H16.177v.673H14.953V13.812h5.871v6.177ZM12.935,21.7h9.847V11.733H12.935Zm9.847,1.712v-.55H12.935v.856H11.712V10.571H24.005V23.414Zm14.311-4.342a12.87,12.87,0,0,0,1.04-5.015H36.054A12.87,12.87,0,0,0,37.093,19.072Zm2.263-5.015a13,13,0,0,1-1.468,6.116,8.391,8.391,0,0,0,2.752,2.141l-.8,1.346a9.884,9.884,0,0,1-2.752-2.446,11.229,11.229,0,0,1-4.342,2.752l-.612-1.223a10.262,10.262,0,0,0,4.22-2.63A10.108,10.108,0,0,1,35.2,16.075a6.291,6.291,0,0,1-.734,1.407l-1.04-.8a13.9,13.9,0,0,0,2.2-6.666l1.284.306q.367.245-.183.367a21.316,21.316,0,0,1-.489,2.2H40.4v1.162Zm-5.688-2.936a6.006,6.006,0,0,1-.856,1.529l-.979-.55a12.813,12.813,0,0,0,.917-1.835l1.1.55Q34.1,11.06,33.668,11.121Zm-3.914,8.623a11.022,11.022,0,0,1,1.529.55,4.154,4.154,0,0,0,.8-1.651H30.3Q30.06,19.194,29.754,19.745ZM28.9,21.274l-.979-.55a23.432,23.432,0,0,0,1.223-2.079H26.818v-.979h2.691a13.557,13.557,0,0,0,.55-1.346l1.162.306q.245.245-.183.306l-.367.734h3.486v.979H33.24a6.077,6.077,0,0,1-.917,2.079,10.8,10.8,0,0,1,1.162.612l-.55.979a9.535,9.535,0,0,0-1.223-.673A7.234,7.234,0,0,1,27.43,23.6L27,22.5a6.55,6.55,0,0,0,3.67-1.346q-.673-.306-1.346-.55Zm1.223-11.5H31.1q.489.061.061.367v2.63H34.28v.979H31.711a6.864,6.864,0,0,0,2.079,1.529l-.673,1.04a7.576,7.576,0,0,1-1.957-1.712v1.468h-1.04V14.913a9.291,9.291,0,0,1-2.691,2.2l-.8-.979a10.377,10.377,0,0,0,3.119-2.385H26.941v-.979h3.18Zm-1.712,2.813a5.535,5.535,0,0,0-1.1-1.59l.979-.612a5.353,5.353,0,0,1,1.1,1.529Z" transform="translate(485.781 750.835)" fill="#292929"/>
      <path id="パス_3057" data-name="パス 3057" d="M3.29-16.076H18.134v3.28H6.57v.518Q6.4-9,6.052-5.892a3.258,3.258,0,0,0-.173,1.036,7.018,7.018,0,0,1,4.833-2.071,7.718,7.718,0,0,1,5.7,2.244q2.416,2.417,2.417,7.077,0,5.869-3.107,8.976a8.2,8.2,0,0,1-6.041,2.417,7.718,7.718,0,0,1-5.7-2.244Q1.737,9.3,1.219,4.81h3.97A7.631,7.631,0,0,0,6.915,9.47,3.513,3.513,0,0,0,9.5,10.506,4.431,4.431,0,0,0,12.783,9.3q1.9-1.9,1.9-6.386,0-4.315-1.553-5.869a3.312,3.312,0,0,0-2.417-1.036A4.968,4.968,0,0,0,7.087-2.44,12.061,12.061,0,0,0,5.707-.886H2.254a5.071,5.071,0,0,0,.173-1.208L3.29-15.385Zm22.094,0H40.228v3.28H28.663v.518Q28.491-9,28.146-5.892a3.258,3.258,0,0,0-.173,1.036,7.018,7.018,0,0,1,4.833-2.071,7.718,7.718,0,0,1,5.7,2.244q2.417,2.417,2.417,7.077,0,5.869-3.107,8.976a8.2,8.2,0,0,1-6.041,2.417,7.718,7.718,0,0,1-5.7-2.244Q23.83,9.3,23.312,4.81h3.97a7.631,7.631,0,0,0,1.726,4.66A3.513,3.513,0,0,0,31.6,10.506,4.431,4.431,0,0,0,34.877,9.3q1.9-1.9,1.9-6.386,0-4.315-1.553-5.869a3.312,3.312,0,0,0-2.417-1.036A4.968,4.968,0,0,0,29.181-2.44,12.061,12.061,0,0,0,27.8-.886H24.348a5.071,5.071,0,0,0,.173-1.208l.863-13.291ZM44.716-3.13q0-7.595,3.452-11.047a8.2,8.2,0,0,1,6.041-2.417,8.2,8.2,0,0,1,6.041,2.417Q63.7-10.725,63.7-3.13V.322q0,7.422-3.452,10.874a8.76,8.76,0,0,1-12.083,0Q44.716,7.744,44.716.322Zm9.493-10.184A4.293,4.293,0,0,0,51.1-11.933q-2.244,2.244-2.244,8.458V.494q0,6.041,2.417,8.458a4.124,4.124,0,0,0,2.934,1.381,4.293,4.293,0,0,0,3.107-1.381Q59.56,6.708,59.56.494v-3.97q0-6.214-2.244-8.458A4.293,4.293,0,0,0,54.209-13.314Z" transform="translate(476.216 558.892)" fill="#292929"/>
      <line id="線_113" data-name="線 113" y2="193.447" transform="translate(237.199 539.08)" fill="none" stroke="#292929" stroke-width="0.5"/>
      <g id="長方形_1398" data-name="長方形 1398" transform="translate(265.04 707.09)" fill="#6d709b" stroke="#fff" stroke-width="1">
        <rect width="42.153" height="26.496" stroke="none"/>
        <rect x="0.5" y="0.5" width="41.153" height="25.496" fill="none"/>
      </g>
      <g id="長方形_1399" data-name="長方形 1399" transform="translate(375.842 704.681)" fill="#44487a" stroke="#fff" stroke-width="1">
        <rect width="42.153" height="28.905" stroke="none"/>
        <rect x="0.5" y="0.5" width="41.153" height="27.905" fill="none"/>
      </g>
      <g id="長方形_1400" data-name="長方形 1400" transform="translate(486.644 583.199)" fill="#181c5c" stroke="#fff" stroke-width="1">
        <rect width="42.153" height="150.387" stroke="none"/>
        <rect x="0.5" y="0.5" width="41.153" height="149.387" fill="none"/>
      </g>
      <path id="パス_3058" data-name="パス 3058" d="M3141.706,7693.867l113.519-4.667,109.344-119.293" transform="translate(-2855.59 -6985.573)" fill="none" stroke="#181c5c" stroke-width="2" stroke-dasharray="4"/>
      <g id="楕円形_286" data-name="楕円形 286" transform="translate(281.653 702.272)" fill="#6d709b" stroke="#fff" stroke-width="1">
        <circle cx="4.817" cy="4.817" r="4.817" stroke="none"/>
        <circle cx="4.817" cy="4.817" r="4.317" fill="none"/>
      </g>
      <g id="楕円形_287" data-name="楕円形 287" transform="translate(392.455 698.659)" fill="#44487a" stroke="#fff" stroke-width="1">
        <circle cx="5.42" cy="5.42" r="5.42" stroke="none"/>
        <circle cx="5.42" cy="5.42" r="4.92" fill="none"/>
      </g>
      <g id="楕円形_288" data-name="楕円形 288" transform="translate(503.257 578.421)" fill="#181c5c" stroke="#fff" stroke-width="1">
        <circle cx="5.42" cy="5.42" r="5.42" stroke="none"/>
        <circle cx="5.42" cy="5.42" r="4.92" fill="none"/>
      </g>
      <line id="線_115" data-name="線 115" y1="76.688" transform="translate(396.82 582.829)" fill="none" stroke="#707070" stroke-width="1"/>
      <line id="線_116" data-name="線 116" x2="83.102" transform="translate(396.068 583.219)" fill="none" stroke="#707070" stroke-width="1"/>
      <text id="応募" transform="translate(543.001 567.373)" fill="#292929" font-size="15" font-family="HiraginoSans-W6, Hiragino Sans"><tspan x="0" y="0">応募</tspan></text>
      <g id="グループ_3046" data-name="グループ 3046" transform="translate(266.244 677.957)">
        <path id="パス_3055" data-name="パス 3055" d="M1.313-10.738A6.335,6.335,0,0,1,3.07-15.426,3.959,3.959,0,0,1,6-16.5a4.133,4.133,0,0,1,3.027,1.269Q11.078-13.18,11.078-8.1q0,5.176-2.148,7.324A4.408,4.408,0,0,1,5.707.589,3.959,3.959,0,0,1,2.777-.485a4.49,4.49,0,0,1-1.269-3.32H3.754a2.617,2.617,0,0,0,.781,2.148,1.592,1.592,0,0,0,1.172.391A2.151,2.151,0,0,0,7.269-1.95Q8.832-3.512,8.832-7.711a7.026,7.026,0,0,1-.879,1.074A3.585,3.585,0,0,1,5.316-5.563a3.312,3.312,0,0,1-2.441-.977A5.674,5.674,0,0,1,1.313-10.738Zm4.687-4a1.874,1.874,0,0,0-1.367.586,4.765,4.765,0,0,0-.977,3.418A3.812,3.812,0,0,0,4.437-8,1.969,1.969,0,0,0,5.8-7.321a2.387,2.387,0,0,0,1.758-.586,3.585,3.585,0,0,0,1.074-2.637,4.834,4.834,0,0,0-1.074-3.516A2.151,2.151,0,0,0,6-14.742Zm7.812,7.129q0-5.371,2.344-7.715a3.975,3.975,0,0,1,2.93-1.172,4.1,4.1,0,0,1,3.027,1.172,4.366,4.366,0,0,1,1.269,3.223H21.136a2.7,2.7,0,0,0-.586-1.953,1.987,1.987,0,0,0-1.465-.586,1.987,1.987,0,0,0-1.465.586Q16.058-12.5,16.058-8.59a6.01,6.01,0,0,1,.977-1.269,2.922,2.922,0,0,1,2.148-.879,3.975,3.975,0,0,1,2.93,1.172,5.968,5.968,0,0,1,1.465,4.394,6.222,6.222,0,0,1-1.562,4.59A4.355,4.355,0,0,1,18.792.589,4.48,4.48,0,0,1,15.57-.875Q13.812-2.633,13.812-7.614Zm5.176-1.367a2.26,2.26,0,0,0-1.66.684,3.959,3.959,0,0,0-1.074,2.93,4.775,4.775,0,0,0,1.172,3.516,2.053,2.053,0,0,0,1.465.684,1.987,1.987,0,0,0,1.465-.586q.879-.879.879-3.418A4.373,4.373,0,0,0,20.355-8.3,1.969,1.969,0,0,0,18.988-8.981Z" transform="translate(-1.313 16.5)" fill="#292929"/>
        <text id="応募-2" data-name="応募" transform="translate(24.38 12.25)" fill="#292929" font-size="7" font-family="HiraginoSans-W6, Hiragino Sans"><tspan x="0" y="0">応募</tspan></text>
      </g>
      <g id="グループ_3045" data-name="グループ 3045" transform="translate(359.101 664.335)">
        <path id="パス_3059" data-name="パス 3059" d="M0,0,63.1,5.1,79.121,25.894H0Z" fill="#fff"/>
        <path id="パス_3056" data-name="パス 3056" d="M6.4-14.1a4,4,0,0,0,1.248-2.5h1.5V4.993H6.275V-11.6H2.531v-1.5H3.654A3.71,3.71,0,0,0,6.4-14.1ZM17.255-8.982a7.95,7.95,0,0,1,2-5.865,5.281,5.281,0,0,1,3.868-1.622,5.9,5.9,0,0,1,4.367,1.622,5.427,5.427,0,0,1,1.622,3.993,7.938,7.938,0,0,1-1.872,5.241Q25.491-3.492,23.619-1.5l-2,2.246a15.609,15.609,0,0,0-1.5,2h9.358V5.118H16.756V3A9.322,9.322,0,0,1,18.877-.5Q22-3.866,23.993-6.112a6.851,6.851,0,0,0,2.121-4.742,3.386,3.386,0,0,0-1-2.5,2.539,2.539,0,0,0-1.872-.749,2.394,2.394,0,0,0-1.747.749,5.976,5.976,0,0,0-1.373,4.367ZM32.229-6.861q0-5.49,2.5-7.986a5.925,5.925,0,0,1,4.367-1.747,5.925,5.925,0,0,1,4.367,1.747q2.5,2.5,2.5,7.986v2.5q0,5.366-2.5,7.861a5.925,5.925,0,0,1-4.367,1.747A5.925,5.925,0,0,1,34.724,3.5q-2.5-2.5-2.5-7.861Zm6.863-7.362a3.1,3.1,0,0,0-2.246,1Q35.223-11.6,35.223-7.111v2.87q0,4.367,1.747,6.114a2.981,2.981,0,0,0,2.121,1,3.1,3.1,0,0,0,2.246-1Q42.96.251,42.96-4.241v-2.87q0-4.492-1.622-6.114A3.1,3.1,0,0,0,39.092-14.223Z" transform="translate(3.223 18.921)" fill="#292929"/>
        <text id="応募-3" data-name="応募" transform="translate(51.42 20.442)" fill="#292929" font-size="10" font-family="HiraginoSans-W6, Hiragino Sans"><tspan x="0" y="0">応募</tspan></text>
      </g>
      <path id="パス_3060" data-name="パス 3060" d="M14.451-13.75H19.17V8.82h4.309v3.9H19.17v9.028H14.451V12.719H.7v-4.1Zm0,7.592L5.217,8.82h9.233ZM31.3-13.34H48.946v3.9H35.2v.616q-.205,3.9-.616,7.592A3.873,3.873,0,0,0,34.378,0a8.343,8.343,0,0,1,5.745-2.462A9.174,9.174,0,0,1,46.894.2q2.873,2.873,2.873,8.413,0,6.976-3.693,10.67a9.744,9.744,0,0,1-7.181,2.873,9.174,9.174,0,0,1-6.771-2.667q-2.667-2.667-3.283-8h4.719q.41,3.9,2.052,5.54a4.176,4.176,0,0,0,3.078,1.231,5.268,5.268,0,0,0,3.9-1.436q2.257-2.257,2.257-7.592,0-5.13-1.847-6.976a3.937,3.937,0,0,0-2.873-1.231A5.905,5.905,0,0,0,35.814,2.87a14.337,14.337,0,0,0-1.641,1.847h-4.1a6.029,6.029,0,0,0,.205-1.436l1.026-15.8ZM56.973-3.9a10,10,0,0,1,2.873-7.387,9.15,9.15,0,0,1,6.771-2.462,9.435,9.435,0,0,1,6.976,2.667A9.7,9.7,0,0,1,76.26-3.9,8.107,8.107,0,0,1,73.8,2.049a5.593,5.593,0,0,1-2.462,1.436V3.9a7.153,7.153,0,0,1,3.488,2.052,8.874,8.874,0,0,1,2.462,6.566,9.5,9.5,0,0,1-2.873,6.976q-2.667,2.667-7.8,2.667t-7.8-2.667a9.5,9.5,0,0,1-2.873-6.976,8.874,8.874,0,0,1,2.462-6.566A7.153,7.153,0,0,1,61.9,3.9v-.41A7.237,7.237,0,0,1,59.23,1.639,7.532,7.532,0,0,1,56.973-3.9Zm9.644-6.156A4.749,4.749,0,0,0,63.129-8.62,6.388,6.388,0,0,0,61.487-3.9,6.1,6.1,0,0,0,63.129.613a4.519,4.519,0,0,0,3.283,1.436A5.016,5.016,0,0,0,70.1.818,6.388,6.388,0,0,0,71.746-3.9,6.388,6.388,0,0,0,70.1-8.62,4.749,4.749,0,0,0,66.617-10.057Zm0,15.594a5.826,5.826,0,0,0-4.309,1.641A6.388,6.388,0,0,0,60.666,11.9a6.656,6.656,0,0,0,1.847,4.924,5.95,5.95,0,0,0,8.207,0A6.655,6.655,0,0,0,72.567,11.9,6.655,6.655,0,0,0,70.72,6.974,5.552,5.552,0,0,0,66.617,5.537ZM86.38,4.573a1.183,1.183,0,0,0,.872-.349,3.713,3.713,0,0,0,.7-2.616V-2.926a3.713,3.713,0,0,0-.7-2.616,1.183,1.183,0,0,0-.872-.349,1.183,1.183,0,0,0-.872.349,3.713,3.713,0,0,0-.7,2.616V1.608a3.713,3.713,0,0,0,.7,2.616A1.183,1.183,0,0,0,86.38,4.573Zm0,2.616A3.771,3.771,0,0,1,83.59,6.143a6.139,6.139,0,0,1-1.57-4.535V-2.926a6.139,6.139,0,0,1,1.57-4.535A3.771,3.771,0,0,1,86.38-8.508a3.771,3.771,0,0,1,2.791,1.046,6.139,6.139,0,0,1,1.57,4.535V1.608a6.139,6.139,0,0,1-1.57,4.535A3.771,3.771,0,0,1,86.38,7.189ZM93.008,11.9a6.14,6.14,0,0,1,1.57-4.535,4.244,4.244,0,0,1,5.581,0,6.139,6.139,0,0,1,1.57,4.535v4.535a6.139,6.139,0,0,1-1.57,4.535,4.244,4.244,0,0,1-5.581,0,6.14,6.14,0,0,1-1.57-4.535Zm-8.372,9.592,13.255-30,1.221.523L85.857,22.188ZM97.368,8.933a1.183,1.183,0,0,0-.872.349,3.713,3.713,0,0,0-.7,2.616v4.535a3.713,3.713,0,0,0,.7,2.616,1.264,1.264,0,0,0,1.744,0,3.713,3.713,0,0,0,.7-2.616V11.9a3.713,3.713,0,0,0-.7-2.616A1.183,1.183,0,0,0,97.368,8.933Zm9.788-16.918h4.011V12.945a5.432,5.432,0,0,0,1.57,4.011,9.077,9.077,0,0,0,11.162,0,5.432,5.432,0,0,0,1.57-4.011V-7.984h4.011v21.1a8.5,8.5,0,0,1-2.442,6.279q-2.791,2.791-8.72,2.791T109.6,19.4a8.5,8.5,0,0,1-2.442-6.279Zm29.147,0h13.953a8.5,8.5,0,0,1,6.279,2.442,9.194,9.194,0,0,1,2.442,6.8q0,4.36-2.267,6.627a8.73,8.73,0,0,1-6.453,2.267h-9.941V21.839H136.3Zm4.011,3.314V6.84h9.069a5.185,5.185,0,0,0,3.837-1.4,5.657,5.657,0,0,0,1.57-4.186,5.951,5.951,0,0,0-1.4-4.36,5.432,5.432,0,0,0-4.011-1.57Z" transform="translate(285.413 540.07)" fill="#07192f"/>
      <line id="線_114" data-name="線 114" x2="353.164" transform="translate(237.109 732.527)" fill="none" stroke="#292929" stroke-width="0.5"/>
    </g>
    <text id="HPリニューアルと求人掲載応募数推移" transform="translate(461 3821)" fill="#404040" font-size="20" font-family="Helvetica-Bold, Helvetica" font-weight="700"><tspan x="0" y="0">HP</tspan><tspan y="0" font-family="HiraginoSans-W6, Hiragino Sans" font-weight="400">リニューアルと求人掲載応募数推移</tspan></text>
    <text id="_2021年度_doda掲載実績" data-name="※2021年度 doda掲載実績" transform="translate(758 4123)" fill="#404040" font-size="10" font-family="Helvetica-Bold, Helvetica" font-weight="700"><tspan x="0" y="0">※2021</tspan><tspan y="0" font-family="HiraginoSans-W6, Hiragino Sans" font-weight="400">年度</tspan><tspan y="0" xml:space="preserve"> doda</tspan><tspan y="0" font-family="HiraginoSans-W6, Hiragino Sans" font-weight="400">掲載実績</tspan></text>
  </g>
</svg>
