<svg id="グループ_2173" data-name="グループ 2173" xmlns="http://www.w3.org/2000/svg" width="551" height="87" viewBox="0 0 551 87">
  <g id="長方形_2772" data-name="長方形 2772" fill="#fff" stroke="#707070" stroke-width="1">
    <rect width="551" height="87" stroke="none"/>
    <rect x="0.5" y="0.5" width="550" height="86" fill="none"/>
  </g>
  <g id="グループ_2114" data-name="グループ 2114" transform="translate(39 31.5)">
    <text id="特徴" transform="translate(0 20)" fill="#07192f" font-size="20" font-family="HiraginoSans-W6, Hiragino Sans" letter-spacing="-0.04em"><tspan x="0" y="0">特徴</tspan></text>
    <line id="線_423" data-name="線 423" x2="39" transform="translate(0.5 26)" fill="none" stroke="#707070" stroke-width="1"/>
  </g>
  <text id="研修を受けたい_人材のみが受講" data-name="研修を受けたい
人材のみが受講" transform="translate(212.008 38.758)" fill="#07192f" font-size="14" font-family="HiraginoSans-W3, Hiragino Sans"><tspan x="0" y="0">研修を受けたい</tspan><tspan y="0" font-family="Helvetica"></tspan><tspan x="0" y="22">人材のみが受講</tspan></text>
  <text id="研修を残った10_のみ_クライアントに提供" data-name="研修を残った10%のみ
クライアントに提供" transform="translate(389.79 40)" fill="#07192f" font-size="14" font-family="HiraginoSans-W3, Hiragino Sans"><tspan x="0" y="0">研修を残った</tspan><tspan y="0" fill="#f01" font-size="17" font-family="Helvetica-Bold, Helvetica" font-weight="700">10%</tspan><tspan y="0">のみ</tspan><tspan y="0" font-family="Helvetica"></tspan><tspan x="0" y="22">クライアントに提供</tspan></text>
  <g id="グループ_2115" data-name="グループ 2115" transform="translate(120.438 28.521)">
    <path id="パス_807" data-name="パス 807" d="M2860.929,1366.338a6.52,6.52,0,1,1-6.523,6.522A6.525,6.525,0,0,1,2860.929,1366.338Z" transform="translate(-2829.906 -1366.338)" fill="#07192f"/>
    <path id="パス_808" data-name="パス 808" d="M2865.627,1366.338a5.869,5.869,0,1,1-5.865,5.869A5.865,5.865,0,0,1,2865.627,1366.338Z" transform="translate(-2815.138 -1366.338)" fill="#07192f"/>
    <path id="パス_809" data-name="パス 809" d="M2863.782,1385.5h-10.554v-7.8h-2.168v7.8h-3.175v-7.353a7.788,7.788,0,0,1,7.774-7.781h7.566a7.715,7.715,0,0,1,4.959,1.814,10.889,10.889,0,0,0-4.4,8.739Zm28.092,3.708H2888.1v-8.769h-2.171v8.769h-14.209v-8.769h-2.169v8.769h-3.6v-8.288a8.772,8.772,0,0,1,8.762-8.762h8.408a8.773,8.773,0,0,1,8.758,8.762Zm18.057-3.708h-3.178v-7.8h-2.168v7.8h-10.554v-4.58a10.9,10.9,0,0,0-4.4-8.743,7.741,7.741,0,0,1,4.967-1.811h7.56a7.788,7.788,0,0,1,7.772,7.781Z" transform="translate(-2847.885 -1355.247)" fill="#07192f"/>
    <path id="パス_810" data-name="パス 810" d="M2855.264,1366.338a5.869,5.869,0,1,1-5.865,5.869A5.871,5.871,0,0,1,2855.264,1366.338Z" transform="translate(-2843.714 -1366.338)" fill="#07192f"/>
  </g>
  <g id="グループ_2119" data-name="グループ 2119" transform="translate(334.393 26.521)">
    <g id="グループ_2116" data-name="グループ 2116">
      <path id="パス_811" data-name="パス 811" d="M810.657,1001.252a6.992,6.992,0,1,0-6.992,6.989A6.993,6.993,0,0,0,810.657,1001.252Z" transform="translate(-789.553 -994.26)" fill="#07192f"/>
      <path id="パス_812" data-name="パス 812" d="M800.946,1019.755l2.242-2.247-1.76-12.809,1.76-1.762-2.242-2.245-2.247,2.245,1.762,1.762-1.762,12.809Z" transform="translate(-786.833 -985.621)" fill="#07192f"/>
      <path id="パス_813" data-name="パス 813" d="M812.253,1001.367H812l.665.663-1.34,1.34-1.094,1.094,1.633,11.882.127.932-.665.663-2.245,2.245-1.338,1.34-1.34-1.34-2.245-2.245-.666-.663.129-.932,1.633-11.882-1.1-1.094-1.338-1.34.661-.663h-.244a9.621,9.621,0,0,0-9.607,9.611V1024.1h4.295v-13.639h1.893V1024.1h15.668v-13.639h1.893V1024.1h4.473v-13.119A9.622,9.622,0,0,0,812.253,1001.367Z" transform="translate(-793.635 -984.715)" fill="#07192f"/>
    </g>
    <circle id="楕円形_257" data-name="楕円形 257" cx="9.5" cy="9.5" r="9.5" transform="translate(21 27.904)" fill="#fff"/>
    <g id="グループ_2118" data-name="グループ 2118" transform="translate(21.744 29.904)">
      <g id="グループ_2117" data-name="グループ 2117" transform="translate(1.317)">
        <path id="パス_814" data-name="パス 814" d="M456.176,2574.564a1.925,1.925,0,0,1,1.724-.995,1.043,1.043,0,0,0,1.158-1.162,1.912,1.912,0,0,1,1-1.718,1.042,1.042,0,0,0,.42-1.583,1.923,1.923,0,0,1,0-1.99,1.037,1.037,0,0,0-.42-1.577,1.922,1.922,0,0,1-1-1.729,1.04,1.04,0,0,0-1.158-1.153,1.938,1.938,0,0,1-1.724-.993,1.033,1.033,0,0,0-1.578-.425,1.932,1.932,0,0,1-1.99,0,1.037,1.037,0,0,0-1.582.425,1.931,1.931,0,0,1-1.724.993,1.044,1.044,0,0,0-1.158,1.153,1.918,1.918,0,0,1-.993,1.729,1.036,1.036,0,0,0-.428,1.577,1.9,1.9,0,0,1,0,1.99,1.04,1.04,0,0,0,.428,1.583,1.909,1.909,0,0,1,.993,1.718,1.047,1.047,0,0,0,1.158,1.162,1.929,1.929,0,0,1,1.728.995,1.033,1.033,0,0,0,1.578.422,1.95,1.95,0,0,1,1.99,0,1.034,1.034,0,0,0,1.578-.422Zm-2.574-2.289a4.163,4.163,0,1,1,4.164-4.164,4.161,4.161,0,0,1-4.164,4.164Z" transform="translate(-446.523 -2561.037)" fill="#07192f" fill-rule="evenodd"/>
      </g>
      <path id="パス_815" data-name="パス 815" d="M449.9,2567.767c-.8,0-.91-.375-.91-.375l-3.125,6.148,2.508-.288,1.383,2.088s2.888-6.023,2.888-5.983c-1.5-.04-.906-1.55-2.743-1.59Z" transform="translate(-445.867 -2554.622)" fill="#07192f" fill-rule="evenodd"/>
      <path id="パス_816" data-name="パス 816" d="M454.5,2567.51c-2.279.243-1.821.808-2.339,1.252a1.61,1.61,0,0,1-1.351.51l3.525,6.067.864-2.249,2.47.327Z" transform="translate(-440.874 -2554.502)" fill="#07192f" fill-rule="evenodd"/>
      <path id="パス_817" data-name="パス 817" d="M452.331,2564.99l-.87-1.767-.872,1.767-1.945.283,1.4,1.379-.33,1.941,1.742-.914,1.746.914-.329-1.941,1.409-1.379Z" transform="translate(-443.064 -2558.83)" fill="#07192f" fill-rule="evenodd"/>
    </g>
  </g>
</svg>
