<svg xmlns="http://www.w3.org/2000/svg" width="551" height="87" viewBox="0 0 551 87">
  <g id="グループ_2171" data-name="グループ 2171" transform="translate(0.14 -210)">
    <g id="長方形_2768" data-name="長方形 2768" transform="translate(-0.14 210)" fill="#fff" stroke="#707070" stroke-width="1">
      <rect width="551" height="87" stroke="none"/>
      <rect x="0.5" y="0.5" width="550" height="86" fill="none"/>
    </g>
    <g id="グループ_2103" data-name="グループ 2103" transform="translate(383.958 229.154)">
      <path id="Icon_simple-unity" data-name="Icon simple-unity" d="M40.374,38.954,31.65,24.346,40.374,9.738l4.261,14.608ZM21.1,37.533,10.144,26.781H27.592l8.724,14.608L21.1,37.533Zm0-26.578L36.316,7.1,27.592,21.709H9.941c0,.2,11.159-10.753,11.159-10.753ZM43.417,0,23.534,5.072l-3.043,5.072H14.608L0,24.346l14.608,14.2h5.884l2.84,5.072,19.883,5.072,5.275-19.274-2.84-5.072,3.043-5.072Z" fill="#07192f"/>
      <text id="unity" transform="translate(55.723 33.433)" fill="#07192f" font-size="33" font-family="Helvetica-Bold, Helvetica" font-weight="700" letter-spacing="-0.04em"><tspan x="0" y="0">unity</tspan></text>
    </g>
    <path id="Icon_simple-adobeaftereffects" data-name="Icon simple-adobeaftereffects" d="M0,.45V50.52H51.354V.45ZM2.14,2.59H49.214V48.38H2.14ZM14.516,28.8l-1.695,6.389c-.036.178-.107.242-.317.242H9.364c-.214,0-.248-.075-.214-.321l6.077-21.254a6.334,6.334,0,0,0,.21-1.755c0-.141.071-.214.178-.214H20.1c.141,0,.214.039.248.214l6.811,23.045c.034.175,0,.278-.178.278H23.45c-.175,0-.278-.064-.315-.205L21.37,28.8H14.523Zm6-3.475c-.6-2.367-2.054-7.553-2.581-10.057h-.034c-.458,2.5-1.618,6.736-2.5,10.057Zm11.469,2.191c.036,2.9,1.412,4.836,4.66,4.836a8.262,8.262,0,0,0,3.488-.663c.143-.068.25-.032.25.143v2.683a.465.465,0,0,1-.214.428,9.529,9.529,0,0,1-4.3.813c-5.649,0-7.767-4.166-7.767-8.826,0-5.05,2.615-9.18,7.2-9.18,4.66,0,6.284,3.922,6.284,7.1a10.429,10.429,0,0,1-.182,2.262.3.3,0,0,1-.282.272,30.189,30.189,0,0,1-3.567.141H31.989Zm4.344-2.942a11.834,11.834,0,0,0,1.588-.034c0-.146.036-.267.036-.372,0-1.166-.569-3.3-2.795-3.3-2.048,0-2.931,1.8-3.141,3.706h4.307Z" transform="translate(210.153 228.015)" fill="#07192f"/>
    <path id="Icon_simple-adobecreativecloud" data-name="Icon simple-adobecreativecloud" d="M59.26,25.732v1.983c-.02.109-.042.215-.054.321-.1.864-.165,1.731-.306,2.588A21.391,21.391,0,0,1,56,38.387a21.847,21.847,0,0,1-9,8.3,20.8,20.8,0,0,1-6.943,2.082c-.536.064-1.074.121-1.61.18H17.625c-.106-.02-.21-.049-.316-.059a17.512,17.512,0,0,1-6.045-1.477A18.576,18.576,0,0,1,1.9,38.362,18.02,18.02,0,0,1,.175,32.51L0,31.024V29.1a2.816,2.816,0,0,0,.057-.321A17.99,17.99,0,0,1,1.2,23.407a18.654,18.654,0,0,1,9.23-10.319,17.845,17.845,0,0,1,7.23-1.9,19.749,19.749,0,0,1,3.711.175.464.464,0,0,0,.351-.116,21.971,21.971,0,0,1,6.069-4.469,20.971,20.971,0,0,1,6.975-2.094c.578-.067,1.153-.123,1.728-.183h1.778c.114.017.232.04.346.052.882.106,1.765.173,2.637.321A20.667,20.667,0,0,1,48.838,7.8a21.951,21.951,0,0,1,8.2,9.168,21.63,21.63,0,0,1,2.049,7.067c.064.565.119,1.131.178,1.7M26.124,12.893c.037.049.047.072.062.079a23.783,23.783,0,0,1,3.482,2.141.367.367,0,0,0,.326-.025,13.527,13.527,0,0,1,18.19,3.185,13.314,13.314,0,0,1,2.682,10.716,13.864,13.864,0,0,1-3.284,7.064A13.126,13.126,0,0,1,35.438,40.58a12.752,12.752,0,0,1-7.62-3.862c-2.711-2.785-5.442-5.551-8.161-8.329a2.2,2.2,0,0,0-1.286-.733,2.04,2.04,0,0,0-2.133,1.185,1.938,1.938,0,0,0,.457,2.341c3.03,3.027,6.035,6.079,9.062,9.111A14.877,14.877,0,0,0,27.42,41.73a15.763,15.763,0,0,0,7.408,2.9,17.577,17.577,0,0,0,16.185-6.417A17.81,17.81,0,0,0,54.9,29.15a18.057,18.057,0,0,0-.161-5.827,17.446,17.446,0,0,0-4-8.338,17.26,17.26,0,0,0-15-6.141,16.454,16.454,0,0,0-6.521,1.951,17.19,17.19,0,0,0-3.1,2.1m-1.464,31.83-.247-.232c-1.237-1.19-2.484-2.37-3.709-3.578a1,1,0,0,0-.79-.338,14.8,14.8,0,0,1-3.7-.247A10.614,10.614,0,0,1,8.847,26.3a10.445,10.445,0,0,1,11.479-6.627,9.993,9.993,0,0,1,5.615,2.956c1.9,2,3.857,3.931,5.778,5.9a1.71,1.71,0,0,0,1.543.568,1.945,1.945,0,0,0,1.686-1.274,1.906,1.906,0,0,0-.427-2.084c-2.015-2.074-3.983-4.2-6.079-6.19a13.6,13.6,0,0,0-14.163-3.363A14.533,14.533,0,0,0,4.6,33.276,14.418,14.418,0,0,0,18.655,44.74h5.677c.094,0,.188-.01.331-.017" transform="translate(288.719 226.777)" fill="#07192f"/>
    <g id="グループ_2105" data-name="グループ 2105" transform="translate(38.86 241)">
      <text id="インプット" transform="translate(0 20)" fill="#07192f" font-size="20" font-family="HiraginoSans-W6, Hiragino Sans" letter-spacing="-0.04em"><tspan x="0" y="0">インプット</tspan></text>
      <line id="線_423" data-name="線 423" x2="97" transform="translate(0.64 26)" fill="none" stroke="#707070" stroke-width="1"/>
    </g>
  </g>
</svg>
