<?xml version="1.0" encoding="utf-8"?>
<!-- Generator: Adobe Illustrator 25.2.3, SVG Export Plug-In . SVG Version: 6.00 Build 0)  -->
<svg version="1.1" id="レイヤー_1" xmlns="http://www.w3.org/2000/svg" xmlns:xlink="http://www.w3.org/1999/xlink" x="0px"
	 y="0px" viewBox="0 0 1506.6 510.6" style="enable-background:new 0 0 1506.6 510.6;" xml:space="preserve">
<style type="text/css">
	.st0{fill:#354E7A;stroke:#354E7A;stroke-width:1.8826;stroke-miterlimit:10;}
	.st1{fill:#354E7A;stroke:#354E7A;stroke-width:1.7607;stroke-miterlimit:10;}
	.st2{fill:#354E7A;}
	.st3{fill:#828282;}
	.st4{fill:#F2F2F2;}
	.st5{fill:#808080;}
	.st6{fill:#354E7A;stroke:#354E7A;stroke-width:2;stroke-miterlimit:10;}
</style>
<g>
	<path class="st0" d="M1185.9,138.7c0-3.6-1.1-6.4-3.4-8.5s-5.3-3.1-9.1-3.1c-2.7,0-5.3,0.7-7.9,2s-4.9,3-7,5v-6.5
		c2-2,4.3-3.6,6.8-4.7c2.5-1.1,5.5-1.7,8.9-1.7c5.6,0,10.1,1.5,13.4,4.5c3.4,3,5,7.1,5,12.2c0,4.4-1.1,8.4-3.3,11.9
		c-2.2,3.5-5.7,7-10.6,10.5c-5.3,3.7-8.9,6.4-10.7,8.1c-1.8,1.7-3.1,3.3-3.8,4.9c-0.7,1.6-1.1,3.5-1.1,5.7h31.5v6.3H1156v-2.7
		c0-3.7,0.5-6.9,1.5-9.4c1-2.6,2.6-5,5-7.5c2.3-2.4,5.8-5.2,10.4-8.5c4.9-3.5,8.3-6.6,10.2-9.3S1185.9,142.2,1185.9,138.7z"/>
	<path class="st0" d="M1245.2,166.1c0,6.2-2,11.2-6.1,14.8c-4.1,3.7-9.4,5.5-16,5.5c-5.5,0-9.8-0.8-12.7-2.4v-7.2
		c4.1,2.5,8.3,3.7,12.5,3.7c4.6,0,8.3-1.3,11.1-3.8c2.8-2.6,4.2-5.9,4.2-10.1c0-4.2-1.5-7.5-4.4-9.9c-2.9-2.3-7-3.5-12.4-3.5
		c-4.1,0-7.5,0.1-10.1,0.4l2.2-31.4h28.5v6.2h-22.8l-1.4,19c3.4-0.2,5.6-0.3,6.4-0.3c6.6,0,11.7,1.7,15.4,5
		C1243.3,155.6,1245.2,160.2,1245.2,166.1z"/>
	<path class="st0" d="M1260.4,181.6c0-1.3,0.5-2.5,1.4-3.4c1-0.9,2-1.4,3.3-1.4c1.3,0,2.4,0.5,3.3,1.4c0.9,0.9,1.4,2.1,1.4,3.4
		c0,1.3-0.5,2.4-1.4,3.4s-2,1.4-3.3,1.4c-1.2,0-2.3-0.5-3.3-1.4S1260.4,183,1260.4,181.6z"/>
	<path class="st0" d="M1322.8,126.8c-6.6,11.4-11.8,22.1-15.6,32c-3.8,9.9-6.2,18.8-7.1,26.6h-7.2c2.2-15.2,9.7-34.1,22.4-56.8
		h-31.6v-6.3h39.1V126.8z"/>
</g>
<g>
	<path class="st1" d="M1237,440.4h-6.8v-18.1h-28.1v-4.6l27.5-41.8h7.4v40.8h8.8v5.5h-8.8V440.4z M1209.3,416.9h20.9V394
		c0-3.5,0.2-7,0.3-10.3h-0.3c-2,4-3.5,6.7-5.2,9.6l-15.7,23.4V416.9z"/>
	<path class="st1" d="M1257.1,436c0-3.3,2.1-5.6,5.2-5.6s5.1,2.3,5.1,5.6c0,3.1-2,5.4-5.2,5.4C1258.9,441.4,1257.1,438.9,1257.1,436
		z"/>
	<path class="st1" d="M1278.5,408.4c0-22.5,8.8-33.4,20.8-33.4c12.2,0,19.7,11.5,19.7,32.6c0,22.4-7.8,33.9-20.6,33.9
		C1286.7,441.4,1278.5,429.9,1278.5,408.4z M1311.8,407.9c0-16.1-3.9-27.2-12.9-27.2c-7.7,0-13.1,10.2-13.1,27.2s4.7,27.7,12.8,27.7
		C1308.2,435.6,1311.8,423.2,1311.8,407.9z"/>
</g>
<g>
	<path class="st2" d="M335.9,85.3c-1.9,0-2.4-1.9-2.9-3.5c-0.8-2.8-1.9-3.7-2.6-4.1v16.4c0,1.7-2,2.2-3.5,2.2
		c-1.2,0-1.2-0.4-1.2-1.3V80.2c-1.8,1.3-3.5,2.2-5.9,3.1l-0.2-0.4c2.3-2,4-3.9,6.1-6.3v-2l1.4,0.2c1.4-2.3,1.8-3.1,3-5.7h-9
		l-0.5-0.9h5.1v-7.9l5,0.5c0.4,0,0.8,0.2,0.8,0.7c0,0.4-0.1,0.4-1.2,0.9v5.9h0.2l1.6-2.2c0,0,0.4-0.5,1-0.5c0.3,0,0.7,0.2,0.9,0.4
		l2.6,2.5c0.2,0.2,0.4,0.6,0.4,0.9c0,0.6-0.2,0.7-1.9,1.3c-1.4,1.9-2.7,3.4-4.3,4.9c0.2,0.1,0.5,0.2,0.5,0.6c0,0.2-0.1,0.4-0.4,0.7
		c3.3,0.7,7.2,2.8,7.2,5.8C338.1,83.6,337.3,85.3,335.9,85.3z M356,94.1h-23.4l-0.5-0.9h9.8V75.4h-7.4l-0.5-0.9h7.9V60.4l5,0.4
		c0.3,0,1.1,0.1,1.1,0.6c0,0.5-0.8,0.8-1.2,1v12.2h2l2-3c0.2-0.2,0.3-0.4,0.6-0.4c0.3,0,0.5,0.2,0.7,0.4l2.8,2.6
		c0,0,0.4,0.4,0.4,0.7c0,0.4-0.3,0.5-0.7,0.5h-7.9v17.8h2.8L352,90c0.1-0.2,0.3-0.4,0.6-0.4c0.3,0,0.5,0.2,0.7,0.4l3,2.9
		c0,0,0.4,0.4,0.4,0.7C356.6,94,356.3,94.1,356,94.1z"/>
	<path class="st2" d="M390.4,96.4c-1.3,0-1.8-0.6-3.8-2.7c-1.5-1.5-4.3-3.6-8.5-4.3l0-0.4c0.9-0.1,1.9-0.2,3.6-0.2
		c2.8,0,4.1,0.3,4.8,0.4v-1H373l3.4,2.2c0.4,0.3,0.6,0.5,0.6,0.8c0,0.6-0.2,0.6-2,0.6c-5.3,2.4-8.3,3.8-14.9,4l0-0.4
		c6.2-2,9.4-5.8,10.3-7.4h-1.6c0,0.7,0,0.9-0.4,1.3c-0.5,0.5-2,0.9-3.5,0.9c-1,0-1.1-0.5-1.1-1.3V71.9l2.1,0.7
		c-0.1-0.2-0.1-0.4-0.1-0.7V60.5l4.8,2H385l1-1.2c0.4-0.5,0.7-0.7,1.2-0.7c0.4,0,0.7,0.2,1.1,0.4l2.6,1.9c0.3,0.2,0.4,0.4,0.4,0.7
		c0,0.5-1.2,1.5-1.5,1.8v5.3c0,0.6-0.2,0.7-0.6,1c0.3,0.2,0.5,0.2,0.6,0.3l2.1,1.7c0.3,0.2,0.6,0.5,0.6,0.9c0,0.3-0.1,0.4-1,1.4
		v12.2c0,0.7-0.1,1.5-2.1,1.8c1.2,0.4,3.3,1.1,3.3,3.5C392.8,94,392.7,96.4,390.4,96.4z M386.1,72.4c-0.8,0-0.9-0.4-0.9-1v-0.7
		h-14.7c0,1.4,0,2-3.2,2.4l2,0.6h17.3l1.1-1.4C387.1,72.3,386.4,72.4,386.1,72.4z M386.6,74.6h-17.8v3.5h17.8V74.6z M386.6,79h-17.8
		v3.7h17.8V79z M386.6,83.6h-17.8v3.8h17.8V83.6z M385.2,63.4h-14.7v6.4h14.7V63.4z"/>
	<path class="st2" d="M432.6,94.3c-0.2,0.6-0.4,1.3-0.7,1.3s-1.8-0.9-2.7-1.5c-2.5-1.7-3.9-3.5-4.6-4.4c-3.7,3.5-7.6,5.2-11.8,6.2
		l-0.1-0.4c0.5-0.2,0.7-0.4,1.2-0.6c-1.4,0-1.9-0.8-2.1-1.1c-0.2-0.3-1-1.7-1.2-1.9c-1.9,1.7-5.5,3.4-11.6,4l0-0.4
		c1.7-0.4,5.9-1.6,9.2-6.2c-0.5-0.3-0.9-0.6-1.6-0.8l-0.5,1.2c-0.4,1-2.2,1-2.7,1c-0.4,0-2.2-0.1-2.2-1c0-0.2,0.1-0.5,0.2-0.6
		c1-2.1,2.2-4.8,2.9-6.3h-5.4l-0.5-0.9h6.3l1.4-3v-3.6c-2.3,1.9-4.6,3.5-7.6,4.6l-0.2-0.4c3.4-2.8,4.6-5,6.1-9.2h-4.8l-0.5-0.9h7
		v-8.5l4.7,0.3c0.5,0,0.7,0.4,0.7,0.6c0,0.5-0.6,0.7-1.1,0.9v5.6c0.8-2.1,1.7-4.7,2.2-6.7l4.7,1.6c0.2,0.1,0.4,0.2,0.4,0.5
		c0,0.5-0.3,0.5-1.3,0.7c-1.5,1.7-4,4-5.5,5.2h2l1.5-2.3c0.1-0.2,0.3-0.4,0.6-0.4c0.2,0,0.4,0.1,0.7,0.4l2.4,2
		c0.2,0.2,0.3,0.4,0.3,0.6c0,0.6-0.4,0.6-0.7,0.6h-7.4v0.7c1.8,0.2,5.5,1.1,6.8,3.3c2.5-3.6,3.4-9,3.8-13.7l6,0.8
		c0.4,0,0.7,0.2,0.7,0.6c0,0.6-0.6,0.8-1.3,0.9c-0.6,1.1-1.8,3.7-3.4,6.4h5.7l1.8-2.7c0.1-0.2,0.3-0.4,0.6-0.4s0.5,0.2,0.7,0.4
		l2.8,2.4c0.2,0.1,0.4,0.3,0.4,0.7s-0.4,0.5-0.7,0.5h-1.6c0.1,0.2,0.1,0.2,0.1,0.5c0,0.6-0.3,0.8-1,1.2c-0.2,4-0.7,9.3-4.5,14.7
		c1.9,1.6,3.7,3,7.9,4.8v0.4C433.9,92.2,433,93.1,432.6,94.3z M402.8,68.5c-1.6,0-2-1.1-2-1.8c0-0.4,0-1.8,0-2.5
		c0-1-0.7-1.8-1.5-2.6l0.2-0.4c1.1,0.3,5.4,1.3,5.4,4.7C405,66.2,404.9,68.5,402.8,68.5z M409,82.7l-1.9,4.5
		c0.9,0.1,1.5,0.2,2.1,0.3c0.8-1.6,1.3-2.9,1.8-4.8H409z M419.7,73.8c-0.9,0.9-1.4,1.3-2.1,1.7c0.1,0.9-0.4,2.8-2.3,2.8
		c-1.5,0-1.9-1-2.4-2.4c-0.4-1.1-1.5-3.3-2.4-3.9v6.8c0.4,0.1,0.7,0.3,0.7,0.7c0,0.4-0.3,0.5-1.1,0.8l-0.6,1.5h4.1l1.5-2.2
		c0.2-0.2,0.3-0.4,0.6-0.4c0.3,0,0.5,0.1,0.7,0.4l2.4,2c0.2,0.2,0.3,0.4,0.3,0.6c0,0.4-0.3,0.5-0.7,0.5h-2c0,0.6-0.2,0.7-0.9,1.1
		c-0.8,2-1.5,3.4-2.5,5c1,0.5,3.1,1.5,3.1,3.7c0,0.6-0.2,1-0.3,1.2c3.1-2.1,5.1-4.3,6.9-7C421.9,85,419.9,80.8,419.7,73.8z
		 M422.5,70.1c-0.6,1.1-1,1.6-1.5,2.3c0.6,3.8,1.7,7.6,3.6,10.9c1.8-4.1,2.5-8.7,2.6-13.2H422.5z"/>
</g>
<g>
	<path class="st2" d="M337.7,328c-0.1,0.7-0.1,0.7-2.1,0.7c-7.4,0-9.4-1.4-10.7-2.3c-3.1-2.4-4-5.1-4.3-6.2c-1.9,5-4.8,7.7-7.3,8.9
		l-0.3-0.3c3.6-5.3,4.1-11.6,4-19.2l5.5,0.7c0.6,0.1,0.7,0.5,0.7,0.6c0,0.6-0.5,0.8-1.2,1.2c-0.1,2.1-0.3,3.8-0.7,6.1
		c0.7,2.9,2.5,3.9,3.7,4.4v-17.3h-8.1l-0.3-0.6c-0.2,0-0.3,0.1-0.7,0c-1.2,1.5-2.1,2.6-3.1,3.7c0.5,0.5,0.6,0.6,0.6,0.9
		c0,0.5-0.6,0.8-1.1,1v16.9c0,1.5-2.4,2.3-3.3,2.3c-1.4,0-1.4-0.7-1.4-1.3V313c-1,0.7-2.9,1.7-4.7,2.4l-0.2-0.4
		c4-4.4,6.5-8.5,8.9-13.9l5,2.1c0.2,0.1,0.5,0.4,0.5,0.7c0,0.1,0,0.2-0.1,0.3h9.9c1.6-5.3,2.2-9.2,2.4-10.8l6.3,1.5
		c0.4,0.1,0.6,0.4,0.6,0.7c0,0.5-0.2,0.6-1.5,0.9c-0.9,1.1-4.9,6.5-5.9,7.7h3.9l2.2-2.8c0.1-0.2,0.3-0.4,0.6-0.4
		c0.3,0,0.5,0.2,0.7,0.4l2.8,2.5c0.2,0.2,0.4,0.4,0.4,0.7c0,0.4-0.4,0.6-0.7,0.6h-7.5c0,0.8-0.6,1.1-1.3,1.4v7.5h2l2.3-2.6
		c0.2-0.2,0.3-0.4,0.6-0.4c0.2,0,0.4,0.1,0.7,0.4l2.4,2.2c0.1,0.1,0.4,0.4,0.4,0.7c0,0.4-0.4,0.6-0.7,0.6H330v8.7
		c0.7,0,1.5,0.1,2.7,0.1c3.6,0,6-0.7,7-1l0.1,0.4C338.2,325,338,325.5,337.7,328z M314.6,296.8c-2.6,2.2-7.2,5.4-11.4,6.9l-0.2-0.4
		c3.1-3.1,5.2-6.3,7.4-10.2l5.3,2.4c0.2,0.1,0.4,0.2,0.4,0.6C316.1,296.8,315.8,296.8,314.6,296.8z M322.4,303.4
		c-2.2,0-2.5-2.4-2.6-3.3c-0.2-1.7-0.5-4.6-3-6v-0.4c5.6,0.5,8.2,4.6,8.2,6.9C325,302,323.9,303.4,322.4,303.4z"/>
	<path class="st2" d="M378.2,302.4h-10.7l2,1.5c0.2,0.1,0.4,0.3,0.4,0.6s-0.1,0.3-1.1,0.4c-1.3,1.5-2.2,2.4-3.8,3.6h4.9l1.8-2.6
		c0.1-0.2,0.3-0.4,0.6-0.4c0.3,0,0.4,0.1,0.7,0.4l2.6,2.2c0.2,0.2,0.3,0.5,0.3,0.7c0,0.4-0.3,0.5-0.7,0.5h-11.5
		c0,0.1,0.1,0.2,0.1,0.4c0,0.2-0.1,0.2-0.6,0.7v2.5h4l1.8-2.4c0.1-0.2,0.3-0.4,0.6-0.4c0.3,0,0.4,0.2,0.7,0.4l2.4,2
		c0.1,0.1,0.4,0.5,0.4,0.7c0,0.4-0.3,0.5-0.7,0.5h-9.2v3.7h8.7l2.4-3c0.2-0.2,0.3-0.4,0.6-0.4c0.3,0,0.5,0.2,0.7,0.4l2.7,2.6
		c0.2,0.2,0.4,0.5,0.4,0.7c0,0.4-0.3,0.5-0.7,0.5h-13.7c2.4,2.1,6.8,4.6,14,5.5l0,0.4c-1.6,0.7-2.4,1-3.2,3
		c-0.3,0.7-0.3,0.8-0.6,0.8c-0.8,0-6.7-2-11.4-9.4v8.3c0,0.9,0,1.3-1.5,2c-0.8,0.3-1.8,0.5-2.4,0.5c-1.1,0-1.1-0.6-1.1-1.3v-6.7
		c-4.5,3.7-9.9,6.1-15.6,7l-0.2-0.4c5.9-2.6,9.7-6.2,12-9.8h-11.1l-0.5-0.9h15.3v-3.7h-11.1l-0.5-0.9h11.6v-3.5h-13.2l-0.5-0.9h9.9
		c-0.7-0.7-0.8-1.4-1.1-3.4c-0.3-1.9-1.1-2.3-2.4-2.8h-8l-0.5-0.9h7.8c-0.7-0.4-1.1-1-1.3-2.3c-0.6-3-0.7-3.7-2.7-4.6l0.2-0.4
		c7.2,0.5,7.2,4.9,7.2,5.1c0,0.6-0.4,1.7-1.6,2.2h2.6v-8.1l4.9,0.5c0.4,0,0.7,0.1,0.7,0.6c0,0.3-0.1,0.4-1,0.9v6.1h2.4v-8.1l4.7,0.4
		c0.2,0,0.9,0.1,0.9,0.7c0,0.4-0.2,0.4-0.9,0.7v5.7c1.7-2.8,2.5-4.5,3.5-7.2l3.9,2.2c0.4,0.2,0.6,0.4,0.6,0.6c0,0.4-0.1,0.4-1.3,0.5
		c-1.9,1.8-3.3,3-5.5,4.5h5l2.1-2.9c0.1-0.2,0.3-0.4,0.6-0.4c0.3,0,0.6,0.2,0.7,0.4l2.4,2.6c0.3,0.3,0.4,0.5,0.4,0.7
		C378.9,302.2,378.5,302.4,378.2,302.4z M353.9,302.4c2,0.8,4.6,1.9,4.6,4.1c0,0.1,0,1.2-1,2h5.3c0.7-1.5,1.5-3.6,2.1-6.2H353.9z"/>
	<path class="st2" d="M412.5,329.5c-1.3,0-1.8-0.6-3.8-2.7c-1.5-1.5-4.3-3.6-8.5-4.3l0-0.4c0.9-0.1,1.9-0.2,3.6-0.2
		c2.8,0,4.1,0.3,4.8,0.4v-1h-13.6l3.4,2.2c0.4,0.3,0.6,0.5,0.6,0.8c0,0.6-0.2,0.6-2,0.6c-5.3,2.4-8.3,3.8-14.9,4l0-0.4
		c6.2-2,9.4-5.8,10.3-7.4h-1.6c0,0.7,0,0.9-0.4,1.3c-0.5,0.5-2,0.9-3.5,0.9c-1,0-1.1-0.5-1.1-1.3v-17.2l2.1,0.7
		c-0.1-0.2-0.1-0.4-0.1-0.7v-11.4l4.8,2h14.3l1-1.2c0.4-0.5,0.7-0.7,1.2-0.7c0.4,0,0.7,0.2,1.1,0.4l2.6,1.9c0.3,0.2,0.4,0.4,0.4,0.7
		c0,0.5-1.2,1.5-1.5,1.8v5.3c0,0.6-0.2,0.7-0.6,1c0.3,0.2,0.5,0.2,0.6,0.3l2.1,1.7c0.3,0.2,0.6,0.5,0.6,0.9c0,0.3-0.1,0.4-1,1.4
		v12.2c0,0.7-0.1,1.5-2.1,1.8c1.2,0.4,3.3,1.1,3.3,3.5C414.9,327.1,414.8,329.5,412.5,329.5z M408.2,305.6c-0.8,0-0.9-0.4-0.9-1
		v-0.7h-14.7c0,1.4,0,2-3.2,2.4l2,0.6h17.3l1.1-1.4C409.1,305.5,408.5,305.6,408.2,305.6z M408.7,307.7h-17.8v3.5h17.8V307.7z
		 M408.7,312.2h-17.8v3.7h17.8V312.2z M408.7,316.7h-17.8v3.8h17.8V316.7z M407.2,296.5h-14.7v6.4h14.7V296.5z"/>
	<path class="st2" d="M456.1,305.6H446c0.1,0.1,0.2,0.2,0.2,0.4c0,0.5-0.6,0.8-1,1v2.6h5.5l1.2-1.6c0.2-0.2,0.5-0.4,0.8-0.4
		c0.3,0,0.5,0,0.7,0.2l2.5,2c0.3,0.3,0.5,0.5,0.5,0.9c0,0.6-0.7,1.3-1,1.5v13.8c0,3.1-3,3.3-4.7,3.3c-0.9,0-0.9-0.2-0.9-0.5
		c0-3.4-0.7-3.5-4.9-4v-0.4c1,0.1,1.8,0.1,2.9,0.1c3.1,0,3.1-0.2,3.1-1.4v-12.7h-5.7v10.2h1.1V312l3.5,0.2c0.5,0,0.8,0.1,0.8,0.4
		c0,0.2-0.5,0.6-0.8,0.8v8.6c0,1.4-2.4,1.4-2.6,1.4c-0.9,0-0.9-0.1-0.9-0.8v-1h-6v2.2c0,0.7-1.4,1.2-2.8,1.2c-0.4,0-0.7-0.2-0.7-0.7
		v-12.3l3.5,0.2c0.5,0,0.7,0.1,0.7,0.4c0,0.2,0,0.3-0.7,0.7v7.3h1.1v-10.2h-5.7V328c0,1.3-2.7,1.4-3,1.4c-0.7,0-1.6,0-1.6-1v-20.6
		l4.8,1.9h5.5v-4h-10.6l-3.4,13.3c-0.1,0.5-0.2,0.6-0.2,0.8c0,0.7,0.3,1.2,0.6,1.9c0.7,1.5,1.3,3.1,1.3,4.3c0,1.4-1,3.3-3.1,3.3
		c-1,0-2.6-0.6-2.6-2.3c0-0.6,0.1-1,0.5-2.4c0.1-0.4,0.2-1.2,0.2-1.5c0-2.9-1.4-3.3-3.9-4v-0.4c2.2-0.1,3.2-0.5,3.9-1.1
		c2.6-2.6,6.6-15.1,7.3-18.2h-0.8c-0.2,1.5-1.2,2.6-2.7,2.6c-2,0-2.2-1.8-2.4-3.3c-0.2-1.6-1.1-3.2-3.6-4.6l0.1-0.4
		c1.7,0,8.3,0,8.7,4.8h5.9v-4.8l4.8,0.4c0.2,0,1.1,0.1,1.1,0.6c0,0.4-0.2,0.4-1.3,1.1v2.8h4.4v-5l4.8,0.4c0.3,0,1.1,0.1,1.1,0.6
		c0,0.2-0.2,0.7-1.5,0.9v3h1l1.5-2.4c0.2-0.2,0.4-0.4,0.6-0.4c0.3,0,0.6,0.2,0.7,0.4l2,2c0.2,0.2,0.4,0.4,0.4,0.7
		c0,0.4-0.2,0.5-0.7,0.5h-5.5v5.4h0.8l1.8-2.6c0.1-0.2,0.3-0.4,0.6-0.4c0.3,0,0.5,0.2,0.7,0.4l2.4,2.2c0,0,0.4,0.4,0.4,0.7
		C456.8,305.4,456.4,305.6,456.1,305.6z M425.6,310.2c-0.6,0-2,0-2.3-2.3c-0.2-1.2-0.4-3.6-2.7-5.2l0.1-0.4c3.7,0.4,7.5,1.9,7.5,5.3
		C428.2,308.8,427.5,310.2,425.6,310.2z M436.7,299.3h-4.2l-1.4,5.4h5.6V299.3z M445.7,299.3h-4.4v5.4h4.4V299.3z"/>
	<path class="st2" d="M493.4,326.7c0,0.2,0.2,1.1,0.2,1.3c0,0.4-0.1,0.6-0.4,0.7c-0.3,0.1-0.4,0.1-3.1,0.1
		c-11.9,0-13.6-0.6-16.5-2.9c-2.5-2-3.3-4-4-5.7c-3.7,5.7-7.2,7.8-9.2,9.1l-0.3-0.3c4.3-5.8,6.1-10.2,7.3-17.9l6,1.9
		c0.3,0.1,0.5,0.2,0.5,0.6c0,0.4-0.2,0.5-1.6,0.9c-0.6,1.7-1.1,2.9-2,4.7c1.3,1.7,2.7,3.2,5.4,4v-15.7h-4.3c0,0.6,0,1-0.4,1.3
		c-0.9,0.6-2.9,0.8-3.4,0.8c-1.5,0-1.5-0.9-1.5-1.3v-14.7l5.5,2.3H485l1.6-1.5c0.4-0.4,0.7-0.4,0.9-0.4c0.3,0,0.7,0.2,0.9,0.4
		l2.9,2.3c0.2,0.2,0.4,0.4,0.4,0.7c0,0.6-0.1,0.7-1.5,2v7.8c0,0.6-0.2,0.9-0.6,1.2c-0.6,0.3-1.7,0.9-2.9,0.9c-0.6,0-1.6,0-1.6-0.9
		v-0.7h-3.5c0,0.1,0,0.2,0,0.4c0,0.7-0.4,0.8-1.3,1.1v5h5.3l2.4-2.5c0.2-0.2,0.4-0.4,0.6-0.4c0.3,0,0.5,0.2,0.7,0.4l3.1,2.2
		c0.2,0.2,0.4,0.4,0.4,0.7c0,0.4-0.4,0.6-0.7,0.6h-12v8.9c2.7,0.1,11.7,0.1,15.1-0.5l0.2,0.4C493.7,325.2,493.4,325.4,493.4,326.7z
		 M485.2,296.6h-14v9.8h14V296.6z"/>
	<path class="st2" d="M534.6,299.2h-7c0.2,0.2,0.2,0.2,0.2,0.5c0,0.4-0.1,0.5-0.9,1v4.1h1.3l2.3-2.4c0.2-0.2,0.3-0.3,0.6-0.3
		c0.3,0,0.4,0.1,0.7,0.4l2.4,2c0.2,0.2,0.4,0.5,0.4,0.7c0,0.4-0.3,0.6-0.7,0.6h-7v6.4l3.2,2.9c0.2,0.2,0.3,0.6,0.3,0.8
		c0,0.7-0.9,0.8-1.9,0.8c-1.7,2.2-3.3,3.9-5.9,6c4.9,1.8,10.1,1.8,12,1.8l0.1,0.4c-1.7,1-2.4,1.7-2.5,3.9c0,0.5,0,0.8-0.8,0.8
		c-1.2,0-7.9-1.1-12.5-4.3c-5,2.9-10.9,4.1-16.7,4.1l-0.1-0.4c3.4-0.7,9.1-2.2,14-6c-2.4-2.4-3.8-5-5-7.3h-4.3
		c-0.9,5.5-3.7,10.6-8.2,13.8l-0.3-0.3c3.7-6.6,4.2-11.7,4.2-20.6v-12.1l5.1,2.1h7.7v-4.7l5.8,0.4c0.6,0,0.7,0.4,0.7,0.7
		c0,0.5-0.4,0.7-1.5,1.1v2.5h8.5l2-2.3c0.2-0.2,0.3-0.4,0.6-0.4c0.2,0,0.4,0,0.7,0.3l2.8,2c0.2,0.1,0.4,0.4,0.4,0.7
		C535.2,299,535,299.2,534.6,299.2z M522.2,312.1v-0.7h-5.9c0,2-3.4,2.1-3.5,2.1c-1,0-1.4-0.3-1.4-1v-6.9h-4.1v3
		c0,2.2-0.1,3.8-0.4,5.9h16.2l1.3-1.6C522.4,313.1,522.2,312.8,522.2,312.1z M511.4,299.2h-4.1v5.6h4.1V299.2z M512.7,315.5
		c1.4,1.6,3.2,3.3,5.9,5.1c1.8-1.8,3-3.4,4.2-5.1H512.7z M522.2,299.2h-4.8c0.1,0.2,0.1,0.3,0.1,0.5c0,0.7-0.7,0.9-1.1,1.1v4h5.9
		V299.2z M522.2,305.7h-5.9v4.9h5.9V305.7z"/>
</g>
<g>
	<path class="st2" d="M646.9,435c-5.3,0-9.5-5.7-9.5-12.1c0-6.3,4.2-12.1,9.5-12.1c5.3,0,9.5,5.8,9.5,12.1
		C656.4,429.3,652.1,435,646.9,435z M646.9,412.5c-2,0-3.1,5-3.1,10.3c0,5.3,1.1,10.4,3.1,10.4c1.9,0,3.1-4.9,3.1-10.4
		C650,417.3,648.8,412.5,646.9,412.5z M646.7,456.9l-1.8-1.1l24.7-45l1.8,1.1L646.7,456.9z M669.4,456.9c-5.3,0-9.5-5.8-9.5-12.1
		s4.2-12.1,9.5-12.1c5.3,0,9.5,5.8,9.5,12.1C679,451.2,674.6,456.9,669.4,456.9z M669.4,434.4c-2,0-3.1,5-3.1,10.3
		s1.1,10.4,3.1,10.4c1.9,0,3.1-4.9,3.1-10.4C672.5,439.2,671.3,434.4,669.4,434.4z"/>
</g>
<g>
	<path class="st2" d="M679,194.8V208c0,2.5-4.7,3.1-5,3.1c-1.5,0-1.9-1-1.9-2v-1.5h-17.8v1.2c0,1.7-3.3,2.7-4.8,2.7
		c-1.2,0-1.9-0.6-1.9-1.8v-11.3c-1.3,0.6-6.1,2.5-11.6,3.5l-0.2-0.5c4.9-1.9,8-3.6,11.7-6.4v-5.7l5,1.7c2.3-2.1,3.4-3.3,4-3.9
		c-1.4-0.3-2.5-1.1-2.6-2.8c-0.2-2.6-0.2-3.9-1.6-5.2c-6.7,7.4-11.7,9-14,9.7l-0.2-0.5c7.8-6.5,11.9-16,13.5-23.5l9.3,2.2
		c0.5,0.1,0.9,0.5,0.9,1c0,0.8-0.3,0.8-2.3,1.3c-0.4,0.6-0.9,1.4-1.5,2.4h9.8l1.9-2.4c0.3-0.4,0.9-0.9,1.9-0.9
		c0.8,0,1.4,0.3,1.8,0.7l3.6,3.1c0.3,0.3,0.6,0.6,0.6,1.1c0,0.8-0.7,1.1-2.7,1.8c-3.8,6.6-9.1,12.2-15.4,16.6h12.3l1.6-2
		c0.3-0.3,0.7-0.7,1.5-0.7c0.7,0,1,0.2,1.5,0.5l3.5,2.5c0.4,0.3,0.7,0.5,0.7,1C680.5,193.4,679.4,194.4,679,194.8z M657.2,172.9
		c-1.2,1.7-2,2.8-3.1,4.1c3.7,0.4,6.6,2.9,6.7,5.2c2.1-2.6,4.1-5.1,6.4-9.4H657.2z M672,192.8h-14.2c-1.5,1-3.1,1.9-3.6,2.2v11.4
		H672V192.8z"/>
</g>
<g>
	<path class="st2" d="M1110.4,327.5h-8.7v11.1c0,1-2.6,1.6-3.5,1.6c-1.5,0-1.5-0.6-1.5-0.9v-11.8h-6.7c-1.1,9-8.6,11.8-14.7,12.7
		l-0.1-0.4c6.4-2.4,9.2-5.8,9.8-12.3h-9.2l-0.5-0.9h9.8c0-0.4,0-1.4,0-3c-4.4,0.9-7.7,1-9.6,1.1l0-0.4c4.9-1.1,8.7-3,12.2-6.4h-2.8
		c0,0.6,0,0.9-1.3,1.4c-0.7,0.3-1.9,0.5-2.6,0.5c-0.3,0-1,0-1-1v-14.2l5,1.9h16.4l1.5-1.8c0.3-0.4,0.6-0.4,0.9-0.4
		c0.3,0,0.7,0.2,1,0.4l2.6,1.9c0.3,0.2,0.5,0.6,0.5,1c0,0.5-0.7,1.3-1.3,2v7.9c0,0.6,0,0.9-1.3,1.4c-0.7,0.2-1.5,0.4-2.2,0.4
		c-1.5,0-1.5-0.5-1.5-1.3h-12.3l4.5,2.6c0.2,0.1,0.6,0.3,0.6,0.6c0,0.6-0.8,0.6-1,0.6c-0.4,0-1.1-0.1-1.3-0.1
		c-0.2,0.1-1,0.4-1.2,0.4c0.1,0.1,0.2,0.3,0.2,0.6c0,0.7-0.6,1-1,1.2c0,1.2,0,1.9,0,2.9h6.6v-7.5l5.2,0.4c0.7,0,0.9,0.2,0.9,0.5
		c0,0.3-0.3,0.7-1.1,0.9v5.7h2.7l2.1-2.6c0.2-0.2,0.4-0.4,0.6-0.4c0.2,0,0.4,0.2,0.7,0.4l2.8,2.2c0.2,0.1,0.4,0.3,0.4,0.7
		C1111,327.3,1110.7,327.5,1110.4,327.5z M1101.7,307.3h-16.9v4.3h16.9V307.3z M1101.7,312.5h-16.9v4.5h16.9V312.5z"/>
	<path class="st2" d="M1149,321.4c-0.1,0.4-0.3,0.4-0.4,0.4c-0.4,0-0.9-0.4-1.2-0.7c-4.3-3.7-6.3-6.3-7.4-11.5
		c-1.4,2.2-4.6,6.9-10,10.3c2.2,1.5,2.1,3.7,2,4.1l3.3,1.4h7.4l1-1.5c0.2-0.2,0.4-0.4,0.9-0.4c0.4,0,0.8,0.2,1.1,0.5l2.3,1.9
		c0.2,0.2,0.4,0.4,0.4,0.8c0,0.3-0.1,0.4-0.4,0.8c-0.1,0.2-0.6,0.9-0.7,1v9.3c0,0.4,0,0.8-0.7,1.2c-0.7,0.4-1.9,0.8-2.8,0.8
		c-0.7,0-1.2-0.4-1.2-0.9v-1.8h-7.6v1.6c0,1.3-2,1.6-3.3,1.6c-0.4,0-1.2,0-1.2-0.8v-5.8c-0.9,0.9-1.7,0.9-2.1,0.9
		c-1.8,0-1.9-1.5-2-2.9c-0.1-1.2-0.6-3.1-1.7-4.2v11.2c0,1.1-2,1.7-3.1,1.7c-0.6,0-1-0.1-1-1.1v-9.7c-0.2,0-0.2,0-0.4,0
		c-1.9,4.6-4.8,7.4-6.3,8.8l-0.4-0.2c1.7-3.4,2-6,2.6-10.9c-0.2,0-0.2,0.1-0.3,0.1c-0.5,0-0.6-0.6-0.7-0.8l-0.9-4.7
		c1.5-0.1,3.1-0.2,4.7-0.2c0.8-1,1.5-2,2.4-3.6c-0.3,0.2-0.7,0.4-1.4,0.4c-2,0-2.3-1.3-3-4c-0.5-1.7-1.1-2.8-3.7-4.4l0.1-0.4
		c0.4,0,0.7-0.1,1.1-0.1c1.6,0,3,0.5,4.5,1.3c1-2.2,2-4.4,2.8-6.6l5.1,2.4c0.4,0.2,0.7,0.3,0.7,0.8c0,0.6-0.6,0.6-0.9,0.6
		c-0.3,0-0.4,0-0.9,0c-0.8,0.6-4.1,3.5-4.8,4.1c0.9,0.8,1.7,1.7,1.7,3.3c0.9-1.9,1.4-3.1,1.9-4.4l5.4,2.2c0.3,0.1,0.6,0.3,0.6,0.7
		c0,0.7-0.6,0.6-1.5,0.6c-1.7,1.7-2.8,2.8-3.9,3.8c1.4,0.3,2.4,0.7,3.4,1.1c3.3-4.4,5.7-9.4,6.5-14.7l6.2,1.8
		c0.3,0.1,0.8,0.3,0.8,0.7c0,0.3-0.1,0.4-1.3,1.3c2,4.2,6.8,7.2,10.8,8.9l0.1,0.4C1149.9,318.5,1149.6,319.4,1149,321.4z
		 M1120.7,324.8c-0.6,0.2-2.5,0.9-3.8,1.3c-0.3,0.7-0.4,0.8-0.6,1l4.4,1V324.8z M1124.7,318.8c-1.8,1.5-2.7,2.2-3.2,2.6
		c0.8,0,4.4-0.2,5.1-0.2C1126.2,320.3,1125.5,319.3,1124.7,318.8z M1130.7,326.3c-0.2,0.1-0.6,0.2-1.1,0.2c-0.6,0-1.8-0.2-2.1-1.6
		c-0.1-0.4-0.3-2-0.4-2.3l-2.2,0.7v2.2c1.9,0.5,4.6,1.5,5.7,3.6V326.3z M1144.4,320.6h-12.5l-0.5-0.9h8.2l1.5-2.4
		c0.1-0.2,0.3-0.4,0.6-0.4c0.3,0,0.5,0.2,0.7,0.4l2.2,2c0.2,0.1,0.4,0.4,0.4,0.7C1145,320.5,1144.7,320.6,1144.4,320.6z
		 M1142.7,326.2h-7.6v9.8h7.6V326.2z"/>
	<path class="st2" d="M1187.5,310v27.4c0,0.4,0,0.8-0.2,1.1c-0.8,1.4-2.8,1.5-3.5,1.5c-1.3,0-1.4-0.6-1.4-1.8v-1.5H1161v0.8
		c0,2.4-2.9,2.4-3.5,2.4c-0.9,0-1.6-0.1-1.6-1.3v-33.7l5.3,2.3h21l1.3-1.6c0.4-0.5,0.7-0.8,1.2-0.8c0.5,0,1.2,0.6,1.3,0.6l2.7,2.2
		c0.2,0.2,0.3,0.4,0.3,0.7C1188.8,308.8,1188.6,308.9,1187.5,310z M1182.4,308H1161v27.7h21.4V308z M1180.2,316.4v13.3
		c0,1.8-2.9,2.1-3.6,2.1c-1.2,0-1.6-0.4-1.6-1.6v-1.6h-6.3v2.2c0,1.7-2.3,2-3.1,2c-0.4,0-1.7,0-1.7-1.1v-20.2l4.9,2.5h6.1l1.1-1.5
		c0.3-0.4,0.6-0.7,1.2-0.7c0.4,0,0.7,0.1,1.1,0.4l2.7,2c0.3,0.2,0.4,0.4,0.4,0.7C1181.3,315.3,1181.1,315.4,1180.2,316.4z
		 M1175,314.9h-6.3v12.9h6.3V314.9z"/>
	<path class="st2" d="M1227.1,338.2c-0.2,0.6-0.4,1.3-0.7,1.3s-1.8-0.9-2.7-1.5c-2.5-1.7-3.9-3.5-4.6-4.4c-3.7,3.5-7.6,5.2-11.8,6.2
		l-0.1-0.4c0.5-0.2,0.7-0.4,1.2-0.6c-1.4,0-1.9-0.8-2.1-1.1c-0.2-0.3-1-1.7-1.2-1.9c-1.9,1.7-5.5,3.4-11.6,4l0-0.4
		c1.7-0.4,5.9-1.6,9.2-6.2c-0.5-0.3-0.9-0.6-1.6-0.8l-0.5,1.2c-0.4,1-2.2,1-2.7,1c-0.4,0-2.2-0.1-2.2-1c0-0.2,0.1-0.5,0.2-0.6
		c1-2.1,2.2-4.8,2.9-6.3h-5.4l-0.5-0.9h6.3l1.4-3v-3.6c-2.3,1.9-4.6,3.5-7.6,4.6l-0.2-0.4c3.4-2.8,4.6-5,6.1-9.2h-4.8l-0.5-0.9h7
		v-8.5l4.7,0.3c0.5,0,0.7,0.4,0.7,0.6c0,0.5-0.6,0.7-1.1,0.9v5.6c0.8-2.1,1.7-4.7,2.2-6.7l4.7,1.6c0.2,0.1,0.4,0.2,0.4,0.5
		c0,0.5-0.3,0.5-1.3,0.7c-1.5,1.7-4,4-5.5,5.2h2l1.5-2.3c0.1-0.2,0.3-0.4,0.6-0.4c0.2,0,0.4,0.1,0.7,0.4l2.4,2
		c0.2,0.2,0.3,0.4,0.3,0.6c0,0.6-0.4,0.6-0.7,0.6h-7.4v0.7c1.8,0.2,5.5,1.1,6.8,3.3c2.5-3.6,3.4-9,3.8-13.7l6,0.8
		c0.4,0,0.7,0.2,0.7,0.6c0,0.6-0.5,0.8-1.3,0.9c-0.5,1.1-1.8,3.7-3.4,6.4h5.7l1.8-2.7c0.1-0.2,0.3-0.4,0.6-0.4s0.5,0.2,0.7,0.4
		l2.8,2.4c0.2,0.1,0.4,0.3,0.4,0.7s-0.4,0.5-0.7,0.5h-1.6c0.1,0.2,0.1,0.2,0.1,0.5c0,0.6-0.3,0.8-1,1.2c-0.2,4-0.7,9.3-4.5,14.7
		c1.9,1.6,3.7,3,7.9,4.8v0.4C1228.4,336.1,1227.5,337,1227.1,338.2z M1197.3,312.3c-1.6,0-2-1.1-2-1.8c0-0.4,0-1.8,0-2.5
		c0-1-0.7-1.8-1.5-2.6l0.2-0.4c1.1,0.3,5.4,1.3,5.4,4.7C1199.4,310.1,1199.4,312.3,1197.3,312.3z M1203.5,326.6l-1.9,4.5
		c0.9,0.1,1.5,0.2,2.1,0.3c0.8-1.6,1.3-2.9,1.8-4.8H1203.5z M1214.1,317.7c-0.9,0.9-1.4,1.3-2.1,1.7c0.1,0.9-0.4,2.8-2.3,2.8
		c-1.5,0-1.9-1-2.4-2.4c-0.4-1.1-1.5-3.3-2.4-3.9v6.8c0.4,0.1,0.7,0.3,0.7,0.7c0,0.4-0.3,0.5-1.1,0.8l-0.6,1.5h4.1l1.5-2.2
		c0.2-0.2,0.3-0.4,0.6-0.4c0.3,0,0.5,0.1,0.7,0.4l2.4,2c0.2,0.2,0.3,0.4,0.3,0.6c0,0.4-0.3,0.5-0.7,0.5h-2c0,0.6-0.2,0.7-0.9,1.1
		c-0.8,2-1.5,3.4-2.5,5c1,0.5,3.1,1.5,3.1,3.7c0,0.6-0.2,1-0.3,1.2c3.1-2.1,5.1-4.3,6.9-7C1216.4,328.9,1214.4,324.7,1214.1,317.7z
		 M1216.9,314c-0.6,1.1-1,1.6-1.5,2.3c0.6,3.8,1.7,7.6,3.6,10.9c1.8-4.1,2.5-8.7,2.6-13.2H1216.9z"/>
</g>
<g>
	<path class="st2" d="M1076,79.8h-14.6V92c0,1.6-2.2,2.3-3.6,2.3c-1.6,0-1.6-0.7-1.6-1.2V79.8h-15.1l-0.5-0.9h15.5V62.1h-12.9
		l-0.5-0.9h25.2l2-2.4c0.2-0.2,0.3-0.4,0.6-0.4c0.2,0,0.4,0.1,0.7,0.4l2.7,2.1c0.2,0.1,0.4,0.4,0.4,0.7c0,0.4-0.4,0.5-0.7,0.5h-11.1
		c0.2,0.9-0.5,1.3-1.1,1.6V79h8.2l2.5-2.7c0.2-0.2,0.3-0.4,0.6-0.4c0.3,0,0.4,0.2,0.7,0.4l2.9,2.4c0.1,0.1,0.4,0.4,0.4,0.7
		C1076.7,79.7,1076.3,79.8,1076,79.8z M1051,77.4c-0.8,0-2.7-0.4-2.7-2.7c0-0.4,0.1-2,0.1-2.3c0-3.7-1.9-5.9-4.1-8l0.2-0.4
		c6.2,1.3,9.8,6,9.8,9.4C1054.3,74.9,1053.4,77.4,1051,77.4z M1071.7,68.2c-2.8,4.3-6.6,7.7-9.4,9.2l-0.3-0.3
		c2.3-3.4,3.7-8.5,4.3-12.7l6.1,2.3c0.3,0.1,0.7,0.3,0.7,0.7C1073.2,67.9,1072.7,68,1071.7,68.2z"/>
	<path class="st2" d="M1108.9,78.4c-4.2,2.9-7.5,5-11.3,7.3c-0.4,1.3-0.4,1.5-0.9,1.5c-0.3,0-0.4-0.2-0.6-0.5l-2.7-5.1
		c-4.2,3.1-7.3,5-9.9,6.6c-0.2,1.1-0.3,1.6-0.9,1.6c-0.4,0-0.6-0.5-0.7-0.7l-2.2-6.1c1.9-0.3,3.3-0.5,5.3-0.9V69.1h-4.9l-0.5-0.9
		h5.3v-9.7l5.5,0.6c0.3,0,0.7,0.1,0.7,0.6c0,0.5-0.5,0.8-1.3,1.1v7.5h0.6l2-2.6c0.1-0.2,0.3-0.4,0.6-0.4c0.3,0,0.6,0.3,0.7,0.4
		l2,2.1c0.8-3.1,1.1-6.3,1.2-9.5l6.6,1.5c0.3,0.1,0.7,0.2,0.7,0.6c0,0.5-0.1,0.5-1.6,1.1c-0.7,2.3-1.4,3.7-2,4.8h8.5l1.4-1.6
		c0.2-0.3,0.4-0.5,0.9-0.5c0.2,0,0.6,0.1,0.7,0.2l3.1,2.5c0.2,0.2,0.4,0.6,0.4,0.8c0,0.6-0.4,1.2-1.3,1.9c0.1,8.1,0,14.6-2,20.4
		c-1,2.7-2.3,4.2-5.7,4.2c-1.7,0-1.7-0.2-1.7-0.6c0-0.2,0.2-1.3,0.2-1.5c0-0.3-0.1-1.2-1.1-1.6c-0.9-0.4-2-0.7-4.7-1.2l0.1-0.4
		c0.5,0.1,4.2,0.4,5.9,0.4c0.8,0,1.6-0.2,2.1-1c0.8-1.3,2.2-5.2,2.2-13.7c0-3.3-0.1-5.5-0.2-7.4h-9.1c-1.5,2.8-4.2,6.5-8.7,9.8
		l-0.3-0.3c1.4-1.6,2.8-3.7,4.1-7.5h-5.5v11.8c2.2-0.5,3.3-0.8,5.9-1.7l0.2,0.4c-0.8,0.6-0.9,0.7-2,1.6c5-0.7,10-1.8,14.8-3.2
		L1108.9,78.4z M1102.4,73.5l1.8-2.2c0.3-0.3,0.5-0.4,0.7-0.4c0.2,0,0.4,0.1,0.7,0.4l2.3,1.9c0,0,0.4,0.4,0.4,0.7
		c0,0.4-0.3,0.6-0.7,0.6h-11.2l-0.5-0.9H1102.4z"/>
	<path class="st2" d="M1154.6,83.1h-12.3v9c0,0.8-0.4,1.1-1.3,1.5c-0.6,0.3-1.9,0.7-2.5,0.7c-1.1,0-1.5-0.4-1.5-1.1V83.1h-17.4
		l-0.5-0.9h6.3v-12l5.3,2.4h6.3v-7.9h-8.1c-2.9,4-5.1,6.4-9.7,9.1l-0.3-0.3c3.7-4.7,5.6-9.4,7-15.5l6.1,1.5c0.4,0.1,0.7,0.2,0.7,0.6
		c0,0.5-0.2,0.5-1.3,0.9c-0.5,0.7-0.9,1.3-1.9,2.8h17l2.7-2.9c0.2-0.2,0.3-0.4,0.7-0.4c0.2,0,0.4,0.1,0.7,0.4l3.1,2.6
		c0.2,0.2,0.4,0.4,0.4,0.7c0,0.4-0.4,0.5-0.7,0.5h-10.6c0.2,0.1,0.4,0.3,0.4,0.6c0,0.4-0.4,0.6-0.8,0.8v6.5h3.3l2.3-2.7
		c0.2-0.2,0.3-0.4,0.6-0.4s0.5,0.2,0.7,0.4l2.8,2.4c0.2,0.2,0.4,0.4,0.4,0.7c0,0.4-0.4,0.5-0.7,0.5h-9.4v8.7h5.3l2.8-3.4
		c0.2-0.2,0.3-0.4,0.7-0.4c0.3,0,0.5,0.2,0.7,0.4l3.2,3.1c0.2,0.2,0.4,0.4,0.4,0.7C1155.3,82.9,1154.9,83.1,1154.6,83.1z M1137,73.4
		h-6.6v8.7h6.6V73.4z"/>
	<path class="st2" d="M1178.5,68.9h-20l-0.5-0.9h3.2v-7.7l4.7,0.4c0.2,0,0.5,0.1,0.5,0.6c0,0.4-0.3,0.6-1.2,1.1V68h1.8v-9.9l5,0.4
		c0.3,0,0.7,0.1,0.7,0.6c0,0.3-0.1,0.6-1.3,1.1v3h1.9l1.1-1.6c0.1-0.2,0.3-0.4,0.6-0.4c0.2,0,0.2,0,0.7,0.3l2.1,1.4
		c0.2,0.1,0.4,0.3,0.4,0.7c0,0.4-0.4,0.5-0.7,0.5h-6.2v4h2.8l1.1-1.7c0.1-0.2,0.3-0.4,0.6-0.4c0.2,0,0.4,0,0.7,0.3l1.9,1.4
		c0.2,0.1,0.4,0.3,0.4,0.7C1179.2,68.7,1178.8,68.9,1178.5,68.9z M1193.1,74.1c0,0.2-0.1,0.7-0.7,0.7c-0.4,0-0.7-0.2-1.1-0.7
		c-2.7-3.5-4.2-6.8-4.9-11.1c-2.4,4.9-5.8,8.2-6.5,9h4.9l1.1-1.6c0.1-0.2,0.3-0.4,0.6-0.4c0.2,0,0.6,0.2,0.7,0.3l1.9,1.3
		c0.2,0.1,0.4,0.3,0.4,0.7s-0.4,0.5-0.7,0.5h-8.7l-0.4-0.7c-0.3,0.3-1.7,1.6-2.8,2.2V77h11.1l1.3-1.3c0.3-0.3,0.4-0.4,0.8-0.4
		c0.3,0,0.5,0.1,0.7,0.3l2.4,2.1c0.1,0.1,0.3,0.3,0.3,0.7c0,0.3,0,0.6-1.1,1.7v8.8c0,2.8-3,2.8-4,2.8c-0.6,0-0.8,0-0.8-0.4
		c0-2.5-0.4-2.8-2.5-3.3v5c0,1.2-2.5,1.3-3.6,1.3c-0.6,0-0.9-0.2-0.9-0.9V77.9h-3.8v14.4c0,0.4,0,0.6-1.1,1c-0.4,0.1-1,0.4-1.5,0.4
		c-0.9,0-0.9-0.4-0.9-0.9v-1.5h-9.9v1.2c0,0.7-1.9,1.4-2.6,1.4c-0.4,0-1.1-0.1-1.1-0.7V69.8l3.9,0.3c0.7,0,0.7,0.6,0.7,0.9
		c0.8,0.6,1.9,1.6,2.4,2.5v-3.9l3.9,0.3c0.1,0,0.6,0.2,0.6,0.6c0,0.5-0.6,0.9-1,1.1v4.3c0.9-2,1.1-4.2,1.2-5.2l2,0.4v-1.4l3.5,0.3
		c0.4,0,1,0.1,1,0.6c0,0.4-0.2,0.6-0.9,1V73c4.1-4.7,5.1-12.5,5.3-14.9l5.9,1.5c0.3,0.1,0.8,0.4,0.8,0.7c0,0.9-0.7,0.9-1.5,0.9
		c1.8,5.4,6.6,8.5,7.8,9.2v0.4C1193.4,71.7,1193.3,72.8,1193.1,74.1z M1166.7,76.1c-0.3,0.5-0.9,0.7-1.3,0.7c-0.6,0-1.3-0.2-1.3-1.2
		c0-0.3,0.2-1.8,0.2-2.2c0-0.8-0.2-1.2-0.4-1.7c-0.2,0-0.2,0-0.4,0.1v5.8h3.2V76.1z M1163.5,78.4v8.8c1.6-2.9,2.1-7.4,2.2-8.8
		H1163.5z M1173.5,86.6c-0.2,0.1-0.6,0.4-1.3,0.4c-1,0-1.3-0.4-1.3-1.4c0-0.4,0.2-2,0.2-2.4c0-0.9-0.2-1.5-0.8-2.2v7.4
		c0,0.4,0,0.9-0.8,1.1c-0.4,0.1-1.3,0.4-1.7,0.4c-0.9,0-1-0.6-1-0.9v-4.5c-0.9,1.5-1.9,3.1-3.2,4.1v1.9h9.9V86.6z M1173.5,73.8
		c-1,1.4-2,2.6-3.2,3.5v0.2h1.6l0.5-0.7c0.2-0.4,0.3-0.4,0.4-0.4c0.2,0,0.2,0.1,0.7,0.6V73.8z M1173.5,78.4h-3.2v0.4
		c1.1,0.6,2.2,1.4,3.2,2.4V78.4z M1188.6,77.9h-2.1c0,0.1,0.1,0.2,0.1,0.4c0,0.4-0.2,0.7-1.2,1.3V87c3.2,0.2,3.2-0.2,3.2-1.3V77.9z"
		/>
</g>
<g>
	<g>
		<path class="st3" d="M-674.1-156.3l2.7,5.4l-2.7,18.8l6.2,6.2l6.2-6.2l-2.7-18.8l2.7-5.4H-674.1z M-667.8-160.8
			c14.9,0,27-12.1,27-27s-12.1-27-27-27s-27,12.1-27,27C-694.8-172.9-682.7-160.8-667.8-160.8z M-667.8-209
			c11.7,0,21.2,9.5,21.2,21.2s-9.5,21.2-21.2,21.2s-21.2-9.5-21.2-21.2S-679.5-209-667.8-209z M-685.9-180.6L-685.9-180.6
			L-685.9-180.6L-685.9-180.6z M-658.4-189.3c1.3,3,3.5,6.8,6.6,9.3l3.5-4.6c-1.5-1.1-3.3-3.8-4.4-6.2c-1.2-2.4-1.9-4.4-1.9-4.4
			l-1.7-4.9l-3.3,4c0,0,0,0-0.2,0.2c-1.1,1.2-7,7.1-17.9,9.1c-2,0.4-3.8,0.5-5.3,0.5c-0.9,0-1.6,0-2.3-0.1l-0.6,5.7
			c0.9,0.1,1.9,0.2,2.9,0.2c1.9,0,4-0.2,6.4-0.6C-667.8-182.7-661.8-186.5-658.4-189.3z M-617-131.3c-2.1,0-3.8,1.7-3.8,3.8
			c0,1.3,0.7,2.5,1.7,3.2v7.4h4.3v-7.4c1-0.7,1.7-1.8,1.7-3.2C-613.2-129.6-614.9-131.3-617-131.3z M-596.1-139.9h-8.9v-5.2
			c0-3-2.4-5.4-5.4-5.4h-13c-4.5-5.7-11.4-9.3-19.2-9.3h-6.2l-17.9,54.6h-1.9l-18.4-54.6h-6.2c-13.5,0-24.5,11-24.5,24.5v35.9h99.5
			l0,0h22c4.9,0,8.9-4,8.9-8.9V-131C-587.2-135.9-591.2-139.9-596.1-139.9z M-711.8-105.2v-30.1c0-10.3,8.4-18.7,18.7-18.7h2
			l16.5,48.8H-711.8z M-623.3-144.8h12.5v4.9h-12.5V-144.8z M-646.8-131v22.7c0,1.1,0.2,2.2,0.6,3.1l0,0h-14.4l16-48.8h2
			c5.7,0,10.7,2.5,14.2,6.5c-0.4,0.7-0.6,1.5-0.6,2.4v5.2h-8.9C-642.8-139.9-646.8-135.9-646.8-131z M-592.9-108.4
			c0,1.7-1.4,3.2-3.2,3.2h-41.8c-1.7,0-3.1-1.4-3.2-3.2v-6.7c6.7,4.4,15,7,24.1,7c9,0,17.4-2.6,24.1-7L-592.9-108.4L-592.9-108.4z
			 M-592.9-122.1c-6.1,5.1-14.6,8.4-24.1,8.4s-18-3.3-24.1-8.4v-8.9c0-1.7,1.4-3.2,3.2-3.2h41.8c1.7,0,3.2,1.4,3.2,3.2L-592.9-122.1
			L-592.9-122.1z M-704.8-132.7h13v-5.8h-13V-132.7z"/>
	</g>
	<g>
		<g>
			<path class="st4" d="M-675.1-157.3l2.7,5.4l-2.7,18.8l6.2,6.2l6.2-6.2l-2.7-18.8l2.7-5.4H-675.1z M-668.8-161.8
				c14.9,0,27-12.1,27-27s-12.1-27-27-27s-27,12.1-27,27C-695.8-173.9-683.7-161.8-668.8-161.8z M-668.8-210
				c11.7,0,21.2,9.5,21.2,21.2s-9.5,21.2-21.2,21.2s-21.2-9.5-21.2-21.2S-680.5-210-668.8-210z M-686.9-181.6L-686.9-181.6
				L-686.9-181.6L-686.9-181.6z M-659.4-190.3c1.3,3,3.5,6.8,6.6,9.3l3.5-4.6c-1.5-1.1-3.3-3.8-4.4-6.2c-1.2-2.4-1.9-4.4-1.9-4.4
				l-1.7-4.9l-3.3,4c0,0,0,0-0.2,0.2c-1.1,1.2-7,7.1-17.9,9.1c-2,0.4-3.8,0.5-5.3,0.5c-0.9,0-1.6,0-2.3-0.1l-0.6,5.7
				c0.9,0.1,1.9,0.2,2.9,0.2c1.9,0,4-0.2,6.4-0.6C-668.8-183.7-662.8-187.5-659.4-190.3z M-618-132.3c-2.1,0-3.8,1.7-3.8,3.8
				c0,1.3,0.7,2.5,1.7,3.2v7.4h4.3v-7.4c1-0.7,1.7-1.8,1.7-3.2C-614.2-130.6-615.9-132.3-618-132.3z M-597.1-140.9h-8.9v-5.2
				c0-3-2.4-5.4-5.4-5.4h-13c-4.5-5.7-11.4-9.3-19.2-9.3h-6.2l-17.9,54.6h-1.9l-18.4-54.6h-6.2c-13.5,0-24.5,11-24.5,24.5v35.9h99.5
				l0,0h22c4.9,0,8.9-4,8.9-8.9V-132C-588.2-136.9-592.2-140.9-597.1-140.9z M-712.8-106.2v-30.1c0-10.3,8.4-18.7,18.7-18.7h2
				l16.5,48.8H-712.8z M-624.3-145.8h12.5v4.9h-12.5V-145.8z M-647.8-132v22.7c0,1.1,0.2,2.2,0.6,3.1l0,0h-14.4l16-48.8h2
				c5.7,0,10.7,2.5,14.2,6.5c-0.4,0.7-0.6,1.5-0.6,2.4v5.2h-8.9C-643.8-140.9-647.8-136.9-647.8-132z M-593.9-109.4
				c0,1.7-1.4,3.2-3.2,3.2h-41.8c-1.7,0-3.1-1.4-3.2-3.2v-6.7c6.7,4.4,15,7,24.1,7c9,0,17.4-2.6,24.1-7L-593.9-109.4L-593.9-109.4z
				 M-593.9-123.1c-6.1,5.1-14.6,8.4-24.1,8.4s-18-3.3-24.1-8.4v-8.9c0-1.7,1.4-3.2,3.2-3.2h41.8c1.7,0,3.2,1.4,3.2,3.2
				L-593.9-123.1L-593.9-123.1z M-705.8-133.7h13v-5.8h-13V-133.7z"/>
		</g>
	</g>
</g>
<g>
	<path class="st2" d="M227,40.6c8.2,0,14.9,6.7,14.9,14.9s-6.7,14.9-14.9,14.9s-14.9-6.7-14.9-14.9S218.7,40.6,227,40.6z
		 M259.1,127.9c0,3.4-2.8,6.2-6.2,6.2c-3.5,0-6.2-2.8-6.2-6.2V95.2h-2.5v39.1l0,0v45c0,0.2,0,0.3,0,0.5c0,4.4-3.5,7.9-7.9,7.9
		s-7.9-3.5-7.9-7.9v-45.5h-4.6v45c0,0.2,0,0.3,0,0.5c0,4.4-3.6,7.9-8,7.9s-7.9-3.5-7.9-7.9V95.2h-2.8v32.3c0,0.1,0,0.1,0,0.2
		c0,3.4-2.8,6.2-6.2,6.2s-6.2-2.8-6.2-6.2V96.4c0-13,10.5-23.5,23.5-23.5h19.4c13,0,23.5,10.5,23.5,23.5L259.1,127.9L259.1,127.9z"
		/>
	<path class="st2" d="M126.4,106.1c4.5,0,8.1,3.6,8.1,8.1s-3.6,8.1-8.1,8.1c-4.5,0-8.1-3.6-8.1-8.1
		C118.4,109.7,122,106.1,126.4,106.1z M143.8,153.2c0,1.8-1.6,3.4-3.4,3.4s-3.4-1.5-3.4-3.4v-17.6h-1.4v21.1l0,0V181
		c0,0.1,0,0.2,0,0.3c0,2.3-1.9,4.3-4.3,4.3c-2.3,0-4.3-1.9-4.3-4.3v-24.6h-2.4V181c0,0.1,0,0.2,0,0.3c0,2.3-1.9,4.3-4.3,4.3
		c-2.3,0-4.3-1.9-4.3-4.3v-45.6h-1.6v17.5v0.1c0,1.8-1.6,3.4-3.4,3.4s-3.4-1.5-3.4-3.4v-16.9c0-7,5.6-12.7,12.7-12.7H131
		c7,0,12.7,5.6,12.7,12.7L143.8,153.2L143.8,153.2z"/>
	<path class="st2" d="M168.3,70.9c6.3,0,11.4,5,11.4,11.4c0,6.3-5,11.4-11.4,11.4c-6.3,0-11.4-5.1-11.4-11.4
		C156.9,76,162,70.9,168.3,70.9z M192.7,137.3c0,2.6-2.1,4.8-4.8,4.8c-2.6,0-4.8-2.1-4.8-4.8v-24.7h-1.9v29.7l0,0v34.2
		c0,0.1,0,0.3,0,0.4c0,3.3-2.7,6-6,6s-6-2.7-6-6v-34.6h-3.5v34.2c0,0.1,0,0.3,0,0.4c0,3.3-2.7,6-6,6s-6-2.7-6-6v-64.3h-2.1v24.7
		c0,0.1,0,0.1,0,0.1c0,2.6-2.1,4.8-4.8,4.8c-2.6,0-4.8-2.1-4.8-4.8v-23.9c0-9.9,8-17.9,17.9-17.9h14.8c9.9,0,17.9,8,17.9,17.9v24
		h0.1V137.3z"/>
</g>
<g>
	<g>
		<g>
			<path class="st2" d="M1383.7,175.8h-9.5c3,1.1,3.8,2.2,3.9,4.1l1.1-1.3c0.2-0.2,0.4-0.4,0.8-0.4c0.3,0,0.5,0.1,0.8,0.4l2.9,2.3
				c0.3,0.2,0.5,0.5,0.5,0.9c0,0.5-0.5,0.6-0.9,0.6H1371c0.5,3.9,1.1,5.9,1.6,7.8c0.6-1.5,1.2-3.1,1.8-6.4l6.7,2.7
				c0.5,0.2,0.6,0.4,0.6,0.7c0,0.9-0.8,0.9-1.9,0.9c-0.7,2.2-1.6,4.7-4.5,8c0.4,0.5,2.9,4.4,4.8,4.4c0.6,0,0.9-0.5,1.1-1.1
				c0.4-1,1.8-5.2,2.1-6.1l0.5,0.1c-0.5,3.3-1,6.4-1,7.3c0,0.2,0,0.8,0.5,1.6c0.6,1.2,1,1.7,1,2.5c0,1.6-1.4,2.9-2.9,2.9
				c-4.4,0-8.2-5.6-9.9-7.9c-3.6,2.9-8.8,6.3-14.1,7.1l-0.2-0.5c2.7-1.4,8.1-4.2,12.1-10.1c-0.6-1.3-2.1-4.3-3.2-9.7
				c-0.1,0.2-0.3,0.3-0.7,0.3h-3.7c-0.1,0.3-0.3,0.9-1.4,1v0.4c1.2,0.4,6.2,2.7,6.2,7.5c0,2.2-1,3.4-2.7,3.4c-1.5,0-1.9-1.3-1.9-2
				c0-0.4,0.2-2.2,0.2-2.6c0-1.6-0.3-3.4-1.7-4.5v11.2c0,3.5-3.8,3.6-5.5,3.6c-0.3,0-0.8,0-0.8-0.7c0-1.9,0-2.1-0.6-2.4
				c-0.7-0.4-1.3-0.6-3.6-1.3c-1.1,1.1-1.7,1.6-2.6,2.2l-0.3-0.3c3.6-4.8,3.7-10.8,3.6-13l4.8,1.2V187h-5.1v1.1
				c0,3.6-1.6,11.9-8.8,18.2l-0.3-0.3c3-5,3.6-11.1,3.6-14.8v-12l5.8,2.3h14.9c-0.2-2.1-0.2-2.4-0.3-5.4h-23.6l-0.6-1.1h9.3v-9
				l6.4,0.5c0.5,0,1,0.2,1,0.8s-0.5,0.8-1.6,1.4v6.1h4.7v-11.1l6.3,0.6c0.4,0,0.8,0.1,0.8,0.7c0,0.5-0.2,0.6-1.6,1.4v2.3h7.3
				l1.7-2.5c0.1-0.2,0.4-0.4,0.8-0.4s0.7,0.3,0.9,0.4l3,2.1c0.2,0.1,0.5,0.4,0.5,0.9s-0.5,0.6-0.9,0.6H1366v5h11l2.3-2.6
				c0.3-0.3,0.4-0.5,0.8-0.5c0.2,0,0.5,0.1,0.8,0.4l3.2,2.3c0.1,0.1,0.5,0.4,0.5,0.9C1384.5,175.6,1384.1,175.8,1383.7,175.8z
				 M1365.4,182.3h-15.3v3.5h9.4l1.7-1.9c0.2-0.3,0.4-0.4,0.8-0.4c0.3,0,0.6,0.2,1,0.4l2.5,1.5c0.1,0.1,0.3,0.1,0.4,0.3
				C1365.7,184.4,1365.6,183.5,1365.4,182.3z M1355.3,192.1c-1.9,4.3-3.1,5.7-4.9,7.7c0,0,3,0.5,3.6,0.5c0.8,0,1.3-0.1,1.3-1.7
				V192.1z M1373.5,179.7c-0.1-1.6-0.2-2.4-2-3.6l0.2-0.3h-6l5.7,1.1c0.2,0,0.7,0.1,0.7,0.6c0,0.4-0.4,0.7-1.4,1.2
				c0,0.7,0,1.3,0.1,2.5h3.3C1373.5,180.6,1373.5,179.9,1373.5,179.7z"/>
		</g>
		<g>
			<g>
				<path class="st2" d="M1382,174.1h-9.5c3,1.1,3.8,2.2,3.9,4.1l1.1-1.3c0.2-0.2,0.4-0.4,0.8-0.4c0.3,0,0.5,0.1,0.8,0.4l2.9,2.3
					c0.3,0.2,0.5,0.5,0.5,0.9c0,0.5-0.5,0.6-0.9,0.6h-12.2c0.5,3.9,1.1,5.9,1.6,7.8c0.6-1.5,1.2-3.1,1.8-6.4l6.7,2.7
					c0.5,0.2,0.6,0.4,0.6,0.7c0,0.9-0.8,0.9-1.9,0.9c-0.7,2.2-1.6,4.7-4.5,8c0.4,0.5,2.9,4.4,4.8,4.4c0.6,0,0.9-0.5,1.1-1.1
					c0.4-1,1.8-5.2,2.1-6.1l0.5,0.1c-0.5,3.3-1,6.4-1,7.3c0,0.2,0,0.8,0.5,1.6c0.6,1.2,1,1.7,1,2.5c0,1.6-1.4,2.9-2.9,2.9
					c-4.4,0-8.2-5.6-9.9-7.9c-3.6,2.9-8.8,6.3-14.1,7.1l-0.2-0.5c2.7-1.4,8.1-4.2,12.1-10.1c-0.6-1.3-2.1-4.3-3.2-9.7
					c-0.1,0.2-0.3,0.3-0.7,0.3h-3.7c-0.1,0.3-0.3,0.9-1.4,1v0.4c1.2,0.4,6.2,2.7,6.2,7.5c0,2.2-1,3.4-2.7,3.4c-1.5,0-1.9-1.3-1.9-2
					c0-0.4,0.2-2.2,0.2-2.6c0-1.6-0.3-3.4-1.7-4.5v11.2c0,3.5-3.8,3.6-5.5,3.6c-0.3,0-0.8,0-0.8-0.7c0-1.9,0-2.1-0.6-2.4
					c-0.7-0.4-1.3-0.6-3.6-1.3c-1.1,1.1-1.7,1.6-2.6,2.2l-0.3-0.3c3.6-4.8,3.7-10.8,3.6-13l4.8,1.2v-3.6h-5.1v1.1
					c0,3.6-1.6,11.9-8.8,18.2l-0.3-0.3c3-5,3.6-11.1,3.6-14.8v-12l5.8,2.3h14.9c-0.2-2.1-0.2-2.4-0.3-5.4H1340l-0.6-1.1h9.3v-8.9
					l6.4,0.5c0.5,0,1,0.2,1,0.8s-0.5,0.8-1.6,1.4v6.1h4.7v-11.1l6.3,0.6c0.4,0,0.8,0.1,0.8,0.7c0,0.5-0.2,0.6-1.6,1.4v2.3h7.3
					l1.7-2.5c0.1-0.2,0.4-0.4,0.8-0.4s0.7,0.3,0.9,0.4l3,2.1c0.2,0.1,0.5,0.4,0.5,0.9s-0.5,0.6-0.9,0.6h-13.4v5h11l2.3-2.6
					c0.3-0.3,0.4-0.5,0.8-0.5c0.2,0,0.5,0.1,0.8,0.4l3.2,2.3c0.1,0.1,0.5,0.4,0.5,0.9C1382.9,174,1382.4,174.1,1382,174.1z
					 M1363.9,180.7h-15.3v3.5h9.4l1.7-1.9c0.2-0.3,0.4-0.4,0.8-0.4c0.3,0,0.6,0.2,1,0.4l2.5,1.5c0.1,0.1,0.3,0.1,0.4,0.3
					C1364.2,182.9,1364,181.9,1363.9,180.7z M1353.8,190.5c-1.9,4.3-3.1,5.7-4.9,7.7c0,0,3,0.5,3.6,0.5c0.8,0,1.3-0.1,1.3-1.7V190.5
					z M1371.8,178.1c-0.1-1.6-0.2-2.4-2-3.6l0.2-0.3h-6l5.7,1.1c0.2,0,0.7,0.1,0.7,0.6c0,0.4-0.4,0.7-1.4,1.2c0,0.7,0,1.3,0.1,2.5
					h3.3C1371.9,179,1371.8,178.3,1371.8,178.1z"/>
			</g>
		</g>
	</g>
	<g>
		<path class="st2" d="M990.7,66.8c0-14.5-11.7-26.2-26.2-26.2s-26.2,11.7-26.2,26.2S950,93,964.5,93
			C979,92.9,990.7,81.3,990.7,66.8z"/>
		<polygon class="st2" points="964.5,165.7 972.9,157.4 966.3,109.3 972.9,102.7 964.5,94.3 956.2,102.7 962.8,109.3 956.2,157.4 		
			"/>
		<path class="st2" d="M981.4,100.2h-1l2.5,2.5l-5,5l-4.1,4.1l6.1,44.5l0.5,3.5l-2.5,2.5l-8.4,8.4l-5,5l-5-5l-8.4-8.4l-2.5-2.5
			l0.5-3.5l6.1-44.5l-4.1-4.1l-5-5l2.4-2.5h-0.9c-19.9,0-36,16.1-36,36v49.2h16.1v-51.1h7.1v51.1h58.7v-51.1h7.1v51.1h16.8v-49.2
			C1017.4,116.3,1001.3,100.3,981.4,100.2z"/>
	</g>
	<g>
		<path class="st2" d="M868.4,146.3c0-1,0.8-1.8,1.8-1.8h18.6c1,0,1.8,0.8,1.8,1.8v4.7h3.6v-4.7c0-3-2.4-5.4-5.4-5.4h-18.6
			c-3,0-5.4,2.4-5.4,5.4v4.7h3.6L868.4,146.3L868.4,146.3z"/>
		<path class="st2" d="M843.2,178.3v13.3c0,4,3.2,7.2,7.2,7.2h58.4c4,0,7.2-3.2,7.2-7.2v-13.3c-9.9,7.7-22.9,12-36.4,12
			C865.9,190.4,853.2,186.1,843.2,178.3z"/>
		<path class="st2" d="M908.8,153.2h-58.4c-4,0-7.2,3.2-7.2,7.2v13.3c9.5,8.3,22.7,13.1,36.4,13.1s26.9-4.8,36.4-13.1v-13.3
			C916,156.5,912.8,153.2,908.8,153.2z M881.8,169.5v7.7h-4.5v-7.7c-1.1-0.7-1.7-1.9-1.7-3.3c0-2.2,1.7-4,4-4c2.2,0,4,1.7,4,4
			C883.6,167.6,882.9,168.8,881.8,169.5z"/>
	</g>
</g>
<g>
	<path class="st5" d="M-123.4-158.1H-233v62.4h109.6V-158.1z M-196.5-146.8l22,1.2l9,10.7l-4.4,3.7l-7.4-8.7l-17.2-1l-22.4,18.9
		l-3.7-4.4L-196.5-146.8z M-195.9-120.7l-21.5,13l-3-4.9l25.1-15.3l18.6,16.5l20.5-34.5l20.4,13.7l-3.2,4.8l-15.3-10.3l-20.9,35.2
		L-195.9-120.7z M-139.2-104.3l-22-16.6l3.5-4.6l22,16.6L-139.2-104.3z"/>
	<path class="st5" d="M-123.4-85.3v-4.6H-233v4.6l-10,11.4h129.5L-123.4-85.3z M-143.8-79.6h-68.6v-5.8h68.6L-143.8-79.6
		L-143.8-79.6z"/>
</g>
<g>
	<path class="st2" d="M135.1,310.4c3.1-1.6,5.3-4.9,5.3-8.7c0-5.3-4.4-9.7-9.7-9.7s-9.7,4.4-9.7,9.7c0,3.8,2.2,7,5.3,8.7
		c-4.4,0.5-7.9,4.3-7.9,8.8v11.5H143v-11.5C143,314.5,139.5,310.8,135.1,310.4z"/>
	<rect x="158.8" y="309.7" class="st2" width="84.4" height="21"/>
	<path class="st2" d="M135.1,360.5c3.1-1.6,5.3-4.9,5.3-8.7c0-5.3-4.4-9.7-9.7-9.7s-9.7,4.4-9.7,9.7c0,3.8,2.2,7,5.3,8.7
		c-4.4,0.5-7.9,4.3-7.9,8.8v11.5H143v-11.5C143,364.8,139.5,361,135.1,360.5z"/>
	<rect x="158.8" y="360" class="st2" width="61.3" height="21"/>
	<path class="st2" d="M135.1,410.7c3.1-1.6,5.3-4.9,5.3-8.7c0-5.3-4.4-9.7-9.7-9.7s-9.7,4.4-9.7,9.7c0,3.8,2.2,7,5.3,8.7
		c-4.4,0.5-7.9,4.3-7.9,8.8v11.5H143v-11.5C143,415,139.5,411.3,135.1,410.7z"/>
	<rect x="158.8" y="410.2" class="st2" width="108.3" height="21"/>
</g>
<g>
	<rect x="-275.8" y="174.5" class="st5" width="9.2" height="48.3"/>
	<polygon class="st5" points="-254,222.8 -244.8,222.8 -244.8,158 -239.2,158 -249.4,142 -259.6,158 -254,158 	"/>
	<rect x="-297.5" y="200.5" class="st5" width="9.2" height="22.3"/>
	<path class="st5" d="M-223.5,242.5v-58.2h-12.3v4.9h7.3v46.7h-85.9v-46.7h28.5v-4.9h-33.4v58.2l-13.5,15.4H-210L-223.5,242.5z
		 M-244.3,250.7h-54v-4.9h54L-244.3,250.7L-244.3,250.7z"/>
</g>
<g>
	<path class="st5" d="M-113.4,299.7c6.6,0,12.1,5.4,12.1,12.1s-5.4,12-12.1,12c-6.6,0-12.1-5.4-12.1-12
		C-125.5,305.1-120.1,299.7-113.4,299.7z"/>
	<path class="st5" d="M-77.4,299.7c6,0,10.8,4.9,10.8,10.9s-4.9,10.8-10.8,10.8c-6,0-10.8-4.9-10.8-10.8
		C-88.3,304.5-83.4,299.7-77.4,299.7z"/>
	<path class="st5" d="M-141.4,355.6h-19.5v-14.4h-4v14.4h-5.9V342c0-7.9,6.5-14.4,14.4-14.4h14c3.4,0,6.6,1.2,9.2,3.4
		c-4.9,3.7-8.1,9.5-8.1,16.2L-141.4,355.6L-141.4,355.6z M-89.4,362.5h-7v-16.2h-4v16.2h-26.3v-16.2h-4v16.2h-6.7v-15.3
		c0-8.9,7.3-16.2,16.2-16.2h15.5c8.9,0,16.2,7.3,16.2,16.2L-89.4,362.5L-89.4,362.5z M-56,355.6h-5.9v-14.4h-4v14.4h-19.5v-8.5
		c0-6.6-3.2-12.5-8.1-16.2c2.6-2.1,5.8-3.3,9.2-3.3h14c7.9,0,14.4,6.5,14.4,14.4L-56,355.6L-56,355.6z"/>
	<path class="st5" d="M-149.4,299.7c6,0,10.8,4.9,10.8,10.9s-4.9,10.8-10.8,10.8c-6,0-10.8-4.9-10.8-10.8
		C-160.3,304.5-155.4,299.7-149.4,299.7z"/>
</g>
<g>
	<g>
		<g>
			<path class="st2" d="M1178.1,428.2h-12.7v9.3c0,0.9-0.5,1.2-1.4,1.6c-0.7,0.3-2,0.7-2.6,0.7c-1.2,0-1.6-0.5-1.6-1.1v-10.5h-18.1
				l-0.5-1h6.5v-12.4l5.5,2.4h6.5V409h-8.4c-3,4.2-5.3,6.6-10.1,9.4l-0.3-0.3c3.8-4.9,5.8-9.7,7.2-16l6.4,1.6
				c0.4,0.1,0.8,0.3,0.8,0.6c0,0.5-0.3,0.6-1.4,0.9c-0.5,0.8-0.9,1.4-1.9,2.9h17.7l2.8-3.1c0.2-0.3,0.3-0.4,0.7-0.4
				c0.3,0,0.5,0.1,0.7,0.4l3.2,2.7c0.3,0.2,0.4,0.5,0.4,0.8c0,0.4-0.4,0.5-0.8,0.5h-11c0.2,0.1,0.4,0.3,0.4,0.6
				c0,0.5-0.4,0.6-0.9,0.8v6.7h3.4l2.4-2.8c0.2-0.3,0.3-0.4,0.7-0.4c0.3,0,0.5,0.2,0.8,0.4l2.8,2.5c0.2,0.2,0.4,0.4,0.4,0.8
				s-0.4,0.5-0.7,0.5h-9.7v9h5.4l2.8-3.5c0.2-0.3,0.3-0.4,0.7-0.4c0.3,0,0.5,0.2,0.7,0.4l3.3,3.2c0.2,0.2,0.4,0.4,0.4,0.8
				C1178.8,428.1,1178.4,428.2,1178.1,428.2z M1159.9,418.4h-6.8v9h6.8V418.4z"/>
		</g>
		<g>
			<g>
				<path class="st2" d="M1176.8,427h-12.7v9.3c0,0.9-0.5,1.2-1.4,1.6c-0.7,0.3-2,0.7-2.6,0.7c-1.2,0-1.6-0.5-1.6-1.1V427h-18.1
					l-0.5-1h6.5v-12.4l5.5,2.4h6.5v-8.2h-8.4c-3,4.2-5.3,6.6-10.1,9.4l-0.3-0.3c3.8-4.9,5.8-9.7,7.2-16l6.4,1.6
					c0.4,0.1,0.8,0.3,0.8,0.6c0,0.5-0.3,0.6-1.4,0.9c-0.5,0.8-0.9,1.4-1.9,2.9h17.7l2.8-3.1c0.2-0.3,0.3-0.4,0.7-0.4
					c0.3,0,0.5,0.1,0.7,0.4l3.2,2.7c0.3,0.2,0.4,0.5,0.4,0.8c0,0.4-0.4,0.5-0.8,0.5h-11c0.2,0.1,0.4,0.3,0.4,0.6
					c0,0.5-0.4,0.6-0.9,0.8v6.7h3.4l2.4-2.8c0.2-0.3,0.3-0.4,0.7-0.4c0.3,0,0.5,0.2,0.8,0.4l2.8,2.5c0.2,0.2,0.4,0.4,0.4,0.8
					s-0.4,0.5-0.7,0.5h-9.7v9h5.4l2.8-3.5c0.2-0.3,0.3-0.4,0.7-0.4c0.3,0,0.5,0.2,0.7,0.4l3.3,3.2c0.2,0.2,0.4,0.4,0.4,0.8
					C1177.4,426.9,1177,427,1176.8,427z M1158.5,417h-6.8v9h6.8V417z"/>
			</g>
		</g>
	</g>
	<g>
		<g>
			<path class="st2" d="M1379.5,434.9v31c0,0.4-0.1,0.9-0.3,1.3c-0.9,1.5-3.2,1.6-4,1.6c-1.4,0-1.5-0.7-1.5-2V465h-24.1v0.9
				c0,2.7-3.3,2.7-3.9,2.7c-1.1,0-1.8-0.1-1.8-1.4v-38l6,2.6h23.8l1.4-1.8c0.4-0.6,0.8-0.9,1.4-0.9c0.6,0,1.4,0.7,1.4,0.8l3.1,2.6
				c0.3,0.3,0.3,0.5,0.3,0.9C1381,433.5,1380.8,433.7,1379.5,434.9z M1373.7,432.7h-24.1v31.4h24.1V432.7z M1371.3,442.1v15.1
				c0,2-3.2,2.4-4.1,2.4c-1.4,0-1.8-0.4-1.8-1.8V456h-7.2v2.5c0,1.9-2.6,2.2-3.5,2.2c-0.4,0-1.9,0-1.9-1.3v-22.9l5.5,2.8h6.9
				l1.3-1.6c0.3-0.5,0.8-0.8,1.4-0.8c0.4,0,0.9,0.2,1.3,0.4l3.1,2.2c0.3,0.3,0.4,0.5,0.4,0.8C1372.5,440.9,1372.3,441,1371.3,442.1z
				 M1365.4,440.4h-7.2V455h7.2V440.4z"/>
		</g>
		<g>
			<g>
				<path class="st2" d="M1378,433.4v31c0,0.4-0.1,0.9-0.3,1.3c-0.9,1.5-3.2,1.6-4,1.6c-1.4,0-1.5-0.7-1.5-2v-1.7h-24.1v0.9
					c0,2.7-3.3,2.7-3.9,2.7c-1.1,0-1.8-0.1-1.8-1.4v-38l6,2.6h23.8l1.4-1.8c0.4-0.6,0.8-0.9,1.4-0.9c0.6,0,1.4,0.7,1.4,0.8l3.1,2.6
					c0.3,0.3,0.3,0.5,0.3,0.9C1379.5,432.1,1379.4,432.2,1378,433.4z M1372.2,431.1h-24.1v31.4h24.1V431.1z M1369.7,440.7v15.1
					c0,2-3.2,2.4-4.1,2.4c-1.4,0-1.8-0.4-1.8-1.8v-1.8h-7.2v2.5c0,1.9-2.6,2.2-3.5,2.2c-0.4,0-1.9,0-1.9-1.3v-22.9l5.5,2.8h6.9
					l1.3-1.6c0.3-0.5,0.8-0.8,1.4-0.8c0.4,0,0.9,0.2,1.3,0.4l3.1,2.2c0.3,0.3,0.4,0.5,0.4,0.8C1371,439.3,1370.8,439.5,1369.7,440.7
					z M1363.8,438.9h-7.2v14.6h7.2V438.9z"/>
			</g>
		</g>
	</g>
	<g>
		<path class="st2" d="M982,467.4l13.4-3.4l-4.1-16c-1.4-0.2-2.6-0.5-3.9-0.8L982,467.4z"/>
		<path class="st2" d="M1013.4,416.4c-2.6-10.3-13.1-16.6-23.4-14s-16.5,13.1-14,23.4c2.6,10.3,13.1,16.6,23.4,14
			C1009.7,437.2,1016,426.7,1013.4,416.4z"/>
		<polygon class="st2" points="985.3,320.2 988.4,332.7 1001.9,329.2 		"/>
		<path class="st2" d="M1012.9,441.1l4.4,17.3l13.4-3.4l-15.4-16.3C1014.5,439.6,1013.7,440.5,1012.9,441.1z"/>
		<path class="st2" d="M982.7,342.2l-6.3-25L850.1,349l24.9,99l92.8-23.4c-1.7-13.4,6.8-26.3,20.2-29.7c13.4-3.4,27.1,4,31.8,16.6
			l8.3-2.1l-18.6-74L982.7,342.2z M957.6,389.6l-79.8,20.1l-1.9-7.6l79.8-20.1L957.6,389.6z M952.7,370.2l-79.8,20.1l-1.9-7.6
			l79.8-20.1L952.7,370.2z M947.8,350.8L868,370.9l-1.9-7.6l79.8-20.1L947.8,350.8z"/>
	</g>
</g>
<text transform="matrix(1 0 0 1 1486.863 1107.826)" style="font-family:'MicrosoftJhengHeiUIRegular'; font-size:71.5219px;">1.000</text>
<g>
	<path class="st6" d="M453.4,418.9c0-3.6,1.2-7,3.5-10.2s5.3-5.5,9-6.9c-2.9-1.7-5.3-3.8-7.1-6.3c-1.8-2.5-2.6-5.2-2.6-8.1
		c0-3,0.8-5.8,2.2-8.3c1.5-2.5,3.6-4.4,6.4-5.9c2.7-1.4,5.8-2.1,9.1-2.1c3.3,0,6.4,0.7,9.1,2.1c2.7,1.4,4.8,3.4,6.4,5.9
		c1.5,2.5,2.3,5.3,2.3,8.3c0,2.8-0.9,5.5-2.6,8c-1.7,2.5-4.1,4.6-7,6.3c3.8,1.5,6.8,3.9,9.1,7.1c2.2,3.2,3.4,6.6,3.4,10.1
		c0,3.6-0.9,6.9-2.6,9.8c-1.7,2.9-4.2,5.1-7.3,6.7c-3.2,1.6-6.7,2.4-10.6,2.4c-3.9,0-7.4-0.8-10.5-2.4c-3.1-1.6-5.6-3.8-7.3-6.7
		C454.3,425.8,453.4,422.6,453.4,418.9z M460.4,418.5c0,4.1,1.2,7.4,3.7,9.7c2.5,2.4,5.8,3.6,9.8,3.6c4,0,7.3-1.2,9.8-3.7
		s3.8-5.7,3.8-9.7c0-3.7-1.3-6.9-3.8-9.5c-2.6-2.6-5.8-3.8-9.8-3.8c-3.9,0-7.2,1.3-9.7,3.8S460.4,414.7,460.4,418.5z M462.7,388.1
		c0,3,1.1,5.6,3.3,7.8c2.2,2.2,4.8,3.3,7.9,3.3c3.1,0,5.7-1.1,8-3.3c2.2-2.2,3.4-4.8,3.4-7.8c0-3.2-1.1-5.8-3.3-7.9
		c-2.2-2.1-4.9-3.2-8-3.2c-3.3,0-6,1.1-8.1,3.2C463.8,382.3,462.7,384.9,462.7,388.1z"/>
	<path class="st6" d="M540.5,379.6c-3.4-1.7-6.9-2.5-10.5-2.5c-5.9,0-10.6,2.6-14,7.8c-3.4,5.2-5.1,12.1-5.1,20.8h0.2
		c3-6.2,7.9-9.2,14.8-9.2c5.6,0,10.1,1.8,13.5,5.5c3.4,3.7,5,8.5,5,14.5c0,6.1-1.9,11.2-5.7,15.3c-3.8,4.1-8.6,6.1-14.5,6.1
		c-6.7,0-11.8-2.6-15.3-7.9c-3.5-5.2-5.3-12.4-5.3-21.5c0-10.9,2.3-19.9,6.9-26.8c4.6-7,11-10.5,19.3-10.5c4.5,0,8.1,0.6,10.7,1.9
		V379.6z M511.3,415.6c0,4.6,1.2,8.4,3.6,11.6c2.4,3.2,5.6,4.7,9.5,4.7c3.8,0,6.9-1.4,9.2-4.2c2.3-2.8,3.5-6.3,3.5-10.5
		c0-4.7-1.1-8.3-3.4-11c-2.3-2.6-5.4-3.9-9.4-3.9c-3.6,0-6.7,1.3-9.3,3.8S511.3,411.9,511.3,415.6z"/>
	<path class="st6" d="M553.1,432.8c0-1.4,0.5-2.5,1.5-3.5c1-1,2.1-1.4,3.4-1.4c1.3,0,2.5,0.5,3.4,1.4c0.9,1,1.4,2.1,1.4,3.5
		c0,1.3-0.5,2.5-1.4,3.4s-2.1,1.4-3.4,1.4c-1.3,0-2.4-0.5-3.4-1.4C553.6,435.4,553.1,434.2,553.1,432.8z"/>
	<path class="st6" d="M612.6,376.8c-6.7,11.7-12,22.6-15.9,32.8c-3.9,10.2-6.3,19.2-7.2,27.2H582c2.2-15.5,9.9-34.9,22.9-58.1h-32.4
		v-6.4h40V376.8z"/>
</g>
<g>
	<path class="st6" d="M459.9,190.2v-57.7c-1.3,1.3-3.5,2.8-6.5,4.4s-6,2.8-8.7,3.5v-7.8c3.4-0.9,7.1-2.5,11.1-4.6
		c4-2.1,7.1-4.2,9.3-6.1h2.1v68.3H459.9z"/>
	<path class="st6" d="M499.2,158.1c0-11.8,1.9-20.7,5.8-26.8c3.8-6.1,9.4-9.1,16.6-9.1c13.9,0,20.8,11.4,20.8,34.3
		c0,11.1-1.9,19.7-5.7,25.7c-3.8,6.1-9.4,9.1-16.6,9.1c-6.8,0-12-2.9-15.5-8.7C501,176.8,499.2,168.6,499.2,158.1z M506.6,157.8
		c0,18.3,4.8,27.4,14.3,27.4c9.5,0,14.2-9.3,14.2-27.8c0-19.3-4.6-29-13.9-29C511.5,128.4,506.6,138.2,506.6,157.8z"/>
	<path class="st6" d="M594.6,123.4v44.8h10.1v6.1h-10.1v16h-7.1v-16h-31.3v-6c5.9-6.7,11.6-14.1,17-22.1c5.4-8,9.9-15.6,13.6-22.8
		H594.6z M587.5,168.1v-33.1l-0.9-0.2c-6.2,11.4-13.7,22.5-22.5,33.3H587.5z"/>
</g>
</svg>
