<svg xmlns="http://www.w3.org/2000/svg" width="375.224" height="662.002" viewBox="0 0 375.224 662.002">
  <g id="グループ_3325" data-name="グループ 3325" transform="translate(3289.112 -13869)">
    <path id="中マド_10" data-name="中マド 10" d="M375.113,662H.113V424.394a8.143,8.143,0,0,0,2.42,5.916c1.9,1.845,4.667,2.78,8.212,2.78a11.925,11.925,0,0,0,7.439-2.149,8.041,8.041,0,0,0,3.128-6.732,8.2,8.2,0,0,0-1.522-5.132,8.122,8.122,0,0,0-4.566-2.758l-1.03,3.359a6.093,6.093,0,0,1,3.281,1.551,4.079,4.079,0,0,1,1.094,2.955,4.265,4.265,0,0,1-1.724,3.5,9.885,9.885,0,0,1-6.14,1.635,10.749,10.749,0,0,1-5.612-1.262,4.314,4.314,0,0,1-2.239-3.874,3.852,3.852,0,0,1,1.081-2.845,5.972,5.972,0,0,1,3.244-1.454l-.837-3.45A7.979,7.979,0,0,0,1.991,418.8a7.734,7.734,0,0,0-1.876,5.219l0-211.711a7.712,7.712,0,0,0,2.333,4.658c1.9,1.827,4.665,2.754,8.212,2.754a12.092,12.092,0,0,0,7.439-2.11,7.86,7.86,0,0,0,3.128-6.641,7.991,7.991,0,0,0-2.433-6.037c-1.9-1.819-4.655-2.741-8.2-2.741A12.11,12.11,0,0,0,3.14,204.3a7.6,7.6,0,0,0-3.028,5.267V193.7a6.95,6.95,0,0,0,1.355,3.419,5.006,5.006,0,0,0,4.145,2.008,5.506,5.506,0,0,0,3.566-1.068,9.474,9.474,0,0,0,2.587-4.685l.309-1.056a8.946,8.946,0,0,1,1.352-3.128,2.7,2.7,0,0,1,2.188-.862,2.572,2.572,0,0,1,2.192.978,4.905,4.905,0,0,1,.73,2.934,4.091,4.091,0,0,1-.836,2.587,4.844,4.844,0,0,1-2.858,1.66l1.081,3.4a6.832,6.832,0,0,0,3.81-2.484,10.043,10.043,0,0,0,.014-10.516,5.443,5.443,0,0,0-4.582-2.111,5.3,5.3,0,0,0-3.476,1.068c-1.05.88-1.912,2.534-2.561,4.917L8.8,191.845a8.164,8.164,0,0,1-1.236,2.87,2.707,2.707,0,0,1-2.188.888,2.385,2.385,0,0,1-1.854-.772,3.874,3.874,0,0,1-.81-2.639c0-1.888,1.126-3.113,3.346-3.642l-.94-3.45a7.464,7.464,0,0,0-3.47,2.158,6.841,6.841,0,0,0-1.541,3.653V156.053a7.717,7.717,0,0,0,2.333,4.657c1.9,1.827,4.668,2.754,8.212,2.754a12.1,12.1,0,0,0,7.439-2.11,7.861,7.861,0,0,0,3.128-6.642,7.99,7.99,0,0,0-2.433-6.036c-1.9-1.819-4.654-2.741-8.2-2.741a12.12,12.12,0,0,0-7.453,2.111,7.6,7.6,0,0,0-3.028,5.268v-43.54A7.852,7.852,0,0,0,2.42,114.31c1.9,1.845,4.667,2.78,8.212,2.78a11.926,11.926,0,0,0,7.439-2.149,8.043,8.043,0,0,0,3.127-6.732,8.2,8.2,0,0,0-1.522-5.132,8.117,8.117,0,0,0-4.567-2.758l-1.03,3.36a6.093,6.093,0,0,1,3.282,1.551,4.078,4.078,0,0,1,1.094,2.954,4.262,4.262,0,0,1-1.725,3.5,9.884,9.884,0,0,1-6.139,1.635,10.772,10.772,0,0,1-5.612-1.262,4.319,4.319,0,0,1-2.239-3.874,3.848,3.848,0,0,1,1.081-2.844,5.979,5.979,0,0,1,3.244-1.454l-.836-3.45A7.985,7.985,0,0,0,1.879,102.8a7.277,7.277,0,0,0-1.767,3.855V31.489a7.95,7.95,0,0,0,2.345,4.732c1.914,1.861,4.672,2.805,8.2,2.805a12.264,12.264,0,0,0,7.452-2.072,7.616,7.616,0,0,0,3.115-6.475A6.446,6.446,0,0,0,20.5,27.4,5.69,5.69,0,0,0,17.98,25l2.974-.4V22.23H10.181v8.1h2.741V25.551a7.718,7.718,0,0,1,4.171,1.412,3.881,3.881,0,0,1,1.39,3.157,4.3,4.3,0,0,1-1.724,3.552c-1.367,1.05-3.428,1.583-6.126,1.583a10.84,10.84,0,0,1-5.625-1.248,4.386,4.386,0,0,1-2.239-3.938,3.887,3.887,0,0,1,1.017-2.794,5.594,5.594,0,0,1,3.05-1.455l-.824-3.462a7.923,7.923,0,0,0-4.132,2.355A7.372,7.372,0,0,0,.113,28.743V0h375V81.774a7.711,7.711,0,0,0-2.334-4.673c-1.905-1.828-4.668-2.755-8.212-2.755a12.085,12.085,0,0,0-7.439,2.111A7.863,7.863,0,0,0,354,83.1a7.99,7.99,0,0,0,2.434,6.036c1.9,1.82,4.653,2.742,8.2,2.742a12.11,12.11,0,0,0,7.453-2.111,7.609,7.609,0,0,0,3.029-5.268v15.884a6.938,6.938,0,0,0-1.355-3.434,5.006,5.006,0,0,0-4.145-2.008,5.506,5.506,0,0,0-3.566,1.068,9.469,9.469,0,0,0-2.587,4.685l-.309,1.056a8.93,8.93,0,0,1-1.352,3.127,2.7,2.7,0,0,1-2.188.862,2.572,2.572,0,0,1-2.191-.978,4.9,4.9,0,0,1-.731-2.935,4.079,4.079,0,0,1,.837-2.587,4.832,4.832,0,0,1,2.857-1.66l-1.081-3.4a6.809,6.809,0,0,0-3.81,2.484A8.593,8.593,0,0,0,354,101.9a8.505,8.505,0,0,0,1.48,5.278,5.443,5.443,0,0,0,4.583,2.111,5.3,5.3,0,0,0,3.475-1.068c1.05-.882,1.912-2.536,2.561-4.917l.321-1.081a8.145,8.145,0,0,1,1.236-2.87,2.706,2.706,0,0,1,2.187-.888,2.386,2.386,0,0,1,1.855.772,3.877,3.877,0,0,1,.811,2.639c0,1.888-1.126,3.113-3.347,3.642l.94,3.45a7.453,7.453,0,0,0,3.469-2.159,6.817,6.817,0,0,0,1.542-3.653v34.875a7.711,7.711,0,0,0-2.334-4.673c-1.909-1.827-4.671-2.754-8.212-2.754a12.091,12.091,0,0,0-7.439,2.111A7.863,7.863,0,0,0,354,139.359a7.99,7.99,0,0,0,2.434,6.036c1.895,1.819,4.653,2.741,8.2,2.741a12.12,12.12,0,0,0,7.453-2.11,7.61,7.61,0,0,0,3.029-5.269v43.56a7.843,7.843,0,0,0-2.309-4.557c-1.905-1.845-4.668-2.78-8.213-2.78a11.926,11.926,0,0,0-7.439,2.149,8.045,8.045,0,0,0-3.127,6.732,7.4,7.4,0,0,0,6.088,7.889l1.031-3.359a6.094,6.094,0,0,1-3.283-1.551,4.082,4.082,0,0,1-1.093-2.955,4.262,4.262,0,0,1,1.725-3.5,9.89,9.89,0,0,1,6.139-1.634,10.76,10.76,0,0,1,5.612,1.262,4.316,4.316,0,0,1,2.239,3.874,3.852,3.852,0,0,1-1.082,2.845,5.977,5.977,0,0,1-3.243,1.454l.836,3.45a7.978,7.978,0,0,0,4.351-2.369,7.276,7.276,0,0,0,1.768-3.86V262.6a7.94,7.94,0,0,0-2.347-4.747c-1.913-1.861-4.671-2.805-8.2-2.805a12.273,12.273,0,0,0-7.453,2.072A7.616,7.616,0,0,0,354,263.59a6.455,6.455,0,0,0,.722,3.075,5.68,5.68,0,0,0,2.523,2.407l-2.974.4v2.369h10.773v-8.1H362.3v4.775a7.715,7.715,0,0,1-4.17-1.413,3.878,3.878,0,0,1-1.391-3.156,4.291,4.291,0,0,1,1.725-3.552c1.366-1.05,3.427-1.583,6.125-1.583a10.837,10.837,0,0,1,5.626,1.248A4.388,4.388,0,0,1,372.457,264a3.887,3.887,0,0,1-1.017,2.794,5.6,5.6,0,0,1-3.05,1.454l.824,3.462a7.925,7.925,0,0,0,4.131-2.356,7.378,7.378,0,0,0,1.768-4.029V396.774a7.711,7.711,0,0,0-2.334-4.673c-1.905-1.828-4.668-2.755-8.212-2.755a12.086,12.086,0,0,0-7.439,2.111A7.863,7.863,0,0,0,354,398.1a7.99,7.99,0,0,0,2.434,6.036c1.9,1.82,4.653,2.742,8.2,2.742a12.11,12.11,0,0,0,7.453-2.111,7.609,7.609,0,0,0,3.029-5.268v15.884a6.938,6.938,0,0,0-1.355-3.434,5.006,5.006,0,0,0-4.145-2.008,5.51,5.51,0,0,0-3.566,1.068,9.47,9.47,0,0,0-2.587,4.685l-.309,1.056a8.929,8.929,0,0,1-1.352,3.128,2.7,2.7,0,0,1-2.188.862,2.572,2.572,0,0,1-2.191-.978,4.9,4.9,0,0,1-.731-2.935,4.079,4.079,0,0,1,.837-2.587,4.828,4.828,0,0,1,2.857-1.66l-1.081-3.4a6.82,6.82,0,0,0-3.81,2.484A8.593,8.593,0,0,0,354,416.9a8.5,8.5,0,0,0,1.48,5.278,5.443,5.443,0,0,0,4.583,2.111,5.288,5.288,0,0,0,3.475-1.068c1.051-.882,1.913-2.536,2.561-4.917l.321-1.081a8.146,8.146,0,0,1,1.236-2.87,2.706,2.706,0,0,1,2.187-.888,2.386,2.386,0,0,1,1.855.772,3.877,3.877,0,0,1,.811,2.639c0,1.888-1.126,3.113-3.347,3.642l.94,3.45a7.455,7.455,0,0,0,3.469-2.159,6.817,6.817,0,0,0,1.542-3.653v34.875a7.711,7.711,0,0,0-2.334-4.673c-1.906-1.827-4.669-2.754-8.212-2.754a12.092,12.092,0,0,0-7.439,2.111A7.864,7.864,0,0,0,354,454.359a7.99,7.99,0,0,0,2.434,6.036c1.895,1.819,4.653,2.741,8.2,2.741a12.12,12.12,0,0,0,7.453-2.111,7.609,7.609,0,0,0,3.029-5.269v43.56a7.843,7.843,0,0,0-2.309-4.557c-1.905-1.845-4.668-2.78-8.213-2.78a11.937,11.937,0,0,0-7.439,2.149,8.045,8.045,0,0,0-3.127,6.732,8.2,8.2,0,0,0,1.522,5.132,8.113,8.113,0,0,0,4.566,2.757l1.031-3.359a6.1,6.1,0,0,1-3.283-1.552,4.077,4.077,0,0,1-1.093-2.954,4.262,4.262,0,0,1,1.725-3.5,9.89,9.89,0,0,1,6.139-1.634,10.761,10.761,0,0,1,5.612,1.262,4.316,4.316,0,0,1,2.239,3.874,3.843,3.843,0,0,1-1.082,2.845,5.978,5.978,0,0,1-3.243,1.454l.836,3.45a7.985,7.985,0,0,0,4.351-2.369,7.277,7.277,0,0,0,1.768-3.86V577.6a7.939,7.939,0,0,0-2.347-4.747c-1.914-1.862-4.672-2.805-8.2-2.805a12.285,12.285,0,0,0-7.453,2.072A7.618,7.618,0,0,0,354,578.59a6.454,6.454,0,0,0,.722,3.075,5.68,5.68,0,0,0,2.523,2.408l-2.974.4v2.369h10.773v-8.1H362.3v4.775a7.707,7.707,0,0,1-4.17-1.413,3.879,3.879,0,0,1-1.391-3.156,4.291,4.291,0,0,1,1.725-3.552c1.366-1.05,3.427-1.583,6.125-1.583a10.847,10.847,0,0,1,5.626,1.248A4.389,4.389,0,0,1,372.457,579a3.887,3.887,0,0,1-1.017,2.794,5.6,5.6,0,0,1-3.05,1.454l.824,3.462a7.929,7.929,0,0,0,4.131-2.355,7.387,7.387,0,0,0,1.768-4.03V662ZM354.4,591.319v13.708h2.819V594.871h6.59v7.517h2.818v-7.517h5.406v9.949h2.818v-13.5H354.4ZM6.045,588.431a4.947,4.947,0,0,0-4.17,1.812,8.9,8.9,0,0,0-1.39,5.434v7.349H20.937v-3.475H11.8v-2.9l-.026-.927,9.164-4.144v-3.823l-9.691,4.724a5.93,5.93,0,0,0-1.777-2.871A5.081,5.081,0,0,0,6.045,588.431ZM.485,571.093v13.5H20.937V570.887H18.119v10.156H11.528v-7.517H8.71v7.517H3.3v-9.95Zm0-17.054h0v13.476H20.937v-3.591H11.632v-7.478H8.813v7.478H3.3v-9.885Zm371.211-.355h0v.36c-2.2.89-4.477,1.878-6.757,2.935L354.4,561.935v4.351h20.452v-3.27h-8.584c-2.22,0-4.741.087-7.492.258v-.36a67.823,67.823,0,0,0,7.015-2.716l9.061-4.247v-5.355H354.4v3.27h9.911C366.973,553.864,369.458,553.8,371.7,553.684ZM.485,547.192v3.591H20.937V537.6h-2.87v9.589H.485ZM354.4,530.671v3.372l6.011,1.763v6.281l-6.012,1.738v3.72l20.452-6.306v-4.3ZM10.7,518.193A12.1,12.1,0,0,0,3.253,520.3a7.871,7.871,0,0,0-3.115,6.641,8,8,0,0,0,2.42,6.024c1.9,1.827,4.668,2.754,8.212,2.754a12.088,12.088,0,0,0,7.439-2.11,7.862,7.862,0,0,0,3.128-6.641,7.989,7.989,0,0,0-2.433-6.037C17.006,519.115,14.248,518.193,10.7,518.193ZM354.4,524.081v3.527h20.452v-3.527h-8.327v-8.52h8.327v-3.527H354.4v3.527h9.229v8.52H354.4ZM15.725,504.331a2.572,2.572,0,0,1,2.191.978,4.9,4.9,0,0,1,.73,2.934,4.083,4.083,0,0,1-.837,2.587,4.832,4.832,0,0,1-2.858,1.66l1.082,3.4a6.827,6.827,0,0,0,3.81-2.484,8.594,8.594,0,0,0,1.493-5.238,8.5,8.5,0,0,0-1.48-5.278,5.445,5.445,0,0,0-4.582-2.11,5.292,5.292,0,0,0-3.475,1.068c-1.05.88-1.912,2.534-2.561,4.917l-.322,1.081a8.14,8.14,0,0,1-1.236,2.87,2.707,2.707,0,0,1-2.188.888,2.384,2.384,0,0,1-1.853-.772,3.868,3.868,0,0,1-.811-2.639c0-1.888,1.126-3.113,3.346-3.642l-.94-3.45a7.188,7.188,0,0,0-3.822,2.61A7.77,7.77,0,0,0,.138,508.3a7.64,7.64,0,0,0,1.442,4.827,5,5,0,0,0,4.144,2.008,5.5,5.5,0,0,0,3.565-1.068,9.479,9.479,0,0,0,2.588-4.685l.309-1.056a8.894,8.894,0,0,1,1.351-3.128A2.7,2.7,0,0,1,15.725,504.331ZM.485,483.249V486.8H15.223a3.884,3.884,0,0,1,2.433.682,2.526,2.526,0,0,1,.94,2.11,14.575,14.575,0,0,1-.155,1.867l2.754-.129c.079-1.02.116-1.638.116-1.944a6.923,6.923,0,0,0-1.146-4.2,5.4,5.4,0,0,0-4.607-1.943ZM354.4,466.907v7.672a8.688,8.688,0,0,0,1.352,5.123,5.168,5.168,0,0,0,4.453,2.123,4.638,4.638,0,0,0,3.088-1.055,5.838,5.838,0,0,0,1.841-3.643h.18a5.122,5.122,0,0,0,1.352,2.819,4.176,4.176,0,0,0,3.1,1.249,4.559,4.559,0,0,0,3.564-1.364c1.008-1.119,1.519-3.011,1.519-5.625v-7.3H354.4ZM10.7,461.934a12.117,12.117,0,0,0-7.452,2.111,7.875,7.875,0,0,0-3.115,6.642,8,8,0,0,0,2.42,6.024c1.9,1.827,4.668,2.754,8.212,2.754a12.1,12.1,0,0,0,7.439-2.111,7.863,7.863,0,0,0,3.128-6.642,7.99,7.99,0,0,0-2.433-6.036C17.007,462.856,14.249,461.934,10.7,461.934ZM5.569,443.876A4.557,4.557,0,0,0,2,445.24C1,446.359.485,448.251.485,450.865v7.3H20.937v-7.672a8.7,8.7,0,0,0-1.351-5.123,5.17,5.17,0,0,0-4.453-2.123,4.641,4.641,0,0,0-3.09,1.055,5.853,5.853,0,0,0-1.84,3.642h-.18a5.134,5.134,0,0,0-1.351-2.818A4.176,4.176,0,0,0,5.569,443.876ZM356.9,433.61l-2.754.129c-.077.985-.116,1.639-.116,1.944a6.937,6.937,0,0,0,1.145,4.2,5.4,5.4,0,0,0,4.608,1.943h15.072v-3.552H360.114a3.882,3.882,0,0,1-2.433-.682,2.527,2.527,0,0,1-.94-2.111A14.378,14.378,0,0,1,356.9,433.61ZM.485,409.51v3.527H20.937V409.51H11.709v-8.52h9.228v-3.527H.485v3.527H8.813v8.52Zm20.452-31.984h0L.485,383.832v4.3L20.937,394.4v-3.372l-6.01-1.764v-6.281l6.01-1.737v-3.72ZM354.4,374.287h0v13.18h2.87v-9.589h17.582v-3.591Zm-192.24-22.341a.868.868,0,0,0-.437.068c-.061.046-.092.2-.092.46l.092,9.9v7.533l-.092,12.793c0,.233.022.368.068.414.046.076.193.114.437.114h3.951a.852.852,0,0,0,.437-.068.732.732,0,0,0,.092-.46v-1.883h27.951v1.745a.794.794,0,0,0,.069.414c.046.061.2.092.459.092h3.973A.86.86,0,0,0,199.5,383c.061-.046.092-.193.092-.436l-.092-12.7V361.34l.092-8.865a.841.841,0,0,0-.069-.437c-.046-.061-.2-.092-.459-.092l-6.385.092H180.327a38.693,38.693,0,0,0,2.319-5.352h12.242l5.926.092a.929.929,0,0,0,.459-.069c.076-.046.115-.177.115-.391v-3.7a.8.8,0,0,0-.069-.414.841.841,0,0,0-.5-.092l-5.926.092H166.247l-5.926-.092a.859.859,0,0,0-.437.069c-.061.046-.092.192-.092.436v3.7c0,.305.178.46.528.46l5.926-.092h11.071a34.761,34.761,0,0,1-2.3,5.351h-6.477Zm49.99-4.18c-.3,0-.459.178-.459.528l.092,10.978v8.338l-.092,14.286c0,.32.154.482.459.482h4.18c.351,0,.528-.162.528-.482v-2.343H239.55V381.8c0,.32.17.482.506.482h4.2c.3,0,.459-.162.459-.482l-.092-14.24v-9.417l.092-9.853c0-.35-.162-.528-.482-.528l-6.522.092H227.538c.689-1.2,1.416-2.57,2.159-4.088a4.52,4.52,0,0,1,1.034-1.516,1.077,1.077,0,0,0,.574-.85c0-.32-.255-.536-.758-.643-1.328-.35-3.051-.7-5.122-1.033a11.56,11.56,0,0,1-.713,2.71,45.648,45.648,0,0,1-2.526,5.421H218.7Zm61.4-6.316h0a14.539,14.539,0,0,1-2.526,3.537c-1.4,1.525-3.288,3.519-5.6,5.926-3.1,3.254-5.178,5.448-6.362,6.707a15.545,15.545,0,0,0-1.608,1.952,3.962,3.962,0,0,0-.689,2.183c0,1.372.842,2.708,2.5,3.973a122.892,122.892,0,0,1,17.111,15.894c.244.274.437.413.574.413a1.285,1.285,0,0,0,.643-.367c.913-.806,2.011-1.9,3.262-3.261a.883.883,0,0,0,.321-.551,1.236,1.236,0,0,0-.321-.62,129.693,129.693,0,0,0-17.5-14.814c-.411-.321-.62-.607-.62-.85a2.385,2.385,0,0,1,.62-1.033c3.387-3.509,7.707-7.62,12.839-12.219a10.29,10.29,0,0,1,2.251-1.653.935.935,0,0,0,.666-.9.917.917,0,0,0-.368-.735,36.623,36.623,0,0,0-5.19-3.583ZM44.937,358.233h0A36.661,36.661,0,0,0,51,371.2a41.261,41.261,0,0,0,10.968,10.085,3.2,3.2,0,0,0,1.107.589c.219,0,.512-.388.871-1.154a13.041,13.041,0,0,1,2.708-3.767,37.1,37.1,0,0,1-12.74-10.975,36.314,36.314,0,0,1-4.375-8.419,51.783,51.783,0,0,1-2.573-10.374c0-.769.016-1.347.047-1.719a7.731,7.731,0,0,1,.4-3.2,2.519,2.519,0,0,0,.471-1.2c0-.422-.309-.675-.918-.754-2.08-.3-4.077-.495-5.935-.589.157,1.456.268,3.564.33,6.265a40.35,40.35,0,0,1-.96,9.231,34.19,34.19,0,0,1-3.02,8.243,30.856,30.856,0,0,1-6.141,8.189,32.149,32.149,0,0,1-8.625,5.776,13.848,13.848,0,0,1,2.8,3.25c.406.766.73,1.154.966,1.154a3.748,3.748,0,0,0,1.106-.494,36.311,36.311,0,0,0,11.157-9.638A37.184,37.184,0,0,0,44.937,358.233Zm36.119,22.18h28.778l6.124.095a.768.768,0,0,0,.459-.083.709.709,0,0,0,.083-.436v-4.074a.816.816,0,0,0-.071-.424c-.047-.063-.2-.095-.471-.095l-6.124.095H98.412V366.73h6.029l6.665.094a.71.71,0,0,0,.436-.083c.056-.055.083-.2.083-.436v-3.933c0-.312-.174-.471-.518-.471l-6.665.094H98.412v-8.242h8.29l6.618.094a.95.95,0,0,0,.471-.071c.063-.047.095-.2.095-.447v-3.98a.815.815,0,0,0-.07-.424c-.047-.063-.214-.094-.5-.094l-6.618.094h-8.29v-2.661a21.8,21.8,0,0,1,.354-5.346,2.615,2.615,0,0,0,.235-.966c0-.3-.261-.471-.777-.518-1.37-.171-3.2-.29-5.44-.353a56.75,56.75,0,0,1,.377,7.324v2.52H85.2l1.154-3.18a5.435,5.435,0,0,1,.918-1.837,1.62,1.62,0,0,0,.495-.871c0-.328-.293-.574-.871-.73-1.974-.564-3.551-.952-4.687-1.154a14.087,14.087,0,0,1-.683,3.179,41.862,41.862,0,0,1-7.748,14.107,10.446,10.446,0,0,1,3.038,2.143c.563.516.919.778,1.06.778.172,0,.48-.293.918-.871a37.79,37.79,0,0,0,4.239-6.736H93.161V362h-5.3L81.2,361.9c-.344,0-.518.158-.518.471v3.933a.816.816,0,0,0,.071.424c.047.063.2.095.447.095l6.665-.094h5.3v8.761H81.056l-6.123-.095a.736.736,0,0,0-.424.071c-.079.047-.118.193-.118.447v4.074a.82.82,0,0,0,.07.424.75.75,0,0,0,.472.095ZM16.56,361.8h0v.36a68.105,68.105,0,0,0-7.015,2.716L.485,369.121v5.354H20.937v-3.269h-9.91c-2.662,0-5.148.06-7.388.18v-.36c2.2-.89,4.478-1.877,6.757-2.935l10.541-4.955v-4.351H.485v3.27H9.07C11.274,362.055,13.794,361.968,16.56,361.8Zm349.964-.651h5.509v9.885h2.818V357.556H354.4v3.591H363.7v7.478h2.819v-7.477ZM6.123,338.359a7.93,7.93,0,0,0-4.132,2.355A7.875,7.875,0,0,0,.138,346.12a8.2,8.2,0,0,0,2.433,6.1c1.914,1.862,4.672,2.805,8.2,2.805a12.267,12.267,0,0,0,7.452-2.072,7.618,7.618,0,0,0,3.115-6.475,6.447,6.447,0,0,0-.721-3.076A5.692,5.692,0,0,0,18.093,341l2.973-.4V338.23H10.293v8.1h2.741v-4.775a7.711,7.711,0,0,1,4.17,1.413,3.878,3.878,0,0,1,1.39,3.156,4.291,4.291,0,0,1-1.725,3.552c-1.365,1.051-3.427,1.583-6.126,1.583a10.823,10.823,0,0,1-5.624-1.248,4.385,4.385,0,0,1-2.24-3.938A3.89,3.89,0,0,1,3.9,343.275a5.6,5.6,0,0,1,3.05-1.454ZM354.4,340.475v13.708h2.819V344.028h6.59v7.517h2.818v-7.517h5.406v9.949h2.818v-13.5Zm0-18.431h0v3.475h9.139v2.9l.025.926-9.164,4.145v3.823l9.692-4.724a5.928,5.928,0,0,0,1.776,2.87,5.083,5.083,0,0,0,3.423,1.184,4.948,4.948,0,0,0,4.171-1.812,8.891,8.891,0,0,0,1.391-5.434v-7.349ZM.485,320.25v13.5H20.937V320.044H18.119V330.2H11.528v-7.516H8.71V330.2H3.3V320.25Zm292.738-20.137h5.052v.582a.812.812,0,0,0,.069.418.741.741,0,0,0,.466.094h2.514a32.394,32.394,0,0,1-4.236,2.863,7.252,7.252,0,0,1,1.768,2.189c.4.819.771,1.234,1.094,1.234a2.384,2.384,0,0,0,1.048-.536,35.778,35.778,0,0,0,6.728-5.75,12.126,12.126,0,0,0,2.38,3.963,3.985,3.985,0,0,0,2.858,1.321,3.329,3.329,0,0,0,2.869-1.787,14.036,14.036,0,0,0,1.624-5.36,6.532,6.532,0,0,0,.117-.977,1.043,1.043,0,0,0-.7-.908,8.571,8.571,0,0,1-2.538-1.909c-.247,2.027-.467,3.452-.652,4.237-.216.911-.49,1.374-.815,1.374-.788,0-1.493-1.277-2.1-3.794a40.155,40.155,0,0,0,3.911-7.1,7.185,7.185,0,0,1,.977-1.932,1.4,1.4,0,0,0,.536-.908c0-.231-.2-.513-.582-.838a16.349,16.349,0,0,0-3.515-2.1,21.758,21.758,0,0,1-.954,3.608c-.478,1.187-1,2.346-1.56,3.445-.341-2.471-.583-5.454-.722-8.87h.6l6.542.094a.73.73,0,0,0,.419-.07c.077-.062.116-.234.116-.512v-3.1a.668.668,0,0,0-.07-.4.855.855,0,0,0-.465-.07l-6.542.047h-.7c-.063-3.348-.093-6.029-.093-8.195a20.544,20.544,0,0,1,.279-4.679,3.016,3.016,0,0,0,.28-1c0-.293-.274-.473-.815-.535-1.644-.186-3.1-.3-4.33-.326a53.992,53.992,0,0,1,.373,6.681c.1,5.378.148,7.787.163,8.055h-4.214a25.829,25.829,0,0,0,.955-2.863,1.475,1.475,0,0,1,.489-.769.763.763,0,0,0,.233-.559.529.529,0,0,0-.465-.535l-.639-.12-3.225-.6c-.045.61-.132,1.308-.257,2.073a23.95,23.95,0,0,1-.885,3.375H294.9a34.244,34.244,0,0,0-1.443-4.958c-.126-.3-.271-.443-.443-.443a1.879,1.879,0,0,0-.419.07l-2.281.559c-.386.092-.582.241-.582.442a1.071,1.071,0,0,0,.116.419,40.361,40.361,0,0,1,1.281,3.911l-3.143-.047a.951.951,0,0,0-.4.047c-.062.047-.093.184-.093.419v3.1a1.119,1.119,0,0,0,.069.489c.047.062.188.094.419.094l5.634-.094h11.15a82.817,82.817,0,0,0,1.188,12.106c.127.779.234,1.327.326,1.676a32.539,32.539,0,0,1-4.051,4.074c-.062-.636-.093-2.876-.093-6.658v-4.33l.093-4.54c0-.34-.156-.512-.465-.512l-4,.093H293.8l-4-.093a.881.881,0,0,0-.442.069c-.062.047-.094.2-.094.443l.094,5.68v4.19l-.094,7.915a.8.8,0,0,0,.07.419c.047.062.2.094.465.094h2.911a.389.389,0,0,0,.512-.512v-2.676Zm-10.687-.977h0v2.746l-.093,5a.883.883,0,0,0,.069.443c.047.062.192.093.443.093h3.189a1.109,1.109,0,0,0,.49-.07c.061-.046.093-.2.093-.465l-.093-5V270.035c.42.03.788.046,1.094.046.325,0,.49-.172.49-.512v-3.352c0-.34-.165-.512-.49-.512l-4.679.093H277.9l-4.657-.093a.859.859,0,0,0-.442.069c-.062.047-.093.192-.093.443v3.352a.8.8,0,0,0,.069.419c.047.062.2.093.465.093l1.42-.046V296.6c-1.472.189-2.264.28-2.421.28a46.318,46.318,0,0,0,.908,4.586c.108.417.3.629.559.629a1.7,1.7,0,0,0,.768-.326,5.6,5.6,0,0,1,1.56-.582c2.212-.661,4.4-1.35,6.494-2.048ZM229,299.786h2.537c-.031,2.119-.055,4.186-.069,6.146v.008l0,.077c-.014.52-.022.838-.022.868a.87.87,0,0,0,.07.443c.046.061.195.093.442.093h3.632a.8.8,0,0,0,.419-.07.731.731,0,0,0,.093-.465l-.093-7.1h1.583l5.8.093a.768.768,0,0,0,.454-.081.71.71,0,0,0,.081-.431v-3.049a.883.883,0,0,0-.069-.443c-.047-.061-.2-.093-.466-.093l-5.8.093H236.01v-3.143h1.234l5.144.094c.355,0,.536-.157.536-.465l-.093-4.494v-7.379l.093-4.447a.811.811,0,0,0-.069-.418c-.047-.062-.2-.094-.466-.094l-5.144.094h-1.188v-3.05h2l5.68.094a.8.8,0,0,0,.419-.07c.062-.047.093-.2.093-.465v-3.1c0-.309-.172-.465-.512-.465l-5.68.094h-2v-.141a8.881,8.881,0,0,1,.349-3.119,2.456,2.456,0,0,0,.233-.838c0-.233-.258-.4-.768-.489a43.13,43.13,0,0,0-4.633-.326,30.881,30.881,0,0,1,.349,4.912h-2.4l-5.656-.094c-.325,0-.49.157-.49.465v3.1c0,.355.165.536.49.536l5.656-.094h2.4v3.05h-1.094l-5.191-.094a.869.869,0,0,0-.442.07c-.062.047-.094.2-.094.442l.094,4.447v7.379l-.094,4.494c0,.309.18.465.535.465l5.191-.094h1.048v3.143H229l-5.819-.093a.814.814,0,0,0-.419.069c-.062.047-.094.2-.094.466v3.049a.8.8,0,0,0,.07.419c.047.062.192.093.443.093Zm31.962,3.1h0c.335,1.016.656,2.073.955,3.143.078.294.2.443.349.443a2.2,2.2,0,0,0,.582-.14l3.165-1.048c.386-.154.582-.318.582-.489a1.091,1.091,0,0,0-.07-.326,84.538,84.538,0,0,0-6.145-14.783c-.123-.216-.241-.326-.349-.326a3.208,3.208,0,0,0-.559.139l-2.817,1c-.355.156-.536.313-.536.466a1.066,1.066,0,0,0,.117.4,80.53,80.53,0,0,1,3.282,7.427c-2.653.45-5.59.88-8.73,1.28,1.555-4.541,3.036-9.655,4.4-15.2h4.562l5.773.093c.251,0,.4-.03.454-.093a.831.831,0,0,0,.081-.466V280.86a.815.815,0,0,0-.069-.419.743.743,0,0,0-.466-.093l-5.773.093H250.7l-5.773-.093a.934.934,0,0,0-.466.069c-.062.047-.093.192-.093.443V284.4a.883.883,0,0,0,.069.443c.062.077.227.116.49.116l5.215-.093a158.955,158.955,0,0,1-4.4,15.737c-.868.078-1.706.117-2.491.117-.342,0-.687-.008-1.024-.023a36.107,36.107,0,0,0,1.141,4.562c.139.417.381.629.721.629a1.729,1.729,0,0,0,.745-.28,6.029,6.029,0,0,1,1.769-.442C251.018,304.608,255.85,303.84,260.964,302.882ZM354.4,276.319v13.708h2.819V279.871h6.59v7.517h2.818v-7.517h5.406v9.949h2.818v-13.5H354.4ZM5.934,272.431a4.948,4.948,0,0,0-4.171,1.812,8.9,8.9,0,0,0-1.39,5.434v7.349H20.825v-3.475H11.687v-2.9l-.025-.927,9.164-4.145v-3.822l-9.692,4.724a5.935,5.935,0,0,0-1.776-2.871A5.081,5.081,0,0,0,5.934,272.431Zm306.984-5.585a.847.847,0,0,0-.419.139l-2.072,1.048c-.371.2-.559.373-.559.512a.933.933,0,0,0,.139.4,32.617,32.617,0,0,1,2.678,6.1c.124.34.265.512.419.512a1.408,1.408,0,0,0,.535-.163l2.328-1.257c.263-.139.4-.3.4-.489a1.129,1.129,0,0,0-.07-.349,22.881,22.881,0,0,0-2.863-5.96C313.259,267.01,313.087,266.846,312.917,266.846Zm-19.6,5.773h4.865l4.447.093a.794.794,0,0,0,.419-.069c.062-.047.094-.2.094-.443v-2.956a.869.869,0,0,0-.07-.442c-.047-.062-.2-.094-.442-.094l-4.447.094H297.9v-1.467a7.408,7.408,0,0,1,.186-2.165,2.412,2.412,0,0,0,.279-.7c0-.34-.258-.535-.768-.582-1.245-.108-2.7-.186-4.33-.233a19.033,19.033,0,0,1,.279,3.632V268.8h-.233l-4.19-.094a.727.727,0,0,0-.418.07c-.078.047-.117.2-.117.465V272.2a.8.8,0,0,0,.07.419.731.731,0,0,0,.465.093Zm-41.522-.326h6.961l5.215.093a.951.951,0,0,0,.465-.069c.062-.047.094-.2.094-.466v-3.585a.872.872,0,0,0-.07-.443c-.062-.077-.227-.116-.489-.116l-5.215.094h-6.961l-5.191-.094a.938.938,0,0,0-.465.07.793.793,0,0,0-.094.489v3.585a.871.871,0,0,0,.07.443c.047.062.207.093.489.093ZM.374,255.093h0v13.5H20.825V254.887H18.006v10.156h-6.59v-7.517H8.6v7.517H3.192v-9.949Zm0-17.054v13.476H20.825v-3.591H11.519v-7.478H8.7v7.478H3.192v-9.885Zm371.323.645h0v.36c-2.194.886-4.467,1.873-6.757,2.935L354.4,246.935v4.351h20.452v-3.27h-8.584c-2.224,0-4.745.087-7.492.257v-.36a68.505,68.505,0,0,0,7.015-2.716l9.061-4.247v-5.355H354.4v3.27h9.911C366.96,238.865,369.445,238.8,371.7,238.685ZM.374,231.192v3.591H20.825V221.6h-2.87v9.589ZM354.4,215.671v3.372l6.011,1.763v6.281l-6.012,1.738v3.72l20.452-6.306v-4.3Zm0-6.59v3.527h20.452v-3.527h-8.327v-8.52h8.327v-3.527H354.4v3.527h9.229v8.52ZM.374,167.248V170.8H15.11a3.881,3.881,0,0,1,2.433.682,2.528,2.528,0,0,1,.94,2.111,14.158,14.158,0,0,1-.154,1.867l2.754-.129c.078-.995.116-1.631.116-1.944a6.931,6.931,0,0,0-1.146-4.2,5.4,5.4,0,0,0-4.608-1.944ZM354.4,151.907v7.672a8.689,8.689,0,0,0,1.352,5.123,5.168,5.168,0,0,0,4.453,2.123,4.638,4.638,0,0,0,3.088-1.055,5.837,5.837,0,0,0,1.841-3.643h.18a5.124,5.124,0,0,0,1.352,2.819,4.176,4.176,0,0,0,3.1,1.249,4.559,4.559,0,0,0,3.564-1.364c1.008-1.119,1.519-3.011,1.519-5.625v-7.3ZM5.458,127.876a4.561,4.561,0,0,0-3.566,1.364C.884,130.36.374,132.253.374,134.865v7.3H20.825v-7.672a8.7,8.7,0,0,0-1.352-5.123,5.169,5.169,0,0,0-4.453-2.124,4.643,4.643,0,0,0-3.089,1.056,5.842,5.842,0,0,0-1.84,3.642h-.18a5.129,5.129,0,0,0-1.352-2.819A4.178,4.178,0,0,0,5.458,127.876ZM356.9,118.61l-2.754.129c-.077.985-.116,1.639-.116,1.944a6.937,6.937,0,0,0,1.145,4.2,5.4,5.4,0,0,0,4.608,1.943h15.072v-3.552H360.114a3.882,3.882,0,0,1-2.433-.682,2.527,2.527,0,0,1-.94-2.111A14.353,14.353,0,0,1,356.9,118.61ZM.374,93.51v3.527H20.825V93.51H11.6V84.99h9.229V81.463H.374V84.99H8.7v8.52ZM20.825,61.526.374,67.832v4.3L20.825,78.4V75.028l-6.011-1.764V66.983l6.011-1.737ZM354.4,59.288v13.18h2.87V62.879h17.582V59.288ZM16.448,45.8h0v.36a67.8,67.8,0,0,0-7.015,2.716L.374,53.121v5.354H20.825V55.206H10.914c-2.652,0-5.137.061-7.388.18v-.36c2.243-.906,4.516-1.893,6.757-2.935l10.542-4.955V42.785H.374v3.27H8.958C11.162,46.055,13.683,45.968,16.448,45.8Zm350.076.349h5.509v9.885h2.818V42.556H354.4v3.591H363.7v7.478h2.819V46.147ZM354.4,25.475V39.183h2.819V29.028h6.59v7.517h2.818V29.028h5.406v9.95h2.818v-13.5Zm0-18.431v3.475h9.139v2.9l.025.926L354.4,18.486v3.823l9.692-4.724a5.927,5.927,0,0,0,1.776,2.87,5.083,5.083,0,0,0,3.423,1.184,4.948,4.948,0,0,0,4.171-1.812,8.891,8.891,0,0,0,1.391-5.434V7.044ZM.374,4.249v13.5H20.825V4.044H18.006V14.2h-6.59V6.682H8.6V14.2H3.192V4.249Zm8.787,595.3H3.15v-3.72a4.733,4.733,0,0,1,.736-2.886,2.623,2.623,0,0,1,2.21-.962,2.721,2.721,0,0,1,2.3,1,4.919,4.919,0,0,1,.766,3v3.564ZM375.116,580.3h0v-2.7a10.388,10.388,0,0,1,.085,1.354A10.664,10.664,0,0,1,375.116,580.3Zm-12.067-38.841h0V536.45l4.171,1.107c1.416.4,3.1.826,5.007,1.262v.231c-2.909.685-4.461,1.058-5.033,1.21Zm-352.306-9.5a11.145,11.145,0,0,1-5.638-1.21,4.187,4.187,0,0,1-2.227-3.8,4.1,4.1,0,0,1,1.712-3.436c1.356-1.025,3.426-1.544,6.152-1.544a11.189,11.189,0,0,1,5.612,1.2,4.323,4.323,0,0,1,.528,7.233C15.516,531.428,13.45,531.952,10.743,531.952ZM375.115,502.39h0v-3.073a10.409,10.409,0,0,1,.112,1.544A10.254,10.254,0,0,1,375.115,502.39Zm-14.653-24.156a3.207,3.207,0,0,1-2.381-.875,4.414,4.414,0,0,1-1.018-3.18v-3.8h6.72v3.346a5.772,5.772,0,0,1-.772,3.166A2.867,2.867,0,0,1,360.462,478.234Zm8.958-.566a2.567,2.567,0,0,1-2.06-.9,5,5,0,0,1-.913-3.27v-3.114h5.74v3.424a5.342,5.342,0,0,1-.6,2.87A2.41,2.41,0,0,1,369.419,477.668ZM10.743,475.693a11.145,11.145,0,0,1-5.638-1.21,4.187,4.187,0,0,1-2.227-3.8,4.1,4.1,0,0,1,1.712-3.437c1.358-1.025,3.428-1.544,6.152-1.544a11.164,11.164,0,0,1,5.612,1.2,4.323,4.323,0,0,1,.528,7.233C15.518,475.169,13.453,475.693,10.743,475.693Zm353.848-16.328a11.166,11.166,0,0,1-5.611-1.2,4.323,4.323,0,0,1-.528-7.233c1.366-1.034,3.431-1.558,6.139-1.558a11.147,11.147,0,0,1,5.639,1.21,4.184,4.184,0,0,1,2.227,3.8,4.1,4.1,0,0,1-1.712,3.437C369.387,458.846,367.317,459.365,364.592,459.365Zm10.523-3.627h0v-2.706a10.284,10.284,0,0,1,.085,1.351A10.427,10.427,0,0,1,375.115,455.739ZM18.273,454.687H11.554v-3.346a5.754,5.754,0,0,1,.772-3.166,2.868,2.868,0,0,1,2.549-1.338,3.2,3.2,0,0,1,2.38.875,4.41,4.41,0,0,1,1.017,3.179v3.8Zm-9.382,0H3.15v-3.424a5.339,5.339,0,0,1,.6-2.87,2.409,2.409,0,0,1,2.162-.991,2.564,2.564,0,0,1,2.059.9,4.993,4.993,0,0,1,.914,3.269v3.114Zm366.224-36.548h0v-2.757a10.781,10.781,0,0,1,.085,1.392A10.488,10.488,0,0,1,375.115,418.139Zm-10.523-15.034a11.156,11.156,0,0,1-5.611-1.2,4.323,4.323,0,0,1-.528-7.233c1.365-1.033,3.431-1.557,6.139-1.557a11.147,11.147,0,0,1,5.639,1.21,4.182,4.182,0,0,1,2.227,3.8,4.1,4.1,0,0,1-1.712,3.436C369.39,402.586,367.32,403.105,364.592,403.105Zm10.523-3.626h0v-2.706a10.28,10.28,0,0,1,.085,1.351A10.427,10.427,0,0,1,375.115,399.48ZM12.288,388.62h0l-4.168-1.107c-1.412-.4-3.1-.824-5.007-1.261v-.231c2.758-.649,4.45-1.056,5.032-1.21l4.144-1.2v5.006Zm182.279-11.984h-5.9v-20.51h5.9v20.509Zm-22.117,0h-5.834v-20.51h5.834v20.509Zm11.782,0h-7.419v-4.478h7.419v4.477Zm55.319-1.653H216.859v-9.211H239.55v9.21Zm-55.319-6.775h-7.419v-4.089h7.419v4.088Zm55.319-6.914H216.859v-8.866H239.55v8.865Zm-55.319-1.125h-7.419v-4.043h7.419v4.042Zm185.008-27.082a2.724,2.724,0,0,1-2.3-1,4.929,4.929,0,0,1-.765-3v-3.565h6.01v3.72a4.73,4.73,0,0,1-.737,2.886A2.622,2.622,0,0,1,369.239,333.087Zm-70.965-36.4h-5.052v-2.77h5.052v2.769Zm-19.554-1.048h0v-6.728h3.818V294.5C281.037,294.981,279.753,295.365,278.72,295.643Zm19.554-5.052h-5.052v-2.538h5.052v2.537Zm-59.4-1.281h-3v-3.585h3v3.584Zm-7.1,0h-2.91v-3.585h2.91v3.584Zm50.764-4.493h-3.818V279.44h3.818v5.376ZM9.049,283.551H3.038v-3.72a4.731,4.731,0,0,1,.737-2.886,2.62,2.62,0,0,1,2.21-.962,2.723,2.723,0,0,1,2.3,1,4.918,4.918,0,0,1,.766,3v3.565Zm229.824-1.062h-3v-3.445h3v3.444Zm-7.1,0h-2.91v-3.445h2.91v3.444Zm50.764-7.147h-3.818v-5.354h3.818v5.353Zm92.578-10.036h0V262.6a10.915,10.915,0,0,1,0,2.711Zm-12.065-38.85h0V221.45l4.171,1.106c1.433.406,3.118.831,5.007,1.262v.231c-2.772.653-4.418,1.048-5.033,1.21Zm-352.417-10.5a11.144,11.144,0,0,1-5.638-1.21,4.185,4.185,0,0,1-2.227-3.8,4.1,4.1,0,0,1,1.712-3.436c1.358-1.025,3.428-1.545,6.152-1.545a11.2,11.2,0,0,1,5.612,1.2,4.324,4.324,0,0,1,.527,7.234C15.4,215.429,13.339,215.952,10.632,215.952ZM.113,212.28h0a10.367,10.367,0,0,1-.085-1.335,10.52,10.52,0,0,1,.086-1.374v2.708Zm0-18.609h0A10.837,10.837,0,0,1,.026,192.3a10.582,10.582,0,0,1,.086-1.384v2.758Zm375-6.281h0v-3.073a10.41,10.41,0,0,1,.112,1.544A10.254,10.254,0,0,1,375.115,187.39Zm-14.653-24.156a3.206,3.206,0,0,1-2.381-.875,4.414,4.414,0,0,1-1.018-3.18v-3.8h6.72v3.346a5.772,5.772,0,0,1-.772,3.166A2.867,2.867,0,0,1,360.462,163.234Zm8.958-.566a2.567,2.567,0,0,1-2.06-.9,5,5,0,0,1-.913-3.27v-3.114h5.74v3.424a5.342,5.342,0,0,1-.6,2.87A2.41,2.41,0,0,1,369.419,162.668ZM10.632,159.693a11.127,11.127,0,0,1-5.638-1.21,4.182,4.182,0,0,1-2.227-3.8,4.1,4.1,0,0,1,1.712-3.437c1.358-1.025,3.428-1.544,6.152-1.544a11.2,11.2,0,0,1,5.612,1.2,4.323,4.323,0,0,1,.527,7.233C15.407,159.169,13.341,159.693,10.632,159.693ZM.113,156.02h0a10.339,10.339,0,0,1-.085-1.334,10.52,10.52,0,0,1,.086-1.374v2.707Zm364.479-11.655a11.175,11.175,0,0,1-5.611-1.2,4.323,4.323,0,0,1-.528-7.233c1.366-1.034,3.431-1.558,6.139-1.558a11.147,11.147,0,0,1,5.639,1.21,4.185,4.185,0,0,1,2.227,3.8,4.1,4.1,0,0,1-1.712,3.437C369.387,143.846,367.317,144.365,364.592,144.365Zm10.523-3.627h0v-2.705a10.282,10.282,0,0,1,.085,1.351A10.426,10.426,0,0,1,375.115,140.739ZM18.161,138.687H11.443v-3.346a5.764,5.764,0,0,1,.772-3.166,2.867,2.867,0,0,1,2.548-1.339,3.206,3.206,0,0,1,2.381.876,4.413,4.413,0,0,1,1.017,3.179v3.8Zm-9.383,0H3.038v-3.424a5.34,5.34,0,0,1,.6-2.87,2.41,2.41,0,0,1,2.163-.991,2.564,2.564,0,0,1,2.059.9,4.985,4.985,0,0,1,.913,3.269v3.114ZM.113,109.744h0a10.725,10.725,0,0,1,0-3.086v3.085Zm375-6.6h0v-2.757a10.779,10.779,0,0,1,.085,1.392A10.488,10.488,0,0,1,375.115,103.139ZM364.592,88.106a11.157,11.157,0,0,1-5.611-1.2,4.323,4.323,0,0,1-.528-7.233c1.365-1.033,3.431-1.557,6.139-1.557a11.147,11.147,0,0,1,5.639,1.21,4.183,4.183,0,0,1,2.227,3.8,4.1,4.1,0,0,1-1.712,3.436C369.39,87.586,367.32,88.106,364.592,88.106Zm10.523-3.626h0V81.774a10.282,10.282,0,0,1,.085,1.351A10.426,10.426,0,0,1,375.115,84.48ZM12.179,72.62h0L8.006,71.513c-1.414-.4-3.1-.824-5.007-1.261V70.02c2.841-.668,4.44-1.052,5.033-1.21l4.144-1.2v5ZM.113,31.458h0A10.41,10.41,0,0,1,.026,30.12a10.54,10.54,0,0,1,.086-1.377v2.713Zm369.127-13.37a2.724,2.724,0,0,1-2.3-1,4.929,4.929,0,0,1-.765-3V10.519h6.01v3.72a4.73,4.73,0,0,1-.737,2.886A2.623,2.623,0,0,1,369.239,18.087Z" transform="translate(-3289.112 13869)" fill="#fff"/>
    <g id="グループ_3324" data-name="グループ 3324">
      <path id="パス_3608" data-name="パス 3608" d="M8.772-33.927a27.149,27.149,0,0,1,.172,3.87v11.825a31.01,31.01,0,0,1-.215,3.87H14.62a20.757,20.757,0,0,1-.172-3.784V-30.014a21.856,21.856,0,0,1,.172-3.87Zm19.393.086a22.643,22.643,0,0,1,.215,4.085v5.375c0,3.44-.043,5.332-.215,7.181-.473,5.676-1.892,8.3-5.934,10.965-2.58,1.72-5.074,2.623-9.288,3.44a14.69,14.69,0,0,1,3.01,5.117A36.372,36.372,0,0,0,24.338-.989c4.472-2.494,7.224-5.719,8.471-10.019.774-2.709,1.075-6.321,1.118-13.029v-5.805a20.4,20.4,0,0,1,.215-4ZM78.217-28.38l1.849-.688a27.325,27.325,0,0,0-3.827-6.794l-3.182,1.075A26.664,26.664,0,0,1,76.2-29.412a20.785,20.785,0,0,1-2.236.086l-9.417.129c-.86,0-1.548.043-2.064.086l.344-.645c.086-.172.086-.215.3-.6.43-.86.817-1.72,1.161-2.494a5.133,5.133,0,0,1,.731-1.29l-5.891-1.2a16.5,16.5,0,0,1-2.193,5.719,33.877,33.877,0,0,1-11.137,12.47,11.425,11.425,0,0,1,4.171,3.7A42.728,42.728,0,0,0,60.028-24.51l12.943-.172C69.531-13.5,62.264-5.805,51-1.5A14.228,14.228,0,0,1,54.653,3.01,43.405,43.405,0,0,0,69.961-7.869c4.042-4.773,6.106-8.6,8.643-16.254a8.673,8.673,0,0,1,1.075-2.58ZM85.656-31a25.092,25.092,0,0,0-3.784-6.536l-3.1,1.075a30.8,30.8,0,0,1,3.7,6.665ZM117.863-2.494V.473h5.547a29.473,29.473,0,0,1-.172-3.741v-24.6c0-1.591.043-2.451.129-3.569-.989.086-1.763.129-3.612.129H95.331c-1.72,0-2.623-.043-3.655-.129a28.558,28.558,0,0,1,.172,3.612V-3.182a28.736,28.736,0,0,1-.172,3.7h5.547v-3.01Zm0-4.9H97.223V-26.445h20.64Zm51.256,4.343c-5.2-5.031-5.2-5.031-6.278-5.977a66.648,66.648,0,0,0-7.955-6.235,56.948,56.948,0,0,0,6.708-11.868,8.27,8.27,0,0,1,1.376-2.322l-2.838-2.924c-1.075.387-1.419.43-3.827.473l-15.136.215h-1.032a18.818,18.818,0,0,1-3.784-.258l.172,5.5a33.888,33.888,0,0,1,4.687-.344c13.545-.215,13.545-.215,14.233-.258l-.473,1.118a41.447,41.447,0,0,1-14.448,17.5,35.5,35.5,0,0,1-8.6,4.73,17.249,17.249,0,0,1,3.483,4.773A51.1,51.1,0,0,0,151.79-11.352a82.66,82.66,0,0,1,13.2,12.771Zm23.689-20.023A7.868,7.868,0,0,1,196.444-22,8.919,8.919,0,0,1,200.872-14a10.079,10.079,0,0,1-5,9,19.132,19.132,0,0,1-7.164,1.98,11.484,11.484,0,0,1,2.2,4.212,23.536,23.536,0,0,0,5.652-1.512c5.508-2.232,8.748-7.2,8.748-13.428,0-8.1-5.616-13.356-14.256-13.356-5.112,0-9.36,1.728-12.384,5.04a15.464,15.464,0,0,0-3.96,10.476c0,5.8,2.952,9.972,7.056,9.972,2.952,0,5.256-2.124,7.308-6.768A52.08,52.08,0,0,0,192.808-23.076Zm-4.392.036a47.445,47.445,0,0,1-2.988,12.168c-1.3,3.1-2.52,4.608-3.708,4.608-1.584,0-2.844-2.34-2.844-5.292a12.053,12.053,0,0,1,4.9-9.72A9.164,9.164,0,0,1,188.416-23.04Zm143.2,3.24a33.672,33.672,0,0,1,4.932,11.7l4.1-2.052a33.483,33.483,0,0,0-5.4-11.448Zm-10.584-7.92a8.378,8.378,0,0,1,.288-1.116l-4.68-.468v.648a50.639,50.639,0,0,1-.936,7.272,73.939,73.939,0,0,1-7.668.756l.432,4.248a14.783,14.783,0,0,1,1.476-.36l3.276-.54c1.152-.216,1.152-.216,1.692-.288-1.692,6.7-4.464,13.176-7.236,16.956l4.176,2.3a77.289,77.289,0,0,0,7.344-19.584c.828-.072,1.4-.108,2.16-.108,2.772,0,3.6.972,3.6,4.284a31.986,31.986,0,0,1-.936,8.208c-.54,1.764-1.116,2.448-2.16,2.448A15.07,15.07,0,0,1,316.6-4.5a13.522,13.522,0,0,1,.36,3.06c0,.36-.036.9-.072,1.584a16.689,16.689,0,0,0,5.544,1.08,4.559,4.559,0,0,0,4-1.62c1.728-1.98,2.772-6.912,2.772-13.1,0-3.276-.468-5-1.692-6.372a6.974,6.974,0,0,0-5.328-1.908c-.648,0-1.152.036-2.232.072.108-.468.108-.468.216-1.08.36-1.944.612-3.42.792-4.464Zm8.352.252a24.3,24.3,0,0,1,3.78,5.364l2.52-1.332a23.33,23.33,0,0,0-3.78-5.292Zm10.584,1.692a20.819,20.819,0,0,0-3.744-5.076l-2.412,1.26a26.525,26.525,0,0,1,3.672,5.22Z" transform="translate(-3275.5 14170.656)" fill="#171c5f"/>
      <path id="パス_3611" data-name="パス 3611" d="M3.85,9.825a3.867,3.867,0,0,1,.56-.035c.315,0,.315,0,.98.035.77,0,3.85.07,4.41.07,0,0,.455-.035.595-.035a1.712,1.712,0,0,0-.28.455,46.356,46.356,0,0,1-4.2,5.985,21.441,21.441,0,0,1-3.15,3.115l3.185,3.15A15.737,15.737,0,0,1,8.995,19.38C11.69,17,14.14,15.775,16.17,15.775a1.921,1.921,0,0,1,2.135,1.89C14.35,19.31,12.355,20.64,10.78,22.6a5.577,5.577,0,0,0-1.54,3.885A5.075,5.075,0,0,0,11.8,31c1.785,1.05,4.095,1.47,7.805,1.47a63.482,63.482,0,0,0,8.96-.63,10.313,10.313,0,0,1,1.61-.14l-.35-4.515a30.409,30.409,0,0,1-10.29,1.47c-4.235,0-5.915-.735-5.915-2.555a3.685,3.685,0,0,1,1.82-2.87,21.271,21.271,0,0,1,3.36-1.82v.84a27.708,27.708,0,0,1-.21,4.06l4.06-.1a14.37,14.37,0,0,1-.105-1.855c0-.245,0-.56.035-1.155V21.8c0-.49,0-.49-.035-1.4V20.01q4.515-1.575,5.25-1.785a30.9,30.9,0,0,1,3.885-.945L30.03,13.255a10.935,10.935,0,0,1-2.59,1.05q-1.312.42-5.355,1.89c-.56-2.415-2.275-3.71-5-3.71a8.461,8.461,0,0,0-4.935,1.575c-.455.35-.455.35-.7.525l-.035-.07A18.112,18.112,0,0,0,14.63,9.86c3.535-.1,7.98-.385,10.535-.7,1.785-.21,1.785-.21,2.765-.28l-.245-3.99a47.283,47.283,0,0,1-9.17,1.19c-1.925.1-1.925.1-2.2.14.07-.14.14-.245.315-.63a26.741,26.741,0,0,1,1.4-3.15L13.44,1.95a13.861,13.861,0,0,1-1.4,4.34,42.3,42.3,0,0,1-8.12-.455ZM188.323,12.38V10.1c2.765-.07,3.4-.07,4.235-.07,2.9,0,4.585.07,5.88.175L198.4,6.185c-1.295.14-4.025.21-10.115.245a27.517,27.517,0,0,1,.175-4.165l-4.41.035c.175.91.175.91.21,4.235-1.82.07-1.82.07-2.975.105-2.87.07-3.22.07-5.495.14-4.515.175-5.075.175-5.95.175a15.241,15.241,0,0,1-1.715-.07l.14,4.165c.945-.14.945-.14,6.23-.525,1.54-.105,4.83-.21,9.835-.35,0,.945,0,2.905.035,2.975a1.442,1.442,0,0,0,.035.42,5.849,5.849,0,0,0-3.64-1.05c-4.06,0-6.965,2.66-6.965,6.37a5.469,5.469,0,0,0,2.415,4.725,6.45,6.45,0,0,0,4.06,1.26,5.766,5.766,0,0,0,5.145-2.485c-.28,1.96-1.68,3.745-4.06,5.11a16.518,16.518,0,0,1-5.95,2.03,11.487,11.487,0,0,1,2.485,3.955,24.468,24.468,0,0,0,6.335-2.87,11.23,11.23,0,0,0,5.215-9.45,10.651,10.651,0,0,0-1.12-4.935c0-.42-.035-.7-.035-.84ZM184.3,18.155a3.189,3.189,0,0,1-3.43,3.15,2.762,2.762,0,0,1-2.975-2.765,3.066,3.066,0,0,1,3.255-2.8C183.073,15.74,184.3,16.685,184.3,18.155Zm31.29-1.68a13.736,13.736,0,0,0,1.435-.91c.7-.455,3.22-2.345,3.85-2.87,1.19-1.015,3.745-3.29,5.5-4.9a7.5,7.5,0,0,1,1.82-1.435l-2.17-3.08a5.157,5.157,0,0,1-2.17.455c-3.4.245-7.665.42-10.64.42a31.654,31.654,0,0,1-4.13-.21l.175,4.2a11.806,11.806,0,0,1,1.68-.175c6.335-.28,8.575-.42,9.905-.6l.035.035-.63.63a116.866,116.866,0,0,1-10.465,9.1,31.477,31.477,0,0,1-4.935,3.29l2.38,3.78a21.565,21.565,0,0,1,14.42-5.88c4.235,0,6.93,1.785,6.93,4.515,0,2.485-1.26,3.99-4.165,5.075a9.413,9.413,0,0,0-1.61-3.15,7.533,7.533,0,0,0-6.055-2.87c-3.5,0-6.02,2.1-6.02,5a5,5,0,0,0,2.1,4.025c1.4,1.05,3.85,1.61,6.79,1.61a17.316,17.316,0,0,0,8.47-2,8.553,8.553,0,0,0,4.76-7.735c0-4.8-3.85-7.875-9.835-7.875a17.085,17.085,0,0,0-7.35,1.61Zm5.04,12.46a9.473,9.473,0,0,1-1.82.14c-2.59,0-4.165-.805-4.165-2.205,0-.98.8-1.61,2.065-1.61C218.668,25.26,220,26.52,220.628,28.935Z" transform="translate(-3169.42 14210.082)" fill="#171c5f"/>
      <g id="グループ_3323" data-name="グループ 3323" transform="translate(-3168.272 13627)">
        <g id="グループ_2154" data-name="グループ 2154" transform="translate(-111 860)">
          <text id="INTRODUCE" transform="translate(63.772 21)" fill="#f1f1f1" font-size="21" font-family="Helvetica-Bold, Helvetica" font-weight="700"><tspan x="-62.416" y="0">INTRODUCE</tspan></text>
          <text id="HUMAN" transform="translate(174.772 21)" fill="#f1f1f1" font-size="21" font-family="Helvetica-Bold, Helvetica" font-weight="700"><tspan x="-39.078" y="0">HUMAN</tspan></text>
          <text id="RESOURCES" transform="translate(287.772 21)" fill="#f1f1f1" font-size="21" font-family="Helvetica-Bold, Helvetica" font-weight="700"><tspan x="-66.512" y="0">RESOURCES</tspan></text>
        </g>
        <g id="グループ_2155" data-name="グループ 2155" transform="translate(-111 883.125)">
          <text id="THE_BEST_PEOPLE_TO_THE_BEST_PLACE." data-name="THE BEST PEOPLE TO THE BEST PLACE." transform="translate(132.772 13.875)" fill="#f1f1f1" font-size="14" font-family="Helvetica-Bold, Helvetica" font-weight="700" letter-spacing="-0.042em"><tspan x="-130.968" y="0">THE BEST PEOPLE TO THE BEST PLACE.</tspan></text>
        </g>
      </g>
    </g>
  </g>
</svg>
