<svg xmlns="http://www.w3.org/2000/svg" width="1919.999" height="997" viewBox="0 0 1919.999 997">
  <g id="グループ_3321" data-name="グループ 3321" transform="translate(7899.376 -12318.5)">
    <g id="グループ_3317" data-name="グループ 3317" transform="translate(-7899.376 12318.5)">
      <path id="中マド_5" data-name="中マド 5" d="M1920,997H0V368.95a31.843,31.843,0,0,0,2.106,11.476,26.95,26.95,0,0,0,6.319,9.407,32.03,32.03,0,0,0,12.146,7.256,51.484,51.484,0,0,0,16.447,2.419,52.727,52.727,0,0,0,14.566-1.87,33.973,33.973,0,0,0,11.339-5.61,27,27,0,0,0,8.167-10.045A31.543,31.543,0,0,0,73.812,368.6a35.082,35.082,0,0,0-1.325-9.964,23.223,23.223,0,0,0-10.6-13.728,34.7,34.7,0,0,0-9.274-3.766l-3.585,11.69c5.055.981,8.9,2.8,11.427,5.4a12.888,12.888,0,0,1,2.857,4.531,16.526,16.526,0,0,1,.952,5.75,15.2,15.2,0,0,1-1.5,6.786,15.725,15.725,0,0,1-4.5,5.4,24.993,24.993,0,0,1-9,4.267,48.57,48.57,0,0,1-12.381,1.422,50.976,50.976,0,0,1-11.069-1.1,27.928,27.928,0,0,1-8.471-3.291,16.484,16.484,0,0,1-5.849-5.745,15.235,15.235,0,0,1-1.949-7.737,15.615,15.615,0,0,1,.941-5.555,12.209,12.209,0,0,1,2.824-4.345c2.5-2.481,6.3-4.184,11.294-5.061l-2.913-12.005a32.022,32.022,0,0,0-8.56,3.09,24.97,24.97,0,0,0-6.588,5.152,24.265,24.265,0,0,0-4.908,8.331A31.714,31.714,0,0,0,0,368.249V0H1920V997ZM20.66,940.111a21.21,21.21,0,0,0-8.471,1.576,15.153,15.153,0,0,0-6.049,4.729,21.659,21.659,0,0,0-3.631,7.88A45.082,45.082,0,0,0,1.3,965.329V990.9H72.512V978.812H40.693V968.734l-.09-3.226,31.909-14.423v-13.3L38.766,954.22a20.66,20.66,0,0,0-6.184-9.989,16.486,16.486,0,0,0-5.379-3.091A20.019,20.019,0,0,0,20.66,940.111ZM1846.991,942v47.7h9.815V954.363h22.946v26.159h9.814V954.363h18.823v34.625h9.814V942ZM1.3,879.775v46.987H72.512v-47.7H62.7V914.4H39.752V888.24H29.937V914.4H11.113V879.775Zm1881.1-11.818a54.8,54.8,0,0,0-14.6,1.8,34.376,34.376,0,0,0-11.349,5.409,26.007,26.007,0,0,0-8.134,9.642A29.487,29.487,0,0,0,1845.6,897.7a22.476,22.476,0,0,0,2.51,10.705,19.807,19.807,0,0,0,8.784,8.376l-10.353,1.389v8.242h37.512V898.238h-9.546v16.618a38.109,38.109,0,0,1-8.471-1.7,19.123,19.123,0,0,1-6.05-3.217,12.736,12.736,0,0,1-3.63-4.733,15.429,15.429,0,0,1-1.21-6.251,15.76,15.76,0,0,1,1.5-6.943,15.4,15.4,0,0,1,4.5-5.419,24.619,24.619,0,0,1,8.919-4.133,50.164,50.164,0,0,1,12.414-1.377,51.746,51.746,0,0,1,11.125,1.086,27.728,27.728,0,0,1,8.459,3.259,16.5,16.5,0,0,1,5.849,5.822,15.727,15.727,0,0,1,1.95,7.884,13.519,13.519,0,0,1-3.541,9.719c-2.347,2.452-5.92,4.155-10.621,5.062l2.868,12.049a31.313,31.313,0,0,0,8.1-3.147,25.037,25.037,0,0,0,6.286-5.05,24.339,24.339,0,0,0,4.84-8.331,32.3,32.3,0,0,0,1.614-10.481,31.66,31.66,0,0,0-2.118-11.781,27.359,27.359,0,0,0-6.353-9.451,32.159,32.159,0,0,0-12.156-7.324A50.781,50.781,0,0,0,1882.4,867.957ZM11.113,820.424H1.3v46.9H72.512v-12.5H40.11V828.8H30.3v26.024H11.113Zm1896.109-9.4h0v1.255c-7.753,3.13-15.669,6.566-23.529,10.212l-36.7,17.246v15.14H1918.2V843.5h-29.892c-7.68,0-16.456.3-26.083.9v-1.255a236.236,236.236,0,0,0,24.424-9.451l31.55-14.781V800.275h-71.213v11.378H1881.5C1890.741,811.653,1899.4,811.442,1907.223,811.026ZM1.3,796.6v12.5H72.512V763.224H62.518V796.6Zm1845.69-65.659v11.736l20.929,6.136v21.859l-20.929,6.047v12.944l71.213-21.947V752.751l-71.213-21.814ZM36.883,695.677a53.865,53.865,0,0,0-14.6,1.836,34.1,34.1,0,0,0-11.349,5.51A26.394,26.394,0,0,0,2.8,712.9,33.589,33.589,0,0,0,2.2,737.827,26.421,26.421,0,0,0,8.515,747.1a32.068,32.068,0,0,0,12.146,7.189,51.958,51.958,0,0,0,16.448,2.4,53.683,53.683,0,0,0,14.565-1.837,34.151,34.151,0,0,0,11.339-5.509,26.434,26.434,0,0,0,8.167-9.878A30.847,30.847,0,0,0,73.9,726.224,31.217,31.217,0,0,0,71.784,714.5a26.389,26.389,0,0,0-6.353-9.284,31.916,31.916,0,0,0-12.111-7.156A52.061,52.061,0,0,0,36.883,695.677ZM1846.991,708v12.273H1918.2V708h-29V678.349h29V666.076h-71.213v12.272h32.133V708ZM54.362,647.435c3.375,0,5.942,1.145,7.63,3.4s2.544,5.7,2.544,10.213a14.209,14.209,0,0,1-2.914,9c-2.231,2.855-5.578,4.8-9.948,5.779l3.764,11.826a26.714,26.714,0,0,0,7.6-3.326,22.064,22.064,0,0,0,5.668-5.319,24.794,24.794,0,0,0,3.9-8.052,37.239,37.239,0,0,0,1.3-10.178,38.768,38.768,0,0,0-1.289-10.415,23.334,23.334,0,0,0-3.867-7.952,17.919,17.919,0,0,0-6.789-5.508,21.759,21.759,0,0,0-9.166-1.838,23.323,23.323,0,0,0-6.834.93,15.135,15.135,0,0,0-5.266,2.788,21.37,21.37,0,0,0-4.986,6.584A53.483,53.483,0,0,0,31.775,655.9l-1.121,3.764c-1.309,4.758-2.757,8.118-4.3,9.988-1.722,2.05-4.285,3.09-7.618,3.09a8.292,8.292,0,0,1-6.454-2.688c-1.874-2.108-2.824-5.2-2.824-9.181a11.575,11.575,0,0,1,2.913-8.119c1.936-2.1,4.876-3.637,8.739-4.557l-3.271-12.005a29.682,29.682,0,0,0-7.765,3.681,21.869,21.869,0,0,0-5.546,5.4,22.836,22.836,0,0,0-3.328,7.12,35.805,35.805,0,0,0,.146,18.234,22.268,22.268,0,0,0,3.764,7.4,17.908,17.908,0,0,0,6.319,5.241,18.47,18.47,0,0,0,8.113,1.747,24.627,24.627,0,0,0,7.024-.93,15.533,15.533,0,0,0,5.389-2.788,21.25,21.25,0,0,0,4.986-6.293,51.249,51.249,0,0,0,4.022-10.012l1.074-3.673c1.488-5.29,3.071-8.952,4.707-10.884C48.408,648.445,50.971,647.435,54.362,647.435Zm1828.123-51.146a52.693,52.693,0,0,0-14.565,1.87,33.9,33.9,0,0,0-11.339,5.61,26.994,26.994,0,0,0-8.168,10.044,31.553,31.553,0,0,0-2.722,13.381,35.142,35.142,0,0,0,1.325,9.965,23.218,23.218,0,0,0,10.6,13.729,34.628,34.628,0,0,0,9.274,3.765l3.585-11.69c-5.059-.981-8.9-2.8-11.428-5.4a12.869,12.869,0,0,1-2.857-4.53,16.549,16.549,0,0,1-.952-5.75,15.216,15.216,0,0,1,1.5-6.786,15.738,15.738,0,0,1,4.5-5.4,24.982,24.982,0,0,1,9-4.267,48.525,48.525,0,0,1,12.38-1.422,50.954,50.954,0,0,1,11.07,1.1,27.9,27.9,0,0,1,8.471,3.291,16.494,16.494,0,0,1,5.849,5.746,15.234,15.234,0,0,1,1.949,7.738,15.626,15.626,0,0,1-.941,5.554,12.233,12.233,0,0,1-2.824,4.345c-2.5,2.481-6.3,4.184-11.294,5.062l2.913,12a32.071,32.071,0,0,0,8.56-3.09,24.936,24.936,0,0,0,6.588-5.151,24.29,24.29,0,0,0,4.907-8.331,34.329,34.329,0,0,0-.471-22.308,26.911,26.911,0,0,0-6.319-9.406,31.986,31.986,0,0,0-12.145-7.257A51.433,51.433,0,0,0,1882.485,596.289ZM1.3,574.065h0v12.362H52.614c3.6,0,6.447.8,8.471,2.373a8.8,8.8,0,0,1,3.271,7.347,49.894,49.894,0,0,1-.536,6.5l9.59-.448c.267-3.443.4-5.719.4-6.763a31.58,31.58,0,0,0-1-8.265,18.934,18.934,0,0,0-2.991-6.338,15.616,15.616,0,0,0-6.544-5.074,24.485,24.485,0,0,0-9.5-1.69Zm876.1-82.833a2.142,2.142,0,0,0-1.087.172c-.152.113-.229.5-.229,1.144l.229,24.652v18.76l-.229,31.859a1.8,1.8,0,0,0,.171,1.029c.113.19.479.286,1.088.286h9.843a2.145,2.145,0,0,0,1.087-.171,1.816,1.816,0,0,0,.23-1.144v-4.69h69.645v4.346a1.973,1.973,0,0,0,.172,1.03c.114.152.5.229,1.145.229h9.9a2.148,2.148,0,0,0,1.088-.172c.152-.114.229-.48.229-1.087l-.229-31.63v-21.22l.229-22.078a2.147,2.147,0,0,0-.172-1.087c-.114-.152-.5-.229-1.145-.229l-15.909.229H922.662a96.156,96.156,0,0,0,5.78-13.328h30.5l14.764.23a2.317,2.317,0,0,0,1.144-.172c.19-.114.286-.441.286-.972v-9.209a1.975,1.975,0,0,0-.172-1.03,2.1,2.1,0,0,0-1.259-.229l-14.764.228H887.583l-14.765-.228a2.149,2.149,0,0,0-1.087.171c-.152.114-.23.479-.23,1.087v9.209c0,.759.443,1.144,1.316,1.144l14.765-.23h27.583a86.253,86.253,0,0,1-5.722,13.327H893.305Zm129.541-10.41c-.759,0-1.144.443-1.144,1.316l.229,27.34v20.763l-.229,35.577c0,.8.385,1.2,1.144,1.2h10.416c.873,0,1.316-.4,1.316-1.2v-5.834h56.54v5.605c0,.8.424,1.2,1.259,1.2h10.473c.759,0,1.145-.4,1.145-1.2l-.229-35.462V506.676l.229-24.538c0-.873-.4-1.316-1.2-1.316l-16.253.23h-25.352c1.7-2.95,3.513-6.375,5.38-10.182a11.254,11.254,0,0,1,2.575-3.775,2.681,2.681,0,0,0,1.431-2.117c0-.8-.635-1.335-1.888-1.6-3.308-.874-7.6-1.74-12.761-2.574a28.821,28.821,0,0,1-1.774,6.749,114.178,114.178,0,0,1-6.295,13.5h-8.7ZM562.526,508.865h0a92.2,92.2,0,0,0,5.868,16.623,87.349,87.349,0,0,0,8.853,14.875,92.776,92.776,0,0,0,11.836,13.123A109.5,109.5,0,0,0,603.9,564.858a7.806,7.806,0,0,0,2.69,1.43c.532,0,1.244-.943,2.117-2.8a31.693,31.693,0,0,1,6.581-9.151,100.254,100.254,0,0,1-17.526-11.983,82.532,82.532,0,0,1-13.434-14.671,88.187,88.187,0,0,1-10.63-20.449,125.708,125.708,0,0,1-6.252-25.195c0-1.855.038-3.26.114-4.176,0-4.1.327-6.714.973-7.779a6.1,6.1,0,0,0,1.144-2.917c0-1.025-.751-1.641-2.231-1.831-5.041-.72-9.893-1.2-14.421-1.429.38,3.544.65,8.663.8,15.215A97.924,97.924,0,0,1,551.5,501.54a82.953,82.953,0,0,1-7.339,20.019,74.922,74.922,0,0,1-14.923,19.89,78.13,78.13,0,0,1-20.959,14.028,33.625,33.625,0,0,1,6.81,7.893c.988,1.86,1.777,2.8,2.347,2.8a9.265,9.265,0,0,0,2.69-1.2,94.406,94.406,0,0,0,15.032-10.542,83.9,83.9,0,0,0,12.079-12.866,84.83,84.83,0,0,0,9.124-15.189,97.546,97.546,0,0,0,6.169-17.509Zm617.331-43.771a36.251,36.251,0,0,1-6.3,8.808c-3.459,3.761-8.157,8.726-13.963,14.756-7.489,7.864-12.822,13.484-15.852,16.7a38.446,38.446,0,0,0-4.005,4.862,9.862,9.862,0,0,0-1.717,5.434,9.4,9.4,0,0,0,1.559,5.048,19.179,19.179,0,0,0,4.678,4.848c7.633,5.826,15.089,12.109,22.161,18.675s13.962,13.6,20.473,20.905c.608.683,1.089,1.03,1.431,1.03a3.2,3.2,0,0,0,1.6-.916c2.281-2.014,5.015-4.747,8.127-8.122a2.2,2.2,0,0,0,.8-1.372,3.1,3.1,0,0,0-.8-1.545,253.913,253.913,0,0,0-19.257-17.945c-7.233-6.12-15.426-12.494-24.35-18.947-1.025-.8-1.545-1.509-1.545-2.116a5.925,5.925,0,0,1,1.545-2.574c8.437-8.736,19.2-18.974,31.99-30.429a25.683,25.683,0,0,1,5.608-4.118,2.33,2.33,0,0,0,1.66-2.231,2.283,2.283,0,0,0-.916-1.83A91.181,91.181,0,0,0,1179.857,465.094ZM650.293,562.741h69.931l14.879.229a1.87,1.87,0,0,0,1.116-.2,1.728,1.728,0,0,0,.2-1.058v-9.895a1.979,1.979,0,0,0-.171-1.03c-.114-.152-.5-.229-1.144-.229l-14.879.229H692.469V529.51h14.65l16.2.229a.956.956,0,0,0,1.259-1.259v-9.552c0-.759-.424-1.144-1.259-1.144l-16.2.229h-14.65V497.994h20.144l16.081.229a2.273,2.273,0,0,0,1.144-.172c.152-.114.229-.48.229-1.086V487.3a1.976,1.976,0,0,0-.172-1.03c-.115-.152-.519-.23-1.2-.23l-16.081.23H692.469v-6.464c0-7.21.289-11.579.858-12.984a6.332,6.332,0,0,0,.573-2.345c0-.721-.635-1.145-1.888-1.258-3.352-.418-7.8-.707-13.22-.858a137.775,137.775,0,0,1,.916,17.789v6.12H660.365l2.8-7.722a13.17,13.17,0,0,1,2.232-4.461,3.939,3.939,0,0,0,1.2-2.116c0-.8-.712-1.394-2.117-1.774-4.791-1.368-8.622-2.31-11.388-2.8a34.361,34.361,0,0,1-1.66,7.722,113.72,113.72,0,0,1-8.083,18.661,92.006,92.006,0,0,1-10.744,15.6,25.416,25.416,0,0,1,7.382,5.2c1.367,1.252,2.234,1.887,2.575,1.887.418,0,1.169-.712,2.232-2.116a91.733,91.733,0,0,0,10.3-16.359h24.608v20.019H666.832l-16.2-.229c-.835,0-1.259.385-1.259,1.144v9.552a1.971,1.971,0,0,0,.172,1.03c.115.152.48.229,1.087.229l16.2-.229h12.876v21.278H650.293l-14.879-.229a1.8,1.8,0,0,0-1.03.171c-.19.113-.286.479-.286,1.087v9.895a1.971,1.971,0,0,0,.172,1.03,1.817,1.817,0,0,0,1.144.229Zm1196.7-53.707v26.7a39.727,39.727,0,0,0,1.177,10.079,23.587,23.587,0,0,0,3.529,7.749,17.113,17.113,0,0,0,6.543,5.543,20.7,20.7,0,0,0,8.963,1.848,16.164,16.164,0,0,0,10.756-3.673,16.837,16.837,0,0,0,4.112-5.3,25.6,25.6,0,0,0,2.3-7.379h.628a17.819,17.819,0,0,0,4.706,9.81,14.133,14.133,0,0,0,4.829,3.258,15.962,15.962,0,0,0,5.971,1.086,20.147,20.147,0,0,0,7.182-1.187,13.335,13.335,0,0,0,5.232-3.561,18.9,18.9,0,0,0,3.967-7.827,45.757,45.757,0,0,0,1.322-11.747v-25.4ZM36.883,499.888a53.9,53.9,0,0,0-14.6,1.837,34.1,34.1,0,0,0-11.349,5.509A26.4,26.4,0,0,0,2.8,517.111,33.589,33.589,0,0,0,2.2,542.038a26.432,26.432,0,0,0,6.319,9.272A32.093,32.093,0,0,0,20.66,558.5a51.959,51.959,0,0,0,16.448,2.4,53.683,53.683,0,0,0,14.565-1.837,34.143,34.143,0,0,0,11.339-5.51,26.425,26.425,0,0,0,8.167-9.876A30.856,30.856,0,0,0,73.9,530.436a31.219,31.219,0,0,0-2.118-11.724,26.364,26.364,0,0,0-6.353-9.284,31.925,31.925,0,0,0-12.111-7.156A52.062,52.062,0,0,0,36.883,499.888ZM1882.4,434.9a53.662,53.662,0,0,0-14.565,1.836,34.171,34.171,0,0,0-11.339,5.511,26.458,26.458,0,0,0-8.168,9.877,30.842,30.842,0,0,0-2.722,13.235,31.233,31.233,0,0,0,2.118,11.724,26.4,26.4,0,0,0,6.353,9.284,31.882,31.882,0,0,0,12.111,7.155,52.023,52.023,0,0,0,16.436,2.386,53.89,53.89,0,0,0,14.6-1.837,34.13,34.13,0,0,0,11.349-5.51,26.407,26.407,0,0,0,8.134-9.878,33.584,33.584,0,0,0,.6-24.926,26.428,26.428,0,0,0-6.319-9.272,32.078,32.078,0,0,0-12.144-7.189A51.957,51.957,0,0,0,1882.4,434.9ZM19,437.044a20.134,20.134,0,0,0-7.182,1.187,13.326,13.326,0,0,0-5.232,3.561,18.9,18.9,0,0,0-3.967,7.827A45.689,45.689,0,0,0,1.3,461.366v25.4H72.512v-26.7a39.69,39.69,0,0,0-1.176-10.078,23.586,23.586,0,0,0-3.53-7.749,17.108,17.108,0,0,0-6.542-5.543,20.715,20.715,0,0,0-8.963-1.848,16.16,16.16,0,0,0-10.756,3.673,16.806,16.806,0,0,0-4.112,5.3,25.623,25.623,0,0,0-2.3,7.38h-.627a17.819,17.819,0,0,0-4.707-9.81,14.08,14.08,0,0,0-4.828-3.259A15.91,15.91,0,0,0,19,437.044Zm1836.682-43.889-9.59.448c-.267,3.426-.4,5.7-.4,6.764a31.6,31.6,0,0,0,1,8.264,18.96,18.96,0,0,0,2.991,6.339,15.632,15.632,0,0,0,6.544,5.072,24.478,24.478,0,0,0,9.5,1.691H1918.2V409.37h-51.314c-3.6,0-6.448-.8-8.471-2.374a8.8,8.8,0,0,1-3.271-7.346A50.124,50.124,0,0,1,1855.685,393.155ZM1254.8,357.275h12.087v1.391a1.927,1.927,0,0,0,.167,1,1.771,1.771,0,0,0,1.114.222h6.015a77.68,77.68,0,0,1-10.138,6.848,17.4,17.4,0,0,1,4.234,5.233c.961,1.958,1.842,2.951,2.618,2.951a5.694,5.694,0,0,0,2.506-1.28,85.586,85.586,0,0,0,16.1-13.751,28.931,28.931,0,0,0,5.7,9.478,9.532,9.532,0,0,0,6.837,3.16,7.084,7.084,0,0,0,3.805-1.068,9.882,9.882,0,0,0,3.06-3.2c1.784-2.836,3.09-7.15,3.885-12.82a15.466,15.466,0,0,0,.279-2.338,2.493,2.493,0,0,0-1.671-2.171,20.5,20.5,0,0,1-6.071-4.565c-.592,4.841-1.118,8.25-1.561,10.132-.517,2.179-1.172,3.284-1.948,3.284-.943,0-1.843-.763-2.673-2.269a28.539,28.539,0,0,1-2.34-6.8,95.865,95.865,0,0,0,9.358-16.98,17.25,17.25,0,0,1,2.339-4.62,3.341,3.341,0,0,0,1.281-2.171c0-.554-.468-1.229-1.392-2a39.17,39.17,0,0,0-8.411-5.01,51.8,51.8,0,0,1-2.284,8.628c-1.143,2.841-2.4,5.614-3.731,8.24-.813-5.9-1.394-13.036-1.727-21.21h1.448l15.652.222a1.751,1.751,0,0,0,1-.167c.185-.147.278-.559.278-1.224V307a1.605,1.605,0,0,0-.167-.947,2.058,2.058,0,0,0-1.114-.168l-15.652.112h-1.67c-.149-7.925-.223-14.518-.223-19.6,0-6.315.225-10.08.669-11.19a7.216,7.216,0,0,0,.668-2.394c0-.7-.656-1.133-1.95-1.281-3.926-.443-7.412-.705-10.361-.78a129.136,129.136,0,0,1,.891,15.979c.221,12.1.352,18.581.39,19.262h-10.082a61.529,61.529,0,0,0,2.284-6.847,3.524,3.524,0,0,1,1.17-1.838,1.831,1.831,0,0,0,.557-1.335,1.261,1.261,0,0,0-1.115-1.281c-5.618-1.05-8.816-1.647-9.246-1.725-.113,1.49-.319,3.157-.612,4.955a57.5,57.5,0,0,1-2.117,8.072h-4.121a81.8,81.8,0,0,0-3.453-11.857c-.3-.7-.652-1.059-1.059-1.059a4.633,4.633,0,0,0-1,.167l-5.458,1.336c-.924.222-1.393.579-1.393,1.058a2.554,2.554,0,0,0,.279,1,96.241,96.241,0,0,1,3.063,9.353l-7.52-.112a2.286,2.286,0,0,0-.946.112c-.148.112-.224.449-.224,1v7.4a2.655,2.655,0,0,0,.168,1.169c.11.147.447.222,1,.222l13.48-.222h26.68a197.9,197.9,0,0,0,2.841,28.949c.3,1.812.559,3.161.78,4.009a77.942,77.942,0,0,1-9.692,9.743c-.149-1.53-.223-6.887-.223-15.922V332l.223-10.857c0-.812-.375-1.224-1.114-1.224l-9.581.222h-9.47l-9.58-.222a2.07,2.07,0,0,0-1.058.166c-.148.113-.224.469-.224,1.058l.224,13.585v10.02l-.224,18.928a1.926,1.926,0,0,0,.168,1c.111.147.485.222,1.114.222h6.962a.931.931,0,0,0,1.225-1.225v-6.4Zm-25.568-2.338h0v6.569l-.223,11.969a2.1,2.1,0,0,0,.167,1.059c.11.147.466.222,1.058.222h7.631a2.657,2.657,0,0,0,1.17-.167c.148-.112.223-.486.223-1.113l-.223-11.969V285.348c.991.074,1.871.112,2.619.112.776,0,1.17-.412,1.17-1.225v-8.017c0-.812-.393-1.224-1.17-1.224l-11.2.222h-12.31l-11.141-.222a2.084,2.084,0,0,0-1.058.166c-.148.112-.223.467-.223,1.058v8.017a1.93,1.93,0,0,0,.167,1c.112.148.486.223,1.114.223l3.4-.112v63.521c-3.484.444-5.432.669-5.793.669a110.772,110.772,0,0,0,2.173,10.966c.258,1,.708,1.5,1.337,1.5a4.051,4.051,0,0,0,1.838-.78,13.5,13.5,0,0,1,3.732-1.392C1219.031,358.244,1224.26,356.6,1229.236,354.937Zm-128.09,1.559h6.071c-.072,4.814-.128,9.759-.167,14.7-.038,1.429-.056,2.207-.056,2.282a2.094,2.094,0,0,0,.167,1.059c.111.147.467.222,1.059.222h8.69a1.932,1.932,0,0,0,1-.167,1.771,1.771,0,0,0,.222-1.113l-.222-16.979h3.787l13.87.222a1.823,1.823,0,0,0,1.086-.195,1.688,1.688,0,0,0,.195-1.03V348.2a2.1,2.1,0,0,0-.167-1.058c-.113-.148-.488-.223-1.114-.223l-13.87.223h-3.787v-7.516h2.952l12.31.222c.85,0,1.281-.375,1.281-1.113l-.223-10.744V310.344l.223-10.634a1.923,1.923,0,0,0-.167-1c-.113-.148-.488-.223-1.114-.223l-12.31.223h-2.84v-7.293h4.79l13.592.222a1.932,1.932,0,0,0,1-.167c.148-.11.222-.484.222-1.113v-7.4c0-.739-.412-1.113-1.225-1.113l-13.592.222h-4.79v-.334c0-3.769.281-6.279.836-7.46a5.9,5.9,0,0,0,.556-2c0-.554-.618-.948-1.838-1.169a102.8,102.8,0,0,0-11.085-.78,73.866,73.866,0,0,1,.836,11.746h-5.737l-13.536-.222c-.776,0-1.17.375-1.17,1.113v7.4c0,.85.394,1.281,1.17,1.281l13.536-.222h5.737v7.293h-2.618l-12.421-.223a2.1,2.1,0,0,0-1.059.167c-.148.112-.223.467-.223,1.058l.223,10.634v17.648l-.223,10.744c0,.739.431,1.113,1.282,1.113l12.421-.222h2.506v7.516h-6.071l-13.926-.223a1.931,1.931,0,0,0-1,.167c-.148.111-.222.485-.222,1.113v7.293a1.892,1.892,0,0,0,.167,1c.111.148.467.222,1.058.222Zm76.476,7.4h0c.821,2.5,1.589,5.028,2.283,7.516.184.7.466,1.057.836,1.057a5.411,5.411,0,0,0,1.392-.334l7.576-2.505c.924-.369,1.392-.762,1.392-1.169a2.639,2.639,0,0,0-.167-.779c-4.584-14.149-9.531-26.043-14.7-35.351-.3-.517-.576-.779-.836-.779a7.811,7.811,0,0,0-1.337.334l-6.74,2.394c-.849.37-1.28.745-1.28,1.113a2.538,2.538,0,0,0,.278.946,192.016,192.016,0,0,1,7.854,17.76c-6.354,1.077-13.381,2.107-20.888,3.062,3.733-10.9,7.275-23.129,10.527-36.354h10.917l13.814.223c.592,0,.958-.075,1.086-.223a1.964,1.964,0,0,0,.2-1.113v-8.462a1.936,1.936,0,0,0-.167-1,1.773,1.773,0,0,0-1.114-.222l-13.814.222h-21.667l-13.814-.222a2.268,2.268,0,0,0-1.114.167c-.148.111-.223.466-.223,1.058V319.7a2.084,2.084,0,0,0,.167,1.058c.148.185.541.279,1.17.279l12.477-.223a379.808,379.808,0,0,1-10.527,37.635c-2.027.185-4.032.278-5.959.278-.833,0-1.658-.019-2.451-.056a86.7,86.7,0,0,0,2.729,10.912c.332,1,.913,1.5,1.726,1.5a4.142,4.142,0,0,0,1.783-.668,14.476,14.476,0,0,1,4.233-1.058C1153.855,368.022,1165.417,366.187,1177.622,363.9Zm686.443-55.762a26.734,26.734,0,0,0-7.6,3.325,22.1,22.1,0,0,0-5.669,5.32,24.809,24.809,0,0,0-3.9,8.051,37.264,37.264,0,0,0-1.3,10.179,38.8,38.8,0,0,0,1.288,10.414,23.328,23.328,0,0,0,3.866,7.951,17.928,17.928,0,0,0,6.789,5.51,21.807,21.807,0,0,0,9.165,1.837,23.379,23.379,0,0,0,6.834-.93,15.132,15.132,0,0,0,5.266-2.788,21.368,21.368,0,0,0,4.986-6.585,53.511,53.511,0,0,0,3.932-10.525l1.12-3.763c1.309-4.757,2.757-8.118,4.3-9.988,1.725-2.051,4.288-3.091,7.619-3.091a8.3,8.3,0,0,1,6.453,2.688c1.873,2.109,2.823,5.2,2.823,9.182a11.573,11.573,0,0,1-2.913,8.119c-1.932,2.1-4.872,3.636-8.739,4.557l3.271,12a29.748,29.748,0,0,0,7.765-3.681,21.869,21.869,0,0,0,5.546-5.4,22.8,22.8,0,0,0,3.327-7.119,35.788,35.788,0,0,0-.145-18.233,22.268,22.268,0,0,0-3.765-7.4,17.885,17.885,0,0,0-6.319-5.241,18.44,18.44,0,0,0-8.111-1.747,24.631,24.631,0,0,0-7.025.929,15.556,15.556,0,0,0-5.388,2.788,21.224,21.224,0,0,0-4.986,6.294,51.08,51.08,0,0,0-4.022,10.011l-1.076,3.673c-1.487,5.29-3.07,8.952-4.705,10.885-1.665,1.991-4.229,3-7.619,3s-5.942-1.145-7.629-3.4-2.544-5.7-2.544-10.213a14.213,14.213,0,0,1,2.913-9c2.232-2.855,5.58-4.8,9.949-5.779ZM1.3,317.447V329.72H72.512V317.447H40.379V287.795H72.512V275.521H1.3v12.273h29v29.652Zm1881.1-78.334a53.672,53.672,0,0,0-14.565,1.836,34.182,34.182,0,0,0-11.339,5.51,26.448,26.448,0,0,0-8.168,9.877,30.856,30.856,0,0,0-2.722,13.236,31.233,31.233,0,0,0,2.118,11.724,26.379,26.379,0,0,0,6.353,9.284,31.9,31.9,0,0,0,12.111,7.156,52.041,52.041,0,0,0,16.436,2.385,53.89,53.89,0,0,0,14.6-1.837,34.1,34.1,0,0,0,11.349-5.509,26.4,26.4,0,0,0,8.134-9.877,33.585,33.585,0,0,0,.6-24.926,26.4,26.4,0,0,0-6.319-9.272,32.059,32.059,0,0,0-12.144-7.19A51.953,51.953,0,0,0,1882.4,239.113Zm-580.469,38.608a2.009,2.009,0,0,0-1,.334l-4.957,2.5c-.887.48-1.337.892-1.337,1.225a2.24,2.24,0,0,0,.334.947,78.135,78.135,0,0,1,6.406,14.585c.3.813.633,1.225,1,1.225a3.412,3.412,0,0,0,1.281-.39l5.57-3.006c.628-.332.946-.726.946-1.169a2.755,2.755,0,0,0-.167-.835,54.665,54.665,0,0,0-6.852-14.252C1302.746,278.114,1302.333,277.721,1301.926,277.721Zm-46.9,13.806h11.642l10.638.223a1.935,1.935,0,0,0,1-.167c.147-.111.222-.467.222-1.058v-7.07a2.094,2.094,0,0,0-.167-1.058c-.113-.148-.469-.223-1.059-.223l-10.638.223H1266V278.89a17.678,17.678,0,0,1,.446-5.178,5.9,5.9,0,0,0,.668-1.67c0-.813-.619-1.281-1.838-1.391-3-.259-6.485-.446-10.36-.557a45.464,45.464,0,0,1,.668,8.685V282.4h-.557L1245,282.174a1.743,1.743,0,0,0-1,.167c-.185.11-.279.484-.279,1.113v7.07a1.929,1.929,0,0,0,.167,1,1.767,1.767,0,0,0,1.114.223Zm-99.35-.779h16.655l12.477.223a2.262,2.262,0,0,0,1.114-.167c.148-.111.222-.485.222-1.113v-8.573a2.093,2.093,0,0,0-.167-1.057c-.148-.185-.541-.279-1.17-.279l-12.477.223h-16.655l-12.421-.223a2.263,2.263,0,0,0-1.114.167,1.9,1.9,0,0,0-.222,1.169v8.573a2.088,2.088,0,0,0,.167,1.058c.112.148.505.223,1.17.223ZM72.512,206.138,1.3,228.086v14.961l71.212,21.814V253.125l-20.929-6.136V225.13l20.929-6.047V206.138Zm1774.478-19.432v45.868h9.994V199.2H1918.2v-12.5ZM57.273,151.4h0v1.255a235.906,235.906,0,0,0-24.423,9.451L1.3,176.888v18.634H72.512V184.144H38c-9.231,0-17.885.211-25.724.627v-1.255c7.758-3.133,15.674-6.568,23.527-10.212l36.705-17.246v-15.14H1.3V152.3H31.192C38.858,152.3,47.633,152,57.273,151.4Zm1831.934-10.428h19.181v34.4h9.814v-46.9h-71.213v12.5h32.4V167h9.815V140.973ZM20.929,69.834a31.315,31.315,0,0,0-8.1,3.146,25.052,25.052,0,0,0-6.284,5.05A24.34,24.34,0,0,0,1.7,86.361,32.366,32.366,0,0,0,.09,96.844a31.683,31.683,0,0,0,2.117,11.78,27.385,27.385,0,0,0,6.353,9.452A32.185,32.185,0,0,0,20.716,125.4a50.772,50.772,0,0,0,16.392,2.442,54.781,54.781,0,0,0,14.6-1.8,34.4,34.4,0,0,0,11.349-5.408,26,26,0,0,0,8.134-9.642A29.494,29.494,0,0,0,73.9,98.1a22.484,22.484,0,0,0-2.511-10.705,19.788,19.788,0,0,0-8.784-8.375l10.354-1.389V69.385H35.45V97.56H45V80.941a38.2,38.2,0,0,1,8.47,1.7,19.189,19.189,0,0,1,6.05,3.218,12.74,12.74,0,0,1,3.631,4.734,15.449,15.449,0,0,1,1.209,6.251,15.747,15.747,0,0,1-1.5,6.943,15.4,15.4,0,0,1-4.5,5.42,24.625,24.625,0,0,1-8.918,4.132,50.173,50.173,0,0,1-12.415,1.378,51.835,51.835,0,0,1-11.124-1.086,27.842,27.842,0,0,1-8.46-3.259,16.509,16.509,0,0,1-5.849-5.823,15.722,15.722,0,0,1-1.949-7.883,13.519,13.519,0,0,1,3.541-9.721c2.349-2.452,5.922-4.155,10.622-5.061Zm1826.062-.8v47.7h9.815V81.4h22.946v26.16h9.814V81.4h18.823v34.625h9.814V69.035Zm0-64.143V16.985h31.82V27.065l.089,3.225-31.909,14.424v13.3l33.747-16.439a20.658,20.658,0,0,0,6.184,9.989,16.451,16.451,0,0,0,5.378,3.09,20,20,0,0,0,6.544,1.03,21.2,21.2,0,0,0,8.47-1.577,15.148,15.148,0,0,0,6.05-4.728,21.684,21.684,0,0,0,3.63-7.881,44.951,44.951,0,0,0,1.21-11.032V4.892ZM1.3,6.81V53.8H72.512V6.093H62.7V41.435H39.752V15.275H29.937v26.16H11.113V6.81Zm30.206,972H10.577V965.866c0-4.443.863-7.823,2.565-10.045s4.29-3.348,7.7-3.348c3.539,0,6.231,1.172,8,3.482s2.667,5.83,2.667,10.448v12.407Zm1845.6-210.34h0V751.049l14.521,3.852c4.937,1.4,10.8,2.873,17.433,4.389v.806c-9.65,2.271-15.545,3.687-17.523,4.21l-14.43,4.165ZM37.017,743.56a53.7,53.7,0,0,1-11.159-1.054,28.28,28.28,0,0,1-8.471-3.156,15.961,15.961,0,0,1-5.814-5.588A14.852,14.852,0,0,1,15.6,714.176a24.729,24.729,0,0,1,8.919-4.031,52.018,52.018,0,0,1,12.5-1.345,53.681,53.681,0,0,1,11.093,1.042,28.5,28.5,0,0,1,8.448,3.125,16.028,16.028,0,0,1,5.848,5.576,14.669,14.669,0,0,1,1.949,7.591,14.337,14.337,0,0,1-5.96,12,24.81,24.81,0,0,1-8.93,4.065A51.27,51.27,0,0,1,37.017,743.56ZM958.144,552.719H943.436V501.643h14.707Zm-25.753,0H913.907V541.566h18.484v11.153Zm-29.357,0H888.5V501.643h14.535Zm172.175-4.119h-56.54V525.665h56.54V548.6Zm792.891-.15a11.167,11.167,0,0,1-8.292-3.046,11.507,11.507,0,0,1-2.655-4.58,21.454,21.454,0,0,1-.885-6.484V521.128h23.394v11.647c0,4.577-.9,8.284-2.689,11.019a10.086,10.086,0,0,1-3.741,3.494A10.936,10.936,0,0,1,1868.1,548.451ZM37.017,547.77a53.822,53.822,0,0,1-11.159-1.051,28.349,28.349,0,0,1-8.471-3.158,15.973,15.973,0,0,1-5.814-5.589A14.851,14.851,0,0,1,15.6,518.387a24.735,24.735,0,0,1,8.919-4.032,51.972,51.972,0,0,1,12.5-1.343,53.8,53.8,0,0,1,11.093,1.04,28.5,28.5,0,0,1,8.448,3.125,16.048,16.048,0,0,1,5.848,5.577,14.67,14.67,0,0,1,1.949,7.591,14.338,14.338,0,0,1-5.96,12.005,24.842,24.842,0,0,1-8.93,4.063A51.2,51.2,0,0,1,37.017,547.77Zm1862.273-1.29a8.931,8.931,0,0,1-7.17-3.135c-2.112-2.5-3.182-6.326-3.182-11.378V521.128h19.989v11.916c0,4.516-.709,7.876-2.106,9.987a7.15,7.15,0,0,1-3.026,2.587A10.81,10.81,0,0,1,1899.291,546.48Zm-966.9-14.752H913.907V521.547h18.484v10.18Zm142.818-17.216h-56.54V492.434h56.54v22.077Zm-142.818-2.8H913.907V501.643h18.484v10.066Zm950.094-28.924a53.664,53.664,0,0,1-11.092-1.042,28.5,28.5,0,0,1-8.448-3.124,16.034,16.034,0,0,1-5.849-5.576,14.693,14.693,0,0,1-1.949-7.593,14.334,14.334,0,0,1,5.961-12,24.845,24.845,0,0,1,8.929-4.065,51.306,51.306,0,0,1,12.448-1.355,53.755,53.755,0,0,1,11.16,1.053,28.318,28.318,0,0,1,8.47,3.157,15.963,15.963,0,0,1,5.815,5.589,14.853,14.853,0,0,1-4.023,19.586,24.7,24.7,0,0,1-8.918,4.031A51.982,51.982,0,0,1,1882.485,482.785ZM63.236,474.67H39.842V463.024c0-4.579.9-8.286,2.689-11.019a10.083,10.083,0,0,1,3.741-3.5,10.943,10.943,0,0,1,5.132-1.164,11.162,11.162,0,0,1,8.291,3.047,11.445,11.445,0,0,1,2.654,4.58,21.391,21.391,0,0,1,.886,6.484v13.213Zm-32.673,0H10.577V462.755c0-4.517.709-7.878,2.106-9.988a7.144,7.144,0,0,1,3.026-2.587,10.772,10.772,0,0,1,4.5-.862,8.929,8.929,0,0,1,7.17,3.135c2.111,2.5,3.181,6.325,3.181,11.378v10.839ZM1266.891,349.092H1254.8v-6.625h12.087v6.624Zm-46.786-2.507h0V330.5h9.134v13.361C1225.645,345.006,1222.572,345.923,1220.1,346.585Zm46.786-12.08H1254.8v-6.068h12.087V334.5Zm-142.129-3.062h-7.185V322.87h7.185v8.572Zm-16.988,0h-6.963V322.87h6.963v8.572ZM1229.237,320.7H1220.1v-12.86h9.134V320.7Zm-104.474-5.567h-7.185v-8.24h7.185v8.239Zm-16.988,0h-6.963v-8.24h6.963v8.239Zm121.463-17.091H1220.1V285.236h9.134v12.8ZM1882.485,287a53.665,53.665,0,0,1-11.092-1.042,28.511,28.511,0,0,1-8.448-3.124,16.039,16.039,0,0,1-5.849-5.577,14.69,14.69,0,0,1-1.949-7.592,14.327,14.327,0,0,1,5.961-12,24.826,24.826,0,0,1,8.929-4.065,51.209,51.209,0,0,1,12.448-1.355,53.74,53.74,0,0,1,11.16,1.052,28.284,28.284,0,0,1,8.47,3.158,15.95,15.95,0,0,1,5.815,5.587,14.852,14.852,0,0,1-4.023,19.586,24.673,24.673,0,0,1-8.918,4.031A51.938,51.938,0,0,1,1882.485,287ZM42.4,244.749h0L27.875,240.9c-4.937-1.4-10.8-2.874-17.432-4.389V235.7c9.766-2.3,15.5-3.675,17.522-4.211L42.4,227.325v17.422ZM1898.663,43.324c-3.538,0-6.23-1.172-8-3.483S1888,34.015,1888,29.394V16.985h20.93V29.931c0,4.444-.863,7.824-2.565,10.045S1902.068,43.324,1898.663,43.324Z" transform="translate(0 0)" fill="#fff"/>
      <g id="グループ_3316" data-name="グループ 3316" transform="translate(524.322 262.153)">
        <g id="グループ_3219" data-name="グループ 3219" transform="translate(0)">
          <path id="パス_3589" data-name="パス 3589" d="M23.052-89.157a71.344,71.344,0,0,1,.452,10.17v31.075a81.491,81.491,0,0,1-.565,10.17H38.42c-.452-2.825-.452-4.294-.452-9.944V-78.874c0-5.989,0-7.006.452-10.17Zm50.963.226c.452,2.6.565,4.972.565,10.735v14.125c0,9.04-.113,14.012-.565,18.871-1.243,14.916-4.972,21.809-15.594,28.815-6.78,4.52-13.334,6.893-24.408,9.04C38.759-1.356,39.889.565,41.923,6.1,52.319,3.051,57.969.791,63.958-2.6,75.71-9.153,82.942-17.628,86.219-28.928c2.034-7.119,2.825-16.611,2.938-34.239V-78.422c0-6.441.113-7.684.565-10.509ZM211.762-74.58l4.859-1.808a71.81,71.81,0,0,0-10.057-17.854L198.2-91.417a70.07,70.07,0,0,1,8.249,14.125,54.622,54.622,0,0,1-5.876.226l-24.747.339c-2.26,0-4.068.113-5.424.226l.9-1.695c.226-.452.226-.565.791-1.582,1.13-2.26,2.147-4.52,3.051-6.554a13.49,13.49,0,0,1,1.921-3.39L161.59-92.886c-.339,3.616-2.373,8.927-5.763,15.029-8.023,14.464-17.063,24.634-29.267,32.77,5.876,3.616,7.571,5.085,10.961,9.718,9.379-6.893,20.114-18.645,26.442-29.041l34.013-.452c-9.04,29.38-28.137,49.607-57.743,60.907a37.391,37.391,0,0,1,9.6,11.865C166.11.791,180.009-9.153,190.066-20.679c10.622-12.543,16.046-22.6,22.713-42.714,1.243-3.955,1.808-5.311,2.825-6.78Zm19.549-6.893a65.941,65.941,0,0,0-9.944-17.176l-8.136,2.825a80.942,80.942,0,0,1,9.718,17.515ZM322.163-6.554v7.8H336.74a77.458,77.458,0,0,1-.452-9.831V-73.224c0-4.181.113-6.441.339-9.379-2.6.226-4.633.339-9.492.339H262.951c-4.52,0-6.893-.113-9.6-.339a75.047,75.047,0,0,1,.452,9.492V-8.362a75.513,75.513,0,0,1-.452,9.718h14.577v-7.91Zm0-12.882h-54.24V-69.5h54.24ZM463.074-8.023C449.4-21.244,449.4-21.244,446.576-23.73a175.143,175.143,0,0,0-20.9-16.385A149.654,149.654,0,0,0,443.3-71.3a21.734,21.734,0,0,1,3.616-6.1l-7.458-7.684c-2.825,1.017-3.729,1.13-10.057,1.243l-39.776.565h-2.712a49.451,49.451,0,0,1-9.944-.678L377.42-69.5a89.054,89.054,0,0,1,12.317-.9c35.595-.565,35.595-.565,37.4-.678L425.9-68.139c-7.345,17.628-20.9,34.013-37.968,45.991-8.475,5.989-13.9,9.04-22.6,12.43a45.33,45.33,0,0,1,9.153,12.543,134.286,134.286,0,0,0,43.053-32.657A217.224,217.224,0,0,1,452.226,3.729Zm69.274-53.513a20.982,20.982,0,0,1,9.7,2.88c7.68,4.608,11.808,12.1,11.808,21.312,0,10.272-4.992,19.392-13.344,24-4.512,2.592-10.272,4.128-19.1,5.28A30.625,30.625,0,0,1,527.26,3.168c6.72-1.152,10.464-2.112,15.072-4.032,14.688-5.952,23.328-19.2,23.328-35.808,0-21.6-14.976-35.616-38.016-35.616-13.632,0-24.96,4.608-33.024,13.44a41.238,41.238,0,0,0-10.56,27.936c0,15.456,7.872,26.592,18.816,26.592,7.872,0,14.016-5.664,19.488-18.048C527.164-33.216,530.524-46.464,532.348-61.536Zm-11.712.1c-1.152,10.848-4.32,23.808-7.968,32.448-3.456,8.256-6.72,12.288-9.888,12.288-4.224,0-7.584-6.24-7.584-14.112a32.141,32.141,0,0,1,13.056-25.92A24.437,24.437,0,0,1,520.636-61.44ZM885.018-52.8c5.28,7.008,11.232,21.12,13.152,31.2l10.944-5.472a89.285,89.285,0,0,0-14.4-30.528ZM856.794-73.92a22.333,22.333,0,0,1,.768-2.976l-12.48-1.248v1.728c0,3.264-.672,8.736-2.5,19.392-11.136,1.44-16.128,1.92-20.448,2.016L823.29-43.68a39.422,39.422,0,0,1,3.936-.96l8.736-1.44c3.072-.576,3.072-.576,4.512-.768-4.512,17.856-11.9,35.136-19.3,45.216l11.136,6.144c10.56-20.928,14.88-32.544,19.584-52.224,2.208-.192,3.744-.288,5.76-.288,7.392,0,9.6,2.592,9.6,11.424,0,8.16-.96,16.9-2.5,21.888-1.44,4.7-2.976,6.528-5.76,6.528-3.36,0-8.832-1.536-14.016-3.84a36.057,36.057,0,0,1,.96,8.16c0,.96-.1,2.4-.192,4.224,6.432,2.112,10.368,2.88,14.784,2.88,5.088,0,7.968-1.152,10.656-4.32,4.608-5.28,7.392-18.432,7.392-34.944,0-8.736-1.248-13.344-4.512-16.992-3.168-3.36-7.872-5.088-14.208-5.088-1.728,0-3.072.1-5.952.192.288-1.248.288-1.248.576-2.88.96-5.184,1.632-9.12,2.112-11.9Zm22.272.672a64.792,64.792,0,0,1,10.08,14.3l6.72-3.552a62.215,62.215,0,0,0-10.08-14.112Zm28.224,4.512a55.519,55.519,0,0,0-9.984-13.536l-6.432,3.36a70.731,70.731,0,0,1,9.792,13.92Z" transform="translate(-22.939 98.649)" fill="#171c5f"/>
          <g id="グループ_3211" data-name="グループ 3211" transform="translate(229.676 212.473)">
            <path id="パス_3590" data-name="パス 3590" d="M253.32-58.685a10.716,10.716,0,0,1,1.552-.1c.873,0,.873,0,2.716.1,2.134,0,10.67.194,12.222.194,0,0,1.261-.1,1.649-.1a4.746,4.746,0,0,0-.776,1.261,128.475,128.475,0,0,1-11.64,16.587,59.423,59.423,0,0,1-8.73,8.633l8.827,8.73a43.615,43.615,0,0,1,8.439-8.827c7.469-6.6,14.259-9.991,19.885-9.991,3.492,0,5.432,1.649,5.917,5.238-10.961,4.559-16.49,8.245-20.855,13.677-3.1,3.686-4.268,6.79-4.268,10.767A14.064,14.064,0,0,0,275.339,0c4.947,2.91,11.349,4.074,21.631,4.074A175.935,175.935,0,0,0,321.8,2.328a28.581,28.581,0,0,1,4.462-.388l-.97-12.513C318.407-7.954,308.416-6.5,296.776-6.5c-11.737,0-16.393-2.037-16.393-7.081,0-2.813,1.649-5.432,5.044-7.954a58.952,58.952,0,0,1,9.312-5.044v2.328A76.792,76.792,0,0,1,294.157-13l11.252-.291a39.826,39.826,0,0,1-.291-5.141c0-.679,0-1.552.1-3.2v-3.88c0-1.358,0-1.358-.1-3.88v-1.067q12.513-4.365,14.55-4.947a85.622,85.622,0,0,1,10.767-2.619l-4.559-11.155c-1.552.97-1.94,1.067-7.178,2.91q-3.637,1.164-14.841,5.238c-1.552-6.693-6.3-10.282-13.871-10.282a23.449,23.449,0,0,0-13.677,4.365c-1.261.97-1.261.97-1.94,1.455l-.1-.194a50.2,50.2,0,0,0,8.924-12.9c9.8-.291,22.116-1.067,29.2-1.94,4.947-.582,4.947-.582,7.663-.776l-.679-11.058c-5.335,1.552-14.162,2.619-25.414,3.3-5.335.291-5.335.291-6.111.388.194-.388.388-.679.873-1.746,3.3-7.76,3.3-7.76,3.88-8.73L279.9-80.51c-.388,3.3-1.261,6.208-3.88,12.028-12.319,0-18.527-.388-22.5-1.261ZM771.525-51.6v-6.305c7.663-.194,9.409-.194,11.737-.194,8.051,0,12.707.194,16.3.485l-.1-11.155c-3.589.388-11.155.582-28.033.679.1-8.342.1-8.536.485-11.543l-12.222.1c.485,2.522.485,2.522.582,11.737-5.044.194-5.044.194-8.245.291-7.954.194-8.924.194-15.229.388-12.513.485-14.065.485-16.49.485a42.241,42.241,0,0,1-4.753-.194l.388,11.543c2.619-.388,2.619-.388,17.266-1.455,4.268-.291,13.386-.582,27.257-.97,0,2.619,0,8.051.1,8.245a4,4,0,0,0,.1,1.164c-2.231-1.843-5.917-2.91-10.088-2.91-11.252,0-19.3,7.372-19.3,17.654a15.157,15.157,0,0,0,6.693,13.1,17.876,17.876,0,0,0,11.252,3.492c6.4,0,11.446-2.425,14.259-6.887C762.7-18.43,758.818-13.483,752.222-9.7c-4.559,2.716-8.536,4.074-16.49,5.626,3.2,3.492,4.171,4.947,6.887,10.961,9.021-3.1,13.483-5.141,17.557-7.954,9.409-6.5,14.453-15.617,14.453-26.19a29.52,29.52,0,0,0-3.1-13.677c0-1.164-.1-1.94-.1-2.328Zm-11.155,16c0,5.044-3.977,8.73-9.506,8.73-4.85,0-8.245-3.2-8.245-7.663,0-4.268,4.074-7.76,9.021-7.76C756.975-42.292,760.37-39.673,760.37-35.6Zm89.143-4.656a38.069,38.069,0,0,0,3.977-2.522c1.94-1.261,8.924-6.5,10.67-7.954,3.3-2.813,10.379-9.118,15.229-13.58,2.716-2.522,3.4-3.1,5.044-3.977l-6.014-8.536c-1.552.776-2.619.97-6.014,1.261C863-74.884,851.162-74.4,842.917-74.4a87.726,87.726,0,0,1-11.446-.582l.485,11.64a32.721,32.721,0,0,1,4.656-.485c17.557-.776,23.765-1.164,27.451-1.649l.1.1-1.746,1.746a323.888,323.888,0,0,1-29,25.22c-6.4,4.85-10.282,7.469-13.677,9.118l6.6,10.476c11.64-10.573,25.8-16.3,39.964-16.3,11.737,0,19.206,4.947,19.206,12.513,0,6.887-3.492,11.058-11.543,14.065-1.455-4.171-2.522-6.3-4.462-8.73a20.877,20.877,0,0,0-16.781-7.954c-9.7,0-16.684,5.82-16.684,13.871A13.845,13.845,0,0,0,841.85-.194c3.88,2.91,10.67,4.462,18.818,4.462,8.924,0,17.169-1.94,23.474-5.529,8.633-4.85,13.192-12.222,13.192-21.437,0-13.289-10.67-21.825-27.257-21.825-7.275,0-11.543.97-20.37,4.462ZM863.481-5.723a26.254,26.254,0,0,1-5.044.388c-7.178,0-11.543-2.231-11.543-6.111,0-2.716,2.231-4.462,5.723-4.462C858.049-15.908,861.735-12.416,863.481-5.723Z" transform="translate(-250.313 80.51)" fill="#171c5f"/>
          </g>
        </g>
      </g>
    </g>
    <g id="グループ_3320" data-name="グループ 3320" transform="translate(-7266.752 13223.815)">
      <g id="グループ_3319" data-name="グループ 3319">
        <g id="グループ_2154" data-name="グループ 2154" transform="translate(1.992)">
          <path id="パス_3599" data-name="パス 3599" d="M-110.493-27.35h5.678V0h-5.678ZM-77.373,0h-5.715l-11.17-19.427V0h-5.325V-27.35h5.993L-82.7-8.257V-27.35h5.325Zm25.2-27.35v4.843h-8.183V0H-66.11V-22.507h-8.22V-27.35Zm14.955,16.625h-5.9V0h-5.585V-27.35h13.415a12.5,12.5,0,0,1,4.425.705,6.913,6.913,0,0,1,2.625,1.911,8.468,8.468,0,0,1,1.41,2.3,7.5,7.5,0,0,1,.52,2.876,8.194,8.194,0,0,1-.983,3.832,5.5,5.5,0,0,1-3.247,2.663A5.107,5.107,0,0,1-27.86-10.9a9,9,0,0,1,.789,4.277v1.837a14.05,14.05,0,0,0,.148,2.542A2.283,2.283,0,0,0-25.884-.687V0h-6.29q-.26-.909-.371-1.466a13.468,13.468,0,0,1-.241-2.356l-.037-2.542q-.037-2.616-.956-3.488T-37.221-10.725Zm3.47-4.973a3.047,3.047,0,0,0,1.707-3.08q0-2.486-1.651-3.34a6.241,6.241,0,0,0-2.783-.482h-6.643v7.348h6.476A7.217,7.217,0,0,0-33.751-15.7ZM-9.3.761q-5.863,0-8.962-3.191-4.156-3.915-4.156-11.281,0-7.515,4.156-11.281,3.1-3.191,8.962-3.191t8.962,3.191Q3.8-21.227,3.8-13.712,3.8-6.346-.334-2.431-3.433.761-9.3.761Zm5.4-7.348q1.985-2.5,1.985-7.125,0-4.6-1.995-7.116A6.519,6.519,0,0,0-9.3-23.342a6.606,6.606,0,0,0-5.418,2.5q-2.022,2.5-2.022,7.125t2.022,7.125A6.606,6.606,0,0,0-9.3-4.082,6.554,6.554,0,0,0-3.9-6.587ZM19.946,0H8.164V-27.35H19.946a14.375,14.375,0,0,1,4.23.594,9.029,9.029,0,0,1,4.657,3.47,12.171,12.171,0,0,1,1.948,4.416,21.2,21.2,0,0,1,.52,4.527A18.178,18.178,0,0,1,29.112-5.1,9.879,9.879,0,0,1,19.946,0ZM24.2-20.373Q22.878-22.6,18.981-22.6h-5.27V-4.75h5.27a5.691,5.691,0,0,0,5.641-3.989,14.07,14.07,0,0,0,.872-5.214A12.968,12.968,0,0,0,24.2-20.373Zm27.591,9.834V-27.35h5.808v16.811a14.081,14.081,0,0,1-1.354,6.791Q53.716.705,46.609.705T36.961-3.748a14.081,14.081,0,0,1-1.354-6.791V-27.35h5.808v16.811a9.493,9.493,0,0,0,.668,4.119q1.039,2.3,4.527,2.3,3.47,0,4.509-2.3A9.493,9.493,0,0,0,51.786-10.539Zm30.56,8.5a11.148,11.148,0,0,1-7.83,2.8,11.8,11.8,0,0,1-9.277-3.785q-3.377-3.8-3.377-10.428,0-7.162,3.841-11.04a11.445,11.445,0,0,1,8.5-3.377q6.9,0,10.094,4.527a9.8,9.8,0,0,1,1.893,5.1H80.472a7.719,7.719,0,0,0-1.429-2.969,5.811,5.811,0,0,0-4.62-1.781,5.727,5.727,0,0,0-4.917,2.514q-1.8,2.514-1.8,7.116t1.9,6.893a6.01,6.01,0,0,0,4.833,2.292,5.528,5.528,0,0,0,4.583-1.967,8.543,8.543,0,0,0,1.447-3.173h5.659A12.3,12.3,0,0,1,82.346-2.041Zm27.183-9.908H96.243v7.032h15.141V0H90.658V-27.35h20.058v4.843H96.243V-16.7h13.285Z" transform="translate(110.493 28.185)" fill="#f1f1f1"/>
          <path id="パス_3600" data-name="パス 3600" d="M-51.508,0V-12.209H-62.2V0h-5.659V-27.35H-62.2v10.428h10.688V-27.35h5.678V0ZM-24.2-10.539V-27.35h5.808v16.811a14.081,14.081,0,0,1-1.354,6.791Q-22.266.705-29.372.705t-9.648-4.453a14.081,14.081,0,0,1-1.354-6.791V-27.35h5.808v16.811A9.493,9.493,0,0,0-33.9-6.42q1.039,2.3,4.527,2.3,3.47,0,4.509-2.3A9.493,9.493,0,0,0-24.2-10.539ZM-7.7,0h-5.325V-27.35h8.313L.26-5.845,5.2-27.35h8.22V0H8.09V-18.5q0-.8.019-2.236t.019-2.217L2.95,0H-2.6l-5.14-22.952q0,.779.019,2.217T-7.7-18.5ZM34.734-5.622H24.659L22.767,0H16.792l9.76-27.35h6.457L42.694,0H36.5Zm-1.6-4.713L29.725-21.1,26.2-10.335ZM68.281,0H62.566L51.4-19.427V0H46.071V-27.35h5.993L62.956-8.257V-27.35h5.325Z" transform="translate(321.493 28.185)" fill="#f1f1f1"/>
          <path id="パス_3601" data-name="パス 3601" d="M-105.845-10.725h-5.9V0h-5.585V-27.35h13.415a12.5,12.5,0,0,1,4.425.705,6.913,6.913,0,0,1,2.625,1.911,8.468,8.468,0,0,1,1.41,2.3,7.5,7.5,0,0,1,.52,2.876,8.194,8.194,0,0,1-.983,3.832,5.5,5.5,0,0,1-3.247,2.663A5.107,5.107,0,0,1-96.484-10.9,9,9,0,0,1-95.7-6.624v1.837a14.05,14.05,0,0,0,.148,2.542A2.283,2.283,0,0,0-94.508-.687V0h-6.29q-.26-.909-.371-1.466a13.467,13.467,0,0,1-.241-2.356l-.037-2.542q-.037-2.616-.956-3.488T-105.845-10.725Zm3.47-4.973a3.047,3.047,0,0,0,1.707-3.08q0-2.486-1.651-3.34A6.241,6.241,0,0,0-105.1-22.6h-6.643v7.348h6.476A7.217,7.217,0,0,0-102.375-15.7Zm31.395,3.748H-84.266v7.032h15.141V0H-89.851V-27.35h20.058v4.843H-84.266V-16.7h13.285Zm16.235,8A10.064,10.064,0,0,0-51.461-4.4,3.174,3.174,0,0,0-49.068-7.57a2.341,2.341,0,0,0-1.187-2.1,12.77,12.77,0,0,0-3.729-1.28l-2.895-.649a18.291,18.291,0,0,1-5.9-2.1,6.669,6.669,0,0,1-2.765-5.919,7.9,7.9,0,0,1,2.672-6.1q2.672-2.431,7.849-2.431a11.933,11.933,0,0,1,7.375,2.292,8.182,8.182,0,0,1,3.2,6.652H-49.94a3.923,3.923,0,0,0-2.152-3.507,7.218,7.218,0,0,0-3.321-.687,6.2,6.2,0,0,0-3.525.891,2.836,2.836,0,0,0-1.317,2.486,2.353,2.353,0,0,0,1.3,2.189A15.9,15.9,0,0,0-55.4-16.7l4.713,1.132a12.185,12.185,0,0,1,4.676,1.985A6.687,6.687,0,0,1-43.557-8a7.882,7.882,0,0,1-2.867,6.225Q-49.291.705-54.523.705q-5.344,0-8.405-2.44A8.108,8.108,0,0,1-65.99-8.442h5.455a5.616,5.616,0,0,0,1.021,2.8Q-58.123-3.952-54.746-3.952ZM-27.229.761q-5.863,0-8.962-3.191-4.156-3.915-4.156-11.281,0-7.515,4.156-11.281,3.1-3.191,8.962-3.191t8.962,3.191q4.138,3.767,4.138,11.281,0,7.366-4.138,11.281Q-21.366.761-27.229.761Zm5.4-7.348q1.985-2.5,1.985-7.125,0-4.6-1.995-7.116a6.519,6.519,0,0,0-5.39-2.514,6.606,6.606,0,0,0-5.418,2.5q-2.022,2.5-2.022,7.125t2.022,7.125a6.606,6.606,0,0,0,5.418,2.5A6.554,6.554,0,0,0-21.83-6.587Zm28.24-3.952V-27.35h5.808v16.811a14.081,14.081,0,0,1-1.354,6.791Q8.34.705,1.234.705T-8.415-3.748a14.081,14.081,0,0,1-1.354-6.791V-27.35h5.808v16.811A9.493,9.493,0,0,0-3.293-6.42q1.039,2.3,4.527,2.3,3.47,0,4.509-2.3A9.493,9.493,0,0,0,6.411-10.539Zm22.878-.186h-5.9V0H17.8V-27.35H31.218a12.5,12.5,0,0,1,4.425.705,6.913,6.913,0,0,1,2.625,1.911,8.468,8.468,0,0,1,1.41,2.3,7.5,7.5,0,0,1,.52,2.876,8.194,8.194,0,0,1-.983,3.832,5.5,5.5,0,0,1-3.247,2.663A5.107,5.107,0,0,1,38.649-10.9a9,9,0,0,1,.789,4.277v1.837a14.051,14.051,0,0,0,.148,2.542A2.283,2.283,0,0,0,40.625-.687V0h-6.29q-.26-.909-.371-1.466a13.468,13.468,0,0,1-.241-2.356l-.037-2.542q-.037-2.616-.956-3.488T29.289-10.725Zm3.47-4.973a3.047,3.047,0,0,0,1.707-3.08q0-2.486-1.651-3.34a6.241,6.241,0,0,0-2.783-.482H23.388v7.348h6.476A7.217,7.217,0,0,0,32.758-15.7ZM64.413-2.041a11.148,11.148,0,0,1-7.83,2.8,11.8,11.8,0,0,1-9.277-3.785q-3.377-3.8-3.377-10.428,0-7.162,3.841-11.04a11.445,11.445,0,0,1,8.5-3.377q6.9,0,10.094,4.527a9.8,9.8,0,0,1,1.893,5.1H62.539a7.719,7.719,0,0,0-1.429-2.969,5.811,5.811,0,0,0-4.62-1.781,5.727,5.727,0,0,0-4.917,2.514q-1.8,2.514-1.8,7.116t1.9,6.893a6.01,6.01,0,0,0,4.833,2.292,5.528,5.528,0,0,0,4.583-1.967,8.543,8.543,0,0,0,1.447-3.173H68.2A12.3,12.3,0,0,1,64.413-2.041ZM91.6-11.949H78.31v7.032H93.451V0H72.725V-27.35H92.783v4.843H78.31V-16.7H91.6Zm16.235,8a10.064,10.064,0,0,0,3.284-.445,3.174,3.174,0,0,0,2.394-3.173,2.341,2.341,0,0,0-1.187-2.1,12.77,12.77,0,0,0-3.729-1.28L105.7-11.6a18.291,18.291,0,0,1-5.9-2.1,6.669,6.669,0,0,1-2.765-5.919,7.9,7.9,0,0,1,2.672-6.1q2.672-2.431,7.849-2.431a11.933,11.933,0,0,1,7.375,2.292,8.182,8.182,0,0,1,3.2,6.652h-5.492a3.923,3.923,0,0,0-2.152-3.507,7.218,7.218,0,0,0-3.321-.687,6.2,6.2,0,0,0-3.525.891,2.836,2.836,0,0,0-1.317,2.486,2.353,2.353,0,0,0,1.3,2.189,15.9,15.9,0,0,0,3.563,1.132l4.713,1.132a12.185,12.185,0,0,1,4.676,1.985A6.687,6.687,0,0,1,119.019-8a7.882,7.882,0,0,1-2.867,6.225q-2.867,2.477-8.1,2.477-5.344,0-8.405-2.44a8.108,8.108,0,0,1-3.062-6.708h5.455a5.616,5.616,0,0,0,1.021,2.8Q104.454-3.952,107.831-3.952Z" transform="translate(535.493 28.185)" fill="#f1f1f1"/>
        </g>
        <g id="グループ_2155" data-name="グループ 2155" transform="translate(0 39.417)">
          <path id="パス_3602" data-name="パス 3602" d="M-245.16-20.152v3.568h-6.029V0h-4.238V-16.584h-6.057v-3.568ZM-231.858,0V-9h-7.875V0h-4.17V-20.152h4.17v7.684h7.875v-7.684h4.184V0ZM-210.8-8.8h-9.789v5.182h11.156V0h-15.271V-20.152h14.779v3.568h-10.664V-12.3h9.789ZM-191.527,0h-9.133V-20.152h9.789q3.705.055,5.25,2.146a5.107,5.107,0,0,1,.93,3.076,4.5,4.5,0,0,1-.93,2.967,4.8,4.8,0,0,1-1.531,1.148,4.493,4.493,0,0,1,2.331,1.777,5.327,5.327,0,0,1,.786,2.953,5.869,5.869,0,0,1-.9,3.213,5.569,5.569,0,0,1-1.436,1.586,5.6,5.6,0,0,1-2.29,1.012A14.117,14.117,0,0,1-191.527,0Zm-.1-8.873h-5.018V-3.5h4.949a4.858,4.858,0,0,0,2.064-.355,2.531,2.531,0,0,0,1.34-2.516,2.161,2.161,0,0,0-1.3-2.16A5.2,5.2,0,0,0-191.622-8.873Zm2.092-3.842a1.885,1.885,0,0,0,.82-1.764,1.8,1.8,0,0,0-1.094-1.859,7.741,7.741,0,0,0-2.406-.314h-4.43v4.443h4.949A4.119,4.119,0,0,0-189.53-12.715Zm21.875,3.91h-9.789v5.182h11.156V0H-181.56V-20.152h14.779v3.568h-10.664V-12.3h9.789Zm10.787,5.893a7.415,7.415,0,0,0,2.42-.328,2.339,2.339,0,0,0,1.764-2.338,1.725,1.725,0,0,0-.875-1.545,9.409,9.409,0,0,0-2.748-.943l-2.133-.479a13.478,13.478,0,0,1-4.348-1.545,4.914,4.914,0,0,1-2.037-4.361,5.824,5.824,0,0,1,1.969-4.5,8.324,8.324,0,0,1,5.783-1.791,8.793,8.793,0,0,1,5.435,1.688,6.029,6.029,0,0,1,2.358,4.9h-4.047a2.891,2.891,0,0,0-1.586-2.584,5.319,5.319,0,0,0-2.447-.506,4.569,4.569,0,0,0-2.6.656,2.09,2.09,0,0,0-.971,1.832,1.734,1.734,0,0,0,.957,1.613,11.715,11.715,0,0,0,2.625.834l3.473.834a8.978,8.978,0,0,1,3.445,1.463,4.927,4.927,0,0,1,1.8,4.115,5.808,5.808,0,0,1-2.112,4.587A8.85,8.85,0,0,1-156.7.52a9.68,9.68,0,0,1-6.193-1.8,5.974,5.974,0,0,1-2.256-4.942h4.02a4.138,4.138,0,0,0,.752,2.064A4.327,4.327,0,0,0-156.869-2.912Zm24.828-17.24v3.568h-6.029V0h-4.238V-16.584h-6.057v-3.568Zm16.447,12.906h-4.279V0h-4.184V-20.152h8.777a7.149,7.149,0,0,1,4.84,1.559,6.039,6.039,0,0,1,1.8,4.826q0,3.568-1.8,5.045A7.947,7.947,0,0,1-115.594-7.246Zm1.969-4.2a2.915,2.915,0,0,0,.82-2.3,2.728,2.728,0,0,0-.827-2.242,3.59,3.59,0,0,0-2.317-.67h-3.924v5.934h3.924A3.429,3.429,0,0,0-113.625-11.443Zm21,2.639h-9.789v5.182h11.156V0H-106.53V-20.152h14.779v3.568h-10.664V-12.3h9.789ZM-80.239.561q-4.32,0-6.6-2.352-3.062-2.885-3.062-8.312,0-5.537,3.063-8.312,2.283-2.352,6.6-2.352t6.6,2.352q3.049,2.775,3.049,8.313,0,5.428-3.049,8.313Q-75.919.561-80.239.561Zm3.979-5.414A8.275,8.275,0,0,0-74.8-10.1a8.253,8.253,0,0,0-1.47-5.243A4.8,4.8,0,0,0-80.239-17.2a4.867,4.867,0,0,0-3.992,1.846,8.166,8.166,0,0,0-1.49,5.25,8.166,8.166,0,0,0,1.49,5.25,4.867,4.867,0,0,0,3.992,1.846A4.829,4.829,0,0,0-76.261-4.854Zm16.269-2.393h-4.279V0h-4.184V-20.152h8.777a7.149,7.149,0,0,1,4.84,1.559,6.039,6.039,0,0,1,1.8,4.826q0,3.568-1.8,5.045A7.947,7.947,0,0,1-59.991-7.246Zm1.969-4.2a2.915,2.915,0,0,0,.82-2.3,2.728,2.728,0,0,0-.827-2.242,3.59,3.59,0,0,0-2.317-.67h-3.924v5.934h3.924A3.429,3.429,0,0,0-58.022-11.443Zm6.972-8.709h4.211V-3.623h9.98V0H-51.05ZM-21.1-8.8h-9.789v5.182h11.156V0H-35V-20.152H-20.22v3.568H-30.884V-12.3H-21.1ZM3.623-20.152v3.568H-2.406V0H-6.644V-16.584H-12.7v-3.568ZM13.33.561q-4.32,0-6.6-2.352Q3.664-4.676,3.664-10.1q0-5.537,3.063-8.312,2.283-2.352,6.6-2.352t6.6,2.352q3.049,2.775,3.049,8.313,0,5.428-3.049,8.313Q17.65.561,13.33.561Zm3.979-5.414a8.275,8.275,0,0,0,1.463-5.25,8.253,8.253,0,0,0-1.47-5.243A4.8,4.8,0,0,0,13.33-17.2a4.867,4.867,0,0,0-3.992,1.846,8.166,8.166,0,0,0-1.49,5.25,8.166,8.166,0,0,0,1.49,5.25A4.867,4.867,0,0,0,13.33-3.008,4.829,4.829,0,0,0,17.308-4.854Zm28.957-15.3v3.568H40.236V0H36V-16.584H29.941v-3.568ZM59.568,0V-9H51.693V0h-4.17V-20.152h4.17v7.684h7.875v-7.684h4.184V0ZM80.622-8.8H70.833v5.182H81.989V0H66.718V-20.152H81.5v3.568H70.833V-12.3h9.789ZM99.9,0H90.766V-20.152h9.789q3.705.055,5.25,2.146a5.107,5.107,0,0,1,.93,3.076,4.5,4.5,0,0,1-.93,2.967,4.8,4.8,0,0,1-1.531,1.148,4.493,4.493,0,0,1,2.331,1.777,5.327,5.327,0,0,1,.786,2.953,5.869,5.869,0,0,1-.9,3.213,5.569,5.569,0,0,1-1.436,1.586,5.6,5.6,0,0,1-2.29,1.012A14.117,14.117,0,0,1,99.9,0Zm-.1-8.873H94.786V-3.5h4.949a4.858,4.858,0,0,0,2.064-.355,2.531,2.531,0,0,0,1.34-2.516,2.161,2.161,0,0,0-1.3-2.16A5.2,5.2,0,0,0,99.8-8.873Zm2.092-3.842a1.885,1.885,0,0,0,.82-1.764,1.8,1.8,0,0,0-1.094-1.859,7.741,7.741,0,0,0-2.406-.314h-4.43v4.443h4.949A4.119,4.119,0,0,0,101.9-12.715ZM123.77-8.8h-9.789v5.182h11.156V0H109.866V-20.152h14.779v3.568H113.981V-12.3h9.789Zm10.787,5.893a7.415,7.415,0,0,0,2.42-.328,2.339,2.339,0,0,0,1.764-2.338,1.725,1.725,0,0,0-.875-1.545,9.409,9.409,0,0,0-2.748-.943l-2.133-.479a13.478,13.478,0,0,1-4.348-1.545,4.914,4.914,0,0,1-2.037-4.361,5.824,5.824,0,0,1,1.969-4.5,8.324,8.324,0,0,1,5.783-1.791,8.793,8.793,0,0,1,5.435,1.688,6.029,6.029,0,0,1,2.358,4.9H138.1a2.891,2.891,0,0,0-1.586-2.584,5.319,5.319,0,0,0-2.447-.506,4.569,4.569,0,0,0-2.6.656,2.09,2.09,0,0,0-.971,1.832,1.734,1.734,0,0,0,.957,1.613,11.715,11.715,0,0,0,2.625.834l3.473.834A8.978,8.978,0,0,1,141-10.008a4.927,4.927,0,0,1,1.8,4.115,5.808,5.808,0,0,1-2.112,4.587A8.85,8.85,0,0,1,134.721.52a9.68,9.68,0,0,1-6.193-1.8,5.974,5.974,0,0,1-2.256-4.942h4.02a4.138,4.138,0,0,0,.752,2.064A4.327,4.327,0,0,0,134.557-2.912Zm24.828-17.24v3.568h-6.029V0h-4.238V-16.584H143.06v-3.568ZM175.831-7.246h-4.279V0h-4.184V-20.152h8.777a7.149,7.149,0,0,1,4.84,1.559,6.039,6.039,0,0,1,1.8,4.826q0,3.568-1.8,5.045A7.947,7.947,0,0,1,175.831-7.246Zm1.969-4.2a2.915,2.915,0,0,0,.82-2.3,2.728,2.728,0,0,0-.827-2.242,3.59,3.59,0,0,0-2.317-.67h-3.924v5.934h3.924A3.429,3.429,0,0,0,177.8-11.443Zm6.972-8.709h4.211V-3.623h9.98V0H184.773ZM212.5-4.143h-7.424L203.681,0h-4.4l7.191-20.152h4.758L218.364,0H213.8Zm-1.176-3.473-2.516-7.93-2.6,7.93ZM233.964-1.5a8.214,8.214,0,0,1-5.77,2.064,8.692,8.692,0,0,1-6.836-2.789,11.164,11.164,0,0,1-2.488-7.684q0-5.277,2.83-8.135a8.433,8.433,0,0,1,6.262-2.488q5.086,0,7.438,3.336a7.222,7.222,0,0,1,1.395,3.76h-4.211a5.688,5.688,0,0,0-1.053-2.187,4.282,4.282,0,0,0-3.4-1.312,4.22,4.22,0,0,0-3.623,1.853,8.906,8.906,0,0,0-1.326,5.243,7.816,7.816,0,0,0,1.4,5.079,4.428,4.428,0,0,0,3.562,1.688,4.073,4.073,0,0,0,3.377-1.449,6.3,6.3,0,0,0,1.066-2.338h4.17A9.062,9.062,0,0,1,233.964-1.5Zm18.853-7.3h-9.789v5.182h11.156V0H238.913V-20.152h14.779v3.568H243.028V-12.3h9.789Zm3.09,4.73h4.143V0h-4.143Z" transform="translate(261.485 20.768)" fill="#f1f1f1"/>
        </g>
      </g>
    </g>
  </g>
</svg>
