<svg xmlns="http://www.w3.org/2000/svg" width="1037.437" height="144.531" viewBox="0 0 1037.437 144.531">
  <path id="パス_3571" data-name="パス 3571" d="M18.921,89.091a12.328,12.328,0,0,1,.954-4.372,11.625,11.625,0,0,0,.954-3.9q3.339-10.335,5.565-17.331t3.975-11.687q1.749-4.69,3.1-7.553a22.318,22.318,0,0,1,2.942-4.77,8.373,8.373,0,0,1,3.577-.159,7.764,7.764,0,0,1,2.623,1.034,11.89,11.89,0,0,1,1.988,1.59l1.669,1.67a7.522,7.522,0,0,1,.239,2.226,5.25,5.25,0,0,1-.875,2.067,21,21,0,0,1-1.59,11.13q-2.385,5.883-4.611,12.084l-12.72,35.934q-6.36,17.967-11.925,32.913a2.688,2.688,0,0,1-1.113-.716,7.88,7.88,0,0,0-.557-.636.779.779,0,0,0-.715-.159,4.338,4.338,0,0,0-1.431.715,21.029,21.029,0,0,1-1.829-11.209,78.526,78.526,0,0,1,2.306-12.959Q13.2,108.33,15.5,101.572A95.331,95.331,0,0,0,18.921,89.091Zm47.223-66.3a.956.956,0,0,1-.636.636,1.471,1.471,0,0,1-.954,0,1.425,1.425,0,0,1-.715-.477.44.44,0,0,1,.08-.636,11.164,11.164,0,0,1-2.862.954,15.722,15.722,0,0,1-2.226.159H56.286a20.52,20.52,0,0,0-3.816.477,31.438,31.438,0,0,0,5.009.795,35.8,35.8,0,0,0,4.77,0q2.464-.159,5.326-.477t6.678-.795a20.437,20.437,0,0,1-5.008,1.59q-2.624.477-5.486.875t-5.645.715a41.268,41.268,0,0,0-5.326.954q-.795.318-.954,0a1.77,1.77,0,0,1-.159-.795v-.875q0-.4-.477-.239a3.367,3.367,0,0,0-.875.875,8.377,8.377,0,0,1-.477.715,3.6,3.6,0,0,1-.636.636,4.605,4.605,0,0,1-1.351.636Q56.127,27.876,64,27t15.661-1.908Q87.45,24.06,95.48,22.947t16.774-2.226Q89.04,26.763,64.554,30.9T14.946,39.483Q6.36,41.073-1.431,43.14a48.037,48.037,0,0,0-14.628,6.678q-3.816-.318-5.247-2.385t-.159-5.883A121.826,121.826,0,0,1,.159,32.884a245.588,245.588,0,0,1,24.963-6.042Q38.16,24.378,51.6,22.788t26.156-2.544a11.208,11.208,0,0,1-2.385.4q-1.272.08-2.465.079a7.533,7.533,0,0,0-2.226.318,3.337,3.337,0,0,0-1.67,1.113,1.507,1.507,0,0,0-1.192-.556,5.168,5.168,0,0,0-1.59.079,1.6,1.6,0,0,0-.954.477Q65.031,22.47,66.144,22.788Zm10.017-.159q0-.477.4-.477h.875a1.956,1.956,0,0,0,1.828-.239,2.172,2.172,0,0,1,1.033-.556,11.315,11.315,0,0,1,3.578-.079q.556.239-.4.636a14.054,14.054,0,0,1-3.021.716A14.564,14.564,0,0,1,76.161,22.629ZM79.023,51.09q4.293-.159,6.042,1.828a7.97,7.97,0,0,1,1.908,5.008,19.4,19.4,0,0,1-.8,6.36,46.916,46.916,0,0,1-2.067,5.883q-1.749,3.657-3.9,7.552l-4.293,7.791q-2.146,3.9-3.816,7.552A31.49,31.49,0,0,0,69.8,99.9a44.591,44.591,0,0,1,6.678-3.736,25.52,25.52,0,0,1,7.314-2.147,15.626,15.626,0,0,1,7.155.715,13.3,13.3,0,0,1,6.2,4.69,20.368,20.368,0,0,1,3.18,6.122q1.113,3.418,2.226,6.678a28.782,28.782,0,0,0,2.862,6.042,9.256,9.256,0,0,0,4.929,3.9,2.833,2.833,0,0,1-.636,2.465,3.015,3.015,0,0,1-1.828.795,6.817,6.817,0,0,1-2.067-.159,4.773,4.773,0,0,1-1.51-.556,11.2,11.2,0,0,1-4.77-3.975,50.947,50.947,0,0,1-3.816-6.2q-1.749-3.339-3.26-6.757a53.166,53.166,0,0,0-2.941-5.8,23.729,23.729,0,0,0-8.507,2.941,40.054,40.054,0,0,0-6.519,4.85q-2.941,2.7-5.724,5.645a47.1,47.1,0,0,1-5.963,5.326,32.4,32.4,0,0,1-2.146,7.632,10.1,10.1,0,0,1-4.532,4.77l-.636-.318a1.77,1.77,0,0,0-.795-.159,86.9,86.9,0,0,1,.875-20.59,148.51,148.51,0,0,1,4.77-20.432q3.1-10.017,6.917-19.4t7.314-17.649a4.585,4.585,0,0,0,2.305-1.67A5.919,5.919,0,0,1,79.023,51.09Zm74.889,37.524a65.151,65.151,0,0,1-12.561,17.252,46.157,46.157,0,0,1-18.762,11.209,29.765,29.765,0,0,0,11.846,1.51,72.188,72.188,0,0,0,12.879-1.987,103.315,103.315,0,0,0,12.243-3.816q5.8-2.226,9.938-3.975a16.879,16.879,0,0,1-4.452,4.134,49.613,49.613,0,0,1-6.2,3.5Q155.5,118.029,152,119.3t-6.36,2.226q-.318.159-.318.318a.141.141,0,0,0,.159.159,13.682,13.682,0,0,1-4.929,1.67,52.371,52.371,0,0,1-6.6.715q-3.419.159-6.6,0a21.549,21.549,0,0,1-4.77-.636,17.066,17.066,0,0,1-9.222-5.406q-3.657-4.134-4.929-11.289a15.779,15.779,0,0,1,2.941-7.632,34.71,34.71,0,0,1,6.439-7q3.18-2.7,7.235-5.883a21.379,21.379,0,0,1,7.87-4.134,4.685,4.685,0,0,1,2.067.159,5.929,5.929,0,0,0,2.385.159q2.862-.159,5.406-.239a19.775,19.775,0,0,1,4.77.4,9.036,9.036,0,0,1,3.816,1.749A8.615,8.615,0,0,1,153.912,88.614Zm-32.436,19.4a20.005,20.005,0,0,0,7.632-4.214q3.339-2.941,6.36-5.645t6.2-5.485a11.192,11.192,0,0,0,3.816-6.917,101.942,101.942,0,0,0-14.867,9.54,34.908,34.908,0,0,0-10.414,13.2,1.77,1.77,0,0,1,.795-.159Q121.476,108.33,121.476,108.012Zm9.381-22.419q-1.59.795-3.657,2.067t-4.055,2.7a29.039,29.039,0,0,0-3.577,3.021,9.69,9.69,0,0,0-2.226,3.18,14.739,14.739,0,0,1,3.259-2.941q1.988-1.352,4.055-2.623t3.736-2.544A8.29,8.29,0,0,0,130.857,85.593ZM278.568,36.144a3.968,3.968,0,0,0,.875,1.352l1.113,1.113a3.968,3.968,0,0,1,.875,1.352,4.214,4.214,0,0,1,.159,2.067q-1.113.795-1.828.477a5.608,5.608,0,0,1-1.431-.954,16.254,16.254,0,0,1-1.352-1.352,2.039,2.039,0,0,0-1.59-.715,36.89,36.89,0,0,0-12.958,1.431,24.241,24.241,0,0,0-8.9,5.008,26.967,26.967,0,0,0-5.883,7.791,80.823,80.823,0,0,0-4.134,9.7q-1.828,5.167-3.577,10.653A87.522,87.522,0,0,1,235.8,84.639l6.757-1.352q1.987-.4,3.419-.715t3.5-.874q2.067-.557,7.155-1.828a3.8,3.8,0,0,1,0,2.226q-.318,1.59,0,1.59a71.387,71.387,0,0,1-8.347,6.042q-3.26,1.908-6.042,3.418t-5.883,3.578a53.173,53.173,0,0,0-7.552,6.519,27.533,27.533,0,0,1-1.352,6.042q-1.034,3.021-1.988,5.963a52.959,52.959,0,0,0-1.51,5.645,13.48,13.48,0,0,0-.079,5.247,6.939,6.939,0,0,0-4.134,2.544,34.148,34.148,0,0,1-3.18,3.657,11.148,11.148,0,0,0-3.737-1.352,3.742,3.742,0,0,1-2.941-2.146,43.753,43.753,0,0,1,1.113-8.745q.954-3.975,2.146-7.712t2.464-7.473a58.931,58.931,0,0,0,2.067-7.87.98.98,0,0,0-.557.159.98.98,0,0,1-.556.159,1.762,1.762,0,0,1,.079-.556,1.762,1.762,0,0,0,.079-.556,1.079,1.079,0,0,0,.795-.318,105.162,105.162,0,0,0,4.77-12.481l4.134-13.2q2.067-6.6,4.532-12.72a51.2,51.2,0,0,1,6.122-11.13,36.028,36.028,0,0,1,8.745-8.507,32.822,32.822,0,0,1,12.561-4.929,20.447,20.447,0,0,1,5.327-.239,28.072,28.072,0,0,1,4.77.875q2.305.636,4.69,1.351A41.36,41.36,0,0,0,278.568,36.144Zm-38.16,13.515a96.583,96.583,0,0,1,11.051-8.9,45.723,45.723,0,0,1,14.072-6.36,31.407,31.407,0,0,0-6.678.08,23.871,23.871,0,0,0-6.678,1.749,16.525,16.525,0,0,0-5.486,3.737,12.145,12.145,0,0,0-3.1,5.883,18.883,18.883,0,0,0-2.146,1.431A2.821,2.821,0,0,0,240.408,49.659Zm41.658,39.273a16.429,16.429,0,0,1,.4,5.485,37.837,37.837,0,0,1-1.033,6.281,53.891,53.891,0,0,1-1.988,6.281q-1.193,3.1-2.306,5.645-1.113,2.226-2.385,5.008a52.307,52.307,0,0,1-2.7,5.167,26.048,26.048,0,0,1-3.021,4.134,5.3,5.3,0,0,1-3.5,1.908,5.969,5.969,0,0,1-1.908-2.385q-.636-1.431-1.272-3.18v-.318a20.271,20.271,0,0,1-.636-2.862q-.159-.477.4-.875t.4-.874q.477-2.226,1.193-5.724t1.59-7.314q.875-3.816,1.669-7.394t1.59-6.121q1.59-5.247,5.168-6.6T282.066,88.932Zm-7-25.917a19.657,19.657,0,0,0,4.372.874,15.191,15.191,0,0,1,2.941.4,5.24,5.24,0,0,1,2.306,1.272,13.078,13.078,0,0,1,2.305,3.339,3.869,3.869,0,0,1-1.113,1.67,12.631,12.631,0,0,1-1.67,1.272,18.2,18.2,0,0,0-1.749,1.272,5.083,5.083,0,0,0-1.352,1.67,10.054,10.054,0,0,1-4.531-.8,4.183,4.183,0,0,1-2.067-2.305,8.292,8.292,0,0,1-.318-3.736A40.592,40.592,0,0,1,275.07,63.015ZM300.828,91a3.255,3.255,0,0,1,2.306,1.034,5.962,5.962,0,0,0,1.987,1.51q3.339-2.862,5.645-5.247a22.442,22.442,0,0,1,4.929-3.9,17.06,17.06,0,0,1,6.439-1.988,40.453,40.453,0,0,1,10.335.477,2.188,2.188,0,0,1-.08,2.067,5.017,5.017,0,0,1-1.669,1.669,13.6,13.6,0,0,1-2.305,1.193,5.594,5.594,0,0,1-1.988.477,35.055,35.055,0,0,0-8.268,6.2,48.814,48.814,0,0,0-5.565,7q-2.385,3.657-4.611,7.553a85.944,85.944,0,0,1-5.247,8.029,8.8,8.8,0,0,1-.954,3.657,12.228,12.228,0,0,1-2.067,2.7,6.71,6.71,0,0,1-5.008-2.544,11.225,11.225,0,0,1-2.067-5.485,24.2,24.2,0,0,1,.239-7,41.5,41.5,0,0,1,1.908-7.235,40.656,40.656,0,0,1,2.862-6.28A11.914,11.914,0,0,1,300.828,91Zm34.026,29.1A9.659,9.659,0,0,0,341.611,122a22.634,22.634,0,0,0,7.314-1.908,40.284,40.284,0,0,0,6.757-3.816q3.18-2.226,5.406-4.134a21.293,21.293,0,0,0-5.327-4.611q-3.1-1.908-6.121-4.055a23.9,23.9,0,0,1-5.247-5.088,13.809,13.809,0,0,1-2.544-7.553,12.5,12.5,0,0,1,.954-6.121,21.3,21.3,0,0,1,3.5-5.724,22.778,22.778,0,0,1,5.247-4.532,16.01,16.01,0,0,1,6.2-2.385,17.151,17.151,0,0,1,5.168.159,14.325,14.325,0,0,1,4.929,1.749,5.858,5.858,0,0,1,2.783,3.339q.636,2.067-1.272,4.77a2.707,2.707,0,0,1-2.783-.795,8.28,8.28,0,0,0-2.146-1.908,11.708,11.708,0,0,1-3.9,2.544q-2.783,1.272-5.565,2.862a18.453,18.453,0,0,0-4.69,3.737,5.76,5.76,0,0,0-1.431,5.008,3.862,3.862,0,0,0,1.272,2.465,17.859,17.859,0,0,0,2.623,1.987q1.51.954,3.26,1.908a23.484,23.484,0,0,1,3.18,2.067q1.59,1.272,3.816,2.783a28.332,28.332,0,0,1,4.134,3.418,20.572,20.572,0,0,1,3.18,4.055,8.015,8.015,0,0,1,1.113,4.69,3.64,3.64,0,0,1-.715,1.749q-.715,1.113-1.51,2.385a19.848,19.848,0,0,1-1.669,2.305q-.875,1.034-1.352,1.51a21.451,21.451,0,0,1-5.486,3.021,36.172,36.172,0,0,1-6.837,1.908,35.707,35.707,0,0,1-7.076.557,17.9,17.9,0,0,1-6.28-1.193,9.605,9.605,0,0,1-4.372-3.339A8.269,8.269,0,0,1,334.854,120.1Zm85.86-57.558q10.335-1.272,21.783-3.18a155.4,155.4,0,0,1,23.532-2.067,23.732,23.732,0,0,1-8.189,1.828q-5.167.4-10.891.8a113.175,113.175,0,0,0-11.289,1.352,25.5,25.5,0,0,0-9.54,3.5q6.678-1.113,12.084-1.988t12.561-1.988a28.756,28.756,0,0,1-8.188,2.544,52.562,52.562,0,0,0-8.189,1.908q-1.908.636-4.293,1.352T425.4,68.023q-2.305.715-4.054,1.352a13.074,13.074,0,0,0-2.226.954,6.31,6.31,0,0,0-2.146,2.385,19.458,19.458,0,0,0-1.511,3.657q-.636,2.067-1.192,4.293T413.082,84.8q-1.59,4.134-2.862,8.109a24.108,24.108,0,0,1-3.816,7.314,31.223,31.223,0,0,1-1.51,6.2q-1.033,2.862-1.988,5.724t-1.749,5.883a31.139,31.139,0,0,0-.954,6.519,7.986,7.986,0,0,0-1.352,2.783q-.4,1.51-.716,3.1a25.139,25.139,0,0,1-.795,3.021A7.524,7.524,0,0,1,395.91,136q-.636.318-.954-.079a7.232,7.232,0,0,1-.556-.795,1.014,1.014,0,0,0-.477-.477q-.238-.079-.4.557a14.443,14.443,0,0,1-4.85-8.666,32.719,32.719,0,0,1,.08-10.892,74.555,74.555,0,0,1,2.941-11.607q1.987-5.883,3.577-10.971.477-1.749,1.352-4.531t1.749-5.8q.875-3.021,1.829-5.645a29.4,29.4,0,0,1,1.749-4.054,4.1,4.1,0,0,0-1.908.159,23.911,23.911,0,0,0-2.305.795q-1.193.477-2.465,1.034a9.679,9.679,0,0,1-2.226.715,10,10,0,0,0-6.122-.795,23.587,23.587,0,0,0-5.008,1.828,45.608,45.608,0,0,1-4.531,1.987,5.744,5.744,0,0,1-4.691-.477,97.392,97.392,0,0,1,15.344-8.9,89.77,89.77,0,0,1,17.888-6.042,30.039,30.039,0,0,0,2.7-6.44q.795-2.941,1.272-5.8t1.113-5.883a35.14,35.14,0,0,1,2.226-6.678,9.769,9.769,0,0,1,7.552-1.272,10.213,10.213,0,0,1,5.8,3.657,27.366,27.366,0,0,1-1.59,11.766A88.292,88.292,0,0,1,420.714,62.538ZM402.747,85.275q-2.067,5.883-3.975,11.766t-3.5,12.084a68.7,68.7,0,0,0,4.77-11.687A66.154,66.154,0,0,0,402.747,85.275ZM467.46,120.1A9.659,9.659,0,0,0,474.217,122a22.634,22.634,0,0,0,7.314-1.908,40.284,40.284,0,0,0,6.757-3.816q3.18-2.226,5.406-4.134a21.293,21.293,0,0,0-5.327-4.611q-3.1-1.908-6.121-4.055A23.9,23.9,0,0,1,477,98.393a13.809,13.809,0,0,1-2.544-7.553,12.5,12.5,0,0,1,.954-6.121,21.3,21.3,0,0,1,3.5-5.724,22.778,22.778,0,0,1,5.247-4.532,16.01,16.01,0,0,1,6.2-2.385,17.15,17.15,0,0,1,5.167.159,14.325,14.325,0,0,1,4.929,1.749,5.858,5.858,0,0,1,2.783,3.339q.636,2.067-1.272,4.77a2.707,2.707,0,0,1-2.783-.795,8.28,8.28,0,0,0-2.146-1.908,11.708,11.708,0,0,1-3.9,2.544q-2.783,1.272-5.565,2.862a18.453,18.453,0,0,0-4.69,3.737,5.76,5.76,0,0,0-1.431,5.008,3.862,3.862,0,0,0,1.272,2.465,17.861,17.861,0,0,0,2.624,1.987q1.511.954,3.26,1.908a23.484,23.484,0,0,1,3.18,2.067q1.59,1.272,3.816,2.783a28.333,28.333,0,0,1,4.134,3.418,20.572,20.572,0,0,1,3.18,4.055,8.015,8.015,0,0,1,1.113,4.69,3.64,3.64,0,0,1-.716,1.749q-.716,1.113-1.51,2.385a19.848,19.848,0,0,1-1.669,2.305q-.875,1.034-1.352,1.51a21.451,21.451,0,0,1-5.486,3.021,36.172,36.172,0,0,1-6.837,1.908,35.707,35.707,0,0,1-7.076.557,17.9,17.9,0,0,1-6.28-1.193,9.605,9.605,0,0,1-4.372-3.339A8.269,8.269,0,0,1,467.46,120.1Zm85.86-57.558q10.335-1.272,21.783-3.18a155.4,155.4,0,0,1,23.532-2.067,23.732,23.732,0,0,1-8.188,1.828q-5.168.4-10.892.8a113.177,113.177,0,0,0-11.289,1.352,25.5,25.5,0,0,0-9.54,3.5q6.678-1.113,12.084-1.988t12.561-1.988a28.756,28.756,0,0,1-8.189,2.544,52.56,52.56,0,0,0-8.188,1.908q-1.908.636-4.293,1.352t-4.69,1.431q-2.305.715-4.055,1.352a13.074,13.074,0,0,0-2.226.954,6.31,6.31,0,0,0-2.147,2.385,19.458,19.458,0,0,0-1.51,3.657q-.636,2.067-1.193,4.293T545.688,84.8q-1.59,4.134-2.862,8.109a24.108,24.108,0,0,1-3.816,7.314,31.221,31.221,0,0,1-1.51,6.2q-1.034,2.862-1.987,5.724t-1.749,5.883a31.143,31.143,0,0,0-.954,6.519,7.985,7.985,0,0,0-1.352,2.783q-.4,1.51-.716,3.1a25.133,25.133,0,0,1-.795,3.021A7.522,7.522,0,0,1,528.516,136q-.636.318-.954-.079a7.237,7.237,0,0,1-.557-.795,1.013,1.013,0,0,0-.477-.477q-.238-.079-.4.557a14.443,14.443,0,0,1-4.849-8.666,32.717,32.717,0,0,1,.08-10.892,74.555,74.555,0,0,1,2.941-11.607q1.988-5.883,3.578-10.971.477-1.749,1.352-4.531t1.749-5.8q.874-3.021,1.828-5.645a29.4,29.4,0,0,1,1.749-4.054,4.1,4.1,0,0,0-1.908.159,23.906,23.906,0,0,0-2.306.795q-1.192.477-2.464,1.034a9.678,9.678,0,0,1-2.226.715,10,10,0,0,0-6.121-.795,23.588,23.588,0,0,0-5.009,1.828,45.6,45.6,0,0,1-4.531,1.987,5.744,5.744,0,0,1-4.691-.477,97.4,97.4,0,0,1,15.344-8.9,89.77,89.77,0,0,1,17.888-6.042,30.043,30.043,0,0,0,2.7-6.44q.795-2.941,1.272-5.8t1.113-5.883a35.14,35.14,0,0,1,2.226-6.678,9.769,9.769,0,0,1,7.553-1.272,10.213,10.213,0,0,1,5.8,3.657,27.366,27.366,0,0,1-1.59,11.766A88.28,88.28,0,0,1,553.32,62.538ZM535.353,85.275q-2.067,5.883-3.975,11.766t-3.5,12.084a68.7,68.7,0,0,0,4.77-11.687A66.159,66.159,0,0,0,535.353,85.275Zm60.738,3.339a65.15,65.15,0,0,1-12.561,17.252,46.157,46.157,0,0,1-18.762,11.209,29.765,29.765,0,0,0,11.845,1.51,72.189,72.189,0,0,0,12.879-1.987,103.309,103.309,0,0,0,12.243-3.816q5.8-2.226,9.938-3.975a16.879,16.879,0,0,1-4.452,4.134,49.614,49.614,0,0,1-6.2,3.5q-3.339,1.59-6.837,2.862t-6.36,2.226q-.318.159-.318.318a.141.141,0,0,0,.159.159,13.682,13.682,0,0,1-4.929,1.67,52.372,52.372,0,0,1-6.6.715q-3.418.159-6.6,0a21.548,21.548,0,0,1-4.77-.636,17.066,17.066,0,0,1-9.222-5.406q-3.657-4.134-4.929-11.289a15.779,15.779,0,0,1,2.941-7.632,34.711,34.711,0,0,1,6.44-7q3.18-2.7,7.234-5.883a21.379,21.379,0,0,1,7.87-4.134,4.685,4.685,0,0,1,2.067.159,5.929,5.929,0,0,0,2.385.159q2.862-.159,5.406-.239a19.775,19.775,0,0,1,4.77.4,9.036,9.036,0,0,1,3.816,1.749A8.615,8.615,0,0,1,596.091,88.614Zm-32.436,19.4a20.005,20.005,0,0,0,7.632-4.214q3.339-2.941,6.36-5.645t6.2-5.485a11.192,11.192,0,0,0,3.816-6.917,101.942,101.942,0,0,0-14.867,9.54,34.908,34.908,0,0,0-10.414,13.2,1.77,1.77,0,0,1,.795-.159Q563.655,108.33,563.655,108.012Zm9.381-22.419q-1.59.795-3.657,2.067t-4.055,2.7a29.037,29.037,0,0,0-3.577,3.021,9.691,9.691,0,0,0-2.226,3.18,14.738,14.738,0,0,1,3.26-2.941q1.988-1.352,4.054-2.623t3.737-2.544A8.291,8.291,0,0,0,573.036,85.593Zm45.792,39.432q-1.749.318-2.146-.954a2.216,2.216,0,0,0-1.669-1.59,35.557,35.557,0,0,1-1.113,3.975,17.685,17.685,0,0,0-.795,3.021q-.318,1.749-.636,4.611t-.8,8.586q-.795-.159-.874.239a2.418,2.418,0,0,0,0,.874,1.989,1.989,0,0,1,0,.795q-.08.318-1.034-.159.795.795.477.954t-.159,1.431q-.318,7.155-.239,11.527t-2.305,6.439a13.354,13.354,0,0,1-5.565-3.736,13.208,13.208,0,0,1-2.623-4.85,17.188,17.188,0,0,1-.716-4.611v-3.021a160.808,160.808,0,0,1,1.034-16.934,91.79,91.79,0,0,1,5.326-21.386q1.908-5.247,3.5-9.461t3.26-7.87a65.589,65.589,0,0,1,3.657-6.917,61.028,61.028,0,0,1,4.69-6.6,3.54,3.54,0,0,1,.318-1.59,3.965,3.965,0,0,0,.318-1.749,8.354,8.354,0,0,1,1.987-2.7,13.5,13.5,0,0,1,3.737-1.431,7.453,7.453,0,0,0,1.828,1.59A17.442,17.442,0,0,1,630.2,74.86a5.5,5.5,0,0,1,1.431,1.828,4.537,4.537,0,0,1,.239,2.862q2.544.477,5.088,1.034a26.4,26.4,0,0,1,4.77,1.51,16.589,16.589,0,0,1,4.055,2.464,14.216,14.216,0,0,1,3.26,4.055,26.456,26.456,0,0,1,1.272,3.1,23.921,23.921,0,0,1,.954,3.577q.8,4.452-.318,6.916a15.416,15.416,0,0,1-2.385,3.9,29.483,29.483,0,0,1-3.339,3.419,56.612,56.612,0,0,1-4.929,3.577q-4.452,2.862-10.176,6.2A102.874,102.874,0,0,1,618.828,125.025ZM639.657,95.61a13.582,13.582,0,0,0-5.962-4.214,7.007,7.007,0,0,0-6.122.4A79.214,79.214,0,0,1,623.28,99.9q-2.067,3.339-3.816,6.519a40.678,40.678,0,0,0-2.941,6.757,39.649,39.649,0,0,0-1.67,8.825,68.306,68.306,0,0,1,7.871-5.565,60.607,60.607,0,0,0,7-4.849,30.854,30.854,0,0,0,5.8-6.2A29.623,29.623,0,0,0,639.657,95.61ZM725.2,88.932a16.428,16.428,0,0,1,.4,5.485,37.841,37.841,0,0,1-1.034,6.281,53.9,53.9,0,0,1-1.987,6.281q-1.192,3.1-2.306,5.645-1.113,2.226-2.385,5.008a52.294,52.294,0,0,1-2.7,5.167,26.046,26.046,0,0,1-3.021,4.134,5.3,5.3,0,0,1-3.5,1.908,5.97,5.97,0,0,1-1.908-2.385q-.636-1.431-1.272-3.18v-.318a20.271,20.271,0,0,1-.636-2.862q-.159-.477.4-.875t.4-.874q.477-2.226,1.193-5.724t1.59-7.314q.874-3.816,1.669-7.394t1.59-6.121q1.59-5.247,5.168-6.6T725.2,88.932Zm-7-25.917a19.657,19.657,0,0,0,4.373.874,15.191,15.191,0,0,1,2.941.4,5.24,5.24,0,0,1,2.305,1.272,13.078,13.078,0,0,1,2.306,3.339,3.869,3.869,0,0,1-1.113,1.67,12.629,12.629,0,0,1-1.669,1.272,18.186,18.186,0,0,0-1.749,1.272,5.082,5.082,0,0,0-1.352,1.67,10.055,10.055,0,0,1-4.531-.8,4.183,4.183,0,0,1-2.067-2.305,8.291,8.291,0,0,1-.318-3.736A40.591,40.591,0,0,1,718.2,63.015ZM754.3,80.982q2.226.636,3.021.874a25.048,25.048,0,0,0,3.18.557,5.221,5.221,0,0,1,1.113,4.611q-.477,2.862-.954,5.247a12.078,12.078,0,0,1,4.372-2.465,16.984,16.984,0,0,1,5.406-.874,16.374,16.374,0,0,1,5.485.954,11.288,11.288,0,0,1,4.611,3.021,14.668,14.668,0,0,1,1.987,5.565q.557,3.339.954,6.916t.874,7.235a24.315,24.315,0,0,0,1.669,6.439,10.7,10.7,0,0,0,3.419,4.452,8.6,8.6,0,0,0,6.042,1.352q-5.724,1.908-9.461-.159a17.317,17.317,0,0,1-6.28-6.122,40.975,40.975,0,0,1-4.214-9.222q-1.669-5.167-3.26-9.46-7.95-3.021-20.988,11.607-1.272,1.431-2.942,3.737t-3.26,4.611q-1.59,2.306-2.862,4.134a23.953,23.953,0,0,1-1.59,2.146,2.267,2.267,0,0,1-1.908,1.272,3.435,3.435,0,0,1-2.226-.954,7.817,7.817,0,0,1-1.908-2.624,13.4,13.4,0,0,1-1.113-3.577,82.911,82.911,0,0,0,4.214-10.573q1.829-5.645,3.975-11.051a59.167,59.167,0,0,1,5.088-10.017A25.3,25.3,0,0,1,754.3,80.982Zm95.559,33.708.477-2.7-.477,1.113q.636-5.088,1.828-10.892t2.783-11.527q1.59-5.724,3.26-10.892t3.259-9.142a3.064,3.064,0,0,1,.159-1.67q.318-.875.636-1.669a21.008,21.008,0,0,1,1.511-3.816q1.033-2.067,1.828-4.134,2.067-4.134,4.452-8.983a23.433,23.433,0,0,1,6.042-7.87,6.128,6.128,0,0,1,3.657-1.51,10.589,10.589,0,0,1,3.816.556,16.528,16.528,0,0,1,3.657,1.749q1.749,1.113,3.18,2.226-1.113.159-1.033.239t-.4.239q.795.636.636,1.113a2.816,2.816,0,0,1-.477.875,9.674,9.674,0,0,1-.716.795.821.821,0,0,0-.079,1.034l-2.7.477q-3.975,7-7.711,14.549t-7,15.9q-3.26,8.347-5.883,17.729t-4.531,20.193q.159.795.079.874a.324.324,0,0,1-.238.08l-.795,2.067-.318.636a3.7,3.7,0,0,1-.636.954q-.477,2.385-.795,3.816t-.477,2.544q-.159,1.113-.318,2.385a31.621,31.621,0,0,0-.159,3.657,20.848,20.848,0,0,0-.477-3.339q-.318-1.272-.556-2.624t-.477-3.021a36.874,36.874,0,0,1-.239-4.85,5.457,5.457,0,0,1-1.59,1.59,3.99,3.99,0,0,0-1.272,1.113.314.314,0,0,0,.477.159q.318-.159.716-.318t.636-.239q.238-.08.08.4a10.453,10.453,0,0,0-.318,2.544v2.544a15.089,15.089,0,0,1-.238,2.624,7.334,7.334,0,0,1-1.034,2.623,44.645,44.645,0,0,0,.239-5.485,6.155,6.155,0,0,0-1.829-3.9,3.55,3.55,0,0,0-.159,1.749q.159.636.239,1.113a3.371,3.371,0,0,1,0,1.034,3.834,3.834,0,0,1-.557,1.351.731.731,0,0,1,.954.08q.477.4-.159.715-.8-.636-1.113.4t.477,1.352q-1.272.795-.795,1.829a2.568,2.568,0,0,1-.159,2.305q-.159-4.134-.318-7t-.239-5.168a28.009,28.009,0,0,1,.159-4.293q.238-1.987.716-4.214v.318l.159-2.067v.159a1.761,1.761,0,0,1,.08-.557,1.762,1.762,0,0,0,.079-.556v.636ZM867.027,75.1q-2.862,6.678-5.247,13.594a34.481,34.481,0,0,0-1.908,13.754,30.8,30.8,0,0,1,1.193-7.235q1.034-3.578,2.226-6.916t2.305-6.678A30.073,30.073,0,0,0,867.027,75.1Zm-4.452,1.59a8.374,8.374,0,0,0-1.193,2.306q-.557,1.51-.239,1.987a25,25,0,0,1,1.51-2.146Q863.688,77.484,862.575,76.689ZM849.7,115.167v0Zm.159-1.113v0Zm44.838-25.122a16.428,16.428,0,0,1,.4,5.485,37.841,37.841,0,0,1-1.034,6.281,53.9,53.9,0,0,1-1.987,6.281q-1.192,3.1-2.306,5.645-1.113,2.226-2.385,5.008a52.294,52.294,0,0,1-2.7,5.167,26.046,26.046,0,0,1-3.021,4.134,5.3,5.3,0,0,1-3.5,1.908,5.97,5.97,0,0,1-1.908-2.385q-.636-1.431-1.272-3.18v-.318a20.271,20.271,0,0,1-.636-2.862q-.159-.477.4-.875t.4-.874q.477-2.226,1.193-5.724t1.59-7.314q.874-3.816,1.669-7.394t1.59-6.121q1.59-5.247,5.168-6.6T894.693,88.932Zm-7-25.917a19.656,19.656,0,0,0,4.372.874,15.191,15.191,0,0,1,2.941.4,5.24,5.24,0,0,1,2.305,1.272,13.078,13.078,0,0,1,2.306,3.339,3.869,3.869,0,0,1-1.113,1.67,12.629,12.629,0,0,1-1.669,1.272,18.186,18.186,0,0,0-1.749,1.272,5.082,5.082,0,0,0-1.352,1.67,10.055,10.055,0,0,1-4.531-.8,4.183,4.183,0,0,1-2.067-2.305,8.291,8.291,0,0,1-.318-3.736A40.592,40.592,0,0,1,887.7,63.015Zm86.5-26.871a3.968,3.968,0,0,0,.874,1.352l1.113,1.113a3.968,3.968,0,0,1,.874,1.352,4.213,4.213,0,0,1,.159,2.067q-1.113.795-1.828.477a5.608,5.608,0,0,1-1.431-.954A16.263,16.263,0,0,1,972.6,40.2a2.039,2.039,0,0,0-1.59-.715,36.891,36.891,0,0,0-12.958,1.431,24.241,24.241,0,0,0-8.9,5.008,26.966,26.966,0,0,0-5.883,7.791,80.823,80.823,0,0,0-4.134,9.7q-1.828,5.167-3.578,10.653a87.519,87.519,0,0,1-4.134,10.573l6.758-1.352q1.988-.4,3.419-.715t3.5-.874q2.067-.557,7.155-1.828a3.8,3.8,0,0,1,0,2.226q-.318,1.59,0,1.59a71.387,71.387,0,0,1-8.348,6.042q-3.259,1.908-6.042,3.418t-5.883,3.578a53.17,53.17,0,0,0-7.552,6.519,27.529,27.529,0,0,1-1.352,6.042q-1.034,3.021-1.987,5.963a52.941,52.941,0,0,0-1.51,5.645,13.48,13.48,0,0,0-.08,5.247,6.939,6.939,0,0,0-4.134,2.544,34.158,34.158,0,0,1-3.18,3.657,11.148,11.148,0,0,0-3.737-1.352,3.742,3.742,0,0,1-2.942-2.146,43.751,43.751,0,0,1,1.113-8.745q.954-3.975,2.146-7.712t2.464-7.473a58.925,58.925,0,0,0,2.067-7.87.98.98,0,0,0-.557.159.98.98,0,0,1-.556.159,1.762,1.762,0,0,1,.079-.556,1.761,1.761,0,0,0,.08-.556,1.079,1.079,0,0,0,.795-.318,105.159,105.159,0,0,0,4.77-12.481l4.134-13.2q2.067-6.6,4.531-12.72a51.205,51.205,0,0,1,6.122-11.13,36.028,36.028,0,0,1,8.745-8.507A32.823,32.823,0,0,1,954,32.964a20.447,20.447,0,0,1,5.327-.239,28.071,28.071,0,0,1,4.77.875q2.306.636,4.691,1.351A41.363,41.363,0,0,0,974.193,36.144Zm-38.16,13.515a96.585,96.585,0,0,1,11.05-8.9,45.724,45.724,0,0,1,14.072-6.36,31.406,31.406,0,0,0-6.678.08,23.871,23.871,0,0,0-6.678,1.749,16.524,16.524,0,0,0-5.485,3.737,12.145,12.145,0,0,0-3.1,5.883,18.886,18.886,0,0,0-2.146,1.431A2.821,2.821,0,0,0,936.033,49.659Zm63.759,38.955a65.15,65.15,0,0,1-12.561,17.252,46.157,46.157,0,0,1-18.762,11.209,29.765,29.765,0,0,0,11.845,1.51,72.189,72.189,0,0,0,12.879-1.987,103.309,103.309,0,0,0,12.243-3.816q5.8-2.226,9.938-3.975a16.879,16.879,0,0,1-4.452,4.134,49.614,49.614,0,0,1-6.2,3.5q-3.339,1.59-6.837,2.862t-6.36,2.226q-.318.159-.318.318a.141.141,0,0,0,.159.159,13.682,13.682,0,0,1-4.929,1.67,52.372,52.372,0,0,1-6.6.715q-3.418.159-6.6,0a21.548,21.548,0,0,1-4.77-.636,17.066,17.066,0,0,1-9.222-5.406q-3.657-4.134-4.929-11.289a15.779,15.779,0,0,1,2.941-7.632,34.711,34.711,0,0,1,6.44-7q3.18-2.7,7.234-5.883a21.379,21.379,0,0,1,7.87-4.134,4.685,4.685,0,0,1,2.067.159,5.929,5.929,0,0,0,2.385.159q2.862-.159,5.406-.239a19.775,19.775,0,0,1,4.77.4,9.036,9.036,0,0,1,3.816,1.749A8.615,8.615,0,0,1,999.792,88.614Zm-32.436,19.4a20.005,20.005,0,0,0,7.632-4.214q3.339-2.941,6.36-5.645t6.2-5.485a11.192,11.192,0,0,0,3.816-6.917,101.942,101.942,0,0,0-14.867,9.54,34.908,34.908,0,0,0-10.414,13.2,1.77,1.77,0,0,1,.795-.159Q967.356,108.33,967.356,108.012Zm9.381-22.419q-1.59.795-3.657,2.067t-4.055,2.7a29.037,29.037,0,0,0-3.577,3.021,9.691,9.691,0,0,0-2.226,3.18,14.738,14.738,0,0,1,3.26-2.941q1.988-1.352,4.054-2.623t3.737-2.544A8.291,8.291,0,0,0,976.737,85.593Z" transform="translate(22.064 -20.244)" fill="#f8f8f8"/>
</svg>
