<svg xmlns="http://www.w3.org/2000/svg" width="540.086" height="771.928" viewBox="0 0 540.086 771.928">
  <g id="パス_3563" data-name="パス 3563" transform="translate(0 18.16)" fill="#fff" opacity="0.21" style="mix-blend-mode: overlay;isolation: isolate">
    <path d="M 0.7879720330238342 753.1407470703125 L 104.7184677124023 492.0072021484375 L 104.7582702636719 491.9071044921875 L 104.7533721923828 491.7994079589844 L 95.5128173828125 289.8134765625 L 162.2935791015625 41.11239242553711 L 481.3464965820312 -17.57429313659668 L 523.9389038085938 279.5584411621094 L 539.5798950195312 437.6444091796875 L 493.4618225097656 624.7483520507812 L 414.5795593261719 631.322021484375 L 413.727783203125 631.3930053710938 L 414.2070617675781 632.1007080078125 L 449.247802734375 683.84033203125 L 0.7879720330238342 753.1407470703125 Z" stroke="none"/>
    <path d="M 480.92529296875 -16.98846435546875 L 162.694580078125 41.54693603515625 L 96.015869140625 289.8680725097656 L 105.2626647949219 491.9919128417969 L 105.1829833984375 492.1921081542969 L 1.575927734375 752.5130004882812 L 448.3909301757812 683.4667358398438 L 412.8345642089844 630.9656982421875 L 414.5380859375 630.8237915039062 L 493.0623168945312 624.2799682617188 L 539.073974609375 437.6082153320312 L 523.4427490234375 279.6214904785156 L 480.92529296875 -16.98846435546875 M 481.767578125 -18.16021728515625 L 524.435546875 279.5 L 540.0859985351562 437.6806945800781 L 493.8612670898438 625.216796875 L 414.6210632324219 631.8203125 L 450.1046752929688 684.2138061523438 L -6.103515625e-05 753.7684326171875 L 104.2538757324219 491.8223266601562 L 95.009765625 289.7588195800781 L 161.892578125 40.677734375 L 481.767578125 -18.16021728515625 Z" stroke="none" fill="#707070"/>
  </g>
</svg>
