<svg xmlns="http://www.w3.org/2000/svg" width="363.364" height="41.35" viewBox="0 0 363.364 41.35">
  <path id="パス_3099" data-name="パス 3099" d="M-9.841-27.1q-.893,0-.893-.84,0-.446,2.547-7.824,1.076-3.229,2.442-6.957a4.7,4.7,0,0,0,.263-1.05q0-.5-2.022-.814a3.352,3.352,0,0,1-1.3-.368.588.588,0,0,1-.2-.446q0-.84,2.179-2.547,1.129-.866,4.411-3.072A136.488,136.488,0,0,1,3.995-63.43a12.6,12.6,0,0,0,1.181-2.179.291.291,0,0,0-.013-.092.222.222,0,0,0-.092-.092.944.944,0,0,1-.144-.118.181.181,0,0,1-.066-.118,7.2,7.2,0,0,1,.945-1.024Q6.751-68,6.922-68.209a.641.641,0,0,1,.459-.236.511.511,0,0,1,.42.2.714.714,0,0,1,.158.459,6.906,6.906,0,0,1-.866,2.337Q6.41-64.06,4.966-61.435,3.1-58.048,1.369-54.5q-.814,1.6-.814,1.68a6.725,6.725,0,0,0,.971-.5,125.4,125.4,0,0,1,17.249-7.745,56.324,56.324,0,0,1,6.642-2.284,13.135,13.135,0,0,1,2.337-.5q.341,0,.341.289,0,.551-3.544,2.179-2.31,1.076-4.909,2.1-8.48,3.255-13,5.435Q1-51.091.319-50.566q1,1.943,1.68,3.544.525,1.181,1.444,2.927t1.6,2.875a19.133,19.133,0,0,0,7.089,6.852q.945.525,1.812.932a4.532,4.532,0,0,0,1.024.407q.551,0,.551.578a.447.447,0,0,1-.289.473l-.105.026a10.334,10.334,0,0,1-1.181-.158Q6.83-33.659,2.524-41.666A49.806,49.806,0,0,1,.476-46.444q-.578-1.418-1.1-2.993-.131-.289-.158-.289A29.271,29.271,0,0,0-2.1-46.654q-2.074,5.2-4.883,13.521Q-8.266-29.379-8.529-28.7a4.433,4.433,0,0,1-.6,1.247A.882.882,0,0,1-9.841-27.1Zm4.752-17.511a11.567,11.567,0,0,0,.761-1.838,14.552,14.552,0,0,0,.709-1.864,13.624,13.624,0,0,0-1.838,1.1,14.483,14.483,0,0,0-2.31,1.628q0,.105.709.236a5.123,5.123,0,0,1,1.812.656Zm22.108,4.936a1.543,1.543,0,0,1-1.444-.866,1.787,1.787,0,0,1-.184-.893,6.6,6.6,0,0,1,.079-1.155,13.919,13.919,0,0,1,1.181-3.229A28.467,28.467,0,0,1,18.174-48.6a2.759,2.759,0,0,1-.42-1.181v-.473a3.362,3.362,0,0,1,.131-1,4.717,4.717,0,0,1,1.733-1.969,5.955,5.955,0,0,1,3.439-1.339,2.9,2.9,0,0,1,1.733.525,2.69,2.69,0,0,1,1.181,2.363,9.706,9.706,0,0,1-1.129,3.886L24.4-46.707q.053,0,.433.079t.971.171q.591.092.932.171a1.8,1.8,0,0,1,.473.158.237.237,0,0,1,.131.21q0,.21-.42.21a9.987,9.987,0,0,1-1.365-.158L24-46.129a26.972,26.972,0,0,1-3.15,4.1Q18.567-39.671,17.019-39.671Zm.263-1.838a2.922,2.922,0,0,0,.709-.341,15.83,15.83,0,0,0,3.229-3.413,8.749,8.749,0,0,0,.814-1.155q0-.053-.578-.236a5.517,5.517,0,0,1-1.313-.5,3.323,3.323,0,0,0-.735-.315q-.079.079-.788,1.549a11.566,11.566,0,0,0-1.5,4.279Q17.124-41.508,17.281-41.508Zm5.041-5.54q.158,0,.709-1.076a9.042,9.042,0,0,0,1.155-3.544q0-1.313-1.575-1.365a5.135,5.135,0,0,0-2.245.7A4.312,4.312,0,0,0,18.7-50.986a1.787,1.787,0,0,0-.171.591,4.519,4.519,0,0,0-.039.486,3.227,3.227,0,0,0,.105.63l.341-.394a1.841,1.841,0,0,1,1.286-.788q.525,0,.551.2a2.448,2.448,0,0,1,.026.276,1.407,1.407,0,0,1-.341.774,11.969,11.969,0,0,0-.735,1.142,8.049,8.049,0,0,0,1.155.551A9.852,9.852,0,0,0,22.322-47.048Zm15.833,6.826a1.526,1.526,0,0,1-1.365-.84,1.152,1.152,0,0,1-.236-.709,5.535,5.535,0,0,1-.026-.63,8.2,8.2,0,0,1,.788-3.2l.289-.683a4.386,4.386,0,0,0-.6.735q-3.676,4.7-5.33,4.7-.971,0-1.365-1.26a2.7,2.7,0,0,1-.079-.656q0-2.547,3.492-7.745,2.153-3.2,3.072-3.2.788,0,.788.683a1.9,1.9,0,0,1-.578.971,26.444,26.444,0,0,0-2.048,2.835,25.583,25.583,0,0,0-2.507,4.739,12.264,12.264,0,0,0-.774,2.455q0,.184.053.21a.366.366,0,0,0,.158.026h.131q.446,0,1.943-1.286a28.21,28.21,0,0,0,3.282-3.807l1.05-1.339q1.47-1.864,1.943-2.494a15.624,15.624,0,0,1,1.418-1.759,1.958,1.958,0,0,1,1.313-.656q.63,0,.683.735a1.644,1.644,0,0,1-.525.866A23.4,23.4,0,0,0,39.6-46.26a11.354,11.354,0,0,0-1.47,4.647q0,.42.315.42,1.365,0,4.463-2.888Q44.587-45.657,45.06-46a1.07,1.07,0,0,1,.473-.263q.131,0,.158.236,0,.289-1.365,1.523-1.812,1.733-2.862,2.573Q39.336-40.222,38.155-40.222Zm12.578.131h-.289a2.184,2.184,0,0,1-1.917-1.234,2.375,2.375,0,0,1-.21-1.1,5.451,5.451,0,0,1,.289-1.733,15.22,15.22,0,0,1,1.365-2.73,20.3,20.3,0,0,1,1.917-2.652q1.129-1.365,1.68-1.365.341,0,.341.42a9.215,9.215,0,0,1-1.208,2.31q-2.678,4.463-2.678,5.96,0,.971,1.076.971l.368-.026q1-.158,4.384-3.072a15.231,15.231,0,0,1,2.468-1.943.325.325,0,0,1,.341.21.323.323,0,0,1-.053.144,2.4,2.4,0,0,1-.249.315q-.2.223-1.483,1.378A41.611,41.611,0,0,1,52.9-40.983,4.46,4.46,0,0,1,50.733-40.091Zm3.676-11.368q-.394,0-.551-.473a1.247,1.247,0,0,1-.053-.341,1.685,1.685,0,0,1,.578-1.181,1.1,1.1,0,0,1,.735-.394q.656,0,.656.6a2.332,2.332,0,0,1-.223.866,1.479,1.479,0,0,1-.551.722A1.177,1.177,0,0,1,54.408-51.459Zm8.981,11.709a2.95,2.95,0,0,1-.578-.053,2.022,2.022,0,0,1-1.575-2.232,11.108,11.108,0,0,1,1.733-4.988,21.845,21.845,0,0,1,3.177-4.384q2.415-2.52,4.516-2.52a2.465,2.465,0,0,1,1.208.289,2.108,2.108,0,0,1,1.076,1.523l-.026.683a6.265,6.265,0,0,1-.394,1.6.407.407,0,0,1-.289.079q-.42,0-.42-.289a2.088,2.088,0,0,1,.079-.512,2.16,2.16,0,0,0,.079-.538,1.2,1.2,0,0,0-.394-.919,1.088,1.088,0,0,0-.761-.263,4.874,4.874,0,0,0-3.019,1.68,22.308,22.308,0,0,0-3.754,5.356,8.729,8.729,0,0,0-1.155,3.308q0,.866.945.866,2.232,0,7.614-3.7a19.9,19.9,0,0,1,2.442-1.47.331.331,0,0,1,.223.079.236.236,0,0,1,.092.184.506.506,0,0,1-.105.236,17.488,17.488,0,0,1-1.5,1.181Q66.224-39.749,63.389-39.749Zm22.37-.5a1.852,1.852,0,0,1-1.326-.578,2.173,2.173,0,0,1-.591-1.628q0-2.652,3.177-7.692a2.878,2.878,0,0,0,.341-.63V-50.8a5.327,5.327,0,0,0-.735.525,41.3,41.3,0,0,0-6.879,6.668A10.5,10.5,0,0,1,78.3-41.981a.9.9,0,0,1-.578.21,1.076,1.076,0,0,1-.866-.473,1.071,1.071,0,0,1-.105-.525,5.4,5.4,0,0,1,.459-1.8q.459-1.168,2.678-5.592a67.98,67.98,0,0,1,4.791-8.152,23.44,23.44,0,0,1,5.172-5.828,3.259,3.259,0,0,1,1.5-.63q1.575,0,1.575,1.706,0,2.153-4.489,7.062a29.136,29.136,0,0,1-6.406,5.487l-2.6,5.33a.906.906,0,0,0,.21-.158Q84.184-49.306,85-49.988q2.809-2.31,3.466-2.31.578,0,.578.761a11.837,11.837,0,0,1-1.391,3.413A29.344,29.344,0,0,0,85.878-44.2a6.289,6.289,0,0,0-.328,1.615q0,1,.5,1,1.391,0,4.069-2.179.656-.525,1.024-.814t1.181-1a5.332,5.332,0,0,1,.893-.709q.21,0,.21.131,0,.42-1.707,2.048a29.649,29.649,0,0,1-2.337,2.048,9.465,9.465,0,0,1-1.943,1.313A4.226,4.226,0,0,1,85.759-40.248Zm-3.045-11.5a15.153,15.153,0,0,0,1.208-1.05,39.623,39.623,0,0,0,5.2-5.7A13.865,13.865,0,0,0,91.3-62.275a2.1,2.1,0,0,0,.131-.551q0-.131-.079-.131-.446,0-1.917,1.523a39.355,39.355,0,0,0-4.332,5.75Q83.712-53.585,82.714-51.747ZM98.468-40.091H98.18a2.184,2.184,0,0,1-1.917-1.234,2.375,2.375,0,0,1-.21-1.1,5.451,5.451,0,0,1,.289-1.733,15.22,15.22,0,0,1,1.365-2.73,20.3,20.3,0,0,1,1.917-2.652q1.129-1.365,1.68-1.365.341,0,.341.42a9.215,9.215,0,0,1-1.208,2.31q-2.678,4.463-2.678,5.96,0,.971,1.076.971l.368-.026q1-.158,4.384-3.072a15.23,15.23,0,0,1,2.468-1.943.325.325,0,0,1,.341.21.323.323,0,0,1-.053.144,2.4,2.4,0,0,1-.249.315q-.2.223-1.483,1.378a41.612,41.612,0,0,1-3.977,3.255A4.46,4.46,0,0,1,98.468-40.091Zm3.676-11.368q-.394,0-.551-.473a1.248,1.248,0,0,1-.053-.341,1.685,1.685,0,0,1,.578-1.181,1.1,1.1,0,0,1,.735-.394q.656,0,.656.6a2.332,2.332,0,0,1-.223.866,1.479,1.479,0,0,1-.551.722A1.177,1.177,0,0,1,102.144-51.459Zm6.671,11.315q-.788,0-.788-.971a12.7,12.7,0,0,1,1.6-4.148,35.129,35.129,0,0,1,4.594-7.325q.236-.263.394-.263a.178.178,0,0,1,.131.053.431.431,0,0,1,.236.341.423.423,0,0,1-.053.184q-.709,1.1-3.229,6.17a26.37,26.37,0,0,0-1.286,2.7q.788-1.155,3.045-4.043a36.378,36.378,0,0,1,6.065-6.537,1.837,1.837,0,0,1,.971-.446q.866,0,1.011.263a1.128,1.128,0,0,1,.144.551,12.323,12.323,0,0,1-.788,2.625,15.212,15.212,0,0,0-1.1,4.2.894.894,0,0,0,1,1.024,3.2,3.2,0,0,0,.893-.158,11.142,11.142,0,0,1,1.575-.394q.026,0,.053.039a.215.215,0,0,1,.026.118,4.646,4.646,0,0,1-3.571,1.47,1.768,1.768,0,0,1-1.68-.893,1.575,1.575,0,0,1-.184-.84,15.073,15.073,0,0,1,1.5-5.014A10.943,10.943,0,0,0,120.1-53.3a.023.023,0,0,0-.026-.026,14.674,14.674,0,0,0-1.707,1.523,59.7,59.7,0,0,0-6.642,8.375,15.6,15.6,0,0,1-2.468,3.177A1.1,1.1,0,0,1,108.814-40.143Zm18.485.473a1.543,1.543,0,0,1-1.444-.866,1.787,1.787,0,0,1-.184-.893,6.6,6.6,0,0,1,.079-1.155,13.919,13.919,0,0,1,1.181-3.229,28.467,28.467,0,0,1,1.523-2.783,2.759,2.759,0,0,1-.42-1.181v-.473a3.363,3.363,0,0,1,.131-1,4.717,4.717,0,0,1,1.733-1.969,5.955,5.955,0,0,1,3.439-1.339,2.9,2.9,0,0,1,1.733.525,2.69,2.69,0,0,1,1.181,2.363,9.706,9.706,0,0,1-1.129,3.886l-.446,1.076q.053,0,.433.079t.971.171q.591.092.932.171a1.8,1.8,0,0,1,.473.158.237.237,0,0,1,.131.21q0,.21-.42.21a9.987,9.987,0,0,1-1.365-.158l-1.549-.263a26.972,26.972,0,0,1-3.15,4.1Q128.848-39.671,127.3-39.671Zm.263-1.838a2.922,2.922,0,0,0,.709-.341,15.831,15.831,0,0,0,3.229-3.413,8.749,8.749,0,0,0,.814-1.155q0-.053-.578-.236a5.517,5.517,0,0,1-1.313-.5,3.323,3.323,0,0,0-.735-.315q-.079.079-.788,1.549a11.566,11.566,0,0,0-1.5,4.279Q127.4-41.508,127.562-41.508Zm5.041-5.54q.158,0,.709-1.076a9.042,9.042,0,0,0,1.155-3.544q0-1.313-1.575-1.365a5.135,5.135,0,0,0-2.245.7,4.312,4.312,0,0,0-1.667,1.352,1.787,1.787,0,0,0-.171.591,4.522,4.522,0,0,0-.039.486,3.226,3.226,0,0,0,.105.63l.341-.394a1.841,1.841,0,0,1,1.286-.788q.525,0,.551.2a2.449,2.449,0,0,1,.026.276,1.407,1.407,0,0,1-.341.774A11.969,11.969,0,0,0,130-48.072a8.05,8.05,0,0,0,1.155.551A9.852,9.852,0,0,0,132.6-47.048Zm8.377,7.377a1.445,1.445,0,0,1-1.286-.683,1.886,1.886,0,0,1-.236-1.024q0-1.969,3.177-6.721,1.418-2.074,2.717-3.662a10.638,10.638,0,0,1,1.877-1.956,1.076,1.076,0,0,1,.473-.131q.656,0,.656.578a1.2,1.2,0,0,1-.289.6l-.525,1.024q-.158.446-.263.486a.669.669,0,0,1-.236.039.714.714,0,0,0-.551.368q-.42.525-1.47,2.1a46.732,46.732,0,0,0-2.639,4.345,7.862,7.862,0,0,0-1.011,2.481l.053.079a7.146,7.146,0,0,0,1.838-1.155,97.477,97.477,0,0,0,7.955-7.22q2.573-2.415,2.77-2.52a.738.738,0,0,1,.328-.105.719.719,0,0,1,.433.171.575.575,0,0,1,.223.486,1.722,1.722,0,0,1-.446.893,7.718,7.718,0,0,0-1,1.785A6.923,6.923,0,0,0,153-47.048q0,1.549,1.733,1.549a22.411,22.411,0,0,0,5.723-1.26q2.415-.735,6.773-2.205,6.511-2.179,6.8-2.179.236.053.236.236,0,.263-.368.42-1.418.656-7.8,2.862-8.664,2.993-11.342,2.993-2.809,0-2.809-2.757v-.945l-1.628,1.628Q143.264-39.671,140.98-39.671ZM191.155-27.1q-.893,0-.893-.84,0-.446,2.547-7.824,1.076-3.229,2.442-6.957a4.7,4.7,0,0,0,.263-1.05q0-.5-2.022-.814a3.352,3.352,0,0,1-1.3-.368.588.588,0,0,1-.2-.446q0-.84,2.179-2.547,1.129-.866,4.411-3.072a136.488,136.488,0,0,1,6.406-12.418,12.6,12.6,0,0,0,1.181-2.179.291.291,0,0,0-.013-.092.222.222,0,0,0-.092-.092.944.944,0,0,1-.144-.118.181.181,0,0,1-.066-.118,7.2,7.2,0,0,1,.945-1.024q.945-.945,1.116-1.155a.641.641,0,0,1,.459-.236.511.511,0,0,1,.42.2.714.714,0,0,1,.158.459,6.906,6.906,0,0,1-.866,2.337q-.683,1.391-2.127,4.017-1.864,3.387-3.6,6.931-.814,1.6-.814,1.68a6.724,6.724,0,0,0,.971-.5,125.405,125.405,0,0,1,17.249-7.745,56.324,56.324,0,0,1,6.642-2.284,13.135,13.135,0,0,1,2.337-.5q.341,0,.341.289,0,.551-3.544,2.179-2.31,1.076-4.909,2.1-8.48,3.255-13,5.435-5.645,2.757-6.327,3.282,1,1.943,1.68,3.544.525,1.181,1.444,2.927t1.6,2.875a19.133,19.133,0,0,0,7.089,6.852q.945.525,1.812.932a4.532,4.532,0,0,0,1.024.407q.551,0,.551.578a.447.447,0,0,1-.289.473l-.105.026a10.335,10.335,0,0,1-1.181-.158q-7.115-1.549-11.42-9.556a49.8,49.8,0,0,1-2.048-4.778q-.578-1.418-1.1-2.993-.131-.289-.158-.289a29.272,29.272,0,0,0-1.313,3.072q-2.074,5.2-4.883,13.521-1.286,3.754-1.549,4.437a4.433,4.433,0,0,1-.6,1.247A.882.882,0,0,1,191.155-27.1Zm4.752-17.511a11.568,11.568,0,0,0,.761-1.838,14.554,14.554,0,0,0,.709-1.864,13.623,13.623,0,0,0-1.838,1.1,14.484,14.484,0,0,0-2.31,1.628q0,.105.709.236a5.123,5.123,0,0,1,1.812.656Zm31.69,4.883a2.058,2.058,0,0,1-2.232-1.418,1.654,1.654,0,0,1-.079-.525,11.325,11.325,0,0,1,1.313-4.148l.551-1.234-2.494,2.363a33.377,33.377,0,0,1-4.7,3.938,4.262,4.262,0,0,1-2.048.683,1.875,1.875,0,0,1-1.706-1.076,2.1,2.1,0,0,1-.236-1q0-1.444,1.917-4.332,4.883-7.4,9.005-7.4a2.276,2.276,0,0,1,2.389,1.5,4.075,4.075,0,0,1,.079,1.024,4.455,4.455,0,0,0,.026.788l.709-.893q1.759-2.153,2.52-2.153.63,0,.63.656,0,.341-.63,1.024a28.039,28.039,0,0,0-5.277,9.005,3.746,3.746,0,0,0-.236,1.05q0,.5.709.5h.289a6.117,6.117,0,0,0,2.652-.761,30.92,30.92,0,0,0,4.043-2.6,11.336,11.336,0,0,1,2.284-1.444q.289,0,.289.315,0,.236-1.208,1.234a53.276,53.276,0,0,1-4.253,3.308A8.375,8.375,0,0,1,227.6-39.723Zm-9.4-1.943q1.706,0,6.826-4.568a41.5,41.5,0,0,0,3.886-3.676l.079-.21h-.079a.553.553,0,0,1-.3-.118.336.336,0,0,1-.171-.276l.053-.656a.847.847,0,0,0-.158-.473A1.335,1.335,0,0,0,227.1-52.3a3.684,3.684,0,0,0-1.785.473q-2.914,1.575-6.3,6.9a6.77,6.77,0,0,0-1.26,2.783Q217.752-41.666,218.2-41.666Zm29.774,1.733a1.745,1.745,0,0,1-.551-.079q-1.549-.6-1.549-3.045a13.775,13.775,0,0,1,.394-2.888l.053-.236a14.67,14.67,0,0,0-1.391,1.6,18.985,18.985,0,0,1-1.943,2.1,2.465,2.465,0,0,1-1.47.761,1.254,1.254,0,0,1-.656-.236,1.321,1.321,0,0,1-.525-1.234,12.66,12.66,0,0,1,1.365-4.542,12.718,12.718,0,0,1,3.177-4.621,1.342,1.342,0,0,1,.709-.289q.42,0,.42.394a1.173,1.173,0,0,1-.315.683,16.881,16.881,0,0,0-1.917,3.242,26.958,26.958,0,0,0-1.654,4.4,40.961,40.961,0,0,0,3.387-3.124,9.736,9.736,0,0,1,1.667-1.483q.171-.013.2-.013a.767.767,0,0,1,.407.144.593.593,0,0,1,.223.538,10.449,10.449,0,0,1-.263,1.5,15.936,15.936,0,0,0-.42,3.15v.341q0,1.444.735,1.444a2.29,2.29,0,0,0,1.234-.578,14.093,14.093,0,0,0,3.7-4.292,15.5,15.5,0,0,0,2.074-5.526q.053-.341.079-.774t.026-.722l-.026-.6a1.277,1.277,0,0,1,.735-1.313,1.076,1.076,0,0,1,.473-.131q.341,0,.446.42a6.38,6.38,0,0,1,.131,1.47,15.672,15.672,0,0,1-2.888,8.769,12.793,12.793,0,0,1-4.516,4.411A3.644,3.644,0,0,1,247.972-39.933Zm22.9.21a2.058,2.058,0,0,1-2.232-1.418,1.653,1.653,0,0,1-.079-.525,11.325,11.325,0,0,1,1.313-4.148l.551-1.234-2.494,2.363a33.375,33.375,0,0,1-4.7,3.938,4.262,4.262,0,0,1-2.048.683,1.875,1.875,0,0,1-1.706-1.076,2.1,2.1,0,0,1-.236-1q0-1.444,1.917-4.332,4.883-7.4,9.005-7.4a2.276,2.276,0,0,1,2.389,1.5,4.077,4.077,0,0,1,.079,1.024,4.452,4.452,0,0,0,.026.788l.709-.893q1.759-2.153,2.52-2.153.63,0,.63.656,0,.341-.63,1.024a28.039,28.039,0,0,0-5.277,9.005,3.747,3.747,0,0,0-.236,1.05q0,.5.709.5h.289a6.117,6.117,0,0,0,2.652-.761,30.922,30.922,0,0,0,4.043-2.6,11.337,11.337,0,0,1,2.284-1.444q.289,0,.289.315,0,.236-1.208,1.234a53.273,53.273,0,0,1-4.253,3.308A8.375,8.375,0,0,1,270.868-39.723Zm-9.4-1.943q1.706,0,6.826-4.568a41.5,41.5,0,0,0,3.886-3.676l.079-.21h-.079a.553.553,0,0,1-.3-.118.336.336,0,0,1-.171-.276l.053-.656a.847.847,0,0,0-.158-.473,1.335,1.335,0,0,0-1.234-.656,3.684,3.684,0,0,0-1.785.473q-2.914,1.575-6.3,6.9a6.77,6.77,0,0,0-1.26,2.783Q261.023-41.666,261.469-41.666Zm19.01,9.136a1.531,1.531,0,0,1-.42-.053,2.015,2.015,0,0,1-.893-.512,1.3,1.3,0,0,1-.263-.88q0-1.391,2.35-3.833a29.254,29.254,0,0,1,5.631-4.489q.788-.473.788-.6,0-.709-2.127-2.363a7.894,7.894,0,0,1-1.68-1.707,2.9,2.9,0,0,1-.473-1.6v-.184q0-2.494,3.229-4.857a6.836,6.836,0,0,1,3.781-1.575,1.792,1.792,0,0,1,1.812.893.752.752,0,0,1,.079.341,2.433,2.433,0,0,1-.788,1.365,8.8,8.8,0,0,0-.814.945.475.475,0,0,1-.394.21.436.436,0,0,1-.328-.158.527.527,0,0,1-.144-.368q0-.263.394-.525a2.988,2.988,0,0,0,.761-.788.724.724,0,0,0,.131-.289.128.128,0,0,0-.026-.066q-.026-.039-.289-.039-1.759.105-4.306,2.415a3.9,3.9,0,0,0-1.339,2.52,1.505,1.505,0,0,0,.158.683,8.494,8.494,0,0,0,1.943,1.864,6.06,6.06,0,0,1,1.812,1.969l.263.473,1.155-.473a42.5,42.5,0,0,1,4.909-1.706,9.937,9.937,0,0,1,1.628-.341q.473,0,.5.184a.329.329,0,0,1-.158.289l-.761.263q-1.365.5-3.728,1.286-.866.315-2.337.945l-.971.394q.053.5.079,1.024a6.656,6.656,0,0,1-1.549,3.991,20.337,20.337,0,0,1-1.693,1.825,21.046,21.046,0,0,1-2.035,1.772,10.237,10.237,0,0,1-2.284,1.352A4.711,4.711,0,0,1,280.479-32.53Zm-.42-1.286a2.68,2.68,0,0,0,1.208-.473,20.64,20.64,0,0,0,3.977-3.124,9.336,9.336,0,0,0,2.4-3.387,3.349,3.349,0,0,0,.21-.971.208.208,0,0,0-.026-.131,9.975,9.975,0,0,0-2.284,1.391,17.032,17.032,0,0,0-5.435,5.618,1.938,1.938,0,0,0-.315.814A.232.232,0,0,0,280.059-33.816Zm31.034-5.907a2.058,2.058,0,0,1-2.232-1.418,1.654,1.654,0,0,1-.079-.525,11.325,11.325,0,0,1,1.313-4.148l.551-1.234-2.494,2.363a33.38,33.38,0,0,1-4.7,3.938,4.262,4.262,0,0,1-2.048.683,1.875,1.875,0,0,1-1.707-1.076,2.1,2.1,0,0,1-.236-1q0-1.444,1.917-4.332,4.883-7.4,9.005-7.4a2.276,2.276,0,0,1,2.389,1.5,4.077,4.077,0,0,1,.079,1.024,4.454,4.454,0,0,0,.026.788l.709-.893q1.759-2.153,2.52-2.153.63,0,.63.656,0,.341-.63,1.024a28.04,28.04,0,0,0-5.277,9.005,3.746,3.746,0,0,0-.236,1.05q0,.5.709.5h.289a6.117,6.117,0,0,0,2.652-.761,30.928,30.928,0,0,0,4.043-2.6,11.334,11.334,0,0,1,2.284-1.444q.289,0,.289.315,0,.236-1.208,1.234a53.278,53.278,0,0,1-4.253,3.308A8.375,8.375,0,0,1,311.093-39.723Zm-9.4-1.943q1.706,0,6.826-4.568a41.511,41.511,0,0,0,3.886-3.676l.079-.21h-.079a.553.553,0,0,1-.3-.118.335.335,0,0,1-.171-.276l.052-.656a.847.847,0,0,0-.158-.473,1.335,1.335,0,0,0-1.234-.656,3.684,3.684,0,0,0-1.785.473q-2.914,1.575-6.3,6.9a6.77,6.77,0,0,0-1.26,2.783Q301.248-41.666,301.694-41.666Zm20.165,3.859a.681.681,0,0,1-.473-.236.53.53,0,0,1-.236-.473,3.81,3.81,0,0,1,.263-1.234q1.838-4.017,6.222-12.733,6.275-12.392,7.719-12.418h.21q.945,0,1.024,1.208a9.731,9.731,0,0,1-1.47,4.253,44.031,44.031,0,0,1-5.592,7.824l-.788.866q-2.914,5.933-2.914,5.986l.42-.5a63.264,63.264,0,0,1,5.251-5.96A8.428,8.428,0,0,1,333-52.509a1.5,1.5,0,0,1,.591-.184.817.817,0,0,1,.551.236,1.151,1.151,0,0,1,.42.945,3.753,3.753,0,0,1-.683,2.008,29.715,29.715,0,0,1-3.754,3.977l-1.05,1q0,.079.263.184a3.682,3.682,0,0,1,1.575,1.759q.5.919.735.985a2.07,2.07,0,0,0,.551.066,3.532,3.532,0,0,0,1.706-.617,26.222,26.222,0,0,0,2.888-2.166,17.1,17.1,0,0,1,2.625-1.917.2.2,0,0,1,.092.053.444.444,0,0,1,.105.118.236.236,0,0,1,.039.118,17.82,17.82,0,0,1-2.914,2.678,15.684,15.684,0,0,1-3.413,2.415,3.321,3.321,0,0,1-1.05.184h-.263a1.637,1.637,0,0,1-.958-.249,3.244,3.244,0,0,1-.8-1.063,4.124,4.124,0,0,0-.88-1.247,1.339,1.339,0,0,0-.853-.3,1.713,1.713,0,0,0-1.024.341,2.063,2.063,0,0,1-.788.341,1.055,1.055,0,0,1-.42-.105.607.607,0,0,1-.315-.263.023.023,0,0,0-.026-.026.36.36,0,0,0-.21.131q-.105.184-.683,1.037t-1.221,1.851q-.643,1-1.011,1.575Q322.331-37.807,321.859-37.807Zm5.723-7.85q1.549-1.313,3.045-2.862,2.021-2,2.022-2.363v-.026a1.671,1.671,0,0,0-.289.21q-1.5,1.339-2.678,2.625Q329.1-47.468,327.582-45.657Zm3.255-9.11.263-.394q.761-1.024,1.969-3.045a25.023,25.023,0,0,0,1.47-2.835,6.647,6.647,0,0,0,.394-1.024q-.052,0-1.47,2.415-.945,1.575-1.785,3.19T330.838-54.767ZM344.7-40.091h-.289a2.184,2.184,0,0,1-1.917-1.234,2.375,2.375,0,0,1-.21-1.1,5.452,5.452,0,0,1,.289-1.733,15.221,15.221,0,0,1,1.365-2.73,20.3,20.3,0,0,1,1.917-2.652q1.129-1.365,1.68-1.365.341,0,.341.42a9.215,9.215,0,0,1-1.208,2.31q-2.678,4.463-2.678,5.96,0,.971,1.076.971l.368-.026q1-.158,4.384-3.072a15.231,15.231,0,0,1,2.468-1.943.325.325,0,0,1,.341.21.323.323,0,0,1-.052.144,2.4,2.4,0,0,1-.249.315q-.2.223-1.483,1.378a41.612,41.612,0,0,1-3.977,3.255A4.46,4.46,0,0,1,344.7-40.091Zm3.676-11.368q-.394,0-.551-.473a1.249,1.249,0,0,1-.052-.341,1.685,1.685,0,0,1,.578-1.181,1.1,1.1,0,0,1,.735-.394q.656,0,.656.6a2.332,2.332,0,0,1-.223.866,1.479,1.479,0,0,1-.551.722A1.177,1.177,0,0,1,348.377-51.459Z" transform="translate(10.734 68.445)" fill="#f8f8f8"/>
</svg>
