<svg xmlns="http://www.w3.org/2000/svg" width="459.738" height="630.45" viewBox="0 0 459.738 630.45">
  <g id="パス_3567" data-name="パス 3567" transform="translate(12.029 -2.668)" fill="#fff" opacity="0.21" style="mix-blend-mode: overlay;isolation: isolate">
    <path d="M 20.61380004882812 632.5932006835938 L -11.51163768768311 388.8933410644531 L 57.59853744506836 267.5433654785156 L 57.65038299560547 267.4523620605469 L 57.66130447387695 267.3482055664062 L 70.86830902099609 141.8833770751953 L 85.688720703125 3.213139533996582 L 277.5926208496094 21.70536613464355 L 447.1762390136719 275.9588928222656 L 375.8772583007812 612.8472290039062 L 20.61380004882812 632.5932006835938 Z" stroke="none"/>
    <path d="M 86.13330078125 3.75830078125 L 71.3656005859375 141.9357604980469 L 58.13668823242188 267.6088256835938 L 58.03298950195312 267.790771484375 L -10.99398803710938 388.99462890625 L 21.04888916015625 632.0682373046875 L 375.4672546386719 612.3692626953125 L 446.6435546875 276.0611572265625 L 277.3084716796875 22.1802978515625 L 86.13330078125 3.75830078125 M 85.244140625 2.66796875 L 277.8769226074219 21.23046875 L 447.708984375 275.8564453125 L 376.2870788574219 613.3251953125 L 20.17868041992188 633.1181640625 L -12.029296875 388.7919921875 L 57.1640625 267.2958984375 L 70.37106323242188 141.8310546875 L 85.244140625 2.66796875 Z" stroke="none" fill="#707070"/>
  </g>
</svg>
