<svg xmlns="http://www.w3.org/2000/svg" width="303.392" height="41.717" viewBox="0 0 303.392 41.717">
  <path id="パス_3100" data-name="パス 3100" d="M-10.262-27.64h-.105a.783.783,0,0,1-.6-.3.966.966,0,0,1-.263-.643q0-1.313,2.73-9.11,1.943-5.566,2.7-8.349a20.717,20.717,0,0,0,.84-5.172,6.661,6.661,0,0,0-1.733-4.8,6.093,6.093,0,0,0-1.89-1.313,14.759,14.759,0,0,0-3.045-.893q-2.232-.446-2.625-1.155a1.012,1.012,0,0,1-.131-.5q0-1.05,2.31-2.6,5.933-3.964,17.8-5.8a9.665,9.665,0,0,0,1.746-.354,1.431,1.431,0,0,0,.407-.328,1.221,1.221,0,0,1,.814-.394,1.015,1.015,0,0,1,.656.263,1.262,1.262,0,0,0,.709.21q.341.026,2.914.026,3.36.053,5.566.289A50.742,50.742,0,0,1,28.3-66.837a4.488,4.488,0,0,1,1.549.683.452.452,0,0,1,.105.289.344.344,0,0,1-.158.341,9.6,9.6,0,0,1-2.678.184,39.328,39.328,0,0,1-3.991-.368q-1.444-.21-4.726-.63a53.044,53.044,0,0,0-6.091-.315q-1.129,0-2.967.131-1.6,3.308-4.673,9.136Q1.079-50.691-1.192-46T-5.878-35.621Q-7.69-31.342-8.53-29.714-9.58-27.666-10.262-27.64Zm4.7-14.466a16.171,16.171,0,0,0,.893-1.785q.84-1.785,2.914-5.933,1.1-2.153,4.437-8.506,1.208-2.205,3.938-7.377-1.89,1.917-2.127,2.232-.394.446-.5.446a.256.256,0,0,1-.171-.092.3.3,0,0,1-.092-.223q0-.394.971-1.523.368-.473.63-.788a1.407,1.407,0,0,0,.263-.368q0-.053-.184-.053l-.131.026a13.182,13.182,0,0,1-1.339.236l-.525.105A48.919,48.919,0,0,0-9.737-61.77,23.848,23.848,0,0,0-12.231-60.4l-.079.053q-.42.315-.42.42,0,.184,1.733.63a.582.582,0,0,0,.184.026,15.194,15.194,0,0,1,3.1,1.076,6.817,6.817,0,0,1,2,1.549,7.719,7.719,0,0,1,2,5.461,31.49,31.49,0,0,1-1.628,8.375Zm22.239,2.022A2.058,2.058,0,0,1,14.445-41.5a1.654,1.654,0,0,1-.079-.525,11.325,11.325,0,0,1,1.313-4.148l.551-1.234-2.494,2.363a33.377,33.377,0,0,1-4.7,3.938,4.262,4.262,0,0,1-2.048.683A1.875,1.875,0,0,1,5.282-41.5a2.1,2.1,0,0,1-.236-1q0-1.444,1.917-4.332,4.883-7.4,9.005-7.4a2.276,2.276,0,0,1,2.389,1.5,4.076,4.076,0,0,1,.079,1.024,4.454,4.454,0,0,0,.026.788l.709-.893q1.759-2.153,2.52-2.153.63,0,.63.656,0,.341-.63,1.024a28.039,28.039,0,0,0-5.277,9.005,3.746,3.746,0,0,0-.236,1.05q0,.5.709.5h.289a6.117,6.117,0,0,0,2.652-.761,30.921,30.921,0,0,0,4.043-2.6,11.336,11.336,0,0,1,2.284-1.444q.289,0,.289.315,0,.236-1.208,1.234a53.274,53.274,0,0,1-4.253,3.308A8.375,8.375,0,0,1,16.676-40.084Zm-9.4-1.943q1.706,0,6.826-4.568a41.5,41.5,0,0,0,3.886-3.676l.079-.21h-.079a.553.553,0,0,1-.3-.118.336.336,0,0,1-.171-.276l.053-.656A.847.847,0,0,0,17.411-52a1.335,1.335,0,0,0-1.234-.656,3.684,3.684,0,0,0-1.785.473q-2.914,1.575-6.3,6.9A6.77,6.77,0,0,0,6.831-42.5Q6.831-42.027,7.277-42.027Zm20.165,3.859a.681.681,0,0,1-.473-.236.53.53,0,0,1-.236-.473A3.81,3.81,0,0,1,27-40.111q1.838-4.017,6.222-12.733,6.275-12.392,7.719-12.418h.21q.945,0,1.024,1.208A9.731,9.731,0,0,1,40.7-59.8a44.029,44.029,0,0,1-5.592,7.824l-.788.866q-2.914,5.933-2.914,5.986l.42-.5a63.266,63.266,0,0,1,5.251-5.96,8.427,8.427,0,0,1,1.51-1.286,1.5,1.5,0,0,1,.591-.184.817.817,0,0,1,.551.236,1.151,1.151,0,0,1,.42.945,3.753,3.753,0,0,1-.683,2.008,29.716,29.716,0,0,1-3.754,3.977l-1.05,1q0,.079.263.184A3.682,3.682,0,0,1,36.5-42.946q.5.919.735.985a2.07,2.07,0,0,0,.551.066,3.532,3.532,0,0,0,1.706-.617,26.224,26.224,0,0,0,2.888-2.166A17.1,17.1,0,0,1,45.006-46.6a.2.2,0,0,1,.092.053.444.444,0,0,1,.105.118.235.235,0,0,1,.039.118,17.82,17.82,0,0,1-2.914,2.678,15.685,15.685,0,0,1-3.413,2.415,3.321,3.321,0,0,1-1.05.184H37.6a1.637,1.637,0,0,1-.958-.249,3.244,3.244,0,0,1-.8-1.063,4.123,4.123,0,0,0-.88-1.247,1.338,1.338,0,0,0-.853-.3,1.714,1.714,0,0,0-1.024.341,2.063,2.063,0,0,1-.788.341,1.055,1.055,0,0,1-.42-.105.607.607,0,0,1-.315-.263.023.023,0,0,0-.026-.026.359.359,0,0,0-.21.131q-.105.184-.683,1.037t-1.221,1.851q-.643,1-1.011,1.575Q27.915-38.168,27.442-38.168Zm5.723-7.85q1.549-1.313,3.045-2.862,2.022-2,2.022-2.363v-.026a1.67,1.67,0,0,0-.289.21q-1.5,1.339-2.678,2.625Q34.688-47.829,33.166-46.018Zm3.255-9.11.263-.394q.761-1.024,1.969-3.045a25.026,25.026,0,0,0,1.47-2.835,6.649,6.649,0,0,0,.394-1.024q-.053,0-1.47,2.415-.945,1.575-1.785,3.19T36.421-55.128Zm22.4,15.043A2.058,2.058,0,0,1,56.586-41.5a1.654,1.654,0,0,1-.079-.525,11.325,11.325,0,0,1,1.313-4.148l.551-1.234-2.494,2.363a33.377,33.377,0,0,1-4.7,3.938,4.262,4.262,0,0,1-2.048.683A1.875,1.875,0,0,1,47.424-41.5a2.1,2.1,0,0,1-.236-1q0-1.444,1.917-4.332,4.883-7.4,9.005-7.4a2.276,2.276,0,0,1,2.389,1.5,4.076,4.076,0,0,1,.079,1.024,4.455,4.455,0,0,0,.026.788l.709-.893q1.759-2.153,2.52-2.153.63,0,.63.656,0,.341-.63,1.024a28.039,28.039,0,0,0-5.277,9.005,3.746,3.746,0,0,0-.236,1.05q0,.5.709.5h.289a6.117,6.117,0,0,0,2.652-.761,30.921,30.921,0,0,0,4.043-2.6A11.336,11.336,0,0,1,68.3-46.543q.289,0,.289.315,0,.236-1.208,1.234a53.273,53.273,0,0,1-4.253,3.308A8.375,8.375,0,0,1,58.818-40.084Zm-9.4-1.943q1.707,0,6.826-4.568a41.5,41.5,0,0,0,3.886-3.676l.079-.21H60.13a.553.553,0,0,1-.3-.118.336.336,0,0,1-.171-.276l.053-.656A.847.847,0,0,0,59.553-52a1.335,1.335,0,0,0-1.234-.656,3.684,3.684,0,0,0-1.785.473q-2.914,1.575-6.3,6.9a6.77,6.77,0,0,0-1.26,2.783Q48.972-42.027,49.419-42.027Zm22.16.84a.848.848,0,0,1-.63-.315.966.966,0,0,1-.289-.656,10.3,10.3,0,0,1,.945-2.625q1.313-2.94,3.439-6.879a12.2,12.2,0,0,1,1.1-1.838.83.83,0,0,1,.473-.21.714.714,0,0,1,.459.158.485.485,0,0,1,.2.394,2.218,2.218,0,0,1-.131.617,11.409,11.409,0,0,1-.5,1.195q-.368.788-1.011,2.127t-1.09,2.271q-.446.932-.486.985a.159.159,0,0,0-.039.079h.026a2.731,2.731,0,0,0,.473-.578,70.931,70.931,0,0,1,7.85-9.031q1.943-1.864,2.415-1.864a.647.647,0,0,1,.368.105.74.74,0,0,1,.341.683,14.51,14.51,0,0,1-1.68,4.174q-2.258,4.542-3.859,8.69,1.076-1.129,3.045-3.7,4.778-6.091,5.855-6.826a1.183,1.183,0,0,1,.735-.263q.446,0,.446.551a18.3,18.3,0,0,1-1.6,4.791q-1.6,3.794-1.812,4.581a3.114,3.114,0,0,0-.131.814q0,.42.105.459a.669.669,0,0,0,.236.039l.341-.026a11.809,11.809,0,0,0,4.017-1.943A8.841,8.841,0,0,1,93.344-46.6q.289,0,.289.184,0,.236-.63.8t-1.89,1.523q-1.26.958-1.969,1.4a5.477,5.477,0,0,1-2.547.893,1.468,1.468,0,0,1-1.523-.945,2.4,2.4,0,0,1-.053-.63v-.525a5.178,5.178,0,0,1,.158-1.26,27.225,27.225,0,0,1,2.809-6.563l.551-.945a73.349,73.349,0,0,0-5.671,6.984q-2.284,3.2-2.757,3.7a1.593,1.593,0,0,1-.564.473,1.535,1.535,0,0,1-.512.079,1.03,1.03,0,0,1-1.024-.683,1.174,1.174,0,0,1-.131-.578,7.56,7.56,0,0,1,.761-2.494A74.576,74.576,0,0,1,83.6-54.97q.341-.6.564-.985a1.659,1.659,0,0,0,.223-.459A7.955,7.955,0,0,0,82.868-55.1,57.376,57.376,0,0,0,74.1-43.97a14.179,14.179,0,0,1-1.562,2.232A1.472,1.472,0,0,1,71.579-41.187Zm25.416,1.155a1.445,1.445,0,0,1-1.286-.683,1.886,1.886,0,0,1-.236-1.024q0-1.969,3.177-6.721,1.418-2.074,2.717-3.662a10.639,10.639,0,0,1,1.877-1.956,1.076,1.076,0,0,1,.473-.131q.656,0,.656.578a1.2,1.2,0,0,1-.289.6L103.558-52q-.158.446-.263.486a.669.669,0,0,1-.236.039.714.714,0,0,0-.551.368q-.42.525-1.47,2.1A46.734,46.734,0,0,0,98.4-44.666a7.863,7.863,0,0,0-1.011,2.481l.053.079a7.146,7.146,0,0,0,1.838-1.155,97.478,97.478,0,0,0,7.955-7.22Q109.807-52.9,110-53a.738.738,0,0,1,.328-.105.719.719,0,0,1,.433.171.575.575,0,0,1,.223.486,1.722,1.722,0,0,1-.446.893,7.718,7.718,0,0,0-1,1.785,6.923,6.923,0,0,0-.525,2.363q0,1.549,1.733,1.549a22.411,22.411,0,0,0,5.723-1.26q2.415-.735,6.773-2.205,6.511-2.179,6.8-2.179.236.053.236.236,0,.263-.368.42-1.418.656-7.8,2.862-8.664,2.993-11.342,2.993-2.809,0-2.809-2.757V-48.7l-1.628,1.628Q99.279-40.032,96.995-40.032Zm51.2,12.392h-.105a.783.783,0,0,1-.6-.3.966.966,0,0,1-.263-.643q0-1.313,2.73-9.11,1.943-5.566,2.7-8.349a20.717,20.717,0,0,0,.84-5.172,6.661,6.661,0,0,0-1.733-4.8,6.093,6.093,0,0,0-1.89-1.313,14.759,14.759,0,0,0-3.045-.893q-2.232-.446-2.625-1.155a1.012,1.012,0,0,1-.131-.5q0-1.05,2.31-2.6,5.933-3.964,17.8-5.8a9.665,9.665,0,0,0,1.746-.354,1.431,1.431,0,0,0,.407-.328,1.221,1.221,0,0,1,.814-.394,1.015,1.015,0,0,1,.656.263,1.262,1.262,0,0,0,.709.21q.341.026,2.914.026,3.361.053,5.566.289a50.743,50.743,0,0,1,9.766,1.733,4.488,4.488,0,0,1,1.549.683.452.452,0,0,1,.105.289.344.344,0,0,1-.158.341,9.6,9.6,0,0,1-2.678.184,39.328,39.328,0,0,1-3.991-.368q-1.444-.21-4.726-.63a53.043,53.043,0,0,0-6.091-.315q-1.129,0-2.967.131-1.6,3.308-4.673,9.136-3.6,6.695-5.868,11.381t-4.686,10.383q-1.812,4.279-2.652,5.907Q148.877-27.666,148.194-27.64Zm4.7-14.466a16.174,16.174,0,0,0,.893-1.785q.84-1.785,2.914-5.933,1.1-2.153,4.437-8.506,1.208-2.205,3.938-7.377-1.89,1.917-2.127,2.232-.394.446-.5.446a.256.256,0,0,1-.171-.092.3.3,0,0,1-.092-.223q0-.394.971-1.523.368-.473.63-.788a1.407,1.407,0,0,0,.263-.368q0-.053-.184-.053l-.131.026a13.181,13.181,0,0,1-1.339.236l-.525.105a48.919,48.919,0,0,0-13.153,3.938,23.847,23.847,0,0,0-2.494,1.365l-.079.053q-.42.315-.42.42,0,.184,1.733.63a.582.582,0,0,0,.184.026,15.194,15.194,0,0,1,3.1,1.076,6.817,6.817,0,0,1,2,1.549,7.719,7.719,0,0,1,2,5.461,31.489,31.489,0,0,1-1.628,8.375Zm15.019,1.549h-.394a2.728,2.728,0,0,1-1-.184,3.035,3.035,0,0,1-1.68-3.045,11.37,11.37,0,0,1,1.575-5.146,15.479,15.479,0,0,1,2.94-3.964,4.518,4.518,0,0,1,2.783-1.391,1.971,1.971,0,0,1,1.365.551,1.508,1.508,0,0,1,.5,1.181,4.185,4.185,0,0,1-1.286,2.652,7.512,7.512,0,0,1-2.468,1.89,2.558,2.558,0,0,1-1.05.21,4.309,4.309,0,0,1-1.26-.21,6.819,6.819,0,0,0-.551.971,8.955,8.955,0,0,0-1.05,4.122,1.285,1.285,0,0,0,.6,1.26,2.8,2.8,0,0,0,1.181.184,3.96,3.96,0,0,0,1.313-.263,10.4,10.4,0,0,0,2.31-1.076,51.7,51.7,0,0,0,4.411-3.229,2.506,2.506,0,0,1,.893-.578.151.151,0,0,1,.105.053q.053.053.053.079l.184.184q-.63.63-1.313,1.208-1.575,1.313-2.835,2.232Q170.144-40.557,167.913-40.557Zm.683-8.112a2.451,2.451,0,0,0,1.68-.814,8.063,8.063,0,0,0,1.812-2.31,1.765,1.765,0,0,0,.184-.5q0-.184-.21-.184a1.876,1.876,0,0,0-.814.394,6.224,6.224,0,0,0-1.024.866,9.192,9.192,0,0,0-.748.88q-.433.564-1.142,1.615A.584.584,0,0,0,168.6-48.669ZM179.808-40.5q-.788,0-.788-.971a12.7,12.7,0,0,1,1.6-4.148,35.129,35.129,0,0,1,4.594-7.325q.236-.263.394-.263a.178.178,0,0,1,.131.053.431.431,0,0,1,.236.341.423.423,0,0,1-.053.184q-.709,1.1-3.229,6.17a26.373,26.373,0,0,0-1.286,2.7q.788-1.155,3.045-4.043a36.378,36.378,0,0,1,6.065-6.537,1.837,1.837,0,0,1,.971-.446q.866,0,1.011.263a1.128,1.128,0,0,1,.144.551,12.324,12.324,0,0,1-.788,2.625,15.212,15.212,0,0,0-1.1,4.2.894.894,0,0,0,1,1.024,3.2,3.2,0,0,0,.893-.158,11.14,11.14,0,0,1,1.575-.394q.026,0,.053.039a.215.215,0,0,1,.026.118,4.646,4.646,0,0,1-3.571,1.47,1.768,1.768,0,0,1-1.68-.893,1.575,1.575,0,0,1-.184-.84,15.073,15.073,0,0,1,1.5-5.014,10.943,10.943,0,0,0,.735-1.864.023.023,0,0,0-.026-.026,14.673,14.673,0,0,0-1.706,1.523,59.7,59.7,0,0,0-6.642,8.375,15.6,15.6,0,0,1-2.468,3.177A1.1,1.1,0,0,1,179.808-40.5Zm28.067.42a2.058,2.058,0,0,1-2.232-1.418,1.654,1.654,0,0,1-.079-.525,11.325,11.325,0,0,1,1.313-4.148l.551-1.234-2.494,2.363a33.378,33.378,0,0,1-4.7,3.938,4.262,4.262,0,0,1-2.048.683,1.875,1.875,0,0,1-1.706-1.076,2.1,2.1,0,0,1-.236-1q0-1.444,1.917-4.332,4.883-7.4,9.005-7.4a2.276,2.276,0,0,1,2.389,1.5,4.076,4.076,0,0,1,.079,1.024,4.458,4.458,0,0,0,.026.788l.709-.893q1.759-2.153,2.52-2.153.63,0,.63.656,0,.341-.63,1.024a28.039,28.039,0,0,0-5.277,9.005,3.746,3.746,0,0,0-.236,1.05q0,.5.709.5h.289a6.117,6.117,0,0,0,2.652-.761,30.922,30.922,0,0,0,4.043-2.6,11.337,11.337,0,0,1,2.284-1.444q.289,0,.289.315,0,.236-1.208,1.234a53.277,53.277,0,0,1-4.253,3.308A8.375,8.375,0,0,1,207.875-40.084Zm-9.4-1.943q1.707,0,6.826-4.568a41.5,41.5,0,0,0,3.886-3.676l.079-.21h-.079a.553.553,0,0,1-.3-.118.336.336,0,0,1-.171-.276l.053-.656A.847.847,0,0,0,208.61-52a1.335,1.335,0,0,0-1.234-.656,3.684,3.684,0,0,0-1.785.473q-2.914,1.575-6.3,6.9a6.77,6.77,0,0,0-1.26,2.783Q198.03-42.027,198.476-42.027Zm17.618,12.051a2.706,2.706,0,0,1-.683-.105,1.891,1.891,0,0,1-1.5-2.048q0-1.5,2.284-3.7a36.682,36.682,0,0,1,10.738-7.01l1.234-.551a5.231,5.231,0,0,0,1.063-.5.35.35,0,0,0,.092-.236q0-.42-1.155-.42a8.672,8.672,0,0,0-1.076.066,13.994,13.994,0,0,0-1.523.315q-1,.249-2.835.748a6.633,6.633,0,0,1-1.628.289,1.139,1.139,0,0,1-.551-.105,1.119,1.119,0,0,1-.63-1.05,1.81,1.81,0,0,1,.263-.866,10.036,10.036,0,0,1,1.09-1.431q.827-.958,2.455-2.717,3.859-4.174,3.859-4.752,0-.158-.5-.158a7.925,7.925,0,0,0-2.586.525,6.363,6.363,0,0,0-2.166,1.155q-.341.341-.525.341a.209.209,0,0,1-.236-.236q0-.473.919-1.444a7.223,7.223,0,0,1,3.019-1.654,6.943,6.943,0,0,1,1.864-.263,2.481,2.481,0,0,1,1.076.184,1.516,1.516,0,0,1,.919,1.365,2.9,2.9,0,0,1-.315,1.221,9.283,9.283,0,0,1-1.195,1.746q-.88,1.076-3.111,3.492-.551.578-.932,1.011t-.643.722q-.263.289-.42.459a3.029,3.029,0,0,0-.223.263.323.323,0,0,0-.066.118h.026q.21-.053.919-.249t1.5-.394q.788-.2,1.181-.276a8.519,8.519,0,0,1,2.022-.184,6.286,6.286,0,0,1,1.313.079,2.086,2.086,0,0,1,1.5,1.26q.21.42.263.42a5.368,5.368,0,0,0,.6-.184q1.26-.446,5.3-1.523a8.053,8.053,0,0,1,1.444-.289q.263,0,.263.236,0,.184-.341.315-.971.368-3.15,1-3.2.971-4.227,1.391-1.234,3.728-6.537,8.716-4.594,4.174-7.614,4.778A4.3,4.3,0,0,1,216.095-29.977Zm0-1.812a3.536,3.536,0,0,0,1.076-.236q2.967-1,7.325-5.356a26.572,26.572,0,0,0,4.174-5.041l.21-.341q-2.678,1.234-4.857,2.468a25.938,25.938,0,0,0-5.7,4.279q-2.678,2.573-2.678,3.964a.223.223,0,0,0,.118.184A.587.587,0,0,0,216.095-31.788Zm26.7-8.244a1.543,1.543,0,0,1-1.444-.866,1.787,1.787,0,0,1-.184-.893,6.6,6.6,0,0,1,.079-1.155,13.918,13.918,0,0,1,1.181-3.229,28.464,28.464,0,0,1,1.523-2.783,2.759,2.759,0,0,1-.42-1.181v-.473a3.363,3.363,0,0,1,.131-1,4.718,4.718,0,0,1,1.733-1.969,5.955,5.955,0,0,1,3.439-1.339,2.9,2.9,0,0,1,1.733.525,2.691,2.691,0,0,1,1.181,2.363,9.706,9.706,0,0,1-1.129,3.886l-.446,1.076q.053,0,.433.079t.971.171q.591.092.932.171a1.8,1.8,0,0,1,.473.158.237.237,0,0,1,.131.21q0,.21-.42.21a9.986,9.986,0,0,1-1.365-.158l-1.549-.263a26.973,26.973,0,0,1-3.15,4.1Q244.346-40.032,242.8-40.032Zm.263-1.838a2.922,2.922,0,0,0,.709-.341A15.83,15.83,0,0,0,247-45.624a8.75,8.75,0,0,0,.814-1.155q0-.053-.578-.236a5.517,5.517,0,0,1-1.313-.5,3.324,3.324,0,0,0-.735-.315q-.079.079-.788,1.549A11.566,11.566,0,0,0,242.9-42Q242.9-41.87,243.06-41.87Zm5.041-5.54q.158,0,.709-1.076a9.041,9.041,0,0,0,1.155-3.544q0-1.313-1.575-1.365a5.135,5.135,0,0,0-2.245.7,4.312,4.312,0,0,0-1.667,1.352,1.787,1.787,0,0,0-.171.591,4.521,4.521,0,0,0-.039.486,3.227,3.227,0,0,0,.105.63l.341-.394A1.841,1.841,0,0,1,246-50.822q.525,0,.551.2a2.449,2.449,0,0,1,.026.276,1.407,1.407,0,0,1-.341.774,11.972,11.972,0,0,0-.735,1.142,8.048,8.048,0,0,0,1.155.551A9.851,9.851,0,0,0,248.1-47.409Zm18.222,8.034a1.431,1.431,0,0,1-.788-.236,2.053,2.053,0,0,1-.893-1.969l.052-.735a17.847,17.847,0,0,1,2.074-5.461q1.313-2.678,2.415-4.489a6.82,6.82,0,0,0,.551-1,32.033,32.033,0,0,0-2.573,2.048,60.845,60.845,0,0,0-8.086,7.85,12.468,12.468,0,0,1-1.483,1.628,1.812,1.812,0,0,1-1.168.368q-1-.079-1-1.523.105-1.418,2.337-5.408a31.615,31.615,0,0,1,3.177-4.831q.525-.578.735-.578h.026q.184,0,.223.053a1.524,1.524,0,0,1,.039.5,6.13,6.13,0,0,1-.656,1.628,68.867,68.867,0,0,0-3.439,7.115,33.64,33.64,0,0,0,3.886-3.413q7.9-7.377,9.294-7.377a.76.76,0,0,1,.735.866,5.223,5.223,0,0,1-.63,2.074l-1.1,2.205a59.856,59.856,0,0,0-3.1,6.432,6.264,6.264,0,0,0-.42,2.127q0,.709.368.735h.026q.578,0,2.967-2.022.683-.578,1.129-.945t1.864-1.654a7.511,7.511,0,0,1,1.6-1.286q.079,0,.21.263a11.543,11.543,0,0,1-1.785,1.943q-1.759,1.733-2.652,2.533t-1.72,1.47a7.085,7.085,0,0,1-1.221.853A2.566,2.566,0,0,1,266.323-39.376Zm12.368-.656a1.543,1.543,0,0,1-1.444-.866,1.787,1.787,0,0,1-.184-.893,6.6,6.6,0,0,1,.079-1.155,13.919,13.919,0,0,1,1.181-3.229,28.461,28.461,0,0,1,1.523-2.783,2.759,2.759,0,0,1-.42-1.181v-.473a3.363,3.363,0,0,1,.131-1,4.718,4.718,0,0,1,1.733-1.969,5.955,5.955,0,0,1,3.439-1.339,2.9,2.9,0,0,1,1.733.525,2.69,2.69,0,0,1,1.181,2.363,9.706,9.706,0,0,1-1.129,3.886l-.446,1.076q.053,0,.433.079t.971.171q.591.092.932.171a1.8,1.8,0,0,1,.473.158.237.237,0,0,1,.131.21q0,.21-.42.21a9.986,9.986,0,0,1-1.365-.158l-1.549-.263a26.974,26.974,0,0,1-3.15,4.1Q280.239-40.032,278.69-40.032Zm.263-1.838a2.923,2.923,0,0,0,.709-.341,15.831,15.831,0,0,0,3.229-3.413,8.748,8.748,0,0,0,.814-1.155q0-.053-.578-.236a5.517,5.517,0,0,1-1.313-.5,3.323,3.323,0,0,0-.735-.315q-.079.079-.788,1.549A11.566,11.566,0,0,0,278.8-42Q278.8-41.87,278.953-41.87Zm5.041-5.54q.158,0,.709-1.076a9.041,9.041,0,0,0,1.155-3.544q0-1.313-1.575-1.365a5.135,5.135,0,0,0-2.245.7,4.312,4.312,0,0,0-1.667,1.352,1.787,1.787,0,0,0-.171.591,4.521,4.521,0,0,0-.039.486,3.227,3.227,0,0,0,.105.63l.341-.394a1.841,1.841,0,0,1,1.286-.788q.525,0,.551.2a2.452,2.452,0,0,1,.026.276,1.407,1.407,0,0,1-.341.774,11.975,11.975,0,0,0-.735,1.142,8.05,8.05,0,0,0,1.155.551A9.85,9.85,0,0,0,283.994-47.409Z" transform="translate(14.384 69.357)" fill="#f8f8f8"/>
</svg>
