<svg xmlns="http://www.w3.org/2000/svg" width="253.847" height="41.717" viewBox="0 0 253.847 41.717">
  <path id="パス_3101" data-name="パス 3101" d="M-10.262-27.64h-.105a.783.783,0,0,1-.6-.3.966.966,0,0,1-.263-.643q0-1.313,2.73-9.11,1.943-5.566,2.7-8.349a20.717,20.717,0,0,0,.84-5.172,6.661,6.661,0,0,0-1.733-4.8,6.093,6.093,0,0,0-1.89-1.313,14.759,14.759,0,0,0-3.045-.893q-2.232-.446-2.625-1.155a1.012,1.012,0,0,1-.131-.5q0-1.05,2.31-2.6,5.933-3.964,17.8-5.8a9.665,9.665,0,0,0,1.746-.354,1.431,1.431,0,0,0,.407-.328,1.221,1.221,0,0,1,.814-.394,1.015,1.015,0,0,1,.656.263,1.262,1.262,0,0,0,.709.21q.341.026,2.914.026,3.36.053,5.566.289A50.742,50.742,0,0,1,28.3-66.837a4.488,4.488,0,0,1,1.549.683.452.452,0,0,1,.105.289.344.344,0,0,1-.158.341,9.6,9.6,0,0,1-2.678.184,39.328,39.328,0,0,1-3.991-.368q-1.444-.21-4.726-.63a53.044,53.044,0,0,0-6.091-.315q-1.129,0-2.967.131-1.6,3.308-4.673,9.136Q1.079-50.691-1.192-46T-5.878-35.621Q-7.69-31.342-8.53-29.714-9.58-27.666-10.262-27.64Zm4.7-14.466a16.171,16.171,0,0,0,.893-1.785q.84-1.785,2.914-5.933,1.1-2.153,4.437-8.506,1.208-2.205,3.938-7.377-1.89,1.917-2.127,2.232-.394.446-.5.446a.256.256,0,0,1-.171-.092.3.3,0,0,1-.092-.223q0-.394.971-1.523.368-.473.63-.788a1.407,1.407,0,0,0,.263-.368q0-.053-.184-.053l-.131.026a13.182,13.182,0,0,1-1.339.236l-.525.105A48.919,48.919,0,0,0-9.737-61.77,23.848,23.848,0,0,0-12.231-60.4l-.079.053q-.42.315-.42.42,0,.184,1.733.63a.582.582,0,0,0,.184.026,15.194,15.194,0,0,1,3.1,1.076,6.817,6.817,0,0,1,2,1.549,7.719,7.719,0,0,1,2,5.461,31.49,31.49,0,0,1-1.628,8.375Zm22.239,2.022A2.058,2.058,0,0,1,14.445-41.5a1.654,1.654,0,0,1-.079-.525,11.325,11.325,0,0,1,1.313-4.148l.551-1.234-2.494,2.363a33.377,33.377,0,0,1-4.7,3.938,4.262,4.262,0,0,1-2.048.683A1.875,1.875,0,0,1,5.282-41.5a2.1,2.1,0,0,1-.236-1q0-1.444,1.917-4.332,4.883-7.4,9.005-7.4a2.276,2.276,0,0,1,2.389,1.5,4.076,4.076,0,0,1,.079,1.024,4.454,4.454,0,0,0,.026.788l.709-.893q1.759-2.153,2.52-2.153.63,0,.63.656,0,.341-.63,1.024a28.039,28.039,0,0,0-5.277,9.005,3.746,3.746,0,0,0-.236,1.05q0,.5.709.5h.289a6.117,6.117,0,0,0,2.652-.761,30.921,30.921,0,0,0,4.043-2.6,11.336,11.336,0,0,1,2.284-1.444q.289,0,.289.315,0,.236-1.208,1.234a53.274,53.274,0,0,1-4.253,3.308A8.375,8.375,0,0,1,16.676-40.084Zm-9.4-1.943q1.706,0,6.826-4.568a41.5,41.5,0,0,0,3.886-3.676l.079-.21h-.079a.553.553,0,0,1-.3-.118.336.336,0,0,1-.171-.276l.053-.656A.847.847,0,0,0,17.411-52a1.335,1.335,0,0,0-1.234-.656,3.684,3.684,0,0,0-1.785.473q-2.914,1.575-6.3,6.9A6.77,6.77,0,0,0,6.831-42.5Q6.831-42.027,7.277-42.027Zm24.182,1.575H31.17a2.184,2.184,0,0,1-1.917-1.234,2.375,2.375,0,0,1-.21-1.1,5.451,5.451,0,0,1,.289-1.733,15.22,15.22,0,0,1,1.365-2.73A20.3,20.3,0,0,1,32.614-49.9q1.129-1.365,1.68-1.365.341,0,.341.42a9.215,9.215,0,0,1-1.208,2.31q-2.678,4.463-2.678,5.96,0,.971,1.076.971l.368-.026q1-.158,4.384-3.072a15.231,15.231,0,0,1,2.468-1.943.325.325,0,0,1,.341.21.323.323,0,0,1-.053.144,2.4,2.4,0,0,1-.249.315q-.2.223-1.483,1.378a41.612,41.612,0,0,1-3.977,3.255A4.46,4.46,0,0,1,31.459-40.452ZM35.135-51.82q-.394,0-.551-.473a1.247,1.247,0,0,1-.053-.341,1.685,1.685,0,0,1,.578-1.181,1.1,1.1,0,0,1,.735-.394q.656,0,.656.6a2.332,2.332,0,0,1-.223.866,1.479,1.479,0,0,1-.551.722A1.177,1.177,0,0,1,35.135-51.82Zm5.279,13.652a.681.681,0,0,1-.473-.236.53.53,0,0,1-.236-.473,3.81,3.81,0,0,1,.263-1.234q1.838-4.017,6.222-12.733,6.275-12.392,7.719-12.418h.21q.945,0,1.024,1.208a9.731,9.731,0,0,1-1.47,4.253,44.029,44.029,0,0,1-5.592,7.824l-.788.866q-2.914,5.933-2.914,5.986l.42-.5a63.266,63.266,0,0,1,5.251-5.96,8.427,8.427,0,0,1,1.51-1.286,1.5,1.5,0,0,1,.591-.184.817.817,0,0,1,.551.236,1.151,1.151,0,0,1,.42.945,3.753,3.753,0,0,1-.683,2.008,29.716,29.716,0,0,1-3.754,3.977l-1.05,1q0,.079.263.184a3.682,3.682,0,0,1,1.575,1.759q.5.919.735.985a2.071,2.071,0,0,0,.551.066,3.532,3.532,0,0,0,1.706-.617,26.224,26.224,0,0,0,2.888-2.166A17.1,17.1,0,0,1,57.978-46.6a.2.2,0,0,1,.092.053.444.444,0,0,1,.105.118.235.235,0,0,1,.039.118A17.82,17.82,0,0,1,55.3-43.629a15.685,15.685,0,0,1-3.413,2.415,3.321,3.321,0,0,1-1.05.184h-.263a1.637,1.637,0,0,1-.958-.249,3.244,3.244,0,0,1-.8-1.063,4.123,4.123,0,0,0-.88-1.247,1.338,1.338,0,0,0-.853-.3,1.714,1.714,0,0,0-1.024.341,2.063,2.063,0,0,1-.788.341,1.055,1.055,0,0,1-.42-.105.607.607,0,0,1-.315-.263.023.023,0,0,0-.026-.026.359.359,0,0,0-.21.131q-.105.184-.683,1.037T42.4-40.583q-.643,1-1.011,1.575Q40.886-38.168,40.414-38.168Zm5.723-7.85q1.549-1.313,3.045-2.862,2.022-2,2.022-2.363v-.026a1.67,1.67,0,0,0-.289.21q-1.5,1.339-2.678,2.625Q47.66-47.829,46.137-46.018Zm3.255-9.11.263-.394q.761-1.024,1.969-3.045a25.025,25.025,0,0,0,1.47-2.835,6.648,6.648,0,0,0,.394-1.024q-.053,0-1.47,2.415-.945,1.575-1.785,3.19T49.393-55.128ZM64.569-40.111a5.123,5.123,0,0,1-.814-.053Q61-40.741,61-43.261a4.973,4.973,0,0,1,.158-1.26,12.716,12.716,0,0,1,1.181-2.77,27.747,27.747,0,0,1,1.969-3.19q2.1-2.914,3.019-2.914.709,0,.709.683a.913.913,0,0,1-.236.578,43.061,43.061,0,0,0-3.2,4.7,10.294,10.294,0,0,0-1.68,4.148,1.06,1.06,0,0,0,.473.945,4.049,4.049,0,0,0,2.179.42,25.939,25.939,0,0,0,5.119-.761q1.969-.42,5.382-1.26,7.509-1.838,13.389-2.783,4.516-.761,5.225-.761.289,0,.289.263t-.315.368L88.25-45.545q-6.8,1.365-10,2.205-1.733.473-4.411,1.26a42.023,42.023,0,0,1-8.244,1.943Zm3.571-13.7q-.42,0-.42-.341a2.762,2.762,0,0,1,.158-.735,2.269,2.269,0,0,1,.814-1.195,1.67,1.67,0,0,1,.814-.354q.578,0,.578.5a1.839,1.839,0,0,1-.394.945Q68.849-53.815,68.14-53.815ZM112.881-27.64h-.105a.783.783,0,0,1-.6-.3.966.966,0,0,1-.263-.643q0-1.313,2.73-9.11,1.943-5.566,2.7-8.349a20.717,20.717,0,0,0,.84-5.172,6.661,6.661,0,0,0-1.733-4.8,6.093,6.093,0,0,0-1.89-1.313,14.759,14.759,0,0,0-3.045-.893q-2.232-.446-2.625-1.155a1.012,1.012,0,0,1-.131-.5q0-1.05,2.31-2.6,5.933-3.964,17.8-5.8a9.665,9.665,0,0,0,1.746-.354,1.43,1.43,0,0,0,.407-.328,1.221,1.221,0,0,1,.814-.394,1.015,1.015,0,0,1,.656.263,1.262,1.262,0,0,0,.709.21q.341.026,2.914.026,3.36.053,5.566.289a50.742,50.742,0,0,1,9.766,1.733,4.488,4.488,0,0,1,1.549.683.452.452,0,0,1,.105.289.344.344,0,0,1-.158.341,9.6,9.6,0,0,1-2.678.184,39.328,39.328,0,0,1-3.991-.368q-1.444-.21-4.726-.63a53.044,53.044,0,0,0-6.091-.315q-1.129,0-2.967.131-1.6,3.308-4.673,9.136-3.6,6.695-5.868,11.381t-4.686,10.383q-1.812,4.279-2.652,5.907Q113.563-27.666,112.881-27.64Zm4.7-14.466a16.169,16.169,0,0,0,.893-1.785q.84-1.785,2.914-5.933,1.1-2.153,4.437-8.506,1.208-2.205,3.938-7.377-1.89,1.917-2.127,2.232-.394.446-.5.446a.256.256,0,0,1-.171-.092.3.3,0,0,1-.092-.223q0-.394.971-1.523.368-.473.63-.788a1.407,1.407,0,0,0,.263-.368q0-.053-.184-.053l-.131.026a13.183,13.183,0,0,1-1.339.236l-.525.105a48.919,48.919,0,0,0-13.153,3.938,23.847,23.847,0,0,0-2.494,1.365l-.079.053q-.42.315-.42.42,0,.184,1.733.63a.582.582,0,0,0,.184.026,15.194,15.194,0,0,1,3.1,1.076,6.817,6.817,0,0,1,2,1.549,7.719,7.719,0,0,1,2,5.461,31.49,31.49,0,0,1-1.628,8.375Zm8.535,9.215a1.532,1.532,0,0,1-.42-.053,2.015,2.015,0,0,1-.893-.512,1.3,1.3,0,0,1-.263-.88q0-1.391,2.35-3.833a29.254,29.254,0,0,1,5.631-4.489q.788-.473.788-.6,0-.709-2.127-2.363a7.893,7.893,0,0,1-1.68-1.707,2.9,2.9,0,0,1-.473-1.6v-.184q0-2.494,3.229-4.857a6.836,6.836,0,0,1,3.781-1.575,1.792,1.792,0,0,1,1.812.893.752.752,0,0,1,.079.341,2.433,2.433,0,0,1-.788,1.365,8.8,8.8,0,0,0-.814.945.475.475,0,0,1-.394.21.436.436,0,0,1-.328-.158.527.527,0,0,1-.144-.368q0-.263.394-.525a2.987,2.987,0,0,0,.761-.788.723.723,0,0,0,.131-.289.128.128,0,0,0-.026-.066q-.026-.039-.289-.039-1.759.105-4.306,2.415a3.9,3.9,0,0,0-1.339,2.52,1.5,1.5,0,0,0,.158.683,8.494,8.494,0,0,0,1.943,1.864,6.06,6.06,0,0,1,1.812,1.969l.263.473,1.155-.473a42.5,42.5,0,0,1,4.909-1.706,9.938,9.938,0,0,1,1.628-.341q.473,0,.5.184a.329.329,0,0,1-.158.289l-.761.263q-1.365.5-3.728,1.286-.866.315-2.337.945l-.971.394q.053.5.079,1.024a6.656,6.656,0,0,1-1.549,3.991,20.336,20.336,0,0,1-1.693,1.825A21.05,21.05,0,0,1,130-34.65a10.237,10.237,0,0,1-2.284,1.352A4.711,4.711,0,0,1,126.115-32.891Zm-.42-1.286a2.68,2.68,0,0,0,1.208-.473,20.641,20.641,0,0,0,3.977-3.124,9.336,9.336,0,0,0,2.4-3.387,3.35,3.35,0,0,0,.21-.971.208.208,0,0,0-.026-.131,9.976,9.976,0,0,0-2.284,1.391,17.032,17.032,0,0,0-5.435,5.618,1.938,1.938,0,0,0-.315.814A.232.232,0,0,0,125.695-34.177Zm28.277-6.406a1.526,1.526,0,0,1-1.365-.84,1.152,1.152,0,0,1-.236-.709,5.539,5.539,0,0,1-.026-.63,8.2,8.2,0,0,1,.788-3.2l.289-.683a4.386,4.386,0,0,0-.6.735q-3.676,4.7-5.33,4.7-.971,0-1.365-1.26a2.7,2.7,0,0,1-.079-.656q0-2.547,3.492-7.745,2.153-3.2,3.072-3.2.788,0,.788.683a1.9,1.9,0,0,1-.578.971,26.444,26.444,0,0,0-2.048,2.835,25.583,25.583,0,0,0-2.507,4.739,12.264,12.264,0,0,0-.774,2.455q0,.184.053.21a.366.366,0,0,0,.158.026h.131q.446,0,1.943-1.286a28.213,28.213,0,0,0,3.282-3.807l1.05-1.339q1.47-1.864,1.943-2.494a15.624,15.624,0,0,1,1.418-1.759,1.958,1.958,0,0,1,1.313-.656q.63,0,.683.735a1.644,1.644,0,0,1-.525.866,23.4,23.4,0,0,0-3.518,5.277,11.354,11.354,0,0,0-1.47,4.647q0,.42.315.42,1.365,0,4.463-2.888,1.68-1.575,2.153-1.917a1.07,1.07,0,0,1,.473-.263q.131,0,.158.236,0,.289-1.365,1.523-1.812,1.733-2.862,2.573Q155.153-40.583,153.972-40.583Zm9.952.079q-.788,0-.788-.971a12.7,12.7,0,0,1,1.6-4.148,35.129,35.129,0,0,1,4.594-7.325q.236-.263.394-.263a.178.178,0,0,1,.131.053.431.431,0,0,1,.236.341.423.423,0,0,1-.053.184q-.709,1.1-3.229,6.17a26.374,26.374,0,0,0-1.286,2.7q.788-1.155,3.045-4.043a36.379,36.379,0,0,1,6.065-6.537,1.837,1.837,0,0,1,.971-.446q.866,0,1.011.263a1.128,1.128,0,0,1,.144.551,12.324,12.324,0,0,1-.788,2.625,15.212,15.212,0,0,0-1.1,4.2.894.894,0,0,0,1,1.024,3.2,3.2,0,0,0,.893-.158,11.14,11.14,0,0,1,1.575-.394q.026,0,.053.039a.215.215,0,0,1,.026.118,4.646,4.646,0,0,1-3.571,1.47,1.768,1.768,0,0,1-1.68-.893,1.575,1.575,0,0,1-.184-.84,15.073,15.073,0,0,1,1.5-5.014,10.943,10.943,0,0,0,.735-1.864.023.023,0,0,0-.026-.026,14.676,14.676,0,0,0-1.706,1.523,59.7,59.7,0,0,0-6.642,8.375,15.6,15.6,0,0,1-2.468,3.177A1.1,1.1,0,0,1,163.924-40.5Zm25.311-.079a1.526,1.526,0,0,1-1.365-.84,1.152,1.152,0,0,1-.236-.709,5.534,5.534,0,0,1-.026-.63,8.2,8.2,0,0,1,.788-3.2l.289-.683a4.386,4.386,0,0,0-.6.735q-3.676,4.7-5.33,4.7-.971,0-1.365-1.26a2.7,2.7,0,0,1-.079-.656q0-2.547,3.492-7.745,2.153-3.2,3.072-3.2.788,0,.788.683a1.9,1.9,0,0,1-.578.971,26.442,26.442,0,0,0-2.048,2.835,25.583,25.583,0,0,0-2.507,4.739,12.265,12.265,0,0,0-.774,2.455q0,.184.053.21a.366.366,0,0,0,.158.026h.131q.446,0,1.943-1.286a28.21,28.21,0,0,0,3.282-3.807l1.05-1.339q1.47-1.864,1.943-2.494a15.625,15.625,0,0,1,1.418-1.759,1.958,1.958,0,0,1,1.313-.656q.63,0,.683.735a1.644,1.644,0,0,1-.525.866,23.4,23.4,0,0,0-3.518,5.277,11.354,11.354,0,0,0-1.47,4.647q0,.42.315.42,1.365,0,4.463-2.888,1.68-1.575,2.153-1.917a1.07,1.07,0,0,1,.473-.263q.131,0,.158.236,0,.289-1.365,1.523-1.812,1.733-2.862,2.573Q190.417-40.583,189.235-40.583Zm13.707,8.769a1.562,1.562,0,0,1-.788-.21,1.712,1.712,0,0,1-.8-.88,2.987,2.987,0,0,1-.249-1.168l.026-.42a9.58,9.58,0,0,1,2.179-4.516,19.081,19.081,0,0,1,5.382-4.542q.394-.236.774-.446t.774-.42a21.255,21.255,0,0,0,.919-3.426q.131-1.037.131-1.378,0-.919-.446-.919-.525,0-1.5,1.05-1.076,1.129-3.387,4.148-2.652,3.439-3.833,4.017a2.527,2.527,0,0,1-1.024.263q-1.155,0-1.47-1.654a2.425,2.425,0,0,1-.053-.525,8.59,8.59,0,0,1,.578-2.678,23.423,23.423,0,0,1,4.148-7.9q.866-.971,1.444-.971.6,0,.6.525a2.258,2.258,0,0,1-.144.709q-.144.42-.433.473-.473.105-1.812,2.52a34.022,34.022,0,0,0-1.68,3.82,9.521,9.521,0,0,0-.709,2.665.932.932,0,0,0,.053.341q.158.368.42.368a.664.664,0,0,0,.315-.105q1.47-.84,4.7-4.752a19.884,19.884,0,0,1,2.534-2.586,3.451,3.451,0,0,1,1.72-.958q.656,0,1.024.893a5.147,5.147,0,0,1,.289,1.864,15.984,15.984,0,0,1-.42,3.282,16.153,16.153,0,0,1,3.7-1.313.186.186,0,0,1,.21.21q0,.263-.84.6a20.263,20.263,0,0,0-2.914,1.26,1.241,1.241,0,0,0-.63.788,28.34,28.34,0,0,1-4.4,8.532Q204.648-31.814,202.942-31.814Zm.131-1.838q.525,0,2.389-2.153a21.284,21.284,0,0,0,1.943-2.6,36.584,36.584,0,0,0,1.969-3.754,4.167,4.167,0,0,0,.341-1v-.026l-.42.21q-1.26.814-1.812,1.26a12.488,12.488,0,0,0-4.253,6.2,5.41,5.41,0,0,0-.341,1.5q0,.368.158.368ZM229.7-40.084a2.058,2.058,0,0,1-2.232-1.418,1.654,1.654,0,0,1-.079-.525,11.325,11.325,0,0,1,1.313-4.148l.551-1.234-2.494,2.363a33.377,33.377,0,0,1-4.7,3.938,4.262,4.262,0,0,1-2.048.683A1.875,1.875,0,0,1,218.3-41.5a2.1,2.1,0,0,1-.236-1q0-1.444,1.917-4.332,4.883-7.4,9.005-7.4a2.276,2.276,0,0,1,2.389,1.5,4.075,4.075,0,0,1,.079,1.024,4.455,4.455,0,0,0,.026.788l.709-.893q1.759-2.153,2.52-2.153.63,0,.63.656,0,.341-.63,1.024a28.039,28.039,0,0,0-5.277,9.005,3.746,3.746,0,0,0-.236,1.05q0,.5.709.5h.289a6.117,6.117,0,0,0,2.652-.761,30.92,30.92,0,0,0,4.043-2.6,11.337,11.337,0,0,1,2.284-1.444q.289,0,.289.315,0,.236-1.208,1.234A53.277,53.277,0,0,1,234-41.686,8.375,8.375,0,0,1,229.7-40.084Zm-9.4-1.943q1.706,0,6.826-4.568a41.5,41.5,0,0,0,3.886-3.676l.079-.21h-.079a.553.553,0,0,1-.3-.118.336.336,0,0,1-.171-.276l.053-.656a.847.847,0,0,0-.158-.473,1.335,1.335,0,0,0-1.234-.656,3.684,3.684,0,0,0-1.785.473q-2.914,1.575-6.3,6.9a6.77,6.77,0,0,0-1.26,2.783Q219.851-42.027,220.3-42.027Z" transform="translate(14.384 69.357)" fill="#f8f8f8"/>
</svg>
