<svg xmlns="http://www.w3.org/2000/svg" width="116.189" height="95.598" viewBox="0 0 116.189 95.598">
  <g id="グループ_3299" data-name="グループ 3299" transform="translate(-1095.373 -3440.175)">
    <path id="パス_3578" data-name="パス 3578" d="M23.689-28.128a.253.253,0,0,1-.028.114.253.253,0,0,0-.028.114.632.632,0,0,1-.1.456.468.468,0,0,1-.285.2.333.333,0,0,1-.271-.057q-.114-.085-.057-.313a.729.729,0,0,0,.057-.271,1.382,1.382,0,0,1,.028-.271q0-.4.028-.755a.384.384,0,0,0-.342-.442.23.23,0,0,0-.1-.028.23.23,0,0,1-.1-.028,6.865,6.865,0,0,0-1.268-.556,9.573,9.573,0,0,0-1.382-.356q-.114-.028-.214-.057t-.214-.057l-.456-.114a.751.751,0,0,0-.456.028.361.361,0,0,1-.313.028,1.306,1.306,0,0,0-.755-.057q-.356.085-.727.142-.484.057-.983.071t-.983.071q-.427.057-.855.142T13-29.98a2.721,2.721,0,0,1-.385.028,2.165,2.165,0,0,0-.356.028h-.285a2.63,2.63,0,0,0-.37.028,2.946,2.946,0,0,0-.356.071.434.434,0,0,0-.242.157l-.028.028q-.2.028-.456.427a8.03,8.03,0,0,0-.5.912q-.242.513-.442.983t-.256.613q-.142.37-.313.712t-.313.712a.358.358,0,0,0-.085.142.358.358,0,0,1-.085.142,2.31,2.31,0,0,0-.57.912,9.093,9.093,0,0,1-.4,1q-.085.171-.185.356a.623.623,0,0,0-.043.442q.028.057-.1.171t-.242.2q-.228.171-.242.242a.639.639,0,0,0,.1.3.408.408,0,0,1,.071.256.217.217,0,0,1-.157.171.68.68,0,0,0-.4.427,4.553,4.553,0,0,1-.2.541q-.057.2-.1.385a.46.46,0,0,1-.271.3q0,.028-.014.028t-.014.028v.028q.142.228.014.356l-.271.271a.253.253,0,0,0-.028.114.253.253,0,0,1-.028.114,2.435,2.435,0,0,0-.1.313q-.043.171-.1.342a3.362,3.362,0,0,1-.185.413,1.169,1.169,0,0,0-.128.413,2.5,2.5,0,0,1-.171.57,1.388,1.388,0,0,0-.114.57.286.286,0,0,1-.071.256,1.089,1.089,0,0,0-.157.228,2.137,2.137,0,0,0-.228.4,2.819,2.819,0,0,0-.142.427q-.057.228-.1.47a.868.868,0,0,1-.185.413,2.255,2.255,0,0,0-.427.869A4.369,4.369,0,0,1,3-11.744a11.131,11.131,0,0,0-.5,1.154q-.214.584-.442,1.182a7.015,7.015,0,0,0-.271,1q-.1.513-.214,1.026a.3.3,0,0,1-.028.171,2.539,2.539,0,0,0-.484,1.04q-.114.556-.2,1.126a.346.346,0,0,1-.085.171.154.154,0,0,0-.057-.071.223.223,0,0,1-.057-.043L.623-5.076a.405.405,0,0,0-.071-.085q-.057.085.071.313a.935.935,0,0,1,.128.285A8.464,8.464,0,0,0,.5-3.452a.233.233,0,0,0-.043.171.351.351,0,0,1-.014.171A.509.509,0,0,0,.4-2.982a.248.248,0,0,1-.071.128q-.2.114-.185.256t.043.285a1.55,1.55,0,0,1,.085.3q.028.157.057.328a.582.582,0,0,1,0,.256Q.3-1.315.438-1.2A.212.212,0,0,1,.5-1.044a.883.883,0,0,0,.028.214A1.313,1.313,0,0,1-.645-1.372q-.2-.256-.413-.484a.839.839,0,0,1-.214-.6q-.057-.484-.114-1a4.376,4.376,0,0,1,0-1q.057-1.083.2-2.166t.37-2.166q.256-1.054.47-2.094a20.658,20.658,0,0,1,.527-2.037q.4-1.425.841-2.807t.9-2.778q.171-.456.442-1.2t.57-1.524q.3-.784.584-1.524t.427-1.2a2.793,2.793,0,0,0,.114-.385q0-.043-.014-.028t-.014-.028a2.794,2.794,0,0,1,.114-.385,4.03,4.03,0,0,1,.171-.427q.171-.4.356-.9T5.026-27a2.214,2.214,0,0,0,.171-.5l-.171.128a1.07,1.07,0,0,0-.114.1l-.114.114a.164.164,0,0,1-.114.057.814.814,0,0,0-.385.142,2.321,2.321,0,0,1-.328.2q-.4.228-.812.413t-.841.385a1.114,1.114,0,0,0-.271.157,2.718,2.718,0,0,1-.271.185q-.655.4-1.268.784t-1.3.727a1.149,1.149,0,0,1-.185.1.5.5,0,0,0-.157.1q-.313.285-.655.556t-.655.556a1.329,1.329,0,0,1-.242.071,2.52,2.52,0,0,1-.4.057q-.214.014-.413.014a.472.472,0,0,1-.228-.028.267.267,0,0,1-.142-.171q-.171-.342-.342-.67t-.313-.67q-.171-.456-.285-.727a1.039,1.039,0,0,1,.114-.784q.057-.171.114-.2a1.026,1.026,0,0,0,.556-.342,1.544,1.544,0,0,1,.5-.4q.655-.4,1.254-.769t1.225-.769q.712-.4,1.41-.784t1.41-.784a5.737,5.737,0,0,1,.812-.385q.413-.157.812-.328.655-.256,1.311-.527t1.311-.5a1.282,1.282,0,0,0,.6-.328,1.1,1.1,0,0,0,.256-.613.566.566,0,0,1,.37-.442.509.509,0,0,1,.57.1.748.748,0,0,0,.655.085l.114-.057a.093.093,0,0,1,.114.028.5.5,0,0,0,.413.085q.185-.057.413-.114.8-.171,1.581-.356t1.581-.328q.4-.057.826-.128a2.192,2.192,0,0,1,.826.014,1.5,1.5,0,0,0,.613.043,2.633,2.633,0,0,1,.613-.014q.4,0,.8.014a4.059,4.059,0,0,1,.769.1q.94.228,1.895.413a5.607,5.607,0,0,1,1.781.67q.484.285.912.584a4.387,4.387,0,0,1,.8.727.626.626,0,0,0,.171.242q.114.1.256.214a2.611,2.611,0,0,1,.385.484,1.683,1.683,0,0,1,.214.627.424.424,0,0,0,.057.214.279.279,0,0,1,.028.214q.028.228.043.442T23.689-28.128ZM.923-14.365h.085a.864.864,0,0,1,.028-.256H.923Zm-.142.34q-.114.373-.2.729t-.2.812A2.058,2.058,0,0,0,.737-13.2a2.711,2.711,0,0,0,.157-.8A.156.156,0,0,1,.78-14.026Zm-.4,1.569q-.228.171,0,.4L.5-12.228Q.552-12.314.381-12.456Zm-.028.427q-.285.085-.242.285a.987.987,0,0,1,.014.37.68.68,0,0,0,.185-.3A1.356,1.356,0,0,0,.353-12.029ZM-1.1-4.25a.116.116,0,0,1,.028-.085.116.116,0,0,0,.028-.085l-.114-.228-.028.37A.116.116,0,0,0-1.1-4.25ZM-1.015-5.3A.759.759,0,0,0-.858-5.66,1.186,1.186,0,0,0-.9-6.045a.459.459,0,0,0-.228.342A.918.918,0,0,0-1.015-5.3Zm.228-1q.028-.142.057-.3t.057-.3q.085-.484.185-.969T-.3-8.838q.114-.484.214-.926T.1-10.69a1.708,1.708,0,0,0-.057-.228q-.37,1.168-.627,2.294A15.367,15.367,0,0,0-.929-6.3ZM.524-9.236a3.3,3.3,0,0,0,.271-.855q.071-.427.157-.855a1.552,1.552,0,0,0,.043-.47q-.014-.242-.014-.47A.126.126,0,0,1,.923-11.9a.2.2,0,0,0-.085-.014q-.028.085-.057.157a1.479,1.479,0,0,0-.057.185,1.059,1.059,0,0,0-.071.3,1.455,1.455,0,0,1-.071.328Q.438-10.4.267-9.906a3.876,3.876,0,0,0-.2,1.069,3,3,0,0,1-.171.8,4.087,4.087,0,0,0-.2.8q-.142.655-.242,1.311T-.759-4.62a.082.082,0,0,0,.028.057.849.849,0,0,1,.085.114l.085-.214a.35.35,0,0,0,.028-.128,2.552,2.552,0,0,0,.071-.47,1.6,1.6,0,0,1,.1-.47,5.309,5.309,0,0,0,.228-.755q.085-.385.171-.784.057-.484.157-1A3.76,3.76,0,0,1,.524-9.236ZM.809-6.245Q.923-6.33.552-6.587q-.028.085.114.342T.78-5.9q.057.028.028-.171T.809-6.245Zm1-7.693a1.179,1.179,0,0,0,.071-.356.511.511,0,0,0-.214-.413q-.171.655-.356,1.254t-.385,1.2a.154.154,0,0,0,.057.071.405.405,0,0,1,.085.071.744.744,0,0,1,.157-.114.31.31,0,0,0,.128-.114l.128-.256a.276.276,0,0,0,.014-.256.837.837,0,0,1,.071-.556A5.464,5.464,0,0,0,1.806-13.938Zm-.114,3.305q.256.171.342-.285-.142.057-.228.085l-.171.057a.219.219,0,0,1,.028.085A.082.082,0,0,0,1.692-10.633Zm.655-5.043a2.275,2.275,0,0,0,.214-.527.958.958,0,0,0-.1-.641,8.5,8.5,0,0,0-.37.983q-.142.47-.285.983a.643.643,0,0,0,.385-.37A4.47,4.47,0,0,1,2.347-15.676ZM2.4-16.93q.655-.228.342-.712-.085.171-.157.328T2.4-16.93Zm.883-1.852L3.4-19.01q.057-.114.114-.256-.256.057-.285.114A.841.841,0,0,0,3.288-18.782Zm2.45-11.4a1.2,1.2,0,0,0,.57-.328,1.558,1.558,0,0,0,.2-.727q-.228.057-.4.114t-.313.114q-.142.057-.271.1t-.271.1l-.8.342-.8.342a2.137,2.137,0,0,0-.4.228,3.356,3.356,0,0,0-.328.128,2.567,2.567,0,0,1-.356.128q-.142.028-.242.057t-.128.228a.123.123,0,0,1-.057.1,1.07,1.07,0,0,0-.114.1q-.142.085-.285.157a1.614,1.614,0,0,0-.285.185.143.143,0,0,0-.071.114.255.255,0,0,1-.071.142,1.058,1.058,0,0,0,.185.043.269.269,0,0,0,.157-.014,1.591,1.591,0,0,0,.214-.128,1.153,1.153,0,0,1,.242-.128q.37-.142.741-.256l.741-.228a.554.554,0,0,1,.214-.014.732.732,0,0,0,.242-.014.264.264,0,0,1,0-.171q.028-.085.2-.142L5-29.895Zm12.879-1.111q.028-.028.028-.043t.028-.043q-.171-.057-.285-.085v.057l.114.057Zm-1-1.054q.342.029.684.071t.684.1a.469.469,0,0,1,.114.014.468.468,0,0,0,.114.014q.285.028.2-.313a4.5,4.5,0,0,1-1.111-.256,4.523,4.523,0,0,0-1.14-.256q-.313-.057-.627-.1a1.984,1.984,0,0,0-.627.014,2.423,2.423,0,0,1-.527.057h-.556q-.513.028-1.012.043A4.221,4.221,0,0,0,12.8-32.8a.33.33,0,0,0-.071.043.33.33,0,0,1-.071.043.439.439,0,0,1,.071.171,1.177,1.177,0,0,0,.071.228q.4-.057.8-.085t.8-.085a1.037,1.037,0,0,0,.171-.014,1.038,1.038,0,0,1,.171-.014q.741.057,1.439.085T17.62-32.345Zm1.425,1.111a2.143,2.143,0,0,1,.37.142.344.344,0,0,0,.37-.057A.637.637,0,0,0,19.045-31.234Zm1.624.4v-.085H20.5v.085ZM20.5-16.9v.028Zm.4,11.768a1,1,0,0,0,.242.513,2.733,2.733,0,0,0,.356.328q.171.128.256.2t-.085.157a.417.417,0,0,0-.256.085.541.541,0,0,1-.5.085q-.242-.085-.47-.171a.611.611,0,0,1-.342-.2,2.593,2.593,0,0,1-.2-.285,1.6,1.6,0,0,0-.328-.342,1.144,1.144,0,0,1-.3-.342,8.987,8.987,0,0,1-.627-1.567A3.869,3.869,0,0,1,18.5-8.581a12.652,12.652,0,0,1,.484-1.852q.313-1,.684-1.952t.8-1.866q.228-.456.456-.9t.456-.9a.058.058,0,0,1,.014-.043.113.113,0,0,0,.014-.071H21.3l-.556.556q-.271.271-.527.556a4.279,4.279,0,0,0-.4.456,4.28,4.28,0,0,1-.4.456q-.256.285-.527.556t-.527.556l-.442.5-.442.5a3,3,0,0,1-.171.256,2.14,2.14,0,0,1-.2.228.193.193,0,0,1-.142.057h-.114a1.093,1.093,0,0,0-.071.242.268.268,0,0,1-.071.157q-.313.4-.641.8t-.67.8l-.028.028a1.256,1.256,0,0,1-.271.627q-.214.256-.413.513a5.778,5.778,0,0,1-.47.57q-.242.256-.47.541a3.156,3.156,0,0,0-.356.5,1.853,1.853,0,0,1-.385.47.665.665,0,0,0-.3.385.474.474,0,0,1-.328.328.137.137,0,0,0-.1.043.079.079,0,0,0-.014.1q.057.2-.057.285a2.472,2.472,0,0,0-.256.228,3.374,3.374,0,0,0-.684.826.869.869,0,0,1-.655.37A.886.886,0,0,1,9.9-3.965a1.892,1.892,0,0,1-.328-.356.985.985,0,0,1-.157-.47q0-.028-.057-.085a1.041,1.041,0,0,1-.484-.442q-.171-.3-.313-.613-.057-.142-.114-.3a2.062,2.062,0,0,1-.085-.3A5.927,5.927,0,0,1,8.474-9.35q.171-.684.385-1.339T9.3-12a.5.5,0,0,1,.071-.142.749.749,0,0,0,.071-.114,2.021,2.021,0,0,0,.085-.256,2.021,2.021,0,0,1,.085-.256q.085-.228.2-.47t.228-.47l.171-.4.171-.4q.171-.313.328-.613t.328-.613q.313-.54.6-1.062t.6-1.057q.6-.987,1.311-1.956.4-.57.826-1.14t.912-1.14a7.75,7.75,0,0,1,.67-.7l.7-.641a3.421,3.421,0,0,1,1.453.6q.627.456,1.225.94l.627.513q.313.256.627.541a.921.921,0,0,1,.228.185q.085.1.2.214.342.313.7.627t.7.627a.934.934,0,0,0,.142.114,1.864,1.864,0,0,0,.2.114,1.114,1.114,0,0,0-.228.085v.085q.142.085.2.028l.37-.213.37-.214q.114-.114.2-.057a1.577,1.577,0,0,0,.4.071q.228.014.285.328a.2.2,0,0,0,.142.085.642.642,0,0,1,.2.084.864.864,0,0,0,.157.085A.864.864,0,0,1,25-18.5a.132.132,0,0,0,.1.014q.043-.014.1.043.2.225.4.423a3.977,3.977,0,0,1,.37.423.8.8,0,0,1,.071.592.719.719,0,0,1-.3.507q-.085.085-.085.113a.428.428,0,0,0-.071.169.255.255,0,0,1-.071.142,3.39,3.39,0,0,0-.627.94.868.868,0,0,1-.2.285,3.47,3.47,0,0,0-.256.285l-.285.456q-.142.228-.256.456-.228.427-.442.869a3.333,3.333,0,0,1-.556.812,1.128,1.128,0,0,0-.228.328q-.085.185-.171.385a4.537,4.537,0,0,0-.313.712q-.057.2-.1.385a1.6,1.6,0,0,1-.128.356,1.473,1.473,0,0,1-.142.271.327.327,0,0,0-.028.3l-.028.057a.4.4,0,0,0-.285.413,1.08,1.08,0,0,1-.057.5,1.825,1.825,0,0,1-.157.3,1.481,1.481,0,0,0-.157.328q-.085.427-.157.841a8.124,8.124,0,0,0-.1.841q0,.228.014.442T20.9-5.133ZM9.072-8.268q-.2-.085-.228-.185a.335.335,0,0,1,.014-.214,2.373,2.373,0,0,1,.1-.228.322.322,0,0,0,.028-.228q-.484.342-.256.769a.184.184,0,0,0,.114.085.358.358,0,0,1,.142.085Zm.171-1.539q.085-.171.157-.356t.157-.385a1.592,1.592,0,0,1-.171.1.542.542,0,0,0-.142.1,4.071,4.071,0,0,0-.313.655.284.284,0,0,0-.043.2,1.634,1.634,0,0,1,.014.2.165.165,0,0,0,.114.028q.057-.142.114-.271T9.243-9.806Zm.57-1.311a.158.158,0,0,0-.028-.2.192.192,0,0,0-.171-.085.24.24,0,0,0-.142.2q-.028.085.085.2-.114.085-.285.2a.368.368,0,0,0,.142.128.542.542,0,0,1,.142.1,2.366,2.366,0,0,1,.128-.271A2.366,2.366,0,0,0,9.813-11.117Zm.085-.37a.164.164,0,0,0,.057-.114.164.164,0,0,1,.057-.114A.657.657,0,0,0,10.1-11.9a.657.657,0,0,1,.085-.185q.142-.228.285-.413a2.534,2.534,0,0,0,.256-.413q.142-.4.285-.784a4.27,4.27,0,0,1,.37-.755.136.136,0,0,0,.043-.128.136.136,0,0,1,.043-.128,7.753,7.753,0,0,1,.456-.712q.057-.114.1-.214t.1-.214q-.057-.057-.057-.085a.252.252,0,0,1-.114.071.252.252,0,0,0-.114.071q-.2.285-.37.556l-.37.584a.23.23,0,0,0-.028.1.1.1,0,0,1-.028.071.815.815,0,0,0-.385.484q-.071.285-.128.57a.219.219,0,0,0-.028.085.082.082,0,0,1-.028.057,2.516,2.516,0,0,0-.256.3.442.442,0,0,0-.057.385q.085.085-.028.085a.319.319,0,0,0-.256.313.5.5,0,0,1-.142.37Q9.67-11.8,9.7-11.7a.657.657,0,0,0,.085.185q0,.028.057.043T9.9-11.487Zm1.881-3.049a1.028,1.028,0,0,0,.271-.214q.014-.043-.157-.157l-.057.171Q11.807-14.65,11.779-14.536Zm-.228,2.109q.028-.028,0-.085l-.057-.114a.179.179,0,0,1-.071.043.179.179,0,0,0-.071.043,1.211,1.211,0,0,0-.2.313.058.058,0,0,0,.014.043.058.058,0,0,1,.014.043A1.754,1.754,0,0,0,11.551-12.428ZM10.126-9.664a.116.116,0,0,0,.085.028q.057-.142.1-.256t.1-.256a.126.126,0,0,1-.057-.014.2.2,0,0,0-.085-.014,1.054,1.054,0,0,0-.071.256A1.054,1.054,0,0,1,10.126-9.664Zm4.73-.684q.285-.142.427-.2-.142-.142-.214-.114T14.856-10.348Zm.427-.342.171-.256a.1.1,0,0,0-.043-.085.467.467,0,0,1-.071-.057.811.811,0,0,0-.142.171Q15.17-10.889,15.284-10.69Zm4.046-3.733a.082.082,0,0,1-.028-.057.126.126,0,0,0-.014-.057.126.126,0,0,1-.014-.057,1.592,1.592,0,0,1-.171.1,1.593,1.593,0,0,0-.171.1.5.5,0,0,1,.057.142Zm1.026-1.738q.6-.57,1.2-1.168t1.2-1.168q-.057-.057-.057-.085-.4.313-.769.627t-.769.627l-.285.285a.5.5,0,0,1-.37.142l.9-.784q.442-.385.926-.784-.143-.057-.229-.085a.718.718,0,0,1-.171-.085,2.364,2.364,0,0,1-.271-.128,2.365,2.365,0,0,0-.271-.128,1.048,1.048,0,0,1-.214-.142.86.86,0,0,0-.243-.142.657.657,0,0,0-.185-.085.663.663,0,0,1-.186-.085,8.146,8.146,0,0,1-.671-.5,8.146,8.146,0,0,0-.671-.5.285.285,0,0,0-.286-.057,2.284,2.284,0,0,0-.6.427q-.4.4-.772.826t-.771.855a2.159,2.159,0,0,1-.229.2,1.285,1.285,0,0,0-.228.228,1.249,1.249,0,0,1-.343.328.854.854,0,0,0-.314.385,1.428,1.428,0,0,1-.257.427,3.552,3.552,0,0,0-.314.427l-.057.028q-.142.228-.271.413t-.272.385a.719.719,0,0,0-.085.171.71.71,0,0,1-.086.171q-.257.427-.542.841a7.188,7.188,0,0,0-.514.869,9.335,9.335,0,0,0-.5.969q-.214.484-.443,1-.285.627-.542,1.239T11.238-8.98l-.114.342a.308.308,0,0,1-.286.2.418.418,0,0,0,.028.157.11.11,0,0,1-.028.128,1.019,1.019,0,0,0-.22.484q-.039.256-.065.541A.283.283,0,0,0,10.525-7a.283.283,0,0,1-.028.128,2.17,2.17,0,0,0-.128.655,2.965,2.965,0,0,0,.043.655,1.221,1.221,0,0,0,.085.285,63.058,63.058,0,0,1,4.174-5.343q2.2-2.522,4.545-4.944a2.729,2.729,0,0,1-.3.4,3.914,3.914,0,0,0-.3.37q-.256.285-.5.541t-.47.541a2.845,2.845,0,0,0-.256.285.934.934,0,0,0-.114.142l-.114.171a.331.331,0,0,1-.085.057q-.057.028-.057.057.057.2-.028.228a1.971,1.971,0,0,1-.228.057.663.663,0,0,0-.171.114l-.328.385q-.157.185-.328.413a.253.253,0,0,0-.028.114v.114l-.171.114-.171.114a.181.181,0,0,0-.043.085.085.085,0,0,0,.014.085.467.467,0,0,0,.071.057q.043.028.071,0a.28.28,0,0,0,.256-.142q.171-.171.328-.356L16.594-12a1.132,1.132,0,0,1,.142-.171.449.449,0,0,0,.114-.171q.028-.256.256-.2.142,0,.228-.2a1.657,1.657,0,0,1,.342-.541l.456-.456.456-.456a.554.554,0,0,0,.128-.2,2.373,2.373,0,0,1,.1-.228.358.358,0,0,1,.142-.085.358.358,0,0,0,.142-.085.992.992,0,0,0,.2-.2l.171-.228a1.992,1.992,0,0,1,.185-.214.823.823,0,0,0,.157-.214.68.68,0,0,1,.271-.242.437.437,0,0,1,.356-.043q.285.171.484-.171a2.453,2.453,0,0,0-.271.014q-.128.014-.271.043a.126.126,0,0,0-.014-.057A.126.126,0,0,1,20.355-16.16ZM39.931-29.5a1.414,1.414,0,0,1-.142.855,2.763,2.763,0,0,1-.57.712,3.035,3.035,0,0,1-.442.413,4.723,4.723,0,0,0-.47.413,1.242,1.242,0,0,0-.342.37q-.114.2-.256.427a.477.477,0,0,1-.456.342.63.63,0,0,0-.256.2,2.593,2.593,0,0,0-.2.285q-.142.228-.285.413a.81.81,0,0,1-.4.271.36.36,0,0,0-.171.2q-.228.285-.37.3a.557.557,0,0,1-.37-.185,1.474,1.474,0,0,1-.57-.94,2.051,2.051,0,0,1,.114-1.168q.541-1.026,1.069-2.052t1.1-2.052a2.83,2.83,0,0,1,.313-.57q.2-.37.413-.427a1.718,1.718,0,0,1,.755.085q-.085.05-.157.1a1.507,1.507,0,0,0-.128.1q.085.142.114.114a1.308,1.308,0,0,1,.6-.028.928.928,0,0,1,.484.313q.057.114.1.185a.3.3,0,0,1,.043.157,1.3,1.3,0,0,0,.057.214.561.561,0,0,0,.171.185.887.887,0,0,1,.214.37A.87.87,0,0,1,39.931-29.5Zm-6.3,6.611a2.123,2.123,0,0,1,.655.57l.513.684q.057.114.114.242a.439.439,0,0,1,.028.271q-.057.313-.085.641a2.576,2.576,0,0,1-.171.7,7,7,0,0,1-.556.8,5.044,5.044,0,0,0-.527.8q-.171.4-.356.812t-.385.812a1.491,1.491,0,0,1-.085.242q-.057.128-.114.271a1.223,1.223,0,0,0-.185.328.932.932,0,0,1-.214.328,2.557,2.557,0,0,1-.342.627q-.142.2-.271.356a.375.375,0,0,0-.014.413q.057.085-.043.256a.5.5,0,0,1-.242.228.446.446,0,0,0-.171.57q.142.228-.043.285a.457.457,0,0,0-.271.2.405.405,0,0,0,.085.071l.085.043q-.085.142-.185.3a2.49,2.49,0,0,0-.185.356,7.538,7.538,0,0,0-.456.883,1.017,1.017,0,0,0-.085.256.3.3,0,0,0,.028.228.494.494,0,0,1,.028.484.547.547,0,0,0-.171.4q-.028.171-.057.285t-.256.228a.26.26,0,0,0-.028.157A1.381,1.381,0,0,0,29.7-8.5a.775.775,0,0,0-.185.256q-.043.114.1.313a.611.611,0,0,1-.028.157.775.775,0,0,0-.028.214q-.057.313-.1.641t-.1.641a1.268,1.268,0,0,0-.242-.028A.883.883,0,0,1,28.9-6.33a.113.113,0,0,1-.014.071.058.058,0,0,0-.014.043,1.149,1.149,0,0,0,.185.1q.1.043.214.1a2.119,2.119,0,0,0-.057.513.912.912,0,0,1-.228.57.174.174,0,0,0-.043.157.269.269,0,0,1-.014.157q-.028.114-.043.2a.255.255,0,0,1-.071.142q-.256.2-.2.4t.114.427q.028.142.071.3a1.24,1.24,0,0,1,.043.328q.057.4-.313.256a4.23,4.23,0,0,1-.969-.5,1.349,1.349,0,0,1-.541-.9,10.68,10.68,0,0,0-.171-1.083,4.324,4.324,0,0,1-.085-1.111q.057-.912.157-1.824a17.362,17.362,0,0,1,.3-1.824,7.634,7.634,0,0,1,.157-.9q.1-.413.214-.9.142-.456.285-.9t.285-.926q.313-1,.655-1.952t.712-1.952q.285-.741.613-1.5t.641-1.5q.313-.655.57-1.325t.513-1.325a1.4,1.4,0,0,1,.085-.142q.057-.085.114-.085A2.841,2.841,0,0,1,33.634-22.885ZM27.251-8.724q-.028.142-.057.271t-.057.271a.459.459,0,0,1,.2.057q.028-.142.043-.256t.043-.256q0-.028-.057-.043A.557.557,0,0,1,27.251-8.724Zm.741.142a.308.308,0,0,0,0-.185q-.028-.1-.057-.214-.057.114-.1.214a1.148,1.148,0,0,1-.1.185v.028q-.142.6-.256,1.182a3.685,3.685,0,0,0-.028,1.211q.028.028-.085.171A2.894,2.894,0,0,1,27.28-6.4a2.02,2.02,0,0,0-.114-.442.255.255,0,0,1,.014-.185,1.673,1.673,0,0,0,.071-.2.308.308,0,0,0,0-.185.363.363,0,0,0-.171-.171q-.057.655-.085,1.282t-.028,1.282a1.235,1.235,0,0,0,.071.242,1.41,1.41,0,0,1,.071.214q.256-.2.214-.4t-.071-.4A.892.892,0,0,1,27.28-5.6a.467.467,0,0,1,.171-.214.5.5,0,0,0,.228-.328.586.586,0,0,0-.085-.385A1.114,1.114,0,0,1,27.75-6.8a.4.4,0,0,0,.1-.242,1.487,1.487,0,0,1-.043-.456,1.179,1.179,0,0,1,.128-.456A1.113,1.113,0,0,0,27.992-8.581Zm.94-2.65q.256.057.328-.028a.213.213,0,0,0,.014-.228q.028-.057-.014-.085a.691.691,0,0,1-.1-.085,1.058,1.058,0,0,0-.128.214Q28.989-11.345,28.932-11.231Zm.285-.6a.242.242,0,0,0,.2-.071.336.336,0,0,0,.071-.157l.028-.171a.439.439,0,0,1,.071-.171.7.7,0,0,1-.285-.114,1.965,1.965,0,0,1-.342-.2q-.028.057-.057.128t-.057.157q-.142.342-.285.712t-.256.769q-.114.37-.2.755t-.2.784a.151.151,0,0,0,0,.128q.028.071.057.128a1.106,1.106,0,0,1,.142-.057q.085-.028.085-.085a.646.646,0,0,1,.128-.4.53.53,0,0,0,.1-.4.253.253,0,0,1,.057-.214,2.275,2.275,0,0,0,.142-.242,1.923,1.923,0,0,0,.256-.285q-.085-.142-.157-.242a.308.308,0,0,1-.071-.157,3.692,3.692,0,0,1,.2-.442,2.12,2.12,0,0,0,.171-.413.542.542,0,0,1,.1.142A.241.241,0,0,0,29.217-11.829Zm.37-.769q.142,0,.2-.271a1.233,1.233,0,0,0,0-.527,1.465,1.465,0,0,0-.541.185q-.057.071.028.3a.382.382,0,0,0,.128.2A.576.576,0,0,0,29.588-12.6Zm6.525,4.16a.557.557,0,0,0,.043-.114.557.557,0,0,1,.043-.114.126.126,0,0,1,.057.014.126.126,0,0,0,.057.014q-.028.2-.057.385t-.057.385a.067.067,0,0,1-.057.071.557.557,0,0,0-.114.043v-.2a.937.937,0,0,1,.028-.228Q36.084-8.3,36.113-8.439ZM45.346-16.1a2.846,2.846,0,0,1,.285.256.506.506,0,0,0-.185.028.151.151,0,0,1-.128,0,.538.538,0,0,0-.769.171.234.234,0,0,0,.014.071.432.432,0,0,1,.014.128q-.142.057-.271.1t-.271.1a2.165,2.165,0,0,1-.356.085.681.681,0,0,0-.328.142.78.78,0,0,1-.214.1q-.071.014-.157-.128a.466.466,0,0,0-.142.342.655.655,0,0,0,.114.37q.228.285.456.541a1.16,1.16,0,0,1,.285.57.978.978,0,0,0,.185.413q.128.157.271.356.427.684.769,1.368l.1.1.1.1a1.779,1.779,0,0,0,.171.242,1.78,1.78,0,0,1,.171.242q.142.2.271.385T46-9.664a15.747,15.747,0,0,0,.94,1.311,4.339,4.339,0,0,0,.37.527q.2.242.427.5a.735.735,0,0,0,.142.157q.085.071-.028.214-.028.028.057.114a1.215,1.215,0,0,1,.3.285.615.615,0,0,0,.356.228,1.044,1.044,0,0,1,.185.085q.1.057-.014.228,0,.028.057.057l.114.057a1.86,1.86,0,0,0,.2.171,3,3,0,0,0,.256.171l.4.285.4.285.171.171a1.378,1.378,0,0,0,.912.427.658.658,0,0,0,.769-.513,1.991,1.991,0,0,1,.228-.256q.142-.057.2,0l.114.228a.26.26,0,0,1,.028.2,2.835,2.835,0,0,0-.043.3.363.363,0,0,1-.214.271A1.806,1.806,0,0,0,52-3.88a.761.761,0,0,1-.385.228q-.4.057-.812.142a3.109,3.109,0,0,1-.841.057,5.289,5.289,0,0,1-1.325-.271,6.7,6.7,0,0,1-1.154-.527,7.176,7.176,0,0,1-.883-.67q-.4-.356-.8-.755-.541-.6-1.04-1.225t-.983-1.282q-.484-.627-.926-1.239t-.9-1.239q-.369-.513-.724-1.026t-.7-1.054q-.114-.142-.2-.271a1.489,1.489,0,0,1-.142-.271q-.028-.171-.313-.085-.227.142-.426.271A.675.675,0,0,1,39-13q-.057,0-.114.2l.057.114a.665.665,0,0,1,.171-.114.511.511,0,0,0,.142-.142q.029.028.043.028t.043.028a.5.5,0,0,0-.043.142.5.5,0,0,1-.043.142,1.605,1.605,0,0,1-.128.214.629.629,0,0,0-.1.214.821.821,0,0,1-.142.328q-.057.043-.369-.014a1.083,1.083,0,0,0,.114.1,1.083,1.083,0,0,1,.114.1.445.445,0,0,0-.171.114.79.79,0,0,1-.1.043.79.79,0,0,0-.1.043.448.448,0,0,0,.114.085l.114.057-.512,1.482q-.256.741-.483,1.51l.028.028q.028.028.028.043t.028.043q-.057.114-.114.214a.458.458,0,0,1-.142.157.471.471,0,0,1-.213.071q-.128.014-.27.043.085.057.156.1t.185.1a1.575,1.575,0,0,1-.128.114q-.071.057-.156.114.228.114.214.242a.918.918,0,0,1-.1.3q-.142.427-.283.855a4.6,4.6,0,0,0-.2.912q-.056.285-.1.584a.984.984,0,0,1-.3.556.408.408,0,0,0-.057.228,1.059,1.059,0,0,0,.028.256v.712a1.55,1.55,0,0,1,.085.3,2.393,2.393,0,0,0,.085.328h-.057a1.606,1.606,0,0,1-.641-.4,2.479,2.479,0,0,1-.413-.6,2.6,2.6,0,0,1-.271-.741q-.071-.37-.128-.741a10.335,10.335,0,0,1-.057-1.083q0-.541.057-1.111.057-.4.142-.769t.171-.769q.114-.57.271-1.14t.328-1.14q.057-.228.128-.47t.157-.5a.619.619,0,0,0,.114-.228.506.506,0,0,0,.043-.142A.507.507,0,0,1,36.284-12a.116.116,0,0,1,.028-.085q.114-.313.2-.613t.171-.613h-.47a1.268,1.268,0,0,1-.242-.028,1,1,0,0,1-.285-.028,2.857,2.857,0,0,1-.37-.157,2.983,2.983,0,0,1-.4-.242q-.2-.2-.4-.37a2.49,2.49,0,0,1-.37-.4,1.653,1.653,0,0,1-.342-.655,3.889,3.889,0,0,1-.142-.741q-.028-.171-.043-.356a1.473,1.473,0,0,1,.014-.356.271.271,0,0,1,.13-.313l-.078-.085a.594.594,0,0,1,.143-.157.255.255,0,0,0,.091-.214h.106a.124.124,0,0,1,.035.142.507.507,0,0,0-.056.456.554.554,0,0,1,.014.214,1.512,1.512,0,0,0-.014.214.317.317,0,0,1-.028.142.331.331,0,0,0,.057.085.116.116,0,0,1,.028.085q-.029.228.028.271a.941.941,0,0,1,.171.242.565.565,0,0,0,.171.2q.114.085.2.142a2.194,2.194,0,0,0,1.227.228,4.384,4.384,0,0,0,.756-.128q.385-.1.757-.213l.114-.057a1.088,1.088,0,0,0,.057-.142,1.043,1.043,0,0,1,.057-.142.265.265,0,0,0,.071-.156.439.439,0,0,1,.071-.184,3.875,3.875,0,0,1,.243-.68q.157-.34.3-.652.171-.4.343-.807T39-18.959q.2-.425.414-.865t.442-.868q.457-.855.914-1.738.285-.513.528-1.04a11.3,11.3,0,0,1,.528-1.012q.485-.826.941-1.61t.94-1.581q.256-.484.541-.926t.6-.9q.2-.313.385-.641a6.67,6.67,0,0,1,.413-.641A.846.846,0,0,1,46-31.063a.688.688,0,0,1,.47-.057,2.647,2.647,0,0,1,1.14.541l.228.228a3.108,3.108,0,0,0,.256.228.925.925,0,0,1,.385.513q.071.285.128.6,0,.028.014.028t.014.028v.028a1.031,1.031,0,0,0-.2.356q-.057.185-.114.385a2.661,2.661,0,0,1-.142.385.839.839,0,0,1-.285.328,2.914,2.914,0,0,0-.5.427,1.96,1.96,0,0,0-.385.6.461.461,0,0,1-.128.214,1.991,1.991,0,0,0-.185.214q-.228.285-.427.541t-.427.513a2.588,2.588,0,0,0-.214.313.619.619,0,0,0-.071.4q.029.057-.043.128L45.387-24q-.171.114-.313.214a.541.541,0,0,0-.2.328.35.35,0,0,1-.114.157.735.735,0,0,0-.142.157.219.219,0,0,0-.028.085.082.082,0,0,1-.028.057q-.057.085-.1.157a.662.662,0,0,1-.1.128,2.114,2.114,0,0,1-.242.157q-.128.071-.3.185.114.057.185.1t.157.1a.405.405,0,0,0-.071.085.046.046,0,0,1-.043.028.557.557,0,0,0-.456.541.417.417,0,0,1-.085.256,1.5,1.5,0,0,0-.142.228,1.86,1.86,0,0,1-.171.2l-.171.171q-.057.114-.114.114-.228.028-.2.114a.719.719,0,0,0,.085.171l-.171.171a.281.281,0,0,1-.1.071.281.281,0,0,0-.1.071h.342a.138.138,0,0,1,.028.1,1.112,1.112,0,0,1-.242.077.728.728,0,0,0-.218.077l-.12.285q-.06.142-.117.285l.057.057a2.21,2.21,0,0,0,.427-.37l.955-.955a7.757,7.757,0,0,1,1.04-.869,5.856,5.856,0,0,0,.584-.484,5.856,5.856,0,0,1,.584-.484,3.439,3.439,0,0,1,.442-.285q.214-.114.385-.228a1.436,1.436,0,0,0,.3-.271.872.872,0,0,1,.242-.214l1.311-.741a14.052,14.052,0,0,1,1.311-.655q.627-.228,1.254-.413a3.436,3.436,0,0,1,1.282-.128q.228.028.442.043t.442.043a2.134,2.134,0,0,0,.47.4.757.757,0,0,1,.328.57.282.282,0,0,0,.014.2.976.976,0,0,1,.071.2.828.828,0,0,1,.014.584,5.486,5.486,0,0,1-.242.556,4.238,4.238,0,0,1-.784,1.268q-.5.556-1.04,1.126a.248.248,0,0,1-.128.071.248.248,0,0,0-.128.071.692.692,0,0,0-.228.171q-.142.142-.285.271t-.285.271a3.705,3.705,0,0,1-.5.313,1.188,1.188,0,0,0-.442.4.623.623,0,0,1-.242.228,2.049,2.049,0,0,0-.3.2q-.2.142-.413.271t-.442.271a.327.327,0,0,1-.185.057,1.268,1.268,0,0,0-.242.028.384.384,0,0,1-.142.256,1.545,1.545,0,0,1-.313.171,3.246,3.246,0,0,0-.584.342q-.271.2-.556.4a1.222,1.222,0,0,1-1,.285Zm-8.835,2.166q.371.057.371-.313-.085.028-.186.057a.22.22,0,0,1-.157,0,.658.658,0,0,0-.329-.028,1.548,1.548,0,0,0-.3.085h-.229l-.3-.057-.329-.057v.085a1.8,1.8,0,0,0,.5.214,1.343,1.343,0,0,0,.586.014A.618.618,0,0,1,36.511-13.938Zm4.019-6.753a.482.482,0,0,0-.214.271,1.24,1.24,0,0,0-.043.328.058.058,0,0,1,.043.014.058.058,0,0,0,.043.014,1.775,1.775,0,0,1,.185-.256,1.775,1.775,0,0,0,.185-.256.082.082,0,0,1-.028-.057q0-.028-.014-.028t-.014-.028a.234.234,0,0,1-.071-.014A.065.065,0,0,0,40.529-20.691Zm-3.647,9.147a.225.225,0,0,0,.142.028h.085a1.082,1.082,0,0,0,.071-.313,2.784,2.784,0,0,1,.043-.313q0,.028-.119-.085a.156.156,0,0,1-.06.071.156.156,0,0,0-.06.071l-.077.342a.345.345,0,0,0-.026.142ZM36.91-11q.057-.171-.057-.214a.554.554,0,0,1-.2-.128,2.47,2.47,0,0,0-.128.37,2.435,2.435,0,0,1-.1.313q-.057.228.171.171.228-.028.242-.2A1.082,1.082,0,0,1,36.91-11Zm-.57-.541q-.085.142-.171.3a1.741,1.741,0,0,0-.142.356.162.162,0,0,0,.171.057q.114-.028.171-.2t.128-.342a3.372,3.372,0,0,0,.128-.37q-.114-.057-.171.028ZM36.6-9.721q.37.028.37-.285,0-.057.131-.2-.2-.028-.341-.057a1.438,1.438,0,0,0-.284-.028.2.2,0,0,0-.2.142,1.282,1.282,0,0,0-.2.313,1.922,1.922,0,0,0-.043.228q-.014.114-.043.256-.085.285-.142.57t-.142.57a1.06,1.06,0,0,0-.085.242q-.028.128-.227.071-.028,0-.114.085.085.085.114.085h.17q-.2.883-.355,1.738a4.3,4.3,0,0,0,.043,1.738.164.164,0,0,0,.057-.114.253.253,0,0,1,.028-.114q.057-.4.1-.8a7.709,7.709,0,0,1,.13-.8l.115-.456.115-.456a.487.487,0,0,0,.014-.2.346.346,0,0,1,.014-.171q0-.171.142-.171a1.208,1.208,0,0,0,.342-.242q.2-.185.142-.328a.569.569,0,0,1,.085-.4l.114-.228q.057-.114.114-.256l-.214.085q-.071.028-.157.057a.189.189,0,0,1-.114-.043q-.057-.043-.057-.071.028-.142.043-.271a.713.713,0,0,1,.071-.242,2,2,0,0,1,.128-.171Q36.54-9.721,36.6-9.721Zm.2.256a.116.116,0,0,1-.085-.028.113.113,0,0,1-.071-.014.058.058,0,0,0-.043-.014l-.142.456a.126.126,0,0,1,.057.014.2.2,0,0,0,.085.014q.057-.114.1-.214T36.8-9.464Zm.217,1.225a.706.706,0,0,0,.071-.214,1.092,1.092,0,0,1,.071-.242.62.62,0,0,0-.3.114q-.043.057.071.313a.058.058,0,0,1,.043.014A.058.058,0,0,0,37.013-8.239Zm-.074-2.223a.314.314,0,0,0,.313-.185,2.087,2.087,0,0,0,.114-.67A1.165,1.165,0,0,0,36.939-10.462Zm.727-1.339a.123.123,0,0,0-.057-.1.283.283,0,0,1-.085-.1,2,2,0,0,1-.128.171,1.847,1.847,0,0,0-.157.228.691.691,0,0,1,.085.1.215.215,0,0,0,.085.071A1.183,1.183,0,0,0,37.666-11.8Zm-.071-.427a.688.688,0,0,1,.191-.085q.1-.028.279-.085-.353-.256-.47,0Q37.537-12.342,37.594-12.228Zm.627.94q0-.028-.014-.028t-.014-.028a.082.082,0,0,1-.028-.057.506.506,0,0,1-.142.043.143.143,0,0,0-.114.071.547.547,0,0,1-.128.256q-.1.114.043.256h.057q.085,0,.085-.028a1.843,1.843,0,0,0,.256-.456Zm.907-6.1a1.812,1.812,0,0,1,.159-.342,1.811,1.811,0,0,0,.159-.342q-.031,0-.031-.014t-.031-.014q-.155,0-.155.057-.2.4-.441.784a2.39,2.39,0,0,0-.327.841q-.114.285-.171.4a.082.082,0,0,1,.057.028.331.331,0,0,0-.085.057.331.331,0,0,1-.085.057l.057.114a.252.252,0,0,1,.114-.071.128.128,0,0,0,.085-.071q.145-.256.289-.484a1.513,1.513,0,0,0,.2-.541A.357.357,0,0,1,39-17.144,1.147,1.147,0,0,0,39.128-17.386Zm.489-1.2a1.816,1.816,0,0,0,.228-.271,1.083,1.083,0,0,1,.228-.242.165.165,0,0,1-.028-.114.317.317,0,0,1-.142.028.115.115,0,0,0-.114.057.638.638,0,0,1-.185.214Q39.475-18.81,39.617-18.582Zm.541-.769q.256-.142-.057-.342a2.344,2.344,0,0,0-.2.342.35.35,0,0,1,.128.028A.11.11,0,0,0,40.159-19.352Zm.12,1.767a3.358,3.358,0,0,0,.185-.37q.071-.171.185-.4a.55.55,0,0,0-.285.085q-.057.057,0,.285-.228.114-.242.185T40.279-17.585Zm.821-1.567q.028,0,0-.085a1.106,1.106,0,0,0-.057-.142h-.085a1.863,1.863,0,0,1-.114.2,1.863,1.863,0,0,0-.114.2.506.506,0,0,1-.142.043.506.506,0,0,0-.142.043.838.838,0,0,1,.028.2.538.538,0,0,0,.028.171.335.335,0,0,0,.242-.071.539.539,0,0,0,.114-.171,1.952,1.952,0,0,1,.1-.2A.877.877,0,0,1,41.1-19.152Zm.171-2.507q.028-.028,0-.085t-.057-.057a.437.437,0,0,0-.171.057,1.07,1.07,0,0,1-.114.1,1.07,1.07,0,0,0-.114.1q.142.085.085.185a.877.877,0,0,1-.142.185.674.674,0,0,0-.114.214q-.028.1.142.242.142-.256.271-.484A3.279,3.279,0,0,0,41.27-21.66ZM45.858-7.185a.662.662,0,0,1-.128.1q-.071.043-.043.071a3.256,3.256,0,0,0,.285.313l.057-.057A3.317,3.317,0,0,1,45.858-7.185Zm5.984-17.809-.456.114q-.228.057-.513.114a.433.433,0,0,0,.484.142A.909.909,0,0,0,51.841-24.994Zm-1.51.741q-.085-.228-.128-.242a.7.7,0,0,0-.271.071.706.706,0,0,0,.128.185Q50.132-24.167,50.331-24.253Zm-2.194.855a.959.959,0,0,0-.5.271.593.593,0,0,1-.5.185.712.712,0,0,0,0,.285q.228-.142.513-.313t.541-.313a.082.082,0,0,1-.028-.057A.082.082,0,0,0,48.137-23.4Zm-6.183,6.5a.253.253,0,0,1,.028.114.837.837,0,0,1,.2-.028.538.538,0,0,0,.171-.028.9.9,0,0,0-.014-.142,1.227,1.227,0,0,1-.014-.2l-.214.171Q42.039-16.958,41.954-16.9Zm1.739.228a.165.165,0,0,1,.028-.114,1.393,1.393,0,0,1-.142-.085.142.142,0,0,0-.142-.028q-.256.142-.527.271a4.892,4.892,0,0,0-.5.271.348.348,0,0,0-.128.157.5.5,0,0,1-.1.157.05.05,0,0,0,.057.057Q42.924-16.331,43.693-16.673Zm-1.169-.57a.193.193,0,0,0,.057.142q.256-.114.484-.228l.456-.228a.126.126,0,0,0-.014-.057.126.126,0,0,1-.014-.057q-.256.114-.5.214T42.524-17.243Zm1.14-.969L45.117-19q.712-.385,1.425-.812.655-.427,1.3-.883t1.268-.94a9.477,9.477,0,0,0,1.069-.869q.5-.47,1.04-.955a2.245,2.245,0,0,0,.37-.413,1.755,1.755,0,0,0,.256-.556q-.37.057-.7.085a1.241,1.241,0,0,0-.613.228q-.228.114-.4.214a3.366,3.366,0,0,1-.37.185,2.819,2.819,0,0,1-.385.185q-.185.071-.356.157-.057.028-.057.057a.082.082,0,0,1-.028.057.655.655,0,0,1-.228.228q-.313.142-.6.256t-.57.256a5.156,5.156,0,0,0-.741.541,2.946,2.946,0,0,0-.37.442,2.719,2.719,0,0,1-.342.413,7.438,7.438,0,0,1-.627.513,3.662,3.662,0,0,0-.57.513q-.456.427-.883.869t-.855.9a.613.613,0,0,0-.157.157q-.071.1-.128.185l.057.057q.171-.057.37-.128A3.34,3.34,0,0,0,43.664-18.212Zm.855,1a1.428,1.428,0,0,0,.641-.256q.271-.2.584-.4A1.612,1.612,0,0,1,46.1-18.1a2.622,2.622,0,0,0,.356-.2.281.281,0,0,1,.1-.071.281.281,0,0,0,.1-.071l-.057-.085a.933.933,0,0,0-.228.057q-.313.171-.6.356t-.6.356q-.256.142-.5.271t-.47.271v.085h.142a.331.331,0,0,0,.085-.057A.116.116,0,0,1,44.518-17.215ZM65.917-29.5a1.414,1.414,0,0,1-.142.855,2.763,2.763,0,0,1-.57.712,3.035,3.035,0,0,1-.442.413,4.723,4.723,0,0,0-.47.413,1.242,1.242,0,0,0-.342.37q-.114.2-.256.427a.477.477,0,0,1-.456.342.63.63,0,0,0-.256.2,2.593,2.593,0,0,0-.2.285q-.142.228-.285.413a.81.81,0,0,1-.4.271.36.36,0,0,0-.171.2q-.228.285-.37.3a.557.557,0,0,1-.37-.185,1.474,1.474,0,0,1-.57-.94,2.051,2.051,0,0,1,.114-1.168q.541-1.026,1.069-2.052t1.1-2.052a2.831,2.831,0,0,1,.313-.57q.2-.37.413-.427a1.718,1.718,0,0,1,.755.085q-.085.05-.157.1a1.508,1.508,0,0,0-.128.1q.085.142.114.114a1.308,1.308,0,0,1,.6-.028.928.928,0,0,1,.484.313q.057.114.1.185a.3.3,0,0,1,.043.157,1.3,1.3,0,0,0,.057.214.561.561,0,0,0,.171.185.887.887,0,0,1,.214.37A.87.87,0,0,1,65.917-29.5Zm-6.3,6.611a2.123,2.123,0,0,1,.655.57l.513.684q.057.114.114.242a.439.439,0,0,1,.028.271q-.057.313-.085.641a2.576,2.576,0,0,1-.171.7,7,7,0,0,1-.556.8,5.044,5.044,0,0,0-.527.8q-.171.4-.356.812t-.385.812a1.49,1.49,0,0,1-.085.242q-.057.128-.114.271a1.223,1.223,0,0,0-.185.328.932.932,0,0,1-.214.328,2.557,2.557,0,0,1-.342.627q-.142.2-.271.356a.375.375,0,0,0-.014.413q.057.085-.043.256a.5.5,0,0,1-.242.228.446.446,0,0,0-.171.57q.142.228-.043.285a.457.457,0,0,0-.271.2.406.406,0,0,0,.085.071l.085.043q-.085.142-.185.3a2.491,2.491,0,0,0-.185.356,7.538,7.538,0,0,0-.456.883,1.017,1.017,0,0,0-.085.256.3.3,0,0,0,.028.228.494.494,0,0,1,.028.484.547.547,0,0,0-.171.4q-.028.171-.057.285t-.256.228a.26.26,0,0,0-.028.157,1.381,1.381,0,0,0,.028.271.775.775,0,0,0-.185.256q-.043.114.1.313a.611.611,0,0,1-.028.157.775.775,0,0,0-.028.214q-.057.313-.1.641t-.1.641A1.268,1.268,0,0,0,55.1-6.3a.883.883,0,0,1-.214-.028.113.113,0,0,1-.014.071.058.058,0,0,0-.014.043,1.149,1.149,0,0,0,.185.1q.1.043.214.1A2.119,2.119,0,0,0,55.2-5.5a.912.912,0,0,1-.228.57.174.174,0,0,0-.043.157.269.269,0,0,1-.014.157q-.028.114-.043.2a.255.255,0,0,1-.071.142q-.256.2-.2.4t.114.427q.028.142.071.3a1.24,1.24,0,0,1,.043.328q.057.4-.313.256a4.23,4.23,0,0,1-.969-.5,1.349,1.349,0,0,1-.541-.9,10.68,10.68,0,0,0-.171-1.083,4.324,4.324,0,0,1-.085-1.111q.057-.912.157-1.824a17.362,17.362,0,0,1,.3-1.824,7.634,7.634,0,0,1,.157-.9q.1-.413.214-.9.142-.456.285-.9t.285-.926q.313-1,.655-1.952t.712-1.952q.285-.741.613-1.5t.641-1.5q.313-.655.57-1.325t.513-1.325a1.393,1.393,0,0,1,.085-.142q.057-.085.114-.085A2.841,2.841,0,0,1,59.62-22.885ZM53.237-8.724q-.028.142-.057.271t-.057.271a.459.459,0,0,1,.2.057q.028-.142.043-.256t.043-.256q0-.028-.057-.043A.557.557,0,0,1,53.237-8.724Zm.741.142a.308.308,0,0,0,0-.185q-.028-.1-.057-.214-.057.114-.1.214a1.149,1.149,0,0,1-.1.185v.028q-.142.6-.256,1.182a3.685,3.685,0,0,0-.028,1.211q.028.028-.085.171a2.894,2.894,0,0,1-.085-.413,2.02,2.02,0,0,0-.114-.442.255.255,0,0,1,.014-.185,1.673,1.673,0,0,0,.071-.2.308.308,0,0,0,0-.185.363.363,0,0,0-.171-.171q-.057.655-.085,1.282t-.028,1.282a1.235,1.235,0,0,0,.071.242,1.41,1.41,0,0,1,.071.214q.256-.2.214-.4t-.071-.4a.892.892,0,0,1,.028-.242.467.467,0,0,1,.171-.214.5.5,0,0,0,.228-.328.586.586,0,0,0-.085-.385,1.114,1.114,0,0,1,.157-.271.4.4,0,0,0,.1-.242,1.487,1.487,0,0,1-.043-.456,1.179,1.179,0,0,1,.128-.456A1.113,1.113,0,0,0,53.978-8.581Zm.94-2.65q.256.057.328-.028a.213.213,0,0,0,.014-.228q.028-.057-.014-.085a.691.691,0,0,1-.1-.085,1.058,1.058,0,0,0-.128.214Q54.976-11.345,54.919-11.231Zm.285-.6a.242.242,0,0,0,.2-.071.336.336,0,0,0,.071-.157l.028-.171a.439.439,0,0,1,.071-.171.7.7,0,0,1-.285-.114,1.965,1.965,0,0,1-.342-.2q-.028.057-.057.128t-.057.157q-.142.342-.285.712t-.256.769q-.114.37-.2.755t-.2.784a.151.151,0,0,0,0,.128q.028.071.057.128a1.106,1.106,0,0,1,.142-.057q.085-.028.085-.085a.647.647,0,0,1,.128-.4.53.53,0,0,0,.1-.4.253.253,0,0,1,.057-.214,2.275,2.275,0,0,0,.142-.242,1.923,1.923,0,0,0,.256-.285q-.085-.142-.157-.242a.308.308,0,0,1-.071-.157,3.693,3.693,0,0,1,.2-.442A2.12,2.12,0,0,0,55-12.086a.542.542,0,0,1,.1.142A.241.241,0,0,0,55.2-11.829Zm.37-.769q.142,0,.2-.271a1.233,1.233,0,0,0,0-.527,1.465,1.465,0,0,0-.541.185q-.057.071.028.3a.382.382,0,0,0,.128.2A.576.576,0,0,0,55.574-12.6Z" transform="translate(1100.216 3473.764)" fill="#f8f8f8"/>
    <path id="パス_3579" data-name="パス 3579" d="M23.689-28.128a.253.253,0,0,1-.028.114.253.253,0,0,0-.028.114.632.632,0,0,1-.1.456.468.468,0,0,1-.285.2.333.333,0,0,1-.271-.057q-.114-.085-.057-.313a.729.729,0,0,0,.057-.271,1.382,1.382,0,0,1,.028-.271q0-.4.028-.755a.384.384,0,0,0-.342-.442.23.23,0,0,0-.1-.028.23.23,0,0,1-.1-.028,6.865,6.865,0,0,0-1.268-.556,9.573,9.573,0,0,0-1.382-.356q-.114-.028-.214-.057t-.214-.057l-.456-.114a.751.751,0,0,0-.456.028.361.361,0,0,1-.313.028,1.306,1.306,0,0,0-.755-.057q-.356.085-.727.142-.484.057-.983.071t-.983.071q-.427.057-.855.142T13-29.98a2.721,2.721,0,0,1-.385.028,2.165,2.165,0,0,0-.356.028h-.285a2.63,2.63,0,0,0-.37.028,2.946,2.946,0,0,0-.356.071.434.434,0,0,0-.242.157l-.028.028q-.2.028-.456.427a8.03,8.03,0,0,0-.5.912q-.242.513-.442.983t-.256.613q-.142.37-.313.712t-.313.712a.358.358,0,0,0-.085.142.358.358,0,0,1-.085.142,2.31,2.31,0,0,0-.57.912,9.093,9.093,0,0,1-.4,1q-.085.171-.185.356a.623.623,0,0,0-.043.442q.028.057-.1.171t-.242.2q-.228.171-.242.242a.639.639,0,0,0,.1.3.408.408,0,0,1,.071.256.217.217,0,0,1-.157.171.68.68,0,0,0-.4.427,4.553,4.553,0,0,1-.2.541q-.057.2-.1.385a.46.46,0,0,1-.271.3q0,.028-.014.028t-.014.028v.028q.142.228.014.356l-.271.271a.253.253,0,0,0-.028.114.253.253,0,0,1-.028.114,2.435,2.435,0,0,0-.1.313q-.043.171-.1.342a3.362,3.362,0,0,1-.185.413,1.169,1.169,0,0,0-.128.413,2.5,2.5,0,0,1-.171.57,1.388,1.388,0,0,0-.114.57.286.286,0,0,1-.071.256,1.089,1.089,0,0,0-.157.228,2.137,2.137,0,0,0-.228.4,2.819,2.819,0,0,0-.142.427q-.057.228-.1.47a.868.868,0,0,1-.185.413,2.255,2.255,0,0,0-.427.869A4.369,4.369,0,0,1,3-11.744a11.131,11.131,0,0,0-.5,1.154q-.214.584-.442,1.182a7.015,7.015,0,0,0-.271,1q-.1.513-.214,1.026a.3.3,0,0,1-.028.171,2.539,2.539,0,0,0-.484,1.04q-.114.556-.2,1.126a.346.346,0,0,1-.085.171.154.154,0,0,0-.057-.071.223.223,0,0,1-.057-.043L.623-5.076a.405.405,0,0,0-.071-.085q-.057.085.071.313a.935.935,0,0,1,.128.285A8.464,8.464,0,0,0,.5-3.452a.233.233,0,0,0-.043.171.351.351,0,0,1-.014.171A.509.509,0,0,0,.4-2.982a.248.248,0,0,1-.071.128q-.2.114-.185.256t.043.285a1.55,1.55,0,0,1,.085.3q.028.157.057.328a.582.582,0,0,1,0,.256Q.3-1.315.438-1.2A.212.212,0,0,1,.5-1.044a.883.883,0,0,0,.028.214A1.313,1.313,0,0,1-.645-1.372q-.2-.256-.413-.484a.839.839,0,0,1-.214-.6q-.057-.484-.114-1a4.376,4.376,0,0,1,0-1q.057-1.083.2-2.166t.37-2.166q.256-1.054.47-2.094a20.658,20.658,0,0,1,.527-2.037q.4-1.425.841-2.807t.9-2.778q.171-.456.442-1.2t.57-1.524q.3-.784.584-1.524t.427-1.2a2.793,2.793,0,0,0,.114-.385q0-.043-.014-.028t-.014-.028a2.794,2.794,0,0,1,.114-.385,4.03,4.03,0,0,1,.171-.427q.171-.4.356-.9T5.026-27a2.214,2.214,0,0,0,.171-.5l-.171.128a1.07,1.07,0,0,0-.114.1l-.114.114a.164.164,0,0,1-.114.057.814.814,0,0,0-.385.142,2.321,2.321,0,0,1-.328.2q-.4.228-.812.413t-.841.385a1.114,1.114,0,0,0-.271.157,2.718,2.718,0,0,1-.271.185q-.655.4-1.268.784t-1.3.727a1.149,1.149,0,0,1-.185.1.5.5,0,0,0-.157.1q-.313.285-.655.556t-.655.556a1.329,1.329,0,0,1-.242.071,2.52,2.52,0,0,1-.4.057q-.214.014-.413.014a.472.472,0,0,1-.228-.028.267.267,0,0,1-.142-.171q-.171-.342-.342-.67t-.313-.67q-.171-.456-.285-.727a1.039,1.039,0,0,1,.114-.784q.057-.171.114-.2a1.026,1.026,0,0,0,.556-.342,1.544,1.544,0,0,1,.5-.4q.655-.4,1.254-.769t1.225-.769q.712-.4,1.41-.784t1.41-.784a5.737,5.737,0,0,1,.812-.385q.413-.157.812-.328.655-.256,1.311-.527t1.311-.5a1.282,1.282,0,0,0,.6-.328,1.1,1.1,0,0,0,.256-.613.566.566,0,0,1,.37-.442.509.509,0,0,1,.57.1.748.748,0,0,0,.655.085l.114-.057a.093.093,0,0,1,.114.028.5.5,0,0,0,.413.085q.185-.057.413-.114.8-.171,1.581-.356t1.581-.328q.4-.057.826-.128a2.192,2.192,0,0,1,.826.014,1.5,1.5,0,0,0,.613.043,2.633,2.633,0,0,1,.613-.014q.4,0,.8.014a4.059,4.059,0,0,1,.769.1q.94.228,1.895.413a5.607,5.607,0,0,1,1.781.67q.484.285.912.584a4.387,4.387,0,0,1,.8.727.626.626,0,0,0,.171.242q.114.1.256.214a2.611,2.611,0,0,1,.385.484,1.683,1.683,0,0,1,.214.627.424.424,0,0,0,.057.214.279.279,0,0,1,.028.214q.028.228.043.442T23.689-28.128ZM.923-14.365h.085a.864.864,0,0,1,.028-.256H.923Zm-.142.34q-.114.373-.2.729t-.2.812A2.058,2.058,0,0,0,.737-13.2a2.711,2.711,0,0,0,.157-.8A.156.156,0,0,1,.78-14.026Zm-.4,1.569q-.228.171,0,.4L.5-12.228Q.552-12.314.381-12.456Zm-.028.427q-.285.085-.242.285a.987.987,0,0,1,.014.37.68.68,0,0,0,.185-.3A1.356,1.356,0,0,0,.353-12.029ZM-1.1-4.25a.116.116,0,0,1,.028-.085.116.116,0,0,0,.028-.085l-.114-.228-.028.37A.116.116,0,0,0-1.1-4.25ZM-1.015-5.3A.759.759,0,0,0-.858-5.66,1.186,1.186,0,0,0-.9-6.045a.459.459,0,0,0-.228.342A.918.918,0,0,0-1.015-5.3Zm.228-1q.028-.142.057-.3t.057-.3q.085-.484.185-.969T-.3-8.838q.114-.484.214-.926T.1-10.69a1.708,1.708,0,0,0-.057-.228q-.37,1.168-.627,2.294A15.367,15.367,0,0,0-.929-6.3ZM.524-9.236a3.3,3.3,0,0,0,.271-.855q.071-.427.157-.855a1.552,1.552,0,0,0,.043-.47q-.014-.242-.014-.47A.126.126,0,0,1,.923-11.9a.2.2,0,0,0-.085-.014q-.028.085-.057.157a1.479,1.479,0,0,0-.057.185,1.059,1.059,0,0,0-.071.3,1.455,1.455,0,0,1-.071.328Q.438-10.4.267-9.906a3.876,3.876,0,0,0-.2,1.069,3,3,0,0,1-.171.8,4.087,4.087,0,0,0-.2.8q-.142.655-.242,1.311T-.759-4.62a.082.082,0,0,0,.028.057.849.849,0,0,1,.085.114l.085-.214a.35.35,0,0,0,.028-.128,2.552,2.552,0,0,0,.071-.47,1.6,1.6,0,0,1,.1-.47,5.309,5.309,0,0,0,.228-.755q.085-.385.171-.784.057-.484.157-1A3.76,3.76,0,0,1,.524-9.236ZM.809-6.245Q.923-6.33.552-6.587q-.028.085.114.342T.78-5.9q.057.028.028-.171T.809-6.245Zm1-7.693a1.179,1.179,0,0,0,.071-.356.511.511,0,0,0-.214-.413q-.171.655-.356,1.254t-.385,1.2a.154.154,0,0,0,.057.071.405.405,0,0,1,.085.071.744.744,0,0,1,.157-.114.31.31,0,0,0,.128-.114l.128-.256a.276.276,0,0,0,.014-.256.837.837,0,0,1,.071-.556A5.464,5.464,0,0,0,1.806-13.938Zm-.114,3.305q.256.171.342-.285-.142.057-.228.085l-.171.057a.219.219,0,0,1,.028.085A.082.082,0,0,0,1.692-10.633Zm.655-5.043a2.275,2.275,0,0,0,.214-.527.958.958,0,0,0-.1-.641,8.5,8.5,0,0,0-.37.983q-.142.47-.285.983a.643.643,0,0,0,.385-.37A4.47,4.47,0,0,1,2.347-15.676ZM2.4-16.93q.655-.228.342-.712-.085.171-.157.328T2.4-16.93Zm.883-1.852L3.4-19.01q.057-.114.114-.256-.256.057-.285.114A.841.841,0,0,0,3.288-18.782Zm2.45-11.4a1.2,1.2,0,0,0,.57-.328,1.558,1.558,0,0,0,.2-.727q-.228.057-.4.114t-.313.114q-.142.057-.271.1t-.271.1l-.8.342-.8.342a2.137,2.137,0,0,0-.4.228,3.356,3.356,0,0,0-.328.128,2.567,2.567,0,0,1-.356.128q-.142.028-.242.057t-.128.228a.123.123,0,0,1-.057.1,1.07,1.07,0,0,0-.114.1q-.142.085-.285.157a1.614,1.614,0,0,0-.285.185.143.143,0,0,0-.071.114.255.255,0,0,1-.071.142,1.058,1.058,0,0,0,.185.043.269.269,0,0,0,.157-.014,1.591,1.591,0,0,0,.214-.128,1.153,1.153,0,0,1,.242-.128q.37-.142.741-.256l.741-.228a.554.554,0,0,1,.214-.014.732.732,0,0,0,.242-.014.264.264,0,0,1,0-.171q.028-.085.2-.142L5-29.895Zm12.879-1.111q.028-.028.028-.043t.028-.043q-.171-.057-.285-.085v.057l.114.057Zm-1-1.054q.342.029.684.071t.684.1a.469.469,0,0,1,.114.014.468.468,0,0,0,.114.014q.285.028.2-.313a4.5,4.5,0,0,1-1.111-.256,4.523,4.523,0,0,0-1.14-.256q-.313-.057-.627-.1a1.984,1.984,0,0,0-.627.014,2.423,2.423,0,0,1-.527.057h-.556q-.513.028-1.012.043A4.221,4.221,0,0,0,12.8-32.8a.33.33,0,0,0-.071.043.33.33,0,0,1-.071.043.439.439,0,0,1,.071.171,1.177,1.177,0,0,0,.071.228q.4-.057.8-.085t.8-.085a1.037,1.037,0,0,0,.171-.014,1.038,1.038,0,0,1,.171-.014q.741.057,1.439.085T17.62-32.345Zm1.425,1.111a2.143,2.143,0,0,1,.37.142.344.344,0,0,0,.37-.057A.637.637,0,0,0,19.045-31.234Zm1.624.4v-.085H20.5v.085ZM17.763-18.7q-.2.171-.356.285a2.516,2.516,0,0,0-.3.256.662.662,0,0,0-.1.128.662.662,0,0,1-.1.128q-.313.37-.641.741t-.641.741a.456.456,0,0,1-.157.142.744.744,0,0,0-.157.114q-.171.171-.328.356t-.328.356a1.656,1.656,0,0,1-.37.313q-.142.228-.313.484l-.342.513q-.313.484-.613.926t-.613.926a.8.8,0,0,0-.071.641,1.2,1.2,0,0,0,.356.556,2.491,2.491,0,0,1,.57.513,7.65,7.65,0,0,0,.912.926,12.159,12.159,0,0,0,1.026.784q.712.456,1.41.9t1.382.9q.484.313.94.655t.883.712a1.8,1.8,0,0,1,.37.442q.142.242.285.47.085.085.028.142a2.515,2.515,0,0,0-.256.3.6.6,0,0,1-.256.214,8,8,0,0,1-.912.228,5.092,5.092,0,0,1-.94.085,2.432,2.432,0,0,0-.684.1.843.843,0,0,1-.684-.1.174.174,0,0,0-.157-.043,1.315,1.315,0,0,1-.185.014L14.2-3.68q-.285.028-.556.043a3.651,3.651,0,0,1-.556-.014,2.976,2.976,0,0,1-.47-.1q-.242-.071-.47-.128a.521.521,0,0,0-.256-.043.8.8,0,0,1-.256-.014l-.442-.057a4.006,4.006,0,0,1-.442-.085.165.165,0,0,1-.114-.028,2.244,2.244,0,0,0-.9-.427,2.244,2.244,0,0,1-.9-.427q-.37-.256-.727-.484T7.362-5.9a1.846,1.846,0,0,1-.456-.356,1.493,1.493,0,0,1-.313-.556q.142.085.285.157t.285.128a4.693,4.693,0,0,0,.527.085,4.693,4.693,0,0,1,.527.085q.484.057.94.1t.94.1q.883.028,1.767,0,.712-.057,1.41-.157T14.714-6.5a2.817,2.817,0,0,1,.4-.028,3.456,3.456,0,0,0,.427-.028.506.506,0,0,1,.142-.043,1.178,1.178,0,0,0,.228-.071,1.666,1.666,0,0,1-.171-.142.934.934,0,0,0-.142-.114q-.484-.4-.969-.784T13.659-8.5l-.9-.784a4.878,4.878,0,0,1-.784-.869,6.68,6.68,0,0,0-.613-.741,1.425,1.425,0,0,1-.385-.855.578.578,0,0,0-.142-.271.578.578,0,0,1-.142-.271,4.606,4.606,0,0,1-.2-.869,3.144,3.144,0,0,0-.228-.841,1.013,1.013,0,0,1-.014-.8,3.816,3.816,0,0,1,.385-.655q.256-.37.527-.727t.556-.727a5.856,5.856,0,0,1,.484-.584q.256-.271.513-.584l.456-.627a7.4,7.4,0,0,1,.484-.6l3.163-3.419q.228-.256.47-.513t.47-.484a.968.968,0,0,1,1.225-.142,3.652,3.652,0,0,1,.328.185q.157.1.328.214a.164.164,0,0,0,.114.057,1.267,1.267,0,0,1,1,.271,3.546,3.546,0,0,1,.655.784,6.714,6.714,0,0,1,.342.6.26.26,0,0,1-.028.2,1.3,1.3,0,0,1-.128.4.416.416,0,0,0,.043.427l-.057.142a2.723,2.723,0,0,0-.328.769,3.9,3.9,0,0,1-.3.8,1.563,1.563,0,0,0-.085.2q-.028.085-.171.085-.085,0-.085.142-.228.484-.442,1t-.442,1.026q-.171.4-.328.8t-.3.8a.761.761,0,0,1-.142.2.827.827,0,0,0-.37.413,5.4,5.4,0,0,1-.256.527q-.114.256-.214.527a2.7,2.7,0,0,1-.242.5,4.892,4.892,0,0,0-.271.5q-.128.271-.242.527l-.171.4a.655.655,0,0,0-.028.427q.057.285-.285.142a1.357,1.357,0,0,1-.584-.427,1.558,1.558,0,0,1-.256-.556,2.2,2.2,0,0,1-.057-.613q.014-.313.043-.655a6.67,6.67,0,0,1,.256-1.353q.2-.67.456-1.325.256-.57.47-1.14t.442-1.14a.8.8,0,0,0,.057-.3A1.635,1.635,0,0,1,17.763-18.7Zm15.786,3.676q.256-.256.513-.5t.541-.5l.456-.456.456-.456.085.085q-.285.313-.556.641t-.584.641q.114.114.171.071a.645.645,0,0,0,.114-.114.819.819,0,0,1,.128-.128.122.122,0,0,1,.157,0q-.427.456-.812.912a3.92,3.92,0,0,1-.869.769q-.085.142-.157.242a1.591,1.591,0,0,0-.128.214l-.342.513q-.085.085-.171.185t-.171.214l-.171.228-.171.228q-.142.171-.285.327t-.285.3a.756.756,0,0,0-.142.2,1.334,1.334,0,0,1-.328.653,4.762,4.762,0,0,0-.442.54q-.228.313-.442.582t-.442.582q-.228.313-.456.6t-.456.6q-.342.454-.67.894t-.7.866q-.4.483-.769,1.022a3.886,3.886,0,0,1-.912.937,2.56,2.56,0,0,1-.37.256l-.4.227a.424.424,0,0,1-.313,0q-.228,0-.413-.014T23.8-3.709a.316.316,0,0,0-.1.014.065.065,0,0,1-.071-.014,6.179,6.179,0,0,1-1.14-1.008,2.1,2.1,0,0,1-.484-1.434,3.413,3.413,0,0,1,.028-.767q.057-.369.114-.767t.114-.781a6.077,6.077,0,0,1,.171-.781q.228-.71.442-1.405t.442-1.406q.142-.456.313-.9t.342-.9q.2-.427.385-.855t.413-.883q.4-.883.826-1.752t.855-1.752q.427-.912.869-1.781t.869-1.781a1.473,1.473,0,0,1,.142-.271,1.589,1.589,0,0,1,.2-.242.339.339,0,0,1,.328-.128,1.138,1.138,0,0,1,.328.157.607.607,0,0,0,.313.057,1.321,1.321,0,0,1,.256-.028q.114,0,.142.228a.245.245,0,0,0,.256.142.407.407,0,0,0,.214,0,.407.407,0,0,1,.214,0,.967.967,0,0,1,.655.4,1.881,1.881,0,0,1,.342.741,1.486,1.486,0,0,1-.043.684q-.1.313-.214.627a4.09,4.09,0,0,1-.37.769q-.228.37-.456.769-.228.37-.484.727t-.484.727q-.114.142-.242.313a1.213,1.213,0,0,0-.185.342.853.853,0,0,1-.185.342.383.383,0,0,0-.071.37.132.132,0,0,1-.085.142,1.307,1.307,0,0,0-.484.7,1.761,1.761,0,0,1-.4.727,1.93,1.93,0,0,0-.356.584,2.868,2.868,0,0,1-.356.641.351.351,0,0,0-.057.2.506.506,0,0,1-.057.228q-.142.342-.3.669t-.3.64a1.579,1.579,0,0,0-.085.2l-.456.909.142.142q-.085.17-.185.355t-.185.384a.187.187,0,0,1-.085.085.056.056,0,0,0-.028.085.478.478,0,0,1-.057.454,1.839,1.839,0,0,0-.228.426,7.215,7.215,0,0,0-.741,2.527q-.028.2-.071.4t-.1.4a.23.23,0,0,0-.014.142.89.89,0,0,1,.014.142A.25.25,0,0,1,24.5-4.83.248.248,0,0,0,24.63-4.9q.57-.71,1.111-1.405t1.111-1.377q.484-.653,1-1.264t1.026-1.207q.456-.54.912-1.051l.912-1.024q.114-.142.2-.271t.2-.271a.223.223,0,0,0,.057.043.223.223,0,0,1,.057.043,3.532,3.532,0,0,1-.313.427q-.171.2-.313.4l.085.085a2.152,2.152,0,0,1,.242-.156.671.671,0,0,0,.214-.185,3.033,3.033,0,0,0,.3-.413q.128-.214.271-.413a2.443,2.443,0,0,1,.313-.313q.171-.142.313-.285a5.4,5.4,0,0,0,.4-.442q.171-.214.37-.442a1.761,1.761,0,0,0,.242-.3A3.4,3.4,0,0,1,33.548-15.021ZM29.9-10.661a5.485,5.485,0,0,1,.3-.527.672.672,0,0,1,.556-.271q-.142-.114-.228-.185t-.228.071q-.142.142-.256.271t-.228.271Q29.588-10.8,29.9-10.661Zm-5.385-2.194a.275.275,0,0,0,.142.114q.085.028.142-.142.085-.228.171-.484t.171-.484a.082.082,0,0,0-.028-.057.331.331,0,0,1-.057-.085q-.142.313-.271.584T24.516-12.855Zm-.285,1.225a.165.165,0,0,1-.114-.028,1.355,1.355,0,0,0-.313.556.621.621,0,0,0,0,.527q.114-.285.214-.541T24.231-11.63ZM34.574-3.68q-.2-.057-.356-.114t-.328-.114a1.527,1.527,0,0,1-.484-.584q-.171-.356-.342-.727a2.7,2.7,0,0,1-.256-1.254q.028-.627.085-1.282a12.511,12.511,0,0,1,.912-3.619,9.826,9.826,0,0,0,.342-.969,9.827,9.827,0,0,1,.342-.969q.228-.655.5-1.311t.556-1.311a.269.269,0,0,0,.014-.157.554.554,0,0,1,.014-.214q.057-.114.142-.256l.171-.285a.437.437,0,0,0,.057-.171A.437.437,0,0,0,36-17.186a.4.4,0,0,0-.171.028,2.452,2.452,0,0,0-.456.057.317.317,0,0,1-.028-.142l.342-.085q-.085-.228.057-.313a1.325,1.325,0,0,0,.256-.2q.285-.228.527-.456a1.356,1.356,0,0,0,.356-.57.676.676,0,0,1,.684-.541.3.3,0,0,0,.157-.043q.071-.043.128-.071a.775.775,0,0,0,.214-.028.149.149,0,0,1,.157.028,1.2,1.2,0,0,1,.328.171,2.322,2.322,0,0,0,.328.2q.142.085.285.157a.981.981,0,0,1,.256.185q.228.228.456.442a1.925,1.925,0,0,1,.37.47.981.981,0,0,1,.1.5,2.626,2.626,0,0,1-.071.5,1.63,1.63,0,0,1-.228.584q-.171.271-.342.527a3.519,3.519,0,0,1-.385.57,1.256,1.256,0,0,0-.271.627.31.31,0,0,1-.157.157,2.367,2.367,0,0,1-.271.128q-.484.969-.969,1.923t-.969,1.923l-.028-.028a1.519,1.519,0,0,1-.028.342.964.964,0,0,1-.171.342.359.359,0,0,0-.028.37l-.028.028a.555.555,0,0,0-.328.513,1.352,1.352,0,0,1-.128.627,2.3,2.3,0,0,0-.285.883,4,4,0,0,1-.228.94A2.02,2.02,0,0,0,35.315-6q-.029.214-.057.442t-.071.442a.745.745,0,0,1-.214.385.842.842,0,0,0-.256.741.306.306,0,0,1-.057.171A1.394,1.394,0,0,0,34.574-3.68ZM33.548-15.049q-.114.057-.228.128a1.614,1.614,0,0,1-.256.128,1.117,1.117,0,0,1-.256.114q.313-.313.6-.584t.57-.584a.082.082,0,0,1,.057.028,3.11,3.11,0,0,1-.228.256,3.108,3.108,0,0,0-.228.256A.708.708,0,0,0,33.548-15.049Zm-1.624,1.539q-.142.171-.313.342l-.342.342-.085-.085q.142-.171.313-.342l.342-.342Zm.883-1.168a.886.886,0,0,1-.285.541l-.456.4a.05.05,0,0,1-.057-.057q.2-.228.4-.442T32.807-14.679Zm15.957-2.65a.567.567,0,0,1-.142.769.509.509,0,0,0-.142.142,1.265,1.265,0,0,0-.114.228q-.142.114-.285.242a2.9,2.9,0,0,0-.285.3.43.43,0,0,1,.114.256q0,.114-.228.2a.349.349,0,0,0-.128.2,3.306,3.306,0,0,1-.128.342,1.578,1.578,0,0,0,.4-.085q.228-.313.427-.641t.427-.641l.342-.456q.171-.228.37-.456a.707.707,0,0,1,.171-.214.285.285,0,0,0,.114-.214.473.473,0,0,1,.214-.442,1.176,1.176,0,0,0,.356-.328q.142-.228.285-.413t.285-.413q.171-.228.313-.442a4.3,4.3,0,0,1,.313-.413q.484-.513.969-1.012t.969-.983a1.245,1.245,0,0,1,.185-.2q.1-.085.214-.171l.057.057q-.4.4-.769.8t-.769.8q0,.028.057.085a.689.689,0,0,0,.313-.142q.342-.313.67-.655t.641-.655q.313-.256.114-.541.142-.171.271-.342t.271-.342a.118.118,0,0,0,.043-.114.161.161,0,0,1,.014-.114.565.565,0,0,0-.256.057q-.256.2-.5.37a4.063,4.063,0,0,1-.527.313.223.223,0,0,0,.043-.057.223.223,0,0,1,.043-.057l.841-.67q.413-.328.812-.7a.432.432,0,0,0,.157-.228.813.813,0,0,1,.128-.256,1.887,1.887,0,0,1,.228-.242q.114-.1.256-.214a.283.283,0,0,1,.128-.028q.071,0,.071.028.114.256.313.185a.478.478,0,0,1,.342-.014,3.367,3.367,0,0,1,.37.185l.37.214a1.047,1.047,0,0,1,.214.142q.1.085.242.2,0,.256.4.484a.351.351,0,0,1,.2.242,2.322,2.322,0,0,0,.142.356,2.76,2.76,0,0,1,.1.3.658.658,0,0,1-.014.356,2.552,2.552,0,0,0-.071.47,2.552,2.552,0,0,1-.071.47.8.8,0,0,1-.1.228q-.071.114-.128.228l-.8,1.14-.8,1.14a.628.628,0,0,0-.114.242,1.048,1.048,0,0,1-.085.242q-.085.228-.171.427a.765.765,0,0,1-.313.342.45.45,0,0,0-.157.271,1.124,1.124,0,0,1-.128.328,2.383,2.383,0,0,1-.2.413q-.114.185-.228.385a1.07,1.07,0,0,0-.185.413,2.083,2.083,0,0,1-.128.413,1.024,1.024,0,0,0-.114.67.956.956,0,0,1-.171.7.634.634,0,0,0-.071.456,2.29,2.29,0,0,1,.014.57,1.315,1.315,0,0,1-.014.185,1.512,1.512,0,0,0-.014.214q.114.228.214.47t.214.5a.772.772,0,0,1-.969,0,3.979,3.979,0,0,1-1.51-1.809,6.2,6.2,0,0,1-.427-2.322,10.386,10.386,0,0,1,.855-3.961,2.691,2.691,0,0,0,.185-.484q.071-.256.157-.513l-.085-.085a.744.744,0,0,1-.157.114.744.744,0,0,0-.157.114q-.313.342-.6.684t-.6.712a3.731,3.731,0,0,0-.256.413q-.114.214-.256.442a1.774,1.774,0,0,1-.185.256q-.1.114-.214.256-.256.37-.527.727a6.92,6.92,0,0,0-.5.755q-.6.912-1.168,1.838t-1.14,1.866q-.484.826-.912,1.681t-.855,1.681q-.37.684-.684,1.382T44.49-6.33a4.773,4.773,0,0,1-.385.641,3.66,3.66,0,0,0-.356.613,2.566,2.566,0,0,1-.413.641,7.422,7.422,0,0,0-.47.584.672.672,0,0,1-1.083.2,1.363,1.363,0,0,0-.356-.171.615.615,0,0,1-.328-.285,3.708,3.708,0,0,1-.513-1.026,5.5,5.5,0,0,1-.228-1.111,10.856,10.856,0,0,1,.171-2.935,24.235,24.235,0,0,1,1.111-3.9q.228-.6.47-1.211t.5-1.211q.285-.655.57-1.282t.57-1.282l.271-.541a3.379,3.379,0,0,0,.214-.541,3.235,3.235,0,0,1,.442-.955,5.131,5.131,0,0,0,.5-.926,8.434,8.434,0,0,1,.456-.983q.256-.47.484-.955a1.221,1.221,0,0,1,.912-.8.39.39,0,0,0,.157.228.307.307,0,0,0,.2.043q.1-.014.228-.028a.506.506,0,0,1,.214.014v.256a.53.53,0,0,1,.5.014,2.834,2.834,0,0,1,.385.328q.228.228.47.456a1.631,1.631,0,0,1,.385.57,1.106,1.106,0,0,1,.057.142.469.469,0,0,1,.028.142,6.6,6.6,0,0,0-.171.883,1.469,1.469,0,0,1-.4.826q-.256.313-.5.613a2.36,2.36,0,0,0-.385.7.348.348,0,0,1-.157.228.484.484,0,0,0-.185.228q-.171.313-.328.67t-.328.67a2.322,2.322,0,0,1-.2.328,1.394,1.394,0,0,1-.256.271,1.6,1.6,0,0,0-.584.627,6.931,6.931,0,0,0-.328.769,2.362,2.362,0,0,1-.214.47.608.608,0,0,1-.442.271.649.649,0,0,1,.057.584,1.835,1.835,0,0,1-.313.5q-.114.142-.228.3a.5.5,0,0,0-.057.413.259.259,0,0,1-.1.242.812.812,0,0,0-.185.271q-.171.313-.37.641a2.51,2.51,0,0,0-.285.641,2.141,2.141,0,0,1-.214.613.722.722,0,0,0-.014.641q.057.085-.057.228a1.134,1.134,0,0,0-.171.285,2.142,2.142,0,0,0-.142.37q-.057.2-.142.456a.873.873,0,0,1,.157-.085.379.379,0,0,0,.128-.085L45.288-11.8l.684-1.2q.342-.6.712-1.2.256-.427.541-.855t.57-.883q.142-.228.3-.484t.328-.484a.761.761,0,0,1,.142-.2A2.825,2.825,0,0,0,48.764-17.329Zm-1.225,3.077a.223.223,0,0,0-.057-.043.223.223,0,0,1-.057-.043.358.358,0,0,1-.142.085.358.358,0,0,0-.142.085.255.255,0,0,0-.071.142.255.255,0,0,1-.071.142,1.316,1.316,0,0,1,.185.014.174.174,0,0,0,.157-.043.5.5,0,0,0,.1-.157A1.149,1.149,0,0,1,47.539-14.251Zm-5.357,4.189a.33.33,0,0,1,.071.043.33.33,0,0,0,.071.043q.057-.114.1-.214a1.149,1.149,0,0,1,.1-.185.082.082,0,0,1-.057-.028q-.028-.028-.043-.028t-.043-.028A1.891,1.891,0,0,0,42.182-10.063ZM53.124-22.2q-.37.37-.741.712a8.8,8.8,0,0,0-.712.741,2.222,2.222,0,0,0-.3.37q-.128.2-.271.427a.179.179,0,0,0-.043.071.13.13,0,0,1-.071.071,1.686,1.686,0,0,0-.8.741,5.8,5.8,0,0,1-.6.912l-.228.285a.475.475,0,0,0-.085.37q0,.057-.142.085a1.45,1.45,0,0,1-.285.028,25.221,25.221,0,0,1,4.16-4.929A.171.171,0,0,0,53.124-22.2ZM67.6-15.021q.256-.256.513-.5t.541-.5l.456-.456.456-.456.085.085q-.285.313-.556.641t-.584.641q.114.114.171.071A.645.645,0,0,0,68.8-15.6a.818.818,0,0,1,.128-.128.122.122,0,0,1,.157,0q-.427.456-.812.912a3.92,3.92,0,0,1-.869.769q-.085.142-.157.242a1.59,1.59,0,0,0-.128.214l-.342.513q-.085.085-.171.185t-.171.214l-.171.228-.171.228q-.142.171-.285.327t-.285.3a.756.756,0,0,0-.142.2,1.334,1.334,0,0,1-.328.653,4.761,4.761,0,0,0-.442.54q-.228.313-.442.582t-.442.582q-.228.313-.456.6t-.456.6q-.342.454-.67.894t-.7.866q-.4.483-.769,1.022a3.886,3.886,0,0,1-.912.937,2.56,2.56,0,0,1-.37.256l-.4.227a.424.424,0,0,1-.313,0q-.228,0-.413-.014t-.413-.043a.316.316,0,0,0-.1.014.065.065,0,0,1-.071-.014,6.179,6.179,0,0,1-1.14-1.008,2.1,2.1,0,0,1-.484-1.434,3.413,3.413,0,0,1,.028-.767q.057-.369.114-.767t.114-.781a6.077,6.077,0,0,1,.171-.781q.228-.71.442-1.405t.442-1.406q.142-.456.313-.9t.342-.9q.2-.427.385-.855t.413-.883q.4-.883.826-1.752T60.5-19.1q.427-.912.869-1.781t.869-1.781a1.473,1.473,0,0,1,.142-.271,1.589,1.589,0,0,1,.2-.242.339.339,0,0,1,.328-.128,1.138,1.138,0,0,1,.328.157.607.607,0,0,0,.313.057,1.321,1.321,0,0,1,.256-.028q.114,0,.142.228a.245.245,0,0,0,.256.142.407.407,0,0,0,.214,0,.407.407,0,0,1,.214,0,.966.966,0,0,1,.655.4,1.881,1.881,0,0,1,.342.741,1.486,1.486,0,0,1-.043.684q-.1.313-.214.627a4.09,4.09,0,0,1-.37.769q-.228.37-.456.769-.228.37-.484.727t-.484.727q-.114.142-.242.313a1.213,1.213,0,0,0-.185.342.853.853,0,0,1-.185.342.383.383,0,0,0-.071.37.132.132,0,0,1-.085.142,1.307,1.307,0,0,0-.484.7,1.761,1.761,0,0,1-.4.727,1.93,1.93,0,0,0-.356.584,2.868,2.868,0,0,1-.356.641.351.351,0,0,0-.057.2.506.506,0,0,1-.057.228q-.142.342-.3.669t-.3.64a1.581,1.581,0,0,0-.085.2l-.456.909.142.142q-.085.17-.185.355t-.185.384a.187.187,0,0,1-.085.085.056.056,0,0,0-.028.085.478.478,0,0,1-.057.454,1.84,1.84,0,0,0-.228.426,7.215,7.215,0,0,0-.741,2.527q-.028.2-.071.4t-.1.4a.23.23,0,0,0-.014.142.89.89,0,0,1,.014.142.25.25,0,0,1,.128-.071A.248.248,0,0,0,58.68-4.9q.57-.71,1.111-1.405T60.9-7.684q.484-.653,1-1.264t1.026-1.207q.456-.54.912-1.051l.912-1.024q.114-.142.2-.271t.2-.271a.223.223,0,0,0,.057.043.223.223,0,0,1,.057.043,3.531,3.531,0,0,1-.313.427q-.171.2-.313.4l.085.085a2.152,2.152,0,0,1,.242-.156.671.671,0,0,0,.214-.185,3.033,3.033,0,0,0,.3-.413q.128-.214.271-.413a2.443,2.443,0,0,1,.313-.313q.171-.142.313-.285a5.4,5.4,0,0,0,.4-.442q.171-.214.37-.442a1.76,1.76,0,0,0,.242-.3A3.4,3.4,0,0,1,67.6-15.021Zm-3.647,4.36a5.485,5.485,0,0,1,.3-.527.672.672,0,0,1,.556-.271q-.142-.114-.228-.185t-.228.071q-.142.142-.256.271t-.228.271Q63.638-10.8,63.951-10.661Zm-5.385-2.194a.275.275,0,0,0,.142.114q.085.028.142-.142.085-.228.171-.484t.171-.484a.082.082,0,0,0-.028-.057.332.332,0,0,1-.057-.085q-.142.313-.271.584T58.566-12.855Zm-.285,1.225a.165.165,0,0,1-.114-.028,1.355,1.355,0,0,0-.313.556.621.621,0,0,0,0,.527q.114-.285.214-.541T58.281-11.63ZM68.624-3.68q-.2-.057-.356-.114t-.328-.114a1.527,1.527,0,0,1-.484-.584q-.171-.356-.342-.727a2.7,2.7,0,0,1-.256-1.254q.028-.627.085-1.282a12.511,12.511,0,0,1,.912-3.619,9.828,9.828,0,0,0,.342-.969,9.826,9.826,0,0,1,.342-.969q.228-.655.5-1.311t.556-1.311a.269.269,0,0,0,.014-.157.554.554,0,0,1,.014-.214q.057-.114.142-.256l.171-.285a.437.437,0,0,0,.057-.171.437.437,0,0,0,.057-.171.4.4,0,0,0-.171.028,2.452,2.452,0,0,0-.456.057.317.317,0,0,1-.029-.142l.342-.085q-.085-.228.057-.313a1.325,1.325,0,0,0,.256-.2q.285-.228.527-.456a1.356,1.356,0,0,0,.356-.57.676.676,0,0,1,.684-.541.3.3,0,0,0,.157-.043q.071-.043.128-.071a.775.775,0,0,0,.214-.028.149.149,0,0,1,.157.028,1.2,1.2,0,0,1,.328.171,2.322,2.322,0,0,0,.328.2q.142.085.285.157a.981.981,0,0,1,.256.185q.228.228.456.442a1.925,1.925,0,0,1,.37.47.981.981,0,0,1,.1.5,2.626,2.626,0,0,1-.071.5,1.63,1.63,0,0,1-.228.584q-.171.271-.342.527a3.519,3.519,0,0,1-.385.57,1.255,1.255,0,0,0-.271.627.309.309,0,0,1-.157.157,2.366,2.366,0,0,1-.271.128q-.484.969-.969,1.923t-.969,1.923L70.7-10.49a1.519,1.519,0,0,1-.028.342.964.964,0,0,1-.171.342.359.359,0,0,0-.028.37l-.028.028a.555.555,0,0,0-.328.513,1.352,1.352,0,0,1-.128.627,2.3,2.3,0,0,0-.285.883,4,4,0,0,1-.228.94A2.02,2.02,0,0,0,69.365-6q-.028.214-.057.442t-.071.442a.745.745,0,0,1-.214.385.842.842,0,0,0-.256.741.306.306,0,0,1-.057.171A1.394,1.394,0,0,0,68.624-3.68ZM67.6-15.049q-.114.057-.228.128a1.614,1.614,0,0,1-.256.128,1.117,1.117,0,0,1-.256.114q.313-.313.6-.584t.57-.584a.082.082,0,0,1,.057.028,3.109,3.109,0,0,1-.228.256,3.108,3.108,0,0,0-.228.256A.708.708,0,0,0,67.6-15.049Zm-1.624,1.539q-.142.171-.313.342l-.342.342-.085-.085q.142-.171.313-.342l.342-.342Zm.883-1.168a.886.886,0,0,1-.285.541l-.456.4a.05.05,0,0,1-.057-.057q.2-.228.4-.442T66.858-14.679Zm25.5-2.166a.4.4,0,0,1-.028.342,4.163,4.163,0,0,0-.285.926q-.085.47-.2.955v.028a3.086,3.086,0,0,0-.271.584q-.128.356-.256.741t-.242.755a5.678,5.678,0,0,1-.228.627.192.192,0,0,1-.128.085.657.657,0,0,0-.185.085v.456a.442.442,0,0,1-.2.484.3.3,0,0,0-.185.185q-.043.128-.1.271a1.91,1.91,0,0,1-.142.5,2.332,2.332,0,0,1-.3.513,2.869,2.869,0,0,1-.4.427,1.616,1.616,0,0,1-.413.271.058.058,0,0,1-.014.043.058.058,0,0,0-.014.043,1.276,1.276,0,0,1,.285.37.55.55,0,0,1-.2.513,2.592,2.592,0,0,0-.4.456q-.228.313-.456.655t-.427.67a4.485,4.485,0,0,0-.285.527.058.058,0,0,1-.014.043.058.058,0,0,0-.014.043v.028q.2.256.043.385t-.3.271q-.228.228-.442.47t-.385.47a.177.177,0,0,0-.057.128.177.177,0,0,1-.057.128q-.057.171-.114.313a1.78,1.78,0,0,1-.171.242.858.858,0,0,0-.142.242q-.256.4-.57.826a.623.623,0,0,1-.128.142,1.554,1.554,0,0,0-.128.114q-.114.114-.214.2t-.214.2L84.467-1l-.342.085q.028.085.057.157A.418.418,0,0,1,84.21-.6l-.427.242L83.3-.09l.427.142q-.456.4-.855.769t-.8.712a.728.728,0,0,0-.071.2.255.255,0,0,1-.071.142q-.228.2-.427.37t-.427.37a.957.957,0,0,0-.157.214q-.071.128-.157.271a.691.691,0,0,1-.1.085.691.691,0,0,0-.1.085.268.268,0,0,1-.157.071.268.268,0,0,0-.157.071q-.2.142-.37.285a.343.343,0,0,0-.057.427,1,1,0,0,0-.385-.028q-.071.028-.128.342a1.879,1.879,0,0,1-.584.4.872.872,0,0,0-.47.484.082.082,0,0,1-.028.057q-.6.4-1.168.812t-1.168.812L75.8,6.749q-.256.114-.5.242a2.1,2.1,0,0,1-.47.185q-.6.171-1.168.328a5.352,5.352,0,0,1-1.168.185,2.722,2.722,0,0,1-1-.128,8.213,8.213,0,0,1-.969-.385,3.835,3.835,0,0,1-.9-.613,5.488,5.488,0,0,1-.7-.784,1.958,1.958,0,0,0-.142-.185q-.085-.1.057-.242a2.558,2.558,0,0,0-.142-.342q.142.085.256.142a.43.43,0,0,1,.171.142,1.422,1.422,0,0,0,.926.655,3.018,3.018,0,0,0,1.154-.057A6.436,6.436,0,0,0,72.7,5.267q.684-.4,1.368-.826A13.836,13.836,0,0,0,75.249,3.6q.556-.442,1.1-.926,1.111-1,2.137-2.052t1.938-2.166q.484-.513.926-1.026t.869-1.083q.4-.541.741-1.1T83.7-5.874q.142-.2.37-.556t.47-.727q.242-.37.47-.712t.37-.541a2.621,2.621,0,0,0,.2-.356q.085-.185.2-.385.2-.4.442-.9T86.7-11.06q.242-.513.484-1.012T87.6-13q.114-.285.271-.7t.313-.869q.157-.456.3-.883t.228-.741a.329.329,0,0,0-.057-.313,2.777,2.777,0,0,1-.541.684q-.313.285-.655.541a1.064,1.064,0,0,0-.356.356,1.987,1.987,0,0,1-.3.385q-.114.114-.214.2t-.242.228q-.085.142-.171.313a1.2,1.2,0,0,1-.228.313q-.484.513-.969,1.012t-.969,1.012q-.313.37-.627.712t-.627.712a4.972,4.972,0,0,0-.356.456q-.157.228-.328.456-.228.313-.47.627t-.527.627q-.313.4-.6.769t-.6.741q-.37.4-.727.755t-.727.755a3.471,3.471,0,0,0-.256.285,3.469,3.469,0,0,1-.256.285q-.427.427-.94.855a.783.783,0,0,1-.4.171,2.7,2.7,0,0,1-.655.085q-.085,0-.256-.171-.085-.057-.142-.1a.231.231,0,0,0-.142-.043,2.826,2.826,0,0,1-.4-.128.825.825,0,0,1-.313-.242A3.438,3.438,0,0,1,73.9-5.96q-.028-.57,0-1.14a4.05,4.05,0,0,1,.228-1.14,3.927,3.927,0,0,0,.071-.584,1.792,1.792,0,0,1,.128-.584q.2-.712.442-1.4t.47-1.368a11.1,11.1,0,0,1,.427-1.14q.142-.4.271-.755t.3-.727l1.282-2.821.356-.812q.157-.356.313-.7t.3-.7q.142-.356.37-.812l.157-.313a1.268,1.268,0,0,1,.071-.128,1.269,1.269,0,0,0,.071-.128q.043-.085.185-.313.285-.57.6-1.14l.627-1.14a.467.467,0,0,1,.3-.3.922.922,0,0,1,.47-.071,2.747,2.747,0,0,1,1.183.37,10.487,10.487,0,0,1,1.012.684.97.97,0,0,1,.256.427q.057.313.128.641a1.624,1.624,0,0,1,.014.641,2.344,2.344,0,0,1-.655,1.04,5.749,5.749,0,0,0-.94,1.3.635.635,0,0,1-.157.2,1.245,1.245,0,0,0-.185.2.837.837,0,0,0-.2.228q-.085.142-.157.271a3.634,3.634,0,0,1-.214.328q.142.142-.2.4a1.94,1.94,0,0,0-.328.242.959.959,0,0,0-.157.2,1.163,1.163,0,0,0-.1.242,2.465,2.465,0,0,1-.157.37,1.029,1.029,0,0,1-.128.2,1.029,1.029,0,0,0-.128.2.591.591,0,0,1-.456.655,1.5,1.5,0,0,1,0,.413.962.962,0,0,1-.2.413,2.079,2.079,0,0,0-.313.57q-.114.313-.256.627-.085.142-.185.285t-.242.313q.142.37-.4.655a.691.691,0,0,0,.1.085.467.467,0,0,1,.071.057q-.085.2-.157.37t-.128.313a.937.937,0,0,1-.228.028.232.232,0,0,0-.171.057,1.113,1.113,0,0,0-.085.228q-.028.114.171.171.114.057.114.142-.057.228-.128.442t-.157.527a.883.883,0,0,0-.057-.2l-.057-.114q-.228.085-.256.242a.654.654,0,0,0,.028.328.494.494,0,0,1,.071.356.6.6,0,0,1-.3.271.946.946,0,0,1,.085.37q0,.171-.313.285a.309.309,0,0,0-.057.114.184.184,0,0,0,0,.142.372.372,0,0,1,.028.313,1.134,1.134,0,0,1-.171.285.658.658,0,0,0-.085.185q-.028.1-.057.185-.057.313-.1.613t-.1.613a1.028,1.028,0,0,1-.128.2q-.071.085-.185.228a.556.556,0,0,1,.128.3.409.409,0,0,1-.185.328.108.108,0,0,0-.014.1.66.66,0,0,1,.014.128.253.253,0,0,1,.114-.028.253.253,0,0,0,.114-.028q.313-.313.655-.613t.655-.613q.627-.655,1.168-1.339.655-.741,1.282-1.5t1.254-1.5q.256-.285.513-.527a5.14,5.14,0,0,0,.484-.527q.256-.285.5-.57t.5-.57q.627-.712,1.339-1.425.456-.484.883-.955t.883-.926q.37-.37.727-.684a6.514,6.514,0,0,0,.67-.684q.4-.4.741-.8t.741-.8a2.35,2.35,0,0,0,.484-.912q.057-.313.271-.256a.661.661,0,0,0,.385,0,.2.2,0,0,1,.185.043q.1.071.185.128a2.5,2.5,0,0,1,.513.157.5.5,0,0,1,.256.47q0,.057.142.114l.342.4q.171.2.313.4.057,0,.057.085.057.228.1.47A2.864,2.864,0,0,1,92.36-16.844ZM75.919-11.032q.114-.228.2-.427t.171-.427q.029-.028-.014-.071t-.043-.014q-.142,0-.171.085-.085.228-.185.442t-.214.47Zm.427.028a1.992,1.992,0,0,0,.142-.285l.114-.285q.085-.171.157-.356t.157-.356h.114a1.249,1.249,0,0,0-.142-.256,2.474,2.474,0,0,0-.513.841A.818.818,0,0,0,76.346-11Zm5.927,8.064q-.142.142-.256.271T81.76-2.4a.611.611,0,0,1,.142.114,3.471,3.471,0,0,0,.256-.285,3.47,3.47,0,0,1,.256-.285.33.33,0,0,1-.071-.043A.33.33,0,0,0,82.273-2.939ZM80.82-1q.142.228.014.342t-.271.228a.222.222,0,0,0-.071.128.422.422,0,0,1-.043.128.33.33,0,0,1,.071.043.33.33,0,0,0,.071.043q.114-.163.242-.323T81.1-.745V-.859q-.2-.085-.1-.185a.707.707,0,0,0,.128-.157,2.776,2.776,0,0,1,.256-.328q.142-.157.285-.328a.156.156,0,0,0,.057-.1.23.23,0,0,1,.028-.1.649.649,0,0,0-.541.427,1.2,1.2,0,0,1-.4.57Zm-.94.94a.278.278,0,0,0-.057.2A.082.082,0,0,1,79.851.2q.2-.171.37-.328t.342-.328q-.057-.2-.157-.142a.456.456,0,0,0-.157.142,1.245,1.245,0,0,0-.2.185Q79.965-.175,79.879-.061ZM72.813,6.35a2.7,2.7,0,0,1,.5-.242,1.95,1.95,0,0,0,.5-.271q.285-.228.584-.442a.9.9,0,0,1,.727-.128,1.669,1.669,0,0,1-.228-.2,1.593,1.593,0,0,1,.171-.1.542.542,0,0,0,.142-.1.308.308,0,0,0,.085.228.41.41,0,0,0,.142-.285,1.108,1.108,0,0,0,.057-.142.184.184,0,0,1,.085-.114,1.056,1.056,0,0,0,.513-.4.682.682,0,0,1,.6-.285q.142.028.313-.157a3.633,3.633,0,0,1,.342-.328.223.223,0,0,1-.043-.057.223.223,0,0,0-.043-.057,1.859,1.859,0,0,0-.2.171,1.184,1.184,0,0,1-.228.171q-.057-.057-.085-.057a4.178,4.178,0,0,0,.342-.37q.37-.313.712-.613a4.67,4.67,0,0,0,.627-.67q.228-.256.427-.47a.8.8,0,0,1,.541-.242.5.5,0,0,0,.185-.128,1.252,1.252,0,0,0,.157-.185q.028-.028-.014-.1T79.651.651a.121.121,0,0,1,0-.114.884.884,0,0,0,.057-.171l.128.171a.283.283,0,0,0,.1.085.274.274,0,0,0,.2-.028.158.158,0,0,0,.028-.2q-.057-.085-.3-.114t-.3.057q-.6.627-1.182,1.225T77.2,2.759q-.228.228-.456.442t-.456.442q-.37.313-.741.584t-.741.556q-.456.37-.9.712a3.081,3.081,0,0,1-1.012.513.184.184,0,0,0-.085.114.358.358,0,0,1-.085.142Zm1.824.057a.174.174,0,0,0,.043-.157.732.732,0,0,1,.014-.242q-.2.142-.328.228t-.242.171a.219.219,0,0,1,.028.085.219.219,0,0,0,.029.085,1.113,1.113,0,0,1,.228-.085A1.114,1.114,0,0,0,74.636,6.407ZM80.478.993a.692.692,0,0,1,.171-.228.365.365,0,0,1-.228-.142q-.228.228-.413.427a5.556,5.556,0,0,1-.413.4q.057.085.114.157a.5.5,0,0,1,.085.157q0,.028-.057.085a.446.446,0,0,0-.114-.085,1.394,1.394,0,0,1-.142-.085.969.969,0,0,1-.427.4.456.456,0,0,0-.285.427q-.285.228-.527.442l-.5.442q.2.142.313.228-.028.028-.028.043T78,3.7l-.256-.171q-.171.142-.356.271a2.367,2.367,0,0,0-.328.271,4.942,4.942,0,0,0-.513.47q-.228.242-.513.5H76a1.9,1.9,0,0,0-.57.328q-.256.214-.513.442a.252.252,0,0,0-.071.114.491.491,0,0,1-.071.142,2.36,2.36,0,0,1,.256-.057q.228-.114.442-.228a1.931,1.931,0,0,1,.442-.171.689.689,0,0,0,.313-.142q.085-.085,0-.313h.313A.8.8,0,0,0,76.531,5a.194.194,0,0,1,.014-.128.058.058,0,0,0,.014.043.058.058,0,0,1,.014.043,2.884,2.884,0,0,1,.484-.242,1.527,1.527,0,0,0,.427-.242,9.372,9.372,0,0,0,1.168-1.14,1.137,1.137,0,0,1,.214-.214.257.257,0,0,0,.071-.3.157.157,0,0,1,.014-.142l.1-.2a.866.866,0,0,1,.128.1l.1.1a.154.154,0,0,0,.071-.057.154.154,0,0,1,.071-.057q.2-.228.37-.427t.37-.427a.151.151,0,0,0,0-.128.418.418,0,0,1-.028-.157.622.622,0,0,0,.214-.2Q80.421,1.107,80.478.993ZM81.959-.631q.142-.114.285-.242t.37-.3a.418.418,0,0,1-.157-.028.151.151,0,0,0-.128,0A1.669,1.669,0,0,0,82.1-1l-.057-.057a.469.469,0,0,1,.028-.142.469.469,0,0,0,.028-.142q-.028-.028-.043-.028T82.016-1.4q-.4.484-.769.94t-.741.94a.336.336,0,0,0,.043.142.542.542,0,0,0,.1.142q.085-.142.185-.285T81.048.2L81.1.252l-.085.342a.082.082,0,0,0,.057.028.082.082,0,0,1,.057.028,5.274,5.274,0,0,1,.342-.413q.171-.185.37-.413a3.254,3.254,0,0,1-.313-.285q.142-.028.256-.043a1.923,1.923,0,0,0,.228-.043Q81.959-.6,81.959-.631Zm2.505-3.134a.448.448,0,0,0,.073-.2,1.9,1.9,0,0,1,.043-.228H84.5a3.615,3.615,0,0,0-.242.385.845.845,0,0,1-.385.328,5.15,5.15,0,0,0,.285-.584.213.213,0,0,0-.028-.185q-.319.427-.637.869t-.637.869q-.174.228-.333.427a.643.643,0,0,0-.131.484.253.253,0,0,0,.028.114l.057.114.114-.114a.447.447,0,0,0,.085-.114q.057-.171.1-.342a2.436,2.436,0,0,1,.1-.313h.085a.555.555,0,0,0-.014.214,1.748,1.748,0,0,1,.014.242.768.768,0,0,0,.29-.256q.319-.427.624-.855T84.465-3.766Zm3.963-13.022a2.882,2.882,0,0,0,.385-.47,2.882,2.882,0,0,1,.385-.47.164.164,0,0,1-.114-.057,2.139,2.139,0,0,1-.228.2,2.14,2.14,0,0,0-.228.2l-.855.94q-.256.256-.528.513t-.53.513q-.373.37-.731.741t-.7.741a2.158,2.158,0,0,1-.287.242,2.158,2.158,0,0,0-.287.242,6.588,6.588,0,0,0-.659.826l-.172.228a1.88,1.88,0,0,1-.172.2q-.229.228-.444.47t-.445.47a1.993,1.993,0,0,0-.142.285.447.447,0,0,0,.114.085q.143-.142.272-.3t.244-.3l.559-.5a3.074,3.074,0,0,0,.473-.527,8.04,8.04,0,0,1,.8-.9q.43-.413.832-.841a6,6,0,0,1,.459-.413,6.059,6.059,0,0,0,.459-.413,1.458,1.458,0,0,0,.244-.242q.1-.128.215-.271a.091.091,0,0,0,.057-.085.164.164,0,0,1,.057-.114q.228-.256.484-.5T88.428-16.787ZM83.27-2.8q.114-.142.2-.256l.171-.228Q83.868-2.968,83.27-2.8Zm22.51-14.1v.028Zm.4,11.768a1,1,0,0,0,.242.513,2.734,2.734,0,0,0,.356.328q.171.128.256.2t-.085.157a.417.417,0,0,0-.256.085.541.541,0,0,1-.5.085q-.242-.085-.47-.171a.611.611,0,0,1-.342-.2,2.594,2.594,0,0,1-.2-.285,1.6,1.6,0,0,0-.328-.342,1.144,1.144,0,0,1-.3-.342,8.988,8.988,0,0,1-.627-1.567,3.869,3.869,0,0,1-.142-1.909,12.652,12.652,0,0,1,.484-1.852q.313-1,.684-1.952t.8-1.866q.228-.456.456-.9t.456-.9a.058.058,0,0,1,.014-.043.113.113,0,0,0,.014-.071h-.114l-.556.556q-.271.271-.527.556a4.279,4.279,0,0,0-.4.456,4.279,4.279,0,0,1-.4.456q-.256.285-.527.556t-.527.556l-.442.5-.442.5a3,3,0,0,1-.171.256,2.139,2.139,0,0,1-.2.228.193.193,0,0,1-.142.057h-.114a1.092,1.092,0,0,0-.071.242.268.268,0,0,1-.071.157q-.313.4-.641.8t-.67.8l-.028.028a1.256,1.256,0,0,1-.271.627q-.214.256-.413.513a5.778,5.778,0,0,1-.47.57q-.242.256-.47.541a3.157,3.157,0,0,0-.356.5,1.853,1.853,0,0,1-.385.47.665.665,0,0,0-.3.385.474.474,0,0,1-.328.328.137.137,0,0,0-.1.043.079.079,0,0,0-.014.1q.057.2-.057.285a2.473,2.473,0,0,0-.256.228,3.374,3.374,0,0,0-.684.826.869.869,0,0,1-.655.37.886.886,0,0,1-.712-.285,1.892,1.892,0,0,1-.328-.356.985.985,0,0,1-.157-.47q0-.028-.057-.085a1.041,1.041,0,0,1-.484-.442q-.171-.3-.313-.613-.057-.142-.114-.3a2.062,2.062,0,0,1-.085-.3,5.927,5.927,0,0,1,.114-2.821q.171-.684.385-1.339T94.582-12a.5.5,0,0,1,.071-.142.748.748,0,0,0,.071-.114,2.019,2.019,0,0,0,.085-.256,2.022,2.022,0,0,1,.085-.256q.085-.228.2-.47t.228-.47l.171-.4.171-.4q.171-.313.328-.613t.328-.613q.313-.54.6-1.062t.6-1.057q.6-.987,1.311-1.956.4-.57.826-1.14t.912-1.14a7.749,7.749,0,0,1,.67-.7l.7-.641a3.421,3.421,0,0,1,1.453.6q.627.456,1.225.94l.627.513q.313.256.627.541a.921.921,0,0,1,.228.185q.085.1.2.214.342.313.7.627t.7.627a.934.934,0,0,0,.142.114,1.864,1.864,0,0,0,.2.114,1.114,1.114,0,0,0-.228.085v.085q.142.085.2.028l.37-.213.37-.214q.114-.114.2-.057a1.577,1.577,0,0,0,.4.071q.228.014.285.328a.2.2,0,0,0,.142.085.642.642,0,0,1,.2.084.863.863,0,0,0,.157.085.864.864,0,0,1,.157.085.132.132,0,0,0,.1.014q.043-.014.1.043.2.225.4.423a3.977,3.977,0,0,1,.37.423.8.8,0,0,1,.071.592.719.719,0,0,1-.3.507q-.085.085-.085.113a.428.428,0,0,0-.071.169.255.255,0,0,1-.071.142,3.39,3.39,0,0,0-.627.94.868.868,0,0,1-.2.285,3.47,3.47,0,0,0-.256.285l-.285.456q-.142.228-.256.456-.228.427-.442.869a3.333,3.333,0,0,1-.556.812,1.128,1.128,0,0,0-.228.328q-.085.185-.171.385a4.537,4.537,0,0,0-.313.712q-.057.2-.1.385a1.6,1.6,0,0,1-.128.356,1.473,1.473,0,0,1-.142.271.327.327,0,0,0-.028.3l-.028.057a.4.4,0,0,0-.285.413,1.08,1.08,0,0,1-.057.5,1.825,1.825,0,0,1-.157.3,1.481,1.481,0,0,0-.157.328q-.085.427-.157.841a8.124,8.124,0,0,0-.1.841q0,.228.014.442T106.179-5.133ZM94.354-8.268q-.2-.085-.228-.185a.335.335,0,0,1,.014-.214,2.373,2.373,0,0,1,.1-.228.322.322,0,0,0,.028-.228q-.484.342-.256.769a.184.184,0,0,0,.114.085.358.358,0,0,1,.142.085Zm.171-1.539q.085-.171.157-.356t.157-.385a1.593,1.593,0,0,1-.171.1.542.542,0,0,0-.142.1,4.072,4.072,0,0,0-.313.655.284.284,0,0,0-.043.2,1.634,1.634,0,0,1,.014.2.165.165,0,0,0,.114.028q.057-.142.114-.271T94.525-9.806Zm.57-1.311a.158.158,0,0,0-.028-.2A.192.192,0,0,0,94.9-11.4a.24.24,0,0,0-.142.2q-.029.085.085.2-.114.085-.285.2a.368.368,0,0,0,.142.128.542.542,0,0,1,.142.1,2.365,2.365,0,0,1,.128-.271A2.365,2.365,0,0,0,95.1-11.117Zm.085-.37a.164.164,0,0,0,.057-.114.164.164,0,0,1,.057-.114.657.657,0,0,0,.085-.185.658.658,0,0,1,.085-.185q.142-.228.285-.413a2.534,2.534,0,0,0,.256-.413q.142-.4.285-.784a4.271,4.271,0,0,1,.37-.755.136.136,0,0,0,.043-.128.136.136,0,0,1,.043-.128,7.752,7.752,0,0,1,.456-.712q.057-.114.1-.214t.1-.214q-.057-.057-.057-.085a.252.252,0,0,1-.114.071.252.252,0,0,0-.114.071q-.2.285-.37.556l-.37.584a.23.23,0,0,0-.028.1.1.1,0,0,1-.028.071.815.815,0,0,0-.385.484q-.071.285-.128.57a.219.219,0,0,0-.028.085.082.082,0,0,1-.028.057,2.515,2.515,0,0,0-.256.3.442.442,0,0,0-.057.385q.085.085-.028.085a.319.319,0,0,0-.256.313.5.5,0,0,1-.142.37q-.057.028-.029.128a.658.658,0,0,0,.085.185q0,.028.057.043T95.181-11.487Zm1.881-3.049a1.028,1.028,0,0,0,.271-.214q.014-.043-.157-.157l-.057.171Q97.09-14.65,97.061-14.536Zm-.228,2.109q.028-.028,0-.085l-.057-.114a.179.179,0,0,1-.071.043.179.179,0,0,0-.071.043,1.211,1.211,0,0,0-.2.313.058.058,0,0,0,.014.043.058.058,0,0,1,.014.043A1.754,1.754,0,0,0,96.833-12.428ZM95.409-9.664a.116.116,0,0,0,.085.028q.057-.142.1-.256t.1-.256a.126.126,0,0,1-.057-.014.2.2,0,0,0-.085-.014,1.054,1.054,0,0,0-.071.256A1.054,1.054,0,0,1,95.409-9.664Zm4.73-.684q.285-.142.427-.2-.142-.142-.214-.114T100.139-10.348Zm.427-.342.171-.256a.1.1,0,0,0-.043-.085.467.467,0,0,1-.071-.057.811.811,0,0,0-.142.171Q100.452-10.889,100.566-10.69Zm4.046-3.733a.082.082,0,0,1-.028-.057.126.126,0,0,0-.014-.057.126.126,0,0,1-.014-.057,1.593,1.593,0,0,1-.171.1,1.593,1.593,0,0,0-.171.1.5.5,0,0,1,.057.142Zm1.026-1.738q.6-.57,1.2-1.168t1.2-1.168q-.057-.057-.057-.085-.4.313-.769.627t-.769.627l-.285.285a.5.5,0,0,1-.37.142l.9-.784q.442-.385.926-.784-.143-.057-.229-.085a.718.718,0,0,1-.171-.085,2.364,2.364,0,0,1-.271-.128,2.365,2.365,0,0,0-.271-.128,1.048,1.048,0,0,1-.214-.142.86.86,0,0,0-.243-.142.657.657,0,0,0-.185-.085.663.663,0,0,1-.186-.085,8.147,8.147,0,0,1-.671-.5,8.148,8.148,0,0,0-.671-.5.285.285,0,0,0-.286-.057,2.284,2.284,0,0,0-.6.427q-.4.4-.772.826t-.771.855a2.158,2.158,0,0,1-.229.2,1.285,1.285,0,0,0-.228.228,1.249,1.249,0,0,1-.343.328.854.854,0,0,0-.314.385,1.428,1.428,0,0,1-.257.427,3.553,3.553,0,0,0-.314.427l-.057.028q-.142.228-.271.413t-.272.385a.719.719,0,0,0-.085.171.711.711,0,0,1-.086.171q-.257.427-.543.841a7.188,7.188,0,0,0-.514.869,9.336,9.336,0,0,0-.5.969q-.214.484-.443,1-.285.627-.543,1.239T96.521-8.98l-.114.342a.308.308,0,0,1-.286.2.418.418,0,0,0,.028.157.11.11,0,0,1-.028.128,1.019,1.019,0,0,0-.22.484q-.039.256-.065.541A.283.283,0,0,0,95.807-7a.283.283,0,0,1-.028.128,2.17,2.17,0,0,0-.128.655,2.965,2.965,0,0,0,.043.655,1.22,1.22,0,0,0,.085.285,63.056,63.056,0,0,1,4.174-5.343q2.2-2.522,4.545-4.944a2.729,2.729,0,0,1-.3.4,3.914,3.914,0,0,0-.3.37q-.256.285-.5.541t-.47.541a2.846,2.846,0,0,0-.256.285.935.935,0,0,0-.114.142l-.114.171a.331.331,0,0,1-.085.057q-.057.028-.057.057.057.2-.028.228a1.971,1.971,0,0,1-.228.057.663.663,0,0,0-.171.114l-.328.385q-.157.185-.328.413a.253.253,0,0,0-.028.114v.114l-.171.114-.171.114a.181.181,0,0,0-.043.085.085.085,0,0,0,.014.085.466.466,0,0,0,.071.057q.043.028.071,0a.28.28,0,0,0,.256-.142q.171-.171.328-.356l.328-.385a1.133,1.133,0,0,1,.142-.171.449.449,0,0,0,.114-.171q.028-.256.256-.2.142,0,.228-.2a1.657,1.657,0,0,1,.342-.541l.456-.456.456-.456a.554.554,0,0,0,.128-.2,2.377,2.377,0,0,1,.1-.228.358.358,0,0,1,.142-.085.358.358,0,0,0,.142-.085.992.992,0,0,0,.2-.2l.171-.228a1.992,1.992,0,0,1,.185-.214.823.823,0,0,0,.157-.214.68.68,0,0,1,.271-.242.437.437,0,0,1,.356-.043q.285.171.484-.171a2.453,2.453,0,0,0-.271.014q-.128.014-.271.043a.126.126,0,0,0-.014-.057A.126.126,0,0,1,105.638-16.16Z" transform="translate(1100.216 3528.08)" fill="#f8f8f8"/>
  </g>
</svg>
