<?xml version="1.0" encoding="utf-8"?>
<!-- Generator: Adobe Illustrator 25.4.1, SVG Export Plug-In . SVG Version: 6.00 Build 0)  -->
<svg version="1.1" id="レイヤー_1" xmlns="http://www.w3.org/2000/svg" xmlns:xlink="http://www.w3.org/1999/xlink" x="0px"
	 y="0px" viewBox="0 0 193 63" style="enable-background:new 0 0 193 63;" xml:space="preserve">
<style type="text/css">
	.st0{fill:none;}
	.st1{fill:none;stroke:#FFFFFF;stroke-width:5;}
	.st2{enable-background:new    ;}
	.st3{fill:#FFFFFF;}
</style>
<g id="グループ_38" transform="translate(-912 1598)">
	<g id="長方形_15" transform="translate(912 -1598)">
		<rect class="st0" width="193" height="63"/>
		<rect x="2.5" y="2.5" class="st1" width="188" height="58"/>
	</g>
	<g class="st2">
		<path class="st3" d="M940.2-1557h-10v-2.7h3v-12.9h-3v-2.7h10v2.7h-3v12.9h3V-1557z"/>
		<path class="st3" d="M956.5-1557h-3.8v-7c0-2-0.2-3.2-0.7-3.7c-0.4-0.5-1.1-0.7-2.1-0.7c-0.8,0-1.8,0.4-2.9,1.1v10.3h-3.7v-14.1
			h3.7v2c1.2-1,2.1-1.6,2.8-1.9c0.7-0.3,1.4-0.5,2.2-0.5c3,0,4.5,1.7,4.5,5.2V-1557z"/>
		<path class="st3" d="M968.7-1573.6L968.7-1573.6c-0.7-0.2-1.3-0.3-1.9-0.3c-1,0-1.7,0.2-2.1,0.5c-0.4,0.3-0.6,1-0.6,1.9v0.3h3.6
			v2.5h-3.4v11.7h-3.8v-11.7h-1.9v-2.5h1.9v-0.5c0-3.1,1.7-4.7,5.2-4.7c1.1,0,2.1,0.1,2.9,0.2V-1573.6z"/>
		<path class="st3" d="M975.9-1556.6c-2.3,0-4.1-0.7-5.3-2s-1.9-3.2-1.9-5.5c0-2.4,0.6-4.2,1.9-5.5c1.3-1.3,3.1-2,5.3-2
			c2.3,0,4.1,0.7,5.3,2c1.3,1.3,1.9,3.2,1.9,5.5c0,2.4-0.6,4.2-1.9,5.5C980-1557.3,978.2-1556.6,975.9-1556.6z M975.9-1569
			c-2.2,0-3.3,1.6-3.3,4.9c0,3.2,1.1,4.8,3.4,4.8c2.2,0,3.3-1.6,3.3-4.8C979.2-1567.4,978.1-1569,975.9-1569z"/>
		<path class="st3" d="M995.5-1567.4h-0.1c-0.5-0.1-1.2-0.2-2-0.2c-1.3,0-2.5,0.2-3.7,0.6v9.9H986v-14.1h3.7v2.6
			c1.1-1,2.1-1.7,2.8-2.1c0.7-0.4,1.5-0.5,2.2-0.5c0.2,0,0.5,0,0.8,0V-1567.4z"/>
		<path class="st3" d="M1019.6-1557h-3.8v-7.1c0-0.9,0-1.8-0.1-2.5c-0.1-0.7-0.3-1.2-0.7-1.5c-0.4-0.3-1-0.4-1.7-0.4
			c-0.6,0-1.6,0.4-2.7,1.1v10.4h-3.8v-7.1c0-1,0-1.8-0.1-2.5c-0.1-0.7-0.4-1.2-0.8-1.4c-0.4-0.3-1-0.4-1.7-0.4
			c-0.7,0-1.6,0.4-2.7,1.1v10.3h-3.7v-14.1h3.7v2c1.2-1,2.2-1.7,2.8-1.9c0.6-0.3,1.3-0.4,2-0.4c1.8,0,3.1,0.9,3.9,2.7
			c1.2-1,2.2-1.8,2.9-2.1c0.8-0.4,1.5-0.6,2.2-0.6c2.8,0,4.3,1.7,4.3,5.2V-1557z"/>
		<path class="st3" d="M1035.3-1557h-3.7v-1.8c-1.1,1-2.1,1.6-2.8,1.8c-0.7,0.2-1.5,0.4-2.3,0.4c-1.2,0-2.3-0.4-3.1-1.2
			c-0.8-0.8-1.2-1.8-1.2-3.1c0-1.6,0.6-2.8,1.8-3.6c1.2-0.8,3.7-1.3,7.6-1.5v-0.4c0-0.9-0.3-1.5-0.9-1.9c-0.6-0.4-1.6-0.6-3-0.6
			c-1,0-2.3,0.4-4.1,1.1h-0.1v-3c1.9-0.5,3.6-0.7,5.1-0.7c2.4,0,4.1,0.4,5.2,1.2c1.1,0.8,1.6,2,1.6,3.7V-1557z M1031.6-1560.5v-3.6
			c-2.5,0.2-4,0.5-4.6,0.9c-0.6,0.4-0.9,1-0.9,1.8c0,0.8,0.2,1.4,0.6,1.7c0.4,0.3,1.1,0.5,2,0.5
			C1029.7-1559.2,1030.7-1559.6,1031.6-1560.5z"/>
		<path class="st3" d="M1047.4-1557.1c-1,0.2-2.1,0.4-3.2,0.4c-1.7,0-2.9-0.4-3.7-1.1c-0.8-0.7-1.2-1.9-1.2-3.5v-7.4h-1.9v-2.5h1.9
			v-4h3.7v4h4.3v2.5h-4.3v5.8c0,1.5,0.2,2.5,0.6,2.9c0.4,0.5,1,0.7,1.9,0.7c0.6,0,1.2-0.1,1.7-0.4h0.1V-1557.1z"/>
		<path class="st3" d="M1053.6-1573h-4v-3.3h4V-1573z M1053.5-1557h-3.7v-14.1h3.7V-1557z"/>
		<path class="st3" d="M1063.6-1556.6c-2.3,0-4.1-0.7-5.3-2s-1.9-3.2-1.9-5.5c0-2.4,0.6-4.2,1.9-5.5c1.3-1.3,3.1-2,5.3-2
			c2.3,0,4.1,0.7,5.3,2c1.3,1.3,1.9,3.2,1.9,5.5c0,2.4-0.6,4.2-1.9,5.5C1067.6-1557.3,1065.8-1556.6,1063.6-1556.6z M1063.6-1569
			c-2.2,0-3.3,1.6-3.3,4.9c0,3.2,1.1,4.8,3.4,4.8c2.2,0,3.3-1.6,3.3-4.8C1066.9-1567.4,1065.8-1569,1063.6-1569z"/>
		<path class="st3" d="M1086.8-1557h-3.8v-7c0-2-0.2-3.2-0.7-3.7c-0.4-0.5-1.1-0.7-2.1-0.7c-0.8,0-1.8,0.4-2.9,1.1v10.3h-3.7v-14.1
			h3.7v2c1.2-1,2.1-1.6,2.8-1.9s1.4-0.5,2.2-0.5c3,0,4.5,1.7,4.5,5.2V-1557z"/>
	</g>
</g>
</svg>
