<svg xmlns="http://www.w3.org/2000/svg" width="202.445" height="187.333" viewBox="0 0 202.445 187.333">
  <g id="グループ_1473" data-name="グループ 1473" transform="translate(-359.108 -532.95)">
    <line id="線_31" data-name="線 31" x1="6.137" y1="6.137" transform="translate(496.437 655)" fill="none" stroke="#fff" stroke-width="1"/>
    <line id="線_33" data-name="線 33" y1="7.671" transform="translate(459.722 598.233)" fill="none" stroke="#fff" stroke-width="1"/>
    <line id="線_32" data-name="線 32" y1="6.137" x2="6.137" transform="translate(418.085 655)" fill="none" stroke="#fff" stroke-width="1"/>
    <path id="Icon_simple-adobeillustrator" data-name="Icon simple-adobeillustrator" d="M0,.45V54.3H55.233V.45Zm2.3,2.3H52.932V52H2.3ZM19.159,30.943l-1.823,6.9c-.039.191-.115.235-.341.235H13.617c-.23,0-.265-.076-.23-.341L19.923,14.85a7.1,7.1,0,0,0,.226-1.917c0-.152.076-.23.191-.23h4.824c.152,0,.23.041.267.23l7.33,24.841c.039.191,0,.3-.191.3h-3.8c-.191,0-.3-.046-.341-.2l-1.9-6.939H19.152Zm6.416-3.74c-.644-2.545-2.163-8.119-2.734-10.817H22.8c-.493,2.693-1.708,7.249-2.658,10.817ZM35.932,14.413a2.354,2.354,0,1,1,4.709,0,2.2,2.2,0,0,1-2.393,2.354,2.164,2.164,0,0,1-2.324-2.354Zm.258,5.233c0-.184.076-.253.267-.253H40.07c.2,0,.276.076.276.267V37.829c0,.191-.037.267-.265.267H36.514c-.23,0-.306-.115-.306-.3V19.644Z" transform="translate(359.108 665.981)" fill="#fff"/>
    <path id="Icon_simple-adobephotoshop" data-name="Icon simple-adobephotoshop" d="M0,.45V54.3H55.233V.45Zm2.3,2.3H52.932V52H2.3Zm11.047,10.31c0-.154.322-.267.516-.267,1.482-.076,3.655-.115,5.933-.115,6.379,0,8.86,3.5,8.86,7.977,0,5.846-4.239,8.354-9.44,8.354-.875,0-1.174-.039-1.784-.039v8.842c0,.191-.076.267-.265.267H13.615c-.191,0-.265-.069-.265-.26V13.062Zm4.085,12.225c.529.037.948.037,1.864.037,2.693,0,5.224-.948,5.224-4.594,0-2.923-1.809-4.4-4.884-4.4-.911,0-1.784.037-2.2.076v8.893Zm19.808-2.734c-1.823,0-2.43.911-2.43,1.671,0,.835.414,1.4,2.847,2.658C41.266,28.631,42.4,30.3,42.4,32.766c0,3.682-2.808,5.661-6.6,5.661a10.055,10.055,0,0,1-4.718-.99c-.15-.076-.184-.189-.184-.38V33.682c0-.23.11-.306.262-.193a8.478,8.478,0,0,0,4.63,1.367c1.823,0,2.582-.759,2.582-1.786,0-.835-.529-1.558-2.847-2.773-3.268-1.565-4.635-3.153-4.635-5.816,0-2.962,2.315-5.431,6.34-5.431a10.727,10.727,0,0,1,4.129.644.5.5,0,0,1,.23.456V23.3c0,.191-.115.306-.345.23a8.241,8.241,0,0,0-4.011-.99Z" transform="translate(506.32 665.981)" fill="#fff"/>
    <path id="Icon_simple-adobeaftereffects" data-name="Icon simple-adobeaftereffects" d="M0,.45V54.3H55.233V.45Zm2.3,2.3H52.932V52H2.3ZM15.613,30.943,13.79,37.815c-.039.191-.115.26-.341.26H10.071c-.23,0-.267-.081-.23-.345l6.536-22.86a6.812,6.812,0,0,0,.226-1.887c0-.152.076-.23.191-.23h4.824c.152,0,.23.041.267.23l7.325,24.786c.037.189,0,.3-.191.3h-3.8c-.189,0-.3-.069-.338-.221l-1.9-6.909H15.62Zm6.458-3.737c-.644-2.545-2.209-8.124-2.775-10.817h-.037c-.492,2.693-1.74,7.245-2.693,10.817Zm12.335,2.357c.039,3.114,1.519,5.2,5.012,5.2a8.887,8.887,0,0,0,3.751-.713c.154-.074.269-.035.269.154V37.09a.5.5,0,0,1-.23.46,10.248,10.248,0,0,1-4.626.875c-6.076,0-8.354-4.481-8.354-9.493,0-5.431,2.812-9.873,7.749-9.873,5.012,0,6.759,4.218,6.759,7.634a11.216,11.216,0,0,1-.2,2.433.32.32,0,0,1-.3.292,32.469,32.469,0,0,1-3.836.152h-6ZM39.078,26.4a12.729,12.729,0,0,0,1.708-.037c0-.156.039-.288.039-.4,0-1.254-.612-3.553-3.006-3.553-2.2,0-3.153,1.938-3.378,3.986h4.633Z" transform="translate(432.105 532.5)" fill="#fff"/>
    <path id="Icon_simple-adobecreativecloud" data-name="Icon simple-adobecreativecloud" d="M67.508,28.687v2.259c-.022.124-.048.245-.062.366-.113.984-.188,1.972-.349,2.948A24.368,24.368,0,0,1,63.789,43.1a24.888,24.888,0,0,1-10.253,9.451,23.689,23.689,0,0,1-7.91,2.371c-.61.073-1.224.138-1.834.205H20.078c-.121-.022-.239-.056-.36-.068a19.949,19.949,0,0,1-6.886-1.682A21.161,21.161,0,0,1,2.169,43.075,20.528,20.528,0,0,1,.2,36.409L0,34.715V32.521a3.208,3.208,0,0,0,.065-.366,20.494,20.494,0,0,1,1.3-6.118A21.25,21.25,0,0,1,11.876,14.283a20.328,20.328,0,0,1,8.236-2.166,22.5,22.5,0,0,1,4.228.2.529.529,0,0,0,.4-.132,25.029,25.029,0,0,1,6.914-5.091A23.889,23.889,0,0,1,39.6,4.708c.658-.076,1.314-.141,1.969-.208h2.025c.129.02.264.045.394.059,1,.121,2.011.2,3,.366a23.543,23.543,0,0,1,8.644,3.336A25.006,25.006,0,0,1,64.97,18.7a24.64,24.64,0,0,1,2.335,8.05c.073.644.135,1.288.2,1.932M29.76,14.061c.042.056.053.082.07.09A27.093,27.093,0,0,1,33.8,16.589a.418.418,0,0,0,.371-.028A15.41,15.41,0,0,1,54.889,20.19,15.167,15.167,0,0,1,57.944,32.4,15.794,15.794,0,0,1,54.2,40.445,14.952,14.952,0,0,1,40.37,45.6a14.527,14.527,0,0,1-8.68-4.4c-3.088-3.173-6.2-6.323-9.3-9.488a2.507,2.507,0,0,0-1.465-.835,2.323,2.323,0,0,0-2.43,1.35,2.207,2.207,0,0,0,.52,2.667c3.451,3.449,6.875,6.925,10.323,10.379a16.947,16.947,0,0,0,1.9,1.637,17.957,17.957,0,0,0,8.438,3.3A20.023,20.023,0,0,0,58.113,42.9,20.289,20.289,0,0,0,62.546,32.58a20.57,20.57,0,0,0-.183-6.638,19.874,19.874,0,0,0-4.557-9.5,19.662,19.662,0,0,0-17.085-7,18.744,18.744,0,0,0-7.429,2.222,19.583,19.583,0,0,0-3.53,2.391m-1.668,36.26-.281-.264c-1.409-1.356-2.83-2.7-4.225-4.076a1.134,1.134,0,0,0-.9-.385,16.859,16.859,0,0,1-4.219-.281,12.091,12.091,0,0,1-8.391-15.977,11.9,11.9,0,0,1,13.077-7.55,11.384,11.384,0,0,1,6.4,3.367c2.166,2.273,4.394,4.478,6.582,6.725a1.948,1.948,0,0,0,1.758.647,2.215,2.215,0,0,0,1.921-1.451,2.172,2.172,0,0,0-.487-2.374c-2.3-2.363-4.537-4.787-6.925-7.052a15.492,15.492,0,0,0-16.134-3.831A16.556,16.556,0,0,0,5.243,37.281,16.425,16.425,0,0,0,21.251,50.34h6.467c.107,0,.214-.011.377-.02" transform="translate(428.57 606.007)" fill="#fff"/>
  </g>
</svg>
