<svg xmlns="http://www.w3.org/2000/svg" width="237.507" height="159.832" viewBox="0 0 237.507 159.832">
  <g id="グループ_1478" data-name="グループ 1478" transform="translate(-136.949 -2417.287)">
    <g id="グループ_1474" data-name="グループ 1474" transform="translate(136.949 2417.287)">
      <path id="パス_5" data-name="パス 5" d="M212.339,379.378a9.646,9.646,0,0,0-2.953-2.931,50.216,50.216,0,0,0-.515-6.866c.263-3.3,1.219-21.474-9.9-29.672a37.277,37.277,0,0,0-22.092-7.725,28.845,28.845,0,0,0-16.551,4.934,24.161,24.161,0,0,0-7.462,8.187c-3.495.118-10.737,1.546-13.942,10.78-3.028,8.729-.585,14.13,1.219,16.626-.124,1.45-.161,2.722-.166,3.737a9.6,9.6,0,0,0-2.958,2.931c-2,3.087-2.346,7.237-1.015,12.326,2.5,9.513,8.294,11.612,11.4,12.031,1.906,3.812,6.1,11.612,10.3,15.526a20.488,20.488,0,0,0,6.48,3.93,28.637,28.637,0,0,0,21.012,0,20.549,20.549,0,0,0,6.48-3.93c4.193-3.914,8.386-11.714,10.3-15.526,3.1-.419,8.906-2.518,11.4-12.031,1.331-5.089.982-9.239-1.02-12.326Zm-6.056,10.479c-1.519,5.8-4.23,6.662-5.707,6.662-.113,0-.188-.011-.231-.006a3.439,3.439,0,0,0-4,2.051c-1.444,3.114-6.007,11.934-9.669,15.349a13.243,13.243,0,0,1-4.187,2.486,21.371,21.371,0,0,1-15.617,0,13.494,13.494,0,0,1-4.187-2.486c-3.656-3.414-8.219-12.235-9.674-15.349a3.494,3.494,0,0,0-3.146-2.164,3.312,3.312,0,0,0-.843.113c-.048.006-.134.006-.236.006-1.476,0-4.193-.859-5.707-6.662-.746-2.856-.741-5.138.021-6.41a2.329,2.329,0,0,1,1.267-1.058,3.429,3.429,0,0,0,2.98-3.908,35.621,35.621,0,0,1,.032-4.338,29.553,29.553,0,0,0,9.926-6.872,21.977,21.977,0,0,0,3.887-6.244,46.368,46.368,0,0,0,10.506,6.383c7.865,3.479,23.573,5.132,30.2,5.7a35.973,35.973,0,0,1,.118,5.358,3.419,3.419,0,0,0,2.974,3.919,2.317,2.317,0,0,1,1.272,1.058c.762,1.272.762,3.554.021,6.41Zm23.444,48.821L197.764,425.9a3.646,3.646,0,0,0-4.8,2.147l-8.031,22.215-1.594-4.569,2.529-6.2a3.657,3.657,0,0,0-3.382-5.036H166.868a3.651,3.651,0,0,0-3.377,5.036l2.529,6.2-1.594,4.569-8.031-22.215a3.689,3.689,0,0,0-1.943-2.094,3.628,3.628,0,0,0-2.851-.053l-31.97,12.777a25.6,25.6,0,0,0-16.159,23.874v25.806a3.658,3.658,0,0,0,3.661,3.656h135.1a3.655,3.655,0,0,0,3.651-3.656V462.552a25.6,25.6,0,0,0-16.159-23.874Zm-1.111,34.429a3.652,3.652,0,0,1-3.656,3.651h-24.55a3.651,3.651,0,0,1-3.651-3.651v-11.4a3.657,3.657,0,0,1,3.651-3.661h24.55a3.658,3.658,0,0,1,3.656,3.661Z" transform="translate(-103.471 -332.183)" fill="#07192f"/>
    </g>
    <g id="グループ_1475" data-name="グループ 1475" transform="translate(287.088 2430.189)">
      <g id="グループ_18" data-name="グループ 18" transform="translate(0 0)">
        <path id="パス_15" data-name="パス 15" d="M142.013,2620.466a6.408,6.408,0,0,0,9-.9l16.885-20.643a6.4,6.4,0,0,0-.894-9l-3.239-2.649a6.407,6.407,0,0,0-9,.9l-16.892,20.647a6.406,6.406,0,0,0,.9,8.994Z" transform="translate(-136.435 -2585.837)" fill="#07192f"/>
        <path id="パス_16" data-name="パス 16" d="M184.367,2604.9l-20.157-17.454a6.4,6.4,0,0,0-9.024.652l-2.735,3.164a6.391,6.391,0,0,0,.643,9.013l20.171,17.457a6.392,6.392,0,0,0,9.013-.668l2.731-3.149a6.385,6.385,0,0,0-.644-9.013Z" transform="translate(-99.206 -2585.706)" fill="#07192f"/>
      </g>
      <path id="パス_17" data-name="パス 17" d="M215.572,2621.329a2.044,2.044,0,0,0-.779-1.395l-15.784-12.03c-1.752-1.048-2.528-.708-3.74.411-2.217,2.846-4.787,4.341-7.862,4.54-7.737.512-15.813-7.294-15.892-7.369a1.959,1.959,0,0,0-1.623-.529,1.867,1.867,0,0,0-1.394.965c-2.932,5.252-6.492,7.322-7.554,6.586-.872-.566-1.083-1.012-1.151-1.308-.182-.7.047-2.224,2.142-5.374,4.833-7.271,9.91-7.232,13.989-7.2a18.968,18.968,0,0,0,3.01-.128c5-.72,6.932-5.477,7.014-5.681a1.917,1.917,0,0,0-3.568-1.405c-.021.043-1.215,2.9-4,3.3a17.565,17.565,0,0,1-2.435.085c-4.2-.038-11.222-.092-17.2,8.9-2.406,3.615-3.232,6.225-2.681,8.441a5.936,5.936,0,0,0,3.543,4.032c2.134.97,6.482.094,10.99-6.366,3.125,2.574,9.964,7.358,17.057,6.875a13.968,13.968,0,0,0,9.571-4.761l13.21,10.2-4.769,5.673-.1-.046L194.8,2618.83l-2.631,3.182,10.836,8.946-4.648,5.53-15.541-13.516-2.7,3.1,15.588,13.56-5.992,7.144-35.208-28.891c-.061-.028-.125-.078-.189-.114l-.05-.064a2.029,2.029,0,0,0-2.853.211l-13.947,16.139a2,2,0,0,0,.2,2.827l27.171,23.782a2.021,2.021,0,0,0,2.828-.154l11.9-13.078c.057-.065.1-.123.154-.182l1.223-1.408,7.172,5.98a2.033,2.033,0,0,0,2.842-.251l24.157-28.733a1.984,1.984,0,0,0,.458-1.509Zm-49.748,34.811-5.491-4.92,9.353-10.544-3.021-2.785-9.353,10.454-5.488-4.841,8.966-9.972-3-2.75-8.845,10.072-7.311-6.07,11.78-12.91,24.672,20.536Z" transform="translate(-135.031 -2574.585)" fill="#07192f"/>
    </g>
  </g>
</svg>
