<svg xmlns="http://www.w3.org/2000/svg" width="239.047" height="197.372" viewBox="0 0 239.047 197.372">
  <g id="グループ_1480" data-name="グループ 1480" transform="translate(-1087.564 -2397.622)">
    <g id="グループ_1481" data-name="グループ 1481" transform="translate(0 -4)">
      <g id="グループ_12" data-name="グループ 12" transform="translate(345.085 1871.083)">
        <path id="Icon_material-3d-rotation" data-name="Icon material-3d-rotation" d="M29.632,84.992A41.5,41.5,0,0,1,6.01,51.439H.075A47.458,47.458,0,0,0,47.359,94.964l2.611-.119L34.895,79.769Zm3.522-25.8a6.606,6.606,0,0,1-2.058-.317,4.231,4.231,0,0,1-1.583-.95,3.922,3.922,0,0,1-1.029-1.464,4.722,4.722,0,0,1-.356-1.86H22.985a8.1,8.1,0,0,0,.831,3.759,8.747,8.747,0,0,0,2.216,2.73,10,10,0,0,0,3.245,1.622,11.936,11.936,0,0,0,3.8.594,13.346,13.346,0,0,0,4.076-.594,9.649,9.649,0,0,0,3.284-1.741,7.826,7.826,0,0,0,2.176-2.849,9.242,9.242,0,0,0,.791-3.838,8.3,8.3,0,0,0-.277-2.216,6.608,6.608,0,0,0-.91-2.018,7.111,7.111,0,0,0-1.583-1.7,8.136,8.136,0,0,0-2.414-1.227,8.3,8.3,0,0,0,2.058-1.306,8.177,8.177,0,0,0,1.464-1.662,6.973,6.973,0,0,0,.87-1.82,6.308,6.308,0,0,0,.277-1.9,9.564,9.564,0,0,0-.712-3.8,7.044,7.044,0,0,0-2.018-2.73,8.14,8.14,0,0,0-3.047-1.7,14.421,14.421,0,0,0-4.036-.554,11.689,11.689,0,0,0-3.957.633,10.067,10.067,0,0,0-3.126,1.781,8.9,8.9,0,0,0-2.018,2.651,7.885,7.885,0,0,0-.712,3.363h5.144a4.207,4.207,0,0,1,.356-1.781,3.719,3.719,0,0,1,.989-1.345,4.69,4.69,0,0,1,1.5-.871,5.791,5.791,0,0,1,1.9-.317A4.537,4.537,0,0,1,36.676,37a4.78,4.78,0,0,1,1.147,3.4,6.035,6.035,0,0,1-.317,1.939,3.442,3.442,0,0,1-.989,1.464,5.018,5.018,0,0,1-1.622.95,6.658,6.658,0,0,1-2.295.356H29.553v4.076H32.6a8.888,8.888,0,0,1,2.374.277,4.733,4.733,0,0,1,1.781.91A4.661,4.661,0,0,1,37.9,51.953a5.608,5.608,0,0,1,.4,2.255,4.744,4.744,0,0,1-1.385,3.68,5.07,5.07,0,0,1-3.759,1.306ZM66.985,35.77a13.178,13.178,0,0,0-4.511-3.047A14.884,14.884,0,0,0,56.7,31.655H47.359V63.309h9.1a16.06,16.06,0,0,0,5.975-1.068,13.038,13.038,0,0,0,4.59-3.007,13.354,13.354,0,0,0,2.928-4.709,18.1,18.1,0,0,0,1.029-6.212V46.73a18.1,18.1,0,0,0-1.029-6.212,13.826,13.826,0,0,0-2.968-4.748Zm-1.543,12.5a17.285,17.285,0,0,1-.554,4.471,9.619,9.619,0,0,1-1.7,3.363,7.4,7.4,0,0,1-2.809,2.1,10.168,10.168,0,0,1-3.917.712h-3.6V36.086H56.7a7.85,7.85,0,0,1,6.489,2.73c1.5,1.82,2.255,4.432,2.255,7.874v1.583ZM47.359,0,44.747.119,59.823,15.194l5.263-5.263A41.43,41.43,0,0,1,88.668,43.485H94.6A47.389,47.389,0,0,0,47.359,0Z" transform="translate(742.404 530.539)" fill="#07192f"/>
        <path id="Icon_simple-unity" data-name="Icon simple-unity" d="M58.084,56.041,45.533,35.026,58.084,14.01l6.129,21.015ZM30.356,54,14.594,38.528H39.7L52.247,59.544,30.356,54Zm0-38.236,21.891-5.546L39.7,31.231H14.3c0,.292,16.053-15.47,16.053-15.47ZM62.462,0l-28.6,7.3-4.378,7.3H21.015L0,35.026,21.015,55.457H29.48l4.086,7.3,28.6,7.3,7.589-27.729-4.086-7.3,4.378-7.3Z" transform="translate(846.192 657.86)" fill="#07192f"/>
        <path id="Icon_material-slow-motion-video" data-name="Icon material-slow-motion-video" d="M33.13,24.223,24.8,17.966V42.556L33.13,36.3l8.06-6.038Zm0,0L24.8,17.966V42.556L33.13,36.3l8.06-6.038Zm0,0L24.8,17.966V42.556L33.13,36.3l8.06-6.038Zm-5.6-15.629V3.075A27.183,27.183,0,0,0,12.993,9.113l3.88,3.907A21.7,21.7,0,0,1,27.529,8.594ZM13.02,16.873l-3.907-3.88A27.183,27.183,0,0,0,3.075,27.529H8.594A21.7,21.7,0,0,1,13.02,16.873ZM8.594,32.993H3.075A27.183,27.183,0,0,0,9.113,47.529l3.907-3.907A21.5,21.5,0,0,1,8.594,32.993Zm4.4,18.416a27.272,27.272,0,0,0,14.536,6.038V51.928A21.7,21.7,0,0,1,16.873,47.5l-3.88,3.907ZM57.584,30.261A27.364,27.364,0,0,1,33.13,57.447V51.928a21.856,21.856,0,0,0,0-43.334V3.075A27.364,27.364,0,0,1,57.584,30.261Z" transform="translate(822.259 595.242)" fill="#07192f"/>
        <line id="線_34" data-name="線 34" y1="107.47" x2="129.328" transform="translate(786.915 571.243)" fill="none" stroke="#07192f" stroke-width="1.5"/>
      </g>
      <path id="unreal_icon_135071" d="M2,38.61A36.61,36.61,0,1,0,38.61,2,36.61,36.61,0,0,0,2,38.61M13.862,63.359a35,35,0,0,1,49.5-49.5,35,35,0,0,1-49.5,49.5m4.064-33.9c-7.359,8.384-5.931,15.3-5.931,15.3a36.128,36.128,0,0,1,6.883-9.812c2.343-2.306,4.064-3.112,5.235-3.112a1.816,1.816,0,0,1,1.94,1.831V50.655a1.8,1.8,0,0,1-2.087,2.014,5.5,5.5,0,0,1-1.647-.293c5.016,7.212,16.987,8.2,16.987,8.2l5.272-5.492h.146l4.869,4.137c8.75-5.2,13-14.827,13-14.827-3.844,4.1-6.443,5.089-7.908,5.052a2.293,2.293,0,0,1-1.867-.769c-.037-.366-.22-21.417.037-21.417,1.538-2.819,6.37-8.567,6.37-8.567a26.022,26.022,0,0,0-13.985,7.688c-1.464-1.135-4.466-.952-4.466-.952a6.233,6.233,0,0,1,2.782,4.833V48.312s-3.112,2.673-5.382,2.673a3.316,3.316,0,0,1-2.709-1.391,7.5,7.5,0,0,1-.513-.769V26.492a1.716,1.716,0,0,1-1.062.4,1.509,1.509,0,0,1-1.355-.988,5.648,5.648,0,0,1-.439-2.563c0-4.137,4.686-6.846,4.686-6.846-5.968,1.574-11.5,4.613-18.854,12.96" transform="translate(1251.39 2461.697)" fill="#07192f"/>
    </g>
  </g>
</svg>
