<svg xmlns="http://www.w3.org/2000/svg" width="226.034" height="159.832" viewBox="0 0 226.034 159.832">
  <g id="グループ_1479" data-name="グループ 1479" transform="translate(-1060 -3144.87)">
    <g id="グループ_1476" data-name="グループ 1476" transform="translate(1060 3144.87)">
      <path id="パス_6" data-name="パス 6" d="M214.192,1484.473a18.2,18.2,0,0,1,5.143-9.693,17.6,17.6,0,0,1,4.067-2.951H183.955a17.957,17.957,0,0,1,9.254,12.644Z" transform="translate(-141.138 -1381.989)" fill="#fff"/>
      <path id="パス_7" data-name="パス 7" d="M181.646,1541.631a6.322,6.322,0,0,0,0,12.644h1.623a18.1,18.1,0,0,1,5.138-9.693,18.494,18.494,0,0,1,6.358-4v-64.15h77.99v64.181a18,18,0,0,1,11.478,13.657h1.628a6.322,6.322,0,1,0,0-12.644h-1.583v-65.194h1.583a6.317,6.317,0,1,0,0-12.634H239.519v-6.259a5.761,5.761,0,0,0-11.523,0v6.259h-46.35a6.317,6.317,0,1,0,0,12.634h1.6v65.194Z" transform="translate(-171.186 -1451.791)" fill="#fff"/>
      <path id="パス_8" data-name="パス 8" d="M190.985,1487.652V1467.1a4.324,4.324,0,0,0-8.649,0v20.557a4.324,4.324,0,0,0,8.649,0Z" transform="translate(-146.777 -1413.536)" fill="#fff"/>
      <path id="パス_9" data-name="パス 9" d="M194.362,1499.4v-35.684a4.327,4.327,0,0,0-8.653,0V1499.4a4.327,4.327,0,0,0,8.653,0Z" transform="translate(-135.027 -1425.288)" fill="#fff"/>
      <path id="パス_10" data-name="パス 10" d="M197.733,1492.354v-26.61a4.324,4.324,0,0,0-8.649,0v26.61a4.324,4.324,0,0,0,8.649,0Z" transform="translate(-123.271 -1418.238)" fill="#fff"/>
      <path id="パス_11" data-name="パス 11" d="M201.1,1495.876v-31.143a4.322,4.322,0,0,0-8.644,0v31.143a4.322,4.322,0,0,0,8.644,0Z" transform="translate(-111.521 -1421.76)" fill="#fff"/>
      <path id="パス_12" data-name="パス 12" d="M193.315,1508.754h.054c9.3.139,14.961-7.994,15.1-21.427.1-9.312-5.672-14.639-15.082-14.89v-.005h-.117v.005c-9.406.251-15.181,5.577-15.087,14.89.148,13.432,5.8,21.565,15.1,21.427h.031Z" transform="translate(-161.249 -1379.885)" fill="#fff"/>
      <path id="パス_13" data-name="パス 13" d="M206.906,1508.754h.063c9.3.139,14.961-7.994,15.109-21.427.09-9.312-5.685-14.639-15.087-14.89v-.005h-.112l-.014.005c-9.4.251-15.172,5.577-15.082,14.89.143,13.432,5.8,21.565,15.1,21.427h.027Z" transform="translate(-113.873 -1379.885)" fill="#fff"/>
      <path id="パス_14" data-name="パス 14" d="M294.249,1490.241l-15.127-6.031-3.542-2.982a2.36,2.36,0,0,0-3.188.126l-4.927,4.9-4.941-4.9a2.348,2.348,0,0,0-3.179-.126l-3.542,2.982-15.132,6.031c-1.825.726-2.968,3.6-3.7,6.985-.731-3.39-1.874-6.259-3.694-6.985l-15.132-6.031-3.542-2.982a2.354,2.354,0,0,0-3.183.126l-4.923,4.9-4.945-4.9a2.348,2.348,0,0,0-3.179-.126l-3.547,2.982-15.127,6.031c-4.869,1.946-4.865,19.2-5.291,20.781H299.544c-.417-1.587-.421-18.844-5.295-20.781Z" transform="translate(-174.405 -1351.19)" fill="#fff"/>
    </g>
    <g id="グループ_1477" data-name="グループ 1477" transform="translate(1214.73 3148.346)">
      <path id="パス_18" data-name="パス 18" d="M254.111,2459.673l-5.289-1.068a2.9,2.9,0,0,0-.964-.72,13.922,13.922,0,0,0,1.042-1.32,14.985,14.985,0,0,0,1.561-2.922,12.913,12.913,0,0,0,.465-1.232,2.224,2.224,0,0,0,.793-1.7v-1.615a2.221,2.221,0,0,0-.416-1.292v-2.271a7.236,7.236,0,0,0-7.217-7.226h-2.344a7.237,7.237,0,0,0-7.222,7.226v2.271a2.182,2.182,0,0,0-.411,1.292v1.615a2.193,2.193,0,0,0,.793,1.7,9.913,9.913,0,0,0,.47,1.232,13.978,13.978,0,0,0,1.556,2.922,14.505,14.505,0,0,0,1.033,1.32,2.953,2.953,0,0,0-.954.726l-5.172,1.052-.088.108c-.093.254-.2.5-.3.744-.142.356-.3.723-.475,1.085l1.659.329a6.344,6.344,0,0,1,5.089,6.2v19.089a6.439,6.439,0,0,1-.269,1.843v1.483a5.957,5.957,0,0,1-3.753,5.53v10.813a4.629,4.629,0,0,0,9.257,0,4.631,4.631,0,0,0,9.262,0v-19.758a2.6,2.6,0,0,0,1.409.421,2.574,2.574,0,0,0,2.574-2.578v-2.095a2.849,2.849,0,0,0,.274-1.239v-19.076a2.939,2.939,0,0,0-2.363-2.886Zm-12.59,4.824a.469.469,0,0,1-.333.4.627.627,0,0,1-.127.014.5.5,0,0,1-.372-.184l-1.3-1.723a.485.485,0,0,1-.1-.274l.01-2.774a.469.469,0,0,1,.22-.4.5.5,0,0,1,.46-.009,3.727,3.727,0,0,0,1.116.4.452.452,0,0,1,.391.455v1.16a.651.651,0,0,1,.176.117.463.463,0,0,1,.112.357Zm4.9-1.492-1.292,1.723a.482.482,0,0,1-.372.184.607.607,0,0,1-.132-.014.476.476,0,0,1-.333-.4l-.254-2.456a.467.467,0,0,1,.117-.357.573.573,0,0,1,.176-.123v-1.155a.453.453,0,0,1,.382-.455,3.706,3.706,0,0,0,1.12-.4.466.466,0,0,1,.685.407v2.774a.451.451,0,0,1-.1.274Zm.47-7.878c-1.125,1.64-2.187,2.373-2.74,2.373h-2.486c-.553,0-1.61-.733-2.745-2.373a9.473,9.473,0,0,1-1.654-3.837l-.034-.2-.44-.293a.438.438,0,0,1-.21-.391v-.754a.459.459,0,0,1,.455-.463h.181v-.827a.494.494,0,0,1,.259-.418,7.676,7.676,0,0,1,3.22-.851,3.435,3.435,0,0,1,2.574,1.033,3.873,3.873,0,0,0,2.838,1.287,4.433,4.433,0,0,0,1.825-.421.453.453,0,0,1,.587.2h.259a.46.46,0,0,1,.46.463v.754a.455.455,0,0,1-.205.391l-.45.293-.03.2a9.438,9.438,0,0,1-1.663,3.837Z" transform="translate(-185.17 -2438.305)" fill="#fff"/>
      <path id="パス_19" data-name="パス 19" d="M240.635,2490.541v-1.492a6.245,6.245,0,0,1-.269-1.834v-19.089a6.332,6.332,0,0,1,5.069-6.2l1.59-.323c-.176-.367-.333-.73-.475-1.09-.112-.24-.21-.49-.3-.744a.853.853,0,0,1-.1-.127l-5.157-1.038a2.929,2.929,0,0,0-.959-.72,13.667,13.667,0,0,0,1.032-1.32,14.234,14.234,0,0,0,1.561-2.922,9.9,9.9,0,0,0,.465-1.232,2.229,2.229,0,0,0,.8-1.7v-1.615a2.252,2.252,0,0,0-.411-1.292v-2.271a7.241,7.241,0,0,0-7.227-7.226h-2.344a7.24,7.24,0,0,0-7.222,7.226v2.271a2.216,2.216,0,0,0-.411,1.292v1.615a2.212,2.212,0,0,0,.8,1.7,10.719,10.719,0,0,0,.465,1.232,14.206,14.206,0,0,0,1.556,2.922,13.917,13.917,0,0,0,1.042,1.32,2.873,2.873,0,0,0-.959.726l-5.206,1.052a2.958,2.958,0,0,0-2.358,2.9v19.076a2.917,2.917,0,0,0,.269,1.239v2.095a2.572,2.572,0,0,0,3.983,2.157v19.758a4.631,4.631,0,0,0,9.262,0,4.631,4.631,0,0,0,9.262,0v-10.813a5.954,5.954,0,0,1-3.753-5.53ZM233.7,2464.5a.466.466,0,0,1-.342.4.508.508,0,0,1-.118.014.444.444,0,0,1-.367-.184L231.558,2463a.472.472,0,0,1-.088-.274v-2.774a.48.48,0,0,1,.22-.4.5.5,0,0,1,.46-.009,3.734,3.734,0,0,0,1.125.4.457.457,0,0,1,.387.455v1.16a.491.491,0,0,1,.166.117.466.466,0,0,1,.118.357Zm4.893-1.492-1.287,1.723a.491.491,0,0,1-.377.184.548.548,0,0,1-.122-.014.479.479,0,0,1-.343-.4l-.245-2.456a.429.429,0,0,1,.113-.357.6.6,0,0,1,.181-.123v-1.155a.448.448,0,0,1,.382-.455,3.9,3.9,0,0,0,1.12-.4.48.48,0,0,1,.455.009.5.5,0,0,1,.225.4v2.774a.427.427,0,0,1-.1.274Zm.475-7.878c-1.125,1.64-2.187,2.373-2.735,2.373h-2.5c-.543,0-1.6-.733-2.74-2.373a9.627,9.627,0,0,1-1.659-3.837l-.024-.2-.46-.293a.463.463,0,0,1-.2-.391v-.754a.458.458,0,0,1,.465-.463h.191v-.827a.466.466,0,0,1,.249-.418,7.633,7.633,0,0,1,3.22-.851,3.458,3.458,0,0,1,2.574,1.033,3.836,3.836,0,0,0,2.828,1.287,4.494,4.494,0,0,0,1.835-.421.485.485,0,0,1,.44.039.443.443,0,0,1,.142.158h.259a.46.46,0,0,1,.46.463v.754a.455.455,0,0,1-.205.391l-.455.293-.02.2a9.589,9.589,0,0,1-1.668,3.837Z" transform="translate(-221.611 -2438.305)" fill="#fff"/>
      <path id="パス_20" data-name="パス 20" d="M252.9,2484.007a2.936,2.936,0,0,0,.274-1.231v-19.087a2.949,2.949,0,0,0-2.368-2.885l-5.285-1.054a3,3,0,0,0-.964-.729,12.561,12.561,0,0,0,1.037-1.321,14.746,14.746,0,0,0,1.561-2.927,12.011,12.011,0,0,0,.46-1.223,2.238,2.238,0,0,0,.8-1.7v-1.62a2.161,2.161,0,0,0-.416-1.281v-2.275a7.23,7.23,0,0,0-7.222-7.228h-2.344a7.231,7.231,0,0,0-7.227,7.228v2.275a2.251,2.251,0,0,0-.411,1.281v1.62a2.239,2.239,0,0,0,.8,1.7c.132.4.284.813.47,1.233a14.422,14.422,0,0,0,1.556,2.917,12.841,12.841,0,0,0,1.042,1.327,2.952,2.952,0,0,0-.959.723L228.5,2460.8a2.95,2.95,0,0,0-2.363,2.885v19.087a3.024,3.024,0,0,0,.274,1.242v2.084a2.586,2.586,0,0,0,2.578,2.583,2.523,2.523,0,0,0,1.409-.425v19.752a4.631,4.631,0,1,0,9.262,0,4.629,4.629,0,1,0,9.257,0v-19.752a2.547,2.547,0,0,0,1.409.425,2.583,2.583,0,0,0,2.578-2.583Zm-14.679-18.366a.46.46,0,0,1-.333.391.311.311,0,0,1-.132.026.491.491,0,0,1-.367-.188l-1.306-1.731a.514.514,0,0,1-.088-.279V2461.1a.461.461,0,0,1,.68-.409,4.113,4.113,0,0,0,1.125.4.458.458,0,0,1,.382.449v1.155a.494.494,0,0,1,.176.128.466.466,0,0,1,.117.352Zm4.9-1.5-1.3,1.731a.461.461,0,0,1-.367.188.269.269,0,0,1-.122-.026.454.454,0,0,1-.333-.4l-.259-2.462a.452.452,0,0,1,.122-.352.407.407,0,0,1,.171-.128v-1.155a.458.458,0,0,1,.382-.449,4.257,4.257,0,0,0,1.13-.4.454.454,0,0,1,.675.409v2.77a.416.416,0,0,1-.1.269Zm.475-7.872c-1.13,1.643-2.192,2.368-2.74,2.368h-2.491c-.553,0-1.615-.725-2.745-2.368a9.568,9.568,0,0,1-1.659-3.837l-.029-.195-.44-.294a.436.436,0,0,1-.215-.388v-.764a.457.457,0,0,1,.465-.458h.181v-.823a.474.474,0,0,1,.264-.419,7.589,7.589,0,0,1,3.21-.852,3.461,3.461,0,0,1,2.574,1.031,3.867,3.867,0,0,0,2.828,1.293,4.438,4.438,0,0,0,1.835-.421.494.494,0,0,1,.6.191h.245a.461.461,0,0,1,.47.458v.764a.451.451,0,0,1-.22.388l-.445.294-.024.195a9.7,9.7,0,0,1-1.659,3.837Z" transform="translate(-204.003 -2433.865)" fill="#fff"/>
    </g>
  </g>
</svg>
