<svg xmlns="http://www.w3.org/2000/svg" width="426.308" height="41.821" viewBox="0 0 426.308 41.821">
  <g id="グループ_1486" data-name="グループ 1486" transform="translate(-1238.614 -1826.179)">
    <path id="パス_777" data-name="パス 777" d="M16-23.625a4.265,4.265,0,0,1,2.625.75,2.016,2.016,0,0,1,.75,1.625,7.024,7.024,0,0,1-.125,1.375,3.673,3.673,0,0,0-.125.875,25.425,25.425,0,0,1,4.75,3.125,1.741,1.741,0,0,1,.125.75,4.788,4.788,0,0,1-2.125,1.375l-2,.75q2.5,6.875,6.375,10.25a1.893,1.893,0,0,0,.875-1,20.9,20.9,0,0,0,.125-3q0-.5.375,0a8.389,8.389,0,0,1,1.5,5.5,3.718,3.718,0,0,1-.5,1.875A1.139,1.139,0,0,1,28,1.25Q25.75.875,22.875-2.625A28.8,28.8,0,0,1,18-10.875l-.5-1.25a18.7,18.7,0,0,1-4.5,1.25h-.875a1.88,1.88,0,0,0-.625,1,22.444,22.444,0,0,1-1.625,2.5Q8.375-5.25,7.5-3.75a3.08,3.08,0,0,1-.875,1.5q-.375.375-.875-.125A5.477,5.477,0,0,1,4.375-4.25q-.125-.375.5-1a49.728,49.728,0,0,0,1.75-5.125L6.25-11q-1.125.75-2.375,1.5a.312.312,0,0,1-.5,0,2.161,2.161,0,0,1-.75-1.5Q2.5-12,3.75-12.875A20.275,20.275,0,0,0,5.625-14.5,3.613,3.613,0,0,0,6.75-15.625,20.059,20.059,0,0,1,8.875-18.75V-19q-.5-.875-.875-1.5l1-.125a4.037,4.037,0,0,1,1.5.25,5.352,5.352,0,0,1,1.875,1.125.772.772,0,0,1,.25,1,11.759,11.759,0,0,1-1.5,2.375,45.859,45.859,0,0,1-3.5,3.75,3.572,3.572,0,0,1,1.5,2.5,1.3,1.3,0,0,0,.125.75l1.375-1.25q1.5-1.625,2.25-2.375-.375.625-.5.875-1.125.75,1.875-1.625a25.655,25.655,0,0,0,2.5-1.375q-.125-1-.25-2.25Q16.25-19,16.125-20.75a6.251,6.251,0,0,1-.875-.625q-.625-.25-.625-.5Q14.375-23.625,16-23.625Zm9.875.875a13.258,13.258,0,0,1,2.25,1.125,1.317,1.317,0,0,1,.5,1.125,4.091,4.091,0,0,1-.25,1,6,6,0,0,1-2.125.375q-1.625,0-1.625-.875a4.345,4.345,0,0,0-1.25-2.5v-.125a5.259,5.259,0,0,0,1.25-.125A1.567,1.567,0,0,1,25.875-22.75ZM19-18.25a12.9,12.9,0,0,0,.25,2.75l.625-.125Q20.125-17.75,19-18.25ZM48-25.5a2.162,2.162,0,0,1,1.75,1,4.38,4.38,0,0,1,.625,1.25A7.26,7.26,0,0,1,50.5-21.5a3.082,3.082,0,0,1,2.625.625A.973.973,0,0,1,53.5-20q0,.75-3.25,2.125l-.125.625a14.337,14.337,0,0,0,1.75-.125q1.5.75,1.5,1.375l-.75.5A5.736,5.736,0,0,0,50-14.375l-.25.875L51-13.75a1.952,1.952,0,0,1,2-.875,3.094,3.094,0,0,1,1.75.5q.5.5.25.875a2.351,2.351,0,0,1-1.375.625A16.128,16.128,0,0,0,49.75-10.5a33.415,33.415,0,0,0-4.375,3.625,24.719,24.719,0,0,0,.25,3.5q1,2.75,1.75,2.875A9.516,9.516,0,0,0,49.5-1.75q.75-.625,2.5-2.375Q48.625-6,48.125-7.375a.77.77,0,0,1,.625-.875,13.9,13.9,0,0,0,4.75-2.125l.875-.5a17.07,17.07,0,0,1,2.25.875q.25.375-.25.625-1,2-2,3.75,1.5.75,2.375,1.25Q60-2.75,60-.625a1.518,1.518,0,0,1-.75.375Q58-.25,53-3.375A38.49,38.49,0,0,1,49.625.75,19.909,19.909,0,0,1,47.75,2.625q-1.5.125-2.875-1.75a9.966,9.966,0,0,1-1.5-6.5A28.939,28.939,0,0,0,39.75-3Q38-1.25,37-1.375q-.5-1-.75-1.625a18.474,18.474,0,0,1,1.5-2.125l.25.75A57.079,57.079,0,0,0,47.25-11.5Q42.5-10.125,38-8.375a4.26,4.26,0,0,1-1.25-1.75q0-.25.5-.625a32.947,32.947,0,0,0,5.125-1.125,12.591,12.591,0,0,0,4.75-2.25v-.25a4.741,4.741,0,0,1-3-.625,6.127,6.127,0,0,1-1.5-1.125l4.625-.125v-1.125A5.481,5.481,0,0,1,43.625-19.5L42-21q4,1.25,5.375.5a13.4,13.4,0,0,0-.125-3A8.149,8.149,0,0,0,45.5-25q.75-.25,1.25-.375A4.386,4.386,0,0,1,48-25.5ZM45.875-12.625l1.25-.125v-.5ZM54.75-8.75a10.04,10.04,0,0,0-3.625,1.5,8.076,8.076,0,0,0,2.375,1Q54.875-8.25,54.75-8.75ZM81.125-23.375a3.118,3.118,0,0,1,1.375.25q.375.125,1.125,1.25a.841.841,0,0,1-.375.75A7.447,7.447,0,0,1,81.625-21,6.469,6.469,0,0,0,80-20.875a14.824,14.824,0,0,1-1.625.375,2.218,2.218,0,0,1,2.375,1.625q-1,6.375-.75,7.625l.5-.75a12.071,12.071,0,0,1,4.875-4.125,10.458,10.458,0,0,1,3.75-1,1.8,1.8,0,0,1,1.25.625A2.708,2.708,0,0,1,91.5-14.625,5.166,5.166,0,0,1,90.875-13,31.486,31.486,0,0,1,88-9.25a6.116,6.116,0,0,1,.625.375,19.4,19.4,0,0,1,4.125,3A4.008,4.008,0,0,1,93.875-3.75q0,.875-1,.875A5.188,5.188,0,0,1,90-4.25Q88.25-5.625,86-7.5a21.259,21.259,0,0,1-3.5,2A1.683,1.683,0,0,1,81-6.25a2.489,2.489,0,0,1-.625-1.625q0-.625.375-.625a16.4,16.4,0,0,0,1.875.25l1-1A5.734,5.734,0,0,0,80-9.625q0,4.125-.25,10.75-.25.75-.75.75A2.218,2.218,0,0,1,76.875.5Q76.75-1,76.75-1.75L77-3a11.106,11.106,0,0,0,.5-2.125v-2.75q-5.5,4.5-7.75,5.25a16.563,16.563,0,0,1-2-2.125q-.125-.125.25-1a1.39,1.39,0,0,1,1.125-.75,6.125,6.125,0,0,0,1.75,0A3.36,3.36,0,0,0,72.5-7.875,3.056,3.056,0,0,1,71.375-9.25Q72-12.625,73.5-19.125A13.67,13.67,0,0,1,69.75-20a9.2,9.2,0,0,1-2.25-1.75,50.652,50.652,0,0,0,6.5-.375q2.75-.5,6.5-1.25Zm-3.125,3q-1.5.625-2,.875-.125,1.375-.375,2.75a2.056,2.056,0,0,0,.625.125A16.048,16.048,0,0,1,78-20.375ZM77-17.5a1.188,1.188,0,0,0-.5,1,5.276,5.276,0,0,1,1.375,1l.25-1.625q0-.875-.75-.5Zm.75,3.25a5.266,5.266,0,0,1-.875.125,2.783,2.783,0,0,0-1,.875,8.412,8.412,0,0,1,1.875,1Zm9.875,0q-2.875.625-4.875,1-.75,0-2,1.625l-.375.75Q81.875-11,83.25-11a4.869,4.869,0,0,1,1.75.25q1.5-1.375,2.625-2.625l.25-.625ZM75-11a4.154,4.154,0,0,1-.5,1.625,3.057,3.057,0,0,0,1.125-1.25A1.569,1.569,0,0,1,75-11Zm2.625.375A8.16,8.16,0,0,1,74.75-9a1.527,1.527,0,0,1-1.125,1.125,9.8,9.8,0,0,0-2.625,2v.125q1.625-.75,4.125-2A19.539,19.539,0,0,0,77.5-9.5ZM117-25.5a2.5,2.5,0,0,1,2,.875q1.875,2.125,0,1.875a6.254,6.254,0,0,1-3.625-1.5,3.252,3.252,0,0,1-.5-.875,1.2,1.2,0,0,1,.875-.375Zm-9,2.25q.5.125,1.375.375a1.962,1.962,0,0,1,1.375,1,1.049,1.049,0,0,1,0,1,50.581,50.581,0,0,0-6.125,4.5l1.25-.375A4.38,4.38,0,0,1,107.25-17q2,0,1.75,1.375-1.125,1.375-2,2.375,2.125,0,1.625,1.375-.125.5-1.375,1.5l-3.5,2.5Q102.5-6.75,101.625-6q-.75.875-.375,1a38.137,38.137,0,0,0,5.375-3,18.659,18.659,0,0,1,2.5-2.25,1.019,1.019,0,0,1,.25.75q0,1.5-2.5,4.125a14.465,14.465,0,0,1-5.75,3.5A2.837,2.837,0,0,1,99.5-2.75q-1-.875-1-1.25,0-.5,1.375-1.25a14.6,14.6,0,0,0,5-5.625,10.544,10.544,0,0,1-2.375.75q-1.125-.75-.75-1.5A30.529,30.529,0,0,1,104.5-14.5q-1.75.5-4.25,1a3.508,3.508,0,0,1-.875-1.375l1.125-.75q1.125-1.25,3.5-3.875,1.125-1.25,2.375-2.75-.5-.5-.5-.75Q106.75-23.125,108-23.25Zm10.875,1.125q1.125.375.5,1A17.041,17.041,0,0,0,118-19.875q.875.125,2.375.25,1.5.625,1,1.5a7.391,7.391,0,0,1-2.625,1.75,5.786,5.786,0,0,0-1.25.75,13.362,13.362,0,0,1,2.625-.25,9.126,9.126,0,0,1,3.75.75,1.393,1.393,0,0,1,1,1.5,1.611,1.611,0,0,1-1,.75q-2,.75-4,1.625a2.669,2.669,0,0,1,1.625.625,3.33,3.33,0,0,1,.75,1.125,7.5,7.5,0,0,1,.125,2.5A3.31,3.31,0,0,1,121-4.75a7.1,7.1,0,0,1-3,1.375v1.25l.125,2.5q-.25,2.5-.875,2.5-1.625-.125-1.625-2,.125-1.25.25-2.125A21.526,21.526,0,0,1,116-3.625a2.766,2.766,0,0,1-.875-1.125,9.541,9.541,0,0,1-.875-2.375q-1,1-1.875-.5l.25-.875a3.411,3.411,0,0,0,1.625-.875q.125-.375.5-1.25a1.718,1.718,0,0,1,.375.875q.5-.375,1.25-.875a4.574,4.574,0,0,0,0-2.125.973.973,0,0,1-1-.625l-1.75.5-2.75,1Q109-13.625,110.625-14a5.259,5.259,0,0,1,1.25-.125l2.625-1.5a20.089,20.089,0,0,0,4.625-3q-3.125,1-4.875,1.75a4.835,4.835,0,0,1-.625-.875.693.693,0,0,1,.125-.875,14.871,14.871,0,0,0,1.625-1.625,13.96,13.96,0,0,0-1.875-1.125q-.75-.25.125-.5Q115.75-22,118-22.25Zm2.25,7.375q-3.25.25-3.625.625.875.5.75,2.375,2.125-1.375,4.5-2.875Zm-1.5,4.75a1.72,1.72,0,0,0-1.5.625L118-7.875v2.25a2.161,2.161,0,0,0,1.5-.75A3.4,3.4,0,0,0,120.625-8Q120.625-10,119.625-10Zm-4.25,2.375a5.577,5.577,0,0,0,.75,2Q116.25-7,116.25-8.25ZM138.75-23a5.939,5.939,0,0,1,2.625,1.75q.125,1-5,2.5-1.625.5-1.75,0t2-2.625a1.4,1.4,0,0,1,.75-1.375A2.127,2.127,0,0,1,138.75-23Zm4.875.375A8.217,8.217,0,0,0,145-21.375a17.684,17.684,0,0,0,4.375-1.125,1.913,1.913,0,0,1,1.125-.125,4.349,4.349,0,0,1,1.875.875q.75.625,1.25,1.125a.887.887,0,0,1-.125.75Q151-17,149-14.625a4.85,4.85,0,0,0,.625-.25q1-1,1.75-.875a2.893,2.893,0,0,1,1.75.875q.25.25-.5.875a11.983,11.983,0,0,0-2.75,2.625,10.345,10.345,0,0,0,1.375,1.75q1.5,1.375-1.375,4.125Q151.5-4.75,153-3.875,157.25-1.5,157.75.75a1.834,1.834,0,0,1-.5,1q-1.875-.125-4.5-2.375A34.643,34.643,0,0,0,147.875-4q-1.25.875-3.5,2.125a5.286,5.286,0,0,1-3.125.5,2.123,2.123,0,0,1-1.125-.875q-.375-.5-1.125-1.375-.375-.5.125-.5a5.244,5.244,0,0,1,2.125.5q.875.125,3.75-1.625a21.462,21.462,0,0,0-5.5-1.625,2.275,2.275,0,0,0-1,.75l.375-.75a4.549,4.549,0,0,1,3.375-.875,15.074,15.074,0,0,1,2.875.375q.75.25,2.125.75,3.125-2.125,2-3a6.965,6.965,0,0,1-1.375-2.25q-1.875.625-3.75,1.375-1,.25-1.5-1.875-.25-.875,1-1.75a30.8,30.8,0,0,0,7-7q-.5-.25-1.125-.5a12.152,12.152,0,0,0-4.375,3.375q-.75.875-1,.625a3.641,3.641,0,0,1-1.5-2.25,15.736,15.736,0,0,0,.625-2,9.2,9.2,0,0,0-.375-1Q143-23,143.625-22.625ZM138-17.5q2.5,1,2,2.125-2.75,2.5-4.25,3.875,1,.375,1,2.125a7.765,7.765,0,0,0-.125,1.5V-3.75a1.573,1.573,0,0,0,.625-.875,2.027,2.027,0,0,1,.5,1.75A8.236,8.236,0,0,1,136.375.5q-.625.75-1.375,0A3.544,3.544,0,0,1,133.875-1a3.227,3.227,0,0,1-.125-1.5q1.5-6.125,1.375-7.375a1.585,1.585,0,0,0-.375-.75,11.8,11.8,0,0,0-1.875,1.375q-.375.375-.625-.125a2.7,2.7,0,0,1-.625-1.375v-.5q3.25-3,6.125-5.75l-.25-.625Q137.5-17.75,138-17.5Z" transform="translate(1236 1863)" fill="#07192f"/>
    <path id="パス_776" data-name="パス 776" d="M24.219-32.617q4.883,2.344,6.055,4.492a11.744,11.744,0,0,1-.391,1.953q-.781,4.1-.977,6.445v8.4a38.454,38.454,0,0,1,7.031.781q2.93-3.711,2.539-5.664-.2-.781-2.148-1.172-.977-.2-.781-.977.586-.2,1.563-.586a7.109,7.109,0,0,1,5.664,1.758q1.953,1.758,1.953,2.734,0,2.734-5.664,9.375-1.953,1.953-3.516.977a15.7,15.7,0,0,0-3.125-2.539L27.93-7.227q-6.836,0-8.984,1.563a18.82,18.82,0,0,1-4.492,1.953q-4.687.2-4.883-5.273a13.144,13.144,0,0,0-1.562-2.93,18.7,18.7,0,0,1-1.953-4.3q-.2-2.148,3.906-1.953,4.492.586,6.055,2.148a39.384,39.384,0,0,0,6.641,2.734.766.766,0,0,0,.781-.586V-25.781q0-2.148-.781-2.539-3.32-1.758-3.32-2.344v-.2a.923.923,0,0,1,.977-.781,7.655,7.655,0,0,1,1.758-.781A2.59,2.59,0,0,1,24.219-32.617ZM12.891-14.844H11.523l1.953,2.734a24.9,24.9,0,0,0,1.953,3.32,30.7,30.7,0,0,1,7.813-2.344L21.68-12.3a22.175,22.175,0,0,0-7.422-2.734A8.229,8.229,0,0,0,12.891-14.844Zm70.9-15.82a13.338,13.338,0,0,1,7.617,2.539q4.1,2.734,3.711,5.469A58.908,58.908,0,0,1,92.383-12.3q-3.516,9.961-6.836,9.766a5.1,5.1,0,0,1-2.93-2.148,5.518,5.518,0,0,1-1.367-3.32q-4.3.391-12.7,1.563A4.685,4.685,0,0,1,66.8-8.789a5.518,5.518,0,0,1-1.367,3.32q-.586.977-1.953.391-3.711-2.344-4.3-11.328a53.487,53.487,0,0,0-1.953-9.961q-.586-2.148-.2-2.539Q62.3-25,62.7-23.633q1.367.977,2.344,4.1l.2,1.172a60.5,60.5,0,0,0,7.617-3.125,10.621,10.621,0,0,0-.391-2.93,4.321,4.321,0,0,0-1.367-1.758l-.977-.2a5.99,5.99,0,0,0-2.539-.2l-.781.2q-.2.391-.586,0,1.367-2.734,7.227-3.516A76.271,76.271,0,0,1,83.789-30.664Zm-.2,2.344a28.239,28.239,0,0,0-7.617,1.367,4.236,4.236,0,0,1,1.367,1.172,3.075,3.075,0,0,1,.781,1.172,8.217,8.217,0,0,1,.2,1.953q3.906,0,5.078,2.539a5.888,5.888,0,0,1-1.758,2.539q-1.758,1.758-4.3,3.906a3.564,3.564,0,0,0-.2,1.953q3.711,0,5.273,1.563a4.544,4.544,0,0,0,1.172.781q1.367,0,2.93-3.125,1.562-2.93,2.539-11.133Q88.672-27.93,83.594-28.32ZM72.656-17.578a20.9,20.9,0,0,1-4.492,1.172,4.67,4.67,0,0,1-2.93-1.172l.391,2.539.2,3.125.2.781a2.034,2.034,0,0,0,1.172.2h.977a9.694,9.694,0,0,0,3.32-1.953,6.8,6.8,0,0,0-1.367-1.367q-.586-.391-.586-.586a5.739,5.739,0,0,1,1.367.2,7.261,7.261,0,0,0,1.758.2A12.5,12.5,0,0,0,72.656-17.578ZM153.516-37.5a9.9,9.9,0,0,1,5.078,1.367q2.148,1.172,2.148,2.93a21.758,21.758,0,0,1-1.562,4.688q-1.563,3.711-3.906,4.3L152.539-25a10.8,10.8,0,0,0-2.93.781q2.539,1.172,1.758,5.664a9.676,9.676,0,0,0,3.516-3.32,1.5,1.5,0,0,1-.2-.586q-.781-.2-1.758-.391v-.2a6.308,6.308,0,0,1,2.344-.391,4.458,4.458,0,0,1,3.516,1.563,1.877,1.877,0,0,1,.2,1.367q-4.883,2.734-7.422,4.3,1.563-.586,3.516-1.172l2.148.781a1.131,1.131,0,0,1-.2.781,37.332,37.332,0,0,0-4.1,2.734v.2q2.734.586,2.734,1.758l-.781,1.563a15.04,15.04,0,0,0-2.148,4.492,3.992,3.992,0,0,0,0,1.758l.586,1.172a6.587,6.587,0,0,0,3.906,1.563,32.663,32.663,0,0,0,4.688.2,7.221,7.221,0,0,0,4.1-1.172,6.01,6.01,0,0,0,1.172-3.711l-1.367-5.469q2.734,3.516,3.906,5.078A13.143,13.143,0,0,1,171.68-.391a3.975,3.975,0,0,1-1.172,2.93,6.963,6.963,0,0,1-4.1,1.367q-9.766-.2-13.672-2.93-3.516-2.539-3.516-5.469a10.045,10.045,0,0,1,1.172-4.492q.977-2.344,1.367-3.516L150-11.328q-1.758,1.563-3.711,3.32a81.793,81.793,0,0,1-6.641,5.469,6.8,6.8,0,0,0-2.539,2.148,8.311,8.311,0,0,1-3.516,2.148q-1.953.391-1.758-2.93,0-1.953,1.953-.586,11.523-8.789,12.5-10.352l-1.562.586q-4.492,1.953-5.664,1.563-.781-.391-.391-2.93l8.789-3.906q-.586-1.562.391-1.953a26.943,26.943,0,0,1-.2-3.906,1.689,1.689,0,0,0-.781-1.367,5.252,5.252,0,0,1-3.125-.2q-1.367,0-3.125-2.344-1.563-2.344-1.562-8.2,0-.586.586-.391,2.148,1.758,2.93,2.539a13.642,13.642,0,0,1,2.148,4.1q.977,3.32,3.125-.391l-.2-.2a4.27,4.27,0,0,0-2.539-1.562q-.781-.391.391-.781a10.984,10.984,0,0,1,3.906-1.562,6.186,6.186,0,0,1,3.125.781q1.563.977-1.953,2.93a14.22,14.22,0,0,0-3.711,2.734l-.391.586a18.3,18.3,0,0,1,5.078-1.172q2.344-.2,2.734-1.367a14.128,14.128,0,0,0,1.172-6.055q-.781-.781-1.172-.781a21.173,21.173,0,0,1-3.711.391,7.261,7.261,0,0,1-1.758-.2h-1.367q-1.172-.391-.977-.977a4.985,4.985,0,0,1,2.93-1.172A31.561,31.561,0,0,1,153.516-37.5ZM146.68-21.484q.781-.391.391.391-3.516,4.1-5.078,4.1l-1.953-1.953q-.2-.2,0-1.172t.586-1.172q.2.781,2.344.781A7.982,7.982,0,0,0,146.68-21.484Zm-1.953,6.836q-2.344.781-4.1,1.563l4.492-.977A2.272,2.272,0,0,0,144.727-14.648Zm56.055-23.242q.586-.2,2.539,1.172a3.837,3.837,0,0,1,1.953,3.516q-.391,1.758-1.562,6.641l-.586,1.953A4.5,4.5,0,0,0,204.688-25q.977-.391,1.563-2.344.2-.391,2.539-.781l2.93.977q3.125.977,3.516,2.539,0,1.367-1.953,2.148-5.273,1.953-7.812,2.734-2.344.781-4.3,1.367a89.942,89.942,0,0,1-7.031,9.766,26.547,26.547,0,0,1-5.273,4.688,6.988,6.988,0,0,1-4.492,1.563q-3.906.2-4.687-2.93.2-.391.977,0,1.367.586,1.563.391a18.575,18.575,0,0,0,8.008-5.859,34.8,34.8,0,0,0,3.906-6.25q-3.125-.391-7.227-4.883-.781-.586,0-.586a6.2,6.2,0,0,1,1.758.391,14.233,14.233,0,0,0,2.344.2,24.913,24.913,0,0,0,6.055-.977l1.758-5.078.2-1.367a14.826,14.826,0,0,0-.977-4.3,7.5,7.5,0,0,1-.977-2.93l.2-.2A27.546,27.546,0,0,0,200.781-37.891Zm2.344,25q7.422.977,11.719,4.883,4.1,3.711,5.078,7.227l-.2,1.367a3.768,3.768,0,0,1-1.953.586h-.391q-1.172,0-4.687-1.953T209.18-3.32H212.3a1.357,1.357,0,0,0-.391-1.367q-4.883-4.1-10.156-8.4Z" transform="translate(1445 1864.094)" fill="#07192f"/>
  </g>
</svg>
