<svg xmlns="http://www.w3.org/2000/svg" width="303.737" height="145.574" viewBox="0 0 303.737 145.574">
  <g id="グループ_22" data-name="グループ 22" transform="translate(-83.953 -2493.869)">
    <path id="パス_21" data-name="パス 21" d="M222.784,2542.511h0a9.693,9.693,0,0,0-.434-1.82c-1.462-5.632-4.82-15.949-6.378-20.542a9.644,9.644,0,0,0-.755-2.333s-2.474-3.691-4.322-4.788c0,0-.932-.544-1.06-.575-3.663-1.724-15.005-6.268-15.005-6.268-5.687-2.49-11.551-4.58-17.544-6.686-1.076,4.422-11.246,34.009-12.868,38.14l-1.253-27.484a21.245,21.245,0,0,0,1.076-2.094l4.257-8.384a21.322,21.322,0,0,1-24.725.161l4.145,8.192a14.035,14.035,0,0,0,1.06,2.076l-1.285,27.5c-1.59-4.1-11.76-33.687-12.868-38.141-5.977,2.125-11.84,4.227-17.5,6.669,0,0-11.374,4.544-15.037,6.281l-1.044.548s-3.406,2.808-4.322,4.784a17.2,17.2,0,0,0-.787,2.329c-1.51,4.583-4.852,14.861-6.362,20.533a8.276,8.276,0,0,0-.418,1.833,11.626,11.626,0,0,0-.113,1.654,10.971,10.971,0,0,0,10.941,10.974H212.116a10.977,10.977,0,0,0,10.973-10.974,9.581,9.581,0,0,1-.305-1.589Z" transform="translate(79.742 84.369)" fill="#07192f"/>
    <g id="グループ_21" data-name="グループ 21" transform="translate(83.953 2494.159)">
      <path id="パス_22" data-name="パス 22" d="M154.774,2532.767c0-1.959.37-8.963.37-10.573a28.345,28.345,0,0,0-28.324-28.307h-1.237a28.352,28.352,0,0,0-28.356,28.307c0,1.654.386,8.614.386,10.573-.707.048-7.037-1.511-6.33,6.12,1.43,16.08,7.615,12.985,7.76,12.985,3.02,9.733,7.728,15.9,12.322,19.854,7.181,6.138,14.138,6.843,14.3,6.843h1.157c.112,0,7.021-.657,14.17-6.777,4.643-3.922,9.334-10.138,12.387-19.919.209,0,6.33,3.13,7.776-12.985.659-7.631-5.687-6.072-6.378-6.12Z" transform="translate(25.643 -2493.887)" fill="#07192f"/>
      <path id="パス_23" data-name="パス 23" d="M168.249,2525.48l.08-.24.112-.23a19.85,19.85,0,0,1,4.354-5.75,29.161,29.161,0,0,1,2.988-2.6l.225-.139a.183.183,0,0,1,.161-.07,18.415,18.415,0,0,1,2.008-1.105c2.506-1.193,7.9-3.391,11.648-4.919-.1-.03-.225-.126-.386-.2a2.088,2.088,0,0,0-.337-.161c-3.213-1.5-13.093-5.48-13.093-5.48-4.964-2.12-10.073-3.987-15.294-5.833-.932,3.892-9.816,29.661-11.2,33.274L148.392,2508a17.311,17.311,0,0,0,.932-1.8l3.679-7.3a17,17,0,0,1-10.812,3.552,17.291,17.291,0,0,1-10.7-3.391l3.615,7.134a14.385,14.385,0,0,0,.932,1.8l-1.125,24.02c-1.382-3.565-10.266-29.382-11.2-33.274-5.205,1.846-10.33,3.678-15.295,5.833,0,0-9.9,3.983-13.077,5.48a2.27,2.27,0,0,0-.354.161,4.547,4.547,0,0,1-.594.3,9.221,9.221,0,0,0-3.775,4.179v.044a6.778,6.778,0,0,0-.642,1.994c-1.317,4.018-4.274,12.984-5.527,17.882a10.489,10.489,0,0,0-.4,1.589,10.986,10.986,0,0,0-.1,1.462,9.517,9.517,0,0,0,9.527,9.542h67.926c1.639-5.715,4.225-13.764,5.816-18.6a17.788,17.788,0,0,1,1.028-3.134Z" transform="translate(-83.953 -2420.715)" fill="#07192f"/>
    </g>
    <path id="パス_24" data-name="パス 24" d="M92.445,2544.46c2.619,8.449,6.715,13.881,10.732,17.32,6.25,5.35,12.339,5.946,12.435,5.946h1c.129,0,6.153-.6,12.354-5.916,4.065-3.439,8.161-8.85,10.828-17.381.161,0,5.527,2.76,6.8-11.313.578-6.651-4.916-5.3-5.527-5.333,0-1.7.353-7.809.353-9.189A24.742,24.742,0,0,0,116.7,2493.87h-1.093A24.743,24.743,0,0,0,90.9,2518.595c0,1.38.354,7.535.354,9.189-.627.031-6.153-1.319-5.527,5.333,1.173,14.09,6.555,11.344,6.715,11.344Z" transform="translate(26.017 -0.001)" fill="#07192f"/>
    <path id="パス_25" data-name="パス 25" d="M193.5,2524.217c-.08-.871-.193-1.78-.321-2.686,0,0-.5-2.825-.611-3.3-1.173-5.049-4.306-8.728-8.547-11.6-.819-.527-1.607-1.01-2.426-1.441-1.076-.566-17.688-6.024-18.122-6.186a11.386,11.386,0,0,1,.193,1.894c2.314,1.641,9.125,7.5,6.057,18.426,0,0-4.932-5.833-9.929-6.551-4.723,8.253-12.788,18.748-17.158,21.478-4.354-2.729-12.419-13.194-17.19-21.478-5,.718-9.88,6.551-9.88,6.551-3.1-10.974,3.7-16.785,6.025-18.426a13.493,13.493,0,0,1,.177-1.894c-.4.161-17.03,5.62-18.106,6.186a25.135,25.135,0,0,0-6.828,5.167c1,.4,1.848.823,2.538,1.127a12.158,12.158,0,0,1,1.815.979,19.662,19.662,0,0,1,5.286,4.937,18.085,18.085,0,0,1,2.779,4.192,19.433,19.433,0,0,1,1.125,3.291c1.591,4.836,4.209,12.854,5.8,18.539h64.809a12.6,12.6,0,0,0,9.752-4.013c2.1-2.25,2.715-4.915,2.86-7.827.064-.483.1-2.681.1-2.681l-.193-4.675Z" transform="translate(194 77.244)" fill="#07192f"/>
    <path id="パス_26" data-name="パス 26" d="M101.8,2547.9a16.817,16.817,0,0,1,.659,4.062,5.648,5.648,0,0,1-.128,1.289,46.415,46.415,0,0,1-3.31,5.959c4.515,4.884,10.475,6.007,16.339,7.265,1.735.335,3.519.574,5.4.766l1.864.374-2.988,8.724a25.758,25.758,0,0,0,12.258,20.511h.064a25.748,25.748,0,0,0,12.274-20.511l-3-8.724,1.847-.374c1.912-.192,3.7-.431,5.414-.766,5.88-1.258,11.873-2.381,16.323-7.265a50.666,50.666,0,0,1-3.293-5.959,6.712,6.712,0,0,1-.129-1.289,14.17,14.17,0,0,1,.659-4.062c.369-1.349.819-2.681,1.221-4.083A35.353,35.353,0,0,0,132,2493.962h-.08a35.185,35.185,0,0,0-34.38,35.3,36.606,36.606,0,0,0,3.085,14.556c.353,1.4.787,2.734,1.173,4.083Z" transform="translate(204.742 1.417)" fill="#07192f"/>
  </g>
</svg>
