<svg xmlns="http://www.w3.org/2000/svg" width="258.444" height="168.162" viewBox="0 0 258.444 168.162">
  <g id="グループ_15" data-name="グループ 15" transform="translate(-742.891 -537.88)">
    <path id="Icon_simple-adobexd" data-name="Icon simple-adobexd" d="M56.243.45H12.1A12.093,12.093,0,0,0,0,12.553V54.984a12.093,12.093,0,0,0,12.1,12.1h44.14a12.093,12.093,0,0,0,12.1-12.1V12.553A12.093,12.093,0,0,0,56.243.45Zm9.227,53.424A10.317,10.317,0,0,1,55.161,64.239H13.185A10.355,10.355,0,0,1,2.848,53.9V13.635A10.355,10.355,0,0,1,13.185,3.3H55.132A10.337,10.337,0,0,1,65.469,13.635ZM27.025,31.633,35,46.954c.142.228.057.456-.171.456H29.873a.559.559,0,0,1-.6-.37c-1.823-3.759-3.674-7.518-5.582-11.562h-.057c-1.709,3.816-3.588,7.831-5.411,11.59a.547.547,0,0,1-.513.313h-4.7c-.285,0-.313-.228-.171-.4l7.8-14.865L13.1,17.081a.23.23,0,0,1,.171-.4h4.9a.448.448,0,0,1,.513.313c1.794,3.759,3.617,7.632,5.325,11.419h.057c1.652-3.759,3.474-7.66,5.24-11.391.142-.228.228-.37.513-.37H34.4c.228,0,.313.171.171.4Zm9.369,4.642c0-6.635,4.414-11.818,11.419-11.818a12.628,12.628,0,0,1,1.481.057V16.967a.285.285,0,0,1,.285-.285h4.5c.228,0,.285.085.285.228V43.052a20.284,20.284,0,0,0,.142,2.791c0,.171-.057.228-.228.313a16.963,16.963,0,0,1-7.29,1.652C40.808,47.836,36.394,44.02,36.394,36.275Zm12.9-7.29a4.307,4.307,0,0,0-1.652-.285c-3.588,0-6.094,2.762-6.094,7.347,0,5.24,2.563,7.347,5.781,7.347a5.372,5.372,0,0,0,1.965-.313v-14.1Z" transform="translate(742.891 539.454)" fill="#07192f"/>
    <path id="Icon_simple-uikit" data-name="Icon simple-uikit" d="M51.26,9.991,38.789,17.545l14.38,8.182V47.206L33.851,57.943,14.859,47.206V30.559L2.394,24.146V54.629l31.014,18.21,32.137-18.21V18.216L51.26,9.991Zm-5.779-3L33.4,0,20.813,7.794,33.05,14.525,45.481,6.99Z" transform="translate(835.05 537.88)" fill="#07192f"/>
    <path id="Icon_awesome-node-js" data-name="Icon awesome-node-js" d="M30.334,68.632a5.312,5.312,0,0,1-2.631-.705l-8.368-4.95c-1.248-.705-.637-.949-.231-1.085a16.484,16.484,0,0,0,3.784-1.722.612.612,0,0,1,.624.054l6.429,3.811a.785.785,0,0,0,.773,0l25.05-14.457a.8.8,0,0,0,.38-.678V19.984a.808.808,0,0,0-.393-.692L30.714,4.848a.785.785,0,0,0-.773,0L4.918,19.306A.792.792,0,0,0,4.525,20V48.9a.748.748,0,0,0,.393.665l6.863,3.96c3.73,1.858,6.008-.325,6.008-2.536V22.452a.718.718,0,0,1,.732-.719h3.174a.726.726,0,0,1,.732.719V51c0,4.964-2.712,7.812-7.419,7.812-1.451,0-2.59,0-5.764-1.573L2.68,53.456a5.274,5.274,0,0,1-2.631-4.57v-28.9a5.29,5.29,0,0,1,2.631-4.57L27.7.956a5.492,5.492,0,0,1,5.262,0l25.05,14.471A5.274,5.274,0,0,1,60.645,20V48.9a5.307,5.307,0,0,1-2.631,4.57L32.965,67.927a5.275,5.275,0,0,1-2.631.705ZM50.555,40.138c0-5.411-3.662-6.849-11.352-7.866-7.785-1.031-8.571-1.56-8.571-3.377,0-1.505.665-3.513,6.429-3.513,5.14,0,7.039,1.112,7.825,4.584a.726.726,0,0,0,.705.57h3.255a.708.708,0,0,0,.529-.231.755.755,0,0,0,.19-.556c-.5-5.981-4.476-8.761-12.5-8.761-7.147,0-11.406,3.011-11.406,8.07,0,5.479,4.245,7,11.094,7.676,8.205.8,8.843,2.007,8.843,3.621,0,2.794-2.251,3.987-7.527,3.987-6.632,0-8.083-1.668-8.571-4.964a.718.718,0,0,0-.719-.61H25.533a.715.715,0,0,0-.719.719c0,4.218,2.292,9.249,13.264,9.249,7.92-.014,12.477-3.146,12.477-8.6Z" transform="translate(927.066 635.24)" fill="#07192f"/>
    <path id="Icon_awesome-php" data-name="Icon awesome-php" d="M44,8.476c23.567,0,41.689,9.927,41.689,20.831S67.552,50.138,44,50.138,2.31,40.21,2.31,29.307,20.446,8.476,44,8.476m0-2.31C19.7,6.166,0,16.52,0,29.307S19.7,52.447,44,52.447,88,42.094,88,29.307,68.294,6.166,44,6.166ZM30,27.451c-1.086,5.569-4.922,4.991-9.638,4.991l1.884-9.707C27.472,22.735,31.019,22.171,30,27.451ZM13.392,42.273h5.046l1.2-6.16c5.651,0,9.157.412,12.4-2.626,3.589-3.3,4.524-9.171,1.966-12.113-1.334-1.54-3.479-2.3-6.394-2.3H17.888ZM38.925,12.9h5.019l-1.2,6.16c4.331,0,8.346-.316,10.285,1.471,2.035,1.87,1.059,4.262-1.141,15.551H46.8c2.117-10.917,2.516-11.825,1.746-12.65-.742-.8-2.434-.632-6.517-.632L39.448,36.085H34.429l4.5-23.182Zm30.51,14.547c-1.1,5.651-5.046,4.991-9.638,4.991l1.884-9.707C66.933,22.735,70.453,22.171,69.435,27.451ZM52.826,42.273h5.06l1.2-6.16c5.94,0,9.226.344,12.4-2.626,3.589-3.3,4.524-9.171,1.966-12.113-1.334-1.54-3.479-2.3-6.394-2.3H57.336l-4.51,23.2Z" transform="translate(913.337 543.915)" fill="#07192f"/>
    <path id="Icon_awesome-html5" data-name="Icon awesome-html5" d="M0,2.25,5.324,62.633,29.215,70.6l24.043-7.964L58.583,2.25ZM47.019,21.762H18.978L19.6,29.3H46.393l-2.075,22.64L29.383,56.058V56.1h-.168L14.158,51.939l-.915-11.564h7.277l.534,5.813L29.215,48.4l8.192-2.212.915-9.489H12.861L10.908,14.485H47.69l-.671,7.277Z" transform="translate(747.772 635.445)" fill="#07192f"/>
    <path id="Icon_awesome-css3-alt" data-name="Icon awesome-css3-alt" d="M0,2.25,5.324,62.633,29.291,70.6l23.967-7.964L58.583,2.25Zm47.766,12.2-.732,7.216-17.59,7.521-.046.015h17.01L44.456,51.573,29.475,55.951,14.4,51.5l-.976-11.274h7.46l.488,5.843L29.4,48.094l8.345-2.349.564-9.4-25.371-.076v-.015l-.031.015-.549-7.064,17.1-7.125.992-.412H11.7l-.885-7.216Z" transform="translate(839.613 635.445)" fill="#07192f"/>
  </g>
</svg>
