<svg xmlns="http://www.w3.org/2000/svg" width="24.376" height="21.668" viewBox="0 0 24.376 21.668">
  <path id="Icon_awesome-external-link-alt" data-name="Icon awesome-external-link-alt" d="M24.376,1.016V6.432a1.016,1.016,0,0,1-1.734.718L21.131,5.639,10.825,15.945a1.016,1.016,0,0,1-1.436,0l-.958-.958a1.016,1.016,0,0,1,0-1.436L18.738,3.245,17.227,1.734A1.016,1.016,0,0,1,17.945,0h5.416A1.016,1.016,0,0,1,24.376,1.016ZM17.226,11.46l-.677.677a1.016,1.016,0,0,0-.3.718v6.1H2.708V5.417H13.881a1.016,1.016,0,0,0,.718-.3l.677-.677a1.016,1.016,0,0,0-.718-1.734H2.031A2.031,2.031,0,0,0,0,4.74v14.9a2.031,2.031,0,0,0,2.031,2.031h14.9a2.031,2.031,0,0,0,2.031-2.031V12.178A1.016,1.016,0,0,0,17.226,11.46Z"/>
</svg>
