<svg xmlns="http://www.w3.org/2000/svg" width="100.688" height="24.111" viewBox="0 0 100.688 24.111"><path d="M-47.209,2.412c.088-.01.137-.02.137-.049a.785.785,0,0,0-.166-.117.866.866,0,0,1-.205-.6,13.7,13.7,0,0,1,.8-3.076A8.946,8.946,0,0,0-45.432-.8a7.4,7.4,0,0,0,2.285.42q.571,0,.586-.059c0-.02-.01-.039-.029-.039,0-.068.049-.1.137-.1a1.124,1.124,0,0,1,.215.088l.039-.1a2.056,2.056,0,0,0,.537-.068.1.1,0,0,1,.117-.117l.107.107c.01,0,.039-.039.088-.107.039-.1.166-.137.391-.137V-.937A1.046,1.046,0,0,0-41.184-1a.384.384,0,0,0-.176.078,5.151,5.151,0,0,0-.908.1,1.433,1.433,0,0,1-.166-.039.184.184,0,0,1,.166-.078q0-.029-.059-.059c0-.068.068-.117.205-.137a.789.789,0,0,0,.156.01c-.01.049-.107.078-.3.078,0,.029.059.049.176.049.01.039.02.059.039.059s.039-.02.039-.039c.068-.039.107-.068.107-.1a.078.078,0,0,1,.088-.088,5.485,5.485,0,0,1,1.035-.166,5.369,5.369,0,0,0,1.758-.635c0,.049-.107.156-.332.332l.01.039c0,.029-.039.088-.127.146l.02.127a.084.084,0,0,1-.029.059,3.4,3.4,0,0,0-.371.234V-1a1.134,1.134,0,0,0,.449-.225.959.959,0,0,0,.527-.859.329.329,0,0,0-.137-.293h-.068a1.981,1.981,0,0,1-.557.391,8.934,8.934,0,0,1-3.3.605h-.293a6.26,6.26,0,0,1-3.135-.908.908.908,0,0,1,.059-.205A6.155,6.155,0,0,0-45.236-2.7a6.518,6.518,0,0,0,1.094-.43A11.621,11.621,0,0,0-42.4-4.248q1.289-1.025,1.318-1.025a1.648,1.648,0,0,0,.43-.381c.332-.293.488-.459.488-.527a6.35,6.35,0,0,0,.527-.5c.049-.068.361-.43.947-1.094q2.271-2.886,2.266-4.619a1.809,1.809,0,0,0-1.113-1.758,2.15,2.15,0,0,0-1.348-.361,11.474,11.474,0,0,0-5.664,1.865,2.407,2.407,0,0,1-.283.205,7.268,7.268,0,0,0-1.846,1.455A3.726,3.726,0,0,0-48.117-8.7c0,.254.176.449.508.586a9.6,9.6,0,0,1,.264,2.09v.01a.089.089,0,0,0,.068-.029c-.039-.557-.059-.928-.059-1.123h.01c0,.039.01.068.029.068.02.166.068.615.127,1.348-.02,1.074-.078,1.611-.156,1.611l-.01-.029c.029-.625.039-1.035.039-1.23q0-.073-.029-.088c-.01,0-.029.039-.049.1l.02.391a4.957,4.957,0,0,0-.049.625l.01.088a2.519,2.519,0,0,0-.117.557c-.02.3-.049.459-.1.459a.33.33,0,0,0-.225.313.869.869,0,0,0,.107.371.7.7,0,0,1-.107.205A16.567,16.567,0,0,0-48.518.439q.029,0,.059.117c-.088.068-.137.127-.137.156,0,.059.02.1.049.107a.876.876,0,0,0-.049.332,1.16,1.16,0,0,0,.293.781A1.636,1.636,0,0,0-47.209,2.412Zm4.092-15.449a.532.532,0,0,0-.166-.029c0-.088.127-.166.361-.234a6.089,6.089,0,0,1,2.588-.713,6.558,6.558,0,0,1,1.6-.264c.186.01.273.02.273.049-.029,0-.049.01-.049.029-.029,0-.361.039-.986.117a5.71,5.71,0,0,0-1.123.273.639.639,0,0,1-.215-.1.52.52,0,0,0-.234.059,2.383,2.383,0,0,0-1.074.361A4.364,4.364,0,0,1-43.117-13.037Zm-2.861,9.521h-.01a20.257,20.257,0,0,0,.752-2.031c.918-2.227,1.426-3.486,1.533-3.779a16.341,16.341,0,0,0,.723-1.9,4.454,4.454,0,0,0,.391-1.348.41.41,0,0,0-.205-.342v-.01a.636.636,0,0,0,.186-.088,13.173,13.173,0,0,1,4.014-.957,2.056,2.056,0,0,1,.859.127,1.051,1.051,0,0,1,.439.947,6.35,6.35,0,0,1-1.318,3.125c-.439.586-.811,1.1-1.113,1.543a5.508,5.508,0,0,0-.654.762q-.352.264-.352.381c-.088.059-.166.117-.225.156-.215.264-.342.4-.381.4a1.336,1.336,0,0,1-.3.371l-.02-.039a.322.322,0,0,0-.117.1,16.789,16.789,0,0,1-2.09,1.641A11.765,11.765,0,0,1-45.979-3.516Zm.869-8.359h-.01l.02-.039c.615-.527,1.006-.791,1.182-.791,0,.156-.137.283-.391.371A4.763,4.763,0,0,1-45.109-11.875Zm-1.68,8.2h-.01c0-.01.049-.2.146-.537a.165.165,0,0,0-.029-.1c-.049.01-.1.059-.166.146-.02,0-.029-.02-.039-.059q.015,0,.059-.176a1.162,1.162,0,0,1,.146-.508v-.049c0-.029-.039-.049-.117-.078l.01-.02c0-.078-.02-.244-.049-.5a1.19,1.19,0,0,1,.059-.332c0-.459,0-.742-.01-.859a10.27,10.27,0,0,1-.078-1.289l-.049-.029-.02.01-.078-.02a.527.527,0,0,0-.186-.215.307.307,0,0,1-.244-.3c.068-.605.82-1.572,2.275-2.881a6.135,6.135,0,0,1,.928-.625c.02,0,.029.02.029.039a1.138,1.138,0,0,1-.078.361c-.322.83-.527,1.387-.625,1.67-.547,1.387-.85,2.207-.908,2.471a1.107,1.107,0,0,0-.186.459.4.4,0,0,1,.02.068.312.312,0,0,1-.156.186c-.049.225-.117.537-.225.918H-46.4q-.088-.073-.088-.088a.241.241,0,0,0-.078.166.493.493,0,0,0,.049.166l-.02.127a1.876,1.876,0,0,0-.186.449.243.243,0,0,0,.068.049h.01c.332-.83.5-1.26.5-1.279.117-.225.391-.8.8-1.729q.117-.41.234-.41a.9.9,0,0,1-.146.449,1.559,1.559,0,0,1-.2.439c-.049.156-.146.439-.3.859a2.366,2.366,0,0,0-.293.762c0,.02.02.029.049.029s.107-.137.186-.41c.029-.166.088-.244.2-.244a2.527,2.527,0,0,1-.107.381l.01.039c.039-.01.078-.059.127-.137a2.423,2.423,0,0,1,.2-.537q.117-.308.234-.352a2.009,2.009,0,0,0,.293-.586,7.784,7.784,0,0,1,.527-1.182h.01a1.1,1.1,0,0,1-.039.293A8.354,8.354,0,0,0-45-7.08h.039c.1-.127.156-.2.176-.2a3.266,3.266,0,0,1-.332.928c-.176.547-.43,1.191-.752,1.953-.068.3-.176.459-.312.459,0-.02.01-.059.02-.117v-.01h-.02q-.073.264-.264.264l.1-.391c0-.02-.049-.039-.156-.059-.039,0-.068.107-.1.322h.01a.232.232,0,0,1,.107-.059.67.67,0,0,1-.117.264c-.02,0-.02-.02-.029-.059s.01-.059.029-.059c-.01-.029-.029-.039-.039-.039l-.049.039A.181.181,0,0,1-46.789-3.672Zm8.5-6.113c.01-.1.059-.146.137-.146C-38.156-9.834-38.205-9.785-38.293-9.785Zm-.039.137h-.059v-.02a.154.154,0,0,1,.068-.068.347.347,0,0,0,.01.068ZM-44.289-9h-.02l-.01-.068c.088-.186.166-.361.234-.547.01,0,.01.01.01.02A1.229,1.229,0,0,1-44.289-9Zm1.5,4.092c-.01,0-.01-.01-.01-.02q.088-.088.088-.117a6.572,6.572,0,0,1,.713-.586,17.343,17.343,0,0,0,2.266-2.314,9.92,9.92,0,0,0,.9-1.133,1.48,1.48,0,0,1,.322-.371.3.3,0,0,1-.02.078,7.394,7.394,0,0,0-.41.625,6.943,6.943,0,0,0-.469.6c-.205.215-.3.352-.3.41v.1l.02.02a.605.605,0,0,1-.107-.029,1.293,1.293,0,0,0-.186.186c-.508.557-1.143,1.182-1.9,1.865A5.336,5.336,0,0,1-42.785-4.912Zm-1.523-3.574-.01-.078.088-.01C-44.27-8.516-44.289-8.486-44.309-8.486Zm-.215.605a.021.021,0,0,1-.02-.02.974.974,0,0,1,.02-.156.435.435,0,0,1,.205-.332A1.6,1.6,0,0,1-44.523-7.881Zm5.1.068v-.059h.078C-39.348-7.842-39.377-7.822-39.426-7.812Zm-5.547.068c-.029-.02-.039-.029-.039-.039a.061.061,0,0,1,.059-.039A.131.131,0,0,1-44.973-7.744Zm4.99.586h-.01L-40-7.207a.488.488,0,0,1,.156-.078c.127-.234.234-.371.342-.41h.01A2.632,2.632,0,0,1-39.982-7.158ZM-45.256-7.4a.172.172,0,0,1-.078-.088c0-.059.02-.088.068-.1.02,0,.049.039.068.127Q-45.241-7.4-45.256-7.4Zm.1.088h-.01a.488.488,0,0,1,.039-.225l.059-.01v.088A.8.8,0,0,0-45.158-7.314Zm-.459.645h-.02a1.578,1.578,0,0,1,.137-.449c.049.01.068.029.068.068A.48.48,0,0,1-45.617-6.67Zm5.439-.283a.142.142,0,0,1,.1-.146l.039.059A.17.17,0,0,1-40.178-6.953Zm-5.459.947.049-.039c.059-.176.107-.264.156-.283h.137c.039,0,.068-.059.107-.186l.205-.42a.4.4,0,0,0-.039-.117h-.039a.381.381,0,0,1-.088.166l-.156-.01c-.039,0-.068.068-.078.215.01,0,.01,0,.01.01-.186.42-.283.645-.283.664Zm5.254-.713-.029-.088c0-.029.059-.068.186-.1v.02C-40.256-6.777-40.3-6.719-40.383-6.719Zm-1.9,1.758h-.02V-5.02a2.687,2.687,0,0,1,.527-.4,7.975,7.975,0,0,1,.654-.605c.342-.4.557-.6.645-.6a.253.253,0,0,1-.088.176.623.623,0,0,0-.273.244c-.146.107-.225.176-.225.2l.01.039a.929.929,0,0,0-.332.313c-.088.127-.166.2-.234.2a.736.736,0,0,1-.283.225C-42.092-5.059-42.219-4.961-42.287-4.961Zm-3.6-.771c.029,0,.078-.117.146-.332,0-.029-.01-.039-.029-.039s-.068.107-.137.313C-45.91-5.752-45.9-5.732-45.891-5.732Zm-.225.049c.059-.039.088-.078.088-.127-.02-.029-.039-.049-.049-.049s-.049.029-.088.088C-46.164-5.723-46.145-5.693-46.115-5.684Zm.293.146q.059-.044.059-.059v-.1h-.029a.142.142,0,0,1-.049.117Zm-.342.352a.271.271,0,0,0,.117-.049c0-.029-.049-.039-.137-.039,0-.166.02-.244.059-.244a.23.23,0,0,0-.02-.078c-.059,0-.107.059-.137.176A.338.338,0,0,0-46.164-5.186Zm.127-.186c.02,0,.029-.029.049-.078,0-.02-.039-.039-.107-.039v.029Zm4.424.049h-.02c.059-.088.117-.137.176-.137C-41.457-5.371-41.516-5.322-41.613-5.322Zm-4.346.186c.02,0,.039-.039.049-.127,0-.02-.029-.02-.078-.02-.02,0-.029.029-.039.107C-46.027-5.146-46.008-5.137-45.959-5.137Zm.059.371.029-.01.156-.4v-.049h-.029a2.2,2.2,0,0,1-.205.449Zm-.586.049v-.137a.427.427,0,0,0,.156-.352h-.029a1.565,1.565,0,0,0-.2.459C-46.555-4.727-46.535-4.717-46.486-4.717Zm3.682.186h-.02c.049-.127.2-.244.449-.371C-42.375-4.8-42.521-4.678-42.8-4.531Zm-3.623.176a.13.13,0,0,0,.068-.029.2.2,0,0,0-.049-.088c-.02.01-.039.039-.059.1Zm2.91.293a.01.01,0,0,1-.01-.01.361.361,0,0,1,.225-.146c.02,0,.039,0,.039.02A1.011,1.011,0,0,1-43.518-4.062Zm4.082,2.539a.036.036,0,0,0,.039-.039h-.049l-.029.01C-39.475-1.533-39.455-1.523-39.436-1.523Zm-2.139.2h-.01V-1.4h.01Zm.957.156a.1.1,0,0,0,.059-.068c-.01,0-.01-.01-.01-.02-.049.029-.068.049-.068.088Zm-.869.088c.039-.01.059-.02.059-.049H-41.5A.088.088,0,0,0-41.486-1.084Zm-1.211.059c-.029-.02-.049-.029-.049-.049s.01-.02.039-.02a.1.1,0,0,0,.059.02v.029A.165.165,0,0,0-42.7-1.025Zm-.42.049q-.146-.029-.146-.059c.01-.02.02-.039.029-.039a.247.247,0,0,1,.137.068Zm.273-.059-.029-.039.068.02v.01Zm.986,0a.2.2,0,0,0,.059-.02c0-.02,0-.029-.02-.029l-.068.01Zm-.713.215c-.029,0-.049-.029-.049-.078a.14.14,0,0,1,.107-.137A1.5,1.5,0,0,0-42.57-.82Zm1.846-.127q.029,0,.029-.088h-.039l-.01.059C-40.744-.957-40.734-.947-40.725-.947ZM-42.961-.8c-.01-.02-.02-.039-.029-.039l.049-.059c.01,0,.02.02.049.059v.02A.248.248,0,0,0-42.961-.8Zm.82.137h-.01c-.039-.02-.049-.039-.049-.059l.01-.029C-42.18-.752-42.16-.723-42.141-.664Zm.889-.039.059-.01c0-.02-.01-.029-.029-.039s-.039.01-.039.029Zm-2.236.254c-.029,0-.039-.029-.039-.088.029,0,.039.01.039.02Zm.1-.02h-.01l.01-.068h.029C-43.361-.488-43.371-.469-43.391-.469Zm.6.02-.088-.039c0-.02.039-.039.1-.049a.3.3,0,0,1,.078.02C-42.707-.5-42.736-.479-42.795-.449Zm-.488-.039a.026.026,0,0,1-.029-.029h.059A.026.026,0,0,1-43.283-.488Zm.137.01c-.02,0-.029-.01-.029-.039C-43.156-.5-43.146-.488-43.146-.479Zm-5.039.3h-.029a.128.128,0,0,1-.059-.117A.114.114,0,0,1-48.146-.4.542.542,0,0,1-48.186-.176Zm.254-.107h-.01l-.068-.049L-48-.391l.068.01Zm-.117.176c-.02,0-.029-.02-.039-.049a.088.088,0,0,1,.049-.01Zm.322,1.963a.176.176,0,0,1-.107-.146,1.3,1.3,0,0,0-.049-.391A2.574,2.574,0,0,1-47.8.859l-.01-.1c0-.059.068-.146.2-.264h.01a.075.075,0,0,0,.02.049c-.029.244-.078.518-.137.82l.029.352A.49.49,0,0,1-47.727,1.855Zm14.887-8.75H-32.9a3.8,3.8,0,0,0-2.187.947,13.4,13.4,0,0,0-1.289,1.191A6.949,6.949,0,0,0-37.127-3.7c-.088.146-.254.518-.508,1.094a3.967,3.967,0,0,0-.176.889,1.883,1.883,0,0,0,.625,1.348A2.958,2.958,0,0,0-35.193.41h.166A5.431,5.431,0,0,0-34.3.342,4.333,4.333,0,0,0-32.42-.615a2.561,2.561,0,0,1,.5-.43,2.21,2.21,0,0,0,.459-.439.01.01,0,0,1-.01-.01c-.078.039-.234.146-.479.313a6.01,6.01,0,0,1-.85.605,1.014,1.014,0,0,1-.469.254.557.557,0,0,1,.156-.137,2.3,2.3,0,0,0,.488-.312,2.175,2.175,0,0,0,.391-.244c.186-.1.283-.166.283-.205.2-.176.371-.332.537-.459.088-.1.146-.156.166-.156h.01l-.2.3a.2.2,0,0,0,.127-.068,4.24,4.24,0,0,0,.6-.625,2.069,2.069,0,0,0,.42-.645.805.805,0,0,0,.137-.264v-.029a.139.139,0,0,0-.02-.059v-.029a1.128,1.128,0,0,0,.166-.459.124.124,0,0,0-.01-.059c-.068,0-.156.107-.283.332-.1.166-.293.439-.566.82v.02l.02.029v.01a.769.769,0,0,1-.215.244v.059H-31c.029,0,.039-.039.039-.107.029.02.039.029.039.039v.029c0,.049-.049.107-.166.176a.582.582,0,0,0-.088-.176h-.01a.818.818,0,0,0-.273.283c.01,0,.01,0,.01.01h.01c.156-.146.244-.225.273-.225a.779.779,0,0,0,.039.156.319.319,0,0,0-.146.225H-31.4c0-.02-.02-.039-.059-.039h-.01l-.088.059c-.059,0-.078.029-.088.088,0,.02-.02.049-.078.088v.02c.029.029.039.049.039.059a1.732,1.732,0,0,1-.166.1.117.117,0,0,0-.078-.039h-.01a.866.866,0,0,0,.01.127l-.156.029v.068a2.065,2.065,0,0,0-.3.234,2.3,2.3,0,0,0-.518.254l.01-.049h-.078a1.294,1.294,0,0,1-.234.088V-.7h-.059a1.073,1.073,0,0,1-.273.127.636.636,0,0,0-.4.176h-.029a1.556,1.556,0,0,0-.5.146A1.47,1.47,0,0,1-35.1-.1a1.929,1.929,0,0,1-.654-.117,1.314,1.314,0,0,1-.85-1.338v-.029a2.961,2.961,0,0,1,.391-1.367h.01c0,.156.039.254.127.3a.385.385,0,0,0,.156.205,2.02,2.02,0,0,0,.7.2,4.438,4.438,0,0,0,2.344-1.221c1.025-.908,1.533-1.68,1.533-2.295a.828.828,0,0,0-.322-.635,2.1,2.1,0,0,1-.4-.273C-32.127-6.816-32.39-6.895-32.839-6.895ZM-35.7-3.76a6.731,6.731,0,0,1,.85-.947,8.313,8.313,0,0,1,1.3-.977,3.979,3.979,0,0,1,1.25-.5h.107q.176,0,.176.146c0,.156-.156.391-.459.674-.6.6-1.191,1.152-1.777,1.67a7.13,7.13,0,0,1-.859.635.472.472,0,0,1-.332.127h-.01a.389.389,0,0,1-.312-.137c-.088-.186-.137-.283-.137-.283a1.025,1.025,0,0,1,.215-.381A.036.036,0,0,0-35.7-3.76Zm3.809-2.383h.039c.02.117.029.2.029.215a.972.972,0,0,1-.293.576,7.906,7.906,0,0,1-1.221,1.094h-.02a.617.617,0,0,1,.146-.117,4.338,4.338,0,0,0,.879-.859q.469-.513.469-.674a1.276,1.276,0,0,0-.029-.225Zm-3.7,1.553c0-.039.02-.059.049-.059v.039A.165.165,0,0,0-35.593-4.59ZM-36.97-2.705a.638.638,0,0,1,.117-.254,5.048,5.048,0,0,1,.732-1.084,1.569,1.569,0,0,1,.42-.449h.02a.373.373,0,0,1-.088.146c-.586.752-.918,1.191-.986,1.309q-.132.352-.205.352h-.01Zm.957-.225a.165.165,0,0,1,.049.02c.117.107.2.156.234.156h.039a.247.247,0,0,0,.137-.068h.049v.01a1.691,1.691,0,0,1-.293.146l-.049-.01-.039.02a.435.435,0,0,1-.127-.225Zm-.674.029h.029l.01.049v.01h-.01q-.029-.015-.029-.029Zm-.557.107h.01v.039h-.01Zm.156.3c0-.049.039-.1.137-.156a.492.492,0,0,1-.107.225h-.02l-.01-.049Zm.264-.127a.145.145,0,0,1,.068.01v.02c-.02.029-.039.049-.049.049,0-.029-.01-.039-.029-.039C-36.834-2.6-36.824-2.607-36.824-2.617Zm-.068.117h.078a.871.871,0,0,1-.088.293c-.039.02-.059.107-.059.283a5.594,5.594,0,0,0-.107.6v.068c.078.4.156.6.215.6q.029-.015.029-.029V-.7A.446.446,0,0,1-36.9-.918v-.088l.02.01a2.366,2.366,0,0,1,.391.713v.039a.036.036,0,0,0-.029.01c-.156,0-.332-.166-.547-.488a2.4,2.4,0,0,1-.137-.742,2.393,2.393,0,0,1,.2-.811A.933.933,0,0,0-36.892-2.5Zm-.615.381a.812.812,0,0,1,.078-.244c.02-.078.049-.127.088-.127l.01.049v.029a.674.674,0,0,1-.127.361C-37.468-2.051-37.488-2.08-37.507-2.119Zm.313-.117c0-.01.02-.029.068-.049l.01.049c0,.029-.02.049-.039.078-.01,0-.02-.02-.039-.049Zm-.01.117h.01c.029.01.039.029.039.068v.02l-.01.02c-.01,0-.029-.02-.059-.039Zm6.055.205c.127-.137.2-.205.215-.205v.049a.5.5,0,0,0-.176.176Zm-6.4.01a.073.073,0,0,1,.049-.068c.039,0,.068.039.068.127a.3.3,0,0,1-.02.107q.015.366.029.5c0,.068.02.1.059.1a.865.865,0,0,0,.107.254c-.166,0-.273-.244-.3-.732,0-.078.01-.166.01-.264Zm5.957.156h.068c0,.02,0,.029.01.039h-.068A.059.059,0,0,0-31.589-1.748ZM-33.054-.732a.122.122,0,0,1,.088-.049h.02c0,.01-.039.02-.1.049Zm-.6.332a.076.076,0,0,0,.029-.01h.01V-.4a.036.036,0,0,0-.029.01h-.01Zm-1.631.43.049.029-.01.02L-35.3.068V.059Zm.166.049c.049-.01.078-.02.088-.02h.01c.1.01.146.029.146.049,0,0-.029.01-.068.02a.443.443,0,0,1-.176-.039Zm.156.156a1.8,1.8,0,0,0,.4-.049l.088.059c0,.02-.029.029-.1.039a1.882,1.882,0,0,0-.244-.029h-.146Zm3.168,7.91a.48.48,0,0,0,.166-.039h.1v.01a.3.3,0,0,0,.146-.039,3.744,3.744,0,0,0,.781-.322,7.428,7.428,0,0,0,1.387-1.191c.4-.391.762-.762,1.084-1.123l1.074-1.377a15.267,15.267,0,0,0,.977-1.582A15.064,15.064,0,0,0-25.208.8c.342-.674.645-1.289.889-1.836A15.992,15.992,0,0,0-22.8-5.947a1.021,1.021,0,0,0-.059-.352c-.186-.244-.312-.361-.381-.361-.322.029-.488.059-.488.1a2.026,2.026,0,0,1-.244.332A5.3,5.3,0,0,0-24.7-5.225c-.029.1-.068.146-.088.146-.117.381-.205.566-.273.566a4.451,4.451,0,0,0,.176-.986,1.022,1.022,0,0,0-.4-.83,2.458,2.458,0,0,0-1.191-.439c-.625,0-1.455.615-2.51,1.855A6.949,6.949,0,0,0-30.13-2.9l.01.039a.105.105,0,0,0,.068-.029c0-.078.02-.117.049-.117l.117.01L-30.7-.947h-.01V-1.26h-.02a1.479,1.479,0,0,0-.107.576,2.047,2.047,0,0,0,.107.7c.088.264.41.391.967.391a3.435,3.435,0,0,0,1.875-.684,13.778,13.778,0,0,0,1.8-1.465,11.733,11.733,0,0,0,1.4-1.611c.01,0,.01,0,.01.01a12.027,12.027,0,0,1-.527,1.377c-.176.342-.391.811-.645,1.4a3.407,3.407,0,0,0-.342.8,6.785,6.785,0,0,0-.527,1.2.834.834,0,0,0-.205.322l.02.01a.063.063,0,0,1-.02.049.784.784,0,0,0-.234.391v.068l-.088-.01a1.3,1.3,0,0,0-.068.283c-.068.02-.1.039-.1.049a.8.8,0,0,0,.039.107c0,.02-.039.078-.137.176l.01.059h.02c0-.01.01-.02.02-.039a2.408,2.408,0,0,0,.322-.459c.01-.029.059-.059.137-.107l-.039-.078a.526.526,0,0,1,.127-.205,3.757,3.757,0,0,1,.244-.488c.059-.156.117-.234.186-.234l.1.01-.166.283A9.021,9.021,0,0,1-27.2,2.793a3.348,3.348,0,0,1-.459.771A2.461,2.461,0,0,1-28,4.082,14.07,14.07,0,0,1-29.417,5.82a1.852,1.852,0,0,1-.352.352c-.01.107-.029.156-.039.156h-.166a.262.262,0,0,1,.107-.156,1.215,1.215,0,0,0,.3-.293,6.468,6.468,0,0,0,.82-1.016c.166-.137.244-.244.244-.332a10.593,10.593,0,0,0,.791-1.152.916.916,0,0,0,.205-.342.059.059,0,0,0-.029-.059.421.421,0,0,1-.146.146l-.01-.059h-.01a.852.852,0,0,0-.166.234l.039.039a2.141,2.141,0,0,1-.332.488,1.417,1.417,0,0,1-.1.234c-.176.107-.264.2-.264.283l.01.088a.763.763,0,0,1-.273.3V4.658h-.01a.221.221,0,0,0-.107.176c.029,0,.059,0,.068.01,0,.029-.039.068-.1.117a6.346,6.346,0,0,1-.7.84,4.954,4.954,0,0,1-.508.547,8.563,8.563,0,0,0-.762.615.01.01,0,0,0,.01.01,4.605,4.605,0,0,1,.938-.615,2.317,2.317,0,0,1-.322.342c-.2.117-.3.2-.312.244a2.564,2.564,0,0,0-.283.283h-.039a.189.189,0,0,0-.127-.205l-.088.039a2.5,2.5,0,0,1-1.006.605,1.972,1.972,0,0,0-.488.049.823.823,0,0,1-.283-.342.192.192,0,0,0-.166.088V7.5a.871.871,0,0,0,.215.4,1.413,1.413,0,0,0,.811.244c.039,0,.1-.01.176-.02A.184.184,0,0,0-31.79,8.145Zm2.842-8.672a1.326,1.326,0,0,1-.234-.01.375.375,0,0,1-.312-.4V-.977a1.959,1.959,0,0,1,.127-.615A13.773,13.773,0,0,1-27.3-4.9a4.709,4.709,0,0,1,.957-1,.7.7,0,0,0,.283-.049c.137-.137.225-.205.273-.205.186.068.273.313.273.732a2.608,2.608,0,0,1-.3,1.162,2.062,2.062,0,0,0-.469.967c0,.049.039.078.107.088.078-.01.117-.029.117-.039a.73.73,0,0,0,.234-.088,3.563,3.563,0,0,0,.645-.791,1.814,1.814,0,0,1,.439-.6.871.871,0,0,1-.1.283,4.542,4.542,0,0,0-.586.918l.02.01h.049c.029,0,.068-.039.127-.117.059,0,.107-.049.127-.146,0-.02,0-.029-.02-.029l.01-.029a.6.6,0,0,0,.186-.3c.146-.137.225-.225.225-.254a.366.366,0,0,1,.156-.166c.02,0,.02.01.02.029a.732.732,0,0,1-.156.371,4.482,4.482,0,0,0-.361.557q.015.029.029.029a.1.1,0,0,1-.039.088.942.942,0,0,1-.391.469l-.146.205a1.462,1.462,0,0,0-.352.518l.01.088a.94.94,0,0,0-.205.068.27.27,0,0,1,.01.088c0,.088-.049.127-.137.127a.169.169,0,0,0-.166.156v.01a.335.335,0,0,0,.117-.049h.01l-.029.049-.215.088a1.206,1.206,0,0,0-.41.391.01.01,0,0,1,.01.01l.352-.273h.01c-.02.02-.049.059-.107.127a1.72,1.72,0,0,1-.7.488,1.688,1.688,0,0,1-.43.264c-.02,0-.029-.01-.029-.039,0-.068.166-.225.508-.459.244-.225.381-.342.41-.361a11.138,11.138,0,0,0,1.064-1.221c.3-.361.459-.6.459-.7,0-.01-.01-.02-.029-.02-.068,0-.215.186-.449.547a9.285,9.285,0,0,1-1.152,1.25A4.948,4.948,0,0,1-28.948-.527Zm-.9-2.529-.078-.049a.31.31,0,0,1,.068-.176c.039.02.059.039.059.049l.059-.01a.543.543,0,0,1-.029-.146.284.284,0,0,1,.088-.156q.059,0,.088-.205c.049.01.078.029.078.049v.049a.86.86,0,0,0-.166.352A1.071,1.071,0,0,1-29.847-3.057Zm.215.225h-.01a.609.609,0,0,1,.234-.391c0-.049.02-.078.078-.078q-.146.308-.205.322C-29.554-2.881-29.593-2.832-29.632-2.832Zm-.039.078h-.01l.02-.029h.01Zm-.791.645c.068-.029.1-.059.1-.088l-.01-.088a.383.383,0,0,1,.156-.264.063.063,0,0,1,.049.02c.02,0,.029-.059.039-.166-.01-.049-.02-.068-.039-.068a.5.5,0,0,0-.068.059,1.334,1.334,0,0,0-.234.576Zm.7-.381-.01-.039a.161.161,0,0,1,.078-.146l.02.068Q-29.671-2.549-29.759-2.49Zm-.117.176h-.01c.039-.088.068-.137.107-.137v.059C-29.779-2.334-29.808-2.314-29.876-2.314Zm4.053-.059-.029-.01.029-.029Zm-4.395.713c-.01,0-.02-.02-.029-.049a.167.167,0,0,1,.078-.117c.049-.107.1-.166.127-.166q.073-.264.146-.264l.039.127c-.039,0-.049.039-.049.117h-.059v.029a.927.927,0,0,0-.088.205A.864.864,0,0,0-30.218-1.66Zm-.43-.02c.059,0,.1-.088.127-.254a.529.529,0,0,0,.078-.146c-.029,0-.039.01-.039.02-.049,0-.107.127-.176.371A.01.01,0,0,1-30.648-1.68Zm.566.107c-.029-.01-.049-.029-.049-.039v-.02c.02,0,.029.02.049.049Zm-.615.2c.039-.039.068-.068.068-.107s-.01-.1-.01-.146h-.01a.344.344,0,0,0-.059.225Zm.215,1.016h-.01a1.8,1.8,0,0,1-.088-.459,1.826,1.826,0,0,1,.137-.371c.068-.283.146-.42.225-.42l-.156.752A1.741,1.741,0,0,0-30.482-.361Zm.342-.957h-.02l-.01-.039.029-.078h.01l.01.078C-30.13-1.338-30.14-1.328-30.14-1.318Zm4.727.3-.049-.029.049-.059c.029-.117.049-.176.068-.176A1.708,1.708,0,0,1-25.413-1.016Zm-4.8.889a.133.133,0,0,1-.137-.137V-.469a.921.921,0,0,1,.078-.273c.02-.332.059-.508.127-.508l-.01.029A3.923,3.923,0,0,0-30.218-.127Zm3.105-1c.01,0,.02-.02.039-.049l-.049.029Zm1.563.42h-.029c0-.088.029-.137.078-.137Zm-.312.664a.341.341,0,0,1,.078-.234c.039-.156.088-.234.166-.234l-.059.215c0,.01.01.02.029.02l-.01.02-.068-.01-.02.01a.292.292,0,0,1,.02.146A.171.171,0,0,1-25.862-.039Zm.537,0h-.059a.062.062,0,0,1,.068-.068Zm-1.162,1.318a.812.812,0,0,1,.078-.244l-.02-.029V1a.986.986,0,0,1,.146-.234A1.635,1.635,0,0,1-26.038.3c.059-.205.117-.3.166-.3A.708.708,0,0,1-25.9.244c-.059,0-.088.049-.117.146l.01.039A1.561,1.561,0,0,0-26.155.7c0,.01.01.02.039.029a.653.653,0,0,1-.127.293C-26.3,1.191-26.38,1.279-26.487,1.279Zm.537-.107h-.01l.146-.322.068.02c-.02.049-.039.078-.049.078C-25.843,1.094-25.892,1.172-25.95,1.172Zm-.01-.078h-.059v-.02c0-.029.02-.059.059-.1h.01Zm-.049.3h-.059l.01-.078H-26Zm-.459.82.01-.049c0-.01-.039-.02-.117-.02v-.01a.655.655,0,0,0,.127-.264c.107,0,.166-.039.166-.107q0-.029-.059-.029c0-.088.039-.137.1-.137s.1-.039.1-.107l.059.01a1.114,1.114,0,0,1-.234.43l-.107-.039c-.01.059-.029.127-.049.205l.01.029.059-.01C-26.439,2.188-26.458,2.217-26.468,2.217Zm-.117.215h-.01v-.01c.029-.117.068-.186.117-.186v.01A.878.878,0,0,0-26.585,2.432Zm-.146.068c0-.02.01-.059.02-.127h.059l-.01.1A.17.17,0,0,0-26.732,2.5Zm-.107.264H-26.9c0-.068.049-.137.146-.215v.02A1.339,1.339,0,0,0-26.839,2.764Zm-.469.7h-.01c.029-.127.068-.186.117-.186A.181.181,0,0,1-27.308,3.467Zm-1.533,2.119h-.01c0-.049.029-.1.107-.156a4.081,4.081,0,0,1,.537-.654.981.981,0,0,1,.1-.166,9,9,0,0,1,.566-.781q.117-.264.205-.264a1.166,1.166,0,0,1-.117.313,1.591,1.591,0,0,1-.4.537,4.839,4.839,0,0,0-.342.5,2.262,2.262,0,0,0-.449.527C-28.646,5.5-28.714,5.547-28.841,5.586Zm-.391.42h-.01v-.02l.264-.273c0,.039-.049.107-.137.186C-29.114,5.967-29.154,6.006-29.232,6.006Zm-.752.791h-.01c0-.01.01-.02.029-.02C-29.964,6.8-29.974,6.8-29.984,6.8Zm-2.041,1.172-.088-.02v-.01a.093.093,0,0,0,.068-.02.074.074,0,0,0,.02.039Zm11.4-7.246a2.262,2.262,0,0,0,.293-.029A2.966,2.966,0,0,0-18.964-.02a2.281,2.281,0,0,0,.537-.518h.02V-.5h.01a.178.178,0,0,0,.059-.078l-.088.029a1.7,1.7,0,0,1-.459.322L-18.915-.3a.1.1,0,0,0,.01-.039c.166-.137.449-.41.859-.82a4.718,4.718,0,0,0,.82-1.064,2.837,2.837,0,0,0,.459-1.055l-.02-.117h-.029a4.84,4.84,0,0,1-.361.7l.029.059.049-.01v.01c-.039.068-.068.107-.078.107,0-.02,0-.029-.02-.029a1.19,1.19,0,0,1-.166.156.987.987,0,0,1-.215.469v.02h.02a.26.26,0,0,1-.107.127.152.152,0,0,1-.127.107l.107-.273-.01-.01a.185.185,0,0,0-.166.117,1.269,1.269,0,0,1-.518.566,5.378,5.378,0,0,1-.693.635A2.554,2.554,0,0,1-20.5.068c-.381-.039-.576-.3-.576-.811a7.263,7.263,0,0,1,.254-1.621,2.52,2.52,0,0,1,.537-1.094,40.814,40.814,0,0,0,2.754-5.176c1.26-2.91,1.895-4.932,1.895-6.084a.383.383,0,0,0-.029-.137l-.264-.1c-.2-.215-.342-.312-.439-.312h-.068a1.256,1.256,0,0,0-.791.381,4.194,4.194,0,0,0-.85,1.318c-.713,1.719-1.211,2.959-1.465,3.711q-1.113,3.12-1.113,3.34v.166l-.049-.01a2.244,2.244,0,0,1-.2.713.7.7,0,0,1-.127.41,1.156,1.156,0,0,1-.244.479.156.156,0,0,0,.039.117l-.01.029c-.059.039-.078.215-.078.527-.078.234-.137.479-.205.732a1.184,1.184,0,0,1-.156.186l.078.029a.119.119,0,0,1-.039.088.488.488,0,0,0-.186.254A13.534,13.534,0,0,0-22.089-.83a5.009,5.009,0,0,0,.049.547.97.97,0,0,0,.2.527A1.54,1.54,0,0,0-20.624.723Zm1.436-6.543c.02-.059.508-1.064,1.465-3.027a2.423,2.423,0,0,1,.205-.557,3.414,3.414,0,0,1,.273-.615,2.8,2.8,0,0,1,.254-.576,6.628,6.628,0,0,1,.273-.918,2.233,2.233,0,0,0,.205-.654,12.705,12.705,0,0,0,.371-1.23c.107-.8.2-1.2.254-1.2a.659.659,0,0,1,.029.166,3.851,3.851,0,0,1-.029.391c-.127.654-.186,1.006-.186,1.045a.587.587,0,0,1-.137.381,1.96,1.96,0,0,1-.156.576,5.293,5.293,0,0,1-.322.918,18.117,18.117,0,0,1-.977,2.4c-.156.459-.293.713-.391.762a.073.073,0,0,0,.01.049l-.1.293a.452.452,0,0,1-.176.205,2.646,2.646,0,0,1-.41.85A2.219,2.219,0,0,1-19.188-5.82Zm-.566-.088a1.457,1.457,0,0,1,.059-.254q.82-2.476,1.787-4.912a13.953,13.953,0,0,1,1.338-2.852,3.629,3.629,0,0,1-.137.625,3.525,3.525,0,0,0-.146.752,1.563,1.563,0,0,0-.186.654,2.414,2.414,0,0,1-.332.742,1.369,1.369,0,0,1-.137.508.678.678,0,0,1-.137.391c-.088.264-.146.4-.186.41-.107.313-.225.6-.342.869-.234.459-.42.84-.547,1.123a2.24,2.24,0,0,1-.361.713l-.332.713A1.859,1.859,0,0,1-19.755-5.908Zm2.49-7.588h-.01v-.049c0-.01.02-.029.068-.059v.059C-17.206-13.535-17.225-13.525-17.264-13.5Zm-.264.42-.049-.01a2.43,2.43,0,0,1,.234-.342l.01.049q0,.059-.088.117A.565.565,0,0,1-17.528-13.076Zm-.273.576h-.02a.611.611,0,0,1,.225-.527h.01A2.006,2.006,0,0,1-17.8-12.5Zm1.426-.459h-.01V-13h.01ZM-21.62-2.471a1.437,1.437,0,0,1,.049-.332q.146-.6.615-2.344c.439-1.348.752-2.256.938-2.705a4.912,4.912,0,0,1,.3-.859c.088-.283.234-.713.449-1.27a10.971,10.971,0,0,1,.771-1.738,1.42,1.42,0,0,1-.088.3c-.547,1.436-.879,2.285-.967,2.568a9.539,9.539,0,0,0-.605,1.787c.01,0,.039-.029.088-.078A2.534,2.534,0,0,0-19.8-7.91l-.01-.02.107-.205c.059-.186.127-.273.215-.273,0,.01-.059.244-.2.713a.01.01,0,0,1,.01.01.353.353,0,0,0,.088-.088,1.2,1.2,0,0,1,.117-.391,1,1,0,0,1,.068-.312c0-.02,0-.029-.02-.029l-.068.068-.01-.068.01-.146a3.793,3.793,0,0,1,.264-.654c.02,0,.029.039.039.117a1.693,1.693,0,0,1-.1.381v.02c.029,0,.068-.049.127-.146a3.139,3.139,0,0,1,.127-.469.62.62,0,0,0-.117-.068.259.259,0,0,1,.078-.215.141.141,0,0,1,.059.068l-.088.088V-9.5q.044.059.059.059a1.066,1.066,0,0,0,.205-.5.01.01,0,0,1-.01-.01.3.3,0,0,0-.078.02l.01.039a.079.079,0,0,1-.078.039.208.208,0,0,1,.127-.215c.01,0,.01,0,.01.01a.026.026,0,0,0-.029.029c.01.02.02.029.039.029s.029-.02.029-.059l-.01-.029c.059,0,.078-.068.078-.2,0-.01-.029-.029-.1-.059.01-.029.02-.049.029-.049.078-.215.127-.361.166-.439h.01l.029.186.039-.01a.808.808,0,0,0,.176-.41l-.049.01c-.02,0-.02-.02-.02-.078a.5.5,0,0,1,.205-.41.294.294,0,0,0-.039-.127,1.051,1.051,0,0,0,.166-.137l-.078.332h.02a10.473,10.473,0,0,1,.615-1.27,20.658,20.658,0,0,1-.762,2.012,3.113,3.113,0,0,1-.225.664c-.137.42-.234.7-.293.859a4.538,4.538,0,0,0-.332,1,8.838,8.838,0,0,0-.342.85,7.173,7.173,0,0,1-.352,1.006A6,6,0,0,1-20.8-4.141c.1-.391.146-.6.146-.625-.02,0-.049.029-.078.078a2.6,2.6,0,0,1-.166.527h-.01v-.02h-.01c-.068.117-.117.176-.137.176v-.02h-.01a.471.471,0,0,0-.078.117c.01,0,.01,0,.01.01l.049-.01.01.068a.169.169,0,0,1-.049.049c-.059,0-.127.117-.2.361a.423.423,0,0,1,.01.049.2.2,0,0,1,.068.166h-.01c-.01-.02-.029-.049-.059-.1h-.01C-21.473-2.744-21.571-2.471-21.62-2.471Zm3.516-9.414a.106.106,0,0,1-.039-.049.334.334,0,0,0,.088-.166c.078-.2.146-.293.205-.312a.681.681,0,0,1-.078.2A.765.765,0,0,1-18.1-11.885Zm-.137-.42v-.02a.052.052,0,0,1,.039-.029l.01.029Zm-.205.518h-.01a.762.762,0,0,1,.137-.361l.02.01A1.41,1.41,0,0,1-18.446-11.787Zm.234.01c-.02,0-.02-.01-.029-.02v-.01a.423.423,0,0,0,.049.01A.021.021,0,0,1-18.212-11.777Zm-.352.928h-.01a.065.065,0,0,1-.039-.068.244.244,0,0,1,.049-.107.122.122,0,0,1,.039.107A.123.123,0,0,0-18.563-10.85Zm-.049.41.01-.059h-.01a.052.052,0,0,0-.029.039C-18.641-10.449-18.632-10.439-18.612-10.439Zm-.107.1.029-.02c0-.029-.01-.049-.029-.049s-.029.02-.029.039S-18.729-10.342-18.72-10.342Zm1.143.166h-.02v-.029h.02Zm-.107.244h-.01v-.039h.01Zm-2.061,2.4c.029-.02.049-.039.049-.059l-.01-.02c-.029.029-.049.049-.049.059Zm.313.088V-7.49h.01l.01.029C-19.413-7.451-19.413-7.441-19.432-7.441Zm-.352.078.059-.049a.087.087,0,0,0-.049-.078l-.059.049A.087.087,0,0,0-19.784-7.363ZM-19.93-7c.068,0,.107-.1.127-.3a.021.021,0,0,0-.02-.02h-.01c-.029,0-.068.107-.107.313A.01.01,0,0,1-19.93-7Zm.43-.186v-.039c.01,0,.01,0,.01.02S-19.491-7.187-19.5-7.187Zm-.527.107c.02,0,.029-.01.039-.039H-20c-.02.01-.039.029-.039.039Zm.459.049V-7.08h.01l.01.039Zm-.713.342a.7.7,0,0,0,.127-.352h-.01c-.049,0-.1.117-.137.342ZM-20.624-5c.039,0,.1-.117.186-.361l-.01-.02a.036.036,0,0,1,.01-.029,1.9,1.9,0,0,0,.156-.439,10.091,10.091,0,0,0,.322-1.016h-.01c-.02,0-.068.088-.137.264a5.741,5.741,0,0,1-.312.859.3.3,0,0,0-.1.088c0,.049.02.068.059.068a.843.843,0,0,1-.078.273.324.324,0,0,0-.146-.039.484.484,0,0,0-.1.2c0,.02.02.039.068.049l.078-.01V-5Zm.313-1.533c0-.02.01-.029.029-.049,0-.02-.01-.02-.029-.02s-.02.02-.02.068Zm.127.059-.01-.059h-.01l-.059.039C-20.262-6.475-20.243-6.475-20.184-6.475Zm-.244.264.039-.127h-.01c-.029.029-.049.039-.049.049v.078Zm.1.049.059-.039a.054.054,0,0,0-.039-.059c-.029.02-.039.029-.039.049S-20.341-6.182-20.331-6.162Zm-.234.449A.9.9,0,0,0-20.5-6c-.02-.049-.039-.068-.068-.068a2.505,2.505,0,0,0-.068.332C-20.634-5.723-20.6-5.713-20.565-5.713Zm.146-.166c.029-.02.049-.039.049-.059s-.02-.029-.02-.039h-.02c-.01,0-.029.01-.039.039A.084.084,0,0,0-20.419-5.879Zm.576.146.039-.1h.01v.059C-19.794-5.752-19.813-5.742-19.843-5.732Zm-.6.1v-.049h.01l.01.039Zm-.234.225a.27.27,0,0,0,.049-.156c.01,0,.029.039.049.127a.145.145,0,0,0,.059-.068c-.059-.107-.088-.156-.1-.156l-.02.01c0-.01,0-.01-.01-.01s-.039.068-.068.186l.02.068Zm1.309-.088a.161.161,0,0,1,.078-.146A.153.153,0,0,1-19.364-5.5Zm-1.211.244h-.01v-.039h.02Zm-.01.068h-.039v-.02h.059C-20.565-5.186-20.565-5.186-20.585-5.186Zm-.215.3c.068,0,.107-.059.107-.156,0-.01-.02-.02-.049-.029-.068,0-.1.039-.1.127Zm-.117.127c.01,0,.039-.068.068-.215h-.02c-.049.039-.078.068-.078.117A.318.318,0,0,0-20.917-4.756Zm-.137.605.02-.01-.01-.127L-21-4.531c-.039,0-.078.127-.117.371l.02.01Zm-.674,1.514q-.015,0-.029-.059h.029Zm.557.039c-.01-.01-.02-.01-.049-.01a.6.6,0,0,1,.049-.059Zm-.166.029h-.02v-.049h.01Zm.127.508a.543.543,0,0,1-.127-.107A1.364,1.364,0,0,1-21.2-2.5q.044.015.059.088c0,.078-.01.156-.01.244A.232.232,0,0,1-21.21-2.061Zm-.283-.156h-.059a1.316,1.316,0,0,1,.1-.273.242.242,0,0,1,.068.176C-21.386-2.266-21.425-2.227-21.493-2.217Zm-.166-.02a.021.021,0,0,1-.02-.02V-2.3c.01-.049.029-.078.039-.078l.01.059A.408.408,0,0,1-21.659-2.236Zm.146.225c0-.049.029-.068.078-.068A.07.07,0,0,1-21.512-2.012Zm-.234.3c-.02-.01-.039-.029-.039-.039l.039-.059a.338.338,0,0,0-.029-.117A.156.156,0,0,1-21.747-2c.049.029.068.059.068.088A.532.532,0,0,1-21.747-1.709Zm.371,1.3h-.01c-.039-.215-.059-.322-.059-.332-.029-.225-.039-.342-.059-.342a.105.105,0,0,0-.068.029H-21.6a.886.886,0,0,0,.088-.225q.059,0,.146-.5l-.01-.068c0-.088.059-.127.166-.127.02,0,.02.039.02.127l-.1.742a.605.605,0,0,1-.107.029v.02l.078.156Zm-.107-1.465c0-.02-.01-.029-.02-.029l.02-.059c.01,0,.02.02.039.059Zm.146.117a.021.021,0,0,0,.02-.02c0-.02-.01-.02-.02-.029h-.01v.029Zm-.215.41h-.01c0-.049-.029-.088-.088-.137a.135.135,0,0,0,.088-.049c.01-.146.029-.225.078-.225A1.131,1.131,0,0,1-21.552-1.348Zm3.184.371L-18.407-1a3.121,3.121,0,0,1,.254-.293c.156-.225.264-.342.342-.361a.4.4,0,0,1-.068.117A6.775,6.775,0,0,0-18.368-.977Zm-3.418-.254h-.039l.029-.41.059.156Zm-.078.137v-.049h.01c0,.02,0,.029.01.039Zm.254.166h-.039l.01-.02c.01,0,.02.01.029.01Zm5.834,1.65a2.945,2.945,0,0,0,1.641-.7,6.979,6.979,0,0,0,1.084-.967,4.43,4.43,0,0,0,1.387-2.627c.107-.039.3-.088.576-.156a4.39,4.39,0,0,0,1.143-.4q0-.015-.059-.029a.309.309,0,0,1-.225.088,2.066,2.066,0,0,1-.459.127.184.184,0,0,1-.078-.02q.19-.1.908-.381A.706.706,0,0,0-9.5-4.453q.352-.073.352-.117l-.117-.01-.02.049a.156.156,0,0,1-.078-.029.7.7,0,0,1-.254.078.315.315,0,0,1-.176.059l-.029-.02a1.352,1.352,0,0,1-.3.068.672.672,0,0,1-.127-.02c-.01,0-.02,0-.02.02,0,.078-.117.137-.352.166a1.747,1.747,0,0,1-.469.107.345.345,0,0,1-.137-.029l.01-.029a.166.166,0,0,0,.1-.059l-.01-.01c-.117.01-.332.039-.645.1l-.068-.137a3.184,3.184,0,0,0-.625-.82,2.345,2.345,0,0,0-.9-.576l.02-.039q.264-.22.264-.352a.517.517,0,0,0-.107-.264.723.723,0,0,0-.518-.205h-.068a1.954,1.954,0,0,0-1.191.645,7.894,7.894,0,0,0-.859,1.064,4.727,4.727,0,0,0-.9,1.934.135.135,0,0,0,.049.088.369.369,0,0,1-.107.313l-.02-.234h-.02l-.01.068a5.647,5.647,0,0,0-.322,1.611A1.609,1.609,0,0,0-16.567.342,1.088,1.088,0,0,0-15.776.723Zm-.264-4.746-.039-.01v-.059c0-.01.059-.117.166-.312a3.687,3.687,0,0,1,.635-.957c.186-.264.332-.43.459-.469a.284.284,0,0,0-.049.1c-.088.088-.41.527-.967,1.3A1.881,1.881,0,0,1-16.039-4.023Zm2.295-1.436h-.02v-.029h.01Zm.459,1.5a1.121,1.121,0,0,1-.625-.156c-.176-.039-.264-.2-.264-.479,0-.205.039-.3.107-.3a.062.062,0,0,1,.049.059H-14v-.039a.475.475,0,0,1,.01-.117c-.01,0-.029.01-.059.039-.01,0-.02-.01-.029-.039.068-.186.127-.273.2-.273l.01.068h.01a.291.291,0,0,1,.137-.049c.186,0,.439.166.771.5a1.939,1.939,0,0,1,.488.723A5.739,5.739,0,0,1-13.286-3.955Zm-.635-.215a1.823,1.823,0,0,1-.088-.6h-.02a.766.766,0,0,0-.02.215.777.777,0,0,0,.02.254c.039,0,.078.039.088.127ZM-9-4.619c.107-.01.166-.039.166-.1,0-.01-.029-.029-.078-.039s-.088.049-.1.127Zm-.127-.01c.01,0,.02-.01.02-.029s-.01-.02-.02-.029-.02.01-.02.029S-9.135-4.629-9.125-4.629Zm.078.059A.059.059,0,0,0-8.989-4.6L-9.1-4.629a.021.021,0,0,0-.02.02C-9.106-4.58-9.086-4.57-9.047-4.57Zm-1.67.273.02-.01a.021.021,0,0,0-.02-.02h-.039C-10.746-4.307-10.737-4.3-10.717-4.3Zm-.146.049.029-.01v-.02l-.02-.029c-.029.01-.039.02-.039.049ZM-15.746-.01l-.293-.02a2.991,2.991,0,0,1-.127-.7A3.387,3.387,0,0,1-15.9-1.895,15.044,15.044,0,0,1-15.3-3.428a6.211,6.211,0,0,1,.5-.859,1.335,1.335,0,0,0,.1.264,1.481,1.481,0,0,0,1.475.7,3.622,3.622,0,0,0,.723-.068,2.93,2.93,0,0,1-.576,1.23,6.029,6.029,0,0,0-.439.615.01.01,0,0,1,.01.01l.088-.029a2.5,2.5,0,0,1,.264-.234c.068.01.1.029.1.059q.073,0,.117-.117a5.984,5.984,0,0,0,.752-1.572c0-.02.068-.039.186-.059H-12v.059a5.443,5.443,0,0,1-.391,1.055c-.137.176-.244.332-.342.469-.107.1-.156.176-.156.254-.068.02-.1.039-.1.059l.068.039v.01a.039.039,0,0,0-.02.039l-.029-.01c-.029,0-.039,0-.039.01-.1,0-.156.088-.186.273l-.117-.01a2.071,2.071,0,0,0-.137.205c-.078.039-.107.068-.107.107l.059.088a.381.381,0,0,0-.137-.02c-.225.117-.342.215-.342.293l.029.127a.251.251,0,0,0-.127-.088c-.02,0-.039.059-.068.186-.039-.029-.059-.049-.068-.049h-.117c.234-.264.361-.41.371-.43.107-.078.156-.137.156-.205-.029,0-.078.029-.146.1-.459.43-.791.645-.977.645A3.174,3.174,0,0,1-15.746-.01Zm4.717-4.219v-.01l-.039-.01a.01.01,0,0,1-.01.01C-11.079-4.229-11.059-4.229-11.03-4.229Zm1.152.068.068-.01c0-.01,0-.02-.02-.029l-.059.02Zm-2.324.107h-.01l.01-.029Zm.479.02q.015-.029.029-.029Q-11.708-4.033-11.723-4.033Zm-4.072.674v-.127c0-.01.02-.02.068-.049C-15.727-3.418-15.756-3.359-15.8-3.359Zm-.4.781h-.02a.7.7,0,0,0,.078-.264h.107l-.01.068C-16.059-2.646-16.108-2.578-16.2-2.578Zm-.371,1.123a.151.151,0,0,0-.029-.059,1.776,1.776,0,0,1,.107-.41c.049-.244.088-.371.127-.371a.984.984,0,0,1,.02.186.075.075,0,0,0-.068.078c0,.01.01.039.02.107l-.039.137C-16.43-1.6-16.479-1.494-16.567-1.455Zm.264-.361.01-.1c.029.029.049.039.059.039v.02Zm.02.244a.236.236,0,0,1-.127-.039.572.572,0,0,0,.127-.137Zm2.49.537a.346.346,0,0,0,.156-.059c.283-.234.43-.439.43-.615h-.01l-.137.166a.2.2,0,0,1-.2.166.386.386,0,0,1-.068-.049,1.339,1.339,0,0,0-.186.264Zm-2.549-.41v-.078h.01l.01.049C-16.323-1.455-16.332-1.445-16.342-1.445Zm-.186.908a.479.479,0,0,1-.029-.117c.029-.234.049-.381.049-.42.039-.137.068-.225.068-.244l-.01-.059a.408.408,0,0,1,.088-.029,1.664,1.664,0,0,1-.029.361C-16.42-.7-16.459-.537-16.528-.537Zm-.186.352A.745.745,0,0,1-16.86-.7a2.938,2.938,0,0,1,.078-.6c.107,0,.156.049.156.137s-.029.371-.088.83c.01.068.02.107.039.107C-16.684-.205-16.7-.186-16.713-.186Zm2.686-.176c-.029-.01-.039-.02-.039-.039l.059.01a.036.036,0,0,1,.029-.01v.02C-14-.381-14.008-.371-14.028-.361Zm-.312.215V-.176c0-.049.029-.068.1-.068A.088.088,0,0,1-14.34-.146Zm-2.051.078h-.039l.01-.146h.029Zm9.2-7.158a2.249,2.249,0,0,0-1.5.908,2.957,2.957,0,0,0-.84,1.826,1.638,1.638,0,0,0,.029.283l-.01.127.107.791a7.173,7.173,0,0,1,.176.8l-.029.254a.839.839,0,0,0,.107.342A10.739,10.739,0,0,1-8.906-.7c-.2.205-.449.439-.752.713a13.563,13.563,0,0,0-1.055,1.016c-.625.664-1.035,1.094-1.23,1.279a9.878,9.878,0,0,1-.742.791,4.7,4.7,0,0,0-1.68,2.93,1.41,1.41,0,0,0,.654,1.191,3.544,3.544,0,0,0,1.787.527h.068a4.44,4.44,0,0,0,2.49-.879,5.488,5.488,0,0,0,.889-.752A4.332,4.332,0,0,0-7.275,2.9V2.725A10.666,10.666,0,0,0-7.783-.312a.036.036,0,0,1,.01-.029c.313-.264.713-.576,1.2-.928Q-4.624-2.69-2.949-3.828a.58.58,0,0,0-.01-.107c.029-.039.049-.059.088-.059.068.01.1.02.107.02h.02L-2.7-4.16a1.458,1.458,0,0,1,.273-.225v-.01a.814.814,0,0,0-.234.078,1.224,1.224,0,0,1-.439.322A2.161,2.161,0,0,1-3.7-3.6h-.01c0-.029.049-.078.117-.137v-.01h-.068v-.029c.02,0,.02-.01.02-.01a.5.5,0,0,0,.176-.078.059.059,0,0,1,.059.029c.02,0,.029-.02.029-.049A.286.286,0,0,0-3.3-4.072q.176-.088.176-.146a3.5,3.5,0,0,1,.518-.41v-.02c-.049,0-.137.059-.283.166l-.537.332c-.137.02-.225.039-.264.049-.41.273-.908.6-1.484.977A29.563,29.563,0,0,1-8.154-1.338a5.727,5.727,0,0,1-.371-1.934,2.9,2.9,0,0,1,1.1-2.441.355.355,0,0,1,.029.107v.01a.322.322,0,0,0-.068.127c.01,0,.01,0,.01.01a.384.384,0,0,0,.059-.02c.068-.02.215-.283.43-.791a5.526,5.526,0,0,1,.078-.713C-6.885-7.148-6.982-7.227-7.187-7.227ZM-9.014-4.834c.01,0,.02,0,.02.02v.02c0,.02-.01.02-.02.02Zm-.146.42c.01-.049.02-.078.029-.078a.987.987,0,0,1,.068-.215.021.021,0,0,1,.02.02v.039c-.049.3-.088.449-.127.449a.165.165,0,0,1,.02-.049A1.359,1.359,0,0,0-9.16-4.414Zm6.055.02c-.01,0-.01,0-.01.02l.01.02c.01,0,.01-.01.01-.02Zm.205.1-.068.039a.021.021,0,0,0,.02.02h.01c.01,0,.02-.02.049-.039Zm-6.572.078c.01,0,.029.01.068.02l-.01.049A.145.145,0,0,1-9.473-4.219Zm6.924.068c-.049.02-.068.029-.068.039s0,.02.02.02c.029-.02.049-.039.049-.049Zm-.664.078-.059.02v.029h.02c.02-.01.039-.029.039-.039Zm-.312.156a.321.321,0,0,0,.146-.1V-4a.271.271,0,0,1-.146.127ZM-9.062-3.7c.01-.068.029-.1.049-.1a2.3,2.3,0,0,0,.049.4,4.033,4.033,0,0,1,.127.635,2.974,2.974,0,0,1,.254.811l-.01.117a.21.21,0,0,0,.117.205c.01.029.029.176.068.42v.02a.185.185,0,0,1-.127.166l-.039-.029c0-.088-.039-.137-.117-.137-.01.01-.029.01-.059.01,0,.049-.02.078-.078.107-.02-.029-.039-.049-.039-.078v-.02c.01-.02.068-.049.186-.088-.068-.176-.107-.264-.127-.264h-.01a.13.13,0,0,0-.068.029c-.039-.02-.059-.029-.059-.039A.616.616,0,0,0-8.8-1.855q.088-.059.088-.088a.983.983,0,0,0-.117-.4c0-.059-.039-.1-.127-.1h-.029a.021.021,0,0,0-.02.02v.127a.479.479,0,0,0,.01.107,1.7,1.7,0,0,1,.127.313h-.01c-.137,0-.225-.107-.264-.342a1,1,0,0,1,.029-.107v-.01a.213.213,0,0,0-.039-.1c.205-.059.3-.127.3-.205s-.029-.117-.049-.117a1.17,1.17,0,0,1-.078-.273c-.039-.01-.049-.049-.049-.127v-.215A1.274,1.274,0,0,0-9.062-3.7Zm5.166.029h.029q.117,0,.117.088c0,.1.02.137.068.137a3.586,3.586,0,0,1-.742.479h-.01v-.01a4.62,4.62,0,0,0,.527-.449v-.02h-.01a2.458,2.458,0,0,1-.361.2.439.439,0,0,1,.02-.078c.137-.078.2-.137.2-.2v-.059a.094.094,0,0,1,.088.059A.141.141,0,0,0-3.9-3.652Zm.449.02h.029c0,.02-.01.02-.02.02h-.02v-.01ZM-9.2-2.9h.02c.01,0,.02.039.039.107,0,.02-.02.039-.049.049v-.039Zm3.115.479h.01l-.029.039A9.328,9.328,0,0,1-7.6-1.162c-.117.137-.215.205-.273.205H-7.91c-.02-.01-.029-.029-.029-.078v-.01a.787.787,0,0,1,.088-.186c-.02-.01-.02-.02-.02-.029V-1.3c0-.029.01-.049.039-.049a1.7,1.7,0,0,1,.176.01c.059-.02.078-.039.078-.059a.23.23,0,0,1,.205-.117v-.01c0-.01-.02-.029-.068-.049l.01-.049h.049C-6.562-2.119-6.133-2.383-6.084-2.422ZM-7.139-1.084a.111.111,0,0,1,.088-.1c.049.01.068.02.068.039v.01a.177.177,0,0,1-.156.078Zm-.361.039a.021.021,0,0,1,.02-.02l.049.01v.01a.036.036,0,0,0-.029.01Zm.215.088c0-.01,0-.02.02-.02a.021.021,0,0,1,.02.02v.01q-.015.029-.029.029h-.01Zm.059-.01h.02v.01h-.02Zm-.234.039c.059.01.088.029.088.078v.01a.366.366,0,0,1-.1-.059v-.01Zm-.947.283c.01-.049.02-.078.039-.078s.029.029.049.088c0,.01-.01.049-.02.107C-8.369-.527-8.389-.566-8.408-.645ZM-13.1,4.375a2.987,2.987,0,0,1,.605-.908,8.227,8.227,0,0,0,.7-.85,1.868,1.868,0,0,0,.332-.439,2,2,0,0,1,.469-.488,5.1,5.1,0,0,0,.547-.625A4.64,4.64,0,0,1-9.893.557c.518-.625.85-.937,1.006-.937.068.01.1.039.1.1v.039a.146.146,0,0,1-.02.1.742.742,0,0,1-.234.391c-.078,0-.352.273-.84.83-.127.049-.186.088-.186.107a1.867,1.867,0,0,1-.547.5c-.078,0-.156.1-.234.3l-.381.449-.762.83A8.826,8.826,0,0,1-13.1,4.375ZM-8.232.1a1.461,1.461,0,0,1,.176.283v.01a.716.716,0,0,1-.117.088.391.391,0,0,1,.068.137V.664a.036.036,0,0,0-.029.01L-8.1.957v.02l-.01.117a.7.7,0,0,0-.137-.059.118.118,0,0,1-.059.088h-.02a.311.311,0,0,1-.1-.146l-.049.039H-8.5V.947A.2.2,0,0,1-8.311.83h.039l.01.049v.01l-.029.039V.967c.01.01.02.02.029.02h.078l.02-.01a.188.188,0,0,0-.029-.1A1.924,1.924,0,0,0-8.3.264H-8.33c-.049.127-.117.2-.225.2V.449L-8.545.4A.235.235,0,0,0-8.4.342.832.832,0,0,1-8.232.1Zm-.156.371h.068A.036.036,0,0,0-8.311.5v.02l-.02-.01h-.01a.792.792,0,0,0,.049.137v.01c-.088,0-.127-.029-.127-.088V.557A.408.408,0,0,1-8.389.469Zm-.918.342c.176-.205.322-.3.43-.3h.039A.132.132,0,0,1-8.721.6l.1.664c-.01.088-.02.156-.02.215a.95.95,0,0,0,.059.146c-.029.5-.039.781-.039.859,0,.039.01.117.02.234a.734.734,0,0,1-.068.273,4.617,4.617,0,0,1-.176.947,4.224,4.224,0,0,1-.342.83A5.717,5.717,0,0,1-10.947,6.68a4.253,4.253,0,0,1-1.484.459h-.029l-.02.01a.01.01,0,0,0-.01-.01h-.049c-.039,0-.088-.01-.127-.01a.542.542,0,0,1-.449-.605V6.5a4.53,4.53,0,0,1,.811-2.09c.5-.625.977-1.182,1.436-1.689A9.986,9.986,0,0,0-10,1.768c.186-.156.283-.254.283-.293v-.01A.45.45,0,0,1-9.844,1.3l.273-.234a.17.17,0,0,1,.059.107.224.224,0,0,0-.146.2l.01.02c.039,0,.137-.088.273-.273q-.015-.029-.029-.029h-.029l-.02.01-.02-.039v-.01h.039c.146,0,.234-.039.273-.127C-8.984.791-8.9.7-8.9.664A.059.059,0,0,0-8.926.605l-.049.01C-9.1.762-9.18.83-9.219.83h-.02Zm-.2.107L-9.443.9l.02.01c0,.049-.01.068-.039.068L-9.5.928Zm1.016.137.068.01h.02c0,.01-.02.068-.059.2.02.078.039.117.068.117h.01c.02,0,.049-.059.078-.186h.01a.9.9,0,0,1,.059.322v.02l-.01.059-.049-.039c-.117-.029-.176-.078-.176-.127a.384.384,0,0,0,.02-.059l-.088-.088.059-.078v-.02a.139.139,0,0,0-.02-.059Zm.283.2c.049-.049.078-.078.088-.078A.573.573,0,0,1-8,1.377c-.049.2-.078.293-.078.313a.643.643,0,0,0,.088.254A1.325,1.325,0,0,1-8,2.119c.01.137.01.225.01.273a.294.294,0,0,1-.039.127c-.01,0-.02-.02-.049-.049-.029-.166-.049-.254-.068-.254h-.01a.2.2,0,0,1-.02.078,1.968,1.968,0,0,1,.01.225v.02c0,.049-.059.088-.176.107.01.068.02.107.02.127h.02V2.734a.117.117,0,0,1,.039-.078c.039,0,.059.078.068.244v.107a.925.925,0,0,1-.039.293.613.613,0,0,1-.127-.244.229.229,0,0,0,.068-.127V2.92c-.137-.068-.215-.117-.215-.156a.359.359,0,0,1,.156-.234.363.363,0,0,0,.088-.283q0-.059-.029-.059h-.068c-.02,0-.02.01-.02.02v.059h-.01q-.029,0-.029-.059l.01-.02c.107-.02.156-.039.156-.059V2l.039.029c0,.078.029.107.088.107.02,0,.029-.029.039-.107,0-.02-.02-.166-.049-.43a.2.2,0,0,1,.029-.107c-.059-.137-.1-.205-.1-.215Zm-1.7.137c.039,0,.078.029.107.088v.01h-.02q-.059,0-.088-.088Zm-.3.332c.01-.049.029-.078.039-.078h.068c0,.059-.039.078-.1.078Zm1.758-.01h.01c.049.039.078.078.078.1l-.02.059a.094.094,0,0,1-.1-.068A.408.408,0,0,1-8.447,1.709Zm-1.963.283c0-.039.029-.078.1-.117v.01c-.049.068-.078.107-.088.107ZM-8.3,3.379a.3.3,0,0,1,.078.02l-.01.068v.146c-.01.029-.029.049-.039.049h-.01a.766.766,0,0,1-.02-.137Zm-1.67,2.8H-9.9l-.039.049C-9.951,6.23-9.961,6.221-9.971,6.182ZM-11.318,7a.545.545,0,0,1,.361-.176h.01v.02c0,.068-.127.117-.371.166ZM15.673-15.645a5.245,5.245,0,0,1,.146,1.035.954.954,0,0,1-.1.5.4.4,0,0,1,.068.117v.186a.177.177,0,0,0,.156.078h.01a.026.026,0,0,0,.029-.029v-.322A.021.021,0,0,1,16-14.1c.049,0,.1.127.137.391a.4.4,0,0,1-.039.156h-.01c0-.049-.039-.078-.107-.088h-.039c-.029,0-.039.039-.039.137v.02a4.714,4.714,0,0,0,.068.625v.186a.221.221,0,0,0,.107.176.837.837,0,0,0-.029.166v.234c0,.039.01.127.029.273a.645.645,0,0,1-.01.137l.01.068a8.9,8.9,0,0,0-.059,1.094v.059q0,.088-.029.088c-.039.449-.1.908-.186,1.377-.01,0-.02-.02-.039-.059a7.724,7.724,0,0,0,.078-.869v-.088l-.059-.068-.039.029a4.7,4.7,0,0,1-.166.625c-.059.557-.107.879-.117.957a10.972,10.972,0,0,1-.342,1.357c0,.088-.469,1.24-1.416,3.467a.155.155,0,0,1-.127.156,2.121,2.121,0,0,0-.244.469v.02a.192.192,0,0,1,.039.078v.02c-.078-.01-.117-.02-.127-.02s-.068.078-.137.215a3.578,3.578,0,0,1-.361.654.809.809,0,0,0-.215.352.171.171,0,0,0,.01.049l-.137.146c-.049.156-.088.234-.127.234l-.664.84c-.215.342-.352.518-.42.518h-.039c-.02,0-.049-.029-.1-.1a4.523,4.523,0,0,1-.312-1.016,41.176,41.176,0,0,1-.42-6v-.283c.059-1.484.088-2.266.088-2.334,0-.146-.01-.42-.02-.83q-.176-2.285-.5-2.285c0-.078-.2-.127-.566-.156a.352.352,0,0,0-.215.068q-.1,0-.234.557c-.156.381-.312.8-.459,1.26q-.337.85-.967,2.607c-.186.459-.312.8-.391,1.035C6.513-5.9,6.151-4.9,5.985-4.385a14.575,14.575,0,0,0-.693,1.855c-.1.2-.234.537-.42,1.035a1.028,1.028,0,0,1-.215.547C4.628-.9,4.393-.371,3.964.635a10.263,10.263,0,0,0-.469,1.1,4.548,4.548,0,0,0-.234.664c0,.137.1.215.293.244a1.245,1.245,0,0,0,.3.176,1.691,1.691,0,0,0,.293-.039.132.132,0,0,0,.1.049c.186-.127.273-.234.273-.3a2.1,2.1,0,0,0,.459-.781V1.709c0-.039-.039-.1-.127-.176v-.01q.059-.19,2.9-7.49c.693-1.9,1.113-3.066,1.23-3.477h.01l.088.928c0,.01.01.02.02.039a1.808,1.808,0,0,0-.049.449v2.861c.02.156.078.234.186.234a.366.366,0,0,0,.068-.117.6.6,0,0,1-.02-.176.161.161,0,0,1,.02-.1.166.166,0,0,1,.127.039c0,.059-.01.137-.01.234l.068.322H9.52c.01,0,.02-.029.029-.068a1.009,1.009,0,0,0-.01-.137c0-.039.01-.117.01-.234L9.52-5.371c.01-.078.039-.117.1-.117q.029.205.059.205h.01v-.039a.742.742,0,0,1,.039-.264c.1-.127.176-.2.234-.2h.029c.01,0,.029.029.039.078q.029.747.029.938v.01a1.519,1.519,0,0,1-.01.2,1.542,1.542,0,0,1,.049.283v.137a4.074,4.074,0,0,0,.2,1.162.114.114,0,0,0-.068.02,2.1,2.1,0,0,1,.039.381c.059.381.1.6.1.625v.225c0,.068.049.127.146.166a.074.074,0,0,1-.01.039,1.079,1.079,0,0,0,.01.156c-.01.127-.01.215-.01.264a2.4,2.4,0,0,0,.137.586V-.5h-.02c-.039-.107-.068-.166-.088-.166h-.02v.049a.388.388,0,0,0,.186.361,1.071,1.071,0,0,1,.137.508V.3c0,.2-.059.293-.166.293a.436.436,0,0,1-.254-.156,2.467,2.467,0,0,1-.352-.82l.02-.02c-.02-.1-.039-.146-.049-.146-.049-.322-.1-.479-.156-.479-.029,0-.049.049-.059.137v.137a3.114,3.114,0,0,0,.088.41.089.089,0,0,1-.029.049c-.01,0-.02-.02-.029-.049l.02-.01a.238.238,0,0,0-.1-.137C9.725-.693,9.686-.8,9.657-.8c.02-.088.029-.127.029-.137l-.068-.225a2.393,2.393,0,0,0-.166-.811c0-.078-.01-.293-.029-.615a.3.3,0,0,1,.02-.107.24.24,0,0,0-.049-.146V-2.9a.5.5,0,0,0-.039-.244c0-.42-.039-.625-.107-.625H9.208l-.029.02a2.993,2.993,0,0,0,.078.85,8.48,8.48,0,0,0,.234,1.523A3.284,3.284,0,0,0,9.735-.264c.283.9.732,1.357,1.348,1.357A2.8,2.8,0,0,0,13.114-.264,19.887,19.887,0,0,0,14.677-2.93a21.737,21.737,0,0,0,1.3-3.33,16.567,16.567,0,0,0,.576-2.832v-.176a2.394,2.394,0,0,0,.088-.479v-.107a.272.272,0,0,0-.127-.264H16.5q-.176.19-.176.264c0,.02.01.068.02.137a.632.632,0,0,1-.029.1.237.237,0,0,0,.039.107L16.18-8.9l.029.156a2.5,2.5,0,0,1-.107.41c-.137.781-.273,1.162-.42,1.162h-.01a12.17,12.17,0,0,0,.313-1.455,2.548,2.548,0,0,1,.244-.811c-.02-.117-.049-.186-.068-.186a.489.489,0,0,0,.1-.215v-.234c0-.02.01-.117.029-.3v-.039h-.02c-.02,0-.059.059-.137.156a.794.794,0,0,1-.039-.166v-.039a3.2,3.2,0,0,0,.2-.742v-.02a.273.273,0,0,0-.02-.107.7.7,0,0,1,.059-.137c.02,0,.029.02.039.068.088,0,.137-.049.137-.146v-.127c0-.078,0-.186-.01-.3a.336.336,0,0,0,.01-.088c-.02-.146-.049-.225-.078-.225a.866.866,0,0,0-.146.176.619.619,0,0,0-.039-.186c.01-.078.02-.117.02-.127l-.02-.078a1.366,1.366,0,0,1-.078-.566c0-.1.02-.146.049-.146h.01c0,.186.029.283.068.283h.039c.039,0,.068-.059.078-.186V-13.2a.389.389,0,0,0-.088-.205.535.535,0,0,0,.078-.166.209.209,0,0,0-.039-.117c-.039-.234-.068-.352-.117-.352a3.22,3.22,0,0,0-.146-.84,1.493,1.493,0,0,0-.41-.762Zm.723,2.764c-.029,0-.059.059-.088.166v.039a.213.213,0,0,0,.039.1.884.884,0,0,0,.078-.254Zm-.107.84a.276.276,0,0,1,.078.225,2.044,2.044,0,0,0-.01.234v.029a.117.117,0,0,0-.078-.039l.039-.127a.672.672,0,0,0-.059-.205A1.013,1.013,0,0,1,16.288-12.041Zm-6.426.156h.01l.02.059v.313a.364.364,0,0,0-.137.049h-.02C9.823-11.729,9.862-11.875,9.862-11.885Zm6.68.43-.078.059a.1.1,0,0,0,.068.049c.02-.01.029-.02.049-.02v-.039Zm-.117.391a.3.3,0,0,1-.059.117c.01.02.029.039.039.039a.248.248,0,0,0,.088-.127c0-.02-.01-.02-.029-.029Zm-6.562.1h.01c.049,0,.068.078.068.225v.205l-.02.078a.021.021,0,0,1,.02.02c-.01.059-.029.1-.049.1a1.013,1.013,0,0,1-.029-.225V-10.6l.01-.059q-.059-.044-.059-.059v-.01c.039-.059.059-.078.078-.078A1.162,1.162,0,0,0,9.862-10.967Zm6.68.156c-.127.029-.186.088-.186.156v.029c0,.02.039.039.1.068,0,.029-.01.049-.01.088v.127a.2.2,0,0,0-.049.068.105.105,0,0,0,.068.029h.127c.01,0,.029-.029.049-.078a.048.048,0,0,1-.01-.029l.029-.361a.1.1,0,0,0-.059-.1Zm-6.719.625c.088.039.127.088.127.137a1.864,1.864,0,0,1-.029.273c0,.029.029.176.068.449a.869.869,0,0,1-.029.186c0,.1.01.313.029.625-.01.254-.02.459-.02.605,0,.439.01.908.029,1.4q-.015.557-.059.557h-.02c0-.02,0-.039-.01-.039a5.071,5.071,0,0,0-.2-1.143.567.567,0,0,1,.01-.1,1.722,1.722,0,0,0-.02-.186H9.667a2.789,2.789,0,0,0-.039.43c.01.42.01.781.01,1.1,0,.1-.01.205-.02.3-.049,0-.068-.117-.078-.371v-.117q0-.22.029-1.143a1.1,1.1,0,0,0-.029-.234c.02-.068.049-.1.088-.1,0,.01,0,.01.01.01h.049c.039,0,.068-.078.078-.244a.212.212,0,0,0-.049-.137.1.1,0,0,0-.1.059v.137H9.6a.408.408,0,0,0-.029-.088c.02-.088.029-.127.029-.137a.472.472,0,0,0-.02-.117c0-.039.01-.068.039-.078,0,0,.039.059.107.186l.029-.01c-.01-.059-.02-.1-.02-.1,0-.059.01-.137.02-.254-.02-.02-.029-.029-.039-.029s-.029.02-.049.059c-.02,0-.029-.029-.039-.078v-.02l.146-.137V-8.6l-.049-.049a1.028,1.028,0,0,0,.1-.088,1.018,1.018,0,0,1-.049-.166V-9c0-.146.01-.332.01-.547.059-.137.1-.2.117-.2A.156.156,0,0,0,9.784-9.9C9.784-10.088,9.8-10.186,9.823-10.186Zm5.947,1.24h.02v.02h-.02Zm-6.152.068c.029,0,.049,0,.059-.01l.01.088v.01H9.638Zm6.055.313c.029-.049.049-.068.059-.068v.01c-.02.039-.029.059-.049.059ZM7.909-8.1h.049v.039H7.909Zm1.445.049h.039v.02l-.01.02c-.02,0-.029-.01-.029-.02Zm-1.533.254c.029-.068.049-.107.088-.117v.127C7.9-7.793,7.87-7.793,7.821-7.793ZM3.593,2.2c0-.078.264-.713.781-1.934.352-.889.586-1.455.713-1.68L5.848-3.35c.439-1.23.713-1.943.8-2.139a11.5,11.5,0,0,1,.6-1.543,2.472,2.472,0,0,1,.322-.83.074.074,0,0,0,.01.039,2.443,2.443,0,0,0-.146.508,9.853,9.853,0,0,1-.537,1.523c-.361,1.064-.605,1.719-.723,1.953-.225.625-.459,1.24-.732,1.855-.186.527-.361,1-.537,1.406A4.651,4.651,0,0,0,4.481.508L4.5.537A.291.291,0,0,0,4.638.488a1.879,1.879,0,0,1,.156-.42l.1-.3A8.1,8.1,0,0,0,5.4-1.289v-.02L5.389-1.4l.254-.312c.068,0,.127-.107.176-.312L5.78-2.148c0-.01.01-.02.02-.039l.068.02c.039,0,.078-.107.117-.312a.605.605,0,0,1-.029-.107v-.02c0-.029.068-.1.215-.205,0-.039-.039-.059-.107-.059A.175.175,0,0,1,6.1-2.959c.01,0,.01,0,.01.01.02,0,.039-.029.059-.078a.14.14,0,0,1-.02-.029A1.055,1.055,0,0,1,6.2-3.3a.912.912,0,0,0,.088-.166H6.3c.01.068.02.107.02.117v.02h.02c0-.01.01-.039.02-.078A2.286,2.286,0,0,0,6.6-4.092v-.049L6.591-4.2l.059.01h.01a.86.86,0,0,0,.117-.205h.01v.01a1.188,1.188,0,0,1-.176.518c-.186.537-.332.908-.43,1.113Q5.931-1.992,5.8-1.7A18.971,18.971,0,0,1,5.057.068c-.2.488-.322.8-.391.928a3.3,3.3,0,0,1-.332.723h-.01v-.01a2.39,2.39,0,0,1,.137-.439h-.01c-.049.02-.117.166-.215.449a1.166,1.166,0,0,1-.2.439c-.02,0-.039-.039-.068-.117a.5.5,0,0,0,.02-.107h-.02l-.029.029c-.146.234-.244.371-.283.43A.5.5,0,0,1,3.593,2.2Zm5.723-9.59h.02a.348.348,0,0,1,.117.156,1.115,1.115,0,0,0-.107.166c-.059-.01-.088-.02-.1-.02A1.805,1.805,0,0,0,9.315-7.393Zm6.221.742c0-.039.039-.107.127-.215.029-.156.068-.234.107-.234h.02a.71.71,0,0,0-.107.244.17.17,0,0,1,.029.068.4.4,0,0,1-.146.176c-.02,0-.029-.01-.029-.02ZM9.208-6.982l.107-.049h.02c0,.1.01.166.01.215v.3A2.051,2.051,0,0,1,9.2-5.488a.364.364,0,0,0-.02-.117l.039-1.25A.6.6,0,0,1,9.208-6.982Zm-1.641.029A.072.072,0,0,1,7.6-7l.039.02a1.717,1.717,0,0,1-.137.352H7.46c-.01,0-.02-.029-.049-.068v-.01l.166-.2v-.029ZM7.7-6.9c0-.029,0-.039.02-.039l-.01.078H7.7Zm-.342.254h.02v.029h-.02Zm-.029.156h.059a.273.273,0,0,1,.02.107v.039a.1.1,0,0,1-.068.1v-.039C7.343-6.328,7.333-6.406,7.333-6.494Zm-.059.586.078-.068a1.366,1.366,0,0,1,.127-.352h.01a.225.225,0,0,0,.029.088q-.117.249-.322.85c-.186.6-.312.918-.4.957v-.078a1.888,1.888,0,0,0,.127-.371c-.01,0-.02,0-.02-.01a1.03,1.03,0,0,0-.127.078h-.02a.073.073,0,0,0-.01-.049c.039-.205.1-.3.146-.3H6.9l.068.02C7-5.176,7.02-5.2,7.02-5.205v-.01a.571.571,0,0,1-.137-.02c0-.01,0-.02.01-.02l.127-.293-.01-.078v-.107l.01-.078c.059-.156.127-.244.2-.264C7.225-5.967,7.245-5.908,7.274-5.908Zm2.48.723c-.02,0-.039.02-.049.059A1.006,1.006,0,0,0,9.716-5v.01h.039c.02-.01.029-.029.029-.078v-.049C9.784-5.156,9.774-5.176,9.755-5.186Zm-.518.293c-.049.02-.068.059-.068.127v.107a1.553,1.553,0,0,0,.137.752c.02,0,.049-.059.078-.2-.02,0-.039-.039-.068-.107l.039-.068v-.01c-.02-.117-.029-.176-.049-.176C9.3-4.746,9.266-4.893,9.237-4.893Zm.527.039-.049.039a1.087,1.087,0,0,1,.039.225v.02a.026.026,0,0,1-.029.029c.01.049.02.078.039.078l.059-.049a.347.347,0,0,0-.02-.1c0-.01,0-.068.01-.166l-.029-.078Zm-3.1.283h.039l.029.01-.01.068H6.7A.13.13,0,0,0,6.669-4.57Zm2.881.01-.02.039c.02.029.039.049.049.049s.02-.01.02-.02v-.029C9.6-4.531,9.589-4.541,9.55-4.561Zm.225.166a.248.248,0,0,0-.02.068V-4.2c.01.1.049.146.137.146a.079.079,0,0,0,.059-.088v-.01c0-.02-.029-.039-.1-.049v-.156C9.852-4.375,9.823-4.385,9.774-4.395Zm-.186.186c-.01,0-.029.02-.049.059v.039c.01.02.029.039.039.039s.02-.01.02-.029v-.088Zm4.629.146c.01-.029.02-.039.039-.039h.02v.029a.021.021,0,0,1-.02.02h-.039ZM6.405-3.74h.01v.02h-.01Zm3.135.176a.01.01,0,0,1-.01.01c.02.156.049.234.1.234a.332.332,0,0,1-.078.1v.029l.02.02a.322.322,0,0,0,.117-.1v-.107A.271.271,0,0,1,9.735-3.5.456.456,0,0,0,9.54-3.564Zm4.687.166h.01c.02,0,.039.029.049.088q0,.015-.029.029c0-.02-.02-.029-.039-.029v-.02Zm-.42.088c.01.01.039.01.078.01a4.43,4.43,0,0,1-.5.9h-.039A8.546,8.546,0,0,1,13.807-3.311Zm-4.15.176c-.039,0-.059.059-.068.186v.02c0,.088.02.264.049.547v.01c-.01,0-.02.01-.039.02l.088.205-.01.068a.38.38,0,0,0,.088.107h.02c0-.049.01-.117.02-.215l-.049-.342v-.029a1.129,1.129,0,0,1,.01-.166.694.694,0,0,1-.059-.186,1.3,1.3,0,0,1,.01-.166Q9.672-3.135,9.657-3.135Zm3.75.1c0-.01.01-.02.029-.02h.01l-.02.078h-.02Zm.742.059h.039l.029.02a.083.083,0,0,0-.02.059C14.188-2.9,14.169-2.93,14.149-2.979Zm-.117.078h.01v.01A.466.466,0,0,1,14-2.773l-.059-.02c-.078,0-.117.039-.117.1v.078a.3.3,0,0,0,.107-.049.168.168,0,0,0,.049.146v.01a.487.487,0,0,1-.205-.107c-.029.049-.059.078-.068.078v-.029a2.006,2.006,0,0,1,.107-.322h.029a.775.775,0,0,1,.146.049C14.013-2.842,14.022-2.861,14.032-2.9Zm-4.141.186v.1c0,.049.01.078.049.088h.049l.02-.01c-.059-.107-.1-.166-.1-.176ZM13.8-2.48c.01,0,.029.039.059.107v.02a.145.145,0,0,1-.059-.068Zm-7.949.127h.01v.029h-.01Zm7.832,0h.1a.1.1,0,0,1-.1.059ZM12.46-1.025a.154.154,0,0,1,.078-.117c.039-.146.078-.215.1-.215a.985.985,0,0,0,.293-.527.931.931,0,0,0,.166-.146c.02-.205.088-.3.2-.3h.01c-.02.107-.039.156-.059.166a2.633,2.633,0,0,1-.459.723,2,2,0,0,1-.312.42Zm-2.3-1.006-.068.068c0,.029.039.078.107.166.02,0,.029-.02.039-.049-.01-.127-.029-.186-.049-.186Zm-.127.059c-.02,0-.029.01-.029.02v.02c0,.01.01.02.029.02a.021.021,0,0,0,.02-.02v-.02A.021.021,0,0,0,10.028-1.973Zm-.244.039c-.02,0-.039.039-.049.107,0,.029.029.137.068.322a.156.156,0,0,1-.029.078.243.243,0,0,0,.068.049.131.131,0,0,0,.068-.078.694.694,0,0,1-.068-.273v-.166c-.02-.029-.029-.039-.039-.039Zm.459.244-.02.01c0,.107.02.166.049.166l.02-.01-.02-.166Zm2.822.283a.7.7,0,0,0,.176-.107h.01v.049c0,.02-.01.02-.039.02v.029a.57.57,0,0,1,.078.1l-.068-.01h-.049c-.039,0-.059.049-.059.156l-.049-.02c-.039.078-.068.137-.107.156h-.02a.775.775,0,0,0,.137-.234.438.438,0,0,1-.01-.107ZM4.989-1.5h.02v.01a1.162,1.162,0,0,1-.039.137H4.94A.387.387,0,0,0,4.989-1.5Zm-.244.566h.01v.068c0,.01-.02.02-.059.049A.415.415,0,0,1,4.745-.937ZM12.03-.5h.088v.01c-.059.078-.088.127-.107.127V-.439Zm-1.4.01h.01v.02h-.01Zm1.3.146.02.01.029-.01a.307.307,0,0,1-.166.244h-.01A1.459,1.459,0,0,1,11.932-.342Zm.537,0h.049a.384.384,0,0,0-.02.059H12.46ZM4.364-.078C4.4-.234,4.452-.3,4.5-.3A.238.238,0,0,1,4.364-.078Zm-.771,1.4-.01.059h.039V1.318Zm.586.752c0-.166.039-.244.117-.244C4.3,1.973,4.257,2.051,4.179,2.07Zm-.234.176c0-.049.01-.068.029-.078h.068c0,.01-.029.039-.088.078ZM28.568-15.107a2.21,2.21,0,0,0-.508.068,4.931,4.931,0,0,0-1.934.723,5.34,5.34,0,0,1-.83.322c-.625.244-.957.361-.977.361h-.049l-.029-.01a.719.719,0,0,0-.693-.371H23.48a.788.788,0,0,0-.312.068,5.963,5.963,0,0,0-.576.811q-.044.176-.41.352c-.166.02-.254.039-.254.078-.42.146-.713.254-.859.322a8.842,8.842,0,0,0-.928.361c-.283.234-.42.381-.42.439a.925.925,0,0,0,.146.264,1.453,1.453,0,0,1,.273.107c.918-.225,1.406-.332,1.465-.332,0,.01.01.01.02.01,0,.039-.01.068-.029.068-.283.664-.674,1.475-1.162,2.432a7.434,7.434,0,0,1-.781,1.445q-.146,0-.234.645-.293.278-.293.41a5.1,5.1,0,0,0-.42.713,4.084,4.084,0,0,1-.234.918c0,.068-.088.137-.264.2a4.522,4.522,0,0,1-.645.42c-.186.166-.283.313-.283.43v.068c0,.137.107.215.313.234A4.386,4.386,0,0,0,18.05-3.6h.01v.039c-.107.039-.156.088-.156.137,0,.068.029.107.1.107h.068c.1-.293.176-.43.254-.43a.269.269,0,0,1,.146.078c.02.107.039.156.059.156h.01a.394.394,0,0,1,.156-.215h.02c.02,0,.029.02.039.059,0,.01,0,.02-.01.02a1.152,1.152,0,0,1-.186.332,3.475,3.475,0,0,1-.215.5l.02.049c-.029.049-.049.068-.059.068a.86.86,0,0,0-.146.4.743.743,0,0,0-.166.342,1.681,1.681,0,0,0-.225.5.739.739,0,0,0-.117.273,5.925,5.925,0,0,0-.273.85c-.049.117-.107.244-.156.381a1.472,1.472,0,0,1-.107.42.37.37,0,0,0,.01.078v.01h-.059c.039-.283.059-.469.068-.557,0-.127.039-.2.117-.2a.13.13,0,0,1-.029-.078,1.093,1.093,0,0,0,.127-.43c0-.01-.029-.029-.078-.059V-.8h.088l.107-.107-.01-.127.01-.02c0-.088-.039-.127-.117-.127-.02,0-.029.01-.029.02v.02A.365.365,0,0,0,17.366-1v.01h-.039l-.029-.02L17.269-1a.159.159,0,0,0,.039.088h-.029a.269.269,0,0,1-.234-.166h-.01a.482.482,0,0,0-.146.029v.059l.039.049v.049a.354.354,0,0,1-.049.127l.02.01h.078v.02a.117.117,0,0,0-.039.078v.02l.02.029v.029l-.01.059h-.01c-.039,0-.059-.01-.059-.049h-.029c0,.039,0,.068-.01.078a.156.156,0,0,0-.078-.029h-.039c-.01,0-.02.01-.02.029v.127a2.151,2.151,0,0,1-.117.469c-.107.459-.156.7-.156.742v.186c0,.01.039.029.107.059l-.029.127v.02a1.181,1.181,0,0,0,.1.381,1.732,1.732,0,0,0,1.768,1.084h.107a5.776,5.776,0,0,0,2.549-.771,3.917,3.917,0,0,0,.9-.6c.332-.137.5-.283.5-.43V.9c0-.02-.02-.039-.078-.039h-.078q-.117,0-.117.059a.733.733,0,0,0-.186.166c-.312.1-.469.186-.469.244a5.1,5.1,0,0,1-1,.469.385.385,0,0,1-.137-.049v-.01h.01a5.394,5.394,0,0,0,.693-.371,1.729,1.729,0,0,1,.713-.322c.1,0,.166-.059.215-.186h.068A3.109,3.109,0,0,0,22.5.576c0-.029-.049-.039-.156-.039A.308.308,0,0,0,22.415.43l.527-.186c.078-.088.137-.127.166-.127h.059l-.039.049v.01c.02.039.039.049.049.049h.039a1.586,1.586,0,0,0,.479-.381v-.01c0-.029-.049-.039-.156-.039a.142.142,0,0,0,.049-.078c.137-.078.215-.156.225-.205.176-.166.293-.244.361-.244h.01v.02q-.146.117-.146.146c0,.029.02.049.059.068h.029c.146-.068.215-.146.215-.225h.088a.423.423,0,0,0,.049-.01c.1-.107.156-.166.176-.166a.822.822,0,0,1,.244-.244c.479-.391.723-.645.723-.752,0-.029-.049-.039-.137-.059h-.029a1.2,1.2,0,0,0-.273.068c-.42.254-.625.439-.625.537a.785.785,0,0,0-.166.117v.059a.087.087,0,0,0,.039.078h.01a1.181,1.181,0,0,1,.225-.117v.049c-.117.156-.215.225-.293.225L24.378-1l-.01-.088h-.029c-.068,0-.205.1-.4.293-.166.088-.254.176-.254.273a.755.755,0,0,0-.234.137,3.374,3.374,0,0,1-.625.439,3.081,3.081,0,0,1-.459.3,9.088,9.088,0,0,1-.879.518V.859L21.5.83A2.972,2.972,0,0,0,22.1.4V.361a.021.021,0,0,0-.02-.02.159.159,0,0,0-.137.049,2.53,2.53,0,0,0-.723.381,4.208,4.208,0,0,1-.84.43,4.653,4.653,0,0,1-1,.42,3.3,3.3,0,0,1-1.025.273q-.762,0-.762-.85V1.016a6.175,6.175,0,0,1,.264-1.357c0-.059.361-.947,1.074-2.686A8.83,8.83,0,0,0,19.4-4.062a1.212,1.212,0,0,1,.674-.43c.938-.42,1.924-.8,2.959-1.162q1.948-.732,2.959-1.055c.459-.088.693-.234.693-.43v-.127l-.02-.078a.684.684,0,0,1-.186-.2c0-.107-.166-.186-.518-.234h-.01a1.874,1.874,0,0,1-.234.078,5.971,5.971,0,0,0-1.816.518,6.46,6.46,0,0,0-1.523.684h-.107c-.02,0-.039.049-.068.146a.13.13,0,0,0-.068-.029h-.049a7.8,7.8,0,0,0-.957.371c-.459.186-.742.3-.869.361l-.068-.029v-.049a4.917,4.917,0,0,1,.43-.937c.156-.352.283-.605.371-.762a21.442,21.442,0,0,1,1.846-3.623,7.289,7.289,0,0,1,.674-1.152,6.909,6.909,0,0,1,.82-.361,19.1,19.1,0,0,0,2.363-.918,11.381,11.381,0,0,1,2-.625.548.548,0,0,0,.547-.371v-.049a.373.373,0,0,0-.039-.127A.739.739,0,0,0,28.568-15.107ZM24.6-13.682h.01l.078.01c0,.068-.02.1-.039.1h-.029a.063.063,0,0,0-.02-.049Zm.127.43c0-.049.1-.1.293-.137a1.554,1.554,0,0,1,.479-.186v.1a3.443,3.443,0,0,0-.742.254Zm-.137-.01h.049v.049h-.02a.052.052,0,0,1-.029-.039Zm-.371.107h.049v.068a.074.074,0,0,0-.039.01h-.01ZM19.915-7.07c0-.01.01-.02.029-.02h.02v.02c0,.02-.02.029-.049.039Zm.264.186h.049v.029c0,.02-.01.02-.029.02s-.02,0-.02-.02Zm-.088.225c.01,0,.029-.01.059-.039a.248.248,0,0,1-.02.068c-.02-.01-.029-.02-.039-.02Zm-.322.088c.01,0,.029.029.049.088v.01l-.049-.01Zm.2.088a.158.158,0,0,1,.1.039c0,.029-.049.068-.146.107,0-.01-.01-.01-.039-.01A.786.786,0,0,0,19.964-6.484Zm2.51.068.029.02c0,.01-.01.02-.029.02Zm-2.637.156.068-.02h.01V-6.2c0,.01,0,.01-.01.01l-.1.137h-.02a.074.074,0,0,0-.01-.039.294.294,0,0,0,.059-.137Zm1.885.293h.049c.02,0,.029.02.049.059C21.751-5.908,21.722-5.928,21.722-5.967Zm.137.078c.01-.029.02-.039.039-.039h.02c.01,0,.029.01.059.049,0,.02-.029.039-.068.039C21.868-5.859,21.859-5.879,21.859-5.889Zm-2.51.068h.1v.1h-.059c-.029-.01-.039-.02-.039-.029Zm2.275.049a.021.021,0,0,1,.02-.02h.039c.01,0,.029.01.039.049v.01h-.1Zm-.215.068h.1v.01c0,.02-.029.039-.088.049Zm-.283.117c.029-.068.049-.1.059-.1a.3.3,0,0,0,.039.088c0,.029-.02.049-.068.059ZM19.3-5.557a.286.286,0,0,1,.117-.068h.02l-.02.049a.786.786,0,0,0-.137.088l.039.068c0,.02-.01.029-.02.029h-.029v-.049h-.02c0,.039-.02.049-.039.049h-.059l-.029-.01a.318.318,0,0,1,.1-.176l.059.02Zm1.221.166a.251.251,0,0,1,.166-.1c.078.02.117.049.117.068a.229.229,0,0,0,.127-.068V-5.4h-.039c-.029,0-.146.01-.361.039h-.01Zm-1.289.039a.165.165,0,0,1,.049.02c0,.01-.01.02-.01.029h-.039Zm.977.1c.02-.029.039-.049.049-.049h.029c-.02.039-.039.049-.049.049ZM18-4.248c0-.029.039-.049.137-.059h.01a.124.124,0,0,1-.107.068h-.02Zm.459.781q-.088,0-.117.117c.02.029.029.039.039.039h.039a.118.118,0,0,0,.059-.117C18.48-3.457,18.47-3.467,18.46-3.467Zm-.068.244q-.073.088-.117.088t-.088.234v.029c0,.02.029.029.068.029h.029l.02-.01a3.174,3.174,0,0,1,.107-.342Zm-.576.088a.545.545,0,0,0-.1.342v.02a.074.074,0,0,0-.039.01.366.366,0,0,0-.078-.01.074.074,0,0,0-.039.01c.029.068.059.107.107.107a.438.438,0,0,1,.107-.01A2.313,2.313,0,0,1,17.923-3c-.029-.088-.059-.137-.068-.137Zm-.176.557c-.02.01-.039.02-.039.039v.029l.029.039c.029-.059.049-.088.068-.088v-.02Zm.4.088c-.049.01-.078.02-.078.039v.029l.01.029c.049-.01.078-.02.078-.039v-.039Zm.264.156c.029-.029.039-.049.059-.049v.029c0,.01-.01.02-.029.02Zm-.771-.01c-.02,0-.029.029-.029.1l-.068-.039-.029.02a.354.354,0,0,1-.146.3c0-.029-.01-.049-.029-.049h-.01L17.191-2a.681.681,0,0,0,.078.156v.01a.906.906,0,0,0-.088.234,2.077,2.077,0,0,0-.146.41v.01c.02.029.039.049.049.049h.039c.02,0,.02-.029.02-.078h.049l.029.02c0-.01,0-.02.01-.02l-.01-.078a.417.417,0,0,0,.088-.186.123.123,0,0,1,.088-.137.209.209,0,0,0-.039-.117h.01c.039,0,.049-.029.049-.088a.928.928,0,0,0,.146-.391v-.117c0-.01,0-.02-.02-.02Zm.234.234c-.029.01-.039.029-.039.039l.049.146c-.049.029-.078.049-.078.059v.039l.02.029c.049,0,.078-.049.1-.137V-2.07c-.02-.029-.029-.039-.039-.039Zm-.645.322-.01.059v.02h.01c.02,0,.02-.01.02-.029v-.049Zm.459.039c-.039.01-.049.039-.049.088,0,.01.02.029.068.049.068-.02.1-.039.1-.049v-.068l-.01-.02-.068.068C17.62-1.729,17.6-1.748,17.581-1.748Zm.01.146-.039.02a.13.13,0,0,0,.029.078.5.5,0,0,0,.088-.02A.076.076,0,0,0,17.63-1.6Zm0,.127-.039.02-.1.244c0,.02.02.029.059.039a1.415,1.415,0,0,0,.088-.273v-.029Zm-.449.391v.029l.02.02a.021.021,0,0,0,.02-.02c0-.02-.01-.029-.02-.029Zm.029.225a.074.074,0,0,0,.039.01v.01a.026.026,0,0,1-.029.029h-.01Zm-.322.137v.059a.026.026,0,0,0,.029.029l.02-.02a.093.093,0,0,1-.02-.068Zm7.09.254q-.088.059-.088.088l.01.029a.01.01,0,0,0,.01-.01c.117-.02.176-.049.176-.078s-.01-.02-.029-.029Zm-7.08.088a.648.648,0,0,0,.156-.039h.01V-.4A1.169,1.169,0,0,0,17-.264v.02a.817.817,0,0,1-.117.01c-.049,0-.068-.01-.078-.049.01,0,.02-.029.029-.107l.02.01ZM23.216.01a.255.255,0,0,0,.107-.029c.049-.1.1-.146.156-.146,0,.068-.088.156-.254.244l-.01-.02ZM16.839-.117l.059.049a1.512,1.512,0,0,1-.01.205v.02H16.8A.385.385,0,0,0,16.751.02c0-.02.02-.029.049-.029S16.839-.049,16.839-.117Zm.225.02h.01v.029h-.01Zm.244.264a.135.135,0,0,1,.059-.107h.039V.107a.077.077,0,0,1-.049.078h-.01Zm5.85.088V.3c0,.01.01.02.049.039L23.226.3V.273c0-.01,0-.02-.02-.02ZM17.3.361c.01-.02.02-.039.029-.039h.02V.391L17.3.371Zm5.576.01A.026.026,0,0,0,22.845.4V.41a.026.026,0,0,0,.029.029h.068A.026.026,0,0,0,22.972.41V.4q0-.015-.029-.029ZM17.259.449H17.3c0,.02.02.049.059.107l-.146.713c-.029-.01-.049-.1-.068-.264V.967L17.161.9C17.191.791,17.22.645,17.259.449Zm-.5.029h.068V.527c0,.01-.01.02-.029.02h-.01l-.039-.02ZM22.7.488c-.029.01-.039.02-.039.039V.645a.152.152,0,0,0-.127.078A.048.048,0,0,1,22.5.713a.059.059,0,0,0-.039.01A.367.367,0,0,0,22.532.9c.225-.117.342-.205.342-.264s-.059-.117-.166-.146ZM17,.732c.02-.1.049-.146.068-.146h.02s.01.039.029.1a.479.479,0,0,1-.029.127C17.025.811,17,.781,17,.732ZM21.409.9h.049v.01h-.049Zm-.156.068h.039v.02h-.039Zm-.088.039h.059v.01h-.059Zm-.977.889a.448.448,0,0,0,.137-.068h.01c.029.02.049.029.049.049h-.039a.184.184,0,0,0-.186.107h-.049c-.059,0-.088-.01-.1-.039v-.01c0-.02.049-.039.146-.049ZM39.47-15.967l-.146.146a5.279,5.279,0,0,0-.156,1.24l.01.02.078-.039c.078-.107.127-.156.146-.156,0,.01,0,.01.01.01.01.166.01.293.01.371v.273a23.825,23.825,0,0,1-.244,2.93,28.46,28.46,0,0,1-.742,3.594A26.36,26.36,0,0,1,36.8-3.33C35.671-1.152,34.812-.059,34.236-.059c-.039,0-.1-.01-.176-.02a.927.927,0,0,1-.508-.879V-.986c.059-1.143.127-1.992.2-2.549.049-.674.117-1.279.205-1.826C34-6,34.177-7.1,34.48-8.662a.171.171,0,0,1-.01-.049c.068-.439.107-.664.117-.684.059-.615.107-1.035.137-1.26v-.1a1.463,1.463,0,0,0-.02-.215.637.637,0,0,0-.625-.488h-.01a.523.523,0,0,0-.234.049q-.366,0-1,1.289c-.2.449-.312.713-.361.791-.156.371-.264.625-.322.742-.547,1.26-.918,2.109-1.123,2.559A11.6,11.6,0,0,1,30.31-4.59c-.488.977-.83,1.621-1.025,1.924a12.926,12.926,0,0,1-1.211,1.9,4.683,4.683,0,0,1,.137-.5c.176-.732.391-1.631.654-2.676a12.509,12.509,0,0,0,.3-1.25,15.891,15.891,0,0,1,.449-1.7c.469-1.68.713-2.549.713-2.6a5.255,5.255,0,0,0,.244-1.377v-.186A2.059,2.059,0,0,0,30.359-12a.964.964,0,0,0-.811-.518c-.039.01-.068.02-.068.039a.611.611,0,0,1,.225.527,3.94,3.94,0,0,1-.146.938,11.473,11.473,0,0,1-.381,1.367c-.137.488-.225.811-.283.957-.068.283-.127.488-.166.605q-.454,1.523-1.592,5.85c-.42,1.5-.664,2.461-.742,2.871-.088.381-.137.6-.137.635v.117a.789.789,0,0,0,.029.186c.146.352.361.518.635.518h.127a.67.67,0,0,0,.5-.264q.073-.234.117-.234c.068,0,.127-.117.176-.342q.146-.1.146-.146A1.019,1.019,0,0,1,28.357.6,2.062,2.062,0,0,1,28.64.059a11.267,11.267,0,0,1,.771-1.23,2.079,2.079,0,0,1,.41-.645.959.959,0,0,1,.205-.391,1.386,1.386,0,0,1,.332-.5,1.207,1.207,0,0,1,.273-.43.908.908,0,0,1,.1-.41,5.74,5.74,0,0,0,.4-.83l-.029-.01h-.029l-.391.7a8.82,8.82,0,0,1-.674,1.152,6.947,6.947,0,0,0-.645,1.211,2.3,2.3,0,0,0-.283.469,3.966,3.966,0,0,0-.449.674,12.9,12.9,0,0,1-.752,1.1.906.906,0,0,1,.088-.215A2.373,2.373,0,0,0,28.24.264,2.421,2.421,0,0,0,28.582-.3a3.85,3.85,0,0,0,.371-.586,1.608,1.608,0,0,0,.244-.43,1.651,1.651,0,0,0,.342-.576,2.868,2.868,0,0,0,.332-.508.026.026,0,0,0-.029-.029c-.01,0-.01,0-.01-.01,0-.1.117-.264.342-.5v-.01a.026.026,0,0,0-.029-.029.253.253,0,0,1,.117-.205,2.51,2.51,0,0,1,.41-.732A.078.078,0,0,0,30.759-4c0-.01-.01-.02-.039-.02v-.029a1.042,1.042,0,0,1,.146-.332h.02v.059h.059A.192.192,0,0,0,31-4.482l-.01-.029a.156.156,0,0,0-.078.029.837.837,0,0,1,.029-.166c-.01,0-.01,0-.01-.01l-.088.068a1.7,1.7,0,0,1-.3.576,3.93,3.93,0,0,1-.3.615c-.2.293-.332.518-.42.684a7.5,7.5,0,0,0-.42.781,4.853,4.853,0,0,0-.42.625,1.053,1.053,0,0,1-.205.322l.02-.068a3.62,3.62,0,0,0,.2-.371,8.291,8.291,0,0,0,.645-1.152,3.586,3.586,0,0,1,.371-.557A10.646,10.646,0,0,0,30.5-4.15a4.6,4.6,0,0,0,.4-.83.94.94,0,0,1-.039-.205v-.02l.01-.078h.068l-.02.059v.088l.02.02q.029-.015.029-.029a4.158,4.158,0,0,0,.42-.869l-.01-.01c-.059.01-.088.039-.088.068h-.01v-.01a1.2,1.2,0,0,0,.029-.283c.1-.068.146-.137.146-.2q.059.015.059.059a.1.1,0,0,0,.088-.049,2.889,2.889,0,0,1,.332-.742c.186-.42.332-.723.43-.889.02-.146.059-.215.117-.215.01,0,.02.01.02.039s-.01.029-.01.049a6.831,6.831,0,0,0-.459,1.123,7.075,7.075,0,0,0-.459,1.055,1.23,1.23,0,0,0-.2.42c0,.02.01.02.029.02h.01c.107-.186.2-.283.273-.283h.01a.059.059,0,0,0,.01.039c-.117.313-.186.479-.186.5a.208.208,0,0,0,.156-.068,1.963,1.963,0,0,0,.156-.42v-.1c.078,0,.127-.1.176-.293a1.49,1.49,0,0,0,.166-.371v-.039l-.01-.02-.049.01a2.606,2.606,0,0,0-.146.313,1.36,1.36,0,0,1-.225.449h-.01c-.02-.059-.039-.1-.078-.1l-.02.02.01.02h-.01c-.02,0-.029-.01-.029-.02a3.429,3.429,0,0,1,.41-.83.44.44,0,0,1,.107-.273c0,.049.029.068.088.068l-.01.088a.074.074,0,0,0-.039-.01c-.01,0-.029-.02-.049-.059l-.02.01c0,.146.029.225.107.225a.263.263,0,0,0,.146-.254.877.877,0,0,0,.127-.264c.039,0,.107-.127.225-.361a.5.5,0,0,0,.117-.234V-7.91L32.908-8v-.01l-.02-.039v-.02a.073.073,0,0,1,.01-.049.4.4,0,0,0,.156-.166c.088-.2.2-.449.342-.752h.01v.01c-.02.254-.039.439-.049.547l.01.029c-.059.625-.176,1.484-.342,2.588v.137h.02a1.769,1.769,0,0,0,.088-.3,8.363,8.363,0,0,1,.156-.967,6.078,6.078,0,0,1,.225-1.094,6.271,6.271,0,0,1,.049.713c0,.029-.039.059-.107.1,0,.02.01.059.02.117l-.02.02a.376.376,0,0,1,.088.107H33.5c-.078,0-.127.137-.166.41h.029c.02,0,.029-.01.029-.039h.049a3.435,3.435,0,0,1-.049.479v.059l-.068-.02V-6.25l.01-.088h-.01c-.039,0-.059.088-.059.273,0,.02.01.02.02.02l.049-.049h.02l.01.068v.117a1.041,1.041,0,0,1-.039.225.158.158,0,0,0,.039.1c.01,0,.02-.01.039-.039a8.178,8.178,0,0,1,.205-1.309c.1-.488.166-.742.215-.742h.01v.029a.021.021,0,0,1-.02.02v.02c.107.02.156.059.156.117v.039c0,.059-.049.342-.156.869l-.137.8.049.137a.37.37,0,0,1-.1.156v.352a1.923,1.923,0,0,0-.107.664v.029a.243.243,0,0,0,.068.049,1.348,1.348,0,0,0-.01.137v.01h-.02a.373.373,0,0,1-.186-.107.833.833,0,0,0-.049.313.261.261,0,0,0,.039.166q.029,0,.029-.059c0-.068.02-.107.068-.107h.01c.029,0,.049.1.049.273v.039c0,.293-.02.43-.049.43,0,.322-.039.488-.117.488a.95.95,0,0,0,.059.146.479.479,0,0,0-.01.107v.205a.346.346,0,0,1-.117.1v.02a.409.409,0,0,1,.107.176c-.039.068-.078.1-.107.1v.01c0,.02.02.029.049.029v.146h-.059l-.02.01a1.618,1.618,0,0,0,.078.215l-.078.225c-.068.332-.166.508-.312.508h-.059c-.117,0-.186-.146-.215-.439,0-.1.02-.469.059-1.094h-.02a12.437,12.437,0,0,0-.146,1.592v.146A2.333,2.333,0,0,0,32.839.4a1.54,1.54,0,0,0,1.367,1.035h.01a2.377,2.377,0,0,0,1.7-1.074,4.4,4.4,0,0,1,.42-.625c.049,0,.1-.088.127-.264h.059L36.56-.5h.01c.01,0,.039-.039.078-.107,0-.01-.039-.029-.107-.059a1.551,1.551,0,0,1,.215-.293l.02.068h.049c.02,0,.049-.039.088-.137a.143.143,0,0,0-.049-.078v-.029a.687.687,0,0,0,.215-.107.454.454,0,0,0-.068-.176.6.6,0,0,1,.127.01,2.092,2.092,0,0,1,.117-.234c-.01,0-.02,0-.02-.01-.059.02-.107.039-.117.039.234-.42.361-.654.381-.713h.107c.02,0,.029-.02.049-.078.3-.625.508-1.074.625-1.367a1.944,1.944,0,0,1,.3-.762.932.932,0,0,1,.146-.508A2.764,2.764,0,0,0,39-5.869l.488-1.406a27.107,27.107,0,0,0,.83-5.879Q40.32-15.439,39.47-15.967Zm-9.629,4.922c.029.01.039.02.039.029s-.02.01-.039.02Zm.459.02h.039c0,.02-.01.068-.01.146a.059.059,0,0,0,.01.039h-.088a.29.29,0,0,0,.049-.176Zm-.654.723c.02-.088.039-.127.059-.127h.02v.01A.138.138,0,0,1,29.646-10.3Zm-.107.439c.01-.107.039-.156.068-.156a.549.549,0,0,1-.059.166h-.01Zm.313.469h.039v.029c0,.02-.01.02-.02.02h-.02Zm-.449.049h.02V-9.3c-.01.029-.02.039-.039.039h-.01Zm.605.391h.029v.049h-.01c-.01,0-.02-.01-.02-.029Zm-.088.3a.074.074,0,0,0,.039-.01l-.029.107h-.01Zm2.656.088h.02v.039h-.02Zm6.563.059h.02v.02a3.068,3.068,0,0,1-.205.771h-.01c0-.039,0-.068-.01-.078A2.488,2.488,0,0,1,39.138-8.506Zm-6.6.039H32.6a.377.377,0,0,1-.02.117l-.049-.029.01-.02ZM29.295-8.3c.029.01.039.02.059.02v.01a.074.074,0,0,0-.039.02h-.02Zm3.281.146h.059c0,.02-.01.059-.02.137-.039-.01-.049-.029-.049-.039v-.01Zm1.26.049h.01l.068.01a.307.307,0,0,0-.039.117v.117l.01.029a.242.242,0,0,0-.039.059c-.029,0-.049,0-.059-.01C33.787-7.822,33.806-7.93,33.836-8.105Zm-4.365.059c0-.01.01-.02.029-.02h.01v.088H29.47Zm2.949.313c0-.078.02-.127.059-.137,0,.078.02.107.059.107l-.049.234a.074.074,0,0,1,.01.039l-.2.469-.059-.01V-7.09c0-.02-.02-.029-.068-.039a.769.769,0,0,1,.039-.2.591.591,0,0,0,.127-.264c0-.059.039-.1.127-.127C32.468-7.725,32.449-7.734,32.42-7.734Zm-3.066.059c0-.01.01-.02.049-.039a2.536,2.536,0,0,1-.039.273v.029h-.029c.01-.117.02-.2.02-.244Zm2.539.146.1-.166h.029c0,.117-.039.166-.107.166ZM38.884-7.6h.01v.01a16.783,16.783,0,0,1-.752,2.656c-.117.361-.449,1.152-1.016,2.363h-.01v-.01a1.57,1.57,0,0,1,.2-.654C37.791-4.375,38.308-5.83,38.884-7.6ZM31.7-7a1.647,1.647,0,0,1,.186-.41h.01v.039C31.814-7.129,31.746-7,31.7-7Zm-2.715-.391c.01.01.02.02.029.02a.01.01,0,0,1-.01.01l.01.059v.039h-.029Zm.283.078c.02.02.029.029.049.029-.02.02-.029.029-.039.029h-.01Zm3.027.01c-.039.02-.059.039-.059.049v.049c0,.02,0,.029.02.029h.01c.029-.01.039-.039.039-.1Zm-3.057.1c.029.02.039.029.039.039l-.029.146H29.2ZM39.1-7.08h.02v.01A31.483,31.483,0,0,1,37.966-3.6a18.588,18.588,0,0,1-2,3.594,4.746,4.746,0,0,1-.918.957V.928A15.525,15.525,0,0,0,36.336-.7a16.224,16.224,0,0,0,1.631-3.154c.225-.654.479-1.348.762-2.07C38.884-6.475,39.011-6.865,39.1-7.08Zm-9.951.127c0-.02.029-.039.078-.039v.039Zm-.2-.029c.029.02.049.039.049.049v.01a.423.423,0,0,0-.049-.01Zm2.705.049a.026.026,0,0,1,.029.029v.02h-.029Zm-.166.41c.078-.215.127-.322.156-.322v.029a1.031,1.031,0,0,0-.1.293Zm-2.676-.186q0-.073.088-.088h.01c0,.039-.029.078-.1.117Zm3.125.176-.078.117c0,.02,0,.029.02.029h.029c.02,0,.039-.049.059-.137v-.01Zm-3.213.088c.039,0,.068.01.068.029h-.068Zm-.02.146c0-.02.01-.02.02-.029v.02a.021.021,0,0,1-.02.02Zm2.725,0q-.044,0-.059.176c0,.01.01.02.029.02h.02l.068-.186V-6.3ZM28.9-6.006q.015-.176.059-.176c-.01.117-.029.176-.049.176Zm-.283-.059h.02l.029.01a.13.13,0,0,0-.029.078A.14.14,0,0,0,28.611-6Zm2.5.391c.01-.059.029-.1.049-.1h.01c-.01.068-.02.1-.039.1Zm-2.578-.068c.039,0,.068.01.078.039v.01c0,.01-.029.029-.078.059a.021.021,0,0,1-.02-.02v-.02A.248.248,0,0,1,28.543-5.742Zm.273.1h.049v.059h-.049Zm2.148.2q0-.088.117-.146v.049c0,.039-.029.078-.088.127C30.974-5.42,30.974-5.43,30.964-5.449Zm-2.471-.127c.078.049.117.088.117.137H28.5l-.029.029.01.088v.039s-.02.059-.059.156V-5.1c0,.01.02.029.068.059v.02a.074.074,0,0,1-.039-.01A.026.026,0,0,0,28.425-5v.146c-.02.029-.039.049-.059.049h-.049a.981.981,0,0,1,.068-.244c.029-.283.078-.42.117-.42l-.01-.068Zm4.531-.01c-.02,0-.039.039-.068.117a4.746,4.746,0,0,1-.059.674,1.118,1.118,0,0,0,.01.146h.01c.029,0,.039-.029.039-.068v-.049q.059-.732.117-.732A.443.443,0,0,0,33.025-5.586Zm-1.67.049a.2.2,0,0,0-.107.166.971.971,0,0,0-.146.332.41.41,0,0,0-.107.205v.059c.01.02.02.029.039.029l.039-.02a1.507,1.507,0,0,1,.215-.439v-.078a.707.707,0,0,1,.088-.234Zm2.041.02c-.049,0-.078.039-.088.127v.029l-.088.029c-.049,0-.078.078-.078.244h.029a.826.826,0,0,0,.059-.166.1.1,0,0,1,.049.088v.039a.47.47,0,0,1-.039.215,1.777,1.777,0,0,1-.059.527.479.479,0,0,0,.029.127.248.248,0,0,0,.078-.127,4.113,4.113,0,0,1,.156-1.055Zm-4.658.234h.039v.049h-.039Zm2.7-.02a.484.484,0,0,0-.049.186.026.026,0,0,1,.029.029v.068a.158.158,0,0,0-.088.029,1.335,1.335,0,0,1-.176.4v.059l.02.02a.192.192,0,0,0,.156-.205.788.788,0,0,0,.127-.273.933.933,0,0,0,.117-.225v-.02C31.57-5.264,31.531-5.283,31.433-5.3Zm-.625.186h.01v.068h-.01Zm-2.148.1c0-.01,0-.02.02-.02v.01c0,.02-.01.029-.02.029Zm2.607-.02c-.078,0-.117.049-.127.156,0,.01.01.02.029.039A.2.2,0,0,0,31.267-5.039Zm1.875.107c-.02,0-.039.039-.049.117l.01.059h.029V-4.8Zm-2.432.039h.039c0,.01-.01.029-.02.078H30.7A.366.366,0,0,1,30.711-4.893Zm-2.08.01h.01v.029l-.049.205h-.049v-.029A.762.762,0,0,0,28.63-4.883Zm2,.166h.029v.01a.087.087,0,0,1-.039.078v-.029ZM28.25-4.59h.01v.146h-.049Zm2.324.049h.01v.01c-.01.068-.029.1-.049.1A.281.281,0,0,1,30.574-4.541Zm2.334-.02a1.229,1.229,0,0,0-.039.264v.039l.02.088h.02a.943.943,0,0,0,.039-.234l-.01-.156Zm-4.414.039a.074.074,0,0,1,.059.078.107.107,0,0,1-.059.1h-.01A.949.949,0,0,0,28.494-4.521Zm-.332.234H28.2a.13.13,0,0,1-.029.068c0,.01.02.02.049.02a.3.3,0,0,0-.049.107l-.039-.02A1.029,1.029,0,0,1,28.162-4.287Zm2.246.039a.074.074,0,0,0,.039.01v.02a.59.59,0,0,0-.068.078c-.02,0-.029,0-.029-.02Zm2.783.059c-.02.02-.039.029-.039.039V-4l.029.039a.1.1,0,0,0,.059-.078q0-.146-.029-.146Zm-.293.137c-.029.02-.049.039-.049.049v.02l.01.078h.029l.029-.146Zm-2.725.3a.185.185,0,0,1,.117-.166A.208.208,0,0,1,30.173-3.75Zm3.008-.088q-.059,0-.088.439l.029.049c.029,0,.059-.156.068-.469Zm-.322.039c-.029.02-.049.029-.049.049V-3.7l.029.029c.01,0,.029-.02.049-.059Zm-4.795.029h.01c0,.029.01.049.01.068l-.029.02h-.02Zm2.012.127h.029c.01,0,.02.01.02.029v.029c-.01,0-.02.01-.039.02h-.01Zm-2.109.078h.049a1.092,1.092,0,0,1-.146.7h-.02c-.02,0-.029-.01-.049-.01h-.01a2.912,2.912,0,0,0,.176-.684Zm.283.146h.01v.049c-.01.127-.029.186-.068.186A.578.578,0,0,1,28.25-3.418Zm4.551.1a3.353,3.353,0,0,0-.049.459h.02l.039-.254v-.1a.105.105,0,0,1,.029-.068c0-.029-.01-.039-.029-.039Zm.283.049a.411.411,0,0,0-.039.176V-3h.01c.029,0,.059-.039.078-.127a.881.881,0,0,0-.029-.146Zm-3.35.293c0-.039.02-.059.039-.059l-.029.078h-.01Zm-.137.205c.029,0,.049,0,.059.01a.3.3,0,0,0-.039.088l-.029-.029A.238.238,0,0,1,29.6-2.773Zm3.438-.02a.3.3,0,0,0-.078.225v.029a.355.355,0,0,0,.029.107h.039a1.429,1.429,0,0,0,.029-.322c0-.01-.01-.029-.01-.039Zm-5.293.1h.01a.251.251,0,0,1,.117.068.413.413,0,0,1-.156.225A2.217,2.217,0,0,1,27.742-2.7Zm4.98.166a.021.021,0,0,0-.02.02c0,.02,0,.029.02.029a.026.026,0,0,0,.029-.029C32.752-2.52,32.742-2.529,32.722-2.529Zm-5.059.2a.074.074,0,0,0,.039-.01c.02,0,.029.01.029.02v.078c-.049-.01-.068-.02-.068-.039Zm5.322,0a.026.026,0,0,0-.029.029v.01a.165.165,0,0,0,.029.1.021.021,0,0,0,.02-.02v-.117Zm3.945.088h.01v.01l-.146.3a1.776,1.776,0,0,1-.3.42h-.01A4.1,4.1,0,0,1,36.931-2.246Zm-9.287.1.059.01V-2.1c-.078.293-.127.439-.156.439h-.039c.01-.039.02-.049.039-.049A1.007,1.007,0,0,1,27.644-2.148Zm5.342.127-.068.01v.049a.026.026,0,0,0,.029.029c.02,0,.029-.029.039-.078Zm-.029.283c-.068.039-.1.068-.1.1a.516.516,0,0,1,.01.117v.215l.068.078q.029,0,.029-.322v-.156ZM27.39-1.26c.01-.039.02-.059.039-.059.01-.176.039-.264.078-.264l.088.059a.94.94,0,0,0-.1.293A.175.175,0,0,1,27.39-1.26Zm1.465-.254h.02v.01h-.02Zm6.992.83c.156-.283.254-.42.3-.42.01,0,.02.02.02.068,0,.088-.107.205-.322.361ZM35.73-.889c.039.039.059.068.059.1a3.687,3.687,0,0,1-.488.684V-.146a.258.258,0,0,1,.049-.146A2.143,2.143,0,0,0,35.73-.889Zm-8.467.215c.01-.059.02-.088.049-.088h.01v.078C27.293-.684,27.273-.684,27.263-.674Zm7.715.938c0-.01,0-.01.01-.01,0-.078.059-.146.176-.215a.234.234,0,0,1-.176.225Zm-.215.186h.059c0,.01-.02.029-.068.049A.131.131,0,0,0,34.763.449ZM49.963-14.7a2.472,2.472,0,0,0-.371.029,1.678,1.678,0,0,0-.869.332c0,.068-.146.107-.439.127a2.193,2.193,0,0,1-.625.313,5.139,5.139,0,0,0-1.123.674c-.137.166-.244.244-.322.244-.186.049-.283.1-.283.146-.322.254-.518.41-.566.459a.588.588,0,0,1-.371.273l-.2.225a1.587,1.587,0,0,0-.5.332c-.068,0-.146.107-.225.313q-.41.176-.41.264l.029.137v.02c0,.068-.215.313-.654.742a.967.967,0,0,0-.273.059q0,.278-.732.938a1.918,1.918,0,0,0-.479.674,1.363,1.363,0,0,0-.234.283c.01,0,.01,0,.01.01q.088,0,.234-.176a3.613,3.613,0,0,1,.615-.693,6.033,6.033,0,0,1,.771-.723,4.8,4.8,0,0,1,.449-.488,6.915,6.915,0,0,1,.986-.879c.322-.3.518-.449.6-.449,0,.029.049.088.156.166v.029c0,.01-.02.029-.078.049a.144.144,0,0,0-.1-.088.537.537,0,0,0-.293.244c0,.02.039.039.107.068a.207.207,0,0,1-.107.078c-.01,0-.029-.02-.078-.068h-.01l-.2.156c.029.1.049.156.049.166a.683.683,0,0,0-.107.039v-.117l-.02-.02c-.156.059-.234.127-.234.2l.01.02.166-.02c-.02.029-.059.088-.107.176a4.077,4.077,0,0,1-.85.879.742.742,0,0,1-.381.371,1.379,1.379,0,0,1-.381.42,10.16,10.16,0,0,1-.8.908,1.72,1.72,0,0,1-.352.469,2.159,2.159,0,0,1-.3.488,1.827,1.827,0,0,1-.264.6,4.062,4.062,0,0,0-.371,1.26v.02a.56.56,0,0,0,.01.117l.137.293v.088a.666.666,0,0,0,.039.2c.264.537.391.82.391.84h-.059a.135.135,0,0,1-.107-.059.524.524,0,0,0-.234-.264.935.935,0,0,1-.264-.508c-.059,0-.127-.254-.2-.762a5.936,5.936,0,0,1,.176-.84c.049-.107.078-.166.078-.176v-.1c0-.02-.029-.049-.107-.059-.02,0-.029.01-.049.029a.4.4,0,0,1-.137.342l.039.059a.942.942,0,0,1-.1.293h-.029l-.039-.02a1.339,1.339,0,0,0,.049-.312,2.485,2.485,0,0,1,.107-.332V-6.24l-.029-.039c-.166.146-.244.488-.244,1.025v.088a2.59,2.59,0,0,0,.166.742,3.306,3.306,0,0,0,.723,1.074,11.228,11.228,0,0,0,1.309,1.064q.6.322,1.025.586c.791.391,1.27.635,1.436.723.635.273.957.576.957.918a1.377,1.377,0,0,1-.068.352A.965.965,0,0,1,44.914.8a6,6,0,0,1-2.49.576,4.028,4.028,0,0,1-.811-.088A1.223,1.223,0,0,1,40.549.078a5.707,5.707,0,0,1,.137-.986A1.937,1.937,0,0,0,40.92-1.4v-.01a.389.389,0,0,0-.166.029,1.128,1.128,0,0,1-.322.488c-.02,0-.029-.01-.029-.02v-.01a.921.921,0,0,1,.078-.273c0-.01-.01-.02-.02-.039l-.059.059A4.231,4.231,0,0,0,39.7.742a1.484,1.484,0,0,0,.313.908,3,3,0,0,0,2.383.85h.088a6.5,6.5,0,0,0,2.529-.508,1.835,1.835,0,0,0,.791-.508,1.656,1.656,0,0,0,.488-.937V.5a.181.181,0,0,0-.039-.1c-.078,0-.127-.127-.176-.381L46.2-.029c0-.078-.078-.205-.234-.391-.088-.205-.166-.312-.225-.312a.01.01,0,0,1-.01.01.415.415,0,0,1,.049.117v.039a.026.026,0,0,1-.029.029h-.01c-.068,0-.283-.166-.625-.5-.2-.078-.293-.137-.3-.176l.029-.01h.029c.107.039.156.059.166.059h.049c.029-.01.039-.02.039-.029v-.029L45.09-1.27a1.4,1.4,0,0,1-.381-.176,15.532,15.532,0,0,1-2.041-1.143A7.758,7.758,0,0,1,41.408-3.6a1.818,1.818,0,0,1-.518-1.348q0-1.318,2.959-4.268a33.757,33.757,0,0,1,2.715-2.373q3.018-2.285,4.1-2.285a1.212,1.212,0,0,1,.264.029.334.334,0,0,1,.2.352v.059a2.317,2.317,0,0,1-.059.508,4.382,4.382,0,0,1-.439,1.3,3.66,3.66,0,0,1-.479,1.055,14.413,14.413,0,0,1-1.406,1.963,2.493,2.493,0,0,0-.391.469A3.228,3.228,0,0,0,48-7.822a4.477,4.477,0,0,1-.908.693,1.914,1.914,0,0,0-.5.322c-.107.02-.166.059-.166.127,0,.049.01.068.049.068q.293.352.527.352h.078c.4,0,1.016-.391,1.836-1.152a13.862,13.862,0,0,0,1.377-1.543,7.719,7.719,0,0,0,1.8-3.984v-.088a1.471,1.471,0,0,0-.439-1.1,2.464,2.464,0,0,0-1.621-.566Zm-2.588,1.514c0-.02.029-.029.078-.049a.106.106,0,0,1,.068.107c0,.01-.029.029-.078.059h-.02A.169.169,0,0,0,47.375-13.184Zm-1.064.762c.039-.049.059-.088.068-.1.283-.146.43-.225.439-.225a2.776,2.776,0,0,1,.488-.322c.02,0,.049.02.059.068-.01.049-.127.117-.361.215-.059,0-.156.078-.3.215a.618.618,0,0,0-.322.156Zm-.488-.225h.088a.263.263,0,0,1-.078.068h-.01Zm5.645.1.049-.049c.029.02.039.029.039.039v.01l-.039.068A.243.243,0,0,1,51.467-12.549Zm-5.439.166c.02-.029.029-.039.039-.039h.059c-.01.049-.029.068-.059.078,0-.01-.01-.02-.039-.02Zm5.381.176a.153.153,0,0,1,.059-.117,1.462,1.462,0,0,1-.029.176h-.029Zm-.1-.107.02.02c0,.01,0,.02-.02.02Zm-6.162.664a1.682,1.682,0,0,1,.361-.4.3.3,0,0,0,.225-.078h.02a.1.1,0,0,1,.049.068c0,.01-.049.059-.166.117a.486.486,0,0,1-.459.293Zm-.2-.3c0-.01.02-.029.059-.039v.068h-.059Zm6.279.186a.293.293,0,0,1,.088-.1.221.221,0,0,1-.088.2Zm-.322.488.1-.068c.039-.01.1-.1.186-.254v.029a1.675,1.675,0,0,1-.3.684c-.068.244-.137.361-.215.361h-.01v-.01l.01-.078a1.8,1.8,0,0,0,.264-.518v-.049A.165.165,0,0,0,50.91-11.279Zm-7.676.771-.02.02.01.02c.02,0,.02-.01.02-.02v-.02Zm7.275.254a.225.225,0,0,1,.127-.215h.02v.088c0,.068-.049.107-.137.127ZM44.2-10.42a.021.021,0,0,1,.02-.02h.02a.14.14,0,0,0-.02.029Zm-1.074.029c-.059,0-.137.059-.225.2,0,.02.02.029.059.049.02,0,.068-.078.166-.225Zm7.295.293a.062.062,0,0,1,.049-.068v.049A.054.054,0,0,0,50.422-10.1Zm-6.973.088c-.059.039-.088.059-.088.078v.02A.222.222,0,0,0,43.5-9.98a.026.026,0,0,0-.029-.029Zm6.436.742a2.693,2.693,0,0,1,.42-.664,1.222,1.222,0,0,1-.4.664Zm-7.354-.5c-.078,0-.156.068-.244.215,0,.02,0,.02.02.02h.01a.073.073,0,0,0,.049-.01.939.939,0,0,1,.176-.2Zm.615.029c-.078,0-.127.049-.137.156a.026.026,0,0,0,.029.029h.1c.02-.01.039-.068.078-.176l-.029-.01Zm-.2.156c-.088.088-.137.156-.137.205.01,0,.01,0,.01.01a.159.159,0,0,0,.166-.117C42.98-9.541,42.971-9.58,42.951-9.58Zm-.84.205c-.049.02-.068.039-.078.068s.01.039.029.039h.059A.026.026,0,0,0,42.15-9.3v-.078Zm.615.049-.186.186v.02a.967.967,0,0,0,.234-.156V-9.3C42.775-9.307,42.766-9.316,42.727-9.326Zm7.021.146.049-.01h.02l-.02.059h-.049Zm-7.871-.01c-.02,0-.02,0-.029.02v.029l.02.02c.049-.02.078-.039.078-.049v-.01Zm.576.146c-.049,0-.1.039-.137.107-.127.107-.2.176-.2.215v.02l.01.029a.135.135,0,0,0,.078-.068c.176-.078.264-.176.264-.264v-.02Zm-.752.088c-.02,0-.039.039-.068.107v.01a.167.167,0,0,0,.107-.049C41.74-8.906,41.73-8.926,41.7-8.955Zm7.8.107q0-.029.088-.059h.01v.068c0,.01-.02.029-.059.049h-.029Zm-7.441.176c-.059.039-.088.078-.088.107l.02.01h.029c.059,0,.088-.029.088-.078v-.02c0-.01-.01-.02-.029-.02Zm-.117.225c-.156.059-.234.137-.234.244v.01a1.1,1.1,0,0,0,.254-.176v-.059Zm-.283.3c-.01,0-.02.01-.02.029v.02c0,.02.01.029.02.029l.049-.039c-.01-.029-.02-.039-.029-.039Zm-.381.088c-.02,0-.039.01-.078.039h-.01a.188.188,0,0,1-.1-.029l-.02.02c0,.02.029.068.1.146.078-.059.117-.107.117-.137A.074.074,0,0,0,41.281-8.057Zm.313.039V-8l.01.029A.026.026,0,0,0,41.633-8c0-.01-.01-.02-.029-.02Zm-.1.1c-.029.01-.039.029-.039.039v.039a.021.021,0,0,0,.02.02h.068a.052.052,0,0,0,.029-.039V-7.9c0-.01,0-.02-.02-.02Zm-.127.186c-.039,0-.078.029-.107.1a.158.158,0,0,0,.029.088.181.181,0,0,0,.088-.166Zm-.547.234c-.01,0-.029.029-.039.078a.093.093,0,0,0,.068.059q.059-.044.059-.059v-.02c-.02-.039-.039-.059-.049-.059Zm.361.039c-.078,0-.127.039-.137.137l.01.02c.1-.039.137-.088.137-.156Zm-.244.332a.726.726,0,0,0-.186.244v.029a.263.263,0,0,0,.205-.244v-.029Zm-.391.6a.222.222,0,0,0-.1.186l.01.02c.088-.01.127-.049.127-.107v-.029C40.588-6.5,40.578-6.523,40.549-6.533Zm-.2.049c-.01,0-.02.01-.039.049l.02.059h.01c.02,0,.02-.01.02-.02v-.068Zm.469,2.324c.02,0,.029.01.029.02h-.029Zm.3.6c.068,0,.117.049.146.156C41.2-3.408,41.145-3.457,41.125-3.564Zm-.049.166h.01v.039h-.01Zm.264.088c.127.029.186.078.186.146v.039l-.059.01c-.078-.088-.127-.146-.127-.186Zm.02.225a.036.036,0,0,0,.029-.01c0,.01.01.01.02.01l-.02.029c-.01-.01-.02-.02-.029-.02Zm.2.01.02-.01c0,.01.01.02.02.039v.01h-.029A.074.074,0,0,0,41.555-3.076Zm.234.146h.01V-2.9h-.01Zm.156.156a.273.273,0,0,1,.176.059c-.01.02-.02.039-.039.039-.049,0-.088-.029-.137-.088Zm.742.381.049.01v.01h-.01C42.707-2.373,42.687-2.373,42.687-2.393Zm.645.293c.02.01.029.02.039.02s-.01.02-.029.02l-.02-.01Zm.352.361A.152.152,0,0,1,43.82-1.8h.02v.01c0,.02-.049.039-.146.049Zm-2.861.029a.312.312,0,0,0-.068.01.769.769,0,0,0-.264.42h.029a1.419,1.419,0,0,0,.313-.41Zm3.633.332h.02a.415.415,0,0,0,.117.049h.039l.059-.02c0,.01.029.029.068.078-.029,0-.049.01-.068.01a.918.918,0,0,1-.234-.107Zm.723.254v.02l.088.1a.07.07,0,0,0,.068-.039v-.029c-.02-.029-.029-.049-.049-.049Zm.234.117c-.01,0-.02.01-.029.02v.029a.667.667,0,0,0,.273.166h.02C45.588-.937,45.5-1.006,45.412-1.006Zm1.719.459v.029h.02l.029-.01c0-.01-.01-.02-.029-.02ZM45.705,1.084A.141.141,0,0,0,45.725,1a.734.734,0,0,0,.146-.312c0-.107.039-.166.107-.186a.132.132,0,0,1,.049.1v.02c-.127.313-.234.469-.3.469ZM45.559.742c.049-.117.078-.186.1-.186l-.088.205h-.01Zm-.967.879c.117-.117.215-.186.273-.186.254-.273.41-.42.5-.42,0,.049-.049.117-.146.225a1.377,1.377,0,0,1-.576.4h-.02Zm.791-.352h.029v.01h-.029Zm-1.162.508a.933.933,0,0,0,.254-.088.021.021,0,0,1,.02.02.548.548,0,0,1-.205.078h-.068Zm-.723.2q0-.117.146-.117l.088.02v.01a.3.3,0,0,1-.225.107H43.5Zm-1.8.059.059-.01c.02,0,.068.01.137.02V2.07a.448.448,0,0,0-.1.01c-.01,0-.049-.01-.1-.02Zm.645.088h.02v.01h-.02Z" transform="translate(48.596 15.967)" fill="#9093bb"/></svg>