<?xml version="1.0" encoding="utf-8"?>
<!-- Generator: Adobe Illustrator 25.2.1, SVG Export Plug-In . SVG Version: 6.00 Build 0)  -->
<svg version="1.1" id="レイヤー_1" xmlns="http://www.w3.org/2000/svg" xmlns:xlink="http://www.w3.org/1999/xlink" x="0px"
	 y="0px" viewBox="0 0 1182.7 929" style="enable-background:new 0 0 1182.7 929;" xml:space="preserve">
<style type="text/css">
	.st0{opacity:0.86;}
	.st1{fill:#FFFFFF;}
	.st2{fill:none;stroke:#0C2041;stroke-miterlimit:10;}
	.st3{fill:none;stroke:#0C2041;stroke-width:1.4013;stroke-miterlimit:10;}
	.st4{fill:none;stroke:#0C2041;stroke-width:1.0874;stroke-miterlimit:10;}
	.st5{fill:url(#XMLID_2_);}
	.st6{opacity:0.7;}
	.st7{fill:#C3C3C3;}
	.st8{opacity:0.55;fill:url(#XMLID_3_);enable-background:new    ;}
	.st9{fill:url(#XMLID_4_);}
	.st10{fill:url(#XMLID_5_);}
	.st11{fill:url(#XMLID_6_);}
	.st12{fill:url(#XMLID_7_);}
	.st13{opacity:0.55;fill:url(#XMLID_8_);enable-background:new    ;}
	.st14{fill:url(#XMLID_9_);}
	.st15{fill:url(#XMLID_10_);}
	.st16{fill:url(#XMLID_11_);}
	.st17{fill:url(#XMLID_12_);}
	.st18{opacity:0.55;fill:url(#XMLID_13_);enable-background:new    ;}
	.st19{fill:url(#XMLID_14_);}
	.st20{fill:url(#XMLID_15_);}
	.st21{fill:url(#XMLID_16_);}
	.st22{fill:url(#XMLID_17_);}
	.st23{opacity:0.55;fill:url(#XMLID_18_);enable-background:new    ;}
	.st24{fill:url(#XMLID_19_);}
	.st25{fill:url(#XMLID_20_);}
	.st26{fill:url(#XMLID_21_);}
	.st27{fill:url(#XMLID_22_);}
	.st28{opacity:0.55;fill:url(#XMLID_23_);enable-background:new    ;}
	.st29{fill:url(#XMLID_24_);}
	.st30{fill:url(#XMLID_25_);}
	.st31{fill:url(#XMLID_26_);}
	.st32{fill:url(#XMLID_27_);}
	.st33{opacity:0.55;fill:url(#XMLID_28_);enable-background:new    ;}
	.st34{fill:url(#XMLID_29_);}
	.st35{fill:url(#XMLID_30_);}
	.st36{fill:url(#XMLID_31_);}
	.st37{fill:#38AEE4;}
	.st38{opacity:0.55;fill:url(#XMLID_32_);enable-background:new    ;}
	.st39{fill:url(#XMLID_33_);}
	.st40{fill:url(#XMLID_34_);}
	.st41{fill:url(#XMLID_35_);}
	.st42{opacity:0.55;fill:url(#XMLID_36_);enable-background:new    ;}
	.st43{fill:url(#XMLID_37_);}
	.st44{fill:url(#XMLID_38_);}
	.st45{fill:url(#XMLID_39_);}
	.st46{fill:#F9DA00;}
	.st47{opacity:0.55;fill:url(#XMLID_40_);enable-background:new    ;}
	.st48{fill:url(#XMLID_41_);}
	.st49{fill:url(#XMLID_42_);}
	.st50{fill:url(#XMLID_43_);}
	.st51{fill:url(#XMLID_44_);}
	.st52{fill:url(#XMLID_45_);}
	.st53{fill:url(#XMLID_46_);}
	.st54{fill:url(#XMLID_47_);}
	.st55{fill:url(#XMLID_48_);}
	.st56{fill:url(#XMLID_49_);}
	.st57{fill:url(#XMLID_50_);}
	.st58{fill:url(#XMLID_51_);}
	.st59{opacity:0.55;fill:url(#XMLID_52_);enable-background:new    ;}
	.st60{fill:url(#XMLID_53_);}
	.st61{fill:url(#XMLID_54_);}
	.st62{fill:url(#XMLID_55_);}
	.st63{fill:url(#XMLID_56_);}
	.st64{fill:url(#XMLID_57_);}
	.st65{fill:#2D4369;}
</style>
<g class="st0">
	<path class="st1" d="M69.7,122.5h5.6c0,6.4,0.2,18.5,9,18.5c2.1,0,3.9-0.4,4.9-0.9l28.1-9.5V83.2l-20.2-6.9
		c-0.6-0.2-3.9-1.3-7.1-1.3c-14.4,0-14.8,15.9-14.8,23.4h-5.6V42.4h5.6c0,7.5,0.2,20.8,14.2,25.6l137.1,46.6v6.9L91.1,168.5
		c-9.7,3.4-15.5,11.2-15.9,21.9h-5.6V122.5z M187.2,107l-64.2-21.9v43.6L187.2,107z"/>
	<path class="st1" d="M67.5,241.1c0-14.6,9.9-39.7,47.7-39.7c39.1,0,53.1,26.4,53.1,44.5c0,17.2-13.3,26.4-23.4,26.4
		c-7.3,0-14.2-5.4-14.2-14c0-8.2,6-14.4,12.9-14.4c0.9,0,6.9,0,11.4,5.2c1.3,1.5,2.1,2.4,3.9,2.4c2.6,0,3.4-3,3.4-5.4
		c0-16.8-32-17.4-44-17.4c-9,0-39.5,0-39.5,19.6c0,12,10.7,18.9,14.2,21.3l-3.4,4.1C82.6,269.5,67.5,260.5,67.5,241.1z"/>
	<path class="st1" d="M67.5,322.8c0-13.8,9-23.6,26.9-23.6h66.4v-16.3h5.6c0.6,6.4,1.7,14.2,14.2,23.4c9.9,7.1,18,8.4,24.1,9.5v7.3
		h-38.2v24.9h-5.6V323H89.6c-6.7,0-10.5,3.9-10.5,8.6c0,1.7,1.7,9,18.7,12.5v5.6C85.1,346.8,67.5,343,67.5,322.8z"/>
	<path class="st1" d="M69.7,356.9h5.6c0,3.4,0,11.6,10.5,11.6h64.5c5.8,0,10.5-3.9,10.5-9.7v-3h5.6l1.9,36.5H85.8
		c-9.5,0-10.5,8.6-10.5,12.7h-5.6V356.9z M196,379.9c0-8.8,7.1-16.3,16.3-16.3c9.5,0,16.1,7.7,16.1,16.3c0,8.4-6.7,16.1-16.1,16.1
		C203.1,396,196,388.5,196,379.9z"/>
	<path class="st1" d="M149.2,496.4l-81.6-31.6v-4.9l84-32.2c9.2-3.4,9.2-8.4,9.2-12.2h5.6V462h-5.6v-3c0-2.4-0.6-6.4-4.5-6.4
		c-1.1,0-4.5,0.9-5.8,1.3l-49.2,18l48.8,18.7c1.5,0.6,3,1.1,4.7,1.1c2.8,0,6-2.4,6-7.3v-6.4h5.6v35.7h-5.6
		C160.8,508.4,160.8,500.9,149.2,496.4z"/>
	<path class="st1" d="M69.7,524.1h5.6c0,3.4,0,11.6,10.5,11.6h64.5c5.8,0,10.5-3.9,10.5-9.7v-3h5.6l1.9,36.5H85.8
		c-9.5,0-10.5,8.6-10.5,12.7h-5.6V524.1z M196,547.1c0-8.8,7.1-16.3,16.3-16.3c9.5,0,16.1,7.7,16.1,16.3c0,8.4-6.7,16.1-16.1,16.1
		C203.1,563.2,196,555.7,196,547.1z"/>
	<path class="st1" d="M67.5,621.2c0-13.8,9-23.6,26.9-23.6h66.4v-16.3h5.6c0.6,6.4,1.7,14.2,14.2,23.4c9.9,7.1,18,8.4,24.1,9.5v7.3
		h-38.2v24.9h-5.6v-24.9H89.6c-6.7,0-10.5,3.9-10.5,8.6c0,1.7,1.7,9,18.7,12.5v5.6C85.1,645.3,67.5,641.4,67.5,621.2z"/>
	<path class="st1" d="M69.7,655.4h5.6c0,3.4,0,11.6,10.5,11.6h64.5c5.8,0,10.5-3.9,10.5-9.7v-3h5.6l1.9,36.5H85.8
		c-9.5,0-10.5,8.6-10.5,12.7h-5.6V655.4z M196,678.3c0-8.8,7.1-16.3,16.3-16.3c9.5,0,16.1,7.7,16.1,16.3c0,8.4-6.7,16.1-16.1,16.1
		C203.1,694.5,196,686.9,196,678.3z"/>
	<path class="st1" d="M117.8,742.8c-4.3,0-22.8,0-32.4,9.2c-4.1,4.1-6.7,9.7-6.7,15.3c0,12,11.2,21.3,15,24.5l-4.3,3.4
		c-7.9-6.4-21.9-17.2-21.9-37.6c0-22.1,17.4-42.1,47.7-42.1c28.8,0,53.1,17.4,53.1,43c0,11.8-5.2,22.6-17.4,30.5
		c-12,7.9-23.4,8.8-33.1,9.7V742.8z M162.3,758.9c0-14.4-24.5-15.5-38.9-15.9v29.9C141.6,772.7,162.3,772.5,162.3,758.9z"/>
	<path class="st1" d="M67.5,853.9c0-2.8,0.6-10.7,6.9-22.3c1.1-2.1,1.3-3,1.3-4.1c0-5.2-3.9-6.4-8.2-8v-5.6H106v5.6
		c-6.9,2.4-16.5,5.6-24.9,16.1c-4.5,5.8-7.5,11.8-7.5,18.3c0,7.9,5.2,15,14.6,15c9.5,0,13.1-7.3,18.7-25.1
		c3.4-10.5,9.9-29.9,31.4-29.9c17,0,30.1,12.9,30.1,28.6c0,7.9-3.2,15-5.6,19.8c-0.6,1.5-1.1,2.4-1.1,3.9c0,2.8,1.5,4.3,6.7,6.4v5.6
		H135v-5.6c6.7-2.1,14.2-4.3,21.3-12.9c4.9-5.8,6-12.2,6-16.8c0-9.5-5.2-16.1-13.1-16.1c-7.7,0-11.8,6.2-18,26
		c-3.9,11.8-10.5,29.9-31.6,29.9C80.8,882.7,67.5,868.7,67.5,853.9z"/>
</g>
<polyline class="st2" points="689.9,313.8 783.1,207.4 948.2,207.4 "/>
<polyline class="st3" points="762.9,474.7 849.4,699.7 1002.8,699.7 "/>
<polyline class="st2" points="518.9,650.3 425.8,756.7 260.7,756.7 "/>
<polyline class="st4" points="424.6,307.8 331.5,181.9 166.3,181.9 "/>
<g id="XMLID_13132_">
	
		<linearGradient id="XMLID_2_" gradientUnits="userSpaceOnUse" x1="569.5137" y1="439.1612" x2="607.4727" y2="439.1612" gradientTransform="matrix(1 0 0 -1 0 893.0435)">
		<stop  offset="0" style="stop-color:#ECA900"/>
		<stop  offset="1" style="stop-color:#E89A00"/>
	</linearGradient>
	<path id="XMLID_13131_" class="st5" d="M588.5,434.8c10.5,0,19,8.5,19,19c0,10.5-8.5,19-19,19c-10.5,0-19-8.5-19-19
		C569.5,443.4,578,434.8,588.5,434.8z"/>
	<g id="XMLID_13242_" class="st6">
		<polygon id="XMLID_13130_" class="st7" points="516.9,357.2 453.5,445.6 452,444.5 515.4,356.1 		"/>
		<polygon id="XMLID_13129_" class="st7" points="416.4,567.2 514.1,654 512.5,655.7 414.8,569 		"/>
		
			<rect id="XMLID_13128_" x="408.2" y="384.4" transform="matrix(0.6278 -0.7783 0.7783 0.6278 -181.7863 478.0524)" class="st7" width="1.7" height="89.4"/>
		<polygon id="XMLID_13127_" class="st7" points="649.6,373 739.6,467.6 737.9,469.3 647.9,374.7 		"/>
		<polygon id="XMLID_13126_" class="st7" points="694,616.4 570.1,658.3 569.3,655.8 693.1,613.8 		"/>
		<polygon id="XMLID_13125_" class="st7" points="734.3,470 625.4,541.7 623.9,539.4 732.9,467.7 		"/>
	</g>
	
		<radialGradient id="XMLID_3_" cx="-3560.2527" cy="17859.2207" r="74.941" gradientTransform="matrix(1.2255 0 0 -0.2231 4947.7563 4526.1685)" gradientUnits="userSpaceOnUse">
		<stop  offset="0.1227" style="stop-color:#717273"/>
		<stop  offset="0.2365" style="stop-color:#777979;stop-opacity:0.8702"/>
		<stop  offset="0.3949" style="stop-color:#898B8A;stop-opacity:0.6897"/>
		<stop  offset="0.5795" style="stop-color:#A8A9A8;stop-opacity:0.4794"/>
		<stop  offset="0.7837" style="stop-color:#D2D3D2;stop-opacity:0.2465"/>
		<stop  offset="1" style="stop-color:#FFFFFF;stop-opacity:0"/>
	</radialGradient>
	<path id="XMLID_13123_" class="st8" d="M679.7,541c0,8.9-42.6,16.1-95,16.1c-52.5,0-95-7.2-95-16.1c0-8.9,42.6-16.1,95-16.1
		C637.2,524.8,679.7,532.1,679.7,541z"/>
	
		<linearGradient id="XMLID_4_" gradientUnits="userSpaceOnUse" x1="-390.0907" y1="883.3081" x2="-253.218" y2="868.9222" gradientTransform="matrix(1 0 0 -1 908.79 1415.5123)">
		<stop  offset="0" style="stop-color:#B8B8B8"/>
		<stop  offset="0.5399" style="stop-color:#9A9B9A"/>
		<stop  offset="1" style="stop-color:#BFBFBE"/>
	</linearGradient>
	<path id="XMLID_13122_" class="st9" d="M655.8,538.9v-5.2h-7v1.9c-11.4-3.2-34.6-5.4-61.4-5.4c-29.3,0-54.3,2.6-64.3,6.3v-3.9h-4.4
		v6.7c-0.2,0.3-0.2,0.5-0.2,0.8c0,5.4,30.9,9.9,68.9,9.9c38.1,0,68.9-4.4,68.9-9.9C656.2,539.7,656.1,539.3,655.8,538.9z"/>
	
		<linearGradient id="XMLID_5_" gradientUnits="userSpaceOnUse" x1="-321.7654" y1="892.1655" x2="-320.6681" y2="871.227" gradientTransform="matrix(1 0 0 -1 908.79 1415.5123)">
		<stop  offset="0" style="stop-color:#FFFFFF"/>
		<stop  offset="1" style="stop-color:#E7E8E9"/>
	</linearGradient>
	<path id="XMLID_13121_" class="st10" d="M587.6,524c38.1,0,68.9,4.4,68.9,9.9c0,5.4-30.9,9.9-68.9,9.9c-38.1,0-68.9-4.4-68.9-9.9
		C518.7,528.4,549.5,524,587.6,524z"/>
	
		<linearGradient id="XMLID_6_" gradientUnits="userSpaceOnUse" x1="-324.6179" y1="942.3539" x2="-318.5342" y2="884.4709" gradientTransform="matrix(1 0 0 -1 908.79 1415.5123)">
		<stop  offset="0" style="stop-color:#ECA900"/>
		<stop  offset="1" style="stop-color:#E89A00"/>
	</linearGradient>
	<path id="XMLID_13120_" class="st11" d="M602.9,474.4H599l-10.8,6l-10.4-6h-4.2c-12.9,0-23.3,11.5-23.3,25.6v20.1v4.1
		c0,0,9.7,6.7,37.2,6.4c27.4-0.2,38.7-6.4,38.7-6.4v-4.4V500C626.1,485.9,615.7,474.4,602.9,474.4z"/>
	
		<linearGradient id="XMLID_7_" gradientUnits="userSpaceOnUse" x1="-15.9372" y1="-70.5277" x2="13.3702" y2="-70.5277" gradientTransform="matrix(1 0 0 1 454.395 461.6646)">
		<stop  offset="0" style="stop-color:#14A2B9"/>
		<stop  offset="0.9939" style="stop-color:#089EB6"/>
	</linearGradient>
	<ellipse id="XMLID_13119_" class="st12" cx="453.1" cy="391.1" rx="14.7" ry="14.7"/>
	
		<radialGradient id="XMLID_8_" cx="-5001.3789" cy="22873.6816" r="74.9404" gradientTransform="matrix(0.9463 0 0 -0.1724 5182.5586 4400.3047)" gradientUnits="userSpaceOnUse">
		<stop  offset="0.1227" style="stop-color:#717273"/>
		<stop  offset="0.2365" style="stop-color:#777979;stop-opacity:0.8702"/>
		<stop  offset="0.3949" style="stop-color:#898B8A;stop-opacity:0.6897"/>
		<stop  offset="0.5795" style="stop-color:#A8A9A8;stop-opacity:0.4794"/>
		<stop  offset="0.7837" style="stop-color:#D2D3D2;stop-opacity:0.2465"/>
		<stop  offset="1" style="stop-color:#FFFFFF;stop-opacity:0"/>
	</radialGradient>
	<path id="XMLID_13118_" class="st13" d="M523.5,458.4c0,6.9-32.9,12.4-73.4,12.4c-40.5,0-73.4-5.6-73.4-12.4
		c0-6.9,32.9-12.4,73.4-12.4C490.7,445.9,523.5,451.5,523.5,458.4z"/>
	
		<linearGradient id="XMLID_9_" gradientUnits="userSpaceOnUse" x1="-509.5639" y1="963.9071" x2="-403.8913" y2="952.8005" gradientTransform="matrix(1 0 0 -1 908.79 1415.5123)">
		<stop  offset="0" style="stop-color:#B8B8B8"/>
		<stop  offset="0.5399" style="stop-color:#9A9B9A"/>
		<stop  offset="1" style="stop-color:#BFBFBE"/>
	</linearGradient>
	<path id="XMLID_13117_" class="st14" d="M505,456.8v-4h-5.4v1.5c-8.8-2.5-26.7-4.2-47.4-4.2c-22.6,0-41.9,2-49.6,4.9v-3.1h-3.4v5.2
		c-0.1,0.2-0.2,0.4-0.2,0.6c0,4.2,23.8,7.6,53.2,7.6c29.4,0,53.2-3.4,53.2-7.6C505.4,457.4,505.3,457.1,505,456.8z"/>
	
		<linearGradient id="XMLID_10_" gradientUnits="userSpaceOnUse" x1="-456.8137" y1="970.7421" x2="-455.9668" y2="954.5792" gradientTransform="matrix(1 0 0 -1 908.79 1415.5123)">
		<stop  offset="0" style="stop-color:#FFFFFF"/>
		<stop  offset="1" style="stop-color:#E7E8E9"/>
	</linearGradient>
	<ellipse id="XMLID_13116_" class="st15" cx="452.4" cy="452.9" rx="53.2" ry="7.6"/>
	
		<linearGradient id="XMLID_11_" gradientUnits="userSpaceOnUse" x1="-459.0166" y1="1009.4937" x2="-454.3193" y2="964.8015" gradientTransform="matrix(1 0 0 -1 908.79 1415.5123)">
		<stop  offset="0" style="stop-color:#14A2B9"/>
		<stop  offset="0.9939" style="stop-color:#089EB6"/>
	</linearGradient>
	<path id="XMLID_13115_" class="st16" d="M464.2,407h-3l-8.3,4.7l-8-4.7h-3.3c-9.9,0-18,8.9-18,19.8v15.5v3.1c0,0,7.5,5.1,28.7,4.9
		c21.2-0.2,29.9-4.9,29.9-4.9V442v-15.2C482.2,415.8,474.1,407,464.2,407z"/>
	
		<linearGradient id="XMLID_12_" gradientUnits="userSpaceOnUse" x1="270.6054" y1="-46.51" x2="297.4192" y2="-46.51" gradientTransform="matrix(1 0 0 1 454.395 461.6646)">
		<stop  offset="0" style="stop-color:#8A1475"/>
		<stop  offset="1" style="stop-color:#781878"/>
	</linearGradient>
	<path id="XMLID_13114_" class="st17" d="M738.4,401.7c7.4,0,13.4,6,13.4,13.4c0,7.4-6,13.4-13.4,13.4c-7.4,0-13.4-6-13.4-13.4
		C725,407.7,731,401.7,738.4,401.7z"/>
	
		<radialGradient id="XMLID_13_" cx="-4699.5894" cy="22767.4238" r="68.5753" gradientTransform="matrix(0.9463 0 0 -0.1724 5182.5586 4400.3047)" gradientUnits="userSpaceOnUse">
		<stop  offset="0.1227" style="stop-color:#717273"/>
		<stop  offset="0.2365" style="stop-color:#777979;stop-opacity:0.8702"/>
		<stop  offset="0.3949" style="stop-color:#898B8A;stop-opacity:0.6897"/>
		<stop  offset="0.5795" style="stop-color:#A8A9A8;stop-opacity:0.4794"/>
		<stop  offset="0.7837" style="stop-color:#D2D3D2;stop-opacity:0.2465"/>
		<stop  offset="1" style="stop-color:#FFFFFF;stop-opacity:0"/>
	</radialGradient>
	<path id="XMLID_13113_" class="st18" d="M802.9,476.7c0,6.3-30.1,11.4-67.1,11.4c-37.1,0-67.1-5.1-67.1-11.4
		c0-6.3,30.1-11.4,67.1-11.4C772.8,465.3,802.9,470.4,802.9,476.7z"/>
	
		<linearGradient id="XMLID_14_" gradientUnits="userSpaceOnUse" x1="-219.6956" y1="945.0262" x2="-122.9974" y2="934.8629" gradientTransform="matrix(1 0 0 -1 908.79 1415.5123)">
		<stop  offset="0" style="stop-color:#B8B8B8"/>
		<stop  offset="0.5399" style="stop-color:#9A9B9A"/>
		<stop  offset="1" style="stop-color:#BFBFBE"/>
	</linearGradient>
	<path id="XMLID_13112_" class="st19" d="M785.9,475.2v-3.7H781v1.4c-8.1-2.3-24.5-3.8-43.4-3.8c-20.7,0-38.3,1.8-45.4,4.4v-2.8
		h-3.1v4.7c-0.1,0.2-0.2,0.4-0.2,0.6c0,3.8,21.8,7,48.7,7s48.7-3.1,48.7-7C786.3,475.8,786.1,475.5,785.9,475.2z"/>
	
		<linearGradient id="XMLID_15_" gradientUnits="userSpaceOnUse" x1="-171.4231" y1="951.2811" x2="-170.6479" y2="936.4927" gradientTransform="matrix(1 0 0 -1 908.79 1415.5123)">
		<stop  offset="0" style="stop-color:#FFFFFF"/>
		<stop  offset="1" style="stop-color:#E7E8E9"/>
	</linearGradient>
	<path id="XMLID_13111_" class="st20" d="M786.4,471.6c0,3.8-21.8,7-48.7,7c-26.9,0-48.7-3.1-48.7-7c0-3.8,21.8-7,48.7-7
		C764.6,464.7,786.4,467.8,786.4,471.6z"/>
	
		<linearGradient id="XMLID_16_" gradientUnits="userSpaceOnUse" x1="-173.437" y1="986.741" x2="-169.1388" y2="945.8459" gradientTransform="matrix(1 0 0 -1 908.79 1415.5123)">
		<stop  offset="0" style="stop-color:#8A1475"/>
		<stop  offset="1" style="stop-color:#781878"/>
	</linearGradient>
	<path id="XMLID_13110_" class="st21" d="M748.5,429.6h-2.8l-7.6,4.3l-7.4-4.3h-3c-9.1,0-16.5,8.1-16.5,18.1v14.2v2.9
		c0,0,6.9,4.7,26.3,4.5c19.4-0.2,27.4-4.5,27.4-4.5v-3.1v-13.9C765,437.8,757.6,429.6,748.5,429.6z"/>
	
		<linearGradient id="XMLID_17_" gradientUnits="userSpaceOnUse" x1="81.3145" y1="135.3132" x2="108.1314" y2="135.3132" gradientTransform="matrix(1 0 0 1 454.395 461.6646)">
		<stop  offset="0" style="stop-color:#B8CF00"/>
		<stop  offset="1" style="stop-color:#96BF1C"/>
	</linearGradient>
	<ellipse id="XMLID_13109_" class="st22" cx="549.1" cy="597" rx="13.4" ry="13.4"/>
	
		<radialGradient id="XMLID_18_" cx="-4899.646" cy="21712.0391" r="68.574" gradientTransform="matrix(0.9463 0 0 -0.1724 5182.5586 4400.3047)" gradientUnits="userSpaceOnUse">
		<stop  offset="0.1227" style="stop-color:#717273"/>
		<stop  offset="0.2365" style="stop-color:#777979;stop-opacity:0.8702"/>
		<stop  offset="0.3949" style="stop-color:#898B8A;stop-opacity:0.6897"/>
		<stop  offset="0.5795" style="stop-color:#A8A9A8;stop-opacity:0.4794"/>
		<stop  offset="0.7837" style="stop-color:#D2D3D2;stop-opacity:0.2465"/>
		<stop  offset="1" style="stop-color:#FFFFFF;stop-opacity:0"/>
	</radialGradient>
	<path id="XMLID_13108_" class="st23" d="M613.6,658.5c0,6.3-30.1,11.4-67.1,11.4c-37.1,0-67.2-5.1-67.2-11.4
		c0-6.3,30.1-11.4,67.2-11.4C583.5,647.1,613.6,652.2,613.6,658.5z"/>
	
		<linearGradient id="XMLID_19_" gradientUnits="userSpaceOnUse" x1="-408.9805" y1="763.2019" x2="-312.2849" y2="753.0388" gradientTransform="matrix(1 0 0 -1 908.79 1415.5123)">
		<stop  offset="0" style="stop-color:#B8B8B8"/>
		<stop  offset="0.5399" style="stop-color:#9A9B9A"/>
		<stop  offset="1" style="stop-color:#BFBFBE"/>
	</linearGradient>
	<path id="XMLID_13107_" class="st24" d="M596.6,657.1v-3.7h-4.9v1.4c-8.1-2.3-24.5-3.8-43.4-3.8c-20.7,0-38.3,1.8-45.4,4.4v-2.8
		h-3.1v4.7c-0.1,0.2-0.2,0.4-0.2,0.6c0,3.8,21.8,7,48.7,7c26.9,0,48.7-3.1,48.7-7C597,657.6,596.9,657.3,596.6,657.1z"/>
	
		<linearGradient id="XMLID_20_" gradientUnits="userSpaceOnUse" x1="-360.71" y1="769.4612" x2="-359.9347" y2="754.6691" gradientTransform="matrix(1 0 0 -1 908.79 1415.5123)">
		<stop  offset="0" style="stop-color:#FFFFFF"/>
		<stop  offset="1" style="stop-color:#E7E8E9"/>
	</linearGradient>
	<ellipse id="XMLID_13106_" class="st25" cx="548.5" cy="653.4" rx="48.7" ry="7"/>
	
		<linearGradient id="XMLID_21_" gradientUnits="userSpaceOnUse" x1="-362.7238" y1="804.9165" x2="-358.4255" y2="764.0207" gradientTransform="matrix(1 0 0 -1 908.79 1415.5123)">
		<stop  offset="0" style="stop-color:#B8CF00"/>
		<stop  offset="1" style="stop-color:#96BF1C"/>
	</linearGradient>
	<path id="XMLID_13105_" class="st26" d="M559.3,611.5h-2.8l-7.6,4.3l-7.4-4.3h-3c-9.1,0-16.5,8.1-16.5,18.1v14.2v2.9
		c0,0,6.9,4.7,26.3,4.5c19.4-0.2,27.4-4.5,27.4-4.5v-3.1v-13.9C575.7,619.6,568.4,611.5,559.3,611.5z"/>
	
		<linearGradient id="XMLID_22_" gradientUnits="userSpaceOnUse" x1="-57.9659" y1="66.0987" x2="-36.9731" y2="66.0987" gradientTransform="matrix(1 0 0 1 454.395 461.6646)">
		<stop  offset="0" style="stop-color:#58A033"/>
		<stop  offset="1" style="stop-color:#007635"/>
	</linearGradient>
	<path id="XMLID_13104_" class="st27" d="M406.9,517.2c5.8,0,10.5,4.7,10.5,10.5c0,5.8-4.7,10.5-10.5,10.5
		c-5.8,0-10.5-4.7-10.5-10.5C396.4,521.9,401.1,517.2,406.9,517.2z"/>
	
		<radialGradient id="XMLID_23_" cx="-6701.1909" cy="28034.9023" r="68.5789" gradientTransform="matrix(0.7406 0 0 -0.135 5368.1846 4359.3799)" gradientUnits="userSpaceOnUse">
		<stop  offset="0.1227" style="stop-color:#717273"/>
		<stop  offset="0.2365" style="stop-color:#777979;stop-opacity:0.8702"/>
		<stop  offset="0.3949" style="stop-color:#898B8A;stop-opacity:0.6897"/>
		<stop  offset="0.5795" style="stop-color:#A8A9A8;stop-opacity:0.4794"/>
		<stop  offset="0.7837" style="stop-color:#D2D3D2;stop-opacity:0.2465"/>
		<stop  offset="1" style="stop-color:#FFFFFF;stop-opacity:0"/>
	</radialGradient>
	<path id="XMLID_13103_" class="st28" d="M457.4,575.9c0,4.9-23.5,8.9-52.6,8.9c-29,0-52.6-4-52.6-8.9c0-4.9,23.5-8.9,52.6-8.9
		C433.8,567,457.4,571,457.4,575.9z"/>
	
		<linearGradient id="XMLID_24_" gradientUnits="userSpaceOnUse" x1="-540.4673" y1="844.4304" x2="-464.7644" y2="836.4738" gradientTransform="matrix(1 0 0 -1 908.79 1415.5123)">
		<stop  offset="0" style="stop-color:#B8B8B8"/>
		<stop  offset="0.5399" style="stop-color:#9A9B9A"/>
		<stop  offset="1" style="stop-color:#BFBFBE"/>
	</linearGradient>
	<path id="XMLID_13102_" class="st29" d="M444.1,574.8v-2.9h-3.9v1.1c-6.3-1.8-19.1-3-34-3c-16.2,0-30,1.4-35.5,3.5v-2.2h-2.4v3.7
		c-0.1,0.1-0.1,0.3-0.1,0.5c0,3,17.1,5.5,38.1,5.5s38.1-2.4,38.1-5.5C444.4,575.2,444.3,575,444.1,574.8z"/>
	
		<linearGradient id="XMLID_25_" gradientUnits="userSpaceOnUse" x1="-502.6784" y1="849.3305" x2="-502.0715" y2="837.7495" gradientTransform="matrix(1 0 0 -1 908.79 1415.5123)">
		<stop  offset="0" style="stop-color:#FFFFFF"/>
		<stop  offset="1" style="stop-color:#E7E8E9"/>
	</linearGradient>
	<path id="XMLID_13101_" class="st30" d="M406.4,566.5c21.1,0,38.1,2.4,38.1,5.4c0,3-17.1,5.5-38.1,5.5c-21.1,0-38.1-2.4-38.1-5.5
		C368.3,569,385.4,566.5,406.4,566.5z"/>
	
		<linearGradient id="XMLID_26_" gradientUnits="userSpaceOnUse" x1="-504.2533" y1="877.0887" x2="-500.8881" y2="845.0713" gradientTransform="matrix(1 0 0 -1 908.79 1415.5123)">
		<stop  offset="0" style="stop-color:#58A033"/>
		<stop  offset="1" style="stop-color:#007635"/>
	</linearGradient>
	<path id="XMLID_13100_" class="st31" d="M414.9,539.1h-2.2l-6,3.3l-5.8-3.3h-2.3c-7.1,0-12.9,6.3-12.9,14.2v11.1v2.2
		c0,0,5.4,3.7,20.6,3.5c15.2-0.1,21.4-3.5,21.4-3.5v-2.4v-10.9C427.8,545.5,422,539.1,414.9,539.1z"/>
	
		<linearGradient id="XMLID_27_" gradientUnits="userSpaceOnUse" x1="181.5403" y1="-131.5537" x2="202.5321" y2="-131.5537" gradientTransform="matrix(1 0 0 1 454.395 461.6646)">
		<stop  offset="0" style="stop-color:#DE2666"/>
		<stop  offset="1" style="stop-color:#D0134E"/>
	</linearGradient>
	<path id="XMLID_13099_" class="st32" d="M646.4,319.6c5.8,0,10.5,4.7,10.5,10.5c0,5.8-4.7,10.5-10.5,10.5
		c-5.8,0-10.5-4.7-10.5-10.5C635.9,324.3,640.6,319.6,646.4,319.6z"/>
	
		<radialGradient id="XMLID_28_" cx="-6377.8394" cy="29500.3223" r="68.5626" gradientTransform="matrix(0.7406 0 0 -0.135 5368.1846 4359.3799)" gradientUnits="userSpaceOnUse">
		<stop  offset="0.1227" style="stop-color:#717273"/>
		<stop  offset="0.2365" style="stop-color:#777979;stop-opacity:0.8702"/>
		<stop  offset="0.3949" style="stop-color:#898B8A;stop-opacity:0.6897"/>
		<stop  offset="0.5795" style="stop-color:#A8A9A8;stop-opacity:0.4794"/>
		<stop  offset="0.7837" style="stop-color:#D2D3D2;stop-opacity:0.2465"/>
		<stop  offset="1" style="stop-color:#FFFFFF;stop-opacity:0"/>
	</radialGradient>
	<path id="XMLID_13098_" class="st33" d="M696.9,378.3c0,4.9-23.5,8.9-52.6,8.9c-29,0-52.6-4-52.6-8.9c0-4.9,23.5-8.9,52.6-8.9
		C673.3,369.4,696.9,373.3,696.9,378.3z"/>
	
		<linearGradient id="XMLID_29_" gradientUnits="userSpaceOnUse" x1="-300.963" y1="1042.0831" x2="-225.2582" y2="1034.1263" gradientTransform="matrix(1 0 0 -1 908.79 1415.5123)">
		<stop  offset="0" style="stop-color:#B8B8B8"/>
		<stop  offset="0.5399" style="stop-color:#9A9B9A"/>
		<stop  offset="1" style="stop-color:#BFBFBE"/>
	</linearGradient>
	<path id="XMLID_13097_" class="st34" d="M683.6,377.1v-2.9h-3.9v1.1c-6.3-1.8-19.2-3-34-3c-16.2,0-30,1.4-35.5,3.5v-2.2h-2.4v3.7
		c-0.1,0.1-0.1,0.3-0.1,0.4c0,3,17.1,5.5,38.1,5.5c21,0,38.1-2.4,38.1-5.5C683.9,377.6,683.8,377.4,683.6,377.1z"/>
	
		<linearGradient id="XMLID_30_" gradientUnits="userSpaceOnUse" x1="-263.1722" y1="1046.9786" x2="-262.5654" y2="1035.4006" gradientTransform="matrix(1 0 0 -1 908.79 1415.5123)">
		<stop  offset="0" style="stop-color:#FFFFFF"/>
		<stop  offset="1" style="stop-color:#E7E8E9"/>
	</linearGradient>
	<ellipse id="XMLID_13096_" class="st35" cx="645.9" cy="374.3" rx="38.1" ry="5.4"/>
	
		<linearGradient id="XMLID_31_" gradientUnits="userSpaceOnUse" x1="-264.75" y1="1074.7426" x2="-261.3849" y2="1042.7256" gradientTransform="matrix(1 0 0 -1 908.79 1415.5123)">
		<stop  offset="0" style="stop-color:#DE2666"/>
		<stop  offset="1" style="stop-color:#D0134E"/>
	</linearGradient>
	<path id="XMLID_13095_" class="st36" d="M654.4,341.5h-2.2l-6,3.3l-5.8-3.3h-2.3c-7.1,0-12.9,6.3-12.9,14.2v11.1v2.2
		c0,0,5.4,3.7,20.6,3.5c15.2-0.1,21.4-3.5,21.4-3.5v-2.5v-10.9C667.3,347.8,661.5,341.5,654.4,341.5z"/>
	<ellipse id="XMLID_13094_" class="st37" cx="710.6" cy="578.1" rx="9.4" ry="9.4"/>
	
		<radialGradient id="XMLID_32_" cx="-7231.0537" cy="31126.123" r="68.5796" gradientTransform="matrix(0.6609 0 0 -0.1204 5487.5859 4368.0151)" gradientUnits="userSpaceOnUse">
		<stop  offset="0.1227" style="stop-color:#717273"/>
		<stop  offset="0.2365" style="stop-color:#777979;stop-opacity:0.8702"/>
		<stop  offset="0.3949" style="stop-color:#898B8A;stop-opacity:0.6897"/>
		<stop  offset="0.5795" style="stop-color:#A8A9A8;stop-opacity:0.4794"/>
		<stop  offset="0.7837" style="stop-color:#D2D3D2;stop-opacity:0.2465"/>
		<stop  offset="1" style="stop-color:#FFFFFF;stop-opacity:0"/>
	</radialGradient>
	<path id="XMLID_13093_" class="st38" d="M755.6,621.1c0,4.4-21,8-46.9,8c-25.9,0-46.9-3.6-46.9-8c0-4.4,21-8,46.9-8
		C734.6,613.1,755.6,616.7,755.6,621.1z"/>
	
		<linearGradient id="XMLID_33_" gradientUnits="userSpaceOnUse" x1="-232.6296" y1="798.751" x2="-165.0897" y2="791.6522" gradientTransform="matrix(1 0 0 -1 908.79 1415.5123)">
		<stop  offset="0" style="stop-color:#B8B8B8"/>
		<stop  offset="0.5399" style="stop-color:#9A9B9A"/>
		<stop  offset="1" style="stop-color:#BFBFBE"/>
	</linearGradient>
	<path id="XMLID_13092_" class="st39" d="M743.8,620.1v-2.6h-3.5v1c-5.6-1.6-17.1-2.7-30.3-2.7c-14.4,0-26.8,1.3-31.7,3.1V617h-2.2
		v3.3c-0.1,0.1-0.1,0.3-0.1,0.4c0,2.7,15.2,4.9,34,4.9c18.8,0,34-2.2,34-4.9C744,620.5,743.9,620.3,743.8,620.1z"/>
	
		<linearGradient id="XMLID_34_" gradientUnits="userSpaceOnUse" x1="-198.9153" y1="803.1217" x2="-198.3738" y2="792.7902" gradientTransform="matrix(1 0 0 -1 908.79 1415.5123)">
		<stop  offset="0" style="stop-color:#FFFFFF"/>
		<stop  offset="1" style="stop-color:#E7E8E9"/>
	</linearGradient>
	<ellipse id="XMLID_13091_" class="st40" cx="710.1" cy="617.6" rx="34" ry="4.9"/>
	
		<linearGradient id="XMLID_35_" gradientUnits="userSpaceOnUse" x1="-200.3218" y1="827.8876" x2="-197.3198" y2="799.325" gradientTransform="matrix(1 0 0 -1 908.79 1415.5123)">
		<stop  offset="0.4049" style="stop-color:#43AFE4"/>
		<stop  offset="1" style="stop-color:#0E7FC3"/>
	</linearGradient>
	<path id="XMLID_13090_" class="st41" d="M717.7,588.2h-1.9l-5.3,3l-5.1-3h-2.1c-6.3,0-11.5,5.7-11.5,12.6v9.9v2
		c0,0,4.8,3.3,18.3,3.2c13.5-0.1,19.1-3.2,19.1-3.2v-2.2v-9.7C729.2,593.9,724,588.2,717.7,588.2z"/>
	<ellipse id="XMLID_13089_" class="st37" cx="525.1" cy="315.6" rx="9.4" ry="9.4"/>
	
		<radialGradient id="XMLID_36_" cx="-7511.793" cy="33307.3438" r="68.5806" gradientTransform="matrix(0.6609 0 0 -0.1204 5487.5859 4368.0151)" gradientUnits="userSpaceOnUse">
		<stop  offset="0.1227" style="stop-color:#717273"/>
		<stop  offset="0.2365" style="stop-color:#777979;stop-opacity:0.8702"/>
		<stop  offset="0.3949" style="stop-color:#898B8A;stop-opacity:0.6897"/>
		<stop  offset="0.5795" style="stop-color:#A8A9A8;stop-opacity:0.4794"/>
		<stop  offset="0.7837" style="stop-color:#D2D3D2;stop-opacity:0.2465"/>
		<stop  offset="1" style="stop-color:#FFFFFF;stop-opacity:0"/>
	</radialGradient>
	<path id="XMLID_13088_" class="st42" d="M570.1,358.6c0,4.4-21,8-46.9,8c-25.9,0-46.9-3.6-46.9-8c0-4.4,21-8,46.9-8
		C549.1,350.6,570.1,354.2,570.1,358.6z"/>
	
		<linearGradient id="XMLID_37_" gradientUnits="userSpaceOnUse" x1="-418.143" y1="1061.2659" x2="-350.6013" y2="1054.167" gradientTransform="matrix(1 0 0 -1 908.79 1415.5123)">
		<stop  offset="0" style="stop-color:#B8B8B8"/>
		<stop  offset="0.5399" style="stop-color:#9A9B9A"/>
		<stop  offset="1" style="stop-color:#BFBFBE"/>
	</linearGradient>
	<path id="XMLID_13087_" class="st43" d="M558.3,357.6V355h-3.5v1c-5.6-1.6-17.1-2.7-30.3-2.7c-14.4,0-26.8,1.3-31.7,3.1v-1.9h-2.2
		v3.3c-0.1,0.1-0.1,0.3-0.1,0.4c0,2.7,15.2,4.9,34,4.9c18.8,0,34-2.2,34-4.9C558.5,357.9,558.4,357.8,558.3,357.6z"/>
	
		<linearGradient id="XMLID_38_" gradientUnits="userSpaceOnUse" x1="-384.4277" y1="1065.6345" x2="-383.8864" y2="1055.3052" gradientTransform="matrix(1 0 0 -1 908.79 1415.5123)">
		<stop  offset="0" style="stop-color:#FFFFFF"/>
		<stop  offset="1" style="stop-color:#E7E8E9"/>
	</linearGradient>
	<ellipse id="XMLID_13086_" class="st44" cx="524.6" cy="355" rx="34" ry="4.9"/>
	
		<linearGradient id="XMLID_39_" gradientUnits="userSpaceOnUse" x1="-385.8359" y1="1090.4004" x2="-382.8338" y2="1061.8368" gradientTransform="matrix(1 0 0 -1 908.79 1415.5123)">
		<stop  offset="0.4049" style="stop-color:#43AFE4"/>
		<stop  offset="1" style="stop-color:#0E7FC3"/>
	</linearGradient>
	<path id="XMLID_13085_" class="st45" d="M532.2,325.7h-1.9l-5.3,3l-5.1-3h-2.1c-6.4,0-11.5,5.7-11.5,12.6v9.9v2
		c0,0,4.8,3.3,18.3,3.2c13.5-0.1,19.1-3.2,19.1-3.2v-2.2v-9.7C543.7,331.4,538.5,325.7,532.2,325.7z"/>
	<path id="XMLID_13084_" class="st46" d="M576,359.8c5.2,0,9.4,4.2,9.4,9.4c0,5.2-4.2,9.4-9.4,9.4c-5.2,0-9.4-4.2-9.4-9.4
		C566.6,364,570.8,359.8,576,359.8z"/>
	
		<radialGradient id="XMLID_40_" cx="-7300.0928" cy="32555.7656" r="68.5653" gradientTransform="matrix(0.6616 0 0 -0.1204 5403.7266 4332.3369)" gradientUnits="userSpaceOnUse">
		<stop  offset="0.1227" style="stop-color:#717273"/>
		<stop  offset="0.2365" style="stop-color:#777979;stop-opacity:0.8702"/>
		<stop  offset="0.3949" style="stop-color:#898B8A;stop-opacity:0.6897"/>
		<stop  offset="0.5795" style="stop-color:#A8A9A8;stop-opacity:0.4794"/>
		<stop  offset="0.7837" style="stop-color:#D2D3D2;stop-opacity:0.2465"/>
		<stop  offset="1" style="stop-color:#FFFFFF;stop-opacity:0"/>
	</radialGradient>
	<path id="XMLID_13083_" class="st47" d="M621,412.2c0,4.4-21,8-46.9,8c-25.9,0-46.9-3.6-46.9-8c0-4.4,21-8,46.9-8
		C600,404.2,621,407.8,621,412.2z"/>
	
		<linearGradient id="XMLID_41_" gradientUnits="userSpaceOnUse" x1="-367.3001" y1="1007.6298" x2="-299.6993" y2="1000.5248" gradientTransform="matrix(1 0 0 -1 908.79 1415.5123)">
		<stop  offset="0" style="stop-color:#B8B8B8"/>
		<stop  offset="0.5399" style="stop-color:#9A9B9A"/>
		<stop  offset="1" style="stop-color:#BFBFBE"/>
	</linearGradient>
	<path id="XMLID_13082_" class="st48" d="M609.2,411.2v-2.6h-3.5v1c-5.6-1.6-17.1-2.7-30.3-2.7c-14.4,0-26.8,1.3-31.7,3.1v-1.9h-2.2
		v3.3c-0.1,0.1-0.1,0.3-0.1,0.4c0,2.7,15.2,4.9,34,4.9c18.8,0,34-2.2,34-4.9C609.4,411.6,609.3,411.4,609.2,411.2z"/>
	
		<linearGradient id="XMLID_42_" gradientUnits="userSpaceOnUse" x1="-333.5533" y1="1012.0052" x2="-333.0114" y2="1001.6668" gradientTransform="matrix(1 0 0 -1 908.79 1415.5123)">
		<stop  offset="0" style="stop-color:#FFFFFF"/>
		<stop  offset="1" style="stop-color:#E7E8E9"/>
	</linearGradient>
	<path id="XMLID_13081_" class="st49" d="M575.5,403.8c18.8,0,34,2.2,34,4.9c0,2.7-15.2,4.9-34,4.9c-18.8,0-34-2.2-34-4.9
		C541.5,406,556.7,403.8,575.5,403.8z"/>
	<path id="XMLID_13080_" class="st46" d="M583.1,379.3h-1.9l-5.3,3l-5.1-3h-2.1c-6.4,0-11.5,5.7-11.5,12.7v9.9v2
		c0,0,4.8,3.3,18.4,3.2c13.5-0.1,19.1-3.2,19.1-3.2v-2.2V392C594.6,385,589.4,379.3,583.1,379.3z"/>
	
		<linearGradient id="XMLID_43_" gradientUnits="userSpaceOnUse" x1="-145.9723" y1="1470.0214" x2="-67.2264" y2="1470.0214" gradientTransform="matrix(0.9963 0 0 -0.7738 515.0229 1473.549)">
		<stop  offset="0" style="stop-color:#14A2B9"/>
		<stop  offset="0.9939" style="stop-color:#089EB6"/>
	</linearGradient>
	<path id="XMLID_13079_" class="st50" d="M434.8,297h-52c-7.3,0-13.2,6.2-13.2,13.8v30.1c0,6.3,5.9,11.5,13.2,11.5h25.9
		c-0.7,11.7,7.4,21.6,18.6,22.6c0.9,0.1,1.8,0.1,2.7,0c-7.4-3.3-12-11.4-11-20.3c0.1-0.8,0.2-1.6,0.4-2.3h15.3
		c7.3,0,13.2-5.1,13.2-11.5v-30.1C448,303.2,442.1,297,434.8,297z"/>
	
		<linearGradient id="XMLID_44_" gradientUnits="userSpaceOnUse" x1="2004.2329" y1="1432.7948" x2="2068.7485" y2="1432.7948" gradientTransform="matrix(-0.9963 0 0 -0.7738 2799.1609 1473.549)">
		<stop  offset="0" style="stop-color:#8A1475"/>
		<stop  offset="1" style="stop-color:#781878"/>
	</linearGradient>
	<path id="XMLID_13078_" class="st51" d="M748.9,332.9h42.6c6,0,10.8,5.1,10.8,11.3v24.7c0,5.2-4.9,9.4-10.8,9.4h-21.3
		c0.5,9.5-6.1,17.7-15.3,18.5c-0.8,0.1-1.5,0.1-2.2,0c6-2.7,9.9-9.3,9-16.7c-0.1-0.6-0.2-1.3-0.3-1.9h-12.6c-6,0-10.8-4.2-10.8-9.4
		v-24.7C738.1,337.9,742.9,332.9,748.9,332.9z"/>
	
		<linearGradient id="XMLID_45_" gradientUnits="userSpaceOnUse" x1="2036.0765" y1="1185.3898" x2="2084.4954" y2="1185.3898" gradientTransform="matrix(-0.9963 0 0 -0.7738 2799.1609 1473.549)">
		<stop  offset="0" style="stop-color:#38A1DB"/>
		<stop  offset="1" style="stop-color:#1D91D0"/>
	</linearGradient>
	<path id="XMLID_13077_" class="st52" d="M730.5,532.3h32c4.5,0,8.1,3.8,8.1,8.5v18.5c0,3.9-3.6,7.1-8.1,7.1h-15.9
		c0.4,7.2-4.6,13.3-11.4,13.9c-0.6,0-1.1,0.1-1.7,0c4.5-2,7.4-7,6.8-12.5c-0.1-0.5-0.1-1-0.2-1.4h-9.4c-4.5,0-8.1-3.2-8.1-7.1v-18.5
		C722.4,536.1,726,532.3,730.5,532.3z"/>
	
		<linearGradient id="XMLID_46_" gradientUnits="userSpaceOnUse" x1="-159.0831" y1="1265.5308" x2="-110.66" y2="1265.5308" gradientTransform="matrix(0.9963 0 0 -0.7738 515.192 1473.549)">
		<stop  offset="0" style="stop-color:#58A033"/>
		<stop  offset="1" style="stop-color:#007635"/>
	</linearGradient>
	<path id="XMLID_13076_" class="st53" d="M396.8,470.3h-32c-4.5,0-8.1,3.8-8.1,8.5v18.5c0,3.9,3.6,7,8.1,7h15.9
		c-0.4,7.2,4.6,13.3,11.5,13.9c0.6,0,1.1,0.1,1.7,0c-4.5-2-7.4-7-6.8-12.5c0.1-0.5,0.1-1,0.2-1.4h9.4c4.5,0,8.1-3.2,8.1-7v-18.5
		C404.9,474.1,401.3,470.3,396.8,470.3z"/>
	
		<linearGradient id="XMLID_47_" gradientUnits="userSpaceOnUse" x1="116.8571" y1="1339.4346" x2="165.2801" y2="1339.4346" gradientTransform="matrix(0.9963 0 0 -0.7738 515.192 1473.549)">
		<stop  offset="0" style="stop-color:#8A1475"/>
		<stop  offset="1" style="stop-color:#781878"/>
	</linearGradient>
	<path id="XMLID_13075_" class="st54" d="M671.7,413.1h-32c-4.5,0-8.1,3.8-8.1,8.5v18.5c0,3.9,3.6,7,8.1,7h15.9
		c-0.4,7.2,4.6,13.3,11.5,13.9c0.6,0,1.1,0.1,1.7,0c-4.5-2-7.4-7-6.8-12.5c0.1-0.5,0.1-1,0.2-1.4h9.4c4.5,0,8.1-3.2,8.1-7v-18.5
		C679.9,416.9,676.2,413.1,671.7,413.1z"/>
	
		<linearGradient id="XMLID_48_" gradientUnits="userSpaceOnUse" x1="-50.9415" y1="1165.9865" x2="-2.5205" y2="1165.9865" gradientTransform="matrix(0.9963 0 0 -0.7738 515.192 1473.549)">
		<stop  offset="0" style="stop-color:#B8CF00"/>
		<stop  offset="1" style="stop-color:#96BF1C"/>
	</linearGradient>
	<path id="XMLID_13074_" class="st55" d="M504.5,547.3h-32c-4.5,0-8.1,3.8-8.1,8.5v18.5c0,3.9,3.6,7,8.1,7h15.9
		c-0.4,7.2,4.6,13.3,11.4,13.9c0.6,0,1.1,0.1,1.7,0c-4.5-2-7.4-7-6.8-12.5c0.1-0.5,0.1-1,0.2-1.4h9.4c4.5,0,8.1-3.2,8.1-7v-18.5
		C512.7,551.1,509,547.3,504.5,547.3z"/>
	
		<linearGradient id="XMLID_49_" gradientUnits="userSpaceOnUse" x1="2200.1853" y1="1514.465" x2="2248.6042" y2="1514.465" gradientTransform="matrix(-0.9963 0 0 -0.7738 2799.1609 1473.549)">
		<stop  offset="0" style="stop-color:#38A1DB"/>
		<stop  offset="1" style="stop-color:#1D91D0"/>
	</linearGradient>
	<path id="XMLID_13073_" class="st56" d="M567,277.7h32c4.5,0,8.1,3.8,8.1,8.5v18.5c0,3.9-3.6,7.1-8.1,7.1H583
		c0.4,7.2-4.6,13.3-11.4,13.9c-0.6,0-1.1,0.1-1.7,0c4.5-2,7.4-7,6.8-12.5c-0.1-0.5-0.1-1-0.2-1.4H567c-4.5,0-8.1-3.2-8.1-7.1v-18.5
		C558.9,281.5,562.5,277.7,567,277.7z"/>
	
		<linearGradient id="XMLID_50_" gradientUnits="userSpaceOnUse" x1="2181.4661" y1="1134.9943" x2="2214.0286" y2="1134.9943" gradientTransform="matrix(-0.9963 0 0 -0.7738 2799.1609 1473.549)">
		<stop  offset="0" style="stop-color:#B8CF00"/>
		<stop  offset="1" style="stop-color:#96BF1C"/>
	</linearGradient>
	<path id="XMLID_13072_" class="st57" d="M598.8,579.2h21.5c3,0,5.5,2.5,5.5,5.7v12.4c0,2.6-2.5,4.7-5.5,4.7h-10.7
		c0.3,4.8-3.1,8.9-7.7,9.4c-0.4,0-0.8,0-1.1,0c3-1.4,5-4.7,4.6-8.4c0-0.3-0.1-0.6-0.2-1h-6.3c-3,0-5.5-2.1-5.5-4.7v-12.4
		C593.3,581.7,595.8,579.2,598.8,579.2z"/>
	<path id="XMLID_13183_" class="st1" d="M768.2,342.8c7.7-1.3,13.2,4.5,13.3,11.7c0.1,7.2-5.6,13.1-12.4,12.4
		c-6.2-0.6-10.9-6.2-10.2-13.4C759.4,348,763.3,343.6,768.2,342.8z M764.3,352.7c-1.1,0.1-1,1.5-1.9,1.8c0,0.3,0.4,0.8,0,1
		c0-0.8-0.8-0.7-1.6-0.7c0,0.4,0,0.9,0,1.3c0.4,0.5,0.4-0.4,0.9-0.3c-0.5,0.7,0.9,1,0.3,1.7c-0.2-0.3-0.7-1-1.1-0.5
		c0.6,1.9,1.3,3.8,2.6,4.9c-0.4-2-2.2-3.1-0.3-4.7c1.2,0.2,2.4,0.3,2.6,1.5c0.7,0.1,1.3,0.3,1.7,0.7c-0.4,1.7-1.3,2.8-2.5,3.7
		c5.3,4.5,14.1-0.3,14-6.9c-1.1,0-0.9,1.3-1.7,1.7c-0.2-1.1-1-2.5-2.2-2c0.2,0.1,0.3,0.2,0.3,0.5c-0.4,0.6-1.3,0.7-1.9,1.2
		c0.3,0.1,0.9-0.2,0.9,0.2c-2,1.6-0.8,5.1-3.7,5.7c-1.3-1.7,0.2-6.1-3.3-5c-1.6-1-0.4-3.2,0.5-4.2c-0.7,0-0.3-0.5-0.3-1
		c0.3,0,0.5,0,0.8,0c0.1-1.2-0.2-0.8-0.5-1.7c0,0.4-0.1,0.5-0.5,0.5c0.1-0.6,0.2-1.2,0.8-1.3c0.1,0.5,0.4,0.8,0.5,1.3
		c0.7-0.5,1-0.6,2.2-0.5c0-0.4,0.1-0.5,0.5-0.5c-0.6-0.6,0-1.3-0.2-1.7c-0.8,0.5-0.2,1.5-1.1,1.8c-0.3-0.3-0.4-0.7-0.6-1.2
		c0.4-1.5,2.8-2.4,3.7-0.7c-0.4,0.1-0.6,0-0.8-0.2c0.7,1.2,2.8-1.4,3.9-0.3c0.8-2.1-4.5-4.5-7.4-3.7c0.2,0.5,0.8-0.4,1.1,0.2
		c-0.2,0.2-0.5,0.5-0.8,0.7c0.6,2.5-2.2,2.7-3,4.2c-0.7-0.5-1-1.1-0.6-2c-0.4-0.4-0.6-0.9-0.9-1.3c-0.7,0-0.8,0.6-1.2,0.8
		c0.1,0.7,0.7,0.9,1.1,1.3c-0.6,0.1-0.8,0.1-0.9,0.8c-0.8-0.3-0.4-1.1-0.8-1.5c-0.4,0.9-1,1.6-1.4,2.5c0.6,0,0.6,0.7,1.1,0.8
		c0.3-1-0.2-1.6,0.3-2c0.7,0,0.7,1.1,1.4,0.7c0.2,0.4,0.1,1.2,0.5,1.5c-0.4,0.3-0.7-0.1-0.8,0.2
		C764.4,352.1,764.3,352.4,764.3,352.7z M772.3,352.9c0,0.3-0.2,0.4-0.2,0.7c0.4-0.1,1.2,0.2,1.4-0.2c-0.4,0.1-0.1-0.6-0.5-0.7
		C772.9,353.2,772.6,352.9,772.3,352.9z M770.4,353.5c-0.3-0.2-0.5-0.4-1.1-0.3c-0.3,0.4-0.5,0.9-0.9,1.2c0.5-0.1,1-0.3,1.7-0.2
		c-0.1,0.6,0.5,0.6,0.8,0.8c0.5-0.5,1.3-0.1,1.9,0c0.1-0.2,0.2-0.4,0.3-0.7c-0.3-0.1-1.2,0.2-1.2-0.7c-0.3,0-0.3,0.2-0.5,0.3
		c-0.2-0.5-0.6-0.9-1.1-1.2C770,353.3,770.8,353.4,770.4,353.5z M773.8,357.1c-0.4-0.3-0.6-1.7-1.1-1.3
		C773.2,356,773.2,357.5,773.8,357.1z"/>
	<g id="XMLID_13180_">
		<polygon id="XMLID_13066_" class="st1" points="593.8,302.4 572.7,302.4 572.7,288.3 583.2,295.4 593.8,288.3 		"/>
		<polygon id="XMLID_13065_" class="st1" points="593.8,286.5 572.7,286.5 572.7,286.5 583.2,293.3 		"/>
	</g>
	<path id="XMLID_13165_" class="st1" d="M410.4,307.5l-0.8-1.9c-0.4-1-1.7-1.5-2.7-1.1c-1.1,0.4-1.6,1.6-1.1,2.6l0.3,0.8l-9.2,3.8
		c-2.5,1-3.5,4.2-2.3,7.1l8.4,19.2c1.3,2.9,4.3,4.4,6.8,3.4l10.3-4.2c2.5-1,3.5-4.2,2.3-7.1l-8.4-19.2
		C413.2,309.2,411.8,308,410.4,307.5z M396.8,318.6c-0.8-1.8-0.2-3.7,1.4-4.4l9.9-4.1c1.5-0.6,3.4,0.3,4.2,2.1l2.4,5.6
		c0.8,1.8,0.2,3.7-1.4,4.4l-9.9,4.1c-1.5,0.6-3.4-0.3-4.2-2.1L396.8,318.6z M403,333.2c-0.1-0.2,0-0.5,0.2-0.6l2.4-1
		c0.2-0.1,0.5,0,0.6,0.3l0.6,1.3c0.1,0.2,0,0.5-0.2,0.6l-2.4,1c-0.2,0.1-0.5,0-0.6-0.3L403,333.2z M408.3,336.6
		c0.1,0.2,0,0.5-0.2,0.6l-2.4,1c-0.2,0.1-0.5,0-0.6-0.3l-0.6-1.3c-0.1-0.2,0-0.5,0.2-0.6l2.4-1c0.2-0.1,0.5,0,0.6,0.3L408.3,336.6z
		 M405.4,329.7c0.1,0.2,0,0.5-0.2,0.6l-2.4,1c-0.2,0.1-0.5,0-0.6-0.3l-0.6-1.3c-0.1-0.2,0-0.5,0.2-0.6l2.4-1c0.2-0.1,0.5,0,0.6,0.3
		L405.4,329.7z M407.1,331.4c-0.1-0.2,0-0.5,0.2-0.6l2.4-1c0.2-0.1,0.5,0,0.6,0.3l0.6,1.3c0.1,0.2,0,0.5-0.2,0.6l-2.4,1
		c-0.2,0.1-0.5,0-0.6-0.3L407.1,331.4z M412.4,334.8c0.1,0.2,0,0.5-0.2,0.6l-2.4,1c-0.2,0.1-0.5,0-0.6-0.3l-0.6-1.3
		c-0.1-0.2,0-0.5,0.2-0.6l2.4-1c0.2-0.1,0.5,0,0.6,0.3L412.4,334.8z M409.5,328c0.1,0.2,0,0.5-0.2,0.6l-2.4,1
		c-0.2,0.1-0.5,0-0.6-0.3l-0.6-1.3c-0.1-0.2,0-0.5,0.2-0.6l2.4-1c0.2-0.1,0.5,0,0.6,0.3L409.5,328z M411.2,329.8
		c-0.1-0.2,0-0.5,0.2-0.6l2.4-1c0.2-0.1,0.5,0,0.6,0.3l0.6,1.3c0.1,0.2,0,0.5-0.2,0.6l-2.4,1c-0.2,0.1-0.5,0-0.6-0.3L411.2,329.8z
		 M416.5,333.2c0.1,0.2,0,0.5-0.2,0.6l-2.4,1c-0.2,0.1-0.5,0-0.6-0.3l-0.6-1.3c-0.1-0.2,0-0.5,0.2-0.6l2.4-1c0.2-0.1,0.5,0,0.6,0.3
		L416.5,333.2z M413.5,326.3c0.1,0.2,0,0.5-0.2,0.6l-2.4,1c-0.2,0.1-0.5,0-0.6-0.3l-0.6-1.3c-0.1-0.2,0-0.5,0.2-0.6l2.4-1
		c0.2-0.1,0.5,0,0.6,0.3L413.5,326.3z M415.3,328c-0.1-0.2,0-0.5,0.2-0.6l2.4-1c0.2-0.1,0.5,0,0.6,0.3l0.6,1.3
		c0.1,0.2,0,0.5-0.2,0.6l-2.4,1c-0.2,0.1-0.5,0-0.6-0.3L415.3,328z M420.6,331.4c0.1,0.2,0,0.5-0.2,0.6l-2.4,1
		c-0.2,0.1-0.5,0-0.6-0.3l-0.6-1.3c-0.1-0.2,0-0.5,0.2-0.6l2.4-1c0.2-0.1,0.5,0,0.6,0.3L420.6,331.4z M417.7,324.6
		c0.1,0.2,0,0.5-0.2,0.6l-2.4,1c-0.2,0.1-0.5,0-0.6-0.3l-0.6-1.3c-0.1-0.2,0-0.5,0.2-0.6l2.4-1c0.2-0.1,0.5,0,0.6,0.3L417.7,324.6z"
		/>
	<g id="XMLID_13154_">
		<path id="XMLID_13158_" class="st1" d="M498,567.3c0-0.3-0.2-0.6-0.5-0.6h-16.9c-0.3,0-0.6,0.2-0.6,0.6l-2,6
			c0,0.3,0.2,0.6,0.6,0.6h21c0.3,0,0.6-0.2,0.6-0.6L498,567.3z M481.9,567.8h14c0.2,0,0.4,0.1,0.4,0.2c0,0.1-0.2,0.2-0.4,0.2h-14
			c-0.2,0-0.4-0.1-0.4-0.2C481.5,567.9,481.7,567.8,481.9,567.8z M481.6,568.6h14.6c0.2,0,0.4,0.1,0.4,0.2c0,0.1-0.2,0.2-0.4,0.2
			h-14.6c-0.2,0-0.4-0.1-0.4-0.2C481.2,568.7,481.4,568.6,481.6,568.6z M481.3,569.4h15.2c0.2,0,0.4,0.1,0.4,0.2
			c0,0.1-0.2,0.2-0.4,0.2h-15.2c-0.2,0-0.4-0.1-0.4-0.2C480.9,569.5,481.1,569.4,481.3,569.4z M487.3,572.6l0.6-1.4h2.7l0.5,1.4
			H487.3z M496.8,570.8h-15.6c-0.3,0-0.5-0.1-0.5-0.2c0-0.1,0.2-0.2,0.5-0.2h15.6c0.3,0,0.5,0.1,0.5,0.2
			C497.3,570.7,497.1,570.8,496.8,570.8z"/>
		<path id="XMLID_13155_" class="st1" d="M497.4,554.8h-16.7c-0.3,0-0.6,0.2-0.6,0.6v10.2c0,0.3,0.2,0.5,0.6,0.5h16.7
			c0.3,0,0.6-0.2,0.6-0.5v-10.2C497.9,555.1,497.7,554.8,497.4,554.8z M496.9,565h-15.7v-9.1h15.7V565z"/>
	</g>
	<path id="XMLID_13042_" class="st1" d="M647.7,429.3c-0.1-0.5-0.2-0.9-0.3-1.4c-0.2-3.3,2.3-6.1,5.5-6.3c2.6-0.2,5,1.4,5.9,3.8
		c0.7-0.5,1.6-0.8,2.5-0.8c2.3,0,4.2,1.9,4.2,4.2c0,0.4,0,0.7-0.1,1.1c1.9,0.3,3.4,2,3.4,4.1c0,2.3-1.8,4.1-4,4.1
		c-0.3,0-0.5,0-0.7-0.1h-15.4c-0.3,0-0.5,0.1-0.8,0.1c-2.4,0-4.3-1.9-4.3-4.3C643.5,431.3,645.4,429.4,647.7,429.3z"/>
	<g id="search_26_">
		<path id="XMLID_13150_" class="st1" d="M390.8,495.2l-5.4-5.2c0.8-1.4,1.2-3.1,1-4.8c-0.3-4.9-4.2-8.7-8.8-8.5
			c-4.6,0.2-8,4.3-7.8,9.2c0.3,4.9,4.2,8.7,8.8,8.5c1.6-0.1,3.2-0.7,4.4-1.6l5.4,5.2c0.2,0.2,0.5,0.2,0.6,0l1.7-2.1
			C391,495.7,391,495.4,390.8,495.2z M372.5,485.8c-0.2-3.3,2.2-6.1,5.3-6.3c3.1-0.1,5.8,2.5,6,5.8c0.2,3.3-2.2,6.1-5.3,6.3
			C375.4,491.7,372.7,489.1,372.5,485.8z"/>
	</g>
	<path id="XMLID_13039_" class="st1" d="M750.1,550.7c-0.1-0.2-0.3-0.6-0.3-1c0-1.2,0.6-2.5,0.6-2.5s0.4-0.2,0.6-0.6
		c0.2-0.4,0.1-1.1,0.1-1.1s-0.2-0.1-0.1-0.3c0-0.4,0.2-1,0.2-1.7c0-0.3,0-0.5,0-0.9c-0.1-1.9-1.7-2.1-2.4-2.2
		c-1.3-0.1-1.7,0-2.8,0.1c-1.1,0.1-1.9-0.4-1.9-0.4s-0.3,1.3-0.2,2.7c0.1,1.4,0.3,2.6,0.3,2.6s-0.3,0.1-0.3,0.8
		c0.1,0.7,0.7,1.1,0.7,1.1s1,2.3,0.8,3.1c-0.2,0.8-2.3,1.7-3.8,2.9c-1.9,1.1-2.3,4.8-2.3,4.8l17,0c0,0-0.3-3.1-1.5-4.5
		C753.7,552.1,750.4,551.6,750.1,550.7z"/>
	<path id="XMLID_13146_" class="st1" d="M614.6,589.6h-1.2v-2.9c0-1.6-1.1-2.9-2.5-2.9h-1.6c-1.4,0-2.5,1.3-2.5,2.9v2.9h-1.2
		c-0.2,0-0.3,0.1-0.3,0.3v7.4c0,0.2,0.2,0.3,0.3,0.3h9c0.2,0,0.3-0.1,0.3-0.3v-7.4C614.9,589.8,614.8,589.6,614.6,589.6z
		 M608.1,587.1c0-1.2,0.6-2.3,1.4-2.3h0.9c0.8,0,1.4,1,1.4,2.3v2.6h-3.8L608.1,587.1L608.1,587.1z"/>
	
		<linearGradient id="XMLID_51_" gradientUnits="userSpaceOnUse" x1="2106.8306" y1="1484.3081" x2="2139.3931" y2="1484.3081" gradientTransform="matrix(-0.9963 0 0 -0.7738 2799.1609 1473.549)">
		<stop  offset="0" style="stop-color:#DE2666"/>
		<stop  offset="1" style="stop-color:#D0134E"/>
	</linearGradient>
	<path id="XMLID_13036_" class="st58" d="M673.2,308.9h21.5c3,0,5.5,2.5,5.5,5.7V327c0,2.6-2.5,4.7-5.5,4.7h-10.7
		c0.3,4.8-3.1,8.9-7.7,9.4c-0.4,0-0.8,0-1.1,0c3-1.4,5-4.7,4.6-8.4c0-0.3-0.1-0.6-0.2-1h-6.3c-3,0-5.5-2.1-5.5-4.7v-12.4
		C667.7,311.4,670.1,308.9,673.2,308.9z"/>
	<g id="XMLID_13140_">
		<path id="XMLID_13035_" class="st1" d="M691.3,321.9c0,0.4-0.4,0.8-0.8,0.8h-4c-0.4,0-0.8-0.4-0.8-0.8v-3.6c0-0.4,0.3-0.8,0.8-0.8
			h4c0.4,0,0.8,0.4,0.8,0.8V321.9z"/>
		<path id="XMLID_13141_" class="st1" d="M682.4,314.2h-1.9c-1.4,0-2.5,1.1-2.5,2.5v7.5c0,1.4,1.1,2.5,2.5,2.5h1.9
			c1.4,0,2.5-1.1,2.5-2.5v-7.5C684.9,315.3,683.8,314.2,682.4,314.2z M681.5,320.2c-1.2,0-2.1-1-2.1-2.1c0-1.2,1-2.1,2.1-2.1
			c1.2,0,2.1,1,2.1,2.1C683.7,319.2,682.7,320.2,681.5,320.2z"/>
	</g>
	
		<radialGradient id="XMLID_52_" cx="-6750.6709" cy="29246.1133" r="68.5789" gradientTransform="matrix(0.7406 0 0 -0.135 5368.1846 4359.3799)" gradientUnits="userSpaceOnUse">
		<stop  offset="0.1227" style="stop-color:#717273"/>
		<stop  offset="0.2365" style="stop-color:#777979;stop-opacity:0.8702"/>
		<stop  offset="0.3949" style="stop-color:#898B8A;stop-opacity:0.6897"/>
		<stop  offset="0.5795" style="stop-color:#A8A9A8;stop-opacity:0.4794"/>
		<stop  offset="0.7837" style="stop-color:#D2D3D2;stop-opacity:0.2465"/>
		<stop  offset="1" style="stop-color:#FFFFFF;stop-opacity:0"/>
	</radialGradient>
	<path id="XMLID_13032_" class="st59" d="M420.7,412.4c0,4.9-23.5,8.9-52.6,8.9c-29,0-52.6-4-52.6-8.9c0-4.9,23.5-8.9,52.6-8.9
		C397.2,403.5,420.7,407.5,420.7,412.4z"/>
	
		<linearGradient id="XMLID_53_" gradientUnits="userSpaceOnUse" x1="-577.1144" y1="1007.9066" x2="-501.4115" y2="999.9498" gradientTransform="matrix(1 0 0 -1 908.79 1415.5123)">
		<stop  offset="0" style="stop-color:#B8B8B8"/>
		<stop  offset="0.5399" style="stop-color:#9A9B9A"/>
		<stop  offset="1" style="stop-color:#BFBFBE"/>
	</linearGradient>
	<path id="XMLID_13031_" class="st60" d="M407.5,411.3v-2.9h-3.9v1.1c-6.3-1.8-19.1-3-34-3c-16.2,0-30,1.4-35.5,3.5v-2.2h-2.4v3.7
		c-0.1,0.1-0.1,0.3-0.1,0.5c0,3,17.1,5.5,38.1,5.5s38.1-2.4,38.1-5.5C407.8,411.8,407.7,411.5,407.5,411.3z"/>
	
		<linearGradient id="XMLID_54_" gradientUnits="userSpaceOnUse" x1="-539.3255" y1="1012.8066" x2="-538.7185" y2="1001.2256" gradientTransform="matrix(1 0 0 -1 908.79 1415.5123)">
		<stop  offset="0" style="stop-color:#FFFFFF"/>
		<stop  offset="1" style="stop-color:#E7E8E9"/>
	</linearGradient>
	<path id="XMLID_13030_" class="st61" d="M369.8,403c21.1,0,38.1,2.4,38.1,5.4c0,3-17.1,5.5-38.1,5.5c-21.1,0-38.1-2.4-38.1-5.5
		C331.7,405.5,348.7,403,369.8,403z"/>
	
		<linearGradient id="XMLID_55_" gradientUnits="userSpaceOnUse" x1="-93.2869" y1="-88.0893" x2="-76.3676" y2="-88.0893" gradientTransform="matrix(1 0 0 1 454.395 461.6646)">
		<stop  offset="0" style="stop-color:#2F5AA7"/>
		<stop  offset="1" style="stop-color:#3260AC"/>
	</linearGradient>
	<path id="XMLID_13029_" class="st62" d="M369.6,365.1c4.7,0,8.5,3.8,8.5,8.5c0,4.7-3.8,8.5-8.5,8.5c-4.7,0-8.5-3.8-8.5-8.5
		C361.1,368.9,364.9,365.1,369.6,365.1z"/>
	
		<linearGradient id="XMLID_56_" gradientUnits="userSpaceOnUse" x1="-541.149" y1="1033.3467" x2="-538.4371" y2="1007.5438" gradientTransform="matrix(1 0 0 -1 908.79 1415.5123)">
		<stop  offset="0" style="stop-color:#2F5AA7"/>
		<stop  offset="1" style="stop-color:#3260AC"/>
	</linearGradient>
	<path id="XMLID_13028_" class="st63" d="M376,382.7h-1.7l-4.8,2.7l-4.6-2.7h-1.9c-5.7,0-10.4,5.1-10.4,11.4v8.9v1.8
		c0,0,4.3,3,16.6,2.9c12.2-0.1,17.3-2.9,17.3-2.9v-2v-8.8C386.4,387.8,381.7,382.7,376,382.7z"/>
	
		<linearGradient id="XMLID_57_" gradientUnits="userSpaceOnUse" x1="1987.4396" y1="1349.0605" x2="2020.0022" y2="1349.0605" gradientTransform="matrix(-0.9963 0 0 -0.7738 2799.1609 1473.549)">
		<stop  offset="0" style="stop-color:#8A1475"/>
		<stop  offset="1" style="stop-color:#781878"/>
	</linearGradient>
	<path id="XMLID_13027_" class="st64" d="M792.1,413.5h21.5c3,0,5.5,2.5,5.5,5.7v12.4c0,2.6-2.5,4.7-5.5,4.7h-10.7
		c0.3,4.8-3.1,8.9-7.7,9.4c-0.4,0-0.8,0-1.1,0c3-1.4,5-4.7,4.6-8.4c0-0.3-0.1-0.6-0.2-1h-6.3c-3,0-5.5-2.1-5.5-4.7v-12.4
		C786.6,416.1,789.1,413.5,792.1,413.5z"/>
	<path id="XMLID_13025_" class="st1" d="M802,428c0.3-0.5-1.9-1.2-1.9-1.2s0.9-1.5,1.9-2.7c1-1.1,2.7-2.1,2.7-2.1s0.4,2.2,1,1.9
		c0.6-0.3,3.4-1.9,3.4-1.9s-0.4-1.1-1.2-1.9c-0.8-0.8-1.7-1-1.7-1s-2.7,0.7-5.8,3.8c-3.1,3.1-3.1,5.2-3.1,5.2s-0.1,1.1,0.9,1.9
		c0.9,0.9,1.8,0.9,1.8,0.9S801.8,428.5,802,428z"/>
</g>
<g>
	<path class="st65" d="M127.2,137.2c-0.7,0-3.6-0.2-4.2-0.2c-1.2,0-3.9,0-6.1,0.2c0.2,0.2,0.4,0.5,0.4,0.8c0,0.4-0.8,1-0.9,1.2
		c-0.4,0.6-0.9,3.8-1.1,4.4c-1.2,4.2-4.1,11.6-13.6,12.8V156c5.6-2.2,7.7-6.7,8.8-9.4c1-2.8,1.6-6.1,1.6-7.2c0-0.4-0.2-1-0.5-1.4
		c-1.8,0.2-6.5,1-8,1.7c-0.4,0.2-1.3,0.6-1.6,0.6c-1.2,0-4.2-3-4.2-5.2c0-0.2,0.1-0.3,0.2-0.3c0.1,0,0.5,0.3,0.7,0.5
		c0.6,0.5,1.2,1,2.4,1c1.6,0,19-1.8,21.7-2.6c0.5-0.1,1.2-0.5,1.5-0.5c0.6,0,4.5,1,4.5,3.4C128.7,137.1,128.3,137.2,127.2,137.2z
		 M120.8,129.5c-1.1,0.1-10.3,1.2-11.1,1.3c-0.4,0.1-1,0.4-1.3,0.4c-1.5,0-4.7-3.1-4.7-4.5c0-0.2,0.2-0.3,0.4-0.3
		c0.2,0,0.9,0.5,1.3,0.7c0.5,0.2,1.4,0.5,3.1,0.5c2,0,7.8-0.6,9.6-1.4c1.2-0.6,1.3-0.7,2-0.7c1.1,0,3.8,1.6,3.8,2.6
		C123.8,129.1,123.2,129.2,120.8,129.5z"/>
	<path class="st65" d="M162.4,132.2c-1.1,4.3-6.1,10.4-7.8,12.1c-3.1,3-7.8,5.7-11.5,7.8c-0.6,0.4-0.7,0.5-1.3,1.3
		c-0.6,0.8-0.8,0.9-1.1,0.9c-1.4,0-4-4.7-4-5.2c0-0.2,0.4-1,0.5-1.2c0.4-1.1,0.4-3.6,0.4-6c0-1.8-0.1-10.5-0.3-11.8
		c-0.2-2-0.9-2.6-2-3.2c-0.6-0.3-0.7-0.4-0.7-0.5c0-0.4,1.5-0.9,2.3-0.9c2.1,0,4.9,2,5.4,2.4c0.3,0.2,0.4,0.6,0.4,0.8
		c0,0.3-0.7,1.5-0.7,1.8c-0.4,1.9-0.6,13.5-0.6,16.3c0,0.2,0,0.6,0.5,0.6c1.6,0,13.2-4.1,20.3-15.3L162.4,132.2z"/>
	<path class="st65" d="M168.7,155.7c4.8-1.7,10.6-10,10.6-18.1c0-2-0.4-2.6-1-3.3c-0.1-0.1-0.5-0.6-0.5-0.7c0-0.3,0.3-0.6,1-0.6
		c1.8,0,2.6,0.4,5.2,1.8c0.5,0.2,0.5,0.3,0.6,0.3c0.5,0,4-5,4-5.4c0-0.3-0.3-0.3-0.4-0.3c-3.4,0-15,2.7-15.4,2.8
		c-1.1,0.4-1.5,0.7-2.5,1.4c-0.4,0.3-0.6,0.3-0.7,0.3c-1.6,0-4.1-3.7-4.1-5.2c0-0.4,0.2-1.5,0.5-1.5c0.2,0,0.8,0.7,0.9,0.8
		c1.2,0.9,2.3,1,3.1,1c2.4,0,12.8-1.5,15-1.8c0.7-0.1,3.8-0.3,4.1-0.4c0.3,0,0.7-0.4,1.6-1c0.2-0.2,0.5-0.3,0.7-0.3
		c1.2,0,4.8,3,4.8,4.9c0,0.8-0.5,0.8-1.7,1c-0.7,0.1-1.2,0.3-2,0.9c-4.9,3.4-5.4,3.8-8.3,5.4c-0.8,0.5-0.8,0.7-1.2,2.7
		c-0.8,4.7-2.1,8.6-5.3,11.6c-2.5,2.3-5.6,3.9-9,4.1L168.7,155.7z"/>
	<path class="st65" d="M210.4,149.8c0.7,0.2,2.7,0.9,3.8,0.9c0.8,0,0.8,0,0.9-2.6c0.1-3.9,0.2-7.9,0.2-11.8c-4.4,0.5-8.8,1.7-9.3,2
		c-0.8,0.5-0.9,0.5-1.1,0.5c-0.4,0-0.7-0.1-1.7-1.3c-0.7-0.9-1.8-2.4-1.8-4c0-0.1,0-0.2,0.2-0.2c0.1,0,0.1,0,0.2,0.1
		c0.2,0.3,1,1.2,2.7,1.2c0.5,0,0.8,0,1.8-0.1c2.8-0.3,6.5-0.6,9.1-0.9v-6.3c0-1.6-0.5-2.5-1.9-3c-0.1,0-0.4-0.2-0.4-0.3
		c0-0.3,1.3-0.7,2.4-0.7c1.9,0,4.9,1.2,4.9,2.6c0,0.6,0,0.6-0.5,1.5c-0.7,1.2-0.9,4.2-1.1,5.9c4.4-0.4,4.9-0.5,6.3-0.6
		c0.4,0,0.4,0,1.1-0.4c0.2-0.1,0.4-0.1,0.5-0.1c1.4,0,4.4,1.4,4.4,3.3c0,0.9-0.7,1-1,1c-0.2,0-2-0.3-2.4-0.3c-1-0.1-2.1-0.2-3.9-0.2
		c-0.5,0-2.2,0-5.1,0.2c0,2.4,0.2,13.5,0.2,15.3c0,4.6-1.7,5.3-2.2,5.3c-0.8,0-0.9-0.2-1.8-2.3c-0.6-1.4-2-2.6-4.5-4.3L210.4,149.8z
		 M208.6,143.2c0,4.9-2.7,9-5,9c-1,0-2-0.8-2-1.9c0-1.3,0.9-2,2-2.7c3.5-2.4,4.3-5.3,4.7-6.7C208.6,141.8,208.6,142.2,208.6,143.2z
		 M225.7,142.4c1.3,0.7,4.7,2.9,4.7,6.1c0,1.6-1,2.1-1.8,2.1c-1.2,0-1.8-1.1-2.3-2.2c-1.3-2.9-3.4-5.5-6.1-7.2
		C222.2,141.1,224.1,141.5,225.7,142.4z M233.8,126.6c0,1.8-1.4,3.3-3.3,3.3c-1.8,0-3.3-1.5-3.3-3.3c0-1.9,1.5-3.3,3.3-3.3
		C232.3,123.3,233.8,124.8,233.8,126.6z M228,126.6c0,1.4,1.1,2.4,2.4,2.4c1.3,0,2.4-1.1,2.4-2.4c0-1.4-1.1-2.5-2.4-2.5
		C229.2,124.2,228,125.3,228,126.6z"/>
	<path class="st65" d="M276.2,158.7c-1.6,0-3.8-0.9-5.5-1.7c-2.7-1.3-5.3-3.5-7.8-7.5c-6.5,5.6-12.6,7-15.1,7.7l-0.2-0.5
		c5.8-2.6,10-7.1,13-11.7c-2.9-6.7-3.6-16-3.8-20h-12.1v7.4h4.8l1.5-2.1c0.3-0.5,0.6-0.8,1.5-0.8c0.2,0,0.5,0,1.1,0.5l3.1,2.3
		c0.3,0.2,0.5,0.6,0.5,1c0,0.7-0.4,1-1.6,1.7c-0.2,6-1.2,12.4-3.4,15.5c-1.9,2.7-4.6,2.9-5.4,2.9c-1.5,0-1.5-0.6-1.5-1.2
		c0-3.2-1.5-3.6-3.4-4.1c-2.5,5.5-5,7.5-6.5,8.7l-0.3-0.3c1.5-1.9,3.8-10.2,3.8-16.1v-19.3l6.7,3h11.2c-0.2-4.4-0.1-6.3-0.1-9
		l7.6,0.7c0.3,0,0.8,0.1,0.8,0.6c0,0.5-0.5,1.1-1.6,1.5c-0.1,1.6-0.2,3.1-0.2,6.2h8l2.5-3.2c0.1-0.2,0.3-0.5,0.8-0.5
		c0.3,0,0.6,0.2,0.8,0.4l3.1,2.8c0.2,0.2,0.5,0.5,0.5,0.9s-0.5,0.6-0.8,0.6h-14.9c0,2.9,0.4,8.6,1.4,12.7c2-4.7,2.8-7.7,3.2-9.6
		l6.8,2.8c0.4,0.1,1,0.4,1,1.1c0,1-1.2,1-2,1c-1.6,4.9-3.5,8.5-6.3,11.9c2,3.4,4.5,6.2,6.1,6.2c1.1,0,1.4-1,4-9.7l0.5,0.1l-0.9,9.6
		c-0.1,1.3,0.1,1.6,0.7,2c0.8,0.6,1.6,1.1,1.6,2.6C279.3,158.1,277,158.7,276.2,158.7z M244.8,133.4v2.9c0,5-1.6,8.8-2.4,10.6
		c1.4,0.1,2.6,0.3,3.4,0.3c1.1,0,1.6-0.3,2.2-1.2c0.7-1.1,1.9-5.3,1.6-12.5H244.8z M270.2,122.8c-2.6,0-2.8-2-2.9-3.6
		c0-0.9-0.2-2.9-2-4.1l0.1-0.4c7.8,0.5,8.1,4.5,8.1,5.1C273.5,121,272.4,122.8,270.2,122.8z"/>
	<path class="st65" d="M298.1,118.4c-0.7,0.8-1,1.1-3,3c-0.8,0.8-2,1.9-3,2.9c0.5,0.6,1.3,1.6,1.3,3.8c0,2.6-2.4,3.4-3.3,3.4
		c-1.7,0-2.7-1.3-3-2.3c-0.7-3.4-0.9-4.5-4.7-7.3l0.2-0.4c1.1,0,4.7-0.1,7.5,1.4c1-2.5,2.3-6,2.6-8.5l7,2.9c0.2,0.1,0.4,0.3,0.4,0.6
		C300.1,118.4,299.4,118.4,298.1,118.4z M325.8,127.3c-0.3,0.3-0.9,0.9-1.2,1.2c-0.8,16.1-1.8,21.2-3.8,25.6
		c-1.5,3.5-5.5,4.4-7.1,4.4c-1.4,0-1.4-0.1-1.4-1.9c0-2.6-0.9-3.5-5.6-4.9l0-0.5c1.9,0.2,4,0.5,5.8,0.5c2.3,0,3.5-1.6,4.1-3.6
		c2.1-7,2.3-16.9,2.2-22.4h-9.3c-1.8,2.9-3.1,4.8-6.3,7.6c1.9,2,1.9,4,1.9,4.4c0,0.3-0.1,3.3-3.1,3.3c-0.7,0-2.3-0.2-2.5-1.7
		c0-0.5-0.1-2.7-0.2-3.3c-0.2,0.1-2.2,0.8-2.6,1v19.6c0,1.1-1.8,2-3.7,2c-1.7,0-1.7-0.7-1.7-1.5v-12c-0.3,0.1-0.6,0.3-0.9,0.4
		c-2.6,5.8-4.4,9.7-7.7,12l-0.4-0.3c0.8-2,2.8-6.9,2.7-15c-0.4,0-0.6-0.3-0.7-0.8l-1.3-6.5c0.5,0,6.1-0.2,7.2-0.3
		c3.2-4.8,4.6-8,5.8-12.2l6.6,3c0.2,0.1,0.5,0.2,0.5,0.8c0,0.8-1,0.9-2,1c-0.7,0.6-1.5,1.5-3.5,3.4c0.6,0.2,2.5,0.8,4.1,1.8
		c3.4-6.7,3.9-13.2,4-17.9l7.8,2.2c0.4,0.1,0.7,0.3,0.7,0.8c0,0.7-0.6,0.9-1.6,1.2c-0.4,1.1-1.1,2.9-2.8,5.9h8.6l1.4-1.7
		c0.3-0.3,0.8-0.8,1.3-0.8c0.4,0,0.8,0.2,1.1,0.4l3.3,2.7c0.2,0.2,0.4,0.4,0.4,0.8C326.4,126.6,326.1,127,325.8,127.3z M291.6,138.9
		c-0.2,0-0.5,0.1-2.7,1c-0.4,0.1-2.2,0.8-2.5,0.9c0,0.7-0.1,0.8-0.3,1.1l5.6,1.4V138.9z M296.6,131.9c-0.5,0.4-2.4,2.3-2.8,2.6
		c0.8,0,4.3-0.1,5-0.2C298.1,133.2,297.4,132.4,296.6,131.9z M302.7,153.1c-1,0-2.7-0.3-2.7-2.7c0-0.4,0.1-2.3,0.1-2.6
		c0-1.8-0.2-3.7-2.7-7.1l0.3-0.4c5.5,1.7,8.3,6.4,8.3,9.2C306,150.3,305.4,153.1,302.7,153.1z M312.5,144.3c-1.2,0-3.1-0.7-3.1-2.8
		c0-0.2,0.1-2.2,0.1-2.6c0-2.6-0.7-4.4-3.5-7.4l0.2-0.4c5.3,0.7,9.5,5.1,9.5,9.1C315.7,142.4,315,144.3,312.5,144.3z"/>
	<path class="st65" d="M372.3,146.3h-18v9.9c0,2.3-3.7,2.3-4.3,2.3c-1.7,0-1.7-0.7-1.7-1.6v-10.6h-18.3l-0.6-1.1h18.9v-3.4
		c-0.9,0.4-2.5,1.1-2.9,1.2c-0.1,0.4-0.3,1.1-0.9,1.1c-0.3,0-0.6-0.2-0.8-1.1l-1.6-5.8l4.3-0.2c1-1,1.4-1.5,1.8-2.1
		c-1.3,0-2.5-0.6-2.9-2c-1.3,1.3-7.9,7.3-9.3,8.7c-0.3,1.5-0.3,1.9-0.9,1.9c-0.5,0-0.7-0.5-1-1.1l-2.5-5.7
		c1.5-0.5,11.6-4.1,13.6-4.8c-0.2-1.7-0.2-2.1-0.7-3.1c-0.3-0.6-1.3-2.9-3.9-4.4l0.2-0.4c3.4,0.2,4.6,0.7,5.6,1.2
		c0.1-0.5,0.4-1.5,0.8-3.2h-15.9l-0.6-1.1h17.8v-6.7l6.5,0.6c0.6,0,1,0.3,1,0.9c0,0.7-0.4,0.8-1.7,1.5v3.7h9.4l2.5-2.9
		c0.2-0.3,0.4-0.5,0.8-0.5c0.3,0,0.3,0,0.9,0.4l3.8,2.6c0.2,0.1,0.4,0.5,0.4,0.8c0,0.5-0.4,0.6-0.8,0.6H356c-0.1,1-0.7,1.1-2.1,1.3
		c-0.7,0.5-4.2,3.1-5,3.7c1.1,1.1,1.6,1.9,2.1,3.4c1-2,1.5-3.2,2.1-5.3l5.5,2.9c0.6,0.3,0.8,0.5,0.8,0.9c0,0.6-0.5,0.7-2.2,1.1
		c-0.8,0.9-1.5,1.6-2.8,2.8c5.4,0.8,8.1,3.9,8.1,6.7c0,1.4-1,3.2-2.9,3.2c-1.6,0-2.2-1.1-2.3-1.9c-0.3-2-0.3-2-0.7-2.9
		c-2.7,1.4-4.3,2.1-8.2,3.8l6.6,0.7c0.5,0,0.9,0.3,0.9,0.7c0,0.6-0.5,0.9-1.7,1.5v0.6h10.9l2.4-2.9c0.2-0.3,0.4-0.5,0.7-0.5
		c0.3,0,0.6,0.2,0.9,0.4l3.6,2.5c0.2,0.1,0.5,0.5,0.5,0.8C373.1,146.1,372.7,146.3,372.3,146.3z M338.5,133.6
		c-2.4,0-2.7-1.9-3.1-3.9c-0.2-1-0.8-4.3-3.9-6l0.1-0.4c9.3,0.1,10.2,5.4,10.2,6.5C341.8,130.9,341.1,133.6,338.5,133.6z
		 M353.1,134.1c-1.5,1.2-2.3,1.9-3.7,2.8c1.2-0.1,5.6-0.3,6.5-0.3C355.3,135.6,354.9,135.3,353.1,134.1z M367.1,141.4
		c-2,0-2.5-1.7-3.1-3.7c-0.8-2.5-2.3-3.9-4.6-5.3c-0.8,0.3-0.9,0.4-1.6,0.7l-0.3-0.4c2.6-2.9,4.7-7,5.9-10.1l5.2,2.8
		c0.4,0.2,0.7,0.5,0.7,0.9c0,0.2-0.1,0.6-0.5,0.8c-0.2,0.1-1.4,0.1-1.6,0.1c-1.9,1.6-3.7,2.9-6.6,4.5c3.7,0.5,4.9,0.9,6.1,1.6
		c2.9,1.7,3.2,4.1,3.2,5C369.9,140.1,368.5,141.4,367.1,141.4z"/>
	<path class="st65" d="M386.1,155.4c-5.8,0-9-4.2-9-7.7c0-1.7,1-4.3,3.9-4.3c2.5,0,3.8,1.9,3.8,3.4c0,1.6-1.2,2.7-1.6,3.1
		c-0.5,0.5-0.8,0.8-0.8,1.3c0,1.1,1.2,2.9,3.7,2.9c1.9,0,2.6-1.1,3-1.8c0.6-1.3,1.1-3.5,1.1-5.8c0-7.6-5-8.4-7-8.4
		c-1.8,0-3.3,0.5-4.2,0.9V120h16.9l-1.4,5.5h-13.8v7.5c0.8-0.2,2.3-0.6,4.7-0.6c8.3,0,11.1,5.5,11.1,11.2
		C396.5,151.5,391.4,155.4,386.1,155.4z"/>
	<path class="st65" d="M410.3,155.4c-5.4,0-9.6-6.2-9.6-18c0-12.1,4.4-17.9,9.6-17.9c5.3,0,9.6,6,9.6,17.9
		C419.9,149.5,415.6,155.4,410.3,155.4z M411.6,121.7c-0.3-0.5-0.7-0.9-1.3-0.9c-1.2,0-1.9,2.1-2,2.5c-0.8,2.5-1.2,12.4-1.2,15.8
		c0,2.7,0.2,14.8,3.2,14.8c1.2,0,1.8-2,2-2.5c0.5-1.4,1.2-6.8,1.2-14.1C413.5,133.9,413.3,124.2,411.6,121.7z"/>
	<path class="st65" d="M429.8,141.1c-3.4,0-6.1-3.7-6.1-7.9c0-4.1,2.7-7.8,6.1-7.8c3.4,0,6,3.7,6,7.8
		C435.8,137.5,433,141.1,429.8,141.1z M429.8,126.6c-1.3,0-2,3.3-2,6.7c0,3.5,0.7,6.7,2,6.7c1.2,0,2-3.2,2-6.7
		C431.7,129.7,431,126.6,429.8,126.6z M429.6,155.3l-1.2-0.7l15.7-29.1l1.2,0.7L429.6,155.3z M444.1,155.3c-3.4,0-6.1-3.7-6.1-7.9
		c0-4.1,2.7-7.9,6.1-7.9s6.1,3.7,6.1,7.9C450.1,151.6,447.4,155.3,444.1,155.3z M444.1,140.8c-1.3,0-2,3.2-2,6.7s0.7,6.7,2,6.7
		c1.2,0,2-3.2,2-6.7C446,143.9,445.3,140.8,444.1,140.8z"/>
	<path class="st65" d="M484.4,156.1c0,0.9-0.3,0.9-1.3,0.9c-3.2,0-14,0-16.3-0.4c-5.3-0.8-6.2-4.2-6.5-5.4c-0.6,0.9-1.1,1.3-4.8,5.2
		c-0.3,1.2-0.3,1.3-0.6,1.3c-0.3,0-0.4-0.2-0.5-0.5l-1.4-4.8c0.6-0.1,1.5-0.2,3.7-0.8v-10.9h-3.2l-0.4-0.8h3.5l1.3-1.4
		c0.4-0.4,0.6-0.7,1.3-0.7c0.5,0,1,0.3,1.3,0.5l1.8,1.5h4.9c-0.5-0.4-0.6-0.7-0.7-1.9c-0.2-2.3-0.5-2.6-1.1-3.2h-4.8l-0.4-0.8h9.8
		v-4h-7l-0.4-0.8h7.4v-4.6l4.9,0.4c0.1,0,0.5,0.2,0.5,0.5c0,0.5-0.7,0.8-1.1,0.9v2.8h2.9l1.4-1.9c0.1-0.2,0.3-0.4,0.6-0.4
		c0.3,0,0.4,0.1,0.7,0.3l2.4,1.6c0.1,0.1,0.3,0.4,0.3,0.7c0,0.4-0.3,0.5-0.6,0.5h-7.6v4h4.5l1.8-2c0.2-0.2,0.3-0.4,0.6-0.4
		c0.2,0,0.4,0.1,0.7,0.3l2.3,1.7c0.1,0.1,0.4,0.4,0.4,0.7c0,0.4-0.3,0.5-0.6,0.5h-6.3l2.1,1.6c0.2,0.1,0.3,0.3,0.3,0.5
		c0,0.5-0.5,0.5-0.7,0.5c-0.3,0-0.5,0-0.8-0.1c-0.9,0.8-2.4,2.2-2.8,2.6h3.3l1.9-2c0.2-0.2,0.3-0.3,0.6-0.3c0.2,0,0.4,0.1,0.6,0.3
		l2.1,1.7c0.1,0.1,0.3,0.3,0.3,0.7c0,0.4-0.3,0.5-0.6,0.5h-9.1c0.2,0.9-0.3,1.1-0.9,1.2v2.4h2.8l1.6-2.2c0.2-0.3,0.4-0.3,0.6-0.3
		c0.2,0,0.4,0.1,0.6,0.3l2.3,1.9c0.2,0.1,0.3,0.3,0.3,0.7c0,0.4-0.3,0.5-0.6,0.5h-7.7v3.3h5l1.9-2.1c0.1-0.2,0.3-0.4,0.6-0.4
		c0.2,0,0.4,0.1,0.6,0.3l2.2,1.8c0.1,0.1,0.4,0.4,0.4,0.7c0,0.4-0.3,0.5-0.6,0.5h-10v2c0,1.3-1.9,1.8-3,1.8c-1.2,0-1.4-0.3-1.4-1.3
		v-2.5h-7.4l-0.4-0.8h7.8v-3.3h-6.2l-0.4-0.8h6.7v-3.5h-7.2c-0.1,0.2-1,0.9-1.3,1.2v7.8c0,3.5,3.5,3.5,7.9,3.5
		c8.9,0,14.8-0.4,17.1-0.7v0.4C484.5,154.2,484.5,155.7,484.4,156.1z M458.9,133.1c-2,0-2.3-1.6-2.7-3.5c-0.5-2.6-2-3.3-2.7-3.6
		v-0.4c4.5,0.1,7.7,2.7,7.7,5.2C461.3,131.9,460.4,133.1,458.9,133.1z M468.2,134.9c1.5,0.8,2.6,2.1,2.6,3.5c0,0.9-0.4,1.2-0.8,1.6
		h3.2c0.7-1.6,1.5-4.2,1.7-5.1H468.2z"/>
	<path class="st65" d="M519.6,157.8c-1.3,0-2.9-0.7-4.2-1.3c-2-1-4-2.7-5.9-5.7c-5,4.3-9.6,5.4-11.5,5.8l-0.1-0.4
		c4.4-2,7.6-5.4,9.9-8.9c-2.2-5.1-2.8-12.2-2.9-15.2h-9.2v5.6h3.6l1.1-1.6c0.3-0.4,0.5-0.6,1.1-0.6c0.2,0,0.4,0,0.9,0.4l2.3,1.7
		c0.3,0.2,0.4,0.5,0.4,0.7c0,0.5-0.3,0.7-1.3,1.3c-0.1,4.6-0.9,9.4-2.6,11.8c-1.4,2.1-3.5,2.2-4.1,2.2c-1.1,0-1.1-0.4-1.1-0.9
		c0-2.4-1.1-2.7-2.6-3.1c-1.9,4.2-3.8,5.7-5,6.6l-0.3-0.3c1.1-1.5,2.9-7.8,2.9-12.2V129l5.1,2.3h8.6c-0.1-3.4-0.1-4.8-0.1-6.8
		l5.8,0.5c0.3,0,0.6,0.1,0.6,0.5c0,0.4-0.4,0.8-1.3,1.1c-0.1,1.2-0.1,2.4-0.1,4.7h6.1l1.9-2.4c0.1-0.1,0.2-0.4,0.6-0.4
		c0.3,0,0.4,0.1,0.6,0.3l2.4,2.1c0.1,0.1,0.4,0.4,0.4,0.7s-0.4,0.5-0.6,0.5h-11.3c0,2.2,0.3,6.5,1,9.7c1.5-3.6,2.1-5.9,2.5-7.3
		l5.2,2.1c0.3,0.1,0.8,0.3,0.8,0.8c0,0.8-0.9,0.8-1.5,0.8c-1.2,3.7-2.7,6.5-4.8,9.1c1.5,2.6,3.4,4.7,4.7,4.7c0.8,0,1.1-0.7,3.1-7.4
		l0.4,0.1l-0.7,7.3c-0.1,1,0.1,1.2,0.5,1.5c0.6,0.4,1.2,0.9,1.2,2C522,157.4,520.3,157.8,519.6,157.8z M495.7,138.5v2.2
		c0,3.8-1.2,6.7-1.8,8.1c1,0.1,2,0.2,2.6,0.2c0.9,0,1.3-0.2,1.6-0.9c0.5-0.9,1.5-4,1.3-9.5H495.7z M515.1,130.5
		c-2,0-2.1-1.5-2.2-2.7c0-0.7-0.2-2.2-1.5-3.1l0.1-0.3c5.9,0.4,6.2,3.4,6.2,3.9C517.6,129.1,516.8,130.5,515.1,130.5z"/>
</g>
<g>
	<path class="st65" d="M710.6,160.2h-12l2.3,1.7c0.2,0.1,0.4,0.4,0.4,0.7c0,0.3-0.1,0.3-1.3,0.5c-1.5,1.7-2.5,2.8-4.3,4.1h5.6l2-2.9
		c0.1-0.2,0.4-0.4,0.7-0.4c0.3,0,0.4,0.1,0.8,0.4l3,2.5c0.3,0.2,0.4,0.5,0.4,0.8c0,0.4-0.4,0.6-0.8,0.6h-13c0,0.1,0.1,0.2,0.1,0.4
		c0,0.2-0.1,0.3-0.7,0.8v2.8h4.5l2-2.8c0.1-0.2,0.3-0.4,0.7-0.4c0.3,0,0.4,0.2,0.8,0.4l2.8,2.3c0.1,0.1,0.4,0.6,0.4,0.8
		c0,0.4-0.4,0.6-0.8,0.6h-10.4v4.2h9.9l2.7-3.4c0.2-0.2,0.4-0.4,0.7-0.4c0.3,0,0.6,0.2,0.8,0.4l3.1,3c0.3,0.2,0.4,0.6,0.4,0.8
		c0,0.4-0.4,0.6-0.8,0.6H695c2.8,2.4,7.7,5.2,15.8,6.3l0,0.5c-1.8,0.8-2.8,1.1-3.6,3.4c-0.3,0.8-0.4,0.9-0.6,0.9
		c-0.9,0-7.6-2.3-12.8-10.6v9.4c0,1,0,1.5-1.6,2.2c-0.9,0.4-2.1,0.5-2.7,0.5c-1.3,0-1.3-0.7-1.3-1.5v-7.6c-5.1,4.1-11.1,6.8-17.6,8
		l-0.2-0.4c6.7-2.9,11-7,13.6-11.1h-12.6l-0.5-1h17.3v-4.2h-12.5l-0.5-1h13.1v-4h-14.9l-0.5-1h11.2c-0.8-0.8-0.9-1.6-1.2-3.8
		c-0.3-2.1-1.2-2.6-2.7-3.2h-9l-0.5-1h8.8c-0.8-0.4-1.2-1.2-1.5-2.6c-0.7-3.4-0.8-4.2-3-5.2l0.2-0.4c8.1,0.6,8.1,5.6,8.1,5.7
		c0,0.7-0.4,2-1.8,2.5h3v-9.2l5.6,0.6c0.4,0,0.8,0.1,0.8,0.6c0,0.4-0.1,0.4-1.1,1.1v6.9h2.7v-9.1l5.3,0.4c0.3,0,1,0.1,1,0.8
		c0,0.4-0.2,0.4-1,0.8v6.4c1.9-3.1,2.8-5.1,3.9-8.1l4.4,2.5c0.4,0.3,0.6,0.4,0.6,0.6c0,0.5-0.1,0.5-1.5,0.5
		c-2.2,2.1-3.7,3.4-6.2,5.1h5.6l2.4-3.3c0.1-0.2,0.3-0.4,0.7-0.4c0.3,0,0.6,0.3,0.8,0.4l2.8,2.9c0.3,0.4,0.4,0.6,0.4,0.8
		C711.3,160,711,160.2,710.6,160.2z M683.2,160.2c2.2,0.9,5.2,2.1,5.2,4.7c0,0.1,0,1.4-1.2,2.3h6c0.8-1.7,1.7-4,2.4-7H683.2z"/>
	<path class="st65" d="M755.1,189.3h-27.4l-0.5-1h12.5v-5.9h-8.9l-0.5-1h9.4v-4.5h-2.3v0.7c0,0.8-2.3,1.4-3.7,1.4
		c-0.6,0-1.3-0.1-1.3-0.9v-1.9c-0.3,0.5-0.8,1.5-2.4,1.5c-1.8,0-2.4-1-2.4-2.2c0-0.4,0.1-2,0.1-2.3c0-1.5-0.3-3-1.1-4.3v20.6
		c0,1.1-2.6,1.7-3.6,1.7c-1.6,0-2.1-0.4-2.1-1.1v-13.7c-0.9,1.4-2.4,3.8-6,7.1l-0.4-0.3c3.8-7.4,5.1-16.4,5.5-19.6h-4.7l-0.5-1h6.2
		V156c-0.8,0.1-4.9,0.3-6.4,0.3l-0.1-0.4c4.2-1.1,9.6-3.1,12.9-6l6.1,4.6c0.2,0.1,0.4,0.3,0.4,0.6c0,0.6-0.8,0.6-1,0.6
		c-0.4,0-0.6-0.1-1-0.2c-1,0.2-1.9,0.3-3.9,0.4c0,0.9,0,1.4-1.2,1.7v5.2h0.5l1.4-2.1c0.1-0.2,0.3-0.4,0.7-0.4c0.2,0,0.3,0.1,0.4,0.1
		l0,0h10v-4c-1.1,0.1-3.1,0.2-4.2,0.2h-4.4l0-0.4c7.5-1.1,12.5-3.8,15.8-6l6.6,5c0.2,0.2,0.3,0.4,0.3,0.6c0,0.3-0.3,0.6-0.9,0.6
		c-0.6,0-1.2-0.2-1.5-0.4c-1.5,0-3.9,0.1-5.4,0.2c0,0.1,0,0.3,0,0.4c0,0.3-0.2,0.6-0.4,0.7c-0.5,0.4-0.6,0.4-0.7,0.5v2.6h4l1.9-2.8
		c0.1-0.2,0.4-0.4,0.7-0.4c0.3,0,0.5,0.2,0.8,0.4l2.7,2.4c0.2,0.2,0.4,0.4,0.4,0.8c0,0.4-0.4,0.6-0.8,0.6H745v3.5h2.3l1.6-1.8
		c0.2-0.3,0.6-0.5,1-0.5c0.4,0,0.8,0.2,1,0.4l2.7,2.3c0.1,0.1,0.2,0.3,0.2,0.6c0,0.1,0,0.8-1,1.7v9.9c0,0.3,0,0.6-1.8,1.2l2.9,2.6
		c0.2,0.1,0.4,0.4,0.4,0.8s-0.4,0.6-0.8,0.6H745v5.9h4.1l2.2-2.6c0.2-0.3,0.4-0.4,0.7-0.4c0.3,0,0.6,0.3,0.8,0.4l2.8,2.3
		c0.2,0.2,0.4,0.4,0.4,0.8C755.9,189.1,755.5,189.3,755.1,189.3z M732.4,163.7h-5.7v3.4c2,0.8,4.9,3.2,5.7,5.1V163.7z M739.7,161.2
		H731l1.6,1.1c0.1,0.1,0.2,0.2,0.2,0.3l4.5,2.1h2.4V161.2z M739.7,165.7h-2.3v4.6h2.3V165.7z M739.7,171.2h-2.3v4.7h2.3V171.2z
		 M747.5,165.7H745v4.6h2.5V165.7z M747.5,171.2H745v4.7h2.5V171.2z M747.5,177.9v-1H745v4.5h2.4l2-2.8
		C749,178.7,747.5,178.7,747.5,177.9z"/>
	<path class="st65" d="M778.2,155.3v10.8c0,0.6-0.1,1-1.2,1.5c-1.1,0.4-2.3,0.6-2.8,0.6c-1.2,0-1.5-0.8-1.5-1.2v-1.4h-6v22.5
		c0,1.7-3.2,2.4-4.1,2.4c-1.2,0-1.2-0.7-1.2-1.2v-39l5.5,2.4h5.7l1.2-1.6c0.3-0.4,0.8-0.6,1.2-0.6s0.8,0.2,1.2,0.4l2.7,2
		c0.3,0.2,0.4,0.5,0.4,0.8C779.4,154.4,779.1,154.7,778.2,155.3z M772.7,153.8h-6v4.8h6V153.8z M772.7,159.6h-6v5.1h6V159.6z
		 M788,173.7v8.1c0,0.7,0,1.2-0.9,1.6c-0.9,0.5-2.2,0.8-2.9,0.8c-1.4,0-1.5-0.5-1.5-1.1v-2h-6.2v2.8c0,2-3.4,2.2-4.2,2.2
		c-0.8,0-1.3-0.2-1.3-1.2v-16.3l5.7,2h5.8l1.2-1.3c0.4-0.5,0.8-0.7,1.1-0.7c0.3,0,0.7,0.2,1,0.4l3,2.4c0.2,0.1,0.4,0.4,0.4,0.8
		C789.1,172.6,788.9,172.9,788,173.7z M782.6,171.6h-6.2v8.5h6.2V171.6z M798.1,155.9v30.7c0,2.5-1.6,4.1-6.5,4.1
		c-0.5,0-0.8-0.3-0.8-0.7c0-0.2,0.1-1.1,0.1-1.2c0-1.2-0.7-2.3-1.6-2.8c-0.4-0.2-3.7-1.1-4.2-1.2l0.1-0.4c1.1,0.1,4.4,0.3,4.8,0.3
		c0.9,0,2.4,0,2.4-1.8v-17.1h-5.5v0.8c0,0.8-1.9,1.8-3.4,1.8c-2.1,0-2.1-0.9-2.1-1.4v-16.3l5.6,2.2h5.2l1.6-1.4
		c0.4-0.4,0.9-0.7,1.3-0.7s0.8,0.2,1.1,0.4l2.7,2.3c0.3,0.3,0.4,0.5,0.4,0.8C799.4,154.8,798.9,155.2,798.1,155.9z M792.4,153.8
		h-5.5v4.8h5.5V153.8z M792.4,159.6h-5.5v5.1h5.5V159.6z"/>
	<path class="st65" d="M818.5,187.6c7.2-0.9,11.4-5.7,11.4-10.7c0-2.3-1.1-6.7-6.4-6.7c-2.3,0-4.9,0.7-8.4,4c0,0.6-0.2,3.9-0.2,4
		c0,0.3,0.3,6.2,0.3,6.9c0,1,0,3.7-2,3.7c-1,0-1.1-0.3-2-2.6c-0.6-1.6-2-3.1-2.7-3.8c-1.3,2.1-1.4,2.4-2.2,2.4
		c-1.4,0-1.4-1.9-1.4-2.2c0-1.7,0.4-2.3,1.3-3.2c2.3-2.4,4.4-6,5.7-8.2l0.1-1.5c-0.5,0.3-3,1.6-3.5,2c-0.5,0.3-0.6,0.4-0.9,0.4
		c-1.4,0-3.6-2.5-3.6-4c0-0.1,0-0.3,0.1-0.3c0.1,0,0.1,0,0.2,0.1c0.8,0.7,1.6,1,2.4,1c0.4,0,0.8,0,1.2-0.1c2-0.5,2.9-1,4.1-1.8
		c0.1-1,0.3-4.5,0.3-5.6c0-1.5-0.3-2.3-1-2.8c-0.1-0.1-1-0.5-1-0.7c0-0.2,1-0.5,1.7-0.5c1.8,0,4.6,1.8,4.6,2.9c0,0.2,0,0.3-0.1,0.6
		c-0.5,1.4-0.7,2-1,4.1c0.3-0.2,0.6-0.4,1-0.4c0.9,0,3.6,1.7,3.6,2.6c0,0.6-0.4,0.7-1,0.9c-1.3,0.4-3,2.7-4,4l0,0.8
		c3.9-3.3,7.1-4.2,10-4.2c4.7,0,8.8,3.6,8.8,8.7c0,2.1-0.9,7.1-7.4,9.4c-4.4,1.5-7,1.3-8.1,1.3L818.5,187.6z M811.8,177.8
		c-1.1,1.4-2,2.7-3,4.1c0.6,0.5,1.9,1.6,2.4,1.6s0.6-0.5,0.6-2.5L811.8,177.8z"/>
	<path class="st65" d="M847,190.4c6.9-2.3,7.4-6.6,7.5-8.5c-0.5,0.2-1.3,0.6-2.3,0.6c-1.9,0-2.5-1.4-2.7-2.1
		c-0.1-0.3-0.4-0.9-0.9-1.3c-0.5-0.6-0.8-0.9-0.8-1.7c0-1.7,1.3-6.2,5.3-6.2c0.4,0,0.8,0.1,1.1,0.1c0-0.1-0.1-2.5-0.2-3.7
		c-3.8,0.7-9.8,2.2-10.9,3.1c-0.6,0.4-0.6,0.5-1,0.5c-1.1,0-4.1-2.4-4.1-4.8c0-0.4,0.3-0.6,0.4-0.6c0.2,0,0.9,0.7,1,0.8
		c0.8,0.6,1.6,0.6,2,0.6c0.6,0,1,0,2.9-0.4c5.7-1.1,9.1-1.6,9.5-1.7c-0.3-4.8-0.3-5.9-2.2-6.7c-0.2-0.1-1-0.2-1.1-0.3
		c0,0,0-0.1,0-0.1c0-0.7,1.9-0.9,2.6-0.9c2.4,0,5.1,1.8,5.1,2.8c0,0.3-0.3,1-0.5,1.6c-0.1,0.4-0.1,0.6-0.3,3.2
		c1.6-0.1,3.2-0.3,4.8-0.4c0.4,0,0.7-0.2,0.7-0.4c0-0.1-1.8-1.9-2.7-2.3l0.1-0.3c0.8,0.3,4.3,2.1,5.1,2.3c0.4,0.1,2.5,0.1,2.9,0.2
		c0.2,0.1,1.5,0.4,1.5,1.6c0,1.6-1.7,1.6-2,1.6c-1,0-5.4-0.2-6.3-0.2c-1.8,0-3.1,0.1-4.2,0.2c0,0.8-0.1,3.8-0.1,4.4s0,0.7,0.1,1.1
		c1.6,1.8,1.6,3.6,1.6,4.5c0,2.6-0.8,7.9-3,9.7c-2.7,2.2-5.4,3.3-8.8,3.7V190.4z M852.8,179.7c1.4,0,1.6-2.6,1.6-3.8
		c0-0.4,0-2.8-1.1-2.8c-1.7,0-2.4,2.3-2.4,4.1C851,178.4,851.8,179.7,852.8,179.7z M861.5,156.8c1.6,0,5.1,1.4,5.1,3.6
		c0,0.6-0.7,1.4-1.4,1.4c-0.8,0-1.1-0.6-1.6-1.8c-0.7-1.7-2-2.4-2.8-3C861.1,156.8,861.2,156.8,861.5,156.8z M865.7,155.4
		c1.7,0,4.6,1.4,4.6,3.7c0,0.8-0.6,1.5-1.3,1.5c-0.9,0-1.1-0.8-1.4-2c-0.3-1.1-1.8-2.4-2.8-3.1C865.3,155.4,865.4,155.4,865.7,155.4
		z"/>
	<path class="st65" d="M915.1,185.4c-1.2,0-4.4,0.3-5.6,3.8c-0.2,0.6-0.3,0.7-0.5,0.7c-0.4,0-3.8-2.8-6.5-6.8
		c-4.8-7.1-6.2-14.4-6.8-23.6c-0.3,3.6-1,13.3-5.7,20c-2.6,3.7-8.3,9.7-17.4,10.7v-0.4c11.3-4.7,17.1-19.1,17.1-34.7
		c0-2.1-0.1-3.5-0.2-4.5l8.1,0.9c0.6,0.1,1,0.2,1,0.8c0,0.7-1.1,1.1-1.6,1.4c-0.2,1.2-0.2,2.2-0.2,2.7c0,6,2.5,13.8,7.6,20.3
		c3.1,3.9,6.4,6.1,10.6,8.5L915.1,185.4z"/>
	<path class="st65" d="M958.5,161.5H952v25.3c0,1.5,0,4-5.3,4c-1,0-1.5,0-1.5-0.5c0-0.1,0.1-0.8,0.1-0.9c0-1.7-0.7-2.4-1.6-2.7
		c-0.7-0.3-3.8-1.1-4.4-1.2l0.1-0.4c0.6,0,4.7,0.3,5,0.3c1.5,0,2.1,0,2.1-1.2v-10.7c-3.4,4.4-8.9,9.3-14.5,11.6l-0.3-0.4
		c7.2-6.4,10.9-13.5,13.2-23.3h-13.5v3.6c3.1,1,7.1,3,7.1,6.9c0,0.4,0,3.2-2.7,3.2c-2.8,0-2.8-2.2-2.8-3.3c0-0.8-0.1-3.6-1.5-5.5
		v22.7c0,1.2-3.2,1.7-4,1.7c-0.9,0-1.7-0.1-1.7-1.2v-14.8c-0.9,1.1-4.3,5.2-7.5,7.3l-0.4-0.3c4-6.1,6.3-13.1,6.8-20.3h-6.4l-0.5-1h8
		v-10l6.8,0.5c0.4,0,0.6,0.2,0.6,0.7c0,0.7-0.6,0.9-1.8,1.3v7.5h1.1l2-2.8c0.1-0.2,0.3-0.4,0.7-0.4c0.3,0,0.5,0.1,0.8,0.4l3.1,2.4
		c0.2,0.1,0.2,0.2,0.3,0.4h7.2v-9.9l6.8,0.5c0.4,0,0.4,0.4,0.4,0.6c0,0.7-0.5,0.8-1.7,1.3v7.5h1.1l1.9-2.9c0.1-0.2,0.4-0.4,0.7-0.4
		c0.3,0,0.6,0.2,0.8,0.4l2.3,2.5c0.2,0.3,0.4,0.4,0.4,0.8C959.3,161.3,958.8,161.5,958.5,161.5z"/>
	<path class="st65" d="M1001.3,155.5v31c0,4.2-4.5,4.3-4.8,4.3c-0.5,0-2.1-0.1-2.1-0.7c0-0.2,0.2-1.2,0.2-1.4c0-1.1-0.7-1.9-1.4-2.2
		c-0.3-0.1-2.4-0.6-3.6-0.9v1.6c0,1.3-2.1,2.5-3.8,2.5c-1.6,0-1.6-0.6-1.6-1.3v-11.5h-3c-0.4,4.9-3.3,11.9-10.9,13.1l-0.2-0.4
		c4.8-3.6,5.4-7.5,5.7-12.7h-5.9v12.1c0,0.8-1.9,2-3.7,2c-1.2,0-1.4-0.4-1.4-1.4v-39.1l5.1,2h6l1.3-1.5c0.3-0.3,0.6-0.6,1.3-0.6
		c0.3,0,0.7,0.1,0.9,0.3l3,2.3c0.1,0.1,0.3,0.2,0.3,0.5s-0.1,0.4-1.2,1.4v10.3c0,1.5-2.5,2.3-4.2,2.3c-0.6,0-1.3-0.2-1.3-1.1v-1.9
		h-6.2v11.3h6c0-0.2,0-0.4,0-0.6V170h-4.1l-0.5-1h17.4l1.7-2.4c0.1-0.2,0.3-0.4,0.7-0.4c0.2,0,0.4,0,0.8,0.4l2.9,2.1
		c0.1,0.1,0.4,0.3,0.4,0.8c0,0.4-0.4,0.6-0.8,0.6h-3.7c0,0.1,0.1,0.2,0.1,0.4c0,0.4-0.2,0.5-1.2,1.1v4.3l2.1-2.8
		c0.2-0.2,0.3-0.4,0.8-0.4c0.3,0,0.5,0.1,0.8,0.4l2.7,2.2v-10.6H990v1c0,0.9-2.4,1.9-4.1,1.9c-1.4,0-1.4-0.4-1.4-1.4v-15.3l5.6,1.9
		h5.5l1.5-1.5c0.2-0.2,0.4-0.5,1.1-0.5c0.1,0,0.7,0,1,0.3l3,2.2c0.1,0.1,0.4,0.5,0.4,0.9C1002.4,154.1,1002.4,154.2,1001.3,155.5z
		 M975.9,153.3h-6.2v4.5h6.2V153.3z M975.9,158.8h-6.2v4.6h6.2V158.8z M984.1,170h-2c0.1,0.1,0.2,0.2,0.2,0.5c0,0.4-0.1,0.5-1.2,1.2
		v3.3v0.7h3V170z M995.8,176.7h-6.3v8.1c0.7,0,4.1,0.1,5.4-0.1c0.9-0.1,0.9-0.6,0.9-1.2V176.7z M995.8,153.3H990v4.5h5.7V153.3z
		 M995.8,158.8H990v4.6h5.7V158.8z"/>
	<path class="st65" d="M1047.2,155.4h-10.8c0.1,1.2-0.7,1.5-1.7,1.8c-0.6,2.9-1.6,6.6-4.9,11.6h8.9l1.6-1.9c0.4-0.4,0.7-0.6,1.3-0.6
		c0.4,0,0.8,0.2,1.2,0.5l2.8,2.4c0.2,0.2,0.4,0.4,0.4,0.8c0,0.6-0.4,1-1.2,1.8v16.9c0,1.2-3.3,1.6-4,1.6c-1.2,0-1.7-0.6-1.7-1v-2
		h-9.2v1.6c0,1.2-3.2,1.6-3.8,1.6c-1.2,0-2-0.7-2-1.2v-13.8c-1.7,1.7-3.4,3.1-5.6,4.6v6.1c0,2.7-0.9,4.4-5.6,4.4
		c-0.4,0-1.1,0-1.1-0.6c0-0.1,0.1-0.7,0.1-0.8c0-0.6-0.3-1.9-0.8-2.4c-0.6-0.5-1-0.6-4.3-1.3l0-0.4c0.6,0,3.3,0.2,3.9,0.2
		c1.6,0,1.9-0.3,1.9-1.8v-8.3c-0.9,0.4-1,0.5-2.3,1.1c-0.2,1.3-0.4,1.8-0.9,1.8c-0.4,0-0.5-0.3-0.7-0.7l-2.3-6.8
		c2-0.3,2.4-0.3,6.1-0.9v-9.2h-5.5l-0.5-1h6v-9.3l6.7,0.6c0.4,0,0.7,0.1,0.7,0.6c0,0.5-0.4,0.8-1.6,1.5v6.6h0.5l1.6-2.5
		c0.1-0.2,0.4-0.4,0.7-0.4c0.2,0,0.3,0,0.8,0.4l3.1,2.1c0.3,0.1,0.4,0.4,0.4,0.8c0,0.4-0.4,0.6-0.8,0.6h-6.4v8.1
		c3.9-0.9,5.1-1.2,7.2-1.8c1.4-4,1.9-7.3,2-11.5h-6.9l-0.5-1h20.6l2-2.7c0.1-0.2,0.3-0.4,0.7-0.4c0.3,0,0.4,0.1,0.8,0.4l3.3,2.4
		c0.3,0.2,0.4,0.5,0.4,0.8C1048,155.3,1047.6,155.4,1047.2,155.4z M1018.5,172.3v6.5c3-3.2,5-6.4,6.7-10.6
		C1021.4,170.6,1020.1,171.3,1018.5,172.3z M1039.1,169.8h-9.2v16.6h9.2V169.8z"/>
	<path class="st65" d="M1089.4,190.9c-1.6,0-3.6-0.8-5.2-1.6c-2.5-1.2-5-3.3-7.3-7c-6.2,5.2-11.9,6.5-14.3,7.1l-0.2-0.4
		c5.5-2.4,9.5-6.6,12.3-10.8c-2.7-6.2-3.4-14.8-3.6-18.5h-11.4v6.8h4.5l1.4-1.9c0.3-0.4,0.6-0.8,1.4-0.8c0.2,0,0.4,0,1.1,0.4
		l2.9,2.1c0.3,0.2,0.5,0.6,0.5,0.9c0,0.6-0.4,0.9-1.6,1.6c-0.2,5.6-1.2,11.5-3.2,14.3c-1.8,2.5-4.3,2.7-5.1,2.7
		c-1.4,0-1.4-0.5-1.4-1.2c0-3-1.4-3.3-3.2-3.8c-2.4,5.1-4.7,6.9-6.2,8l-0.3-0.3c1.4-1.8,3.6-9.5,3.6-14.9v-17.9l6.3,2.8h10.6
		c-0.2-4.1-0.1-5.8-0.1-8.3l7.2,0.6c0.3,0,0.8,0.1,0.8,0.6c0,0.4-0.5,1-1.6,1.4c-0.1,1.5-0.2,2.9-0.2,5.7h7.6l2.4-2.9
		c0.1-0.2,0.3-0.4,0.7-0.4c0.3,0,0.5,0.2,0.8,0.4l3,2.6c0.2,0.2,0.4,0.4,0.4,0.8s-0.4,0.6-0.8,0.6h-14.1c0,2.7,0.4,8,1.3,11.8
		c1.9-4.4,2.6-7.2,3.1-8.9l6.4,2.6c0.4,0.1,1,0.4,1,1c0,0.9-1.2,0.9-1.9,0.9c-1.5,4.5-3.3,7.9-6,11.1c1.9,3.1,4.2,5.8,5.8,5.8
		c1,0,1.3-0.9,3.8-9l0.4,0.1l-0.9,8.9c-0.1,1.2,0.1,1.5,0.6,1.9c0.8,0.5,1.5,1.1,1.5,2.4C1092.3,190.4,1090.2,190.9,1089.4,190.9z
		 M1059.7,167.4v2.7c0,4.6-1.5,8.1-2.3,9.8c1.3,0.1,2.5,0.3,3.2,0.3c1.1,0,1.6-0.3,2-1.2c0.6-1.1,1.8-4.9,1.6-11.6H1059.7z
		 M1083.7,157.6c-2.5,0-2.6-1.8-2.7-3.3c0-0.8-0.2-2.7-1.9-3.8l0.1-0.4c7.4,0.4,7.6,4.1,7.6,4.8
		C1086.9,156,1085.8,157.6,1083.7,157.6z"/>
	<path class="st65" d="M1100.1,180.8c-0.6,1-0.7,1.2-1,1.2s-0.7-0.6-0.7-0.8l-2.6-6c2.8-0.3,3.6-0.4,6.8-0.8v-16.9h-5.9l-0.5-1h12.5
		l2-2.6c0.2-0.2,0.3-0.4,0.7-0.4c0.2,0,0.3,0,0.8,0.4l3.6,2.3c0.2,0.1,0.4,0.4,0.4,0.8c0,0.4-0.4,0.6-0.8,0.6h-6.3
		c0.4,0.9-0.8,1.5-1.2,1.6v14.4c3.8-0.6,4.8-0.8,8.1-1.3l0.1,0.4C1112.8,174.5,1107.7,177.4,1100.1,180.8z M1134.3,164.3
		c-0.2,5.2-0.5,16.2-2.7,21.5c-1.4,3.5-2.7,4.6-6.5,4.6c-1.1,0-1.2-0.2-1.2-0.6c0-0.2,0.1-1.1,0.1-1.3c0-2.4-0.4-2.5-5.6-3.6
		l0.1-0.4c1.6,0.1,3.4,0.3,4.8,0.3c1.3,0,2.3,0,3.1-1.4c1.2-2.1,2.7-9.6,2.7-17.2c0-2-0.1-3.2-0.2-4.2h-5
		c-0.1,12.1-3.3,25.1-20.2,27.9l-0.1-0.4c13.2-4.7,14.6-19.1,14.8-27.5h-7.1l-0.5-1h7.6v-10.2l6.4,0.7c0.7,0.1,0.8,0.4,0.8,0.7
		c0,0.8-1.1,1.3-1.7,1.6v7.3h4.8l1.2-1.9c0.2-0.3,0.6-0.7,1.1-0.7c0.4,0,0.9,0.2,1.2,0.4l3.3,2.4c0.2,0.1,0.4,0.4,0.4,0.7
		C1136,162.4,1135.5,163,1134.3,164.3z"/>
</g>
<g>
	<path class="st65" d="M747.1,745.6c-0.5,0.4-0.6,0.4-0.8,0.6c0.1,9.1-1,16.9-2.5,20.2c-1.5,3.2-3.2,3.7-5.2,3.7
		c-1.6,0-1.6-0.3-1.6-0.8c0-1.5,0-1.7-0.2-2.2c-0.4-0.9-1.6-1.4-3.5-2.1c-1.4,1.9-3.7,4.2-7.2,5.8l-0.2-0.4c1.7-1.6,3-3,4.2-5.2
		c-6.7,2.2-11.4,3.5-17.8,5.1c-0.4,0.7-0.5,0.9-0.9,0.9c-0.3,0-0.5-0.2-0.5-0.4l-1.2-5.4c3.5,0.1,5.6,0,8.2-0.2v-3.7h-7.1l-0.5-0.9
		h7.6V757h-2.1c0,0.6,0,0.9-0.4,1.2c-0.9,0.8-2.8,1.2-3,1.2c-1.1,0-1.2-0.7-1.2-1.1V744l4.7,2.2h1.9v-3.4h-8.1l-0.5-0.9h8.6v-3.2
		c-2.2,0.1-6.4,0.2-8.4,0.2v-0.4c4.7-0.5,13.8-3.8,15.7-5.1l4.9,3.6c0.3,0.2,0.4,0.5,0.4,0.6c0,0.2-0.2,0.4-0.5,0.4
		c-0.2,0-0.3,0-0.6-0.1c-1.9,0.2-4.5,0.4-5.4,0.5c0.2,1-0.8,1.2-1.1,1.2v2.4h3.3l1.9-2.5c0.1-0.2,0.3-0.4,0.7-0.4
		c0.3,0,0.5,0.2,0.7,0.4l2.7,2.2c0.2,0.2,0.3,0.5,0.3,0.7c0,0.4-0.4,0.5-0.7,0.5h-9v3.4h2.1l1.3-1.4c0.2-0.3,0.4-0.5,0.9-0.5
		c0.2,0,0.6,0.1,0.8,0.3l2.7,2.4c0.1,0.1,0.3,0.3,0.3,0.5c0,0.5-0.1,0.5-1,1.2v7.6c0,1.1-0.2,1.2-1.5,1.6c0.2,0.1,0.2,0.2,0.3,0.2
		l2.3,2.3c0.2,0.2,0.4,0.5,0.4,0.8c0,0.4-0.4,0.5-0.7,0.5h-7.7v3.4c3.2-0.1,4-0.1,7.5-0.4c1.9-3.9,2.4-6.7,2.8-10.2
		c0.3-2.6,0.6-6.6,0.6-9.2h-4l-0.5-0.9h4.6c0-3.5,0.1-6.9-0.1-10.4l5.6,0.6c0.1,0,0.8,0.1,0.8,0.7c0,0.5-0.1,0.5-1.3,0.9
		c0,1.3-0.2,7-0.3,8.1h2.9l1.3-2.3c0.3-0.5,0.7-0.6,1-0.6c0.2,0,0.6,0.1,0.9,0.3l2.7,2.4c0.2,0.2,0.3,0.4,0.3,0.6
		C747.6,745.2,747.4,745.4,747.1,745.6z M717.8,747.2h-2.1v4h2.1V747.2z M717.8,752.1h-2.1v4h2.1V752.1z M725,747.2h-2.2v4h2.2
		V747.2z M725,752.1h-2.2v4h2.2V752.1z M726.3,758.3c-1.3,0-1.3-0.3-1.3-1.3h-2.2v3.8h2.5l1.9-2.7
		C726.6,758.3,726.5,758.3,726.3,758.3z M738.5,745.4c-0.2,7.8-1.2,14-4.9,19.2c2,0.3,3.2,0.5,3.7,0.5c1,0,2.1-0.2,2.6-2
		c1.6-5.8,1.7-11.8,1.6-17.7H738.5z"/>
	<path class="st65" d="M782.5,771.2c-1.4,0-1.9-0.6-4-2.8c-1.5-1.6-4.5-3.7-8.8-4.5l0-0.4c0.9-0.1,2-0.2,3.8-0.2
		c2.9,0,4.3,0.3,5.1,0.5v-1.1h-14.2l3.6,2.3c0.5,0.3,0.6,0.5,0.6,0.9c0,0.6-0.2,0.6-2.1,0.7c-5.5,2.5-8.7,3.9-15.6,4.2l0-0.4
		c6.5-2.1,9.9-6.1,10.8-7.7h-1.6c0,0.7,0,1-0.4,1.4c-0.5,0.5-2.1,1-3.7,1c-1.1,0-1.2-0.5-1.2-1.4v-18l2.2,0.7
		c-0.1-0.2-0.1-0.4-0.1-0.7v-12l5.1,2.1h15l1.1-1.3c0.4-0.5,0.8-0.7,1.2-0.7c0.4,0,0.8,0.2,1.2,0.4l2.8,2c0.3,0.2,0.5,0.5,0.5,0.7
		c0,0.5-1.2,1.5-1.6,1.8v5.5c0,0.6-0.2,0.7-0.6,1c0.3,0.2,0.5,0.2,0.6,0.3l2.2,1.7c0.3,0.2,0.6,0.5,0.6,0.9c0,0.3-0.1,0.4-1.1,1.5
		v12.7c0,0.8-0.1,1.5-2.2,1.9c1.3,0.4,3.5,1.1,3.5,3.7C785,768.7,784.9,771.2,782.5,771.2z M778,746.1c-0.9,0-1-0.4-1-1.1v-0.8
		h-15.4c0,1.5,0,2.1-3.4,2.5l2.1,0.7h18l1.2-1.5C779,746,778.4,746.1,778,746.1z M778.6,748.4h-18.6v3.7h18.6V748.4z M778.6,753
		h-18.6v3.8h18.6V753z M778.6,757.8h-18.6v4h18.6V757.8z M777,736.7h-15.4v6.7H777V736.7z"/>
	<path class="st65" d="M807.9,768v-1.4c3.3,0,5.3-0.5,5.3-4.2V735c0-3.5-1.1-3.9-3.7-3.9h-1.1v-1.4l11.8-1.6v34.3
		c0,3.6,1.9,4.2,5.3,4.2v1.4H807.9z"/>
	<path class="st65" d="M843.6,768.5c-6.2,0-11-7-11-20.2c0-13.6,5-20.2,11-20.2c6.1,0,11,6.7,11,20.2
		C854.7,761.8,849.7,768.5,843.6,768.5z M845.1,730.6c-0.4-0.5-0.8-1-1.5-1c-1.4,0-2.2,2.3-2.3,2.8c-0.9,2.8-1.3,14-1.3,17.9
		c0,3,0.3,16.7,3.7,16.7c1.4,0,2.1-2.3,2.3-2.8c0.5-1.6,1.4-7.6,1.4-15.9C847.3,744.3,847.1,733.4,845.1,730.6z"/>
	<path class="st65" d="M909.6,765.5c-1.4,0.1-5.3,0.3-6.7,4.6c-0.2,0.7-0.3,0.8-0.6,0.8c-0.5,0-4.6-3.3-7.9-8.3
		c-5.8-8.6-7.5-17.5-8.2-28.7c-0.3,4.3-1.2,16.1-7,24.3c-3.2,4.5-10.1,11.8-21.1,13v-0.5c13.7-5.7,20.8-23.2,20.8-42.2
		c0-2.5-0.2-4.2-0.3-5.5l9.9,1.1c0.8,0.1,1.2,0.2,1.2,0.9c0,0.8-1.3,1.3-2,1.7c-0.2,1.5-0.2,2.7-0.2,3.2c0,7.3,3,16.8,9.3,24.7
		c3.7,4.7,7.8,7.4,12.9,10.3L909.6,765.5z"/>
	<path class="st65" d="M916.1,768.5l-3.2-1.8l20.3-38.6l3.2,1.8L916.1,768.5z"/>
	<path class="st65" d="M979,730.6v35c0,1.2,0,2.6-1.5,3.7c-1.9,1.4-4.5,1.7-5.9,1.7c-1.7,0-1.7-0.2-1.8-1.3
		c-0.3-3.6-2.9-4.2-7.1-5.2v-0.5c0.1,0,5.9,0.3,7.1,0.3c1.6,0,2.1-0.9,2.1-2.4v-11.3h-15.7c-1,8.4-5.2,16.8-16,20.9l-0.3-0.5
		c5.5-4,7.6-10,8.7-16.4c0.9-5,0.9-6.6,0.9-31.1l7.3,2.9h14.8l2-2.3c0.3-0.3,0.9-0.7,1.7-0.7c0.6,0,1,0.3,1.5,0.6l3.7,3.1
		c0.1,0.1,0.5,0.4,0.5,1C980.9,728.8,980.7,728.8,979,730.6z M971.9,738.9h-15.2c0,3,0,7.6-0.3,10.5h15.5V738.9z M971.9,727.6h-15.2
		v10.1h15.2V727.6z"/>
	<path class="st65" d="M1005.9,765.6c-0.2,1-0.3,1.6-0.9,1.6c-0.4,0-0.6-0.3-0.8-0.8l-2.5-5.9c1.7-0.5,2.4-0.8,3.4-1.2v-21.5
		l5.5,0.5c0.3,0,0.7,0.3,0.7,0.7c0,0.2-0.1,0.3-1.2,1.2v17.1c4.9-2,9.6-4.2,14.3-6.6l0.2,0.3
		C1021.3,754.8,1014.7,759.7,1005.9,765.6z M1033.7,769.6c-2.4,0-2.7-2.4-2.8-3.2c-0.2-2.9-0.3-3.4-1.5-4.7
		c-1.2,1.7-1.9,2.4-3.5,3.7c-5.3,4.2-15,4.5-18.1,4.5v-0.4c12-2,17.8-7.2,19.6-16.5c0.7-3.7,0.7-8.4,0.7-16.2l5.6,0.6
		c0.7,0.1,0.9,0.5,0.9,0.8c0,0.5-0.3,0.8-1.4,1.5c0.1,7.4,0.2,14.5-2.8,20.2c4.4,1.7,5.9,4.3,5.9,6.7
		C1036.4,768.1,1035.6,769.6,1033.7,769.6z M1019.9,747.4c-2.4,0-2.8-2-3-3.5c-0.6-3.6-1.2-6.3-4.9-7.6V736c0.7-0.1,1-0.1,1.4-0.1
		c4.9,0,9.8,3.6,9.8,7.9C1023.2,746.1,1021.7,747.4,1019.9,747.4z"/>
	<path class="st65" d="M1074.6,768.9h-34.3l-0.5-0.8h13.9V736l5.7,0.5c0.3,0,1,0.1,1,0.8c0,0.5-0.2,0.7-1.6,1.1V749h6.4l2.5-2.9
		c0.2-0.3,0.3-0.4,0.6-0.4c0.3,0,0.5,0.2,0.7,0.3l3.1,2.9c0.2,0.2,0.3,0.3,0.3,0.5c0,0.4-0.4,0.4-0.8,0.4h-12.8v18.2h8.5l2.9-3.3
		c0.2-0.3,0.3-0.4,0.6-0.4c0.2,0,0.3,0,0.7,0.3l3.6,3.2c0.2,0.2,0.3,0.4,0.3,0.6C1075.5,768.9,1075.1,768.9,1074.6,768.9z"/>
	<path class="st65" d="M1112.1,769.2c0,1-0.3,1-1.4,1c-3.4,0-15,0-17.5-0.4c-5.7-0.9-6.7-4.5-7-5.7c-0.7,0.9-1.2,1.4-5.1,5.6
		c-0.3,1.2-0.3,1.3-0.7,1.3c-0.3,0-0.4-0.2-0.5-0.5l-1.5-5.1c0.6-0.1,1.6-0.2,4-0.8V753h-3.4l-0.5-0.8h3.7l1.4-1.5
		c0.4-0.4,0.7-0.7,1.4-0.7c0.5,0,1,0.3,1.4,0.6l1.9,1.6h5.3c-0.5-0.4-0.7-0.8-0.7-2c-0.2-2.4-0.5-2.8-1.2-3.4h-5.1l-0.5-0.8h10.6
		v-4.3h-7.5l-0.5-0.8h8v-4.9l5.3,0.4c0.1,0,0.6,0.2,0.6,0.5c0,0.6-0.8,0.8-1.2,0.9v3h3.1l1.5-2c0.2-0.2,0.3-0.4,0.6-0.4
		c0.3,0,0.4,0.2,0.7,0.3l2.5,1.7c0.2,0.1,0.3,0.4,0.3,0.7c0,0.4-0.3,0.5-0.7,0.5h-8.2v4.3h4.9l1.9-2.1c0.2-0.2,0.3-0.4,0.6-0.4
		c0.2,0,0.5,0.2,0.7,0.3l2.5,1.8c0.2,0.1,0.4,0.4,0.4,0.7c0,0.4-0.3,0.5-0.7,0.5h-6.7l2.3,1.7c0.2,0.2,0.3,0.3,0.3,0.5
		c0,0.5-0.6,0.5-0.8,0.5c-0.3,0-0.5,0-0.8-0.1c-1,0.9-2.6,2.3-3,2.7h3.5l2.1-2.1c0.2-0.2,0.3-0.3,0.6-0.3c0.2,0,0.4,0.1,0.7,0.3
		l2.3,1.8c0.1,0.1,0.3,0.3,0.3,0.7c0,0.4-0.3,0.5-0.7,0.5h-9.8c0.2,1-0.3,1.1-1,1.2v2.5h3l1.8-2.3c0.2-0.3,0.4-0.3,0.7-0.3
		c0.2,0,0.4,0.1,0.7,0.3l2.5,2c0.2,0.2,0.3,0.3,0.3,0.7c0,0.4-0.3,0.5-0.7,0.5h-8.3v3.5h5.4l2-2.2c0.2-0.2,0.3-0.4,0.7-0.4
		c0.2,0,0.4,0.2,0.7,0.3l2.4,1.9c0.2,0.1,0.4,0.4,0.4,0.7c0,0.4-0.3,0.5-0.7,0.5h-10.8v2.2c0,1.4-2,1.8-3.2,1.8
		c-1.3,0-1.5-0.3-1.5-1.3v-2.7h-7.9l-0.5-0.8h8.4v-3.5h-6.7l-0.5-0.8h7.2V753h-7.8c-0.2,0.2-1,1-1.4,1.3v8.2c0,3.7,3.7,3.7,8.5,3.7
		c9.6,0,16-0.5,18.4-0.7v0.4C1112.2,767.2,1112.1,768.8,1112.1,769.2z M1084.6,744.9c-2.2,0-2.5-1.7-2.9-3.7
		c-0.5-2.7-2.2-3.5-2.9-3.8V737c4.9,0.1,8.3,2.9,8.3,5.6C1087.2,743.6,1086.3,744.9,1084.6,744.9z M1094.7,746.8
		c1.6,0.8,2.8,2.2,2.8,3.7c0,0.9-0.5,1.3-0.8,1.7h3.4c0.7-1.7,1.6-4.4,1.9-5.4H1094.7z"/>
	<path class="st65" d="M1150,771c-1.3,0-3.1-0.7-4.5-1.4c-2.2-1-4.3-2.9-6.4-6.1c-5.4,4.5-10.3,5.7-12.4,6.2l-0.2-0.4
		c4.8-2.1,8.2-5.7,10.7-9.4c-2.4-5.4-3-12.9-3.1-16.1h-9.9v5.9h3.9l1.2-1.7c0.3-0.4,0.5-0.7,1.2-0.7c0.2,0,0.4,0,0.9,0.4l2.5,1.8
		c0.3,0.2,0.4,0.5,0.4,0.8c0,0.5-0.3,0.8-1.3,1.4c-0.2,4.9-1,9.9-2.8,12.4c-1.5,2.2-3.7,2.4-4.4,2.4c-1.2,0-1.2-0.5-1.2-1
		c0-2.6-1.2-2.9-2.8-3.3c-2.1,4.4-4.1,6-5.4,7l-0.3-0.3c1.2-1.5,3.1-8.2,3.1-13v-15.6l5.5,2.4h9.2c-0.2-3.5-0.1-5.1-0.1-7.2l6.2,0.5
		c0.3,0,0.7,0.1,0.7,0.5c0,0.4-0.4,0.9-1.3,1.2c-0.1,1.3-0.2,2.5-0.2,5h6.6l2.1-2.5c0.1-0.2,0.2-0.4,0.6-0.4c0.3,0,0.5,0.2,0.7,0.3
		l2.6,2.2c0.2,0.2,0.4,0.4,0.4,0.7s-0.4,0.5-0.7,0.5h-12.2c0,2.3,0.3,6.9,1.1,10.2c1.7-3.8,2.3-6.2,2.7-7.7l5.6,2.2
		c0.3,0.1,0.8,0.3,0.8,0.8c0,0.8-1,0.8-1.7,0.8c-1.3,3.9-2.9,6.9-5.2,9.6c1.7,2.7,3.7,5,5,5c0.9,0,1.2-0.8,3.3-7.8l0.4,0.1l-0.8,7.7
		c-0.1,1.1,0.1,1.3,0.5,1.6c0.7,0.5,1.3,0.9,1.3,2.1C1152.6,770.5,1150.7,771,1150,771z M1124.3,750.6v2.3c0,4-1.3,7.1-2,8.5
		c1.1,0.1,2.2,0.2,2.8,0.2c0.9,0,1.3-0.2,1.8-1c0.5-0.9,1.6-4.3,1.3-10.1H1124.3z M1145.1,742.1c-2.2,0-2.3-1.6-2.4-2.9
		c0-0.7-0.2-2.4-1.7-3.3l0.1-0.3c6.4,0.4,6.6,3.6,6.6,4.1C1147.8,740.7,1146.9,742.1,1145.1,742.1z"/>
</g>
<g>
	<path class="st65" d="M176.4,815v11.4c0,1.3-3.3,1.7-3.9,1.7c-1.6,0-2-0.7-2-1.5v-1h-10.1v1c0,1.3-2.8,1.8-3.8,1.8c-0.6,0-2,0-2-1
		v-14.9c-1.4,1.1-8.2,5.7-9.5,6.6c-1.5,1-2.4,1.8-3.2,2.4c-0.4,1.5-0.5,1.7-1,1.7c-0.3,0-0.6-0.4-0.8-0.7l-2.4-7.3
		c1.5-0.2,4.3-0.7,5.6-1.1v-14.9h-5.4l-0.5-1h5.9v-11.5l6.5,0.6c0.5,0,0.9,0.2,0.9,0.7c0,0.7-1.3,1.1-1.7,1.2v9h0.7l1.8-2.7
		c0.1-0.2,0.4-0.5,0.7-0.5c0.3,0,0.5,0.1,0.9,0.4l3.1,2.4c0.2,0.1,0.4,0.5,0.4,0.8c0,0.5-0.3,0.6-0.8,0.6h-6.8v13.7
		c1.6-0.3,4.1-0.9,5.6-1.2v-2.4l5.9,2.7h9.9l1.6-2c0.2-0.3,0.8-0.6,1.3-0.6c0.5,0,1,0.2,1.3,0.5l2.5,2.2c0.2,0.2,0.5,0.8,0.5,1
		C177.6,813.7,177,814.3,176.4,815z M179.6,807h-28.9l-0.5-1h16.2c1.4-4.4,1.7-7.1,1.7-11.4h-11.6c4.2,1.7,7.1,4.1,7.1,7.7
		c0,2.8-1.7,3.5-3,3.5c-1.8,0-2.8-1.5-2.8-2.6c0-0.5,0.4-2.8,0.4-3.3c0-1.6-1-3.7-2.1-5l0.2-0.4h-4.2l-0.5-1h10.8v-6.8l6.3,0.4
		c0.3,0,1,0.1,1,0.8c0,0.6-0.5,0.9-1.4,1.3v4.3h3.5l2.2-2.9c0.2-0.2,0.5-0.5,0.7-0.5c0.4,0,0.6,0.2,0.9,0.4l2.7,2.6
		c0.2,0.2,0.5,0.4,0.5,0.8c0,0.4-0.4,0.6-0.8,0.6h-8.9l5.6,1.6c0.4,0.1,0.7,0.3,0.7,0.8c0,0.7-0.7,0.9-1.8,1.1
		c-2.1,3.4-4.6,6.3-6.2,7.9h5.4l2.4-3c0.2-0.3,0.4-0.5,0.8-0.5c0.3,0,0.6,0.3,0.8,0.4l3.1,2.6c0.2,0.2,0.5,0.4,0.5,0.9
		C180.4,806.8,180,807,179.6,807z M170.5,813h-10.1v11.6h10.1V813z"/>
	<path class="st65" d="M193.2,824.9c3.3-0.4,8.1-2.3,9.5-3.1c4.2-2.2,7.5-5.7,7.5-11.1c0-1.6-0.2-5.3-5.7-5.3c-3.5,0-7.1,2-9,3.1
		c-1.9,1.1-3.9,2.2-4.3,2.6c-2.5,1.9-2.7,2.1-3.4,2.1c-1,0-2.7-1.1-3.7-3c-0.5-1-0.5-1.1-0.6-3.6c0,0,1.4,1,1.4,1
		c0.4,0.3,1.1,0.8,2.1,0.8c1.4,0,5.2-1.5,5.5-1.6c4.6-1.8,9.8-3.3,12.4-3.3c3,0,9.6,2.3,9.6,9.5c0,6.1-4.8,9.2-7,10.2
		c-3.6,1.6-9.2,2.1-14.2,2V824.9z"/>
	<path class="st65" d="M236.7,794.6c1.6,0.9,2.3,1,3.1,1c0.3,0,1.5-0.1,1.7-0.1c1.2,0,2.5,0.2,2.5,1.7c0,1-1.1,1.8-2.2,2.3
		c-4.3,2.1-6.9,2.9-8.9,3.5c-0.9,2.3-4.3,12.6-5.1,14.7c-3.1,8.2-3.9,8.2-4.7,8.2c-1.3,0-2.3-1.4-2.3-2.7c0-1.6,1.1-3.5,1.4-3.9
		c2.3-3.6,3.2-5.1,6.7-15.4c-1.5,0.2-2.4,0.3-3.3,0.3c-4.2,0-6-4.1-6-4.3s0.2-0.3,0.3-0.3c0.2,0,0.8,0.6,0.9,0.7
		c1.3,0.6,3.1,0.7,3.7,0.7c2,0,4.3-0.5,5.6-0.8c0.5-1.6,1.8-5.8,1.8-7.2c0-1.6-1.4-2.9-2.3-3.2c-0.2,0-0.4-0.1-0.4-0.3
		c0-0.7,1.5-0.7,2.6-0.7c1.7,0,2.5,0.3,5,2.9c0.1,0.1,0.6,0.6,0.6,1.2c0,0.5-0.1,0.6-1,2c-0.6,0.9-0.7,1.2-1.7,4
		c1.3-0.5,3.7-1.4,3.7-2.1c0-0.5-1.2-1.5-1.6-1.8V794.6z M254.1,824.2c-1.4,0.9-5.3,1-6.6,1c-8.9,0-12-2.3-12-6.6
		c0-2.7,2.1-4.3,2.2-4.3s0.3,0.1,0.3,0.2c0,0.2-0.5,1.2-0.5,1.5c-0.2,0.4-0.2,0.8-0.2,1.1c0,0.7,0.3,4.1,6.1,4.1c2,0,2.3-0.1,7-1.2
		c0.4-0.1,0.6-0.1,0.9-0.1c1.9,0,3.5,1,3.7,2.5C255,822.9,254.7,823.8,254.1,824.2z M243.8,808.7c1.6-0.8,2.9-1.9,2.9-2.5
		c0-1-3.4-1.1-3.6-1.1c-0.5,0-3.6,0.2-3.8,0.2c-0.1,0-0.5,0-0.5-0.3c0-0.5,4.8-2.9,8.9-2.9c4,0,7,1.7,7,3.7c0,1.2-1,1.6-2,1.6
		c-0.3,0-0.9,0-1.2-0.1c-0.8-0.3-0.9-0.3-1.1-0.3c-1,0-1.9,0.4-6.4,2.1L243.8,808.7z"/>
	<path class="st65" d="M272.1,790.3c-0.8,0.6-4.2,3.6-5,4.1c1.4,1.7,1.4,3,1.4,3.7c0,2.5-2.5,3.2-3.2,3.2c-2.2,0-2.6-2.2-2.9-4.6
		c-0.2-1.6-1.4-2.7-3.9-5l0.1-0.5c3.6,0,5.8,1,6.6,1.5c0.6-2.1,0.8-2.9,1.7-6.4l6.4,2.3c0.4,0.1,0.6,0.4,0.6,0.8
		C273.9,790,273.4,790.1,272.1,790.3z M299.8,808.6c-0.4,1.7-0.4,2-0.8,2c-0.7,0-7.5-2.6-11.4-5.6c-1.8,1.2-4.2,2.6-7.7,3.4
		c0,0.9-0.4,3.3-3,3.3c-2.5,0-2.7-1.9-2.9-4.2c-0.3,0.1-2,0.7-2.4,0.8v2.2c3,0.9,5.5,2.9,6.8,4.7h6.1v-8l6.5,0.8
		c0.7,0.1,1,0.5,1,0.8c0,0.6-0.4,0.7-1.5,1.3v5.1h3.2l2.2-2.9c0.1-0.2,0.3-0.5,0.7-0.5c0.3,0,0.5,0.1,0.9,0.4l3,2.6
		c0.2,0.2,0.5,0.4,0.5,0.8c0,0.5-0.5,0.6-0.8,0.6h-9.7v9.3h3.7l2.5-3c0.2-0.2,0.4-0.5,0.7-0.5s0.5,0.2,0.9,0.5l3.1,2.6
		c0.2,0.2,0.5,0.5,0.5,0.8c0,0.5-0.4,0.6-0.8,0.6h-27.8l-0.5-1h11.8v-9.3h-5.5c0.1,0.3,0.3,0.8,0.3,1.6c0,1.9-1.2,3.6-3.2,3.6
		c-2.4,0-2.4-1.9-2.4-3c0-2.1-0.7-4.1-2.1-5.6v13.7c0,1.7-3.4,1.9-3.8,1.9c-1.1,0-1.4-0.6-1.4-1.2V815h0c-1.3,3.5-3.9,8.3-7.2,10.7
		l-0.4-0.3c1.7-2.8,2.6-10.3,2.5-13c-0.2-0.2-0.4-0.3-0.5-0.7l-1.3-5.8c0.6,0,3.6-0.2,4.2-0.2c0.6-0.8,6.2-7.3,7.9-12.9l6.1,2.7
		c0.2,0.1,0.7,0.3,0.7,0.8c0,0.1,0,0.9-0.9,0.9c-0.1,0-0.3,0-0.6-0.1c-0.7,0.4-1,0.6-1.5,1c-0.5,0.5-2.9,2.6-3.5,3.2
		c3.7,0.8,6.5,3.1,7.5,5.5c1-0.5,3.1-1.7,5.6-4.2c-2.6-3-4.5-7.3-5-12.2h-3.4l-0.5-1.1h16.6l1.7-1.8c0.3-0.3,0.7-0.5,1.1-0.5
		c0.4,0,0.9,0.2,1.2,0.5l3.3,2.9c0.2,0.2,0.5,0.4,0.5,0.9c0,0.9-0.7,1.1-1.9,1.5c-0.9,1.6-2.8,5-6.8,8.9c3.3,1.4,6.5,2.1,10.5,2.8
		l0,0.5C300.7,805.6,299.8,808.1,299.8,808.6z M266.4,810.1c-3.1,1-3.7,1.2-4.1,1.3c0,0.5,0,0.6-0.1,0.9l4.2,1V810.1z M270.7,802.3
		c-1.5,1.3-2.8,2.3-4.2,3.3c3.4-0.2,3.7-0.2,6.8-0.4C272.2,803.7,271.7,803,270.7,802.3z M281.2,790.3c1.5,3.4,3.7,6.8,6.6,8.9
		c2.6-3.7,3.8-6.7,4.5-8.9H281.2z"/>
	<path class="st65" d="M306.2,823.6c-0.9,0-1.8-0.6-1.8-2c0-0.6,0.2-1.1,1-2.9c0.6-1.3,1.1-2.6,1.1-4.4c0-0.5,0-0.8-0.1-1.3h0.5
		c1,1.2,2,4.4,2,6.3C308.8,821.7,307.8,823.6,306.2,823.6z M345.2,801.2c0,0.4-0.3,0.7-0.8,0.7c-0.4,0-0.9-0.3-2.5-1.7
		c-0.1,0-0.3,0.1-0.5,0.1h-2.7c0.2,1-0.9,1.6-1.2,1.7v3.5h2.4l1.6-1.9c0.2-0.2,0.5-0.4,0.8-0.4c0.5,0,1,0.3,1.1,0.4l2.4,2
		c0.4,0.3,0.4,0.7,0.4,0.8c0,0.5-0.5,1-1.2,1.9v6.6c0,1.3-2.7,1.7-3.7,1.7c-1.2,0-1.2-0.5-1.2-1.5h-2.7c0,0.2,0,0.3-0.1,0.7
		c1.3,2.6,4.7,6.1,10.9,7.5v0.5c-2.2,0.6-3.2,1.8-3.2,4c0,0.4-0.1,0.5-0.5,0.5c-1.3,0-5.8-3-8.1-9.9c-3.2,6.4-10,9.3-16,10l-0.1-0.5
		c6.9-1.8,11.1-7.6,12.1-12.8h-2.4v0.8c0,0.5,0,0.9-1,1.2c-0.3,0.1-1.3,0.5-2.6,0.5c-0.6,0-1.3-0.1-1.3-1.1v-5.8
		c-0.2,0.2-0.3,0.3-0.7,0.6c-0.4,7.4-0.9,17-7.8,17c-0.5,0-0.8-0.2-0.8-0.8c0-0.2,0.1-1,0.1-1.2c0-0.5-0.1-1.1-0.9-1.6
		c-0.6-0.4-4.2-1.2-5.1-1.5l0-0.5c3,0.4,4.2,0.4,4.4,0.4c2.6,0,3.7-1,4.3-6.5c-0.9-0.1-1.1-0.7-1.8-2c-0.3-0.6-1-2.1-3.2-2.7v-0.5
		c0.4,0,0.9-0.1,1.6-0.1c2.2,0,3.3,0.8,3.7,1.1l0.1-3.3h-7.6v0.8c0,1.2-1.6,1.5-3.3,1.5c-1.3,0-1.5-0.4-1.5-1.1v-23.1l4.7,2.1h7.7
		l2-2.3c0.2-0.3,0.4-0.5,0.8-0.5c0.2,0,0.6,0.2,0.8,0.4l2.7,2.1c0.2,0.1,0.4,0.3,0.4,0.7c0,0.5-0.5,0.6-0.8,0.6h-5.7
		c0.1,0.9,0,1.1-1,1.5v3.7h0.8l1.4-1.7c0.2-0.2,0.4-0.5,0.7-0.5c0.2,0,0.7,0.3,0.9,0.4l2.4,1.5c0.2,0.1,0.4,0.5,0.4,0.7
		c0,0.4-0.3,0.6-0.8,0.6h-5.8v5.2h0.8l1.4-1.7c0.2-0.2,0.3-0.5,0.7-0.5c0.2,0,0.5,0,0.9,0.4l0.9,0.7c4-3.7,6.1-8.8,7.3-14l7.1,1.6
		c0.2,0,0.7,0.1,0.7,0.5c0,0.3-0.5,1-1.3,1.1c1.6,2.4,5.6,5.3,11.6,6.5v0.5C345.7,797.7,345.4,799.9,345.2,801.2z M311.3,822.5
		c-1.7,0-1.7-1.2-1.7-2c0-0.4,0.1-2.2,0.1-2.6c0-0.9-0.1-2.7-1.7-4.9l0.3-0.3c2.7,1.5,5.1,4.4,5.1,7.1
		C313.4,820.2,313.4,822.5,311.3,822.5z M315.6,819.9c-1.2,0-1.5-1.1-2.1-3.4c-0.5-2.1-2-3.1-3-3.7l0.2-0.5c4.2,0.7,6.4,3.1,6.4,5.4
		C317.1,819.1,316.3,819.9,315.6,819.9z M313.5,790.4h-2.1v5.2h2.1V790.4z M313.5,796.6h-2.1v5.2h2.1V796.6z M313.5,802.8h-2.1v5.3
		h2.1V802.8z M332.4,800.3h-5.3l-0.4-0.7c-1.2,0.8-2.1,1.3-3,1.7c0.9,0.5,1,0.6,1,0.9c0,0.4-0.4,0.6-0.8,0.6h-5.8v5.3h0.7l1.5-1.6
		c0.4-0.5,0.8-0.5,1-0.5c0.4,0,0.7,0.1,1.1,0.5l2.5,1.8v-4.8l5,2.1h2.5V800.3z M335.6,790.3c-1.5,2.8-4.7,6.4-8.4,9h8.1l1.7-2
		c0.2-0.3,0.4-0.5,0.7-0.5c0.2,0,0.5,0.1,1,0.4l0.7,0.4C337,795,336.2,792.7,335.6,790.3z M332.4,806.6h-2.6v7.5h2.5
		c0-0.2,0.1-1.7,0.1-1.8V806.6z M340,806.6h-2.6v7.5h2.6V806.6z"/>
	<path class="st65" d="M377.3,803.1c-0.3,0-0.8-0.1-0.9-0.1c-0.6-0.1-1.1-0.1-1.4-0.1c-4.4,0-11.3,4.3-11.3,11.4
		c0,5.7,4.8,6.1,6.9,6.3c1.3,0.1,2.2,0.3,2.9,1.1c0.4,0.5,0.7,1.1,0.7,1.8c0,1.7-1.6,1.7-2.1,1.7c-5.8,0-10.9-3.9-10.9-9.4
		c0-5.9,4.3-10.6,7-12.3c0.3-0.2,0.5-0.3,0.5-0.4c0-0.2-0.3-0.2-0.3-0.2c-1.1,0-8.7,1.8-12.4,3.9c-0.7,0.4-0.9,0.4-1,0.4
		c-0.6,0-1.6-0.6-2.4-1.3c-0.9-0.9-1.6-2.4-1.6-3.5c0-0.1,0-0.4,0.2-0.4c0,0,0.5,0.4,0.5,0.4c0.9,0.8,1.7,1,2.8,1
		c0.1,0,0.4,0,0.7-0.1c7.5-1.6,8.4-1.8,16.7-3.3c0.2-0.1,1.9-0.5,2-0.5c0.7-0.3,0.7-0.3,1.1-0.3c1.1,0,2.2,0.6,2.9,1.3
		c0.6,0.5,0.6,0.8,0.6,1.6C378.2,802.7,377.8,803.1,377.3,803.1z M374.5,807.4c1.2,0.4,2.4,1.5,2.4,2.8c0,0.1,0,1.5-1.1,1.5
		c-0.8,0-1.1-0.7-1.3-1.1c-0.7-1.6-1.2-2.5-3-3.8C372.2,806.9,373.2,806.9,374.5,807.4z M380,808.2c0,1.2-0.9,1.4-1.1,1.4
		c-0.7,0-0.9-0.7-1.1-1.3c-0.8-2-2.1-2.8-3.3-3.6C377.3,804.8,380,805.8,380,808.2z"/>
	<path class="st65" d="M422.3,826c0,0.8,0,1.1-0.2,1.3c-0.3,0.2-4.7,0.2-5.4,0.2c-4.6,0-15.4,0-19.2-1.3c-5.2-1.8-7.6-7.1-8.5-9
		c-1.6,5-3.8,8.7-6.4,11l-0.4-0.3c1.6-3.6,3-9.6,3-17.5c0-1.6-0.1-2.7-0.1-3.8l7.3,0.9v-3.9H383l-0.5-1h9.9v-7.3h-7.8l-0.5-1h8.3
		V787l6.4,0.5c0.4,0,0.7,0.3,0.7,0.7c0,0.6-0.4,0.8-1.6,1.3v4.6h1.5l2.1-2.6c0.2-0.2,0.4-0.5,0.8-0.5c0.1,0,0.3,0,0.8,0.5l2.8,2.2
		c0.2,0.2,0.5,0.5,0.5,0.9c0,0.5-0.5,0.6-0.8,0.6h-7.6v7.3h2l2.1-2.6c0.2-0.2,0.3-0.4,0.7-0.4c0.2,0,0.4,0,0.9,0.4l2.7,2.1v-2.9
		l5.5,2.3h5v-10.2h-12.1l-0.5-1h12.7l1.5-1.5c0.5-0.5,0.7-0.7,1.2-0.7c0.4,0,0.8,0.2,1.1,0.5l2.9,2.3c0.3,0.2,0.5,0.5,0.5,1
		c0,0.4-0.3,0.7-0.5,0.9l-1,1v9.2c0,0.5,0,0.9-0.6,1.2c-1,0.4-2.3,0.6-3.3,0.6c-1.4,0-1.6-0.2-1.6-1v-1.3h-5.1v9.9
		c0,2.1,0.9,2.1,2.6,2.1h4.2c1.3,0,2.1,0,3.9-7.4h0.5l-0.3,5.3c0,0.7,0.2,1.2,0.4,1.5c1.3,1.7,1.5,1.9,1.5,2.9
		c0,2.3-2.2,2.6-4.2,2.6h-8.5h-1.2c-1.9,0-4.2-0.1-4.2-3.4v-3.8c-0.3,0-0.3,0-0.4,0h-7.9v9c2.5,0.5,5.9,0.8,10.8,0.8
		c5.6,0,12.9-0.4,16.3-0.7v0.5C423.4,822.7,422.3,823.7,422.3,826z M392.3,808.7c-0.4,0.1-0.6,0.2-1.6,0.4c-0.2,1.7-0.5,3.4-1.1,5.8
		c0.5,1,1.5,2.7,2.7,3.8V808.7z M406.2,803.4c-0.1,0-0.2,0-0.3,0h-6.8c0,0.2,0.1,0.3,0.1,0.4c0,0.7-0.5,1-1.3,1.3v6h1.9l2-2.6
		c0.2-0.2,0.4-0.5,0.7-0.5c0.2,0,0.4,0,0.9,0.4l2.6,2.1c0,0,0.2,0.2,0.2,0.2V803.4z"/>
	<path class="st65" d="M469.3,797h-12.4l2.3,1.8c0.2,0.1,0.5,0.4,0.5,0.7c0,0.3-0.1,0.3-1.3,0.5c-1.5,1.7-2.6,2.8-4.4,4.2h5.7l2.1-3
		c0.1-0.2,0.4-0.5,0.7-0.5c0.3,0,0.5,0.1,0.8,0.4l3.1,2.6c0.3,0.2,0.4,0.5,0.4,0.9c0,0.5-0.4,0.6-0.8,0.6h-13.3
		c0,0.1,0.1,0.2,0.1,0.4c0,0.2-0.1,0.3-0.7,0.8v2.9h4.6l2.1-2.8c0.1-0.2,0.3-0.5,0.7-0.5c0.3,0,0.5,0.2,0.8,0.5l2.8,2.4
		c0.1,0.1,0.4,0.6,0.4,0.9c0,0.4-0.4,0.6-0.8,0.6H452v4.3h10.1l2.7-3.5c0.2-0.2,0.4-0.4,0.7-0.4c0.3,0,0.6,0.2,0.8,0.4l3.1,3.1
		c0.3,0.2,0.4,0.6,0.4,0.9c0,0.5-0.4,0.6-0.8,0.6h-15.9c2.8,2.4,7.9,5.3,16.3,6.4l0,0.5c-1.9,0.8-2.8,1.1-3.7,3.5
		c-0.3,0.8-0.4,0.9-0.6,0.9c-1,0-7.8-2.3-13.2-10.9v9.6c0,1,0,1.6-1.7,2.3c-0.9,0.4-2.1,0.5-2.7,0.5c-1.3,0-1.3-0.7-1.3-1.5v-7.8
		c-5.2,4.2-11.5,7-18.1,8.2l-0.2-0.4c6.9-3,11.3-7.2,14-11.4h-12.9l-0.5-1h17.8v-4.3h-12.9l-0.5-1h13.4v-4.1h-15.3l-0.5-1h11.6
		c-0.8-0.8-1-1.6-1.3-3.9c-0.3-2.2-1.3-2.6-2.8-3.2h-9.3l-0.5-1h9.1c-0.8-0.4-1.2-1.2-1.5-2.6c-0.7-3.5-0.8-4.3-3.1-5.4l0.2-0.5
		c8.3,0.6,8.3,5.7,8.3,5.9c0,0.7-0.4,2-1.8,2.6h3.1v-9.4l5.7,0.6c0.5,0,0.9,0.1,0.9,0.6c0,0.4-0.1,0.5-1.1,1.1v7.1h2.8v-9.4l5.4,0.5
		c0.3,0,1.1,0.1,1.1,0.8c0,0.4-0.2,0.5-1.1,0.8v6.6c2-3.2,2.9-5.2,4-8.3l4.5,2.6c0.5,0.3,0.6,0.4,0.6,0.6c0,0.5-0.1,0.5-1.5,0.5
		c-2.2,2.1-3.8,3.5-6.4,5.3h5.8l2.4-3.4c0.1-0.2,0.3-0.5,0.7-0.5c0.3,0,0.6,0.3,0.8,0.5l2.8,3c0.3,0.4,0.4,0.6,0.4,0.9
		C470,796.8,469.7,797,469.3,797z M441.1,797c2.3,0.9,5.4,2.2,5.4,4.8c0,0.1,0,1.4-1.2,2.4h6.2c0.8-1.8,1.8-4.2,2.4-7.2H441.1z"/>
	<path class="st65" d="M486.2,794.7c0.3,0,0.6,0.2,0.6,0.5c0,0.4-0.2,0.6-0.8,1.5c-1.9,2.9-4.8,7.3-4.7,15c0,7.7,2.9,12.2,4.7,15
		c0.6,0.9,0.8,1.1,0.8,1.5c0,0.3-0.3,0.5-0.6,0.5c-1.1,0-7.6-7.2-7.6-17.1C478.6,801.9,485.2,794.7,486.2,794.7z"/>
	<path class="st65" d="M522.6,823.3c-0.9,0-3.4,0.2-4.3,3c-0.1,0.5-0.2,0.5-0.4,0.5c-0.3,0-3-2.2-5.1-5.4
		c-3.7-5.6-4.8-11.3-5.3-18.5c-0.2,2.8-0.8,10.4-4.5,15.7c-2.1,2.9-6.5,7.6-13.6,8.4v-0.3c8.8-3.7,13.4-15,13.4-27.2
		c0-1.6-0.1-2.7-0.2-3.5l6.4,0.7c0.5,0.1,0.8,0.1,0.8,0.6c0,0.5-0.8,0.9-1.3,1.1c-0.1,1-0.1,1.7-0.1,2.1c0,4.7,1.9,10.8,6,15.9
		c2.4,3,5,4.8,8.3,6.6L522.6,823.3z"/>
	<path class="st65" d="M556.5,804.6h-5v19.8c0,1.1,0,3.2-4.1,3.2c-0.8,0-1.1,0-1.1-0.4c0-0.1,0.1-0.6,0.1-0.7c0-1.4-0.5-1.9-1.3-2.1
		c-0.6-0.2-3-0.8-3.4-1l0.1-0.3c0.5,0,3.7,0.2,3.9,0.2c1.2,0,1.6,0,1.6-0.9V814c-2.6,3.4-7,7.3-11.3,9.1l-0.2-0.3
		c5.7-5,8.6-10.5,10.4-18.2h-10.6v2.8c2.4,0.8,5.5,2.3,5.5,5.4c0,0.3,0,2.5-2.1,2.5c-2.2,0-2.2-1.7-2.2-2.6c0-0.6-0.1-2.9-1.2-4.3
		v17.8c0,0.9-2.5,1.3-3.1,1.3c-0.7,0-1.3-0.1-1.3-0.9V815c-0.7,0.9-3.3,4-5.8,5.7l-0.3-0.2c3.1-4.8,4.9-10.3,5.4-15.9h-5l-0.4-0.8
		h6.3V796l5.4,0.4c0.3,0,0.5,0.2,0.5,0.5c0,0.5-0.5,0.7-1.4,1v5.9h0.8l1.6-2.2c0.1-0.1,0.2-0.3,0.6-0.3c0.2,0,0.4,0.1,0.6,0.3
		l2.4,1.9c0.1,0.1,0.2,0.2,0.2,0.3h5.6v-7.8l5.3,0.4c0.3,0,0.3,0.3,0.3,0.5c0,0.5-0.4,0.7-1.4,1v5.9h0.9l1.5-2.3
		c0.1-0.2,0.3-0.3,0.6-0.3c0.2,0,0.5,0.1,0.6,0.3l1.8,1.9c0.2,0.2,0.3,0.3,0.3,0.6C557.2,804.5,556.8,804.6,556.5,804.6z"/>
	<path class="st65" d="M591,803.7h-9.4l1.8,1.4c0.1,0.1,0.3,0.3,0.3,0.5s-0.1,0.2-1,0.4c-1.1,1.3-2,2.2-3.4,3.2h4.3l1.6-2.3
		c0.1-0.2,0.3-0.3,0.6-0.3c0.2,0,0.3,0.1,0.6,0.3l2.3,1.9c0.2,0.2,0.3,0.4,0.3,0.7c0,0.3-0.3,0.5-0.6,0.5h-10.2
		c0,0.1,0.1,0.2,0.1,0.3c0,0.2-0.1,0.2-0.6,0.6v2.2h3.5l1.6-2.2c0.1-0.1,0.2-0.3,0.6-0.3c0.2,0,0.3,0.1,0.6,0.3l2.2,1.8
		c0.1,0.1,0.3,0.5,0.3,0.7c0,0.3-0.3,0.5-0.6,0.5h-8.1v3.3h7.7l2.1-2.7c0.1-0.2,0.3-0.3,0.6-0.3c0.2,0,0.5,0.2,0.6,0.3l2.4,2.3
		c0.2,0.2,0.3,0.5,0.3,0.7c0,0.3-0.3,0.5-0.6,0.5h-12.1c2.2,1.8,6,4.1,12.4,4.9l0,0.4c-1.4,0.6-2.2,0.9-2.9,2.7
		c-0.2,0.6-0.3,0.7-0.5,0.7c-0.7,0-5.9-1.8-10-8.3v7.3c0,0.8,0,1.2-1.3,1.7c-0.7,0.3-1.6,0.4-2.1,0.4c-1,0-1-0.5-1-1.1v-5.9
		c-4,3.2-8.7,5.4-13.8,6.2l-0.2-0.3c5.3-2.3,8.6-5.5,10.6-8.7h-9.8l-0.4-0.8h13.6v-3.3h-9.8l-0.4-0.8h10.2v-3.1h-11.7l-0.4-0.8h8.8
		c-0.6-0.6-0.7-1.2-1-3c-0.2-1.7-1-2-2.1-2.5H560l-0.4-0.8h6.9c-0.6-0.3-0.9-0.9-1.1-2c-0.5-2.7-0.6-3.3-2.4-4.1l0.1-0.3
		c6.3,0.5,6.3,4.3,6.3,4.5c0,0.6-0.3,1.5-1.4,2h2.3v-7.2l4.3,0.5c0.3,0,0.7,0.1,0.7,0.5c0,0.3-0.1,0.3-0.9,0.8v5.4h2.1v-7.1l4.1,0.3
		c0.2,0,0.8,0.1,0.8,0.6c0,0.3-0.1,0.3-0.8,0.6v5c1.5-2.4,2.2-4,3.1-6.3l3.4,1.9c0.3,0.2,0.5,0.3,0.5,0.5c0,0.4-0.1,0.4-1.1,0.4
		c-1.7,1.6-2.9,2.7-4.9,4h4.4l1.8-2.6c0.1-0.1,0.2-0.3,0.6-0.3c0.2,0,0.5,0.2,0.6,0.3l2.2,2.3c0.2,0.3,0.3,0.5,0.3,0.7
		C591.6,803.5,591.3,803.7,591,803.7z M569.5,803.7c1.7,0.7,4.1,1.7,4.1,3.7c0,0.1,0,1.1-0.9,1.8h4.7c0.6-1.4,1.4-3.2,1.8-5.5H569.5
		z"/>
	<path class="st65" d="M595.6,828.8c-0.3,0-0.6-0.2-0.6-0.5c0-0.4,0.1-0.6,0.8-1.5c1.8-2.8,4.7-7.3,4.7-15c0-7.8-2.9-12.2-4.7-15
		c-0.6-0.9-0.8-1.1-0.8-1.5c0-0.3,0.3-0.5,0.6-0.5c1,0,7.6,7.2,7.6,17.1C603.2,821.6,596.7,828.8,595.6,828.8z"/>
</g>
</svg>
