<svg xmlns="http://www.w3.org/2000/svg" width="67" height="66" viewBox="0 0 67 66">
  <g id="グループ_25" data-name="グループ 25" transform="translate(-1176 -2579.525)">
    <g id="楕円形_1" data-name="楕円形 1" transform="translate(1176 2579.525)" fill="none" stroke="#171c5f" stroke-width="1">
      <ellipse cx="33.5" cy="33" rx="33.5" ry="33" stroke="none"/>
      <ellipse cx="33.5" cy="33" rx="33" ry="32.5" fill="none"/>
    </g>
    <path id="Icon_ionic-ios-arrow-round-forward" data-name="Icon ionic-ios-arrow-round-forward" d="M18.559,11.466a.76.76,0,0,0-.006,1.071l3.538,3.544H8.626a.757.757,0,0,0,0,1.513h13.46l-3.538,3.544a.766.766,0,0,0,.006,1.071.753.753,0,0,0,1.065-.006l4.8-4.83h0a.85.85,0,0,0,.157-.239.722.722,0,0,0,.058-.291.758.758,0,0,0-.215-.53l-4.8-4.83A.741.741,0,0,0,18.559,11.466Z" transform="translate(1193.006 2595.428)" fill="#171c5f"/>
  </g>
</svg>
